<?xml version="1.0" standalone="no"?>
<!DOCTYPE svg PUBLIC "-//W3C//DTD SVG 1.1//EN" "http://www.w3.org/Graphics/SVG/1.1/DTD/svg11.dtd" >
<svg xmlns="http://www.w3.org/2000/svg" xmlns:xlink="http://www.w3.org/1999/xlink" version="1.1">
<metadata>
Created by FontForge 20201107 at Tue Sep 16 07:51:53 2025
 By 
Peterdraw
</metadata>
<defs>
<font id="JojobaRegular" horiz-adv-x="0" >
  <font-face 
    font-family="Jojoba"
    font-weight="400"
    font-stretch="normal"
    units-per-em="2048"
    panose-1="0 0 0 0 0 0 0 0 0 0"
    ascent="1638"
    descent="-410"
    x-height="932"
    cap-height="1476"
    bbox="-412.114 -670.101 1724.92 1736.95"
    underline-thickness="0"
    underline-position="0"
    unicode-range="U+000A-00AD"
  />
<missing-glyph horiz-adv-x="1079" 
d="M102 1434h875v-1434h-875v1434zM160 1393l379 -633l381 633h-760zM514 717l-369 614v-1231zM541 674l-379 -631h758zM565 717l371 -621v1239z" />
    <glyph glyph-name=".notdef" horiz-adv-x="1079" 
d="M102 1434h875v-1434h-875v1434zM160 1393l379 -633l381 633h-760zM514 717l-369 614v-1231zM541 674l-379 -631h758zM565 717l371 -621v1239z" />
    <glyph glyph-name=".null" 
 />
    <glyph glyph-name=".null" 
 />
    <glyph glyph-name="nonmarkingreturn" horiz-adv-x="682" 
 />
    <glyph glyph-name="controlLF" unicode="&#xa;" 
 />
    <glyph glyph-name="controlCR" unicode="&#xd;" 
 />
    <glyph glyph-name="space" unicode=" " horiz-adv-x="557" 
 />
    <glyph glyph-name="exclam" unicode="!" horiz-adv-x="425" 
d="M322 1201q0 -36 1 -112.5t0.5 -135.5t-2.5 -113q-2 -47 -2 -178t-6 -202q-7 -107 -11 -128q-8 -44 -46.5 -68t-78.5 -11q-50 16 -65 86q-13 59 -5 110v10q0 77 5.5 262t2.5 285q-1 56 -5 166.5t-6 165.5q-2 60 18 109q28 70 97 61q67 -9 86 -86q8 -33 10.5 -70t3.5 -81.5
t3 -69.5zM203 126q103 -2 108 -100q2 -43 -29.5 -77.5t-70.5 -34.5q-45 -1 -77 31.5t-32 79.5q0 34 30 68t71 33z" />
    <glyph glyph-name="quotedbl" unicode="&#x22;" horiz-adv-x="657" 
d="M255 1423q66 -28 69 -101v-29q-3 -21 -3 -64t-3 -64q-2 -13 0 -27q4 -51 -27 -100q-23 -37 -78 -34q-33 2 -58 22t-34 52q-6 23 -8 69q-1 16 -6 67t-4 80q1 45 25 80t64 52q27 11 63 -3zM497 1424q36 -17 49 -43.5t7 -70.5q-12 -94 -1 -206q4 -49 -39 -75
q-38 -24 -89 -16q-32 6 -53 47q-14 28 -18.5 60.5t-5 71.5t-3.5 59q0 5 1 19.5t1.5 20t1.5 18t2.5 19.5t4 17.5t6 19t7.5 16.5q19 36 55.5 48.5t73.5 -5.5z" />
    <glyph glyph-name="quotedbl" unicode="&#x201d;" horiz-adv-x="657" 
d="M255 1423q66 -28 69 -101v-29q-3 -21 -3 -64t-3 -64q-2 -13 0 -27q4 -51 -27 -100q-23 -37 -78 -34q-33 2 -58 22t-34 52q-6 23 -8 69q-1 16 -6 67t-4 80q1 45 25 80t64 52q27 11 63 -3zM497 1424q36 -17 49 -43.5t7 -70.5q-12 -94 -1 -206q4 -49 -39 -75
q-38 -24 -89 -16q-32 6 -53 47q-14 28 -18.5 60.5t-5 71.5t-3.5 59q0 5 1 19.5t1.5 20t1.5 18t2.5 19.5t4 17.5t6 19t7.5 16.5q19 36 55.5 48.5t73.5 -5.5z" />
    <glyph glyph-name="quotedbl" unicode="&#x201c;" horiz-adv-x="657" 
d="M255 1423q66 -28 69 -101v-29q-3 -21 -3 -64t-3 -64q-2 -13 0 -27q4 -51 -27 -100q-23 -37 -78 -34q-33 2 -58 22t-34 52q-6 23 -8 69q-1 16 -6 67t-4 80q1 45 25 80t64 52q27 11 63 -3zM497 1424q36 -17 49 -43.5t7 -70.5q-12 -94 -1 -206q4 -49 -39 -75
q-38 -24 -89 -16q-32 6 -53 47q-14 28 -18.5 60.5t-5 71.5t-3.5 59q0 5 1 19.5t1.5 20t1.5 18t2.5 19.5t4 17.5t6 19t7.5 16.5q19 36 55.5 48.5t73.5 -5.5z" />
    <glyph glyph-name="numbersign" unicode="#" horiz-adv-x="1454" 
d="M1350 847q7 -55 -39 -95q-38 -32 -96 -34q-46 -2 -140 4q-14 2 -15 -11q-2 -18 -2.5 -56t-3.5 -58q-1 -9 5.5 -10.5t11.5 0.5q46 8 119 -5q30 -6 57 -16q61 -24 61 -82q0 -64 -57 -91q-56 -26 -125 -29q-17 -1 -78 4q-22 2 -24 -18q-10 -98 -33 -234q-11 -68 -34 -105
q-19 -31 -51 -42t-62 4q-28 14 -43 58q-18 56 -11 141q1 16 4 67.5t6 79.5q2 20 5 30t-0.5 13t-12.5 2q-70 -9 -148 -7q-16 0 -14 -17q4 -36 0 -90q-7 -105 -31 -189q-16 -53 -50 -78q-37 -27 -75 -17.5t-57 51.5q-21 46 -21 143q1 19 2.5 53t3 62.5t3.5 53.5q1 13 -2.5 17
t-16.5 1q-81 -18 -164 -6q-53 7 -95 52q-28 31 -24.5 67.5t36.5 63.5q49 39 141 50q30 4 144 -1q19 -1 19 16q0 20 2.5 63t1.5 67q0 13 -4.5 18t-17.5 4q-96 -6 -182 8q-63 10 -79 60q-18 57 29 98q56 48 145 45q17 -1 59.5 -0.5t59.5 0.5q4 0 5.5 1.5t2 3t1 5t0.5 4.5
q8 70 11 105q3 42 13.5 120.5t11.5 90.5q2 17 6.5 52t6.5 52q4 34 29 61t59 34q29 6 51 -2.5t32 -20.5t24 -35q9 -15 10.5 -31t-1.5 -39t-3 -30q0 -17 -1.5 -35.5t-4 -41.5t-3.5 -36q-15 -176 -15 -181q-1 -8 -1.5 -22t-1.5 -25.5t-3 -21.5q-3 -13 10 -13q24 -1 71.5 -2
t70.5 -1q12 0 12 13q-1 62 13.5 176.5t16.5 145.5q7 102 13 124q23 93 98 103q41 6 79 -21.5t41 -69.5q1 -18 -0.5 -38t-5 -43t-4.5 -37q-2 -32 -8.5 -95t-8.5 -94q-4 -59 -14 -133q0 -3 -1 -9.5t-1 -9.5q-1 -12 3.5 -15.5t17.5 -3.5q113 4 190 -16q63 -16 71 -74zM834 591
q1 8 5.5 52t4.5 67q0 16 -18 16q-29 0 -43 2l-105 9q-15 2 -17 -10q-17 -75 -10 -135q1 -11 15 -11h73v1h79q15 0 16 9z" />
    <glyph glyph-name="dollar" unicode="$" horiz-adv-x="958" 
d="M848 369q31 -116 -55 -228q-89 -115 -266 -164q-11 -3 -16 -5t-9 -8.5t-4 -17.5q0 -52 -32 -90q-37 -43 -90 -36q-57 7 -77 64q-15 43 -7 81q3 14 -12 17q-46 9 -73 22q-77 34 -87 101q-6 34 22 56q48 37 133 28q17 -2 22.5 2.5t8.5 20.5q4 21 5.5 44.5t2.5 53.5t2 45
q2 34 5.5 102.5t5.5 102.5q1 11 -11 20q-3 3 -41.5 31.5t-55.5 46.5q-100 103 -115 243q-19 176 135 315q46 41 132 89q19 10 19 31q-2 90 11 155q10 49 50 72q56 33 108 -8q45 -35 48 -100q2 -39 -2 -58q-3 -15 12 -15h27q81 0 133 -32q30 -18 44.5 -50t7.5 -66
q-5 -29 -29 -51.5t-57 -29.5q-13 -3 -28.5 -3.5t-25 0t-28.5 2.5t-26 3q-44 4 -49 -1q-6 -4 -9 -41q-1 -2 -1 -5q-20 -190 -29 -285q-2 -18 -3.5 -38t-3 -44.5t-2.5 -37.5q-1 -18 15 -28q92 -58 136 -90q126 -91 159 -216zM337 845q4 31 23 187q-33 -29 -43 -92t20 -95z
M596 245q81 61 17 131q-29 33 -72 60q-1 1 -3.5 3t-4 2h-4.5q-2 -1 -2 -12q-1 -36 -0.5 -65t0 -64.5t-3.5 -63.5v-14q0 -15 3.5 -17t16.5 6q43 26 53 34z" />
    <glyph glyph-name="percent" unicode="%" horiz-adv-x="813" 
d="M701 1466q11 -34 9 -57q-3 -74 -46 -183q-42 -109 -138 -401q-13 -41 -35.5 -124t-35.5 -123q-6 -20 -33.5 -92t-36.5 -113q-8 -37 -70 -269q-23 -86 -87 -103q-46 -13 -83.5 15t-41.5 77q-1 18 1.5 36.5t8.5 42.5t8 35q26 139 78 269q12 31 22.5 66.5t22 80t18.5 68.5
q101 339 162 490q16 41 44.5 128t46.5 131q15 37 46 65q35 31 80.5 18t59.5 -57zM180 1262q-30 17 -32 66q-2 76 46 112q41 31 111 1q53 -24 51 -82q1 -67 -63 -103q-53 -29 -113 6zM561 311q43 2 72.5 -29.5t29.5 -77.5q0 -49 -29.5 -78t-79.5 -30q-37 -1 -65 30t-28 71
q4 55 30.5 83.5t69.5 30.5z" />
    <glyph glyph-name="ampersand" unicode="&#x26;" horiz-adv-x="1320" 
d="M1203 237q27 -42 5 -87t-65 -56q-54 -14 -116 8q-27 10 -54 23t-66 33.5t-52 27.5q-7 4 -21.5 12t-22.5 12q-17 9 -27 -2q-97 -106 -255 -154q-124 -38 -260 8q-77 26 -124 110q-67 120 -28 248q53 173 172 289q12 12 4 28q-53 98 -78 235q-17 94 18 181q63 157 178 238
q45 32 150 50q21 4 63 4q139 2 218 -107q43 -59 59 -164q19 -131 -93 -260q-99 -115 -205 -205q-22 -18 -22.5 -25t18.5 -28q5 -5 19.5 -21.5t20.5 -23.5t19 -21t21 -22.5t20 -19.5t23 -20.5t23 -18.5q22 -17 28.5 -16t19.5 24q40 66 88 109q42 37 87 33q39 -4 60.5 -32
t21.5 -65q0 -104 -82 -178q-7 -6 -8 -10t1.5 -6t9.5 -5q28 -12 82.5 -35.5t81.5 -35.5q43 -19 68 -55zM552 1209q-56 -21 -90 -76t-34 -123q-1 -33 28 -117q4 -12 12 -1q14 20 23 28q45 44 132 127q37 37 49 85q8 35 -16 64q-33 40 -104 13zM608 338q1 4 -3 7.5t-11 7.5
t-10 6q-102 87 -152 153q-15 19 -25 -2l-24 -42q-36 -58 -50 -124q-9 -44 14 -71t71 -27q86 9 164 69q25 17 26 23z" />
    <glyph glyph-name="quotesingle" unicode="'" horiz-adv-x="546" 
d="M414 1368q41 -27 28 -87q-8 -35 -22 -61q-57 -111 -129 -197q-19 -23 -45 -39q-52 -33 -102 -4q-44 26 -41 86q-4 27 15 57q117 176 135 203q20 29 51 49q28 19 52 17.5t58 -24.5z" />
    <glyph glyph-name="quotesingle" unicode="&#x2019;" horiz-adv-x="546" 
d="M414 1368q41 -27 28 -87q-8 -35 -22 -61q-57 -111 -129 -197q-19 -23 -45 -39q-52 -33 -102 -4q-44 26 -41 86q-4 27 15 57q117 176 135 203q20 29 51 49q28 19 52 17.5t58 -24.5z" />
    <glyph glyph-name="quotesingle" unicode="&#x2018;" horiz-adv-x="546" 
d="M414 1368q41 -27 28 -87q-8 -35 -22 -61q-57 -111 -129 -197q-19 -23 -45 -39q-52 -33 -102 -4q-44 26 -41 86q-4 27 15 57q117 176 135 203q20 29 51 49q28 19 52 17.5t58 -24.5z" />
    <glyph glyph-name="parenleft" unicode="(" horiz-adv-x="663" 
d="M545 1494q13 -17 14.5 -41.5t-2.5 -43.5q-3 -26 -22 -60q-160 -285 -194 -498q-15 -91 -16 -170q-2 -156 7 -234q13 -116 30.5 -200t53.5 -162q6 -13 21.5 -35.5t20.5 -33.5q30 -56 13 -101q-23 -64 -87 -47q-93 26 -135 110q-1 2 -27 50t-34 74q-65 199 -84 366v92
q-7 293 87 591q45 140 157 302q35 50 66 67q34 19 71 12t60 -38z" />
    <glyph glyph-name="parenright" unicode=")" horiz-adv-x="665" 
d="M563 546q2 -56 -8 -127t-21 -116.5t-34 -130.5q-25 -93 -93 -210q-47 -81 -147 -97q-32 -5 -55 31q-28 42 -12 86q8 25 27 53q57 83 86 226q44 217 35 445q-6 159 -63 328q-10 28 -22.5 59t-23 54.5t-27.5 58t-26 52.5t-30 57.5t-28 53.5q-17 33 -19 64.5t15.5 59
t56.5 38.5q33 10 73.5 -9t58.5 -50q9 -17 29.5 -46t26.5 -39q102 -159 147 -360q50 -218 51 -358q0 -21 1.5 -63.5t1.5 -59.5z" />
    <glyph glyph-name="asterisk" unicode="*" horiz-adv-x="841" 
d="M734 1194q16 -34 -18 -52q-32 -16 -114 -16h-45q39 -59 52 -101q14 -44 1 -77q-7 -21 -23.5 -27t-35.5 4q-29 14 -65 64q-9 13 -66 98q-9 -14 -55 -83q-24 -36 -50 -60q-12 -12 -28 -20q-38 -19 -55 21q-14 28 -5 66q10 45 51 106q1 2 5.5 8t7.5 11q-9 2 -64 5
q-70 2 -97 21q-31 21 -27 52q5 30 44 43q48 18 118 14q25 -3 28 2q1 6 0.5 8t-6 7t-6.5 7q-4 6 -22 32.5t-25 42.5q-17 38 -4 69q14 33 50 25q30 -6 53 -29q40 -39 75 -95q12 -20 24 -1q36 58 74 95q21 21 46 28q26 7 43.5 -5t19.5 -40q3 -33 -19 -66q-8 -12 -23.5 -35
t-22.5 -34q-8 -13 -7 -15q2 -4 15 -4q55 1 115 -18q45 -15 61 -51z" />
    <glyph glyph-name="plus" unicode="+" horiz-adv-x="792" 
d="M674 810q33 -54 -5 -118q-32 -52 -114 -66h-9q-27 -1 -32 -7.5t0 -33.5q11 -64 -18 -113q-17 -28 -47.5 -42.5t-58.5 -7.5q-44 12 -65 53q-26 49 -26 101q0 14 -5 19t-19 4q-39 -3 -79 -3q-72 0 -91 62q-2 6 -2.5 16.5t-0.5 11.5q1 47 20.5 74t62.5 41q52 17 72 16
q11 -1 13.5 4.5t0.5 15.5q-9 56 9 110q10 30 32.5 50t46.5 18q71 -6 98 -67q13 -28 21 -97q1 -14 15 -12q13 2 39 4.5t39 4.5q72 10 103 -38z" />
    <glyph glyph-name="comma" unicode="," horiz-adv-x="446" 
d="M235 193q41 -8 76 -46.5t33 -83.5q-5 -67 -49 -124t-116 -60q-21 -2 -27 10q-7 13 6 28q5 6 15.5 14.5t12.5 9.5q30 26 -5 44q-5 3 -17 9t-17 9q-36 17 -43 51.5t9 63.5q18 39 53 60.5t69 14.5z" />
    <glyph glyph-name="hyphen" unicode="-" horiz-adv-x="733" 
d="M592 835q24 -19 33.5 -49t1.5 -63q-14 -57 -79 -71q-26 -5 -53 -8t-66 -4.5t-53 -2.5q-105 -8 -118 -8q-45 -9 -115 23q-34 16 -39.5 56.5t21.5 71.5q44 49 131 56q147 12 229 17q25 5 55 2t52 -20z" />
    <glyph glyph-name="period" unicode="." horiz-adv-x="417" 
d="M315 105q3 -34 -20 -70t-60 -44q-3 0 -14.5 -3.5t-18.5 -3.5q-48 -2 -77.5 34.5t-19.5 84.5q12 57 69 93q10 6 30 6q45 -1 76 -27.5t35 -69.5z" />
    <glyph glyph-name="slash" unicode="/" horiz-adv-x="983" 
d="M791 1604q39 -8 64.5 -41.5t25.5 -78.5q-6 -39 -25 -86q-9 -22 -39.5 -100t-45.5 -113.5t-42.5 -94t-53.5 -104.5q-9 -15 -25 -69q-14 -50 -51.5 -137t-46.5 -111q-17 -45 -55.5 -127t-53.5 -120q-67 -174 -101 -284q-24 -76 -70 -109q-29 -20 -61 -27q-26 -6 -45 10
q-49 41 -59 74q-7 26 -2 45q16 61 53 144q97 220 159 378q7 19 28.5 76.5t37 96.5t33.5 75q12 25 42.5 99t52.5 112q35 59 62 148q41 128 76 193q9 17 20 50.5t18 47.5q14 31 42.5 45.5t61.5 7.5z" />
    <glyph glyph-name="zero" unicode="0" horiz-adv-x="1126" 
d="M1009 927q17 -80 14 -158q-7 -264 -89 -467q-82 -200 -284 -298q-126 -61 -262 17q-125 71 -192 232q-58 139 -78 276q-25 169 -10 306q1 7 3.5 53.5t7.5 70.5q24 116 92 243q76 144 216 220q128 70 273 6q158 -70 235 -261q51 -128 74 -240zM801 682q0 14 3 47.5t1 53.5
q3 48 -20 171q-28 145 -95 228q-33 41 -101 55q-57 13 -100 -24q-100 -85 -131 -180q-37 -112 -42 -263q-3 -78 15 -187q23 -144 49 -224q30 -89 97 -139q39 -29 77 -22q51 10 84 44q88 90 132 229q32 107 31 211z" />
    <glyph glyph-name="one" unicode="1" horiz-adv-x="450" 
d="M299 1435q21 -32 19 -93q4 -198 8 -295q0 -9 5.5 -83t4.5 -113t4.5 -110.5t6.5 -86.5q4 -74 -1 -111q-2 -18 -2 -29q-2 -40 -1 -159t1 -159q0 -75 -8 -111q-8 -39 -48 -62.5t-77 -11.5q-31 10 -54 45.5t-20 68.5q1 9 -1 25t-2 23q0 28 0.5 79t1 92.5t1.5 78.5
q4 110 -5 297q-13 250 -14 283q-2 124 -13 237q-11 125 30 199q27 49 83 49q47 0 81 -53z" />
    <glyph glyph-name="two" unicode="2" horiz-adv-x="1087" 
d="M646 -14q-15 -2 -42.5 -2h-34.5q-87 -6 -176 24q-123 41 -200 146q-9 12 -13 24.5t-7 37t-3 26.5q-19 115 26 222q6 14 14.5 29t15.5 25t19.5 27.5t17.5 25.5q19 29 41 56.5t50 57.5t46 48.5t54 54.5l49 49q91 91 158 170q60 71 75 160q8 46 -15 81.5t-78 38.5
q-68 4 -133 -23q-30 -12 -78 -41q-73 -43 -124 -146q-2 -4 -6 -13t-6.5 -14.5t-7.5 -11.5t-11 -10q-62 -39 -127 -7q-26 13 -38 38t-10 50t12 50q36 87 96 159q88 105 192 142q5 2 20.5 7.5t21 7.5t19.5 7t21.5 7t20.5 5.5t22 5t20.5 3t22.5 2.5q167 9 262 -74
q128 -113 113 -278q-8 -79 -26 -113q-4 -8 -19.5 -37.5t-21.5 -41t-20 -36.5t-24 -39.5t-24.5 -33.5t-29.5 -34q-110 -113 -217 -232q-99 -111 -135 -166q-13 -20 -24 -40q-30 -55 -29 -92q2 -54 50 -71q102 -37 211 -24q42 5 117.5 16.5t96.5 14.5q44 6 79.5 -11t50.5 -58
t-4.5 -80.5t-60.5 -52.5q-15 -4 -32 -6.5t-38 -4.5t-32 -4q-28 -4 -83.5 -10.5t-83.5 -10.5z" />
    <glyph glyph-name="three" unicode="3" horiz-adv-x="1042" 
d="M410 6q-123 -10 -146 -10q-63 -4 -97 21q-37 27 -53.5 57t-8.5 71q12 58 70 64q26 3 76 1q140 -6 212 14q111 31 165 71q91 69 94 169q1 61 -52 106q-58 50 -125 76q-115 45 -136 56q-30 16 -44 28q-35 29 -27 94q5 45 45 88q33 34 102.5 92t78.5 66q48 44 67 71
q31 47 18 81.5t-60 51.5q-71 27 -159 12q-74 -12 -147 -42q-59 -25 -110 21q-41 37 -32 102q1 6 4.5 11t9 10t7.5 8q20 25 50.5 44t50.5 26.5t62 21.5q50 17 115 18.5t117 -4.5q95 -7 154 -39q136 -74 159 -214q7 -45 -11 -112q-33 -126 -146 -228q-44 -40 -68 -57
q-12 -9 1 -15q85 -40 180 -117q81 -64 104 -165q34 -143 -55 -295q-81 -139 -241 -205q-95 -39 -224 -49z" />
    <glyph glyph-name="four" unicode="4" horiz-adv-x="1011" 
d="M876 1269q-1 -29 -1 -182q1 -25 0.5 -96t2.5 -104q2 -32 -0.5 -92.5t-1.5 -89.5q2 -38 6.5 -114t6.5 -114q2 -42 2 -125q0 -31 6.5 -88t7.5 -78q6 -84 4 -126q-2 -50 -48.5 -78.5t-97.5 0.5q-64 36 -68 110q-2 38 -4 133.5t-7 146.5q-5 45 -7 128t-4 112q0 9 -1.5 27
t-2.5 28q0 13 -13 13q-31 0 -46 -1q-118 -6 -230 13q-82 14 -169 100q-80 80 -97 191q-14 92 -11 164q1 27 1 240q0 76 76 122q36 21 90 -9t53 -78q-1 -30 -6 -126t-4 -149q2 -69 6 -92q9 -61 63 -120q17 -20 42 -26q120 -31 208 -20q22 3 27.5 9t5.5 28q1 51 1 154
q0 18 -1 75t0 88q2 95 87 118q50 13 88 -19t36 -73z" />
    <glyph glyph-name="five" unicode="5" horiz-adv-x="913" 
d="M602 1268q-12 -1 -26 -1t-31 0.5t-26 0.5q-24 1 -84.5 -2.5t-84.5 0.5q-12 1 -17 -4t-5 -18q-2 -42 -0.5 -159.5t1.5 -159.5q0 -27 4 -32t30 -10q116 -22 170 -41q185 -63 250 -245q43 -122 20 -226q-30 -132 -151 -237q-95 -82 -222 -127q-14 -5 -49 -20.5t-54 -21.5
q-70 -22 -109 -14q-33 7 -54.5 32t-26.5 59q-8 60 53 95q31 18 76 32q122 40 217 102q89 59 109 138q28 102 -60 183q-75 70 -187 79q-78 6 -144 47q-73 45 -86 145q-16 116 -11 263q7 179 18 237q7 34 20 53q26 39 101 49q132 18 179 21q79 4 158 0q14 -1 39.5 -2
t46.5 -2.5t40 -4.5q69 -12 81 -79q8 -49 -22.5 -87t-80.5 -40q-9 0 -25.5 -0.5t-30.5 -1t-26 -1.5z" />
    <glyph glyph-name="six" unicode="6" horiz-adv-x="1052" 
d="M949 400v-44q7 -82 -53 -200q-5 -9 -12 -18t-12 -14t-16.5 -15.5t-14.5 -13.5q-116 -114 -286 -116q-82 0 -118 20q-84 46 -133 93q-113 106 -169 286q-32 102 -32 165q0 131 5 172q17 133 68 277q61 172 190 329q89 108 205 141q38 11 72 6q60 -8 82 -80q9 -31 -27 -75
q-27 -33 -81 -56q-15 -6 -45 -32q-154 -130 -212 -355q-27 -104 -45 -233q-3 -29 2 -33q3 -2 7 0t10 7t8 7q81 54 177 88q105 37 198 0q100 -39 165 -116q60 -70 67 -190zM454 242q48 -43 116 -51q46 0 99.5 34.5t67.5 86.5q29 107 -52 170q-53 41 -124 10
q-91 -38 -186 -110q-10 -9 -6 -18q35 -78 85 -122z" />
    <glyph glyph-name="seven" unicode="7" horiz-adv-x="890" 
d="M750 1407q44 -63 37 -132q-9 -112 -44 -267q-18 -79 -56 -223t-48 -184t-30 -131t-32 -139q-50 -190 -54 -208q-2 -7 -7 -35t-10 -42q-8 -27 -27 -50q-30 -39 -95 -24q-50 11 -74 53.5t-7 90.5q26 73 58.5 211.5t49.5 194.5q13 43 26 95t20 85.5t20.5 99.5t18.5 90
q1 7 45 190q17 71 31 181q2 11 -2 15t-15 2q-24 -3 -77 -7.5t-93 -9t-76 -12.5q-3 -1 -9 -1q-78 1 -161 -11q-72 -10 -106 56q-20 41 4.5 87.5t69.5 56.5q113 24 181 30q49 4 157 10q79 4 169 1q87 -3 136 -73z" />
    <glyph glyph-name="eight" unicode="8" horiz-adv-x="1024" 
d="M698 1q-104 -55 -189 -50q-133 4 -260 83q-110 67 -140 204q-16 75 14 195q20 80 68 152q60 91 96 127q9 9 -1 21q-78 98 -99 135q-79 137 -53 278q16 86 84 176q101 135 290 172q88 17 211 -48q112 -58 150 -217q32 -130 -42 -279q-19 -38 -49 -78.5t-53.5 -65.5
t-64.5 -66q-9 -9 -8.5 -13.5t10.5 -10.5q101 -61 174 -163q77 -107 84 -199q7 -73 -30 -157q-56 -125 -192 -196zM331 364q-12 -32 -11 -67q-5 -35 32 -70q4 -3 12.5 -10t11.5 -10q47 -46 125 -44q88 2 149 57q90 81 36 176q-59 103 -201 189q-14 8 -26 -8q-38 -54 -45 -62
q-41 -50 -83 -151zM644 1225q-31 48 -90 50q-12 1 -57 -9q-73 -16 -114.5 -82t-25.5 -139q18 -81 79 -155q16 -20 22.5 -21t25.5 16q87 74 118 112q14 17 26 35q72 109 16 193z" />
    <glyph glyph-name="nine" unicode="9" horiz-adv-x="1124" 
d="M809 903q-2 14 -5 29.5t-6.5 35t-5.5 31.5q-28 -29 -80 -83q-82 -85 -200 -137q-11 -5 -22.5 -8t-26 -4.5t-23 -2t-26.5 -0.5h-24q-90 -1 -194 63q-29 18 -50 54q-52 92 -42 191q4 39 7 55q24 135 154 235q126 97 261 109q102 9 170 -8q95 -23 98 -24q108 -34 147 -144
q41 -119 59 -267q8 -66 20 -318q6 -115 -43 -300q-29 -111 -105 -221q-117 -168 -340 -213q-108 -21 -243 16q-6 2 -27.5 7.5t-31.5 8.5t-26 9.5t-28 14.5q-76 47 -47 140q10 30 54 45q51 15 100 1q148 -46 293 -3q69 21 116 74q72 81 105 238q7 35 19 160q11 110 -7 216z
M376 1160q-58 -65 -60 -111q0 -43 19.5 -62t54.5 -13q25 4 49 15q184 81 252 250q4 10 0.5 13t-12.5 3q-71 3 -122 -4q-114 -16 -181 -91z" />
    <glyph glyph-name="colon" unicode=":" horiz-adv-x="417" 
d="M202 556q-44 0 -72 28.5t-28 72.5q0 40 30 75.5t63 34.5q118 -5 121 -104q1 -39 -35.5 -73t-78.5 -34zM230 375q19 -2 42 -29q45 -51 27 -109q-17 -56 -76 -70q-49 -11 -83.5 17.5t-33.5 80.5q-2 20 6 40q29 82 118 70z" />
    <glyph glyph-name="semicolon" unicode=";" horiz-adv-x="446" 
d="M266 377q76 -44 79 -111q-3 -43 -21 -84t-56.5 -73t-87.5 -34q-22 -2 -28 10q-7 15 8 30q5 5 14 12t11 9q32 27 -4 45q-5 3 -16.5 9t-17.5 9q-34 17 -42 49.5t7 62.5q29 65 91 77q32 7 63 -11zM218 576q-44 0 -74 30.5t-30 75.5q0 41 31 72t71 31t74 -32t34 -70
q0 -46 -30 -76.5t-76 -30.5z" />
    <glyph glyph-name="less" unicode="&#x3c;" horiz-adv-x="860" 
d="M712 338q25 -16 37.5 -46t5.5 -59q-7 -26 -30 -44.5t-54 -23.5q-68 -11 -145 49q-219 171 -354 333q-17 21 -55 88q-26 45 -3 109q17 47 49 84q22 25 75 86t82 94q15 17 96.5 111t127.5 142q52 53 106 57q2 0 4.5 0.5t3.5 0.5q30 -1 56.5 -22t37.5 -53q16 -49 -32 -96
q-110 -106 -152 -160q-33 -43 -100.5 -115t-91.5 -100q-34 -42 -52 -62q-8 -10 4 -22q17 -16 47 -46t55 -54t48 -44q29 -25 90 -82.5t94 -86.5q28 -25 50 -38z" />
    <glyph glyph-name="equal" unicode="=" horiz-adv-x="782" 
d="M580 987q39 -1 71.5 -40.5t28.5 -78.5q-1 -12 -9 -23q-44 -66 -111 -67q-77 -2 -223 -8q-49 -2 -69 -3q-48 4 -80 4q-8 0 -11 2q-34 23 -45 36q-43 52 -21 96q36 68 98 68q58 0 210 13q63 5 161 1zM575 718q74 0 93 -61q10 -32 -2 -66.5t-39 -53.5q-44 -31 -111 -36
q-31 -3 -242 -8q-15 -1 -80 9q-42 7 -58.5 38.5t-8.5 69.5q13 73 89 91q25 6 56 10t49.5 4.5t55 1.5t46.5 1h152z" />
    <glyph glyph-name="greater" unicode="&#x3e;" horiz-adv-x="860" 
d="M742 875q28 -49 2 -115q-24 -59 -80 -115q-14 -14 -36.5 -42t-29.5 -36l-261 -297q-54 -61 -97 -74q-17 -5 -39 -7q-29 0 -56 21.5t-38 53.5q-18 50 32 97q111 105 153 160q33 43 100.5 115.5t88.5 96.5q7 9 25 31t28 33q9 10 -1 21q-10 12 -31.5 31.5t-26.5 24.5
q-53 53 -159.5 150.5t-117.5 107.5q-19 19 -50 38q-26 16 -38 46t-5 60q7 26 30.5 44.5t54.5 23.5q67 9 142 -49q219 -170 356 -334q12 -14 54 -86z" />
    <glyph glyph-name="question" unicode="?" horiz-adv-x="1136" 
d="M1017 1416q55 -206 -67 -379q-11 -16 -26.5 -32.5t-27 -27t-32 -28.5t-29.5 -27q-57 -53 -87.5 -83t-74 -79.5t-74.5 -94.5q-45 -65 -68 -176q-14 -69 -51 -98q-36 -29 -79.5 -21t-65.5 48q-23 44 -13 85l21 90q28 116 126 268q11 17 24 31t38 36t29 26q125 120 186 193
q65 78 65 189q0 48 -34.5 98t-84.5 70q-78 31 -140 22q-93 -3 -155 -54q-31 -25 -79 -103q-28 -47 -96 -64q-47 -11 -90 31.5t-25 103.5q34 122 130 186q100 66 179 89q105 30 234 19q143 -12 242 -108q93 -90 125 -210zM414 246q47 6 86.5 -25.5t41.5 -68.5
q3 -46 -26 -81.5t-73 -39.5q-48 -4 -81 21t-36 68q-3 40 21 81.5t67 44.5z" />
    <glyph glyph-name="at" unicode="@" horiz-adv-x="1458" 
d="M1352 752q13 -148 -25 -271q-40 -128 -126 -198q-82 -67 -176 -50q-94 16 -144 81q-9 14 -17 3q-42 -58 -120 -74q-113 -23 -203 46q-67 50 -86 141q-32 152 17 261q35 79 127 145.5t195 60.5q68 -4 127 -55q86 -73 105 -169q2 -9 2 -42q0 -87 12 -145q0 -2 1 -6l1.5 -6
t1.5 -5.5t2 -6t2.5 -5t3.5 -4t5 -3t7 -1.5q5 0 9 1t7 2.5t6.5 6t4.5 6t4.5 7.5t3.5 7q60 106 48 233t-91 225q-70 86 -154 123q-102 44 -233 7q-32 -10 -46 -20q-13 -9 -37 -24.5t-39.5 -26t-35.5 -25.5t-36 -30q-86 -80 -129 -217q-37 -118 -33 -223q8 -226 149 -359
q53 -49 96 -78.5t96 -40.5q129 -27 230 -2q48 13 122 67q25 19 59.5 21.5t61.5 -12.5q20 -11 30.5 -42t3.5 -59q-15 -61 -90 -108q-145 -91 -317 -99q-86 -3 -213 45q-154 60 -259 189q-6 8 -27 32.5t-30 36t-23.5 32t-24.5 38.5q-56 103 -71 241q-4 39 -4 88q3 161 49 294
q60 174 133 266q166 210 421 238q169 18 344 -73q5 -2 21.5 -10.5t24 -12.5t18.5 -12t19 -17q11 -12 49 -52t60.5 -68t40.5 -59q59 -104 70 -233zM795 627q2 36 -9.5 44.5t-46.5 -5.5q-80 -32 -80 -126q0 -43 13 -73q9 -21 26.5 -24t33.5 14l9 12q48 79 54 158z" />
    <glyph glyph-name="A" unicode="A" horiz-adv-x="1333" 
d="M1220 122q11 -34 10 -55q0 -78 -70 -108q-45 -19 -90 20q-38 34 -65 118q-43 133 -48 160q-4 17 -21 14q-28 -5 -67 -5q-64 -1 -181.5 -8t-159.5 -8q-64 -2 -192 -4q-18 0 -23 -17q-10 -37 -36 -106.5t-36 -104.5q-10 -36 -63 -77q-22 -18 -69.5 -2t-57.5 47
q-21 66 6 140q62 170 94 254q17 44 45 133.5t45 133.5q13 34 44 117t48 128t43.5 113t51.5 126.5t51 114.5q4 9 18 40t21 45.5t20.5 37t27.5 39.5q52 64 133 46q10 -2 18.5 -6.5t17 -13l12 -12t13 -16.5t10.5 -15q11 -15 37 -73q76 -171 106 -267q23 -74 75 -216.5
t74 -211.5q26 -83 78.5 -250t79.5 -251zM667 1106q-2 5 -6.5 15.5t-6.5 16.5q-3 -8 -9 -27t-11 -29q-22 -48 -44 -100.5t-50 -126t-40 -102.5q-53 -135 -96 -260q-8 -23 -3.5 -28.5t27.5 -4.5q18 1 74 5t87 5q23 1 85 2t105.5 3t84.5 7q24 2 18 26q-13 56 -31 112.5
t-48 139.5t-39 110q-13 40 -48 117.5t-49 118.5z" />
    <glyph glyph-name="A" unicode="&#xc5;" horiz-adv-x="1333" 
d="M1220 122q11 -34 10 -55q0 -78 -70 -108q-45 -19 -90 20q-38 34 -65 118q-43 133 -48 160q-4 17 -21 14q-28 -5 -67 -5q-64 -1 -181.5 -8t-159.5 -8q-64 -2 -192 -4q-18 0 -23 -17q-10 -37 -36 -106.5t-36 -104.5q-10 -36 -63 -77q-22 -18 -69.5 -2t-57.5 47
q-21 66 6 140q62 170 94 254q17 44 45 133.5t45 133.5q13 34 44 117t48 128t43.5 113t51.5 126.5t51 114.5q4 9 18 40t21 45.5t20.5 37t27.5 39.5q52 64 133 46q10 -2 18.5 -6.5t17 -13l12 -12t13 -16.5t10.5 -15q11 -15 37 -73q76 -171 106 -267q23 -74 75 -216.5
t74 -211.5q26 -83 78.5 -250t79.5 -251zM667 1106q-2 5 -6.5 15.5t-6.5 16.5q-3 -8 -9 -27t-11 -29q-22 -48 -44 -100.5t-50 -126t-40 -102.5q-53 -135 -96 -260q-8 -23 -3.5 -28.5t27.5 -4.5q18 1 74 5t87 5q23 1 85 2t105.5 3t84.5 7q24 2 18 26q-13 56 -31 112.5
t-48 139.5t-39 110q-13 40 -48 117.5t-49 118.5z" />
    <glyph glyph-name="A" unicode="&#xc4;" horiz-adv-x="1333" 
d="M1220 122q11 -34 10 -55q0 -78 -70 -108q-45 -19 -90 20q-38 34 -65 118q-43 133 -48 160q-4 17 -21 14q-28 -5 -67 -5q-64 -1 -181.5 -8t-159.5 -8q-64 -2 -192 -4q-18 0 -23 -17q-10 -37 -36 -106.5t-36 -104.5q-10 -36 -63 -77q-22 -18 -69.5 -2t-57.5 47
q-21 66 6 140q62 170 94 254q17 44 45 133.5t45 133.5q13 34 44 117t48 128t43.5 113t51.5 126.5t51 114.5q4 9 18 40t21 45.5t20.5 37t27.5 39.5q52 64 133 46q10 -2 18.5 -6.5t17 -13l12 -12t13 -16.5t10.5 -15q11 -15 37 -73q76 -171 106 -267q23 -74 75 -216.5
t74 -211.5q26 -83 78.5 -250t79.5 -251zM667 1106q-2 5 -6.5 15.5t-6.5 16.5q-3 -8 -9 -27t-11 -29q-22 -48 -44 -100.5t-50 -126t-40 -102.5q-53 -135 -96 -260q-8 -23 -3.5 -28.5t27.5 -4.5q18 1 74 5t87 5q23 1 85 2t105.5 3t84.5 7q24 2 18 26q-13 56 -31 112.5
t-48 139.5t-39 110q-13 40 -48 117.5t-49 118.5z" />
    <glyph glyph-name="A" unicode="&#xc3;" horiz-adv-x="1333" 
d="M1220 122q11 -34 10 -55q0 -78 -70 -108q-45 -19 -90 20q-38 34 -65 118q-43 133 -48 160q-4 17 -21 14q-28 -5 -67 -5q-64 -1 -181.5 -8t-159.5 -8q-64 -2 -192 -4q-18 0 -23 -17q-10 -37 -36 -106.5t-36 -104.5q-10 -36 -63 -77q-22 -18 -69.5 -2t-57.5 47
q-21 66 6 140q62 170 94 254q17 44 45 133.5t45 133.5q13 34 44 117t48 128t43.5 113t51.5 126.5t51 114.5q4 9 18 40t21 45.5t20.5 37t27.5 39.5q52 64 133 46q10 -2 18.5 -6.5t17 -13l12 -12t13 -16.5t10.5 -15q11 -15 37 -73q76 -171 106 -267q23 -74 75 -216.5
t74 -211.5q26 -83 78.5 -250t79.5 -251zM667 1106q-2 5 -6.5 15.5t-6.5 16.5q-3 -8 -9 -27t-11 -29q-22 -48 -44 -100.5t-50 -126t-40 -102.5q-53 -135 -96 -260q-8 -23 -3.5 -28.5t27.5 -4.5q18 1 74 5t87 5q23 1 85 2t105.5 3t84.5 7q24 2 18 26q-13 56 -31 112.5
t-48 139.5t-39 110q-13 40 -48 117.5t-49 118.5z" />
    <glyph glyph-name="A" unicode="&#xc2;" horiz-adv-x="1333" 
d="M1220 122q11 -34 10 -55q0 -78 -70 -108q-45 -19 -90 20q-38 34 -65 118q-43 133 -48 160q-4 17 -21 14q-28 -5 -67 -5q-64 -1 -181.5 -8t-159.5 -8q-64 -2 -192 -4q-18 0 -23 -17q-10 -37 -36 -106.5t-36 -104.5q-10 -36 -63 -77q-22 -18 -69.5 -2t-57.5 47
q-21 66 6 140q62 170 94 254q17 44 45 133.5t45 133.5q13 34 44 117t48 128t43.5 113t51.5 126.5t51 114.5q4 9 18 40t21 45.5t20.5 37t27.5 39.5q52 64 133 46q10 -2 18.5 -6.5t17 -13l12 -12t13 -16.5t10.5 -15q11 -15 37 -73q76 -171 106 -267q23 -74 75 -216.5
t74 -211.5q26 -83 78.5 -250t79.5 -251zM667 1106q-2 5 -6.5 15.5t-6.5 16.5q-3 -8 -9 -27t-11 -29q-22 -48 -44 -100.5t-50 -126t-40 -102.5q-53 -135 -96 -260q-8 -23 -3.5 -28.5t27.5 -4.5q18 1 74 5t87 5q23 1 85 2t105.5 3t84.5 7q24 2 18 26q-13 56 -31 112.5
t-48 139.5t-39 110q-13 40 -48 117.5t-49 118.5z" />
    <glyph glyph-name="A" unicode="&#xc1;" horiz-adv-x="1333" 
d="M1220 122q11 -34 10 -55q0 -78 -70 -108q-45 -19 -90 20q-38 34 -65 118q-43 133 -48 160q-4 17 -21 14q-28 -5 -67 -5q-64 -1 -181.5 -8t-159.5 -8q-64 -2 -192 -4q-18 0 -23 -17q-10 -37 -36 -106.5t-36 -104.5q-10 -36 -63 -77q-22 -18 -69.5 -2t-57.5 47
q-21 66 6 140q62 170 94 254q17 44 45 133.5t45 133.5q13 34 44 117t48 128t43.5 113t51.5 126.5t51 114.5q4 9 18 40t21 45.5t20.5 37t27.5 39.5q52 64 133 46q10 -2 18.5 -6.5t17 -13l12 -12t13 -16.5t10.5 -15q11 -15 37 -73q76 -171 106 -267q23 -74 75 -216.5
t74 -211.5q26 -83 78.5 -250t79.5 -251zM667 1106q-2 5 -6.5 15.5t-6.5 16.5q-3 -8 -9 -27t-11 -29q-22 -48 -44 -100.5t-50 -126t-40 -102.5q-53 -135 -96 -260q-8 -23 -3.5 -28.5t27.5 -4.5q18 1 74 5t87 5q23 1 85 2t105.5 3t84.5 7q24 2 18 26q-13 56 -31 112.5
t-48 139.5t-39 110q-13 40 -48 117.5t-49 118.5z" />
    <glyph glyph-name="A" unicode="&#xc0;" horiz-adv-x="1333" 
d="M1220 122q11 -34 10 -55q0 -78 -70 -108q-45 -19 -90 20q-38 34 -65 118q-43 133 -48 160q-4 17 -21 14q-28 -5 -67 -5q-64 -1 -181.5 -8t-159.5 -8q-64 -2 -192 -4q-18 0 -23 -17q-10 -37 -36 -106.5t-36 -104.5q-10 -36 -63 -77q-22 -18 -69.5 -2t-57.5 47
q-21 66 6 140q62 170 94 254q17 44 45 133.5t45 133.5q13 34 44 117t48 128t43.5 113t51.5 126.5t51 114.5q4 9 18 40t21 45.5t20.5 37t27.5 39.5q52 64 133 46q10 -2 18.5 -6.5t17 -13l12 -12t13 -16.5t10.5 -15q11 -15 37 -73q76 -171 106 -267q23 -74 75 -216.5
t74 -211.5q26 -83 78.5 -250t79.5 -251zM667 1106q-2 5 -6.5 15.5t-6.5 16.5q-3 -8 -9 -27t-11 -29q-22 -48 -44 -100.5t-50 -126t-40 -102.5q-53 -135 -96 -260q-8 -23 -3.5 -28.5t27.5 -4.5q18 1 74 5t87 5q23 1 85 2t105.5 3t84.5 7q24 2 18 26q-13 56 -31 112.5
t-48 139.5t-39 110q-13 40 -48 117.5t-49 118.5z" />
    <glyph glyph-name="B" unicode="B" horiz-adv-x="1132" 
d="M819 910q-46 -55 -119 -115q106 -41 176 -100q122 -104 148 -284q19 -134 -39 -246q-28 -54 -79 -95q-171 -139 -402 -137q-137 1 -291 43q-72 19 -91 108q-3 14 -4 30.5t-1 28t0.5 31t0.5 29.5q0 169 2 253q1 55 -1 117t-6 137t-5 116q-1 34 1 152q3 119 -4 228
q-3 52 -3 155q0 69 53 124q27 27 96 41q165 31 300 2q137 -29 242 -120q103 -89 109 -241q6 -150 -83 -257zM346 167q84 -5 108 -4q64 -2 118 8q121 21 177 63q48 37 62.5 93.5t-16.5 114.5q-59 102 -201 155q-55 20 -127.5 23.5t-130.5 -2.5q-16 0 -16 -16q0 -6 0.5 -26.5
t1.5 -31.5q14 -172 14 -258q0 -19 -2 -55t-2 -47q0 -16 14 -17zM313 1302q1 -59 0.5 -85.5t-2.5 -90t-3 -101.5q-1 -15 2.5 -66t2.5 -81q0 -13 14 -10q31 8 118 41q119 47 191 131q67 80 33 155q-37 82 -116 105q-46 14 -70 20q-65 15 -151 7q-19 -2 -19 -25z" />
    <glyph glyph-name="C" unicode="C" horiz-adv-x="1335" 
d="M106 561q-2 17 -2.5 36.5t-0.5 43.5v37q-4 156 29 264q53 175 167 311q47 56 110 121q6 6 13.5 11.5t13 8t16 7.5t14.5 7q112 58 178 62q159 10 272 -35q122 -49 188 -120q25 -27 32 -60.5t-6 -61.5q-20 -42 -64.5 -54.5t-88.5 12.5q-11 6 -41 24t-47 27q-81 43 -135 52
q-76 12 -147 -18q-135 -58 -213 -199q-66 -120 -79 -243q-6 -58 -1 -121q1 -15 1.5 -47.5t2.5 -57t7 -46.5q24 -100 60 -175t99 -131q52 -46 132 -56q92 -11 124 -12q89 -3 187 56q55 33 106 97q30 38 70.5 48t85.5 -15q31 -19 40.5 -58t-7.5 -70q-25 -47 -64.5 -82.5
t-96.5 -73.5q-123 -82 -270 -106q-104 -18 -228 10q-94 22 -182 69q-68 38 -118 110q-59 84 -93 170q-49 123 -64 258z" />
    <glyph glyph-name="C" unicode="&#xc7;" horiz-adv-x="1335" 
d="M106 561q-2 17 -2.5 36.5t-0.5 43.5v37q-4 156 29 264q53 175 167 311q47 56 110 121q6 6 13.5 11.5t13 8t16 7.5t14.5 7q112 58 178 62q159 10 272 -35q122 -49 188 -120q25 -27 32 -60.5t-6 -61.5q-20 -42 -64.5 -54.5t-88.5 12.5q-11 6 -41 24t-47 27q-81 43 -135 52
q-76 12 -147 -18q-135 -58 -213 -199q-66 -120 -79 -243q-6 -58 -1 -121q1 -15 1.5 -47.5t2.5 -57t7 -46.5q24 -100 60 -175t99 -131q52 -46 132 -56q92 -11 124 -12q89 -3 187 56q55 33 106 97q30 38 70.5 48t85.5 -15q31 -19 40.5 -58t-7.5 -70q-25 -47 -64.5 -82.5
t-96.5 -73.5q-123 -82 -270 -106q-104 -18 -228 10q-94 22 -182 69q-68 38 -118 110q-59 84 -93 170q-49 123 -64 258z" />
    <glyph glyph-name="D" unicode="D" horiz-adv-x="1224" 
d="M129 106v13q-4 52 -6.5 110.5t-4.5 131t-4 111.5q-4 76 -4 115q0 99 -3 198q-2 59 1 170t2 160q-1 25 -3.5 70t-3.5 59q-3 76 9 139q11 55 70 92q9 5 18.5 7.5t25 3t19.5 0.5q217 24 370 -17q97 -27 176 -73q134 -79 212 -179q48 -62 89 -186q69 -209 -17 -422
q-91 -226 -193 -341q-99 -111 -229 -188q-137 -81 -249 -103q-104 -20 -172 -5q-51 12 -77.5 47t-25.5 87zM325 699q2 -53 2.5 -111.5t-0.5 -134t-1 -111.5h5v-141q0 -11 3.5 -16t14.5 -4q49 6 72 16q20 8 97 47q153 77 268 253q85 130 123 335q9 49 0 85q-8 33 -36 93
q-69 153 -234 221q-38 15 -123 38q-71 20 -171 8q-14 -2 -20.5 -8t-5.5 -21q1 -14 1 -87q1 -85 0.5 -154t0.5 -154t4 -154z" />
    <glyph glyph-name="E" unicode="E" horiz-adv-x="1124" 
d="M513 634v-2q-1 0 -86 -0.5t-86 0.5q-12 0 -12 -14q0 -22 -1 -90.5t0 -105.5q3 -188 4 -211q1 -21 21 -21h51t60.5 0.5t51.5 2.5q18 1 48 1h48q149 5 255 4q59 -2 104 -25q29 -14 47 -49q8 -14 3 -35q-19 -72 -73 -95q-14 -6 -28 -6q-35 -1 -104.5 -3.5t-104.5 -3.5
q-380 -10 -457 -9q-127 2 -136 131q-2 31 -2.5 90t-1.5 85q-12 272 -12 409q0 81 8 243q0 4 0.5 11t0.5 10q0 222 -1 333q0 90 4 111q6 27 22 53q13 20 45 32q51 20 132 31q5 1 16 1q41 0 123 1.5t123.5 2t123.5 -0.5q100 -2 170 -18q24 -5 39 -14q44 -26 47 -72.5
t-37 -83.5q-47 -43 -127 -34q-42 5 -131 9q-110 5 -328 -7q-15 -1 -15 -18q-1 -12 5 -136q2 -50 3 -142t2 -133q0 -9 2 -11.5t11 -1.5q55 7 113 9t141.5 1t112.5 -1q76 0 134 -60q21 -22 16 -52q-10 -80 -91 -101q-56 -15 -181 -15h-72z" />
    <glyph glyph-name="E" unicode="&#xcb;" horiz-adv-x="1124" 
d="M513 634v-2q-1 0 -86 -0.5t-86 0.5q-12 0 -12 -14q0 -22 -1 -90.5t0 -105.5q3 -188 4 -211q1 -21 21 -21h51t60.5 0.5t51.5 2.5q18 1 48 1h48q149 5 255 4q59 -2 104 -25q29 -14 47 -49q8 -14 3 -35q-19 -72 -73 -95q-14 -6 -28 -6q-35 -1 -104.5 -3.5t-104.5 -3.5
q-380 -10 -457 -9q-127 2 -136 131q-2 31 -2.5 90t-1.5 85q-12 272 -12 409q0 81 8 243q0 4 0.5 11t0.5 10q0 222 -1 333q0 90 4 111q6 27 22 53q13 20 45 32q51 20 132 31q5 1 16 1q41 0 123 1.5t123.5 2t123.5 -0.5q100 -2 170 -18q24 -5 39 -14q44 -26 47 -72.5
t-37 -83.5q-47 -43 -127 -34q-42 5 -131 9q-110 5 -328 -7q-15 -1 -15 -18q-1 -12 5 -136q2 -50 3 -142t2 -133q0 -9 2 -11.5t11 -1.5q55 7 113 9t141.5 1t112.5 -1q76 0 134 -60q21 -22 16 -52q-10 -80 -91 -101q-56 -15 -181 -15h-72z" />
    <glyph glyph-name="E" unicode="&#xca;" horiz-adv-x="1124" 
d="M513 634v-2q-1 0 -86 -0.5t-86 0.5q-12 0 -12 -14q0 -22 -1 -90.5t0 -105.5q3 -188 4 -211q1 -21 21 -21h51t60.5 0.5t51.5 2.5q18 1 48 1h48q149 5 255 4q59 -2 104 -25q29 -14 47 -49q8 -14 3 -35q-19 -72 -73 -95q-14 -6 -28 -6q-35 -1 -104.5 -3.5t-104.5 -3.5
q-380 -10 -457 -9q-127 2 -136 131q-2 31 -2.5 90t-1.5 85q-12 272 -12 409q0 81 8 243q0 4 0.5 11t0.5 10q0 222 -1 333q0 90 4 111q6 27 22 53q13 20 45 32q51 20 132 31q5 1 16 1q41 0 123 1.5t123.5 2t123.5 -0.5q100 -2 170 -18q24 -5 39 -14q44 -26 47 -72.5
t-37 -83.5q-47 -43 -127 -34q-42 5 -131 9q-110 5 -328 -7q-15 -1 -15 -18q-1 -12 5 -136q2 -50 3 -142t2 -133q0 -9 2 -11.5t11 -1.5q55 7 113 9t141.5 1t112.5 -1q76 0 134 -60q21 -22 16 -52q-10 -80 -91 -101q-56 -15 -181 -15h-72z" />
    <glyph glyph-name="E" unicode="&#xc9;" horiz-adv-x="1124" 
d="M513 634v-2q-1 0 -86 -0.5t-86 0.5q-12 0 -12 -14q0 -22 -1 -90.5t0 -105.5q3 -188 4 -211q1 -21 21 -21h51t60.5 0.5t51.5 2.5q18 1 48 1h48q149 5 255 4q59 -2 104 -25q29 -14 47 -49q8 -14 3 -35q-19 -72 -73 -95q-14 -6 -28 -6q-35 -1 -104.5 -3.5t-104.5 -3.5
q-380 -10 -457 -9q-127 2 -136 131q-2 31 -2.5 90t-1.5 85q-12 272 -12 409q0 81 8 243q0 4 0.5 11t0.5 10q0 222 -1 333q0 90 4 111q6 27 22 53q13 20 45 32q51 20 132 31q5 1 16 1q41 0 123 1.5t123.5 2t123.5 -0.5q100 -2 170 -18q24 -5 39 -14q44 -26 47 -72.5
t-37 -83.5q-47 -43 -127 -34q-42 5 -131 9q-110 5 -328 -7q-15 -1 -15 -18q-1 -12 5 -136q2 -50 3 -142t2 -133q0 -9 2 -11.5t11 -1.5q55 7 113 9t141.5 1t112.5 -1q76 0 134 -60q21 -22 16 -52q-10 -80 -91 -101q-56 -15 -181 -15h-72z" />
    <glyph glyph-name="E" unicode="&#xc8;" horiz-adv-x="1124" 
d="M513 634v-2q-1 0 -86 -0.5t-86 0.5q-12 0 -12 -14q0 -22 -1 -90.5t0 -105.5q3 -188 4 -211q1 -21 21 -21h51t60.5 0.5t51.5 2.5q18 1 48 1h48q149 5 255 4q59 -2 104 -25q29 -14 47 -49q8 -14 3 -35q-19 -72 -73 -95q-14 -6 -28 -6q-35 -1 -104.5 -3.5t-104.5 -3.5
q-380 -10 -457 -9q-127 2 -136 131q-2 31 -2.5 90t-1.5 85q-12 272 -12 409q0 81 8 243q0 4 0.5 11t0.5 10q0 222 -1 333q0 90 4 111q6 27 22 53q13 20 45 32q51 20 132 31q5 1 16 1q41 0 123 1.5t123.5 2t123.5 -0.5q100 -2 170 -18q24 -5 39 -14q44 -26 47 -72.5
t-37 -83.5q-47 -43 -127 -34q-42 5 -131 9q-110 5 -328 -7q-15 -1 -15 -18q-1 -12 5 -136q2 -50 3 -142t2 -133q0 -9 2 -11.5t11 -1.5q55 7 113 9t141.5 1t112.5 -1q76 0 134 -60q21 -22 16 -52q-10 -80 -91 -101q-56 -15 -181 -15h-72z" />
    <glyph glyph-name="F" unicode="F" horiz-adv-x="1155" 
d="M561 1519q21 1 64.5 3.5t62.5 3t58 -1.5q148 -2 223 -19q98 -22 82 -137q-4 -35 -42 -51q-43 -18 -109 -22q-48 -2 -238 0q-49 0 -101.5 -2t-122.5 -7t-101 -7q-14 -1 -14 -17q0 -23 0.5 -48t1.5 -56t1 -48q1 -37 1 -221q0 -17 4 -20t20 -1q225 33 409 29q67 -2 109 -42
q33 -31 24 -75q-12 -56 -65 -79q-44 -19 -129 -25q-21 -2 -63.5 -2t-64.5 -2q-140 -10 -218 -16q-20 -1 -23 -5t-5 -25q-1 -24 0.5 -67.5t1.5 -57.5q1 -55 -3 -157t-4 -121q-2 -104 -8 -144q-5 -38 -32.5 -64.5t-62.5 -26.5q-44 0 -71 23t-32 66q-12 98 -11 128q1 49 1 160
t2 160q5 147 1 265q-2 24 -2 181.5v181.5q-3 183 -1 211q2 37 22.5 66.5t53.5 42.5q47 18 105 21q32 2 92.5 8.5t73.5 7.5q74 8 110 9z" />
    <glyph glyph-name="G" unicode="G" horiz-adv-x="1427" 
d="M688 722q91 37 170 33q101 4 163 -3q91 -9 166 -44q124 -56 136 -193q9 -100 -52 -210q-75 -136 -234 -251q-75 -54 -192 -66q-254 -26 -456 113q-3 2 -17.5 12t-19 13t-17.5 12t-18.5 13.5t-16.5 13t-17.5 14.5t-15.5 14t-16 16.5t-14 16.5q-63 77 -90 175
q-42 147 -45 288q-3 123 44 270q34 109 91 222q105 209 313 302q108 48 209 40q213 -19 354 -160q108 -108 146 -201q31 -74 19 -166q-4 -31 -29 -54.5t-53 -25.5q-34 -2 -63.5 21t-39.5 60q-22 78 -41 112q-71 125 -195 182q-31 14 -72.5 15.5t-74.5 -2.5q-10 -1 -55 -8
q-42 -7 -73.5 -31t-67.5 -66q-69 -81 -122 -176q-40 -73 -65 -214q-13 -68 -14 -95q-6 -141 30 -225q26 -62 34 -77q12 -22 27.5 -42.5t41 -47.5t33.5 -37q6 -8 14.5 -13t24 -11.5t17.5 -7.5q8 -4 32.5 -16t36.5 -17t32 -12t38 -11q73 -14 165 4q179 35 263 229q9 20 11 64
q1 12 -14 20q-49 28 -138 35q-52 4 -163 -21q-81 -19 -132 26q-25 22 -32 56.5t7.5 66.5t46.5 45z" />
    <glyph glyph-name="H" unicode="H" horiz-adv-x="1161" 
d="M309 1309q6 -29 5 -138.5t-1 -119.5v-246q0 -17 -1 -25q-2 -20 1.5 -24.5t22.5 -2.5q61 6 137 7.5t137 0t138 0.5q7 0 20 1t23.5 1.5t19.5 0.5q16 0 19 18q4 33 3.5 50t-2.5 49.5t-2 49.5q1 53 7.5 148.5t7.5 125.5q1 19 -1.5 56t-2.5 54q2 36 6 72q5 37 37.5 64.5
t68.5 27.5q37 0 65.5 -25.5t32.5 -65.5q15 -126 6 -253q-2 -23 -2.5 -73t-3.5 -76q-6 -63 -6.5 -179.5t-1.5 -147.5q-1 -22 0 -68t0 -68q-2 -53 -2 -151.5t-1 -151.5q-1 -24 -4 -68.5t-4 -61.5q-2 -50 -41.5 -81t-89.5 -23q-21 4 -41.5 29t-25.5 53q-6 30 -6.5 61.5t2.5 74
t3 61.5q2 157 -1 202q-1 20 -1 61q0 15 -15 15q-17 0 -51 2t-51 2q-27 0 -150 3.5t-151 -0.5q-12 0 -35 -2t-34 -3q-22 -1 -22 -27q0 -108 1 -129q3 -15 2.5 -135t-0.5 -135q0 -41 -8 -73q-11 -37 -27 -56q-23 -27 -51 -32.5t-58 12.5q-59 38 -63 106q-5 66 -12 391
q-3 118 2 213q4 70 -1 292q-4 232 1 328q1 12 -2 35.5t-3 35.5q1 54 43 89q27 20 59.5 19.5t61.5 -22t35 -53.5q4 -19 5.5 -54t2.5 -41z" />
    <glyph glyph-name="I" unicode="I" horiz-adv-x="434" 
d="M331 1126v-108v-127v-108q1 -53 -1 -158t-1 -157q1 -78 -3 -236q0 -10 -0.5 -35.5t-1.5 -39t-2.5 -34.5t-4.5 -39t-8 -35q-10 -39 -39 -63t-65 -24q-39 0 -70 29.5t-32 68.5q-2 57 3 94q2 10 0 29t-2 27q2 44 1 156.5t3 156.5q7 109 11 389q1 27 3 76t3 89.5t0 76.5
q-1 16 -4 84t-3 105q0 80 44 118q43 37 90 15q73 -34 76 -116q3 -78 3 -234z" />
    <glyph glyph-name="I" unicode="&#xcf;" horiz-adv-x="434" 
d="M331 1126v-108v-127v-108q1 -53 -1 -158t-1 -157q1 -78 -3 -236q0 -10 -0.5 -35.5t-1.5 -39t-2.5 -34.5t-4.5 -39t-8 -35q-10 -39 -39 -63t-65 -24q-39 0 -70 29.5t-32 68.5q-2 57 3 94q2 10 0 29t-2 27q2 44 1 156.5t3 156.5q7 109 11 389q1 27 3 76t3 89.5t0 76.5
q-1 16 -4 84t-3 105q0 80 44 118q43 37 90 15q73 -34 76 -116q3 -78 3 -234z" />
    <glyph glyph-name="I" unicode="&#xce;" horiz-adv-x="434" 
d="M331 1126v-108v-127v-108q1 -53 -1 -158t-1 -157q1 -78 -3 -236q0 -10 -0.5 -35.5t-1.5 -39t-2.5 -34.5t-4.5 -39t-8 -35q-10 -39 -39 -63t-65 -24q-39 0 -70 29.5t-32 68.5q-2 57 3 94q2 10 0 29t-2 27q2 44 1 156.5t3 156.5q7 109 11 389q1 27 3 76t3 89.5t0 76.5
q-1 16 -4 84t-3 105q0 80 44 118q43 37 90 15q73 -34 76 -116q3 -78 3 -234z" />
    <glyph glyph-name="I" unicode="&#xcd;" horiz-adv-x="434" 
d="M331 1126v-108v-127v-108q1 -53 -1 -158t-1 -157q1 -78 -3 -236q0 -10 -0.5 -35.5t-1.5 -39t-2.5 -34.5t-4.5 -39t-8 -35q-10 -39 -39 -63t-65 -24q-39 0 -70 29.5t-32 68.5q-2 57 3 94q2 10 0 29t-2 27q2 44 1 156.5t3 156.5q7 109 11 389q1 27 3 76t3 89.5t0 76.5
q-1 16 -4 84t-3 105q0 80 44 118q43 37 90 15q73 -34 76 -116q3 -78 3 -234z" />
    <glyph glyph-name="I" unicode="&#xcc;" horiz-adv-x="434" 
d="M331 1126v-108v-127v-108q1 -53 -1 -158t-1 -157q1 -78 -3 -236q0 -10 -0.5 -35.5t-1.5 -39t-2.5 -34.5t-4.5 -39t-8 -35q-10 -39 -39 -63t-65 -24q-39 0 -70 29.5t-32 68.5q-2 57 3 94q2 10 0 29t-2 27q2 44 1 156.5t3 156.5q7 109 11 389q1 27 3 76t3 89.5t0 76.5
q-1 16 -4 84t-3 105q0 80 44 118q43 37 90 15q73 -34 76 -116q3 -78 3 -234z" />
    <glyph glyph-name="J" unicode="J" horiz-adv-x="1093" 
d="M767 639q9 93 6 186q0 14 -0.5 39.5t-1 46.5t-1.5 40q-1 16 1.5 47t1.5 47q-12 259 -16 314q-4 64 23 95q35 41 82 40t78 -45q30 -42 39 -125q5 -47 5 -135t1 -108q1 -26 0.5 -109.5t3.5 -109.5q1 -36 1 -50.5t-3.5 -50.5t-4.5 -50q-6 -88 -26 -221q-23 -145 -68 -221
q-93 -154 -214 -221q-68 -37 -171 -51q-149 -19 -326 65q-30 15 -49 34q-3 3 -18.5 17t-19.5 18.5t-17.5 17.5t-18.5 19t-16 18t-17 21t-13 20.5t-13 23.5q-29 57 -18 101q10 38 44 63t71 18q54 -9 73 -48q28 -57 64 -95q54 -59 130 -69q80 -10 97 -11q68 -4 142 40
q65 38 106 139q52 132 63 250z" />
    <glyph glyph-name="K" unicode="K" horiz-adv-x="1216" 
d="M334 945q0 -10 -1 -27.5t-1.5 -31t-0.5 -25.5q65 58 81 75q158 172 240 255q80 83 167 198q30 38 48 54q24 22 55.5 27.5t58.5 -7.5q14 -7 30 -31q26 -40 26 -69.5t-27 -69.5q-72 -104 -185 -229q-37 -40 -108.5 -112.5t-102.5 -105.5q-131 -138 -166 -179
q-9 -11 -8 -15.5t13 -11.5q120 -69 394 -246q92 -60 202 -140q55 -40 65 -112q5 -41 -19 -66t-69 -32q-53 -8 -110 34q-269 203 -471 315q-20 11 -56 34.5t-45 29.5q-12 7 -15 6q-4 -2 -4 -18q2 -60 -0.5 -170t-2.5 -141q0 -8 -0.5 -16t-1.5 -18t-1 -16q-3 -38 -34 -76
q-30 -32 -66 -31.5t-63 26.5q-40 37 -44 91l-9 117q-1 16 4 115q8 120 7 180q-2 0 -1 226l1 226q0 119 3 178q6 126 15 247q2 28 32 58t58 34q33 5 64 -13t43 -49q8 -21 8 -74q0 -197 -3 -394z" />
    <glyph glyph-name="L" unicode="L" horiz-adv-x="1202" 
d="M133 357q-9 139 -11 246q0 61 -2 122.5t-6.5 139t-5.5 111.5q-8 182 -4 336q0 11 1 32t1.5 38t0.5 32q0 31 26 60t60 35t63 -11t42 -50q9 -23 11 -62q2 -56 17 -210q5 -49 9 -145q11 -239 13 -261q19 -206 20 -399q0 -84 11 -116q12 -33 26 -45t47 -15q74 -3 102.5 -2.5
t101.5 6.5t102 7q58 3 175 1q11 0 32 2t31 2q57 1 83.5 -35.5t20.5 -88.5q-5 -45 -39 -76t-81 -33q-15 -3 -140.5 -1t-140.5 2q-125 0 -249 3q-81 2 -145 15t-114 63q-26 26 -38 91q-9 49 -20 206z" />
    <glyph glyph-name="M" unicode="M" horiz-adv-x="1419" 
d="M372 996q-1 3 -24 52q-2 -48 -8.5 -141.5t-7.5 -139.5q-3 -63 -9.5 -188t-8.5 -188q-7 -167 -3 -223q3 -68 -10 -120q-8 -33 -35 -53t-61 -21q-30 -1 -58 19t-37 50q-12 40 -6 89l3 33l1 75q0 74 -1 74q-1 31 5 367q2 117 15 289q3 51 6.5 145t4.5 116q0 8 0.5 27
t1.5 29.5t2.5 26t4.5 29t8 26.5q18 47 58 77t84 27q66 -5 100 -53q87 -126 178 -354q13 -34 95 -253q17 15 32 47q23 47 68 141t68 141q7 13 27.5 56t30.5 62.5t28 53t34.5 60.5t34.5 52q46 65 93 80q71 23 122 -29q42 -43 49 -114q2 -23 5 -86.5t7 -98.5q1 -10 1 -29
q-3 -113 9 -251q2 -28 5.5 -79.5t7 -93.5t8.5 -79q2 -17 2.5 -49.5t1.5 -42.5q7 -119 9 -298q0 -15 2 -56.5t1 -64.5q-4 -59 -37 -87q-36 -31 -84 -19q-40 11 -62.5 40t-21.5 70q1 46 -4 129.5t-6 110.5q-1 47 -7.5 131.5t-8.5 118.5q-1 20 -5 81t-5 95q-2 42 -7 120t-7 108
q-2 45 -8 79q-2 -6 -8 -17.5t-8 -16.5q-13 -29 -59 -126q-19 -40 -65.5 -139.5t-72.5 -152.5q-27 -55 -62.5 -89t-88.5 -47q-32 -7 -73.5 9.5t-59.5 51.5q-128 253 -184 411z" />
    <glyph glyph-name="N" unicode="N" horiz-adv-x="1247" 
d="M358 987q-8 18 -17 27q-2 -8 -2 -9q0 -42 -2.5 -147.5t-0.5 -163.5q5 -125 1 -376q-1 -52 -10 -229q-3 -49 -30.5 -81.5t-65.5 -39.5q-33 -6 -71 19t-43 57q-5 36 -2 82q3 47 1 177q-1 67 3 201q4 136 0 227l-3 225q-5 275 -7 328q-3 71 13 164q7 46 50 62.5t80 -8.5
q40 -26 73 -59q9 -8 20.5 -29t13.5 -24q128 -196 263 -456q26 -50 167 -317q25 -46 71.5 -131t61.5 -112q5 -10 7 -11q3 108 3 216q0 92 -10 207q0 1 -9 203q-2 67 -7.5 202t-8.5 203q-2 39 27.5 73t67.5 35q47 3 87 -42q27 -30 31 -67q3 -29 8.5 -86.5t8.5 -86.5
q4 -37 4 -105.5t1 -90.5q2 -39 8 -157.5t8 -183.5q7 -169 -1 -298q-1 -17 -2 -48t-2.5 -56.5t-4.5 -48.5q0 -4 -1.5 -18t-2 -18.5t-2 -17t-3 -19t-3.5 -17t-4.5 -18t-6 -17t-7.5 -17.5q-25 -52 -67 -72q-60 -30 -128 10q-36 21 -81 77q-21 26 -43 60.5t-32.5 53.5
t-36.5 68.5t-31 58.5q-21 39 -79.5 155t-93.5 177q-97 168 -158 309z" />
    <glyph glyph-name="N" unicode="&#xd1;" horiz-adv-x="1247" 
d="M358 987q-8 18 -17 27q-2 -8 -2 -9q0 -42 -2.5 -147.5t-0.5 -163.5q5 -125 1 -376q-1 -52 -10 -229q-3 -49 -30.5 -81.5t-65.5 -39.5q-33 -6 -71 19t-43 57q-5 36 -2 82q3 47 1 177q-1 67 3 201q4 136 0 227l-3 225q-5 275 -7 328q-3 71 13 164q7 46 50 62.5t80 -8.5
q40 -26 73 -59q9 -8 20.5 -29t13.5 -24q128 -196 263 -456q26 -50 167 -317q25 -46 71.5 -131t61.5 -112q5 -10 7 -11q3 108 3 216q0 92 -10 207q0 1 -9 203q-2 67 -7.5 202t-8.5 203q-2 39 27.5 73t67.5 35q47 3 87 -42q27 -30 31 -67q3 -29 8.5 -86.5t8.5 -86.5
q4 -37 4 -105.5t1 -90.5q2 -39 8 -157.5t8 -183.5q7 -169 -1 -298q-1 -17 -2 -48t-2.5 -56.5t-4.5 -48.5q0 -4 -1.5 -18t-2 -18.5t-2 -17t-3 -19t-3.5 -17t-4.5 -18t-6 -17t-7.5 -17.5q-25 -52 -67 -72q-60 -30 -128 10q-36 21 -81 77q-21 26 -43 60.5t-32.5 53.5
t-36.5 68.5t-31 58.5q-21 39 -79.5 155t-93.5 177q-97 168 -158 309z" />
    <glyph glyph-name="O" unicode="O" horiz-adv-x="1380" 
d="M809 28q-119 -40 -201 -39q-158 6 -276 105q-152 125 -207 359q-34 148 -17 344q16 197 19 222q18 141 96 291q30 58 74.5 106t107.5 102q43 36 148 54q231 38 453 -122q17 -12 30.5 -26t35 -40.5t25.5 -31.5q103 -122 138 -233q44 -137 44 -249q2 -181 -43 -353
q-16 -63 -75 -157q-85 -136 -159 -206q-103 -96 -193 -126zM361 1111q-45 -127 -42 -325q-3 -96 11 -203q18 -153 107 -300q3 -5 11 -13q77 -65 172 -66q89 -1 181 67q156 116 223 314q67 199 30 382q-26 130 -103 214q-102 111 -237 166q-111 45 -211 -32
q-95 -73 -142 -204z" />
    <glyph glyph-name="O" unicode="&#xd8;" horiz-adv-x="1380" 
d="M809 28q-119 -40 -201 -39q-158 6 -276 105q-152 125 -207 359q-34 148 -17 344q16 197 19 222q18 141 96 291q30 58 74.5 106t107.5 102q43 36 148 54q231 38 453 -122q17 -12 30.5 -26t35 -40.5t25.5 -31.5q103 -122 138 -233q44 -137 44 -249q2 -181 -43 -353
q-16 -63 -75 -157q-85 -136 -159 -206q-103 -96 -193 -126zM361 1111q-45 -127 -42 -325q-3 -96 11 -203q18 -153 107 -300q3 -5 11 -13q77 -65 172 -66q89 -1 181 67q156 116 223 314q67 199 30 382q-26 130 -103 214q-102 111 -237 166q-111 45 -211 -32
q-95 -73 -142 -204z" />
    <glyph glyph-name="O" unicode="&#xd6;" horiz-adv-x="1380" 
d="M809 28q-119 -40 -201 -39q-158 6 -276 105q-152 125 -207 359q-34 148 -17 344q16 197 19 222q18 141 96 291q30 58 74.5 106t107.5 102q43 36 148 54q231 38 453 -122q17 -12 30.5 -26t35 -40.5t25.5 -31.5q103 -122 138 -233q44 -137 44 -249q2 -181 -43 -353
q-16 -63 -75 -157q-85 -136 -159 -206q-103 -96 -193 -126zM361 1111q-45 -127 -42 -325q-3 -96 11 -203q18 -153 107 -300q3 -5 11 -13q77 -65 172 -66q89 -1 181 67q156 116 223 314q67 199 30 382q-26 130 -103 214q-102 111 -237 166q-111 45 -211 -32
q-95 -73 -142 -204z" />
    <glyph glyph-name="O" unicode="&#xd5;" horiz-adv-x="1380" 
d="M809 28q-119 -40 -201 -39q-158 6 -276 105q-152 125 -207 359q-34 148 -17 344q16 197 19 222q18 141 96 291q30 58 74.5 106t107.5 102q43 36 148 54q231 38 453 -122q17 -12 30.5 -26t35 -40.5t25.5 -31.5q103 -122 138 -233q44 -137 44 -249q2 -181 -43 -353
q-16 -63 -75 -157q-85 -136 -159 -206q-103 -96 -193 -126zM361 1111q-45 -127 -42 -325q-3 -96 11 -203q18 -153 107 -300q3 -5 11 -13q77 -65 172 -66q89 -1 181 67q156 116 223 314q67 199 30 382q-26 130 -103 214q-102 111 -237 166q-111 45 -211 -32
q-95 -73 -142 -204z" />
    <glyph glyph-name="O" unicode="&#xd4;" horiz-adv-x="1380" 
d="M809 28q-119 -40 -201 -39q-158 6 -276 105q-152 125 -207 359q-34 148 -17 344q16 197 19 222q18 141 96 291q30 58 74.5 106t107.5 102q43 36 148 54q231 38 453 -122q17 -12 30.5 -26t35 -40.5t25.5 -31.5q103 -122 138 -233q44 -137 44 -249q2 -181 -43 -353
q-16 -63 -75 -157q-85 -136 -159 -206q-103 -96 -193 -126zM361 1111q-45 -127 -42 -325q-3 -96 11 -203q18 -153 107 -300q3 -5 11 -13q77 -65 172 -66q89 -1 181 67q156 116 223 314q67 199 30 382q-26 130 -103 214q-102 111 -237 166q-111 45 -211 -32
q-95 -73 -142 -204z" />
    <glyph glyph-name="O" unicode="&#xd3;" horiz-adv-x="1380" 
d="M809 28q-119 -40 -201 -39q-158 6 -276 105q-152 125 -207 359q-34 148 -17 344q16 197 19 222q18 141 96 291q30 58 74.5 106t107.5 102q43 36 148 54q231 38 453 -122q17 -12 30.5 -26t35 -40.5t25.5 -31.5q103 -122 138 -233q44 -137 44 -249q2 -181 -43 -353
q-16 -63 -75 -157q-85 -136 -159 -206q-103 -96 -193 -126zM361 1111q-45 -127 -42 -325q-3 -96 11 -203q18 -153 107 -300q3 -5 11 -13q77 -65 172 -66q89 -1 181 67q156 116 223 314q67 199 30 382q-26 130 -103 214q-102 111 -237 166q-111 45 -211 -32
q-95 -73 -142 -204z" />
    <glyph glyph-name="O" unicode="&#xd2;" horiz-adv-x="1380" 
d="M809 28q-119 -40 -201 -39q-158 6 -276 105q-152 125 -207 359q-34 148 -17 344q16 197 19 222q18 141 96 291q30 58 74.5 106t107.5 102q43 36 148 54q231 38 453 -122q17 -12 30.5 -26t35 -40.5t25.5 -31.5q103 -122 138 -233q44 -137 44 -249q2 -181 -43 -353
q-16 -63 -75 -157q-85 -136 -159 -206q-103 -96 -193 -126zM361 1111q-45 -127 -42 -325q-3 -96 11 -203q18 -153 107 -300q3 -5 11 -13q77 -65 172 -66q89 -1 181 67q156 116 223 314q67 199 30 382q-26 130 -103 214q-102 111 -237 166q-111 45 -211 -32
q-95 -73 -142 -204z" />
    <glyph glyph-name="P" unicode="P" horiz-adv-x="1140" 
d="M350 390v-84q3 -26 1 -90.5t2 -97.5q4 -43 -8 -86q-8 -32 -30.5 -53.5t-51.5 -22.5q-55 -1 -96 41q-33 36 -35 89q-3 106 -11 318q-1 21 -4.5 87.5t-3.5 102.5q0 167 -5 286q-2 52 -2.5 150t-1.5 142q-2 69 -2 207q0 38 8.5 64t36.5 39q22 10 80 32q186 69 339 76
q286 13 455 -177q96 -107 122 -242q7 -38 -2 -145q-16 -170 -125 -324q-78 -109 -172 -168q-119 -73 -253 -103q-86 -19 -214 -14q-20 1 -23.5 -2.5t-3.5 -24.5zM355 644q16 -2 45 -2h36q102 -6 201 33q148 58 227 194q77 134 63 252q-17 146 -161 213q-109 50 -235 28
q-115 -20 -181 -54q-24 -13 -24 -41q1 -64 3 -136t5 -159.5t4 -135.5q2 -117 -4 -165q-3 -24 21 -27z" />
    <glyph glyph-name="Q" unicode="Q" horiz-adv-x="1466" 
d="M1278 1130q80 -186 86 -356q-8 -287 -167 -486q-1 -2 -3 -4t-3 -4q-16 -22 -16 -24t19 -21q92 -97 120 -132q21 -27 30 -49q32 -79 -53 -125q-54 -29 -113 10q-45 29 -109 105q-9 11 -19.5 23t-23.5 26.5t-20 22.5q-4 5 -13 0q-145 -89 -312 -101q-138 -9 -252 67
q-175 119 -246 273q-87 190 -80 361q8 242 81 425q56 143 114 220q93 125 278 188q143 49 316 -21q109 -44 187 -124q144 -148 199 -274zM700 232q92 16 167 54q-13 17 -43.5 54t-52 65.5t-38.5 56.5q-29 49 -3 98.5t82 54.5q47 5 93 -38q48 -43 118 -134q5 -6 7.5 -7.5t5 0
t6.5 8.5q16 30 34 62q56 99 67 223q13 142 -42 290q-73 195 -262 296q-86 46 -173 33.5t-158 -79.5q-85 -80 -137 -239q-62 -188 -42 -393q10 -113 51 -193q56 -109 160 -174q81 -52 160 -38z" />
    <glyph glyph-name="R" unicode="R" horiz-adv-x="1202" 
d="M161 86q-4 32 -4 146q3 53 -4 154t-7 116q-2 78 -4 119q-4 77 -9 309q-1 28 -19 199q-7 66 -11 199q-2 59 4 96q3 18 22 27q18 8 53 27t53 28q86 41 203 51q175 16 352 -51q107 -41 175 -105q48 -45 88 -139q74 -178 27 -331q-81 -260 -306 -392q-71 -42 -149 -70
q-1 -1 -4.5 -1t-5.5 -1.5t-2 -4.5q0 -2 1.5 -3.5t4 -3t3.5 -2.5q14 -11 82 -60t102 -79q123 -106 186 -218q22 -40 25 -88q2 -37 -35 -70.5t-76 -33.5q-22 0 -48 22q-30 25 -87 101q-133 174 -348 292q-7 4 -21.5 10t-20.5 9q-9 4 -11.5 1.5t-2.5 -11.5q-1 -35 10 -124
q16 -134 -13 -224q-8 -22 -33 -42t-49 -21q-35 -2 -56 8.5t-34 38.5q-22 43 -31 122zM804 1246q-132 97 -280 94q-95 1 -198 -32q-17 -6 -16 -23q15 -192 15 -197q7 -76 20 -208q9 -97 11 -220q0 -8 2.5 -10.5t10.5 -1.5q6 1 12.5 2t15 2t12.5 2q172 26 269 84
q187 113 208 301q15 136 -82 207z" />
    <glyph glyph-name="S" unicode="S" horiz-adv-x="1142" 
d="M380 1495q123 66 280 76q171 8 292 -66q31 -19 50 -37.5t24 -46.5q9 -42 -12 -81.5t-63 -51.5q-22 -6 -52 8q-104 49 -227 46q-90 -1 -184 -43q-126 -55 -169 -179q-26 -75 28 -145q84 -106 219 -169q147 -70 281 -159q142 -95 182 -255q34 -133 -32 -260
q-94 -181 -304 -224q-318 -67 -546 164q-47 49 -18 113q10 20 15 29q17 29 45.5 39t59.5 -2q41 -15 93 -60q98 -83 208 -82q136 2 228 71q43 32 50 105q15 137 -119 219q-31 19 -94 47.5t-72 32.5q-193 94 -310 207q-120 116 -129 270q-8 128 36 199q100 160 240 235z" />
    <glyph glyph-name="T" unicode="T" horiz-adv-x="1177" 
d="M775 761q-8 -122 -5 -166q4 -263 -1 -379q0 -13 -0.5 -51.5t-2.5 -65t-7 -51.5q-8 -37 -35 -59.5t-56 -23.5t-56 10q-46 25 -54 77q-15 98 -10 203q1 25 0.5 84.5t1.5 84.5q4 80 6 227t3 194q0 27 -2 161q-1 80 7 238v21q0 13 -13 12q-23 -6 -139 -1t-139 5
q-71 0 -101 12q-33 13 -53 40.5t-16 56.5q7 42 32.5 66.5t65.5 26.5q16 1 67 2t79 3q140 7 306 2h203q178 0 248 -6q26 -2 56 -22q26 -16 35.5 -45.5t-1.5 -61.5q-13 -39 -36.5 -56t-68.5 -18q-48 -2 -145.5 0t-146.5 0q-18 -1 -22.5 -4.5t-3.5 -19.5q4 -51 4 -145t1 -124
q4 -151 -1 -227z" />
    <glyph glyph-name="U" unicode="U" horiz-adv-x="1343" 
d="M103 845v111q-1 136 14 311q13 130 17 150q10 51 45 77q32 24 68 14q3 -1 9 -2.5t9 -2.5q70 -20 71 -93q1 -23 -4.5 -67t-5.5 -65q0 -22 -8 -82.5t-3 -93.5q3 -25 -3 -50q-5 -23 -6 -47.5t1.5 -59.5t2.5 -48q1 -46 7 -145q10 -189 82 -335q62 -123 187 -179q67 -30 135 4
q55 27 97 71.5t83 107.5q43 69 78 211q39 164 45 239q2 30 2.5 84.5t1.5 71.5q1 25 -1 72t-2 64q0 30 -6.5 85.5t-7.5 76.5q-1 10 -3 35.5t-2.5 39t0 34.5t4.5 38q10 45 55 71q16 9 34.5 8.5t30 -5t32.5 -15.5q14 -7 23 -17.5t14.5 -26t7.5 -24.5t5 -29q11 -64 17 -218
q2 -40 10 -118q5 -42 -4 -159q-2 -24 -5 -79t-6 -85q-23 -191 -75 -318q-55 -134 -106 -202q-5 -7 -19 -25.5t-21 -27.5t-19.5 -23.5t-24 -25.5t-23.5 -21q-91 -74 -173 -98q-131 -39 -268 17q-185 75 -275 264q-73 155 -102 346q-12 78 -15 184z" />
    <glyph glyph-name="U" unicode="&#xdc;" horiz-adv-x="1343" 
d="M103 845v111q-1 136 14 311q13 130 17 150q10 51 45 77q32 24 68 14q3 -1 9 -2.5t9 -2.5q70 -20 71 -93q1 -23 -4.5 -67t-5.5 -65q0 -22 -8 -82.5t-3 -93.5q3 -25 -3 -50q-5 -23 -6 -47.5t1.5 -59.5t2.5 -48q1 -46 7 -145q10 -189 82 -335q62 -123 187 -179q67 -30 135 4
q55 27 97 71.5t83 107.5q43 69 78 211q39 164 45 239q2 30 2.5 84.5t1.5 71.5q1 25 -1 72t-2 64q0 30 -6.5 85.5t-7.5 76.5q-1 10 -3 35.5t-2.5 39t0 34.5t4.5 38q10 45 55 71q16 9 34.5 8.5t30 -5t32.5 -15.5q14 -7 23 -17.5t14.5 -26t7.5 -24.5t5 -29q11 -64 17 -218
q2 -40 10 -118q5 -42 -4 -159q-2 -24 -5 -79t-6 -85q-23 -191 -75 -318q-55 -134 -106 -202q-5 -7 -19 -25.5t-21 -27.5t-19.5 -23.5t-24 -25.5t-23.5 -21q-91 -74 -173 -98q-131 -39 -268 17q-185 75 -275 264q-73 155 -102 346q-12 78 -15 184z" />
    <glyph glyph-name="U" unicode="&#xdb;" horiz-adv-x="1343" 
d="M103 845v111q-1 136 14 311q13 130 17 150q10 51 45 77q32 24 68 14q3 -1 9 -2.5t9 -2.5q70 -20 71 -93q1 -23 -4.5 -67t-5.5 -65q0 -22 -8 -82.5t-3 -93.5q3 -25 -3 -50q-5 -23 -6 -47.5t1.5 -59.5t2.5 -48q1 -46 7 -145q10 -189 82 -335q62 -123 187 -179q67 -30 135 4
q55 27 97 71.5t83 107.5q43 69 78 211q39 164 45 239q2 30 2.5 84.5t1.5 71.5q1 25 -1 72t-2 64q0 30 -6.5 85.5t-7.5 76.5q-1 10 -3 35.5t-2.5 39t0 34.5t4.5 38q10 45 55 71q16 9 34.5 8.5t30 -5t32.5 -15.5q14 -7 23 -17.5t14.5 -26t7.5 -24.5t5 -29q11 -64 17 -218
q2 -40 10 -118q5 -42 -4 -159q-2 -24 -5 -79t-6 -85q-23 -191 -75 -318q-55 -134 -106 -202q-5 -7 -19 -25.5t-21 -27.5t-19.5 -23.5t-24 -25.5t-23.5 -21q-91 -74 -173 -98q-131 -39 -268 17q-185 75 -275 264q-73 155 -102 346q-12 78 -15 184z" />
    <glyph glyph-name="U" unicode="&#xda;" horiz-adv-x="1343" 
d="M103 845v111q-1 136 14 311q13 130 17 150q10 51 45 77q32 24 68 14q3 -1 9 -2.5t9 -2.5q70 -20 71 -93q1 -23 -4.5 -67t-5.5 -65q0 -22 -8 -82.5t-3 -93.5q3 -25 -3 -50q-5 -23 -6 -47.5t1.5 -59.5t2.5 -48q1 -46 7 -145q10 -189 82 -335q62 -123 187 -179q67 -30 135 4
q55 27 97 71.5t83 107.5q43 69 78 211q39 164 45 239q2 30 2.5 84.5t1.5 71.5q1 25 -1 72t-2 64q0 30 -6.5 85.5t-7.5 76.5q-1 10 -3 35.5t-2.5 39t0 34.5t4.5 38q10 45 55 71q16 9 34.5 8.5t30 -5t32.5 -15.5q14 -7 23 -17.5t14.5 -26t7.5 -24.5t5 -29q11 -64 17 -218
q2 -40 10 -118q5 -42 -4 -159q-2 -24 -5 -79t-6 -85q-23 -191 -75 -318q-55 -134 -106 -202q-5 -7 -19 -25.5t-21 -27.5t-19.5 -23.5t-24 -25.5t-23.5 -21q-91 -74 -173 -98q-131 -39 -268 17q-185 75 -275 264q-73 155 -102 346q-12 78 -15 184z" />
    <glyph glyph-name="U" unicode="&#xd9;" horiz-adv-x="1343" 
d="M103 845v111q-1 136 14 311q13 130 17 150q10 51 45 77q32 24 68 14q3 -1 9 -2.5t9 -2.5q70 -20 71 -93q1 -23 -4.5 -67t-5.5 -65q0 -22 -8 -82.5t-3 -93.5q3 -25 -3 -50q-5 -23 -6 -47.5t1.5 -59.5t2.5 -48q1 -46 7 -145q10 -189 82 -335q62 -123 187 -179q67 -30 135 4
q55 27 97 71.5t83 107.5q43 69 78 211q39 164 45 239q2 30 2.5 84.5t1.5 71.5q1 25 -1 72t-2 64q0 30 -6.5 85.5t-7.5 76.5q-1 10 -3 35.5t-2.5 39t0 34.5t4.5 38q10 45 55 71q16 9 34.5 8.5t30 -5t32.5 -15.5q14 -7 23 -17.5t14.5 -26t7.5 -24.5t5 -29q11 -64 17 -218
q2 -40 10 -118q5 -42 -4 -159q-2 -24 -5 -79t-6 -85q-23 -191 -75 -318q-55 -134 -106 -202q-5 -7 -19 -25.5t-21 -27.5t-19.5 -23.5t-24 -25.5t-23.5 -21q-91 -74 -173 -98q-131 -39 -268 17q-185 75 -275 264q-73 155 -102 346q-12 78 -15 184z" />
    <glyph glyph-name="V" unicode="V" horiz-adv-x="1222" 
d="M666 265q5 -8 8 -9q34 79 41 98q15 37 36.5 106.5t27.5 86.5q18 53 49.5 159t49.5 158q17 49 31.5 106.5t29.5 127t25 108.5q54 204 59 228q9 39 41.5 66.5t68.5 27.5q70 0 87 -68q14 -59 1 -109q-8 -28 -21 -85.5t-21 -85.5q-18 -63 -70 -260.5t-85 -304.5
q-20 -65 -61.5 -182.5t-50.5 -145.5q-36 -107 -118 -234q-44 -67 -116.5 -72.5t-122.5 44.5q-25 22 -59 93q-63 135 -122 345q-15 54 -48.5 168.5t-50.5 174.5q-6 23 -29 113.5t-38 138.5q-54 177 -84 295q-8 32 -20 98q-8 39 18.5 68t60.5 35q37 6 55 0q2 -1 11.5 -4
t13 -4.5t10 -5t11 -8.5t8.5 -12q14 -25 23.5 -52t20.5 -70t14 -55q10 -37 34.5 -138t41.5 -155q33 -104 92 -315.5t92 -316.5q30 -98 56 -153z" />
    <glyph glyph-name="W" unicode="W" horiz-adv-x="1595" 
d="M463 358q13 -78 19 -95q5 6 8 13t6 15.5t5 12.5q7 16 34 73.5t43.5 95t30.5 75.5q18 49 61.5 169.5t68.5 185.5t64 94q28 21 65.5 15.5t54.5 -31.5q3 -4 15.5 -22t17 -25.5t12.5 -22.5t12.5 -28t6.5 -27q6 -37 26.5 -102t25.5 -87q66 -272 117 -403q0 -1 1 -5t2.5 -6.5
t4.5 -2.5t5 1t3 3l2.5 5t2.5 4q27 54 42 123q4 19 16 71.5t20 89.5t13 73q16 115 22 167q3 30 12 86.5t12 80.5q10 76 10 114q0 23 3 48t8 55.5t7 47.5q4 37 14.5 111t14.5 111q12 100 101 127q26 8 51.5 -4.5t38.5 -37.5q28 -57 20 -129q-5 -49 -18.5 -138t-17.5 -122
q-21 -167 -31 -281q-9 -104 -43 -310q-25 -156 -69 -290q-38 -118 -133 -210q-47 -38 -111.5 -33t-102.5 38q-73 62 -117 194q-71 220 -93 317q-2 6 -5 14q-15 -61 -48 -143q-76 -194 -123 -287q-36 -74 -112 -130q-56 -39 -108 -31t-98 58q-33 35 -50.5 79.5t-32.5 107.5
q-32 134 -62 353q-8 59 -21 167.5t-19 150.5q-5 35 -18 146t-22 172q-10 64 -24 192q-7 65 34 97t99 15q41 -12 63 -54q24 -46 40 -145q28 -182 38 -278q24 -208 28 -263q1 -13 26 -191q4 -26 14.5 -107.5t17.5 -126.5z" />
    <glyph glyph-name="X" unicode="X" horiz-adv-x="1245" 
d="M634 1037q0 -1 5 -7q10 23 22.5 45.5t32 54.5t25.5 42q89 149 145 233q50 74 116 130q42 35 87 28q33 -4 53 -27.5t22 -57.5q2 -64 -49 -145q-13 -20 -49 -67.5t-51 -75.5q-23 -42 -54 -93t-49 -79t-61 -94t-53 -81q-11 -16 -12 -17q-19 -16 -4 -44q139 -247 158 -283
q139 -271 170 -340q9 -20 20 -40q27 -48 22 -116q-4 -46 -40.5 -67t-78.5 -6q-64 22 -106 91q-78 128 -140 265q-23 51 -71 141.5t-60 114.5q-5 9 -12 27t-10 24q-21 -30 -43.5 -65t-48.5 -76.5t-41 -64.5q-33 -50 -64.5 -102.5t-77 -133t-59.5 -104.5q-33 -56 -92 -77
q-45 -15 -93 22q-36 27 -28 77q6 40 53 116q24 38 115 185.5t140 227.5q19 31 39.5 66.5t45 79t38.5 67.5q5 8 0 18q-14 29 -30 60.5t-29 56t-33 59.5t-31 55t-34.5 59t-32.5 54t-35.5 59t-33.5 55q-40 65 -53 129q-7 33 3.5 61t35.5 41q39 19 91 21q27 1 48 -27
q98 -129 130 -199q25 -55 77.5 -153.5t64.5 -122.5z" />
    <glyph glyph-name="Y" unicode="Y" horiz-adv-x="1236" 
d="M756 892l2 -1l4 -2q6 30 29 80t29 67q27 78 77 174q56 109 114 252q20 48 43 74q21 23 55.5 33t61.5 2q54 -17 61 -82q6 -52 -19 -108q-16 -35 -48 -117t-53 -125q-90 -190 -114 -242q-29 -63 -75.5 -182.5t-59.5 -150.5q-12 -29 -46.5 -105.5t-50.5 -119.5
q-31 -84 -114 -285q-8 -21 -21 -43q-21 -38 -65 -46.5t-78 18.5q-64 50 -38 122q13 35 41 104.5t41 104.5q18 48 60.5 153.5t63.5 162.5q10 21 7.5 38.5t-22.5 35.5q-40 36 -77.5 75t-79.5 90t-65 79.5t-74 95.5t-65 86q-52 68 -97 119q-45 49 -70 103q-14 29 -10 62.5
t24 52.5q25 25 58 30t63 -10q6 -3 11 -7.5t10 -11t8 -9.5q32 -33 70 -75.5t58 -66t68.5 -83.5t58.5 -72q40 -50 224 -270z" />
    <glyph glyph-name="Y" unicode="&#x178;" horiz-adv-x="1236" 
d="M756 892l2 -1l4 -2q6 30 29 80t29 67q27 78 77 174q56 109 114 252q20 48 43 74q21 23 55.5 33t61.5 2q54 -17 61 -82q6 -52 -19 -108q-16 -35 -48 -117t-53 -125q-90 -190 -114 -242q-29 -63 -75.5 -182.5t-59.5 -150.5q-12 -29 -46.5 -105.5t-50.5 -119.5
q-31 -84 -114 -285q-8 -21 -21 -43q-21 -38 -65 -46.5t-78 18.5q-64 50 -38 122q13 35 41 104.5t41 104.5q18 48 60.5 153.5t63.5 162.5q10 21 7.5 38.5t-22.5 35.5q-40 36 -77.5 75t-79.5 90t-65 79.5t-74 95.5t-65 86q-52 68 -97 119q-45 49 -70 103q-14 29 -10 62.5
t24 52.5q25 25 58 30t63 -10q6 -3 11 -7.5t10 -11t8 -9.5q32 -33 70 -75.5t58 -66t68.5 -83.5t58.5 -72q40 -50 224 -270z" />
    <glyph glyph-name="Y" unicode="&#xdd;" horiz-adv-x="1236" 
d="M756 892l2 -1l4 -2q6 30 29 80t29 67q27 78 77 174q56 109 114 252q20 48 43 74q21 23 55.5 33t61.5 2q54 -17 61 -82q6 -52 -19 -108q-16 -35 -48 -117t-53 -125q-90 -190 -114 -242q-29 -63 -75.5 -182.5t-59.5 -150.5q-12 -29 -46.5 -105.5t-50.5 -119.5
q-31 -84 -114 -285q-8 -21 -21 -43q-21 -38 -65 -46.5t-78 18.5q-64 50 -38 122q13 35 41 104.5t41 104.5q18 48 60.5 153.5t63.5 162.5q10 21 7.5 38.5t-22.5 35.5q-40 36 -77.5 75t-79.5 90t-65 79.5t-74 95.5t-65 86q-52 68 -97 119q-45 49 -70 103q-14 29 -10 62.5
t24 52.5q25 25 58 30t63 -10q6 -3 11 -7.5t10 -11t8 -9.5q32 -33 70 -75.5t58 -66t68.5 -83.5t58.5 -72q40 -50 224 -270z" />
    <glyph glyph-name="Z" unicode="Z" horiz-adv-x="1236" 
d="M771 1359h-49q-90 -2 -268 -14q-33 -2 -215 -20q-38 -4 -90 16q-26 10 -38.5 38t-4.5 58q20 76 91 94q92 24 185 27q46 2 140.5 2t140.5 2q20 1 178 -2q69 -1 119 -36.5t65 -92.5q10 -39 -11 -125q-16 -66 -88 -208q-97 -193 -293 -473q-30 -43 -105.5 -158.5
t-120.5 -175.5q-11 -15 -30.5 -45.5t-23.5 -36.5q-8 -13 -5 -17q2 -3 16 -3q72 -1 186 8q25 2 53.5 4.5t62.5 5.5t54 5q61 6 166 17q94 9 153 1q27 -4 56 -32t37 -58q17 -69 -43 -112q-34 -25 -81 -27q-41 -1 -123.5 -5t-123.5 -5q-26 -1 -93.5 -1.5t-104.5 -3.5
q-28 -2 -83 -5t-83 -5q-137 -10 -219 60q-76 66 -55 166q16 82 81 156q22 26 62 93q29 47 91 134t70 98q161 233 295 479q62 112 76 157q5 14 6.5 19t2.5 12t-1.5 6.5t-6 2t-11.5 0.5t-17 0z" />
    <glyph glyph-name="bracketleft" unicode="[" horiz-adv-x="854" 
d="M379 1446q-24 -1 -30 -27q-16 -67 -15 -125q2 -92 -9 -321q-11 -230 -7 -328q3 -16 1 -145t-2 -145q0 -40 0.5 -85.5t1.5 -101.5t1 -86q1 -24 9.5 -32t32.5 -9q22 0 45 2.5t55.5 8t44.5 7.5q92 15 143 -22q20 -15 32 -31q35 -47 -15 -114q-27 -37 -103 -49
q-123 -19 -257 -8q-76 5 -118 38q-59 46 -67 135q-14 172 -17 258q-2 78 -2 118q-1 39 4 127t2 135q-4 84 -5 125q-1 28 1.5 80.5t2.5 61.5q2 72 14 214q3 36 7 140t12 161q13 83 58 161q13 23 38.5 38t40.5 19t53 12q56 12 85 15q158 18 237 2q25 -5 59 -27
q36 -23 40 -66.5t-27 -74.5q-43 -44 -103 -46q-61 -1 -243 -15z" />
    <glyph glyph-name="backslash" unicode="\" horiz-adv-x="983" 
d="M877 182q5 -21 4 -27q-1 -51 -39.5 -88t-94.5 -23q-45 12 -58 49q-13 38 -43.5 105.5t-41.5 95.5q-12 31 -32 95q-27 83 -74 168q-12 22 -28 66t-26 63q-15 29 -29.5 63t-31 75t-26.5 64q-11 27 -32 85.5t-34 88.5q-70 162 -160 376q-4 8 -7.5 18t-7.5 22.5t-6 19.5
q-25 66 32 115q27 24 36 28q34 13 80 -14q50 -29 69 -80q14 -37 52.5 -150t63.5 -173q26 -61 66 -147q75 -161 122 -294q45 -131 107 -244q18 -34 44 -106q8 -23 45 -111.5t50 -139.5z" />
    <glyph glyph-name="bracketright" unicode="]" horiz-adv-x="854" 
d="M746 567q10 -145 4 -272q-1 -37 -6 -112t-7 -112q-4 -84 -27 -127q-40 -74 -125 -85q-93 -12 -164 -8q-115 6 -162 18q-78 20 -100 101q-8 29 16 58q53 63 141 54q15 -2 78 -12.5t97 -9.5q26 1 35 10t9 34v71q8 176 2 378q-1 39 1 119t1 119q-2 54 -7 152.5t-7 137.5
q-7 173 -5 223q3 63 -13 133q-6 28 -35 29q-27 2 -76.5 5.5t-90 6t-76.5 3.5q-44 2 -78 26t-43 61q-10 38 -1 60.5t44 43.5q52 31 129 31q146 0 287 -36q73 -19 106 -89q40 -84 49 -211q2 -24 4.5 -110t7.5 -132q6 -61 16 -318q2 -65 -4 -121q-4 -39 0 -119z" />
    <glyph glyph-name="asciicircum" unicode="^" horiz-adv-x="743" 
d="M631 1184q20 -46 -1 -99q-18 -44 -67 -46q-85 -1 -136 80q-5 8 -43 84q-5 10 -19 40q-10 -19 -32 -64.5t-36 -68.5q-32 -52 -73 -66q-48 -16 -83 13.5t-38 71.5q-2 32 8 55q13 33 31.5 71.5t31.5 62.5t39 71t35 63q2 4 26 33q48 52 103.5 47.5t95.5 -51.5q33 -38 61 -93
q68 -134 97 -204z" />
    <glyph glyph-name="underscore" unicode="_" horiz-adv-x="1120" 
d="M941 230q38 -10 58 -33t18 -54q-3 -38 -25 -66.5t-59 -40.5q-44 -15 -102 -18q-21 -1 -68.5 -5.5t-81.5 -6.5t-65 0q-98 0 -239 -11q-82 -7 -187 12q-63 12 -83 81q-17 61 30 102q37 31 94 33q102 2 153 5q50 3 98 3q28 0 59.5 1.5t69.5 4t59 3.5q60 6 136 5.5t135 -15.5
z" />
    <glyph glyph-name="grave" unicode="`" horiz-adv-x="509" 
d="M382 1258q22 -34 25 -80q0 -63 -64 -90q-53 -21 -96 23q-18 18 -62 90q-6 10 -30.5 46.5t-34.5 57.5q-28 56 -12 112q14 48 59 61.5t84 -18.5q32 -26 73 -100q50 -89 58 -102z" />
    <glyph glyph-name="a" unicode="a" horiz-adv-x="1114" 
d="M1008 99q11 -75 -27 -117q-32 -30 -76.5 -26t-67.5 30q-30 33 -45 90q-4 16 -16 62q-81 -81 -141 -100q-55 -18 -115 -24q-90 -10 -158 0q-86 12 -142 77q-65 74 -84 109q-19 34 -26 68q-9 43 -7 132q2 95 21 163q47 166 158 256q60 48 157 60q121 15 238 -15
q55 -14 90 -33q11 -5 13.5 -2.5t3.5 12.5q3 52 45 86q49 39 104 19q60 -23 69 -91q8 -56 -6 -178q-25 -197 -16 -336q4 -70 28 -242zM752 483q20 79 -37 121q-91 69 -191 73q-79 4 -120 -40q-23 -24 -43 -63q-84 -166 3 -325q32 -59 110 -61q38 -1 84 27q148 91 194 268z
" />
    <glyph glyph-name="a" unicode="&#xe5;" horiz-adv-x="1114" 
d="M1008 99q11 -75 -27 -117q-32 -30 -76.5 -26t-67.5 30q-30 33 -45 90q-4 16 -16 62q-81 -81 -141 -100q-55 -18 -115 -24q-90 -10 -158 0q-86 12 -142 77q-65 74 -84 109q-19 34 -26 68q-9 43 -7 132q2 95 21 163q47 166 158 256q60 48 157 60q121 15 238 -15
q55 -14 90 -33q11 -5 13.5 -2.5t3.5 12.5q3 52 45 86q49 39 104 19q60 -23 69 -91q8 -56 -6 -178q-25 -197 -16 -336q4 -70 28 -242zM752 483q20 79 -37 121q-91 69 -191 73q-79 4 -120 -40q-23 -24 -43 -63q-84 -166 3 -325q32 -59 110 -61q38 -1 84 27q148 91 194 268z
" />
    <glyph glyph-name="a" unicode="&#xe4;" horiz-adv-x="1114" 
d="M1008 99q11 -75 -27 -117q-32 -30 -76.5 -26t-67.5 30q-30 33 -45 90q-4 16 -16 62q-81 -81 -141 -100q-55 -18 -115 -24q-90 -10 -158 0q-86 12 -142 77q-65 74 -84 109q-19 34 -26 68q-9 43 -7 132q2 95 21 163q47 166 158 256q60 48 157 60q121 15 238 -15
q55 -14 90 -33q11 -5 13.5 -2.5t3.5 12.5q3 52 45 86q49 39 104 19q60 -23 69 -91q8 -56 -6 -178q-25 -197 -16 -336q4 -70 28 -242zM752 483q20 79 -37 121q-91 69 -191 73q-79 4 -120 -40q-23 -24 -43 -63q-84 -166 3 -325q32 -59 110 -61q38 -1 84 27q148 91 194 268z
" />
    <glyph glyph-name="a" unicode="&#xe3;" horiz-adv-x="1114" 
d="M1008 99q11 -75 -27 -117q-32 -30 -76.5 -26t-67.5 30q-30 33 -45 90q-4 16 -16 62q-81 -81 -141 -100q-55 -18 -115 -24q-90 -10 -158 0q-86 12 -142 77q-65 74 -84 109q-19 34 -26 68q-9 43 -7 132q2 95 21 163q47 166 158 256q60 48 157 60q121 15 238 -15
q55 -14 90 -33q11 -5 13.5 -2.5t3.5 12.5q3 52 45 86q49 39 104 19q60 -23 69 -91q8 -56 -6 -178q-25 -197 -16 -336q4 -70 28 -242zM752 483q20 79 -37 121q-91 69 -191 73q-79 4 -120 -40q-23 -24 -43 -63q-84 -166 3 -325q32 -59 110 -61q38 -1 84 27q148 91 194 268z
" />
    <glyph glyph-name="a" unicode="&#xe2;" horiz-adv-x="1114" 
d="M1008 99q11 -75 -27 -117q-32 -30 -76.5 -26t-67.5 30q-30 33 -45 90q-4 16 -16 62q-81 -81 -141 -100q-55 -18 -115 -24q-90 -10 -158 0q-86 12 -142 77q-65 74 -84 109q-19 34 -26 68q-9 43 -7 132q2 95 21 163q47 166 158 256q60 48 157 60q121 15 238 -15
q55 -14 90 -33q11 -5 13.5 -2.5t3.5 12.5q3 52 45 86q49 39 104 19q60 -23 69 -91q8 -56 -6 -178q-25 -197 -16 -336q4 -70 28 -242zM752 483q20 79 -37 121q-91 69 -191 73q-79 4 -120 -40q-23 -24 -43 -63q-84 -166 3 -325q32 -59 110 -61q38 -1 84 27q148 91 194 268z
" />
    <glyph glyph-name="a" unicode="&#xe1;" horiz-adv-x="1114" 
d="M1008 99q11 -75 -27 -117q-32 -30 -76.5 -26t-67.5 30q-30 33 -45 90q-4 16 -16 62q-81 -81 -141 -100q-55 -18 -115 -24q-90 -10 -158 0q-86 12 -142 77q-65 74 -84 109q-19 34 -26 68q-9 43 -7 132q2 95 21 163q47 166 158 256q60 48 157 60q121 15 238 -15
q55 -14 90 -33q11 -5 13.5 -2.5t3.5 12.5q3 52 45 86q49 39 104 19q60 -23 69 -91q8 -56 -6 -178q-25 -197 -16 -336q4 -70 28 -242zM752 483q20 79 -37 121q-91 69 -191 73q-79 4 -120 -40q-23 -24 -43 -63q-84 -166 3 -325q32 -59 110 -61q38 -1 84 27q148 91 194 268z
" />
    <glyph glyph-name="a" unicode="&#xe0;" horiz-adv-x="1114" 
d="M1008 99q11 -75 -27 -117q-32 -30 -76.5 -26t-67.5 30q-30 33 -45 90q-4 16 -16 62q-81 -81 -141 -100q-55 -18 -115 -24q-90 -10 -158 0q-86 12 -142 77q-65 74 -84 109q-19 34 -26 68q-9 43 -7 132q2 95 21 163q47 166 158 256q60 48 157 60q121 15 238 -15
q55 -14 90 -33q11 -5 13.5 -2.5t3.5 12.5q3 52 45 86q49 39 104 19q60 -23 69 -91q8 -56 -6 -178q-25 -197 -16 -336q4 -70 28 -242zM752 483q20 79 -37 121q-91 69 -191 73q-79 4 -120 -40q-23 -24 -43 -63q-84 -166 3 -325q32 -59 110 -61q38 -1 84 27q148 91 194 268z
" />
    <glyph glyph-name="b" unicode="b" horiz-adv-x="1177" 
d="M1010 740q79 -114 62 -265q-7 -61 -20 -106q-49 -168 -224 -271q-161 -94 -373 -65q-64 9 -96 39q-4 -60 -44 -95q-32 -29 -83 -20.5t-70 47.5q-8 15 -12 61q-2 22 -11 71.5t-11 76.5q0 3 -1 8.5t-1 8.5q-7 320 -2 548q1 46 -0.5 96.5t-4 116t-3.5 96.5q-1 30 -8 114.5
t-5 130.5q2 57 23 104q13 30 53 49.5t73 14.5q23 -4 39 -24t18 -49q24 -310 24 -504q0 -21 0.5 -44.5t1.5 -53t1 -47.5q25 29 63 55t58.5 36t73.5 34q146 65 289 -7q125 -62 190 -156zM795 321q85 88 62 231q-16 97 -96 141q-77 43 -173 2q-121 -53 -219 -180q-8 -10 -8 -12
q-20 -84 11 -138q74 -127 214 -130q126 1 209 86z" />
    <glyph glyph-name="c" unicode="c" horiz-adv-x="1091" 
d="M989 244q4 -61 -39 -108q-158 -168 -387 -197q-118 -14 -237 58q-35 22 -53 33.5t-43.5 34.5t-42.5 47q-28 40 -39 79q-3 12 -15.5 39.5t-15.5 43.5q-25 115 -6 268q20 155 147 301q87 100 228 119q136 17 215 -4q99 -27 157 -115q25 -40 21 -83q-6 -56 -52 -82.5
t-100 -5.5q-17 7 -46 23t-39 21q-6 3 -19 8.5t-20 8.5q-46 20 -97 3q-38 -12 -65 -25q-27 -12 -44 -35q-72 -100 -71 -225q4 -87 16 -137q25 -106 122 -128q79 -19 125 -14q63 7 123 49q8 6 52 38.5t69 47.5q44 27 84 19q68 -14 72 -82z" />
    <glyph glyph-name="c" unicode="&#xe7;" horiz-adv-x="1091" 
d="M989 244q4 -61 -39 -108q-158 -168 -387 -197q-118 -14 -237 58q-35 22 -53 33.5t-43.5 34.5t-42.5 47q-28 40 -39 79q-3 12 -15.5 39.5t-15.5 43.5q-25 115 -6 268q20 155 147 301q87 100 228 119q136 17 215 -4q99 -27 157 -115q25 -40 21 -83q-6 -56 -52 -82.5
t-100 -5.5q-17 7 -46 23t-39 21q-6 3 -19 8.5t-20 8.5q-46 20 -97 3q-38 -12 -65 -25q-27 -12 -44 -35q-72 -100 -71 -225q4 -87 16 -137q25 -106 122 -128q79 -19 125 -14q63 7 123 49q8 6 52 38.5t69 47.5q44 27 84 19q68 -14 72 -82z" />
    <glyph glyph-name="d" unicode="d" horiz-adv-x="1040" 
d="M928 284q1 -20 5.5 -88t4 -88t-3.5 -88q-4 -31 -33 -57t-61 -27q-36 -1 -66 40q-27 36 -42 108q-1 3 -5 28q-33 -59 -83 -89q-43 -26 -108 -31q-112 -8 -130 -7q-90 4 -152 71q-79 86 -114 152q-44 81 -36 189q10 118 28 174q52 160 122 239q90 102 226 117
q114 12 222 -30q3 2 3 14q0 218 -1 245q-3 83 1 156q5 86 45 142q39 53 96 37q38 -11 57 -60q16 -42 19 -90q5 -92 5 -133.5t-3 -133.5t-3 -134q-1 -50 4 -220q4 -163 -1 -267q-1 -23 4 -169zM716 493q13 49 -4 90q-63 154 -242 124q-93 -15 -133 -120q-39 -103 -21 -234
q7 -55 46.5 -90.5t90.5 -35.5q70 0 156 71q72 58 107 195z" />
    <glyph glyph-name="e" unicode="e" horiz-adv-x="1128" 
d="M1025 268q10 -53 -41 -106q-87 -92 -230 -150q-100 -39 -166 -48q-71 -10 -151 18q-119 42 -238 175q-25 28 -54 108q-43 115 -43 198q3 248 166 402q55 52 112 73q42 16 61.5 22.5t55 12.5t65.5 2q165 -22 237 -144q66 -112 -5 -229q-92 -154 -239 -221
q-104 -48 -161 -56q-7 -1 -19.5 -1.5t-16.5 -0.5q-8 0 -10 -3q-1 -2 4 -10q47 -59 118 -92q108 -49 241 12q47 22 95 62q42 34 66 46q54 27 98 6t55 -76zM325 552h15q45 4 108 20.5t95 39.5q72 52 91 110q7 21 -14 31q-24 12 -56 12q-90 1 -156 -53t-92 -148q-3 -12 9 -12z
" />
    <glyph glyph-name="e" unicode="&#xeb;" horiz-adv-x="1128" 
d="M1025 268q10 -53 -41 -106q-87 -92 -230 -150q-100 -39 -166 -48q-71 -10 -151 18q-119 42 -238 175q-25 28 -54 108q-43 115 -43 198q3 248 166 402q55 52 112 73q42 16 61.5 22.5t55 12.5t65.5 2q165 -22 237 -144q66 -112 -5 -229q-92 -154 -239 -221
q-104 -48 -161 -56q-7 -1 -19.5 -1.5t-16.5 -0.5q-8 0 -10 -3q-1 -2 4 -10q47 -59 118 -92q108 -49 241 12q47 22 95 62q42 34 66 46q54 27 98 6t55 -76zM325 552h15q45 4 108 20.5t95 39.5q72 52 91 110q7 21 -14 31q-24 12 -56 12q-90 1 -156 -53t-92 -148q-3 -12 9 -12z
" />
    <glyph glyph-name="e" unicode="&#xea;" horiz-adv-x="1128" 
d="M1025 268q10 -53 -41 -106q-87 -92 -230 -150q-100 -39 -166 -48q-71 -10 -151 18q-119 42 -238 175q-25 28 -54 108q-43 115 -43 198q3 248 166 402q55 52 112 73q42 16 61.5 22.5t55 12.5t65.5 2q165 -22 237 -144q66 -112 -5 -229q-92 -154 -239 -221
q-104 -48 -161 -56q-7 -1 -19.5 -1.5t-16.5 -0.5q-8 0 -10 -3q-1 -2 4 -10q47 -59 118 -92q108 -49 241 12q47 22 95 62q42 34 66 46q54 27 98 6t55 -76zM325 552h15q45 4 108 20.5t95 39.5q72 52 91 110q7 21 -14 31q-24 12 -56 12q-90 1 -156 -53t-92 -148q-3 -12 9 -12z
" />
    <glyph glyph-name="e" unicode="&#xe9;" horiz-adv-x="1128" 
d="M1025 268q10 -53 -41 -106q-87 -92 -230 -150q-100 -39 -166 -48q-71 -10 -151 18q-119 42 -238 175q-25 28 -54 108q-43 115 -43 198q3 248 166 402q55 52 112 73q42 16 61.5 22.5t55 12.5t65.5 2q165 -22 237 -144q66 -112 -5 -229q-92 -154 -239 -221
q-104 -48 -161 -56q-7 -1 -19.5 -1.5t-16.5 -0.5q-8 0 -10 -3q-1 -2 4 -10q47 -59 118 -92q108 -49 241 12q47 22 95 62q42 34 66 46q54 27 98 6t55 -76zM325 552h15q45 4 108 20.5t95 39.5q72 52 91 110q7 21 -14 31q-24 12 -56 12q-90 1 -156 -53t-92 -148q-3 -12 9 -12z
" />
    <glyph glyph-name="e" unicode="&#xe8;" horiz-adv-x="1128" 
d="M1025 268q10 -53 -41 -106q-87 -92 -230 -150q-100 -39 -166 -48q-71 -10 -151 18q-119 42 -238 175q-25 28 -54 108q-43 115 -43 198q3 248 166 402q55 52 112 73q42 16 61.5 22.5t55 12.5t65.5 2q165 -22 237 -144q66 -112 -5 -229q-92 -154 -239 -221
q-104 -48 -161 -56q-7 -1 -19.5 -1.5t-16.5 -0.5q-8 0 -10 -3q-1 -2 4 -10q47 -59 118 -92q108 -49 241 12q47 22 95 62q42 34 66 46q54 27 98 6t55 -76zM325 552h15q45 4 108 20.5t95 39.5q72 52 91 110q7 21 -14 31q-24 12 -56 12q-90 1 -156 -53t-92 -148q-3 -12 9 -12z
" />
    <glyph glyph-name="f" unicode="f" horiz-adv-x="991" 
d="M947 1494q50 -34 45.5 -93.5t-58.5 -87.5q-44 -22 -104 2q-110 43 -211 -12q-58 -32 -107 -126q-8 -16 -14.5 -37t-9.5 -34t-7 -40.5t-6 -36.5q-8 -40 -15 -126.5t-16 -130.5q-1 -5 -1 -13.5v-14.5q-2 -23 3 -24q3 -1 21 1q170 19 243 8q61 -9 87 -54.5t14 -101.5
q-10 -44 -58 -58q-51 -16 -157 -30q-17 -2 -51 -8q-25 -5 -84 1q-12 1 -16 -3t-5 -15v-32t2 -32t3 -32q1 -11 8.5 -78.5t5.5 -104.5q-3 -78 -50 -125q-34 -35 -76 -27.5t-61 50.5q-24 54 -31 126q0 4 -5.5 76t-9.5 108q-1 13 1.5 37.5t2.5 36.5q-1 17 -4.5 20t-19.5 0
q-94 -17 -162 -6q-59 10 -83 52t-2 97q13 34 46 49q80 37 160 39q45 0 52.5 5.5t8.5 38.5q5 153 19 262q18 150 60 244q50 113 161 200q88 68 173 85q175 37 308 -55z" />
    <glyph glyph-name="g" unicode="g" horiz-adv-x="1208" 
d="M1101 698q8 -89 4 -215q-6 -248 -26 -396q-5 -34 -9.5 -95.5t-6.5 -81.5q-7 -65 -39 -134q-57 -125 -122 -195q-103 -112 -288 -149q-130 -26 -250 23q-125 51 -185 154q-34 58 -4 106q35 56 103 54q37 -1 77 -43q49 -51 77 -68q73 -43 151 -15q4 1 37 11.5t49 18.5
q111 52 145 178q43 157 49 222v42q-44 -43 -102 -71q-19 -9 -44 -17t-37 -11.5t-47.5 -12t-40.5 -9.5q-82 -20 -199 -15q-137 5 -218 142q-69 115 -72 267q-2 122 20 202q46 165 196 252q74 43 196 36q18 -1 36.5 -3t38 -6.5t34 -8t36 -11t33.5 -11.5t35.5 -13.5t32.5 -13.5
t35 -15t33 -14q9 -4 43 -23v67q2 54 28 93q28 44 76 30q90 -25 114 -127q5 -24 7.5 -71t3.5 -53zM829 429q16 43 -9 82q-31 48 -79 75q-90 50 -225 62q-71 4 -130 -66q-69 -82 -60 -215q6 -82 67 -133q58 -47 150 -33q212 32 286 228z" />
    <glyph glyph-name="h" unicode="h" horiz-adv-x="1081" 
d="M976 318q2 -34 2.5 -76t0 -75.5t0.5 -75.5q0 -41 -23 -84q-25 -45 -90 -42q-54 3 -75 48q-8 16 -12.5 36.5t-5.5 32.5t-2.5 39.5t-1.5 34.5q-1 26 -4 234q0 36 -18 104q-16 61 -38 108q-49 110 -176 87q-75 -13 -190 -97q-17 -13 -13 -51q6 -50 6 -145t1 -110
q5 -168 4 -217q-2 -53 -34 -90q-30 -32 -75.5 -28t-70.5 38q-31 42 -38 116q-4 40 -6.5 89t-3 81.5t-1.5 92t-1 84.5q-1 48 -3.5 201.5t-4.5 237.5q-2 61 0.5 179t1.5 173q0 67 -1 100q-1 50 27 105q18 35 52.5 49.5t70.5 3.5q33 -10 51 -53q17 -42 17 -94q-1 -157 -5 -476
v-52q57 33 86 43q240 79 408 -58q76 -61 103 -154q4 -14 16.5 -48.5t19 -60t7.5 -50.5q2 -30 9.5 -90t9.5 -90z" />
    <glyph glyph-name="i" unicode="i" horiz-adv-x="448" 
d="M340 527q-16 -183 -1 -339q9 -88 -6 -149q-21 -90 -121 -84q-35 2 -60.5 29.5t-29.5 67.5q-10 102 -8 278q2 44 -10 274q-7 126 22 207q28 79 101 94q28 7 46 -7q50 -36 59 -84q24 -119 8 -287zM118 1086q-4 12 -4 47q-5 56 35 90q30 25 77 33q30 6 57 -18q41 -36 44 -96
t-34 -100q-43 -46 -95 -32q-62 16 -80 76z" />
    <glyph glyph-name="i" unicode="&#xef;" horiz-adv-x="448" 
d="M340 527q-16 -183 -1 -339q9 -88 -6 -149q-21 -90 -121 -84q-35 2 -60.5 29.5t-29.5 67.5q-10 102 -8 278q2 44 -10 274q-7 126 22 207q28 79 101 94q28 7 46 -7q50 -36 59 -84q24 -119 8 -287zM118 1086q-4 12 -4 47q-5 56 35 90q30 25 77 33q30 6 57 -18q41 -36 44 -96
t-34 -100q-43 -46 -95 -32q-62 16 -80 76z" />
    <glyph glyph-name="i" unicode="&#xee;" horiz-adv-x="448" 
d="M340 527q-16 -183 -1 -339q9 -88 -6 -149q-21 -90 -121 -84q-35 2 -60.5 29.5t-29.5 67.5q-10 102 -8 278q2 44 -10 274q-7 126 22 207q28 79 101 94q28 7 46 -7q50 -36 59 -84q24 -119 8 -287zM118 1086q-4 12 -4 47q-5 56 35 90q30 25 77 33q30 6 57 -18q41 -36 44 -96
t-34 -100q-43 -46 -95 -32q-62 16 -80 76z" />
    <glyph glyph-name="i" unicode="&#xed;" horiz-adv-x="448" 
d="M340 527q-16 -183 -1 -339q9 -88 -6 -149q-21 -90 -121 -84q-35 2 -60.5 29.5t-29.5 67.5q-10 102 -8 278q2 44 -10 274q-7 126 22 207q28 79 101 94q28 7 46 -7q50 -36 59 -84q24 -119 8 -287zM118 1086q-4 12 -4 47q-5 56 35 90q30 25 77 33q30 6 57 -18q41 -36 44 -96
t-34 -100q-43 -46 -95 -32q-62 16 -80 76z" />
    <glyph glyph-name="i" unicode="&#xec;" horiz-adv-x="448" 
d="M340 527q-16 -183 -1 -339q9 -88 -6 -149q-21 -90 -121 -84q-35 2 -60.5 29.5t-29.5 67.5q-10 102 -8 278q2 44 -10 274q-7 126 22 207q28 79 101 94q28 7 46 -7q50 -36 59 -84q24 -119 8 -287zM118 1086q-4 12 -4 47q-5 56 35 90q30 25 77 33q30 6 57 -18q41 -36 44 -96
t-34 -100q-43 -46 -95 -32q-62 16 -80 76z" />
    <glyph glyph-name="j" unicode="j" horiz-adv-x="483" 
d="M373 678q1 -16 4 -94.5t2.5 -94.5t-1.5 -95q-2 -41 -5.5 -139.5t-6.5 -150.5q-18 -274 -76 -441q-56 -161 -165 -242q-102 -76 -188 -87q-143 -18 -276 43q-76 35 -73 112q1 47 42.5 74t85.5 10q118 -45 218 -15q85 25 123 78q59 80 73 188q15 114 23 205q16 187 11 338
q3 104 -4 267q-3 68 -2 122q2 68 37 102q49 47 99 28q60 -23 71 -80q6 -31 8 -128zM270 1038q-48 3 -78 31t-31 80q-1 42 29 75.5t67 32.5q44 -1 77 -31t33 -70q0 -46 -30 -83.5t-67 -34.5z" />
    <glyph glyph-name="k" unicode="k" horiz-adv-x="1097" 
d="M977 111q24 -36 17 -63.5t-29 -44.5t-51 -20q-93 -11 -188 50q-61 38 -184.5 111.5t-183.5 111.5q-10 6 -18 10v-122q0 -49 -18 -119q-11 -39 -41 -54t-69 0q-60 22 -75 86q-11 50 -15 133q-1 21 -1 45.5t0.5 54t0.5 45.5q1 66 -11 295q-1 15 -1 90v354q0 15 -4 112
t-3 148q2 72 30 114q16 23 53 36t64 5q28 -8 45.5 -34t17.5 -60q0 -359 -2 -538q-2 -149 10 -249q10 6 49 43q33 31 134 126.5t157 147.5q49 45 90 58q49 16 87 -15t33 -83q-7 -71 -79 -150q-69 -77 -250 -230q-8 -7 -22 -19.5t-26.5 -23t-24.5 -18.5q83 -49 134 -80
q196 -120 293 -180q54 -33 81 -73z" />
    <glyph glyph-name="l" unicode="l" horiz-adv-x="450" 
d="M341 442q0 -18 3.5 -55t3.5 -56q-1 -84 -7 -257q-1 -38 -34 -82q-16 -21 -41 -20q-5 0 -22 2t-26 2q-61 0 -83 61q-17 49 -19 122v212q1 100 -6 401q-1 14 0 39.5t1 33.5q0 17 -1.5 52t-1.5 53q1 65 -3 207t-2 217q0 4 6 56q5 42 54 65t96 -1.5t56 -71.5q6 -28 4 -61
q-3 -95 5 -173q10 -102 12 -154q1 -16 3 -58t2 -57.5t-1 -57.5q-1 -20 -1.5 -43t-1 -51.5t-0.5 -43.5q-1 -52 1.5 -148t2.5 -133z" />
    <glyph glyph-name="m" unicode="m" horiz-adv-x="1826" 
d="M1720 390q8 -83 3 -207q-4 -101 -27 -156q-19 -44 -57 -62t-86 -9q-35 6 -57.5 40.5t-15.5 70.5q20 105 20 192q0 81 -24 186q-22 96 -98 185q-45 52 -111 52.5t-115 -42.5q-26 -20 -68 -70q-48 -56 -57 -162q-4 -56 -3.5 -149.5t-0.5 -149.5q-2 -61 -40 -92.5t-99 -29.5
q-30 0 -50 29q-12 16 -19 40q-3 11 -12.5 42.5t-12 42t-9.5 42.5t-6 43.5t0 44.5q2 24 0 49.5t-6.5 59t-6.5 49.5q-3 49 -10 84q-20 97 -100 151q-35 23 -97 14q-82 -12 -148 -63q-40 -31 -55 -79q-21 -68 -32 -192q-4 -10 -1.5 -109t2.5 -108q0 -8 1 -32t0.5 -40t-5.5 -32
q-10 -33 -40 -55.5t-65 -22.5q-31 0 -57 21t-37 54q-7 21 -11 64q-8 99 3 345q0 10 0.5 29.5t1 35t1.5 29.5q6 84 4 180q0 13 -1.5 39.5t-2 39.5t0.5 40q4 68 21 107q16 36 54.5 54t78.5 4q29 -10 44 -32.5t27 -57.5q8 -27 1 -54q55 35 102.5 53.5t106 24t111.5 -15.5
q182 -61 252 -202q14 21 52 70q93 119 262 143q62 8 115 4q62 -5 128 -57q149 -118 207 -272q32 -83 44 -201z" />
    <glyph glyph-name="n" unicode="n" horiz-adv-x="1064" 
d="M961 130q4 -69 -32 -110q-41 -47 -102 -27q-35 12 -59 39q-10 11 -11 24q-7 50 -24 248q-12 135 -63 272q-28 75 -88 99.5t-129 -0.5q-48 -16 -92 -50q-46 -37 -51 -110q-7 -82 -4 -173q0 -13 4 -99t3 -131q-3 -56 -4 -67q-3 -25 -31 -52t-56 -32q-23 -4 -51 12t-40 40
q-24 46 -24 92v203q1 64 -2.5 215t-1.5 233q2 85 19 150q19 71 94 71q38 0 63 -14q46 -25 49 -81q1 -11 4 -11.5t11 4.5q194 103 386 -27q20 -13 42 -42q113 -143 151 -280q23 -81 30 -193q2 -34 4.5 -101.5t4.5 -101.5z" />
    <glyph glyph-name="n" unicode="&#xf1;" horiz-adv-x="1064" 
d="M961 130q4 -69 -32 -110q-41 -47 -102 -27q-35 12 -59 39q-10 11 -11 24q-7 50 -24 248q-12 135 -63 272q-28 75 -88 99.5t-129 -0.5q-48 -16 -92 -50q-46 -37 -51 -110q-7 -82 -4 -173q0 -13 4 -99t3 -131q-3 -56 -4 -67q-3 -25 -31 -52t-56 -32q-23 -4 -51 12t-40 40
q-24 46 -24 92v203q1 64 -2.5 215t-1.5 233q2 85 19 150q19 71 94 71q38 0 63 -14q46 -25 49 -81q1 -11 4 -11.5t11 4.5q194 103 386 -27q20 -13 42 -42q113 -143 151 -280q23 -81 30 -193q2 -34 4.5 -101.5t4.5 -101.5z" />
    <glyph glyph-name="o" unicode="o" horiz-adv-x="1087" 
d="M984 495q8 -94 -29 -222q-27 -94 -122 -172q-89 -73 -197 -103q-61 -16 -103 -10q-71 -8 -143 33q-14 8 -42.5 18t-41.5 17q-169 90 -197 290q-31 233 94 410q19 27 47.5 53t50 41t58.5 40q60 39 129 54q110 24 212 -21q36 -16 133 -73q25 -14 39 -37q10 -18 30.5 -53
t31.5 -53q6 -10 11 -20.5t8.5 -19.5t7 -21.5t6 -20t4.5 -22t3.5 -20.5t3 -22.5t2 -21t2.5 -23t2 -21.5zM769 485q5 60 -38 131q-39 65 -83 88q-39 21 -109 28q-34 4 -54 -7q-103 -55 -151 -146q-31 -59 -27 -116q4 -46 25 -106q27 -75 93.5 -117t145.5 -32q128 16 169 126
q30 79 29 151z" />
    <glyph glyph-name="o" unicode="&#xf8;" horiz-adv-x="1087" 
d="M984 495q8 -94 -29 -222q-27 -94 -122 -172q-89 -73 -197 -103q-61 -16 -103 -10q-71 -8 -143 33q-14 8 -42.5 18t-41.5 17q-169 90 -197 290q-31 233 94 410q19 27 47.5 53t50 41t58.5 40q60 39 129 54q110 24 212 -21q36 -16 133 -73q25 -14 39 -37q10 -18 30.5 -53
t31.5 -53q6 -10 11 -20.5t8.5 -19.5t7 -21.5t6 -20t4.5 -22t3.5 -20.5t3 -22.5t2 -21t2.5 -23t2 -21.5zM769 485q5 60 -38 131q-39 65 -83 88q-39 21 -109 28q-34 4 -54 -7q-103 -55 -151 -146q-31 -59 -27 -116q4 -46 25 -106q27 -75 93.5 -117t145.5 -32q128 16 169 126
q30 79 29 151z" />
    <glyph glyph-name="o" unicode="&#xf6;" horiz-adv-x="1087" 
d="M984 495q8 -94 -29 -222q-27 -94 -122 -172q-89 -73 -197 -103q-61 -16 -103 -10q-71 -8 -143 33q-14 8 -42.5 18t-41.5 17q-169 90 -197 290q-31 233 94 410q19 27 47.5 53t50 41t58.5 40q60 39 129 54q110 24 212 -21q36 -16 133 -73q25 -14 39 -37q10 -18 30.5 -53
t31.5 -53q6 -10 11 -20.5t8.5 -19.5t7 -21.5t6 -20t4.5 -22t3.5 -20.5t3 -22.5t2 -21t2.5 -23t2 -21.5zM769 485q5 60 -38 131q-39 65 -83 88q-39 21 -109 28q-34 4 -54 -7q-103 -55 -151 -146q-31 -59 -27 -116q4 -46 25 -106q27 -75 93.5 -117t145.5 -32q128 16 169 126
q30 79 29 151z" />
    <glyph glyph-name="o" unicode="&#xf5;" horiz-adv-x="1087" 
d="M984 495q8 -94 -29 -222q-27 -94 -122 -172q-89 -73 -197 -103q-61 -16 -103 -10q-71 -8 -143 33q-14 8 -42.5 18t-41.5 17q-169 90 -197 290q-31 233 94 410q19 27 47.5 53t50 41t58.5 40q60 39 129 54q110 24 212 -21q36 -16 133 -73q25 -14 39 -37q10 -18 30.5 -53
t31.5 -53q6 -10 11 -20.5t8.5 -19.5t7 -21.5t6 -20t4.5 -22t3.5 -20.5t3 -22.5t2 -21t2.5 -23t2 -21.5zM769 485q5 60 -38 131q-39 65 -83 88q-39 21 -109 28q-34 4 -54 -7q-103 -55 -151 -146q-31 -59 -27 -116q4 -46 25 -106q27 -75 93.5 -117t145.5 -32q128 16 169 126
q30 79 29 151z" />
    <glyph glyph-name="o" unicode="&#xf4;" horiz-adv-x="1087" 
d="M984 495q8 -94 -29 -222q-27 -94 -122 -172q-89 -73 -197 -103q-61 -16 -103 -10q-71 -8 -143 33q-14 8 -42.5 18t-41.5 17q-169 90 -197 290q-31 233 94 410q19 27 47.5 53t50 41t58.5 40q60 39 129 54q110 24 212 -21q36 -16 133 -73q25 -14 39 -37q10 -18 30.5 -53
t31.5 -53q6 -10 11 -20.5t8.5 -19.5t7 -21.5t6 -20t4.5 -22t3.5 -20.5t3 -22.5t2 -21t2.5 -23t2 -21.5zM769 485q5 60 -38 131q-39 65 -83 88q-39 21 -109 28q-34 4 -54 -7q-103 -55 -151 -146q-31 -59 -27 -116q4 -46 25 -106q27 -75 93.5 -117t145.5 -32q128 16 169 126
q30 79 29 151z" />
    <glyph glyph-name="o" unicode="&#xf3;" horiz-adv-x="1087" 
d="M984 495q8 -94 -29 -222q-27 -94 -122 -172q-89 -73 -197 -103q-61 -16 -103 -10q-71 -8 -143 33q-14 8 -42.5 18t-41.5 17q-169 90 -197 290q-31 233 94 410q19 27 47.5 53t50 41t58.5 40q60 39 129 54q110 24 212 -21q36 -16 133 -73q25 -14 39 -37q10 -18 30.5 -53
t31.5 -53q6 -10 11 -20.5t8.5 -19.5t7 -21.5t6 -20t4.5 -22t3.5 -20.5t3 -22.5t2 -21t2.5 -23t2 -21.5zM769 485q5 60 -38 131q-39 65 -83 88q-39 21 -109 28q-34 4 -54 -7q-103 -55 -151 -146q-31 -59 -27 -116q4 -46 25 -106q27 -75 93.5 -117t145.5 -32q128 16 169 126
q30 79 29 151z" />
    <glyph glyph-name="o" unicode="&#xf2;" horiz-adv-x="1087" 
d="M984 495q8 -94 -29 -222q-27 -94 -122 -172q-89 -73 -197 -103q-61 -16 -103 -10q-71 -8 -143 33q-14 8 -42.5 18t-41.5 17q-169 90 -197 290q-31 233 94 410q19 27 47.5 53t50 41t58.5 40q60 39 129 54q110 24 212 -21q36 -16 133 -73q25 -14 39 -37q10 -18 30.5 -53
t31.5 -53q6 -10 11 -20.5t8.5 -19.5t7 -21.5t6 -20t4.5 -22t3.5 -20.5t3 -22.5t2 -21t2.5 -23t2 -21.5zM769 485q5 60 -38 131q-39 65 -83 88q-39 21 -109 28q-34 4 -54 -7q-103 -55 -151 -146q-31 -59 -27 -116q4 -46 25 -106q27 -75 93.5 -117t145.5 -32q128 16 169 126
q30 79 29 151z" />
    <glyph glyph-name="p" unicode="p" horiz-adv-x="1228" 
d="M1122 555q15 -158 -16 -252q-61 -190 -245 -293q-90 -51 -252 -75q-75 -12 -206 5q-8 2 -12 2q-18 1 -21.5 -2.5t-1.5 -22.5q3 -31 5 -92q1 -37 8.5 -108.5t8.5 -105.5q2 -86 -27 -133q-24 -39 -60 -52t-77 4q-48 21 -66 90q-15 58 -15 141q1 75 -9 380q-6 217 -7 329
q-1 70 -21 279q-14 142 13 215q21 56 85 83q28 12 61.5 -5t47.5 -50q9 -21 13 -58q2 -19 4 -36q67 64 130 96q92 47 234 37q41 -3 116 -17q80 -14 140 -66q71 -65 114 -124q46 -63 56 -169zM892 357q42 151 -58 274q-87 107 -221 61q-104 -35 -199 -127q-53 -52 -68 -124
q-7 -34 -7 -101l1 -20q0 -19 -1 -19q-5 -54 42 -96q53 -48 145 -53q131 -8 268 79q77 49 98 126z" />
    <glyph glyph-name="q" unicode="q" horiz-adv-x="1396" 
d="M1262 -383q35 -62 33 -96q-3 -44 -34 -66q-47 -35 -102 -36q-101 -3 -177 -30q-47 -15 -94 -8q-43 6 -65.5 37t-17.5 77q2 32 4 38q11 50 54 67q22 9 22 36q1 54 -1 245q0 10 -4 127.5t0 128.5q-3 -4 -11.5 -15t-13 -16t-12 -13t-15 -14t-15.5 -10q-52 -28 -86 -44.5
t-83 -34t-93 -23.5q-173 -24 -311 91q-115 97 -132 248q-20 183 34 319q61 151 203 247q62 42 183 51q92 8 239 -30q59 -16 116 -58q11 51 24 75q28 53 74 62q34 7 70 -11t51 -50q14 -32 16 -69q2 -77 0 -115q-2 -49 -7.5 -202t-9.5 -236q-7 -146 0 -328q3 -107 -1 -199
q-3 -91 -3 -92q-1 -8 2 -10.5t11 -1.5q66 6 103 -4q33 -9 49 -37zM850 502q14 43 -17 80l-8 8q-43 48 -119 94q-86 52 -140 52q-77 6 -153 -70q-144 -144 -88 -351q30 -106 152 -111q92 -4 195 58q121 72 178 240z" />
    <glyph glyph-name="r" unicode="r" horiz-adv-x="1093" 
d="M991 687q4 -61 -7 -95q-11 -33 -40 -57q-26 -22 -53 -15.5t-40 38.5q-30 80 -97 131q-59 45 -152 32q-122 -17 -210 -157q-44 -70 -33 -158q1 -9 1 -109q0 -14 1 -41.5t1 -49t-3 -41.5q-7 -49 -17 -83q-15 -53 -69 -91q-22 -16 -55 -11t-56 28q-48 46 -45 110
q7 185 -1 326q-2 43 -4 122.5t-3 110.5q-1 18 -2.5 50t-2.5 58.5t-1 50.5q-2 59 12 99t43.5 56.5t60 12.5t58.5 -21q58 -35 56 -120q0 -13 -5 -70q40 43 80 72q119 88 273 93q116 4 215 -92q8 -8 24 -22q64 -55 71 -157z" />
    <glyph glyph-name="s" unicode="s" horiz-adv-x="927" 
d="M825 206q3 -40 -10 -75q-37 -98 -119 -137q-137 -66 -280 -73q-105 4 -150 17q-20 6 -37 15q-78 40 -71 126q4 54 39 82t89 20q129 -19 220 -17q56 1 96 41q14 14 4 29q-18 30 -60 45q-22 8 -63.5 18.5t-51.5 13.5q-155 46 -271 165q-54 55 -57 142q-1 48 8 100
q29 149 161 215q161 81 334 84q76 2 138 -30q72 -37 76.5 -91.5t-54.5 -106.5q-8 -7 -30 -19q-24 -13 -48 -3q-161 59 -324 -36q-36 -20 -54 -56q-25 -50 20 -87q52 -42 168 -73q19 -6 55.5 -13.5t50.5 -11.5q88 -22 161 -124q53 -74 60 -160z" />
    <glyph glyph-name="t" unicode="t" horiz-adv-x="1171" 
d="M252 219q-27 77 -37 141.5t-7 152.5q3 14 1 70.5t-2 75.5q0 16 -17 11q-36 -11 -47 -14q-54 -15 -101 11.5t-57 90.5q-5 31 13 66t47 47q66 27 159 39q12 2 18 7t8 17q2 11 2.5 23t-0.5 27.5t-1 22.5q0 42 3 87t8.5 106t7.5 86q3 38 18 84q8 26 36 46t56 20
q29 0 56.5 -19t36.5 -47q20 -60 20 -138q0 -41 -3 -87t-8.5 -101t-7.5 -87q-1 -19 2 -22t23 -1q125 12 192 -6q34 -9 60 -42.5t26 -68.5q0 -32 -24 -60.5t-60 -38.5q-17 -4 -102 -12q-41 -3 -123 1q-17 1 -20 -16q-15 -101 -2 -222q12 -113 28 -162q16 -46 27 -68
q27 -50 59.5 -66t92.5 -11q70 7 123 36q25 13 50 36.5t36.5 37.5t39.5 48q4 5 13.5 17.5t14.5 18.5q34 38 79.5 29.5t65.5 -55.5q33 -81 -18 -156q-79 -115 -221 -177q-117 -51 -194 -50q-133 3 -232 78q-94 71 -138 194z" />
    <glyph glyph-name="u" unicode="u" horiz-adv-x="1126" 
d="M988 932q40 -64 35 -125q-1 -13 -1 -82q0 -12 0.5 -47t0.5 -53t-2 -45.5t-6 -50.5q-29 -174 -89 -315q-47 -110 -152 -189q-86 -64 -202 -75q-90 -8 -198 57q-141 86 -194 226q-36 95 -49 224q-11 108 -20 258q-1 15 -4.5 55t-3.5 55t2 55q9 87 113 108q40 8 83 -49
q21 -29 21 -72q0 -29 2 -60t6 -72t6 -60q2 -26 2 -78q3 -173 65 -312q26 -59 81 -95q35 -22 85 -18t81 32q92 83 120 210q7 34 19 152q9 100 15 203q1 10 1 33t1.5 40t5.5 33q13 54 49 80q30 23 69 15.5t58 -38.5z" />
    <glyph glyph-name="u" unicode="&#xfc;" horiz-adv-x="1126" 
d="M988 932q40 -64 35 -125q-1 -13 -1 -82q0 -12 0.5 -47t0.5 -53t-2 -45.5t-6 -50.5q-29 -174 -89 -315q-47 -110 -152 -189q-86 -64 -202 -75q-90 -8 -198 57q-141 86 -194 226q-36 95 -49 224q-11 108 -20 258q-1 15 -4.5 55t-3.5 55t2 55q9 87 113 108q40 8 83 -49
q21 -29 21 -72q0 -29 2 -60t6 -72t6 -60q2 -26 2 -78q3 -173 65 -312q26 -59 81 -95q35 -22 85 -18t81 32q92 83 120 210q7 34 19 152q9 100 15 203q1 10 1 33t1.5 40t5.5 33q13 54 49 80q30 23 69 15.5t58 -38.5z" />
    <glyph glyph-name="u" unicode="&#xfb;" horiz-adv-x="1126" 
d="M988 932q40 -64 35 -125q-1 -13 -1 -82q0 -12 0.5 -47t0.5 -53t-2 -45.5t-6 -50.5q-29 -174 -89 -315q-47 -110 -152 -189q-86 -64 -202 -75q-90 -8 -198 57q-141 86 -194 226q-36 95 -49 224q-11 108 -20 258q-1 15 -4.5 55t-3.5 55t2 55q9 87 113 108q40 8 83 -49
q21 -29 21 -72q0 -29 2 -60t6 -72t6 -60q2 -26 2 -78q3 -173 65 -312q26 -59 81 -95q35 -22 85 -18t81 32q92 83 120 210q7 34 19 152q9 100 15 203q1 10 1 33t1.5 40t5.5 33q13 54 49 80q30 23 69 15.5t58 -38.5z" />
    <glyph glyph-name="u" unicode="&#xfa;" horiz-adv-x="1126" 
d="M988 932q40 -64 35 -125q-1 -13 -1 -82q0 -12 0.5 -47t0.5 -53t-2 -45.5t-6 -50.5q-29 -174 -89 -315q-47 -110 -152 -189q-86 -64 -202 -75q-90 -8 -198 57q-141 86 -194 226q-36 95 -49 224q-11 108 -20 258q-1 15 -4.5 55t-3.5 55t2 55q9 87 113 108q40 8 83 -49
q21 -29 21 -72q0 -29 2 -60t6 -72t6 -60q2 -26 2 -78q3 -173 65 -312q26 -59 81 -95q35 -22 85 -18t81 32q92 83 120 210q7 34 19 152q9 100 15 203q1 10 1 33t1.5 40t5.5 33q13 54 49 80q30 23 69 15.5t58 -38.5z" />
    <glyph glyph-name="u" unicode="&#xf9;" horiz-adv-x="1126" 
d="M988 932q40 -64 35 -125q-1 -13 -1 -82q0 -12 0.5 -47t0.5 -53t-2 -45.5t-6 -50.5q-29 -174 -89 -315q-47 -110 -152 -189q-86 -64 -202 -75q-90 -8 -198 57q-141 86 -194 226q-36 95 -49 224q-11 108 -20 258q-1 15 -4.5 55t-3.5 55t2 55q9 87 113 108q40 8 83 -49
q21 -29 21 -72q0 -29 2 -60t6 -72t6 -60q2 -26 2 -78q3 -173 65 -312q26 -59 81 -95q35 -22 85 -18t81 32q92 83 120 210q7 34 19 152q9 100 15 203q1 10 1 33t1.5 40t5.5 33q13 54 49 80q30 23 69 15.5t58 -38.5z" />
    <glyph glyph-name="v" unicode="v" horiz-adv-x="997" 
d="M785 941q42 6 80.5 -36.5t26.5 -90.5q-5 -21 -15 -43.5t-24 -50.5t-20 -42q-20 -45 -60.5 -128t-57.5 -121q-67 -149 -135 -287q-3 -6 -11.5 -23.5t-12.5 -25l-12 -22.5t-14 -24t-15 -20.5t-18 -21.5q-43 -44 -103.5 -39t-94.5 57q-55 83 -91 187q-35 99 -105.5 296.5
t-105.5 296.5q-23 65 -6 113q15 41 69 54q67 15 108 -43q28 -40 57 -121q41 -112 126 -391q8 -28 30 -80t25 -60q27 37 52 102q18 46 41 96t52.5 110.5t44.5 93.5q8 18 25 56t25 57q26 55 67 106q35 40 72 45z" />
    <glyph glyph-name="w" unicode="w" horiz-adv-x="1589" 
d="M929 18q-104 84 -140 168q-45 -80 -83 -125q-76 -91 -154 -114q-93 -28 -210 6q-34 10 -78 57q-45 49 -71.5 109.5t-50.5 147.5q-26 94 -38 272q-3 50 1.5 143.5t3.5 132.5q0 15 9 55q12 50 63 62q63 15 120 -19q25 -15 25 -46q2 -77 -6 -152q-6 -65 1 -126
q1 -11 1.5 -32t0.5 -28q5 -137 35 -249q15 -52 45 -87q34 -38 64.5 -39.5t66.5 32.5q36 32 60 91q31 74 65 210q12 50 38 98q31 54 103 51q59 -3 85 -62q31 -71 38 -134q1 -12 11 -38q2 -5 10 -27t11 -29.5t10 -26t12 -28.5t13 -24.5t16 -27t17 -23.5q30 -37 77 -39.5
t81 32.5q58 58 84 181q5 23 6.5 51.5t1 52t0.5 52.5q0 13 2 46t2 46t-3 46q-3 19 -7 57q-11 123 84 162q28 12 59 -6q14 -8 24 -18t16.5 -25t9 -24t6.5 -29t6 -27q18 -75 10 -235q0 -3 -1.5 -34t-2 -37t-2.5 -33t-3.5 -37t-5 -33t-6.5 -37t-8.5 -32.5t-11.5 -34.5
q-17 -47 -26.5 -69.5t-30 -57t-45.5 -57.5q-48 -45 -87 -72.5t-87 -39.5q-129 -32 -236 53z" />
    <glyph glyph-name="x" unicode="x" horiz-adv-x="1042" 
d="M930 120q23 -49 -3 -96t-80 -55q-62 -9 -103 38q-94 107 -147 187q-14 21 -43 66t-45 69q-69 -120 -120 -211q-52 -94 -107 -149q-15 -15 -36 -28q-27 -16 -57 -4q-51 21 -65 40q-36 45 -13 105q37 100 100 177q41 51 101 153q16 27 52 79q9 13 -1 27q-26 38 -83.5 103
t-64.5 73q-65 77 -97 140q-22 45 -3 95t62 67q42 16 83 -13q13 -10 27.5 -24t23 -23.5t24 -28.5t21.5 -26q7 -8 133 -157q11 -13 15 -12t12 16q81 146 178 237q48 45 101 41q36 -2 58.5 -28.5t19.5 -62.5q-5 -48 -26 -86q-72 -128 -117 -186q-9 -12 -39 -56t-49 -66
q-7 -8 -1 -16q114 -158 208 -262q49 -55 81 -123z" />
    <glyph glyph-name="y" unicode="y" horiz-adv-x="1179" 
d="M1066 779q16 -205 11 -430q0 -12 -1 -62.5t-1.5 -72t-4 -59.5t-8.5 -68q-24 -141 -120 -333q-48 -97 -103 -150q-119 -114 -238 -158q-40 -15 -117 -9q-116 8 -219 54q-68 32 -99 78q-29 46 0.5 90t73.5 50q46 6 103 -20q105 -49 198 -23q56 16 103 58q117 104 173 296
q2 8 5.5 22.5t5.5 21.5v7q-123 -80 -221 -81q-114 -1 -217 42q-36 15 -67 49q-84 96 -114 143q-42 64 -64 180q-18 96 -38 286q-13 122 13 194q22 63 86 84q32 11 66 -1t53 -40q13 -18 10 -38q-9 -70 3 -193q2 -22 4.5 -64.5t4.5 -63.5q14 -145 58 -250q39 -92 125 -111
q111 -25 182 58q91 105 106 248q22 209 18 371q-1 35 46 64q42 26 89 11t67 -61q23 -52 28 -119z" />
    <glyph glyph-name="y" unicode="&#xff;" horiz-adv-x="1179" 
d="M1066 779q16 -205 11 -430q0 -12 -1 -62.5t-1.5 -72t-4 -59.5t-8.5 -68q-24 -141 -120 -333q-48 -97 -103 -150q-119 -114 -238 -158q-40 -15 -117 -9q-116 8 -219 54q-68 32 -99 78q-29 46 0.5 90t73.5 50q46 6 103 -20q105 -49 198 -23q56 16 103 58q117 104 173 296
q2 8 5.5 22.5t5.5 21.5v7q-123 -80 -221 -81q-114 -1 -217 42q-36 15 -67 49q-84 96 -114 143q-42 64 -64 180q-18 96 -38 286q-13 122 13 194q22 63 86 84q32 11 66 -1t53 -40q13 -18 10 -38q-9 -70 3 -193q2 -22 4.5 -64.5t4.5 -63.5q14 -145 58 -250q39 -92 125 -111
q111 -25 182 58q91 105 106 248q22 209 18 371q-1 35 46 64q42 26 89 11t67 -61q23 -52 28 -119z" />
    <glyph glyph-name="y" unicode="&#xfd;" horiz-adv-x="1179" 
d="M1066 779q16 -205 11 -430q0 -12 -1 -62.5t-1.5 -72t-4 -59.5t-8.5 -68q-24 -141 -120 -333q-48 -97 -103 -150q-119 -114 -238 -158q-40 -15 -117 -9q-116 8 -219 54q-68 32 -99 78q-29 46 0.5 90t73.5 50q46 6 103 -20q105 -49 198 -23q56 16 103 58q117 104 173 296
q2 8 5.5 22.5t5.5 21.5v7q-123 -80 -221 -81q-114 -1 -217 42q-36 15 -67 49q-84 96 -114 143q-42 64 -64 180q-18 96 -38 286q-13 122 13 194q22 63 86 84q32 11 66 -1t53 -40q13 -18 10 -38q-9 -70 3 -193q2 -22 4.5 -64.5t4.5 -63.5q14 -145 58 -250q39 -92 125 -111
q111 -25 182 58q91 105 106 248q22 209 18 371q-1 35 46 64q42 26 89 11t67 -61q23 -52 28 -119z" />
    <glyph glyph-name="z" unicode="z" horiz-adv-x="989" 
d="M775 192q48 5 81.5 -39t30.5 -85q-1 -15 -10 -28t-17 -19t-24 -16q-57 -37 -157 -53q-90 -14 -212 -11q-143 -4 -243 21q-89 22 -111 128q-7 30 11 87q3 9 7 19t7.5 17.5t9.5 17.5t9.5 16t11.5 17t11 15t12.5 16t12 14.5t13 15.5t12.5 15q47 56 139.5 155t129.5 142
q72 85 93 123q14 27 20 45q3 8 0.5 12t-12.5 4q-173 0 -288 -18q-69 -11 -148 19q-33 13 -49.5 43t-10.5 64q14 82 94 95q75 13 272 19q97 4 210 -12q71 -11 109 -68q60 -90 42 -182q-5 -25 -30 -73q-128 -254 -328 -444q-64 -60 -92 -93q-1 -1 -5 -4.5t-5 -6.5t0 -6
q2 -4 19 -4q40 0 175 21q31 5 66 8.5t78 7t66 5.5z" />
    <glyph glyph-name="braceleft" unicode="{" horiz-adv-x="929" 
d="M817 98q20 -31 -1 -67q-46 -76 -116 -96q-11 -3 -33.5 -11.5t-40.5 -12.5t-36 -2q-31 -3 -65 10q-137 51 -195 114q-28 32 -38 55q-39 87 -44 205q-4 73 0 122q5 61 -51 106q-53 42 -80 82q-27 39 -3 77q7 12 41 48q62 67 99 118q14 21 21 53q14 63 -4 161
q-15 82 -18 145q-10 243 189 369q77 48 159 40q39 -4 72.5 -37t29.5 -66q-8 -83 -82 -114q-50 -20 -72 -35q-80 -55 -95 -173q-2 -13 -1.5 -27t1 -23.5t4 -27.5t5 -23.5t7 -26.5t6.5 -24q43 -160 -23 -283q-32 -61 -63 -81q-9 -5 0 -12q65 -51 65 -148q0 -154 7 -200
q13 -83 30 -115q9 -18 22 -32q26 -29 50 -34t59 12q53 27 119 13q45 -11 75 -59z" />
    <glyph glyph-name="verticalbar" unicode="|" horiz-adv-x="473" 
d="M356 287q16 -152 14 -229q-1 -31 -21.5 -59t-51.5 -40q-67 -26 -113 25q-17 19 -16 38q2 29 -12 112q-24 141 -23 229q0 29 -6 81t-7 75q0 13 -2.5 47.5t-2.5 52.5q0 11 -4.5 147t0.5 147q3 65 -2 166q-7 128 -7 494q0 50 30.5 80.5t80.5 30.5q89 0 100 -91q3 -22 3 -65
q2 -33 0 -103.5t1 -103.5q1 -14 1 -69.5t5 -85.5q2 -11 -0.5 -32.5t-2.5 -28.5q-1 -25 2.5 -69.5t3.5 -60.5q0 -18 -1 -54t-1 -54q5 -149 12 -295q9 -166 20 -285z" />
    <glyph glyph-name="braceright" unicode="}" horiz-adv-x="929" 
d="M799 693q27 -31 27.5 -55t-25.5 -57q-31 -39 -62 -60q-68 -47 -58 -143q4 -40 -5 -153q-5 -59 -37 -139q-27 -68 -109 -117q-80 -48 -152 -65q-44 -10 -78 1q-8 2 -34 10t-37.5 12t-30.5 13.5t-33 20.5q-31 25 -53 65q-22 39 11 81q40 50 120 47q31 -1 62 -17
q36 -18 59.5 -13t50.5 35q38 43 50 135q14 104 9 156q-3 35 2 88q6 73 66 119q-88 91 -103 198q-2 33 -3 51t4 49.5t8.5 49.5t11 49t10.5 49q18 92 -19.5 170.5t-129.5 110.5q-80 28 -94 113q-5 29 13 54q61 82 165 50q209 -63 262 -285q22 -92 -3 -227q-15 -77 -17 -127
q-4 -102 71 -179q29 -30 81 -90z" />
    <glyph glyph-name="asciitilde" unicode="~" horiz-adv-x="1030" 
d="M928 713q4 -57 -32 -112t-94 -81q-50 -23 -121 -23q-51 -1 -165 33q-36 11 -108 35q-88 29 -142 -37q-23 -28 -53 -33t-55 8.5t-40 36.5q-31 47 1 111q48 97 165 126q30 8 95 -7q35 -8 127 -43q80 -30 156 -13q36 8 68 37q33 31 40 36q56 43 104 19q51 -25 54 -93z" />
    <glyph glyph-name="nonbreakingspace" unicode="&#xa0;" horiz-adv-x="557" 
 />
    <glyph glyph-name="softhyphen" unicode="&#xad;" 
 />
    </font>
</defs>
</svg>
