<svg xmlns="http://www.w3.org/2000/svg" fill="none" viewBox="0 0 11600 11900"><path d="M9386 5427a800 800 0 01 950-344 12800 12800 0 01 509 184 2500 2500 0 01 200 87c40 20 175 85 292 208a812 812 0 01 190 820 817 817 0 01-320 420c-88 60-170 91-212 105-138 46-300 60-394 67-251 20-710 38-1516 64-1646 53-4662 120-6253 183-865 36-1342 58-1612 72-240 12-353 20-420 20a800 800 0 11 0-1600l60-4 280-14c276-14 758-37 1627-72 1594-65 4659-133 6266-184l353-12" fill="#FCB414"/><path d="M7518 0a800 800 0 01 659 1214c-10 28-25 67-43 122-60 175-143 440-257 802-224 714-552 1768-995 3112-907 3270-1466 5356-1590 5791l-10 87-2 23a955 955 0 01-10 74 800 800 0 01-50 174c-6 14-64 165-213 295a800 800 0 01-1060-7c-165-149-218-325-223-338a815 815 0 01-36-160 800 800 0 01-7-100v-38c0-55 6-110 17-162 6-54 16-122 30-194q7-34 16-65c91-312 647-2394 1601-5832l11-37c442-1340 770-2390 995-3110 112-355 201-639 267-834a4500 4500 0 01 94-257c13-30 37-87 70-145 15-25 52-87 112-153a820 820 0 01 172-143A806 806 0 01 7518 0" fill="#FCB414"/><path d="M2247 3362a997 997 0 01 240 19l100 30a800 800 0 01 580 576c130 94 296 206 503 340 580 376 1400 868 2398 1470l40 26C7400 6705 8065 7256 8471 7599c84 58 170 110 234 145l6 3a800 800 0 01 677 667 800 800 0 01-664 916c-230 36-424-27-494-50-99-34-192-78-269-118a3745 3745 0 01-453-287 800 800 0 01-44-34c-370-314-988-830-2243-1695-978-590-1816-1093-2420-1483a10828 10828 0 01-760-527 2770 2770 0 01-280-248 1106 1106 0 01-280-470 840 840 0 01 151-737 837 837 0 01 622-320m666 418 2 2a113 113 0 00-2-2" fill="#FCB414"/><path d="M5277 1102a1495 1495 0 01 456 390c12 25 30 63 34 77 10 23 15 41 17 46l7 25 3 9 7 25 16 64 55 218c14 59 22 118 23 176a66200 66200 0 01 200 1110c215 1232 582 3451 772 4783 190 1339 198 1756 185 2104-9 240-19 650-240 994a800 800 0 01-1376-813c2-17 6-42 9-80 3-43 6-94 8-158 8-210 15-520-170-1821a200410 200410 0 00-763-4730c-214-1230-270-1450-273-1460l-3-12-2-8-2-10-6-30c0-2-5-30-8-62a1500 1500 0 01 0-140c27-153 494-675 1050-693m527 583L5800 1680v-2" fill="#FCB414"/></svg>
