<svg xmlns="http://www.w3.org/2000/svg" width="116" height="119" fill="none"><path fill="#FCB414" d="M93.861 54.272a8 8 0 0 1 9.493-3.443c2.036.71 3.784 1.324 5.092 1.837a25 25 0 0 1 2 .87c.399.197 1.752.858 2.92 2.08.277.29.977 1.05 1.527 2.218.616 1.312 1.185 3.49.372 5.978a8.17 8.17 0 0 1-3.187 4.216c-.885.6-1.704.903-2.129 1.044-1.383.46-2.997.59-3.943.665-2.506.199-7.087.387-15.16.645-16.453.526-46.613 1.185-62.523 1.832-8.656.352-13.426.576-16.122.713-2.4.121-3.528.198-4.201.198a8 8 0 1 1 0-16c-.057 0-.03.004.6-.03.545-.03 1.413-.078 2.793-.148 2.762-.14 7.587-.367 16.28-.72 15.939-.649 46.582-1.323 62.662-1.837q1.903-.062 3.526-.118"/><path fill="#FCB414" d="M75.182.004a8 8 0 0 1 6.584 12.138c-.101.274-.243.669-.427 1.214-.591 1.75-1.43 4.406-2.565 8.023-2.24 7.14-5.523 17.68-9.956 31.122-9.07 32.698-14.661 53.562-15.891 57.913-.05.296-.086.609-.11.866-.008.089-.01.128-.02.227a9.555 9.555 0 0 1-.093.74 8 8 0 0 1-.503 1.74c-.062.148-.64 1.658-2.132 2.957a8 8 0 0 1-10.589-.073c-1.663-1.489-2.194-3.255-2.238-3.384-.286-.841-.36-1.554-.366-1.596a8 8 0 0 1-.062-.954c-.002-.111-.002-.258-.002-.354 0-.557.058-1.101.166-1.626.066-.539.161-1.218.307-1.939q.066-.324.158-.642c.909-3.129 6.468-23.943 16.007-58.33q.052-.184.111-.366c4.422-13.403 7.691-23.9 9.947-31.09 1.118-3.565 2.014-6.406 2.674-8.357a45 45 0 0 1 .94-2.58c.132-.32.372-.883.704-1.462.145-.252.511-.873 1.109-1.53a8.2 8.2 0 0 1 1.723-1.44A8.06 8.06 0 0 1 75.182.005"/><path fill="#FCB414" d="M22.468 33.618c1.12-.055 2.05.12 2.406.19.432.084.847.19.997.227a8 8 0 0 1 5.8 5.762c1.29.929 2.961 2.058 5.033 3.397 5.805 3.752 13.998 8.678 23.975 14.692q.204.125.402.26c12.933 8.892 19.57 14.395 23.629 17.824.836.602 1.692 1.142 2.34 1.483l.063.03a8 8 0 0 1 6.769 6.668 8 8 0 0 1-6.647 9.155c-2.293.364-4.237-.27-4.931-.507-.99-.336-1.921-.776-2.69-1.18-1.559-.818-3.172-1.867-4.537-2.866a8 8 0 0 1-.44-.347c-3.703-3.134-9.875-8.303-22.43-16.944-9.773-5.892-18.162-10.935-24.188-14.83-3.02-1.953-5.637-3.737-7.603-5.277-.972-.761-1.962-1.6-2.807-2.478-.59-.614-2.153-2.27-2.807-4.688-.299-1.103-.92-4.346 1.435-7.375 2.244-2.883 5.354-3.154 6.23-3.196m6.674 4.169.02.02c-.111-.134-.14-.145-.02-.02"/><path fill="#FCB414" d="M52.768 11.023c2.163 1.116 4.245 3.352 4.558 3.9.12.242.291.627.347.766.09.23.15.415.164.458.042.128.07.23.077.25q.016.062.025.089c.03.105.064.246.067.258l.161.635.55 2.177c.148.59.223 1.18.238 1.763a662 662 0 0 1 2.005 11.095c2.143 12.331 5.81 34.518 7.706 47.837 1.907 13.386 1.98 17.563 1.854 21.042-.086 2.39-.187 6.511-2.398 9.941a8 8 0 0 1-13.765-8.13c.027-.171.06-.428.09-.81.034-.423.06-.935.084-1.577.075-2.094.148-5.194-1.705-18.21-1.863-13.081-5.497-35.083-7.63-47.353-2.132-12.274-2.701-14.48-2.727-14.583l-.028-.118-.019-.079c-.004-.018-.01-.053-.02-.096-.005-.02-.031-.141-.058-.294-.006-.038-.053-.298-.084-.63a15 15 0 0 1-.008-1.404c.278-1.528 4.946-6.747 10.516-6.927m5.26 5.824-.015-.068-.005-.019z"/></svg>