<svg xmlns="http://www.w3.org/2000/svg" xmlns:xlink="http://www.w3.org/1999/xlink" fill="none" viewBox="0 0 67900 26800"><use xlink:href="#a" transform="rotate(-61.97 5917 4192) scale(.08767)"/><use xlink:href="#a" transform="rotate(34.88-7765 5414) scale(.08767)"/><use xlink:href="#a" transform="rotate(142.82 965 5210) scale(.08767)"/><use xlink:href="#a" transform="rotate(-67.38 8155 4376) scale(.08767)"/><use xlink:href="#a" transform="rotate(-3.1 162104-27225) scale(.08767)"/><use xlink:href="#a" transform="rotate(170.36 2254 6507) scale(.08767)"/><use xlink:href="#a" transform="translate( 2422 10580) scale(.08767)"/><use xlink:href="#a" transform="rotate(158.41 1868 7622) scale(.08767)"/><use xlink:href="#a" transform="rotate(93.8-2715 9253) scale(.08767)"/><use xlink:href="#a" transform="rotate(131.45 244 9058) scale(.08767)"/><use xlink:href="#a" transform="rotate(-28.35 31836 1575) scale(.08767)"/><use xlink:href="#a" transform="rotate(-73.61 13797 6617) scale(.08767)"/><use xlink:href="#a" transform="rotate(26.2-31180 18845) scale(.08767)"/><use xlink:href="#a" transform="rotate(-84.18 13393 7675) scale(.08767)"/><use xlink:href="#a" transform="rotate(142.54 958 11492) scale(.08767)"/><use xlink:href="#a" transform="rotate(-91.61 13462 8618) scale(.08767)"/><use xlink:href="#a" transform="rotate(-14.87 81023-9477) scale(.08767)"/><use xlink:href="#a" transform="rotate(-79.29 17158 8554) scale(.08767)"/><use xlink:href="#a" transform="rotate(174.68 4182 12685) scale(.08767)"/><use xlink:href="#a" transform="rotate(6.38-199465 71730) scale(.08767)"/><use xlink:href="#a" transform="rotate(29.98-39125 26520) scale(.08767)"/><use xlink:href="#a" transform="rotate(18.87-65324 36704) scale(.08767)"/><use xlink:href="#a" transform="rotate(-60.44 25305 5803) scale(.08767)"/><use xlink:href="#a" transform="rotate(-143.83 9570 11095) scale(.08767)"/><use xlink:href="#a" transform="rotate(121.66 339 14626) scale(.08767)"/><use xlink:href="#a" transform="rotate(-36.32 36810-2837) scale(.08767)"/><use xlink:href="#a" transform="rotate(63.71-8848 18956) scale(.08767)"/><use xlink:href="#a" transform="rotate(-60.05 22231 2000) scale(.08767)"/><use xlink:href="#a" transform="rotate(43.51-14734 22948) scale(.08767)"/><use xlink:href="#a" transform="rotate(41.37-14564 23478) scale(.08767)"/><use xlink:href="#a" transform="rotate(-74.29 16933 2165) scale(.08767)"/><use xlink:href="#a" transform="rotate(35.64-15065 25566) scale(.08767)"/><use xlink:href="#a" transform="rotate(-134.27 9918 5884) scale(.08767)"/><use xlink:href="#a" transform="rotate(-165.54 8017 7017) scale(.08767)"/><use xlink:href="#a" transform="rotate(-68.06 15724-1277) scale(.08767)"/><use xlink:href="#a" transform="rotate(-147.13 9015 5036) scale(.08767)"/><use xlink:href="#a" transform="rotate(53.64-1653 18249) scale(.08767)"/><use xlink:href="#a" transform="rotate(-145.79 9130 3922) scale(.08767)"/><use xlink:href="#a" transform="rotate(-115.48 10474 1323) scale(.08767)"/><use xlink:href="#a" transform="rotate(122.61 6530 8824) scale(.08767)"/><use xlink:href="#a" transform="rotate(-117.09 11056 698) scale(.08767)"/><use xlink:href="#a" transform="rotate(21.45-12138 44978) scale(.08767)"/><use xlink:href="#a" transform="rotate(51.94-107 21585) scale(.08767)"/><use xlink:href="#a" transform="rotate(63.41 1106 18890) scale(.08767)"/><use xlink:href="#a" transform="rotate(-149.2 10753 4987) scale(.08767)"/><use xlink:href="#a" transform="rotate(83.24 2573 16256) scale(.08767)"/><use xlink:href="#a" transform="rotate(-25.23 38296-26971) scale(.08767)"/><use xlink:href="#a" transform="rotate(84.39 1923 17333) scale(.08767)"/><use xlink:href="#a" transform="rotate(88.13 2046 17392) scale(.08767)"/><use xlink:href="#a" transform="rotate(-83.08 18750 190) scale(.08767)"/><use xlink:href="#a" transform="rotate(-30.71 40458-20555) scale(.08767)"/><use xlink:href="#a" transform="rotate(-119.15 15320 5435) scale(.08767)"/><use xlink:href="#a" transform="rotate(-150.36 12746 8617) scale(.08767)"/><use xlink:href="#a" transform="rotate(-154.12 12695 9348) scale(.08767)"/><use xlink:href="#a" transform="rotate(64.89-5483 26046) scale(.08767)"/><use xlink:href="#a" transform="rotate(49.32-12468 32396) scale(.08767)"/><use xlink:href="#a" transform="rotate(-111.54 18630 6310) scale(.08767)"/><use xlink:href="#a" transform="rotate(106.58 2757 20336) scale(.08767)"/><use xlink:href="#a" transform="rotate(146.68 8177 15570) scale(.08767)"/><use xlink:href="#a" transform="rotate(104.14 3375 19912) scale(.08767)"/><use xlink:href="#a" transform="rotate(-61.33 28640-5377) scale(.08767)"/><use xlink:href="#a" transform="rotate(110.67 5206 18238) scale(.08767)"/><use xlink:href="#a" transform="rotate(-115.6 17687 4170) scale(.08767)"/><use xlink:href="#a" transform="rotate(97.46 4514 19400) scale(.08767)"/><use xlink:href="#a" transform="rotate(177.26 11970 9978) scale(.08767)"/><use xlink:href="#a" transform="rotate(-28.24 42596-33103) scale(.08767)"/><use xlink:href="#a" transform="rotate(156.8 10862 10946) scale(.08767)"/><use xlink:href="#a" transform="rotate(65.75 2107 24966) scale(.08767)"/><use xlink:href="#a" transform="rotate(45.2-2332 33873) scale(.08767)"/><use xlink:href="#a" transform="rotate(-21.3 42687-50890) scale(.08767)"/><use xlink:href="#a" transform="rotate(52.36 2070 29154) scale(.08767)"/><use xlink:href="#a" transform="rotate(-177.34 12776 6027) scale(.08767)"/><use xlink:href="#a" transform="rotate(-122.31 15042-338) scale(.08767)"/><use xlink:href="#a" transform="rotate(-177.88 12870 5093) scale(.08767)"/><use xlink:href="#a" transform="rotate(-73.02 17210-10416) scale(.08767)"/><use xlink:href="#a" transform="rotate(-.83 364770-1469567) scale(.08767)"/><use xlink:href="#a" transform="rotate(-33.42 20502-34310) scale(.08767)"/><use xlink:href="#a" transform="rotate(-137.44 13956-1140) scale(.08767)"/><use xlink:href="#a" transform="rotate(99.61 11578 13844) scale(.08767)"/><use xlink:href="#a" transform="rotate(-56.17 18660-18135) scale(.08767)"/><use xlink:href="#a" transform="rotate(114.2 11670 12632) scale(.08767)"/><use xlink:href="#a" transform="rotate(-61.75 20010-15343) scale(.08767)"/><use xlink:href="#a" transform="rotate(105.52 11000 15211) scale(.08767)"/><use xlink:href="#a" transform="rotate(-131.63 16380 417) scale(.08767)"/><use xlink:href="#a" transform="rotate(-33.96 30866-35943) scale(.08767)"/><use xlink:href="#a" transform="rotate(140.12 12873 11802) scale(.08767)"/><use xlink:href="#a" transform="rotate(166.85 14414 8982) scale(.08767)"/><use xlink:href="#a" transform="rotate(-166.66 16070 6247) scale(.08767)"/><use xlink:href="#a" transform="rotate(-6.21 138713-249260) scale(.08767)"/><use xlink:href="#a" transform="rotate(160.7 14600 11143) scale(.08767)"/><use xlink:href="#a" transform="rotate(-104.63 21875-1970) scale(.08767)"/><use xlink:href="#a" transform="rotate(-70.33 27615-11114) scale(.08767)"/><use xlink:href="#a" transform="rotate(-24.2 56037-59013) scale(.08767)"/><use xlink:href="#a" transform="rotate(41.29-5340 50010) scale(.08767)"/><use xlink:href="#a" transform="rotate(83.77 8099 26410) scale(.08767)"/><use xlink:href="#a" transform="rotate(152.95 15148 12622) scale(.08767)"/><use xlink:href="#a" transform="rotate(23.83-15470 81367) scale(.08767)"/><use xlink:href="#a" transform="rotate(-175.95 17279 7408) scale(.08767)"/><use xlink:href="#a" transform="rotate(106.18 12714 19120) scale(.08767)"/><use xlink:href="#a" transform="rotate(-89.32 22621-8800) scale(.08767)"/><use xlink:href="#a" transform="rotate(-94.3 21780-8040) scale(.08767)"/><use xlink:href="#a" transform="rotate(-99.19 21061-7397) scale(.08767)"/><use xlink:href="#a" transform="rotate(123.18 15294 14047) scale(.08767)"/><use xlink:href="#a" transform="rotate(-98.35 20434-8718) scale(.08767)"/><use xlink:href="#a" transform="rotate(121.3 15940 13510) scale(.08767)"/><use xlink:href="#a" transform="rotate(30.58 8777 62905) scale(.08767)"/><use xlink:href="#a" transform="rotate(96.4 16071 18063) scale(.08767)"/><use xlink:href="#a" transform="rotate(-96.8 19300-11453) scale(.08767)"/><use xlink:href="#a" transform="rotate(125.97 17656 11090) scale(.08767)"/><use xlink:href="#a" transform="rotate(-58.95 19603-27623) scale(.08767)"/><use xlink:href="#a" transform="rotate(-13.74 22690-141629) scale(.08767)"/><use xlink:href="#a" transform="rotate(-40.59 21132-45796) scale(.08767)"/><use xlink:href="#a" transform="rotate(63.14 17999 32062) scale(.08767)"/><use xlink:href="#a" transform="rotate(-8.37 40082-246804) scale(.08767)"/><use xlink:href="#a" transform="rotate(-21.39 30370-94220) scale(.08767)"/><use xlink:href="#a" transform="rotate(-158.77 20657 537) scale(.08767)"/><use xlink:href="#a" transform="rotate(174.1 20176 5471) scale(.08767)"/><use xlink:href="#a" transform="rotate(-127.34 22126-4345) scale(.08767)"/><use xlink:href="#a" transform="rotate(-71.48 25960-20953) scale(.08767)"/><use xlink:href="#a" transform="rotate(-59.13 28384-27845) scale(.08767)"/><use xlink:href="#a" transform="rotate(19.73-6707 117368) scale(.08767)"/><use xlink:href="#a" transform="rotate(-88.95 26419-12927) scale(.08767)"/><use xlink:href="#a" transform="rotate(169.28 20650 9190) scale(.08767)"/><use xlink:href="#a" transform="rotate(150.55 19708 13013) scale(.08767)"/><use xlink:href="#a" transform="rotate(71.99 12304 35703) scale(.08767)"/><use xlink:href="#a" transform="rotate(-72.99 31368-18440) scale(.08767)"/><use xlink:href="#a" transform="rotate(-28.55 51697-70910) scale(.08767)"/><use xlink:href="#a" transform="rotate(-63.8 34736-24145) scale(.08767)"/><use xlink:href="#a" transform="rotate(169.39 22028 10843) scale(.08767)"/><use xlink:href="#a" transform="rotate(-.52 1322620-4057564) scale(.08767)"/><use xlink:href="#a" transform="rotate(-73.3 31841-21011) scale(.08767)"/><use xlink:href="#a" transform="rotate(-149.26 25082 1585) scale(.08767)"/><use xlink:href="#a" transform="rotate(-63.38 32640-28589) scale(.08767)"/><use xlink:href="#a" transform="rotate(-60.21 32666-31716) scale(.08767)"/><use xlink:href="#a" transform="rotate(125.82 21706 17750) scale(.08767)"/><use xlink:href="#a" transform="rotate(-3.48 161630-737553) scale(.08767)"/><use xlink:href="#a" transform="rotate(95.57 21097 26116) scale(.08767)"/><use xlink:href="#a" transform="rotate(-22.14 41525-113137) scale(.08767)"/><use xlink:href="#a" transform="rotate(106.5 22783 21846) scale(.08767)"/><use xlink:href="#a" transform="rotate(101.41 23158 23240) scale(.08767)"/><use xlink:href="#a" transform="rotate(55.91 21663 48274) scale(.08767)"/><use xlink:href="#a" transform="rotate(160.4 25300 7246) scale(.08767)"/><use xlink:href="#a" transform="rotate(-35.82 29012-72085) scale(.08767)"/><use xlink:href="#a" transform="rotate(-75.91 26703-29017) scale(.08767)"/><use xlink:href="#a" transform="rotate(177.54 26136 2266) scale(.08767)"/><use xlink:href="#a" transform="rotate(-52.91 26700-48254) scale(.08767)"/><use xlink:href="#a" transform="rotate(60.8 25661 44860) scale(.08767)"/><use xlink:href="#a" transform="rotate(-43.61 29362-60050) scale(.08767)"/><use xlink:href="#a" transform="rotate(-53.77 29769-46302) scale(.08767)"/><use xlink:href="#a" transform="rotate(177.79 26610 4149) scale(.08767)"/><use xlink:href="#a" transform="rotate(32.44 17898 90358) scale(.08767)"/><use xlink:href="#a" transform="rotate(134.52 25484 15187) scale(.08767)"/><use xlink:href="#a" transform="rotate(41.31 17498 72142) scale(.08767)"/><use xlink:href="#a" transform="rotate(-173.93 27190 4264) scale(.08767)"/><use xlink:href="#a" transform="rotate(-146.13 28470-1676) scale(.08767)"/><use xlink:href="#a" transform="rotate(-86.01 32564-20923) scale(.08767)"/><use xlink:href="#a" transform="rotate(87.46 21690 33992) scale(.08767)"/><use xlink:href="#a" transform="rotate(165.57 26771 10800) scale(.08767)"/><use xlink:href="#a" transform="rotate(-96.05 33412-15450) scale(.08767)"/><use xlink:href="#a" transform="rotate(-129.33 31049-3928) scale(.08767)"/><use xlink:href="#a" transform="rotate(8.97-65710 344846) scale(.08767)"/><use xlink:href="#a" transform="rotate(44.72 9320 74048) scale(.08767)"/><use xlink:href="#a" transform="rotate(69.31 17130 48678) scale(.08767)"/><use xlink:href="#a" transform="rotate(70.59 18156 48138) scale(.08767)"/><use xlink:href="#a" transform="rotate(-172.47 29893 7132) scale(.08767)"/><use xlink:href="#a" transform="rotate(-64.83 40645-35680) scale(.08767)"/><use xlink:href="#a" transform="rotate(19.9-7273 169655) scale(.08767)"/><use xlink:href="#a" transform="rotate(174.45 29878 9076) scale(.08767)"/><use xlink:href="#a" transform="rotate(67.73 21980 50146) scale(.08767)"/><use xlink:href="#a" transform="rotate(38.25 15626 90394) scale(.08767)"/><use xlink:href="#a" transform="rotate(134.56 28808 18557) scale(.08767)"/><use xlink:href="#a" transform="rotate(-52.6 39628-53569) scale(.08767)"/><use xlink:href="#a" transform="rotate(14.46 1110 238300) scale(.08767)"/><use xlink:href="#a" transform="rotate(25.95 16796 133994) scale(.08767)"/><use xlink:href="#a" transform="rotate(-11.78 59404-285254) scale(.08767)"/><use xlink:href="#a" transform="rotate(-90.5 34058-25792) scale(.08767)"/><use xlink:href="#a" transform="rotate(89.85 29875 33849) scale(.08767)"/><use xlink:href="#a" transform="rotate(31.42 26733 110900) scale(.08767)"/><use xlink:href="#a" transform="rotate(-109.93 32660-18732) scale(.08767)"/><use xlink:href="#a" transform="rotate(-151.29 32150-5713) scale(.08767)"/><use xlink:href="#a" transform="rotate(-139.74 32136-9607) scale(.08767)"/><use xlink:href="#a" transform="rotate(-135.23 32479-10927) scale(.08767)"/><use xlink:href="#a" transform="rotate(90.1 31910 33138) scale(.08767)"/><use xlink:href="#a" transform="rotate(-140.32 33069-8483) scale(.08767)"/><use xlink:href="#a" transform="rotate(-92.22 34317-26773) scale(.08767)"/><use xlink:href="#a" transform="rotate(-63.48 36258-46857) scale(.08767)"/><use xlink:href="#a" transform="rotate(-55.26 37905-55762) scale(.08767)"/><use xlink:href="#a" transform="rotate(-20.87 49718-166263) scale(.08767)"/><use xlink:href="#a" transform="rotate(38.05 22909 96780) scale(.08767)"/><use xlink:href="#a" transform="rotate(98.02 29824 33198) scale(.08767)"/><use xlink:href="#a" transform="rotate(36.97 19996 101439) scale(.08767)"/><use xlink:href="#a" transform="rotate(106.49 29942 30500) scale(.08767)"/><use xlink:href="#a" transform="rotate(-151.79 35279-1153) scale(.08767)"/><defs><path d="M20491 36406c28 0 50 21 50 47s-10 47-20 47c-12 0-34-20-50-47-16-26-7-47 20-47ZM18622 35600c0-327 0-328 246-296 832 105 1042 531 304 618-561 65-550 72-550-322ZM14800 35148c450-101 566-60 622 220 57 286-111 349-575 214-409-120-433-347-47-434Zm7067 43c190-71 407 86 344 249-25 95-238 181-350 145-177-56-165-327 16-394Zm-1534-824c373-188 366-186 458-94 102 102 43 245-125 304-80 28-234 145-340 260-268 293-580 267-580-48 0-119 110-258 204-258 32 0 204-74 383-164Zm-4156-700c157-162 720 40 857 308 143 280 124 304-319 416a863 863 0 00-374 228c-314 317-807 307-807-16 0-191 102-306 273-306 228 0 335-118 335-370 0-123 16-240 35-260Zm-3060 560c40-107 248-86 331 33 100 141 4 244-180 198-140-35-194-120-151-230Zm10267-254c120-70 320-61 384 17 98 118 40 235-125 251-273 38-450-146-259-257Zm-11103-255c165-165 513-64 563 163 40 188-57 275-310 275-255 0-415-276-253-438Zm9437-650c83-117 117-131 244-104 360 77 423 246 135 362a999 999 0 00-330 263c-265 331-600 242-562-150 13-135 34-154 215-192 140-30 230-84 298-178Zm-11149 526c60 0 90 30 90 97 0 120-158 106-180-16-10-56 14-81 81-81Zm13480-674c182-130 930 9 993 186 123 320-168 560-667 548-394-10-625-526-330-734ZM5672 6240c40-97 236-83 333 24 46 52 177 106 297 124 215 33 315 107 505 372 98 138 98 138 374 74 502-116 552-106 583 122 34 248 150 379 367 414 322 52 370 92 405 335 43 294 73 325 350 362 200 27 243 50 310 182 129 253 307 290 625 127 310-160 345-138 308 186-54 480 110 580 628 376 362-143 405-130 433 123 57 508 1122 1127 1692 984 120-30 120-27 120 230 0 366 130 858 244 918 85 45 688-14 790-77 64-45 103 100 90 377-20 463-43 528-211 584-83 27-260 132-394 233-134 100-350 218-478 260-288 97-375 213-375 500 0 429 114 536 553 515 268-13 383 44 383 190 0 523 683 545 867 27 116-327 136-347 384-403 434-97 435 453 0 660-294 140-361 243-361 553 0 507 860 387 915-128 30-277 47-315 172-384 263-144 358-243 470-490 108-232 140-260 520-453 454-230 510-280 587-520a783 783 0 01 240-320c142-114 192-193 215-337 22-133 66-210 153-264 67-42 180-130 253-197 72-66 282-194 468-284 326-160 339-171 420-420 98-295 134-328 360-330 360-3 373-16 487-524 19-83 93-163 216-232 140-80 200-148 234-280 66-253 145-302 425-275 445 44 605 573 242 800a1206 1206 0 00-274 245c-70 96-162 140-413 192-382 80-358 60-446 338-60 186-105 239-294 340-257 140-527 386-623 569-237 450 220 777 662 476 194-132 447-250 537-250 88 0 12 548-102 730-153 250 9 350 254 157 68-52 234-133 370-180 489-168 374-690-163-740-463-44-461-625-1-626 353-1 382-26 382-332 0-222 20-292 98-358a5310 5310 0 00 294-278c390-392 1107-486 1108-146-1 287 83 416 313 493 190 63 199 75 250 336 75 380 84 387 520 471 436 85 379 16 495 600 74 370 628 388 942 30a2798 2798 0 01 374-347c374-270 290-685-174-870-332-134-341-150-325-493 20-438 720-478 817-47 128 580 952 756 952 203 0-292-198-430-674-473-316-30-563-475-370-668 237-232 1090-120 1090 147 0 504 594 696 779 253 123-297-68-504-528-572-114-17-207-47-206-66v-340c0-304 0-304 413-304 505 0 526-18 526-438 0-324 0-324 235-293 352 47 439 104 575 383 246 500 874 280 874-306 0-106-31-157-128-208-343-177-338-320 14-393 145-30 200-73 274-213 99-192 266-266 379-170 156 129 65 262-272 397-195 79-236 234-96 375 97 97 384 62 604-74 408-252 633 33 307 390-100 106-214 260-255 340-60 116-123 160-300 204-284 72-378 158-440 406-62 238-180 353-478 464-482 180-656 627-360 923 276 277 930 52 1170-405a714 714 0 01 290-313 585 585 0 00 346-474c37-234 114-290 354-257 236 32 323 130 270 305-72 240-98 274-308 376a719 719 0 00-291 247c-160 290-241 362-466 410-143 30-247 86-292 155a5520 5520 0 01-220 290c-307 365-271 643 84 643 293 0 695-270 789-530 123-339 163-385 388-440 293-73 289-70 402-380 165-454 753-935 988-810 320 172-130 930-655 1104-263 88-320 163-356 492-30 245-33 248-352 302-270 45-677 560-817 1033-38 130-63 144-320 176-226 28-308 64-443 194-92 87-267 202-390 255-240 105-286 180-340 552-43 297-78 336-340 375-220 33-318 110-556 430a578 578 0 01-257 180c-251 72-335 420-175 726 145 277 1166 312 1166 40 0-23 62-78 138-123 236-140 274-357 180-1025-12-80 7-90 126-70 699 114 820 42 1217-723 223-429 243-450 412-480a915 915 0 00 328-140c83-60 254-167 380-240 436-243 564-505 399-814-74-138-38-147 274-66 155 40 360 73 455 73 174 0 174 0 140 176-70 370-140 465-476 636-365 186-765 568-947 906-106 196-173 252-524 436-597 313-744 455-744 721 0 360 499 500 742 206a4440 4440 0 01 285-306c90-85 205-244 258-353 74-153 150-225 334-316 360-177 550-342 840-728 340-454 554-560 744-370 202 202 72 405-395 615-346 157-530 343-720 732-115 237-162 284-373 378a1031 1031 0 00-374 283 990 990 0 01-336 262c-345 148-327 533 43 904 347 348 560 301 992-213 489-584 937-1006 1134-1070 247-79 280-118 317-363 55-384 87-430 295-430 278 0 420 73 497 253 36 88 130 210 210 272 174 140 329 955 195 1040-141 86-808-175-808-318 0-293-343-330-510-58-160 258-135 350 100 367 196 14 200 17 188 178a222805 222805 0 00-54 856c0 20-123 35-270 35-622 0-1098 967-658 1338 360 305 1020-128 1136-744 44-233 130-313 344-313a814 814 0 00 778-540c120-363 146-398 286-398 452 0 417 517-50 723-613 272-803 1053-276 1132 408 62 280 601-192 813-615 276-842 1027-455 1506 246 305 920-66 1137-627 158-407 603-413 603-7 0 302-66 390-316 424-900 120-1006 1190-118 1192 150 1 150 1 123 368-47 591 92 870 527 1063 252 112 252 112 252 350 0 470-130 617-558 630-188 5-178 50-121-535 43-443-302-840-731-843-110 0-170-90-204-305-73-438-165-540-492-540-377 0-543 174-756 793-107 313-225 446-531 600-334 168-433 275-514 557-85 290-100 303-414 340-330 40-392 154-333 597 70 520 664 498 859-30 88-236 220-325 490-326 314 0 159 540-196 685-258 106-327 190-410 487-94 334-204 440-530 508-323 68-366 106-404 357-42 280-606 644-746 480-130-150 174-815 395-864 670-150 715-820 60-898-516-60-541-86-513-510 27-432 56-463 460-497 410-34 434-54 555-454 98-324 98-324 352-398a923 923 0 00 637-848c8-300 44-329 400-315 580 25 1072-639 867-1169-256-666-1357-100-1362 700-1 167-86 240-411 340a950 950 0 00-650 646c-95 337-114 360-370 430-282 80-466 296-535 630-54 260-54 260-312 335a1099 1099 0 00-673 538c-72 141-136 192-318 253-306 102-472 290-595 670-111 342-56 292-732 662-537 293-788 620-788 1020-2 291 0 293 395 330 359 34 436 80 490 298 170 668 280 830 610 877 257 36 257 36 272 291 19 373-11 444-237 545-110 50-276 160-371 245-94 85-368 255-608 377-480 246-560 345-643 782-50 273-112 324-540 454-420 127-540 245-540 527 0 240-4 240-375 160-260-56-455-28-467 64l-2 20c-12 97-194 285-316 321-237 68-113-329 150-485 115-67 166-130 166-207 0-173 97-258 370-324 648-157 643-703-8-947-520-195-485-165-601-543-170-555-1024-340-1024 260 0 394 2 396 442 396 420 0 457 20 606 314 152 302 110 420-168 456a675 675 0 00-420 194c-333 300-464 200-481-370-15-532-100-612-446-432-74 38-264 100-421 137-400 94-488 165-617 505-100 258-141 310-321 404a1800 1800 0 00-326 220 1430 1430 0 01-390 210c-297 112-384 210-432 493-65 376-458 677-893 682-393 4-550 84-595 302-72 346-126 410-400 472-153 33-273 90-301 141-175 313-442 382-684 180-202-170-200-384 9-567 84-74 200-200 256-280 90-125 144-152 374-180 547-68 595-115 660-660 54-437 35-470-240-443-300 30-484-160-340-352 39-50 70-158 70-240 4-250-175-254-512-10-426 310-748 203-748-240 0-375 15-367-418-220-645 220-723 817-123 938 260 52 278 64 337 237 88 255 130 293 375 330 527 80 626 560 117 570-163 3-346 32-406 65-186 100-310 15-152-102 128-94 167-260 100-434-43-114-314-92-577 45-481 252-650 137-542-373 36-176 34-182-74-155-736 185-753 187-794 121-65-103 2-417 156-727 144-290 213-343 450-344 355-2 633-183 702-458 180-720 98-806-536-570-312 120-390 226-487 690-88 415-343 558-890 500-430-47-514 12-514 361-2 227-26 330-112 458-60 92-142 222-183 290-55 90-126 128-267 147-258 35-332 105-332 318 0 375-110 410-544 182-547-288-641-540-267-723 277-134 330-190 362-387 39-257 397-596 709-670 305-75 330-100 400-380 30-130 112-303 180-384 70-80 153-215 186-297 50-128 100-162 324-223 445-122 580-212 708-476a1876 1876 0 01 820-842c433-232 470-267 540-525a1839 1839 0 01 217-448 1444 1444 0 00 156-262c0-522 1243-107 1360 454 127 610 860 467 1075-210a2010 2010 0 01 248-435l206-278c8-12 140-36 295-54 470-55 743-432 622-858-100-350-730-180-883 237-198 540-192 530-358 532-180 0-223 26-330 194-146 232-793 347-912 163-20-29-56-263-82-520-82-826-947-645-1258 262-190 553-1141 978-1294 578-80-210-55-513 49-607 97-88 126-210 50-210-25 0-90 62-143 138-67 96-180 166-358 220-707 225-704 810 6 873 299 25 168 487-210 732-362 235-535 168-540-206-2-320-88-360-407-190-557 290-675 640-287 838 340 176 330 780-10 780-63 0-186 64-274 140-200 177-366 183-495 19-130-166-122-205 40-205 244 0 344-172 210-364-145-208-395-80-395 204 0 160 0 160-228 160-390 0-512-393-203-648 172-140 220-500 80-616-106-90-381-18-480 123-175 256-240 298-451 298-237 0-262-37-262-378 0-206 14-237 136-300a632 632 0 00 222-243c76-152 130-188 450-300 445-155 416-124 464-478 30-223 70-324 174-433 74-80 158-190 186-247 29-55 166-153 306-217 654-300 604-910-71-863-370 26-370 26-370-325 0-774-700-776-844-2-53 282-415 653-766 784-222 83-307 222-307 504-1 208-154 432-295 432-87 0-240 177-313 363-46 120-100 164-245 203-332 90-384 58-423-256-40-322-31-310-284-403-240-90-315-460-127-630 139-130 127-307-24-307-85 0-145 44-213 160a585 585 0 01-274 230c-518 210-591 860-93 836 307-15 370 50 370 370 0 137 3 138 280 138 194 0 285 20 288 60 18 222-25 400-122 503a1390 1390 0 00-202 334c-146 340-441 357-780 44a2690 2690 0 00-315-252 452 452 0 01-180-278c-74-270-121-316-330-316-460 0-440 533 23 650 223 56 258 90 332 310 33 97 109 170 250 240a665 665 0 01 329 324 793 793 0 00 320 340c210 115 317 255 276 360-35 90-183 37-394-143a1000 1000 0 00-318-190c-240-57-380-152-480-322-83-139-123-165-266-165-247 0-343-68-375-270-47-289-108-388-283-462-170-70-301-282-301-486 0-82 185-242 340-294 20-8 55-134 75-282 40-306 50-320 254-390 99-33 184-115 257-246 60-107 200-260 314-337a668 668 0 00 302-570c0-45 84-165 187-267 164-163 187-212 187-400 0-202 10-217 176-287 344-144 574-458 573-782-2-254-44-282-403-264-282 15-317 17-330-212l-11-225c-14-228-48-224-323-198-383 37-390 44-435 377-55 410-13 455 379 415 310-30 414 306 253 815-32 100-538 46-602-65-142-245-287-363-386-310-182 98-190 490-10 548 240 77 327 368 102 342-105-10-135-45-170-194-66-280-560-204-784 122-57 85-164 211-237 280-100 96-133 170-133 307 0 277-77 350-353 330-338-20-362-466-33-624 248-120 587-606 685-982 38-146 130-330 206-417 75-86 160-252 190-370 60-233 114-269 670-428 260-76 260-76 287-416 34-442 50-477 274-578 400-180 752-702 810-1200 38-316 44-310-424-348-433-34-496-80-530-382-27-224-27-224-350-248-370-26-388-50-397-476-6-220-6-220 412-430 230-118 460-240 512-273 138-86 173-18 107 208-272 938-47 1075 633 385 390-395 645-1148 360-1070-590 166-868-47-730-560 77-290-154-586-288-368-100 162-430 97-730-140a1150 1150 0 00-412-185c-304-65-365-150-405-557-50-515-207-617-686-448-250 87-276 55-277-316 0-305-93-412-360-412-402 0-435-758-43-1020 443-297 585-263 660 157 74 406 80 411 434 371 346-36 384-10 385 265 0 275 124 380 467 406 290 20 292 22 375 214 106 244 210 335 455 400 178 48 214 86 398 410 273 482 370 580 576 580 388 0 620-198 664-563 24-195 62-280 186-403 93-92 157-203 157-270 0-207 330-363 638-303 230 44 190 650-50 793a596 596 0 00-216 236c-43 103-132 178-320 268-573 273-544 972 37 937 260-16 260-16 244 450-17 436-13 461 70 430 460-180 812-95 813 197 0 372 130 485 404 355 487-232 553-844 108-1007-393-143-553-510-355-812 127-194 86-242-75-90a905 905 0 01-387 200c-128 30-273 67-320 80-188 57-85-575 120-750a680 680 0 00 220-344c46-172 75-204 226-246 392-109 484-59 550 295 50 268 122 313 492 313 322 0 323 0 453 270 234 485 684 378 783-183 50-290 56-298 270-400 440-210 470-666 45-668-250 0-335 70-335 280-2 360-56 421-376 421-523 0-560-534-47-660 533-133 470-772-90-882-276-55-290-64-390-276-250-520-903-467-884 73 12 322-20 362-334 408-494 74-523-483-37-703 554-249 229-985-434-983-440 2-453-10-453-413 0-198-290-467-590-548a1040 1040 0 01-374-198c-113-105-206-143-406-163-280-30-316-79-316-440 0-322-98-406-526-450-268-29-280-36-371-222a1052 1052 0 00-266-320c-93-70-248-194-343-275a942 942 0 00-440-202c-240-48-273-69-320-204-82-246-213-340-514-372-263-28-273-34-354-220-104-242-206-332-460-407a432 432 0 01-300-239 856 856 0 00-257-272c-490-290-214-618 304-359 120 61 284 126 360 145 80 20 234 133 355 264 213 230 213 230 525 230 313 0 313 0 366 213 64 254 184 350 438 350 220 2 250 20 397 230 60 86 200 197 308 245s275 182 370 298c135 165 204 212 313 212 174 0 322 75 322 163 0 483 164 665 532 588 313-65 364-44 486 210 83 171 135 217 295 265 152 46 248 127 448 378 334 420 420 472 728 452 248-16 248-16 280 287 85 764 1097 873 1250 134 40-194 90-282 219-393 350-298 250-680-195-748-270-40-358 7-400 216-88 430-707 400-742-34-28-343-107-465-494-766-206-160-290-262-341-414-53-164-103-220-272-300-181-89-220-136-306-374-110-304-122-310-600-330-304-10-305-10-403-200-98-187-98-187-392-178-295 8-295 8-264-248 40-340-16-440-242-440-290-2-384-49-480-239-105-206-177-253-450-300-230-36-307-116-384-387-64-224-160-293-405-293-220 0-333-64-423-240a527 527 0 00-230-208c-181-76-231-137-195-234ZM14100 33227c57-93 356 0 356 111 0 132-62 178-188 139-100-32-205-190-168-250Zm-3200-571c60-35 240-25 500 27 140 28 390 358 429 558 32 200-107 230-540 100-322-93-580-552-380-675Zm4680 538c0-38 100-24 190 26 57 27 98 70 98 95 1 26-62 14-140-26-76-40-140-82-140-95Zm5300-910c360-143 740 60 740 392 4 92-34 135-156 186a755 755 0 00-265 212c-228 310-885 147-885-219 0-185 262-447 571-571Zm-6253-603c348-196 440 50 184 492-183 315-28 413 318 202 272-168 425-115 310 107-30 55-59 207-60 337-6 236-6 236-260 250-354 20-440-12-520-187-150-336-635-274-596 76 26 231-10 259-353 260-250 1-350-67-388-265-38-202 52-296 283-297 287-2 345-42 394-274 26-120 83-239 130-265 44-25 166-122 271-215a2385 2385 0 01 283-220Zm-5715 667c30-78 230-88 360-18 125 67 124 310-1 350-173 54-420-173-358-332Zm14570-537c400-78 487 18 347 387-75 196-670 460-867 383-237-90 177-703 520-770Zm-13770-165c168-168 240-146 372 110a540 540 0 00 285 244c220 94 305 205 305 395 0 160-163 162-380 4a5213 5213 0 00-553-362c-176-98-185-233-28-390Zm16803-130c272-59 396 25 396 268 0 204-80 293-310 354a1228 1228 0 00-390 214c-438 366-703 54-281-329a1110 1110 0 00 193-268c52-103 132-185 194-198 57-12 147-30 198-42Zm-18396 160c105-170 390-10 486 271 64 192 40 240-126 240-244 0-474-327-360-512Zm20270 180c142-158 317-86 292 120-20 167-146 255-260 183-116-72-129-197-33-303Zm-6064-998c102-40 537 0 650 62 228 122 57 633-245 736-100 34-253 125-340 203-400 350-807-42-417-400 114-107 162-190 162-288 0-146 73-267 188-313Zm4635-313c400-402 1143 140 1005 735-40 171-950 184-1056 15-87-138-53-646 50-750Zm-19752 490c0-99 174-79 284 30 118 120 100 261-28 241-106-17-256-176-256-272Zm1700-254c185 0 266 71 266 235 0 147-79 234-210 234-146 0-212-90-212-290 0-170 7-179 155-179Zm-3330 90c137-89 320 21 320 192 0 120-64 150-203 96-140-53-212-230-118-289Zm12362-3024c-38-100-254-80-370 33l-25 25c-74 67-200 115-400 152-510 94-624 226-624 720 3 384 204 458 783 290 334-98 373-77 401 218 27 283 111 370 352 370 240 0 340 74 340 249 0 320 80 492 263 552 267 89 463 222 582 395 334 489 1002 247 966-350-14-222-7-215-497-511a828 828 0 01-295-328c-110-217-110-217-460-240-352-23-352-23-367-280-20-346-53-376-433-376-358 0-366-6-400-315-22-190-7-248 92-381 65-87 106-187 92-223Zm-6345 1627c281-282 524-100 250 187-156 162-186 343-82 485 62 84 140 92 568 60 190-14 210 111 50 320-162 213-467 231-690 42-229-192-547-152-656 82-64 136-116 180-240 204-425 80-566-372-158-502 197-63 262-144 346-436 32-107 88-155 251-214a1160 1160 0 00 362-228Zm18527 630c48-50 114-63 197-43 375 90 340 580-45 580-280 0-373-320-155-538Zm-24084-94c0-266 492-72 664 260 113 220 73 324-125 324-260 0-539-302-539-584Zm1960 68c60 0 164 138 130 172-34 34-170-70-170-130 0-23 17-42 40-42Zm1534-415c273-160 578-30 578 244 0 244-62 312-283 312-279 0-508-432-295-556Zm12357-3917c-28-83-102-73-290 37-103 60-302 150-442 200-344 120-543 323-584 597-26 173-66 240-214 358-100 80-195 185-210 236-20 60-113 115-273 162-788 230-1090 1120-327 967 355-70 384-40 330 345-58 370-30 414 310 513 530 155 713 580 273 640-245 32-273 60-218 220 63 177 283 198 450 43a663 663 0 01 368-145c490-66 807-298 916-670 81-284 338-489 800-643 330-109 460-223 557-485a2431 2431 0 01 192-390c178-274-2-460-297-312-546 276-813 27-572-534 140-325 95-348-414-210-637 170-708 224-826 640-63 220-102 276-254 361-98 56-218 144-266 197-117 130-568 140-604 14-90-325-80-457 50-604 72-80 166-188 208-240 50-63 163-107 328-130 405-54 596-198 673-506 17-65 102-230 190-367 87-137 152-269 144-294Zm7080 3220c124-204 294-202 593 3 473 327 465 767-17 844-99 16-304 83-450 148-666 294-1020-157-449-570 128-90 233-190 233-220 0-30 42-122 93-206Zm-23254-840c156-185 700-41 700 187 0 180 122 298 345 331 232 35 273 72 352 308a690 690 0 00 213 282c282 208 415 562 210 562-264 0-885-425-1027-702-110-219-170-263-392-297-300-46-558-480-400-670Zm4961 590c320-350 527-130 255 273a669 669 0 00-117 271c0 247-495 419-653 228-132-160-40-466 158-531a1033 1033 0 00 356-247Zm-5280 455c195-80 315 10 315 236 0 140-13 155-138 155-195 0-342-325-178-391Zm21321-2590c-52-278-670-72-855 284-98 188-137 210-538 310-648 160-727 962-109 1118l364 90c132 31 147 60 252 477 123 489 142 515 380 514 381 0 640-212 870-717 131-290 173-332 370-380 515-123 462-537-89-706-612-187-669-163-500 210 150 335 70 414-370 377-517-44-526-684-10-767 190-30 307-430 236-800Zm5015 2300c0-42 23-70 50-60 28 9 50 36 50 60 0 25-22 53-50 62-27 10-50-18-50-61Zm-10095-868c81-208 544-292 613-112 182 476-475 1128-906 900-270-143-213-508 90-575 97-20 150-76 203-213ZM9730 27906c90-140 140-174 234-163 177 20 190 240 26 413a605 605 0 00-150 323c-20 147-50 200-128 219-386 97-630-463-250-572a505 505 0 00 268-220Zm20682-560c139-351 661-132 804 339 190 627 10 850-410 508a2804 2804 0 00-342-238c-163-90-180-285-52-608Zm-25950-783c423 0 590 673 213 868a850 850 0 00-258 260c-150 240-245 277-356 140-115-143-109-223 34-429a890 890 0 00 144-447c13-151 32-301 42-334 10-32 90-58 180-58Zm9033 171c-36-94-78-92-347 19-116 48-285 99-375 113-274 44-303 83-296 400 10 380 62 437 380 410 356-29 760-625 638-942Zm-2438-525c372-162 453-108 453 303 0 457-18 506-217 590a456 456 0 00-213 186c-102 226-564 218-650-11-70-184-20-308 176-436 136-80 190-160 240-340 50-180 92-230 211-290Zm15405-3180c-132-131-389-90-586 94-66 60-250 173-409 250-239 117-320 189-464 412-312 482-554 740-758 807-250 83-375 223-445 500-57 225-57 225-359 313-420 124-554 263-625 653-68 377-2 400 885 304 83-10 94 19 96 248 5 410 16 463 120 567 288 290 884-136 884-630 0-185 54-240 278-283 498-95 523-618 32-673-240-28-352 88-352 364 0 251-783 468-800 221-35-523 40-691 315-691 290 0 380-69 463-350 94-325 293-499 742-649 354-118 350-114 507-521 85-220 150-310 318-426 235-176 301-382 163-520Zm3407 2926c294-2 278-53 224 732-2 30-100 87-217 127s-276 126-353 190c-485 410-707 206-328-300a1060 1060 0 00 214-450c18-117 64-225 110-252 43-25 200-46 350-47Zm3590 818c67-80 62-80 160-41 136 52 76 346-70 346-110 0-170-207-90-305Zm-1767-203c88-86 227-47 330 93 120 163 75 322-93 322-233 0-383-266-235-415Zm-25756-195c94 0 167 117 120 193-34 55-100 14-162-102-40-75-33-90 42-90Zm8570-753c-128-239-778-38-904 280-230 575 86 817 700 536 230-106 342-556 203-816ZM3230 25387c236-150 454-40 567 285 178 506 162 545-166 420-372-141-615-570-401-705Zm1914 111c277-140 365-82 406 266 35 293-26 377-273 377-293 10-399-498-133-632Zm23494-485c352-110 522-3 603 377 70 307 60 330-230 330-210 0-250 17-420 190-341 355-662 231-580-225 38-183 440-610 636-672Zm3848 498c205-133 330-73 433 217 114 322 16 461-256 364-290-102-388-422-177-570Zm-26172 187c0-168 320-237 458-99 70 70 74 377 5 446-147 148-463-90-463-345Zm5862-759c274-80 513-64 484 30a5210 5210 0 00-68 282 944 944 0 01-213 387c-92 103-168 207-168 232 0 64-328 154-493 135-201-23-194-396 13-620a2300 2300 0 00 214-275 465 465 0 01 230-170Zm6518-2046c-173-174-295-130-347 120-27 138-60 166-282 241-372 127-473 248-583 694-42 170-84 228-203 284a1230 1230 0 00-304 240 553 553 0 01-354 200c-461 72-1106 1095-702 1110 735 30 1159-261 1159-795 0-115 45-196 184-335 101-100 203-215 225-255 32-57 137-76 460-84 458-10 589 367 278 807-62 88-102 178-90 200 47 74 158 37 234-80 72-110 100-116 490-116 583 0 700-96 700-580 0-255 22-368 93-475 176-266 60-404-200-240-146 94-828 237-880 186-132-134-105-710 38-783 197-100 221-200 84-335Zm-17080 2284c120-172 458-130 480 58 29 253-162 450-440 450-140 0-166-329-40-510Zm21300-495c-80-110-393-140-575-60-352 161-427 886-93 913 523 43 937-485 669-853Zm-12036-90c40-100-47-100-352-7-292 90-430 258-412 500 32 435 494 350 640-120a8930 8930 0 01 124-373Zm16300-503c-44 0-90 18-104 40-14 22-166 55-338 72-674 70-906 272-906 790 0 733 1014 296 1145-494a563 563 0 01 155-294c98-90 108-118 47-118Zm6006 503c72-138 385-110 505 40 183 233 81 580-170 580-340 0-505-304-335-622Zm1789 270c33-87 80-89 189-9 117 85 82 285-53 304-122 16-201-156-148-296ZM1358 15490c75-140 175-93 293 139 96 187 247 230 554 160 315-73 300-80 360 158 140 554 436 990 703 1032 278 45 370 103 467 294a456 456 0 00 248 240c345 126 375 157 480 486 129 398 180 450 488 486 145 17 317 77 416 144a3140 3140 0 00 410 222c240 107 240 107 270 447 42 504 127 580 604 538 360-32 360-32 388 101 94 452 105 470 363 562 242 87 246 90 260 299 40 545-203 703-720 467-491-225-793 245-380 591 396 330 370 777-50 912a946 946 0 00-300 173c-130 122-200 113-310-43-77-107-370-114-514-12-121 85-134 250-40 519 55 158 53 234-20 588-106 530-95 518-435 500-377-18-410 7-394 304 20 377-530 308-592-74-66-402-50-480 115-550 172-70 213-140 257-433 25-165 65-247 150-305 535-365 715-646 715-1116 0-455 175-748 585-978 877-491 400-1570-580-1307-103 27-107 43-71 245 133 737-97 1364-500 1364-146 0-210-64-256-258a557 557 0 00-312-380c-178-90-221-195-238-575-20-400 0-381-303-320-340 67-450 10-593-316-98-225-144-274-325-352-196-85-217-111-290-364-101-350-165-442-385-566-217-123-706-663-844-935a713 713 0 00-240-270c-284-147-420-554-212-633 164-62 294 10 376 207 80 193 140 240 380 305 216 58 548 416 744 804 133 262 177 300 443 375 274 78 302 103 366 316 64 215 206 353 437 427 183 59 303 247 408 640 50 188 50 188 390 197 188 6 436 15 550 22 315 20 335-380 49-946-196-392-221-414-598-515-155-42-236-103-358-272a1053 1053 0 00-406-338c-213-103-257-148-312-318a767 767 0 00-226-328c-88-72-300-250-470-400-170-148-327-270-350-270-24 0-101-120-172-270-96-200-170-288-291-345-177-84-266-315-182-473Zm16488 6414c-127-50-162-34-360 160-105 104-246 200-312 216-575 128-617 158-800 556a1623 1623 0 01-273 420c-120 112-146 173-146 340 0 220-92 295-360 295-325 0-670 340-670 662 0 742 1018 390 1109-383 26-222 35-234 209-280 100-28 250-110 335-185 84-75 247-172 362-216 353-144 554-395 625-788a690 690 0 01 194-338c177-178 220-414 87-465Zm11738 2200c244-170 452-90 591 227 195 439 90 622-290 497-380-127-555-550-301-727Zm-27264 290c54-54 190-34 247 36 130 158-24 455-201 387-78-30-113-356-46-423Zm9162-2062c-47-123-225-93-336 56-67 90-170 152-324 190-284 72-328 110-463 400-61 130-155 290-209 356-61 76-107 219-125 387-26 253-37 272-218 372-532 295-531 871 2 667 235-90 296-195 296-520 0-187 15-218 148-290 80-44 223-145 316-226 92-80 256-190 365-246 244-124 294-214 294-528 0-211 20-268 142-394 93-96 130-173 112-224Zm11403 704c-114-300-644-103-774 288-90 284-110 305-450 377-610 132-961 1084-390 1044 479-33 740-220 850-600 80-280 120-321 350-362a567 567 0 00 424-747Zm549 867c-298-20-424 100-403 380 30 410 608 262 618-158 4-207 4-208-216-222Zm10597-470c230-232 714-28 705 297-12 482-63 586-286 586-346 0-654-649-420-883Zm-18988-285c-68-215-620-98-896 190-175 183-240 930-80 930 536 0 1120-670 976-1120Zm13362-165c-90-234-684-150-822 117-211 410-134 795 160 793 531-3 843-432 662-910Zm-16707 586c-62-116-364-138-405-30-67 176 2 330 154 346 192 19 334-160 250-316Zm3087-3495c-122-146-605-64-704 120-182 343 12 637 387 587 260-34 264-21 155 390a844 844 0 01-247 426 990 990 0 00-239 368c-45 152-86 200-185 223-404 90-480 125-570 252-160 227-280 530-280 720 0 147-33 208-166 326-214 190-225 362-23 362 116 0 156-30 220-165 68-144 118-176 388-257 437-130 603-340 680-857 30-208 48-231 247-328 218-106 256-148 334-370 31-88 141-175 377-300 354-186 470-334 532-680 18-95 90-224 170-301 164-147 193-291 78-335-46-18-133 28-229 122-122 118-212 157-430 187-353 49-375 37-403-210a693 693 0 00-80-280ZM2907 22027c83-84 292-69 467 34 86 50 233 104 330 122 255 46 287 110 250 495-44 438-54 457-254 490-330 56-335 60-335 278 0 460-117 463-560 16-516-520-412-965 123-526 292 240 395 79 163-256-205-297-240-366-240-477 0-66 25-145 56-175Zm22605 224c25-220-216-186-447 62a870 870 0 01-456 284c-614 175-869 1138-268 1014 643-133 710-190 764-633 29-247 55-301 213-445 99-90 186-217 194-282Zm-4640 455c-107-283-585-154-837 226-290 440-259 650 95 638 657-23 938-350 742-864Zm-4343-930c24-564-741-315-920 300-68 234-102 280-262 363-210 107-282 213-282 420 0 257 441 187 586-94 50-95 172-188 386-293 370-182 477-332 492-694Zm16978 230c505-254 608-90 321 511-157 330-240 400-576 481-518 125-303-710 255-992ZM10081 21800c-430-12-486 20-584 334a1546 1546 0 01-122 290c-303 484-8 733 417 350a3100 3100 0 01 322-255c142-89 242-354 217-573-15-133-27-140-250-146Zm19930-670c-317-252-578-120-721 362-47 156-125 255-345 435l-387 320a456 456 0 00-135 450c73 290 337 203 776-255 283-294 400-380 597-447 371-122 500-642 216-866Zm285-2275c-100-99-220-86-588 61-467 190-480 205-440 568 65 576 78 537-186 565-354 38-432 102-526 425-90 312-348 582-750 787a613 613 0 00-302 312c-95 194-423 396-643 396-94 0-236 254-236 423 0 563 734 562 953 0 87-224 130-273 316-362a570 570 0 00 313-305c200-415 510-678 842-716 352-40 416-110 467-520 34-280 34-280 268-360 466-170 795-990 512-1280Zm-5555-1769c-102-140-284-138-492 7-65 45-196 120-293 164-140 66-185 120-227 276-79 303-100 325-377 380-446 90-697 336-794 778-69 310-112 372-257 372-154 0-298 160-298 330 0 164-125 232-423 232-238 0-328 100-516 568-159 400-209 445-765 722-263 130-293 160-380 393-94 252-96 254-385 333-522 143-716 493-485 873 208 342 822 84 962-404 67-233 160-320 420-396 295-86 362-167 447-533 82-350 220-490 604-610 350-99 566-287 566-487 0-290 57-406 234-478a430 430 0 00 258-253c73-165 102-185 297-212 120-17 340-60 490-100 347-85 342-93 241 395-100 487-113 507-348 545-173 29-424 244-425 365 0 24-112 95-250 155-555 247-917 1153-434 1088 108-14 348-3 535 26 437 69 455 50 455-445 0-380 1-382 140-448 227-107 303-198 303-360 0-293 16-303 478-303 574 0 770-162 724-600-35-332 30-472 250-543a388 388 0 00 238-200c40-83 140-226 222-320 357-407 22-602-460-267-230 160-330 270-493 547-64 110-654 226-722 144-155-187 18-790 243-846 398-100 880-682 725-875Zm-238 4160c-154-153-324-62-418 224-50 146-98 170-507 240-440 75-524 746-107 861 402 123 668-64 730-500 27-194 68-310 120-339 240-135 318-337 180-475Zm-10090-2393c1-277-297-236-489 68-84 134-200 224-433 338-357 175-412 256-447 656-30 334-43 353-273 415a416 416 0 00-282 210 565 565 0 01-302 238c-620 237-706 1238-108 1238 183 0 285 20 295 59 10 32 35 143 58 246 57 267 323 293 627 60 446-340 306-772-210-642-315 70-260-320 111-800a950 950 0 00 165-350c23-137 62-190 157-230 636-260 703-326 800-784a945 945 0 01 193-412c96-110 140-209 140-319Zm7276 3194c3-374-98-436-487-300-463 163-387 785 96 785 344 0 387-54 390-484ZM9570 21395c48-411-333-340-615 115a2554 2554 0 01-237 323c-340 366-110 614 272 294a2168 2168 0 01 355-243c169-80 180-106 225-490Zm20356-5725c-170-112-429-98-527 29a5620 5620 0 01-303 329c-206 210-244 288-336 700-20 90-66 133-173 156-615 136-1014 455-1070 860-51 357-67 382-251 382-306 0-517 278-490 648 14 218 14 218-173 244-165 23-365 144-730 440-42 34-90 170-107 302-32 240-32 240-208 240-415 0-800 366-803 762-2 350 293 452 838 290 307-91 296-107 216 315-97 496 21 689 353 584a2960 2960 0 01 193-50c104-22 164-99 316-400 167-333 213-387 418-490 240-120 248-130 331-510 67-302 92-330 460-450 491-161 560-230 641-641 34-172 103-211 460-264 180-27 233-56 254-136 15-56 97-234 182-396 260-490 185-696-208-570-342 110-713 550-713 846 0 150-134 228-392 228-320 0-376 54-470 446-104 428-165 514-435 610-446 156-523 205-616 388-88 174-247 277-557 364-107 30-108 26-94-360 13-391 13-391 154-405 370-35 725-452 741-866 8-200 8-201 400-207 463-10 495-32 505-381 4-147 10-283 11-301 3-20 110-48 240-65 331-44 503-178 687-534 280-543 368-650 562-684 246-44 280-66 637-413 444-430 462-764 55-1031Zm-10177 4360c-53-140-129-150-396-54-233 83-336 188-417 423-64 186-94 210-474 384-286 135-543 874-339 1003 302 192 750-90 945-594 94-246 131-290 324-382 320-152 475-488 364-780ZM1200 20472c24-315 513-540 595-272 10 32 46 216 80 410 58 324 75 357 214 427 238 120 300 188 284 319-22 193-157 175-305-40-225-328-562-313-754 34-122 222-203 246-310 93a397 397 0 01 50-511c103-107 128-185 147-460Zm14025-4257c58-462-630-287-846 216-110 253-141 287-396 408-381 180-434 250-462 610-23 302-27 310-234 456-153 107-223 196-260 328-53 190-62 196-386 330-250 104-418 297-455 525-58 367-57 365-266 412-170 37-218 76-310 246-88 160-165 226-365 315-325 144-655 818-670 1370-10 348 1175-545 1267-955a740 740 0 01 188-376c114-109 134-165 134-372 0-245 0-245 287-296 468-82 600-220 603-630 0-244 27-284 242-374 130-54 200-128 280-297 97-200 138-238 386-330 344-134 482-260 547-506 92-344 130-397 356-505 250-120 315-225 360-588Zm3482 3124c-35-490-693-220-693 280 0 161-80 231-271 231-381 0-636 286-776 871a3903 3903 0 01-100 360c-42 103-22 102 323-20 562-204 843-458 896-810 40-265 92-327 332-395 230-65 310-215 290-528Zm12598 590c-250-240-702 24-941 551-173 380-93 552 260 560 469 10 980-828 681-1114Zm-20112-1100c-127 0-330 126-360 220-15 47-185 248-377 447-854 880-670 1553 195 712 204-200 246-270 275-465a703 703 0 01 191-405c118-130 158-217 158-344 0-132-19-170-82-168ZM468 19102c214-213 328-115 458 395 131 510 120 545-163 547-160 0-265 96-330 302-85 261-300 283-395 40a570 570 0 01 92-528 1700 1700 0 00 166-397c43-149 120-314 172-366Zm35026 520c84-136 487 65 493 244 1 34 20 150 40 260 62 316-404 465-658 210-34-34 69-622 125-714Zm-17677-1256c-178-180-620-18-760 278-76 160-137 218-290 274-514 190-792 1047-374 1152 395 100 820-185 894-600 50-277 64-299 254-405 278-153 430-543 276-699Zm-7431-95c0-157-135-124-324 80-92 100-273 227-402 283-473 207-673 495-713 1025-54 716 944 104 1164-714a1876 1876 0 01 162-380 810 810 0 00 113-294Zm13328-2155c-97-97-216-61-343 106a697 697 0 01-290 217c-220 72-280 120-370 320-60 130-147 204-382 320-342 170-632 462-680 685-42 200-93 255-270 292-221 46-350 145-426 325-54 130-126 188-363 296-447 203-741 586-741 966 0 475 1245 85 1330-417 52-308 74-352 182-352 245-2 334-101 360-400 25-310 6-295 524-374 256-38 475-268 570-598 64-216 106-282 207-322 406-160 416-168 476-384a816 816 0 01 172-317c120-115 146-271 56-361Zm8662 2527c-230-80-606-3-705 144-447 664-60 1135 583 711 444-293 505-720 122-855ZM17864 15040c-98-98-184-62-416 178-125 130-248 235-273 235-148 0-556 200-600 295-272 600-177 828 284 678 428-140 528 93 205 477a1500 1500 0 00-200 358c-70 182-117 232-288 305a585 585 0 00-284 236c-138 255-259 358-513 440-334 106-386 168-386 464 0 583 660 460 867-163 59-177 120-262 250-344 234-149 285-219 325-456 28-170 60-218 194-285a3260 3260 0 00 350-216 3678 3678 0 01 387-236c201-102 397-369 460-628 20-78 108-180 225-260 324-217 343-525 32-525-147 0-260 110-307 295-60 240-730 362-762 138-30-216 83-428 300-555 216-123 278-299 150-428Zm13768 2510c-329-165-572-116-808 164-465 550-445 1033 45 1099 777 104 1407-938 763-1263Zm-5323-5765c-182-205-603-56-754 267a858 858 0 01-290 338c-206 137-325 320-325 500 0 162-120 240-373 246-266 6-302 26-444 252-75 111-157 180-250 200-195 40-274 133-310 380a1408 1408 0 01-41 212c-471 15-664 128-756 446-70 240-82 252-305 326a750 750 0 00-370 257c-72 100-190 192-250 208-62 17-194 123-294 236a3890 3890 0 01-420 395 1278 1278 0 00-474 810c-35 205-35 205-300 254-315 56-370 103-436 362-52 210-84 236-394 327-440 130-598 960-180 945 333-10 590-175 762-485 100-180 194-282 314-338 240-113 320-248 320-534 0-240 0-240 229-263 368-35 558-163 750-504 167-295 207-325 526-395 90-20 145-80 203-229 43-110 139-293 215-407 75-114 137-242 137-284-1-178 119-252 459-283 436-40 476-78 476-450 0-298 0-298 166-298 220 0 330-66 425-249 90-180 144-220 290-220 134 0 382-240 382-370 0-120 132-194 350-194 185 0 316-106 455-366 65-122 108-150 235-150 384 0 494 322 189 546-260 190-280 226-315 557-22 182-56 303-90 304-136 0-413 106-532 203a1430 1430 0 01-348 188c-220 82-240 110-350 475-36 118-80 150-267 197-300 74-360 132-360 350 0 473 680 596 777 142 55-259 98-308 327-380 174-56 253-114 324-235 50-89 193-258 316-375 130-126 221-256 221-316 0-220 34-240 350-216 396 32 530-6 570-160 16-68 134-239 262-380 340-377 274-730-160-862-260-78-345-180-460-563-56-189-135-380-176-425ZM2070 13838c76-192 600-65 680 163 40 110 112 170 306 256 166 74 286 166 350 268 53 85 180 207 283 270a955 955 0 01 283 288c108 192 174 230 395 230 207 0 330 100 397 323 70 230 93 246 422 282 290 30 286 25 358 577 52 406 133 452 578 323 450-130 490-120 627 163 87 180 147 237 350 327 307 136 330 305 106 778a1937 1937 0 00-140 353c0 208-587 270-746 68a462 462 0 01-106-177c-1-30-135-187-301-351-197-197-311-350-328-445-62-333-176-437-520-473-283-30-320-47-390-175-165-302-240-366-422-366-273 0-340-78-376-443-34-328-111-448-290-448-43 0-202-66-352-145-210-110-308-137-426-115-154 30-154 30-154-252 0-359-68-504-291-619-216-110-377-472-300-672Zm13847 3146c-227-205-559-69-635 262-20 86-110 179-275 286-588 380-800 1103-303 1040 320-40 662-207 681-330 63-400 155-586 336-679 283-144 375-416 196-579Zm17907 496c-150-315-735-80-974 390-180 353-65 584 290 584 376 0 835-655 684-974Zm-14818-317c-151-332-724 1-874 510-143 481-94 502 428 182 412-253 549-465 446-692Zm7565 44c-179-110-590-100-682 17-306 398 332 923 648 533 100-125 124-495 34-550Zm4240-367c-130-130-380-56-490 146a822 822 0 01-255 234c-334 196-340 530-13 530 150 0 202-25 290-145 60-80 191-188 295-240 272-140 350-360 184-525Zm-4000-1604c-20-248-304-289-553-78a2620 2620 0 01-368 250c-176 96-228 157-298 350-100 277-160 330-410 370-377 60-544 571-250 763 375 247 765 120 837-275 86-475 830-390 868 98 60 763 807 663 1002-134 99-403 64-478-176-384-475 186-830 127-836-138-8-370 4-430 106-540 67-72 88-151 78-282Zm-7291 1296c-184-184-420-47-420 242 0 158 55 195 234 156 270-60 350-233 186-398Zm15592-246c63-127 310-109 370 27 88 195-24 486-200 526-250 54-339-230-172-553ZM10 16276c-10-53 4-75 44-62 34 12 70 60 80 104 10 54-8 76-48 63-35-12-70-60-80-105Zm32001-545c1-156-529 23-688 233-70 94-78 364-10 405 150 94 700-406 700-638Zm-8187-3462c-127-202-650-118-753 120-50 118-140 255-206 316l-25 22c-68 63-168 208-230 337-113 237-133 253-374 313-308 77-355 114-493 386a1293 1293 0 01-204 300 968 968 0 00-182 317c-72 205-100 232-248 257-333 56-365 88-442 447-46 208-754 273-804 74-79-324-6-560 214-690 374-220 372-550-2-670-260-79-414 4-485 264-40 143-90 210-215 271-274 140-344 100-390-224-60-429-30-404-444-369-430 36-453 18-378-283 45-176 87-229 260-330 180-107 204-140 204-286 0-450-545-542-796-135a819 819 0 01-273 253c-647 330-590 1050 73 930 474-85 480-83 480 128 0 363 150 540 460 540 294 0 318 25 354 344 52 447 96 487 590 540 244 28 263 39 367 229 273 497 794 405 877-153 30-190 45-210 225-268 160-52 214-103 304-284 110-220 110-220 388-220 270 0 508-135 508-288 0-22 104-116 232-208 183-132 245-210 286-364 80-303 105-330 375-408 210-60 270-103 350-250 54-95 175-244 270-331 177-163 237-460 127-634Zm-6750 2036c-25-410-589-337-904 117-147 210-155 214-613 307-85 17-104 66-130 337a4593 4593 0 01-84 520c-80 315-20 338 460 174 500-170 558-220 634-540 56-240 77-267 293-384 305-166 360-247 340-530Zm11960 543c-374-295-1047 73-1047 572 0 504 343 553 840 120 383-334 437-510 207-692ZM3163 9766c105-105 760 240 880 466 80 150 170 200 505 274 90 20 173 99 269 254 153 250 293 334 550 334 186 0 576 355 857 782 114 172 160 200 395 250 260 54 267 60 378 310 114 258 188 314 556 423 85 25 190 119 272 240 160 239 257 295 568 334 232 28 240 34 360 280 150 310 220 353 535 320 430-44 455-73 435-517-26-616 740-726 790-113 24 300 24 300-250 410-423 168-466 277-348 888 50 260 32 304-166 420-98 60-170 130-170 160 0 450-851 100-984-390-63-230-184-340-453-420-194-50-224-80-321-300-124-280-288-427-520-470-165-31-297-168-297-308 0-144-204-320-468-403-230-74-267-104-360-300-122-260-254-360-710-537-340-131-414-194-630-533-75-117-172-188-342-250-224-80-242-100-350-372-105-274-123-293-360-384-344-133-772-698-632-838Zm8895 4992c282-103 396-55 458 192 76 303-212 514-494 362-158-85-132-492 36-554Zm24101-303c65-111 341 228 341 419 0 217-144 492-250 477-210-30-267-589-90-896ZM3375 12030c368-87 450-63 556 164 84 178 143 230 391 348 465 220 709 633 672 1140-20 283-285 315-604 72a5750 5750 0 00-393-270 1461 1461 0 01-294-242 704 704 0 00-270-180c-212-70-245-144-261-574-15-402-13-406 203-458Zm16076 1210c-194-123-501 73-501 322 0 177 222 222 468 94 127-66 150-342 33-416Zm1972-1880c-112-200-530-62-475 158 43 175 97 222 298 256 349 60 249 630-130 740-370 108-646 1022-317 1054 285 27 734-268 849-558 86-214 133-268 326-368a990 990 0 00 450-530c8-20 108-58 223-84 460-104 387-655-97-722-268-37-320-8-398 225-110 325-752 405-710 88 13-100 5-215-20-258ZM1319 13115c70-70 245-67 305 6 81 98 116 303 58 340-153 94-486-223-363-346Zm15338-11710c490-168 854-60 1025 304 120 257 196 290 677 290 276 1 547 233 632 540 70 258 33 277-447 225-649-70-683-43-825 666-54 272-63 284-290 398-170 85-256 165-316 293-70 150-105 176-234 176-426 0-531 90-560 470-13 163-13 163-423 187-516 31-622 112-617 470 0 410 120 484 700 447 520-33 574-8 574 267 1 131 94 223 344 340 267 124 325 537 76 537-26 0-121 74-211 165-292 293-697 228-730-118-15-163-16-164-294-194-323-34-420-120-501-445-67-264-254-423-544-464-528-75-536-80-692-346-370-628-1102-483-1108 220-3 341 57 386 525 386 427 0 478 32 609 387 120 326 195 371 635 387 404 14 418 21 489 246 75 233 160 292 427 292 214 0 369 82 369 196 0 612 930 692 1025 87 22-140 63-263 90-273 28-9 120-67 205-128 438-319 925-412 1024-197 106 235 20 438-266 620-140 90-268 194-282 230-13 37-144 113-290 170-341 134-414 223-454 550-42 348-77 386-366 386-450 2-546 97-546 537 0 314 72 372 426 342 480-40 560-87 560-336 0-347 52-424 330-488 368-85 530-207 670-500 83-176 167-278 274-333a1920 1920 0 00 325-233c147-132 320-205 776-330 38-10 59-110 59-290 0-325 48-385 310-385 348 0 430-57 466-327 36-270 46-280 393-376 223-62 269-95 365-270 360-655 1520-207 1254 485-30 80-30 80-531-6-365-62-430 142-156 491 72 92 146 215 164 272 130 418 770 342 882-103 63-253 67-256 597-477 750-314 556-916-337-1043-386-55-474-102-570-303-438-926 590-844 1240 100 316 456 763 445 987-26 200-418 894-344 869 93-15 261-34 281-394 412-154 56-252 210-252 397 0 203 53 256 333 335 318 90 330 100 392 413 54 267 165 325 526 276 446-70 485-580 58-750-170-70-190-90-174-229 23-236 230-230 478 13a1056 1056 0 00 440 266c275 81 330 155 370 488 28 229 28 229-327 220-432-10-470 20-500 406-23 290-23 290-386 278-528-20-690 130-786 730-50 320-56 325-370 384-311 60-375 112-375 310-2 190-100 253-402 253-231 0-233 2-547 388-217 267-598 216-598-80-1-228-97-322-358-352-375-43-354-488 32-642 207-83 224-150 130-516-58-235-154-298-454-298-245 0-326-80-380-372-60-315-78-326-1110-670-296-100-380 100-162 379 369 472 100 703-365 313-395-330-753-274-814 130-53 346-30 396 223 460 395 100 503 354 225 530a600 600 0 00-234 259c-52 148-157 213-433 258-193 30-330 160-433 412-133 323-653 390-837 108-230-353-870-380-811-34 38 238 156 334 453 368 286 33 324 66 325 286 0 114-47 205-187 356-103 112-187 226-187 254 0 83-223 230-397 264a470 470 0 00-290 198c-75 100-228 210-381 280-315 141-356 194-456 600-107 434-177 497-553 497-484 0-522-524-48-657 598-168 815-718 343-868-325-103-504 58-642 578-110 402-61 350-407 460-260 82-286 102-342 276-82 250-138 297-391 332-402 55-366-332 59-650 157-117 176-154 188-374 13-217 28-250 130-278 814-225 839-242 885-627 42-360 57-380 315-420 392-58 635-572 344-728-270-145-791 135-791 423 0 338-811 372-833 35-17-274 29-360 257-480 228-120 258-290 102-576-171-313-557-297-693 30-70 170-107 184-540 203-330 15-330 15-315-220 15-283-10-323-274-457a604 604 0 01-312-332c-125-260-313-392-617-434-360-48-367-54-423-326-63-304-192-425-497-470-170-27-240-68-357-216a812 812 0 00-378-263c-127-45-265-130-307-190-200-285-295-370-470-424-176-54-194-76-265-320-83-284-40-273-792-189-82 10-92-15-84-194 24-514 610-590 758-100 56 187 56 187 427 187 373 0 373 0 463 180 97 190 215 263 504 317a940 940 0 01 343 164 933 933 0 00 397 170c220 36 240 50 340 260 124 264 255 330 570 288 308-40 568 97 752 396 189 308 312 358 690 283 324-64 384-37 385 170a300 300 0 00 310 305c229 0 488-116 489-220 0-46 13-130 28-187 50-185-165-342-468-342-275 0-270 6-333-310-52-266-157-317-576-281-470 42-553-14-617-410-60-364-93-395-474-433-288-28-337-48-422-167a967 967 0 00-315-240c-243-118-323-331-171-457 103-86 470-80 572 10 184 160 630 87 814-135 110-132 54-444-110-612a1207 1207 0 01-223-354c-60-165-92-200-210-213-290-30-480-108-636-260-130-127-214-164-427-190-553-70-703-615-196-710 283-52 374 0 490 286 129 320 134 323 537 352 328 23 328 23 343 210 19 268 68 305 400 305 183 0 324 26 380 70 439 329 1053-170 653-533-358-327 12-515 565-286 347 143 554-150 282-400-327-300-250-493 197-493 365 0 365 0 550-190s185-192 676-177c492 15 492 15 472-150-55-463-40-533 137-594Zm18018 10272c0-209 398 292 684 860 196 390 197 484 11 640-465 393-910-230-670-936 70-206 76-274 30-374a613 613 0 01-55-190ZM8960 12591c58-94 213-38 303 109 114 188 115 206 6 234-163 43-390-210-309-344Zm19980-1269c-70-220-520-70-656 217-67 140-107 166-340 214-503 101-613 254-456 630 194 467 788 401 888-100 50-250 70-280 263-392 220-129 358-389 300-569Zm-20552 520c231-103 295-80 332 117 60 313-103 489-392 425-317-70-282-388 60-541Zm-6017-439c30-19 108-22 186-7 295 57 446 495 171 495-260 0-499-335-346-488Zm25695-990c-226-225-555-150-657 147-60 174-75 185-313 218-397 55-442 73-500 200-180 399 50 713 586 800 241 38 294-31 334-435 33-319 33-319 288-350 383-47 510-330 262-580Zm-20570 782c53-14 138 110 138 199 0 120-178 310-290 310-210 0-193-442 20-482l132-27Zm16520-295c79-57 328-14 373 57 97 160-210 440-368 338-97-64-100-337-4-400Zm9278 117c36-92 260-85 296 10 42 110-48 228-177 228-116 0-169-108-119-238Zm-474-387c97-120 188-130 292-26 120 119 66 213-157 280a1016 1016 0 00-350 197 920 920 0 01-229 165c-133 46-100-140 40-236a1980 1980 0 00 405-380Zm-10895 190c-252-26-400 228-188 324 200 92 363 16 346-160-14-130-36-153-159-165Zm-15300 65c105-105 243-95 305 22 85 160 22 238-177 222-198-17-253-120-129-244Zm-4845-123c26 0 47 22 47 47 1 26-20 47-46 47a47 47 0 01 0-94Zm31764-908c196-197 804 577 690 876-61 158-442 126-442-38 0-40-60-190-140-336-132-257-170-434-101-502Zm-9964-420c-20-155-338-240-500-132-140 90-50 404 120 420 232 23 392-100 374-287ZM2300 9204c100-41 130-34 228 65 174 170-26 380-217 221-83-70-90-264-10-296ZM18643 9200c-110-43-180-35-272 33-120 88-82 286 58 306 200 29 390-270 210-339Zm-2802-798c-390-185-905-25-1062 330-224 508-187 607 267 721 789 198 1485-723 795-1051Zm15980-427c0-98 65-86 170 32a1280 1280 0 00 328 205c280 126 332 180 563 612 293 543 135 618-378 180-214-184-258-250-306-465-65-292-72-305-240-412-72-46-130-114-130-152Zm-3568 553c-80-64-399-98-596-64-400 69-218 755 200 755 335 0 626-510 396-691Zm-4133 274c-196-154-290-130-350 93-75 282-40 331 224 314 283-18 350-230 126-407Zm-2793-283c314-183 631 80 402 333-90 97-349 115-430 30-88-85-70-308 22-363Zm9824-20c45-44 146-38 177 12 46 75-27 192-120 192-86 0-124-136-57-203Zm-6420-1713c-310-311-1014-100-1097 331l-79 404c-24 122-184 198-417 198-434 0-639 478-280 653 447 218 820 102 820-255 0-330 576-377 860-70 234 254 772 257 843 4 104-376 63-484-208-544-169-37-258-159-320-440a714 714 0 00-122-280Zm5357-896c0-150 375 73 550 326a726 726 0 00 326 264c395 156 542 640 200 665-223 17-276-30-370-323-73-222-110-268-322-390-222-126-384-356-384-542Zm-10703-94c440-182 597 226 166 432-268 128-289 156-340 468-26 192-47 202-454 250-510 57-510-400-2-540 356-97 404-135 477-377 34-118 95-206 160-233Zm8598 6c323-129 747 220 473 390-23 14-64 118-93 232-63 250-133 282-470 213-360-74-385-94-485-380-150-431-148-440 177-422a1280 1280 0 00 398-33Zm-8230-1458c196-163 220-115 120 246l-108 395c-8 30-115 70-240 85-318 42-420 93-503 255a323 323 0 01-202 170c-434 97-524 197-525 585 0 340-470 293-856-86-167-163-200-175-540-197-360-24-360-24-391-305-53-480 670-646 883-202 195 410 678 435 876 47a542 542 0 01 288-245c205-88 266-170 322-432 25-116 48-129 226-130 260 0 515-73 650-186Zm584 661c552-282 660-220 440 260-173 384-707 435-779 76-28-144-22-150 340-336Zm8687-110c233-79 643 184 643 412 0 130-93 147-385 66-253-70-440-417-258-479Zm-18438-124c441-128 610-37 554 300-35 212-245 321-566 294-277-23-266-514 12-594ZM6940 4600c35-91 259-86 364 9 46 42 195 113 330 157 257 83 367 227 303 394-66 171-547 30-547-162 0-27-94-90-208-142-230-102-280-154-242-256Zm19416-384c77-96 442-73 550 35 190 190 117 423-168 537a456 456 0 00-271 245c-80 168-80 168-321 140-434-52-540-325-183-468 197-80 260-143 311-313 20-65 56-144 82-176Zm-10376-560c-53-282-735-184-801 116-70 282-60 278-350 303-740 67-1115 1020-403 1020 533 0 728-152 766-600 27-314 27-314 402-338 412-26 454-81 376-500Zm7380 484c60-25 310 0 466 46 120 34 467 570 450 690-20 145-166 116-543-108-417-247-430-261-430-445 0-87 26-170 58-183Zm-4987-317c348-140 652-160 640-40-40 379-233 678-473 730-173 40-285 100-395 218-153 160-647 286-787 200-112-70-50-400 82-451 315-123 425-200 516-360 78-135 160-194 417-297ZM9607 4240c314-204 780 24 698 342-50 193-668 378-766 230-56-86-3-525 68-572Zm10731-2067c134-134 672-25 764 155 104 205 180 257 516 357 172 50 250 107 328 230 133 218 220 258 552 258 317 0 360 34 395 310 33 264 3 294-362 371-442 93-515 151-591 476-103 434-854 451-903 20-40-344-95-393-464-402-340-8-406-38-406-187 0-220-137-312-516-346-640-57-661-519-25-560 403-26 476 10 522 255 42 227 131 297 376 297 620 0 700-638 100-799-290-77-430-290-286-435Zm3994 1434c235-123 480-4 457 222-15 140-369 284-500 200-124-77-96-350 43-422ZM8697 3716c131-158 378-60 378 149 0 98-18 109-170 96-203-17-300-133-208-245Zm12970-307c-252-135-534 28-509 294 16 166 299 237 504 127 130-70 134-352 5-421Zm5765 193c76-76 224-50 287 50 75 120-63 246-224 206-130-33-161-157-63-256Zm-9697-1480c-72-90-498-94-890-10-256 53-256 53-313 393-80 477-100 523-241 556-199 46-336 152-336 260 0 160 357 90 513-98 90-108 180-155 363-190 850-158 1220-532 904-912Zm-4868 724c240-57 266-55 347 26 228 229 24 425-474 454-337 20-227-397 127-480Zm12284 280c116 0 165 19 152 59-10 32-80 58-152 58-73 0-141-26-152-58-13-40 35-60 152-60Zm-2014-257c96-76 167-76 180 0 5 25-54 52-132 59-134 12-136 10-48-60ZM9934 2610c202-82 405-13 405 138 0 102-89 144-303 144-264 0-332-190-102-282Zm1855-320c340-96 468-46 468 183 0 160-72 220-316 258-514 83-645-299-152-440Zm13994 227c0-110 147-130 228-31 70 80 30 124-110 124-77 0-110-26-110-93Zm-1420-938c138 0 437 130 437 190 0 20 3 50 6 70 3 20-75 77-174 128a614 614 0 00-240 223l-120 257c-47 100-97 131-232 142-440 38-529-390-122-584 170-80 230-140 273-270 43-133 79-167 173-167Zm-10660 337c60-135 510-168 611-46 110 132 43 518-92 533-357 40-640-224-520-488Zm-3064-46c148-113 488 2 488 169 0 182-380 195-500 16-75-117-74-126 6-186Zm9065-1020c87-35 90-35 390 20 602 111 800 515 285 585-356 50-452 96-452 222 0 225-490 312-868 153-392-164-120-500 368-450 145 17 220-90 220-303 0-116 25-209 59-224Zm-6882 400c82-82 438-70 526 18 173 174 54 350-237 350-280 0-444-207-286-367ZM18200 734c183-58 196-53 163 60-70 242-448 385-658 247-214-140-125-255 206-264 95-3 225-22 290-43Zm-2874 109c148-110 370-62 370 79 0 104-22 119-200 132-232 16-325-98-170-211Zm-3180 100c33-84 210-74 240 14 12 38-30 59-124 59-110 0-137-17-115-73ZM20847 32c17-28 66-40 108-27 900 272 935 293 879 518-67 266-484 261-782-8-171-155-268-382-205-483Zm-2340 202c97-147 570-159 698-18 210 232-86 400-740 423-103 0-80-227 43-410Zm-4166 80c73 0 117 26 117 70 0 44-44 70-117 70s-117-26-117-70c0-44 44-70 117-70Z" fill="#12110C" id="a" data-figma-scatter="f0.31000000238418579_w0_aj180_sj0_r0_s11850498061325476222_sw32"/></defs></svg>
