<svg xmlns="http://www.w3.org/2000/svg" fill="none" viewBox="0 0 17300 11500"><path d="M15833 93a1070 1070 0 01 827-17l32 14 25 12a862 862 0 01 420 464c50 130 62 250 65 323a2020 2020 0 01-33 418 8762 8762 0 01-230 920 69046 69046 0 01-840 2570c-326 955-663 1937-928 2780-275 875-440 1502-463 1792a800 800 0 11-1594-132c41-500 268-1305 530-2140 272-866 618-1870 940-2816l158-464a113300 113300 0 00-674 1044c-604 945-1224 1925-1738 2630-253 347-510 670-750 894a1684 1684 0 01-475 326c-207 88-602 173-966-100-248-185-429-484-547-700a9780 9780 0 01-422-895 34266 34266 0 01-750-2009 77690 77690 0 00-97 1092c-10 110-99 970-247 1720-70 353-170 777-318 1075-40 80-100 184-183 281a960 960 0 01-469 306c-277 77-540 11-733-116a1087 1087 0 01-330-348 21589 21589 0 00-3600-4380c-59-54-147-156-198-215-74-84-164-188-270-307a21500 21500 0 00-292-323c186 2237 612 4440 1168 6657a800 800 0 01-575 970 800 800 0 01-970-580C614 8108 108 5346 0 2490c-5-174 0-656 423-946C852 1250 1300 1430 1430 1490c337 151 690 470 948 722a16480 16480 0 01 794 842c110 124 206 235 276 315l91 103-8-7a23435 23435 0 01 3070 3500 19700 19700 0 00 125-980l1-10v-4a64619 64619 0 01 335-3216c54-400 104-730 149-980 37-210 84-457 149-612a800 800 0 01 368-403 800 800 0 01 700-20 800 800 0 01 332 276c48 70 75 134 78 140 17 38 30 77 39 100l68 202c53 163 127 398 215 677 178 561 420 1316 682 2090a35149 35149 0 00 804 2172c65 156 128 298 186 423a10400 10400 0 00 205-271c478-659 1064-1585 1683-2550 607-950 1244-1940 1796-2666 272-356 552-688 820-922A1897 1897 0 01 15833 90" fill="#DB2D13"/></svg>
