<svg xmlns="http://www.w3.org/2000/svg" width="173" height="115" fill="none"><path fill="#DB2D13" d="M158.331.926c1.91-.8 4.989-1.53 8.27-.167l.318.139.248.118c2.526 1.249 3.702 3.36 4.198 4.647.504 1.305.62 2.501.655 3.223.071 1.478-.127 2.985-.332 4.185-.433 2.528-1.275 5.735-2.291 9.198-2.056 7.01-5.186 16.25-8.412 25.706-3.255 9.543-6.629 19.364-9.277 27.795-2.748 8.748-4.387 15.024-4.628 17.922a8 8 0 1 1-15.945-1.325c.416-5.004 2.687-13.048 5.308-21.392 2.721-8.663 6.173-18.71 9.399-28.166.534-1.566 1.059-3.116 1.576-4.639a1133 1133 0 0 0-6.739 10.443c-6.041 9.447-12.241 19.243-17.382 26.293-2.53 3.47-5.108 6.704-7.51 8.949-1.147 1.071-2.766 2.411-4.739 3.254-2.072.884-6.014 1.735-9.662-.992-2.481-1.854-4.286-4.85-5.47-7.005-1.392-2.533-2.815-5.629-4.212-8.955-2.486-5.92-5.09-13.057-7.514-20.087-.327 3.43-.653 7.077-.965 10.923-.09 1.11-.984 9.701-2.47 17.201-.698 3.525-1.7 7.766-3.18 10.746-.402.809-.987 1.836-1.823 2.812-.783.915-2.303 2.39-4.691 3.058-2.768.774-5.394.112-7.335-1.156-1.671-1.09-2.698-2.515-3.288-3.48-9.48-15.495-22.61-31.393-36.005-43.8-.592-.548-1.47-1.563-1.987-2.153-.733-.837-1.64-1.88-2.694-3.068a215 215 0 0 0-2.923-3.23c1.861 22.371 6.116 44.4 11.677 66.564a8 8 0 0 1-5.813 9.706 8 8 0 0 1-9.706-5.812C6.14 81.091 1.087 53.474.012 24.906c-.066-1.751-.007-6.568 4.222-9.47 4.284-2.94 8.757-1.136 10.065-.55 3.375 1.514 6.904 4.711 9.478 7.22 2.872 2.797 5.748 5.956 7.94 8.426 1.102 1.24 2.067 2.349 2.764 3.145.686.783.92 1.035.909 1.034l-.084-.076c10.94 10.133 21.672 22.37 30.699 35.01a197 197 0 0 0 1.259-9.804l.01-.108.002-.036c1.071-13.178 2.278-24.149 3.346-32.16.534-4.001 1.04-7.309 1.484-9.808.371-2.093.848-4.557 1.494-6.114a8 8 0 0 1 3.68-4.024c2.771-1.452 5.452-.907 7.008-.205a8 8 0 0 1 3.308 2.762c.48.694.754 1.34.782 1.403.169.38.31.766.389.987.188.525.424 1.237.683 2.034.528 1.623 1.271 3.978 2.154 6.764 1.78 5.615 4.188 13.167 6.816 20.9 2.638 7.763 5.451 15.57 8.036 21.726.655 1.56 1.28 2.976 1.867 4.23a104 104 0 0 0 2.046-2.713c4.777-6.55 10.644-15.813 16.829-25.486 6.07-9.492 12.445-19.376 17.958-26.61 2.721-3.568 5.526-6.888 8.212-9.226 1.323-1.15 3.004-2.41 4.963-3.231"/></svg>