<svg xmlns="http://www.w3.org/2000/svg" fill="none" viewBox="0 0 23300 12100"><path d="M19362 80c50-1 33-72 845-55 520 26 29 74 906 95-670-104-3-68 522 3 30 3 118 16 230 34l166 25c50 7 102 10 64 7h83c34 0 51 0 131 10a1240 1240 0 01 215 55 1128 1128 0 01 333 186 1135 1135 0 01 385 587 1150 1150 0 01-94 830c-92 173-206 276-240 308-34 30-63 54-90 74-100 75-173 110-196 120a2154 2154 0 01-192 85l-248 87c-103 36-253 116-380 157-90 28-168 34-294 74-612 195-1200 380-1806 570 330-190-284 57-315 64-149 24 495-192 236-122a91400 91400 0 00-1070 362c295-90-364 198-499 216 80 48-1637 507-1880 628-44 22 213-44-226 116a9280 9280 0 01 258-16c165 13-230 44-316 37l-216 77c-88 30-63-4-108 16a100 100 0 00-14 10l-30 20c240-12 463-17 497-10 70 16-380 41-297 68 324-24 636-55 968-72 135-6 68 21 128 18a9200 9200 0 00 485-50c-56-28-1520 82-1136 16 73-14 340 21 293-40 800-32 1467-105 2548 35a1512 1512 0 01 1273 1670c-70 464-181 582-258 727a2332 2332 0 01-482 557c-260 210-345 236-456 300-107 56-193 97-283 140-173 80-333 145-492 211 148-75 301-148 472-232a7770 7770 0 00 280-144c110-65 196-90 456-302a2326 2326 0 00 474-548c76-142 185-258 254-710a1480 1480 0 00-1244-1635 5818 5818 0 00-953-72c-120-2-503-2-455 30 399 2 796-22 1405 64A1455 1455 0 01 20222 6400c-73 436-178 550-253 688a2258 2258 0 01-463 532c-176 146-261 187-340 233a3759 3759 0 01-204 106c-23 10 47-58-40-20-174 83-600 320-678 338-14 4 224-142 137-130a320 320 0 00-215 106c-44 48-87 103-170 136-130 55-1010 327-1203 444-207 130 633-213 587-157-494 230-1013 395-1497 570l168-16c-79 20-152 30-230 36l-85 36c5 0-4 3-20 8l-24 8c-8 3 58 0 5 30l85-8c588-53 31-30 256-66 126-19 797-46 774-85 230-24 97 10 126 8 30-2 480-48 630-49 20 0-36 23-17 23 36 0 477-30 496-30 10-4-98-16-55-20 50-10 480-19 504-20 32-8-498 12-410-8a45200 45200 0 00 807-30c-40 2-280 0-362 0 37-30 552-17 377 0 111-9 35-16 97-24 17 0 176 6 207 4 5 0-159-18-127-20 60-10 543 30 581 37 110 16-280-13-314-3 5 1 327 46 333 50 20 16-350-25-309-5q137 14 273 30c-350-20-1007-40-1172-12 521-18 1070 25 1067 66 0 16-224 14-216 20 34 16 343 18 355 20l13 5c0 7-442-12-465-6-36 7 160 45 160 52-7 0-320 0-215 15 107 13 380 24 390 27 52 7-425-3-440 4-7 2 250 20 257 25 5 4-189 8-265 21-56 10 110 18 81 20-20-3-470 4-492 10-33 2 73 10 58 14-22 4-166 6-147 10 15 1 575 28 572 41-6 15-598-12-47 46 2 0 136-6 140-5 82 12-345 33 177 30-970 32-120 24-264 55-55 10-428 34-430 37 37 13 155-6 196 0 22 2-310 38-235 44 40 2 392-20 407-17 140 4-30 20 0 26 20 3 233-3 240-2 7 0-280 28-340 40-46 6 125 5 93 10-190 21-600 21-205 40 24 0 171-10 176-10 92 7-180 25-228 40-83 26 307-15-17 24 244-6 380-16 665-29-756 41-1037 123-300 71-163 15-150 35-220 40-50 4-453 20-266 62 23 5 265-30 190-6-580 60-15 10-12 13-4 20-1426 212-1676 274-284 60-538 150-598 160-207 45-37-10-85-10-46 4-627 160-657 164-117 15-3-32-16-30-142 12-929 190-1152 226 7 16 455-70 180 10-318 98-348 26-357 24a151900 151900 0 01-998 192l-15 2c-1096 200-2250 478-3449 670 32 52 1023-167 1043-168 123 15-1176 266-1685 300a8400 8400 0 00 390-20c-120 42-307 70-556 76-145-2-236 20-565-50a1300 1300 0 01-165-54 1140 1140 0 01-300-176 1100 1100 0 01-369-620 1050 1050 0 01 74-635c234-428 318-405 413-500 72-60 135-106 191-150 135-100-145 60-146 64 160-150 398-270 238-132 343-250 302-178 560-316 16-6-104 27 92-87 93-57 584-294 640-344 22-23-267 0-263 97-555 226-155 120-365 223-36 22 30-84-514 253 75-150 720-415 816-470 207-126-697 273-853 458 47-104-63 20-303 182l-170 120-110 78c-36 36-44 10-225 244-59 83-250 380-229 775 12 477 367 830 482 902 330 220 384 185 480 217 88 20 114 20 153 24l87 5c87 0 162 6 355 18-200-57-10-62 200-67l587-10a9120 9120 0 01-582 88 3900 3900 0 01-355 24 2500 2500 0 01-180-4 1780 1780 0 01-80-7c-63-7-108-10-216-37-100-32-204-40-463-216a1420 1420 0 00 275 166c58 27 110 47 156 63a1400 1400 0 01-190-68 1290 1290 0 01-355-232 1299 1299 0 01-396-742c-40-310 25-527 95-692a1360 1360 0 01 165-278c46-60 100-117 130-147a1800 1800 0 01 162-145c-29 30-58 64-88 100 40-37 75-70 110-97 522-430 605-380 654-417a20520 20520 0 01 1520-738c71-30 3-54 536-245 170-60 27 40 212-44 200-190 221-114 293-143a2900 2900 0 00 203-93c74-38 117-64 127-70 163-68 381-155 586-240-8 0-13-10-36-5l-80 12c-180 32-516 90-697 94 454 7-419 84-634 87-330 10-312-34-454-36-545-10-1374 109-1789 22 23 93-718-34-1050-28-260 3-636 72-285 102-446 4-916 33-1326 54-68 4 25-27-92-20-10 0-23 28-120 35-812 66-420-10-573-18a2300 2300 0 00-190 0 28200 28200 0 01 1166-80c-130-58-1059 56-1319 68-9 0 20-34 10-33a5065 5065 0 00-562 80l-68 25c0 3 5 6 20 8 22 4 140-7 312-26 103-11 232-25 373-38-92 15-19 45-35 47-80 14-205 25-332 35-212 17-443 30-557 38l-38 10c-10 8-10 17-14 18a500 500 0 01-56 0c-39 10-80 22-126 33-10-10 20-25 68-40l-20-6-138 38h-3l-25 7H3700c60 9-798 248-604 232-248 89 22-62-163 10-65 24-104 115-465 169-107 16 6-32-14-34l-43 5 76-22c14-7 41-12 95-34-12 18-30 37 67 10 25-5 413-153 390-155-6 0-120 40-140 42-80 7-50-26-60-24l-29 8 10-6a1400 1400 0 00 60-42c130-38 224-65 236-67 26-3 32 63 60 62 14-1 413-138 466-147l36-5c-15 0-7-7 14-15-84-20 30-34 175-50 56-12 101-20 100-10h-2l75-7c73-20 146-36 191-46-50-5-260 10-530 37-255 77-565 169-785 222 50-40 106-87 170-157l-56 6c-67 68-126 110-173 147l-35 25-32 6c40-24 118-75 218-175l-45 5c-132 130-218 155-230 170l-20 14-25 2q10 2 10 6l-68 34c-50 17-130 40-220 63a1260 1260 0 00 430-211c26-20 55-44 87-73l-180 20a1195 1195 0 01-133 80c78 3 50 10-38 20l-9 3a1200 1200 0 01-55 24c-20 0-90 9-164 20a1200 1200 0 00 90-27l16-6-104 7A4500 4500 0 01 2200 8300h-120a1800 1800 0 01-83-3 1300 1300 0 01-98-10 1160 1160 0 01-208-52 1118 1118 0 01-112-50c-102-57-286-127-484-454a1147 1147 0 01-127-728 1100 1100 0 01 267-547 1110 1110 0 01 284-226c40-24 72-40 100-50a1213 1213 0 01 193-68l350-80h-5a100 100 0 00 11-3c46-10 41-20 10-23-15-3-38-5-49-8a477 477 0 01 45 0 900 900 0 01 104 12c131-26 184-30 60 12l70 18 4 2c55-17 98-30 118-38 5-2 5-10 5-22a1600 1600 0 00-60-22l-39-12a1300 1300 0 00-114-30c-63-10-77-10-97-14a1100 1100 0 00-43-4l-36-2h-16l70-3 71-4a1297 1297 0 01 198 47l66 24c0-14 0-25 7-28h3q-23-10-38-14c-30-10-58-20-82-26l-40-10h34l20 5 17-8 60-5-26-10 106-36c-10-5-14-10-4-10a600 600 0 01 78-13c42-12 84-24 120-32-153 20-310 35-544 37h-10c230-42 95-82 383-93l-72 27c170-23 355-40 548-58 348-97 1177-296 983-200-57 16-717 152-383 110 42-4 273-64 430-96l72-14c38 0-5 20-64 43-79 23-176 54-267 84l110-13c125-16-27-40 144-50a1140 1140 0 01 157 3l26-7c100-28 123-65 134-68 191-54 90 3 153-13 35-10 410-170 358-62 1280-397 333-150-447 44 235-90 733-200 951-264 78-23 26-40 156-80 273-83 1603-393 1952-477-210 68-140 83 24 38 161-45 14-52 44-65 33-13 806-196 930-234-572 167-433 165 58 38l-204 84c282-90 900-203 1062-262 25-10-76-10-60-16 140-50 645-155 664-170 18-10-198 22-123-10 16-4 230-23 428-85 73-23 22-36 40-42 153-53 74 12 356-70a2700 2700 0 00 183-60c135-50 270-103 478-146-990 203-164 8 240-107 63-18 0-50 390-120-803 278 247-16 450-65 10-3 22 25 124 0 8-2-9-18 84-43 880-246 321-77 494-102 73-10 490-160 604-198 30-8 23 15 125-17 180-58 335-132 453-173 14-3 25 27 250-59 60-24 130-60 35-38-310 73-859 306-1206 373-315 64 651-226 703-248 20-6-167 70 28 10 132-40 337-144 540-222-488 77-1240 202-1475 228 202-28 1196-223 1175-233-6-4-253 20-300 34-86-4-363 92-519 107-18 0 46-40-232 0-95 14-343 77-598 93-360 70-2288 364-2415 416-4 2 270-35 88 8-240 57-32-32-316 12-43 10-830 150-857 157-234 70 461-37 451-32-24 12-597 114-620 116-23 3 437-113-120-4l194-20c-263 54-294 32-358 40-200 30-409 104-738 110-87 2 51-35 40-35-107 0-228 66-387 58-10 0 340-80-282 24l130-12c-86 22-714 127-802 138-249 33-36-20-285 20 166 5-594 123-556 91-95 50-750 117-1057 155-192 25-586 85-648 90-77 7-57-16-193-6l-105 13c-155 20-430 50-686 62-69 3-212-15-89-36 218-37 625-53 618-72-8-20-556 50-703 62-684 60-295-3-309-8-50-10-425 30-439 30-63 0 198-40 202-50 2-13-357 4-277-10 115-18 447-35 470-40 271-43-109-30-209-34-30 0 90-20 64-20-400 26-80 50-343 75-237 23 63-30 55-30-14 0-292 30-338 30-19-2 703-120 670-133l-696 90c-19-20 314-40 351-48 70-12-128 0-120-8 3-5 234-47 23-30-70 7-215 40-475 54 890-123 274-64 243-67-27-4 400-73-120-8-28-38 10-14 155-40 182-30-239 7 421-62-38-15-570 50-597 53-26 0 92-23 50-20-504 27-160 1-307-4-10 0-483 50-126 2 654-89 922-95 1030-169-488 37-1065 148-1210 167-225 28 7-12-22-12l-205 25c-144-25 860-110 1172-157l-256 13 343-45c-544 56-16-3 111-57 30-12-325 50 80-28-304 35-209 15-478 60 4-14 615-112 854-153-850 98-362 87-1100 157-136 36 215-14 187-8-98 24-345 40-630 114-47 12 156 4-140 40-35 5-226 14-220 13 20-15 207-35 215-40 2-7-206 23-206 22-10-14 174-28 146-30-58-4-810 63 170-56-810 123-104 30 214-18 77-12 102-25 213-43 150-24 324-43 398-55 82-13-388 28 290-57-348 25-954 130-1294 160-688 62 473-100 592-120 30-5-76-3-55-7 35-5 697-90 758-110 63-20-238 34-262 26-10-6 774-130 347-75-293 38-840 144-935 125 436-63 870-127 1305-192-236 20-480 43-720 65 490-74 911-120 1375-206-996 108 53-42 316-84l55-10-56 2c-126 7-395 25-452 30l447-78c442-75 915-170 416-118a3200 3200 0 00 416-88c-40-10-688 110-586 75 121-40 297-42 485-77 970-187 686-240 1663-422h-58c1060-216 2120-445 3184-670 408-130 1510-400 2058-520 110-24 654-122 695-127 74-10-340 83-150 56 40-7 955-194 886-202-105 20-423 100-477 105-380 37 2460-524 2606-556l-195 13 546-90-218 61c210-33 490-90 685-115 32-5-47 30 28 17 75-12 56-36 166-58 87-17 397-60 640-90 103-13 194-24 252-33 740-107 1493-206 2260-232-788 65 8 36 230 20M7871 10422c-50 168-86 391 7 679a1100 1100 0 00 197 351c80 93 128 132 189 178 250 172 338 172 435 203 168 40 256 40 333 46 160 7 266 3 377 0-28 10-170 28-400 15-122-17-240 10-590-154a1130 1130 0 01-331-260 1118 1118 0 01-260-568c-32-304 24-435 45-490m2494 1371c-66 25-205 60-301 86 20-30 78-57 300-86m-2440-1303c-14 33-67 130-30 447a1070 1070 0 00 297 560 1070 1070 0 00 318 216c140 61 264 81 329 90q57 6 110 8h86l80-5 66-7c170-25 268-59 220-59-70 0-193 16-380 18h-70l-82-7c-32-3-58-5-100-12a1200 1200 0 01-135-32c-73-20-270-93-430-253-188-164-290-500-300-680 0 63 0 80-3 34a990 990 0 01 28-320m2483 1191c30 0 137 93-170 104-57 1 155-60-220-12 280-42 216-87 390-92m-623 33c-10 2-363 30-314 47 82 30 410-47 314-47m1355-80c3 16-326 83-352 85-176 17 230-67 352-84m63 6c29-29 829-210 823-183-272 62-546 123-822 183m952-196c285-106 348-44 324-37-312 100-114 0-124 0-22 0-245 75-198 37zm860-325c40 0-80 42-141 53-114 18 10-50 140-53m943-27c206-20-495 117-270 52a13400 13400 0 01 270-52m1123-225c43-17 265-65 292-50-64 11-246 51-270 54h-20c-73 32-944 196-990 200-264 26 914-200 950-206h37m-643-26c-73 38-130 52-348 90 323-70 18-32 346-90m1824-240c14 3-333 111-490 137-296 46 477-136 490-136m-1072 80c117-24 292-58 325-49-82 14-330 62-330 50m-6792-817c503-432 2627-1347 970-623-55 27 30 8-200 125-15 8-32-6-80 20-85 45-437 223-714 447-122 116-292 185-445 640 10-10-15 45-24 195 10-128 75-342 153-452a1200 1200 0 01 240-273v1c12-10 47-40 98-80m9488 290c-140 38-467 100-677 137-8-20 545-112 677-139m-8415 0c-12 0-233 5-235 4-88 10-3 22 107 20 104-2 222-16 128-24m8600-14c-98-8 376-70 193-24l-192 24m1140-268a2700 2700 0 01 110-8l-110 8m446-24c58 7-190 22-280 22-200-2 260-26 280-22M9158 9760c-32-1-3 4 23 6l29 2c-29-6-43-7-52-8m5423-84a730 730 0 00-132 24l90-10zm348-36c-58 5-182 16-290 29a23 23 0 01 8-1c125-12 257-25 282-40m-250-15c-171-2-202 64-11 23 7-1 18-23 10-23m1880-140c-97 13-351 35-410 45-198 32 317-10 411-44m-362-158c-192 20-388 40-580 62a1300 1300 0 01-62 20c42 14-24 26-121 33-66 12-113 15-170 30l-24 9a700 700 0 01 222 4c-1160 119 777-16-50-30 675-35 218-36 320-61 108-23 487-47 466-70zm-1078 112-223 77c74-10 152-18 224-25 26-14 50-27 76-36l28-10c-39 0-75-2-105-6m2150 0c-170-17-304 70-56 28 13-2 63-28 56-29m-1050-34c-25 0-522 60-490 70 67-3 780-86 490-70m1390-40c-576 63-361 10-466 10-220-3-134 70-106 70 112 0 493-68 573-80m685-113c-323 3-843 25-1160 47-87 6-175 25-250 30-122 10-16-16-24-15-160 6-360 60-20 32l-350 52c449-25 409-70 539-80 180-13 170 27 136 42 143-38 770-91 1138-110m-2805 114c-17 5-22 8-7 9 4-3 6-6 6-10m240-80-189 15-198 67 150-25a87 87 0 01 30-14c11-5 113-17 205-40m-378 40c-24 10-40 20-47 26l12-2 76-25c-26 2-37 0-40 0m1401-52c-44 0-460 37-490 55 198 0 593-57 490-55m-1314 36a50 50 0 00-18 6zm53-20c160-58 328-127 200-96-20 5-167 58-275 103zm387-96c0-5-110 30-287 88l207-18c47-18 80-40 80-70m2904-20c-375-46-873 30-926 34-55 0 30-24 17-24-29 0-605 40-630 45-20 3 86 24-30 43 224-42 1286-88 1343-84 44-2-282-27 228-15zm-325 48c-186 4-473 10-570 34 182-13 470-18 570-35m-738-12c146 3-260 30-355 35-215 7 340-36 360-34m-405-62c150-8 456-30 390-8-265 6-834 74-603 20 120-30 200-11 214-14m-587-228c292-155-1010 300-652 223 27-5 623-208 652-223m1365 160c250 7-864 56-925 62a13200 13200 0 01 925-60m-912 40c-45-5 57-40 154-31 42 3-33 24-154 32m227-40c102-24 910-40 697-20-37 0-850 50-697 20m-6962-384c18-34-317 123-324 130-50 44 244-84 324-130m-125-32c18-25-318 118-326 150 76-38 310-130 326-150m6998-50c136-78-339 72-196 62 7 0 186-56 195-60M2454 8473a1300 1300 0 01-65 18q40-10 80-23zm318-87c-90 52-155 82-200 100 13-18 18-35-132 4 16-5 36-10 60-20 30-10 68-22 120-47l184-56-31 20m-47-17a1300 1300 0 01-104 53l-152 45 40-13a1300 1300 0 00 193-86l48-14-25 15m-255 67c-42 14-68 20-88 25l104-30zm-63 0-30 8 30-8m80-6a1200 1200 0 00 114-45l25-12c42-15 66-26 66-34l15-8q34-4 78-13l-27 18-56 32-215 62m409-128-22 16-124 36 23-14 27-17 27-10 92-22zM2510 8300c6 1 7 3 2 5a830 830 0 01-157 47A1100 1100 0 00 2510 8300m-252-2266a14300 14300 0 01-323 100l200-93c-116 23-245 54-329 80a1300 1300 0 00-143 50 1110 1110 0 00-388 257 1082 1082 0 00-310 695 1071 1071 0 00 255 774c250 270 396 288 471 323 157 52 214 50 236 55l70 6c53 2 75 0 96 0 37-3 52-7 54-12 7 4 20 7 46 10 28 4 218-12 332-16 34-16 76-35 136-72-276 34-486 63-518 75a169 169 0 00-47-12l-70-7-30-4a1600 1600 0 01-63-8c-20-4-68-6-186-41l-24-8-14-5a1040 1040 0 01-190-88c-117-99-470-210-512-930 70-694 455-805 484-850a1030 1030 0 01 221-110 1000 1000 0 01 106-30 4330 4330 0 00 514-119l-14-3a1200 1200 0 00-60-12M2143 8260c3 1 5 2 4 3q-4 0-4-3M3400 8100l-74 16c60-3 131-14 197-28L3400 8100m16145-405c-9 15-81 80-152 129a1897 1897 0 01-206 130c-128 70-245 122-302 152 22-46 287-110 660-410M4978 7981h68l-68 10m3865-31c-73 20-482 30-554 10 170-13 375-4 554-10m430-35c-20 20-372 26-417 10 102-14 290-6 418-10m3123-92c-116 34-266 132-96 73 150-50 106-75 96-72m6113-390 53 10a130 130 0 00-53-9M18227 7300c40 20 77 38 112 50l60 20c72-30-40-54-180-70m-110-10 47 28 35 4a1100 1100 0 01-50-33l-30-2m-64-42 10 7h24l-5-3zm-15900-1222c-11 2-24 2-30 1-4 0-10-1 16-1h14m294-144 50 16 63 23 63-13a1400 1400 0 00-92-37l-11-4zm-137-20 70 14a7000 7000 0 01-114 7l-52-7-70-6-20-1c-11-1-1-2 8-3l69-8 44-7 66 10m-154-63c10 0 32 0 78 4l-7 2h22a1100 1100 0 01 68 10c35 6 78 15 143 34l29 10-36 13-47 3-25-7a1300 1300 0 00-200-35l-50-4a100 100 0 01-21-2c-3 0 0-3 3-4 5-4 4-7 0-10-2-5-12-9 6-13h28m483 42-106 23a900 900 0 00 109-14c7-2 4-5-3-10m-464-2c40 0 79 0 96 7 4 0-6 3-25 6-91-13-84-8-105-10-26-2-22-1-18-2h52m1268-140-371 70 249-64c-56 3-111 7-154 12-110 12-198 25-285 37h4c9 9-11 19-43 30 120 0 257-1 385-10 90-21 170-45 230-70zm628-108c-61 5-122 10-167 16l-82 13c-170 57-308 110-257 117a2562 2562 0 01 506-146m-503 46c214-62 100-43-97-8l-40 7-131 25 267-24m14216-171s-6 0-44 27l6-3c19-10 36-22 37-24M4260 5417c110-23 225-42 120-4-12 5-235 52-240 50-73 0 6-21 120-46m2355-490c-100 16-417 108-270 88 62-8 256-66 270-89m668-189c-180 33-494 136-338 117 36-4 333-100 338-117m182 50c583-76 240-127 144-90-12 6-158 93-144 90m9808-33c12-37-498 8-296 27 53 5 290-15 296-27M8360 4548c-137 33-400 76-361 105zm9538-25c-95 28-448 23-612 30 105-40 408-30 612-30m-9256-58c-93 16-126-3-166 14-14 6-10 31-56 50zm-7206-876c-378 75-18 19-92 38-60 15-283 40-150 36-90 5-312 33-525 60a60855 60855 0 00-382 53l-25 4-10 2-20 4a274 274 0 00-51 20v3l-30 20c-22 10-73 40-104 150a276 276 0 00 10 170 270 270 0 00 73 100c46 40 70 40 90 50l20 4h5a300 300 0 00 30 7l18 1 35 2H320c5 0 6 1 0 5-3 2-4 4-15 6a100 100 0 01-10 1c-4 2-11 4-43 1a260 260 0 01-60-16c-15-7-40-17-71-44a286 286 0 01-100-170 290 290 0 01 54-219c30-43 57-60 75-72a314 314 0 01 56-30l38-13 20-8c49-17 87-29 158-37 434-48 123 20 1023-140m7202 690c90-19 340-97 330-73-140 41-274 90-330 73m994-219c114-65 897-247 796-190-80 43-662 178-795 190m-5188-30c24-10-212 10-267 20-83 14 230-4 268-20m1195-94c-127 0-701 93-557 86 20 0 476-74 557-86m1782-160c-105 37-378 66-538 96-220 42-586 168-436 74a96700 96700 0 00 974-170m-380 118c-94 37-522 85-341 50 50-9 256-35 342-50m-4857-98c157-2-684 120-835 122 167-29 534-66 687-90 18-4-82-30 147-33m4272 35c-20 2-468 72-420 72 100 0 486-77 420-72m-3768 30c97-37-100-4-160-2-55 2-100-7-220 16zm-1800-53c198-15-290 60-345 51a6570 6570 0 01 346-50m-37-27c145-12-184 36-284 46a2800 2800 0 01 280-46m10565-70c4-21-390 73-404 80a400 400 0 00-50 25c-10 6-9 8 1 8 53-4 334-81 453-112m-4220 22c-146 23-440 63-347 65 12 0 350-56 348-65m76-24c-75-8-315 44-474 68 60 9 320-47 474-68m-186 0c-57-10-320 47-474 67 46 7 353-46 474-67m-5246-20c10 7-257 44-280 46-150 13 177-36 280-45m6202-24c114-8-217 59-347 67-4-10 328-65 347-67m3524-53c-60 8-468 110-347 105 120-6 432-116 347-105m456-36c-105 12-634 140-407 106 21-4 415-90 407-106m-10515-2c-62 19-768 123-753 109 14-13 642-94 753-110m10732-118c-74 3-265 80-140 73 70-13 150-73 140-73m-2164-106c172-10-393 80-202 33 10-2 195-33 202-33m2940-60c-8-1-225 40-256 68 93 2 334-64 255-70m-9785-57c5 7-330 58-348 60-177 17 226-46 348-60m17060-85c0-15-364 90-390 126 70-24 386-115 390-126m-6770 38c166-63-264 37-316 76 80-20 260-54 318-76m-9345-186c-430 90-40 18-26 28 32 20-150 40-346 59-173 16-350 30-453 50-30 7 200-12 120 4-252 50-1044 100-202-17 220-30 86 2 96 0 470-53 342-61 416-76l17-3c133-25 124 8 374-46m10930-235a1950 1950 0 00-260 40c-135 32-108 63-130 70-72 25-247 56-380 104 150-60 303-124 450-187-124 40-1187 344-1204 360-25 32 304-75 314-77 15-2 87 43 118 35 40-8 528-165 844-270 117-37 208-66 248-75m-1940 378c-163 17 362-124 190-50-7 2-182 50-190 50m-1452-70c0 15-248 46-341 63 20-20 245-50 340-62m-8552-71c170-13-394 74-203 30l203-30m985-30c20 0-253 80-337 70h-5c-12-1-10-4 4-10 50-15 296-51 338-55m8120-7c20 0 174 29-120 62-220 24-62-50 120-60m8877-86c290-112-608 160-326 98 14-3 312-93 326-98m-5256-412-164 20a5980 5980 0 01-337 110c-56 6 70-48 197-93-147 17-270 33-320 40-90 16 0 25-80 35-76 10-2-22-24-20l-110 13c-90 36-214 86-180 84 6 0 205-70 234-68 36 0 160 85 204 74 123-30 42-31 114-54 90-31 306-91 475-144m-1746 186c14 0 23 4 26 10-37-2-41-5-25-10m763-102c258-61-271 18-266 34 3 5 257-32 267-34m7070-130 18 3h28l-58-4 13 2m-200-83 57 19 28 5c32 0 60 0 86 2l76 4-20-2c-10 0-45-3-100-15a1000 1000 0 01-42-10 2500 2500 0 01-92-10l6 2m-130-20c40 20 76 35 106 46l77 2-17-4-46-16-40-16-52-7zm-60-115c56 40 106 62 147 80 46 10 100 22 176 30a1000 1000 0 01-36-10 140 140 0 01-30-7l-30-10c-26-10-83-27-160-71a2700 2700 0 00-66-12m390 57h45l-58-7zm-465-70c28 20 53 39 76 53l60 16a1000 1000 0 01-105-65zm-61-2 29 23 16 5 57 17a900 900 0 01-60-44 300 300 0 00-40 0m234-182c-66-6-98-6-68 7a2007 2007 0 00 413 47l-35-3a600 600 0 01-91-27c-107-10-170-20-220-25M21200 854a400 400 0 00-35 14q-10 18-18 39l30-5q10-26 23-50m18-5a800 800 0 00-25 52h10l27-54zm66-14a400 400 0 00-30 5l-25 53 28-8 27-50m45-88c-40 16-35 22-5 20l20-24-13 4m308-64c38-23-84 5-186 30l-38 46c76-14 170-40 222-73m148 7c-10-6 40-31-43 0 16 7-81 68-60 64 6 0 23-5 44-11l30-20 33-18 10-5c5-4-7-7-14-11m-20-72c0-4-10-5-25-2a140 140 0 00-44 18c-24 14 6 13 37 10l10-2c18-14 22-20 22-24m-150-210a120 120 0 00-40 0 970 970 0 00-133 97c4 0 0 5-10 10l-20 16c-20 20-54 50-100 102l46-10 67-67c32-30 60-50 82-68H21500l10-3 13-10c43-30 74-47 95-58 3-4 4-8-1-10m-158 140c-2 0-8 6-32 27l-40 40 10-3c16-14 30-26 40-40 17-16 24-22 22-22m230-110-44 10-12 4a900 900 0 00-108 70 1000 1000 0 00-41 36l-50 46 43-10 7-7a1000 1000 0 01 69-58c52-38 82-55 103-67l29-16c25-13 13-10 3-7m0-15c0-1 4-3-1 0m-5750-31c114-45 640-100 549-74-23 1-593 90-552 71m1235-136c-41 0-331 34-417 47-90 38 600-50 417-47m2739-200c96-10-292-24-290-1 0 6 279 2 290 2" fill="#FCB414"/></svg>
