<svg xmlns="http://www.w3.org/2000/svg" width="233" height="121" fill="none"><path fill="#FCB414" d="M193.615.794c.512-.005.336-.717 8.459-.543 5.196.254.285.744 9.056.948-6.7-1.036-.027-.679 5.223.029.292.037 1.179.165 2.291.338.531.082 1.166.183 1.669.253.489.076 1.02.109.64.076.256.006.524.018.827.04.337.028.512.027 1.314.152a12.4 12.4 0 0 1 2.148.554 11.283 11.283 0 0 1 3.332 1.861 11.35 11.35 0 0 1 3.844 5.867c.931 3.258.029 6.585-.934 8.286-.929 1.748-2.062 2.776-2.401 3.093-.339.31-.635.545-.898.742-1.013.752-1.732 1.086-1.962 1.21a21.54 21.54 0 0 1-1.927.84c-1.12.424-1.814.653-2.475.88-1.034.358-2.532 1.156-3.816 1.57-.889.285-1.663.35-2.928.753-6.122 1.94-11.995 3.793-18.058 5.703 3.302-1.93-2.838.553-3.152.62-1.487.248 4.951-1.916 2.362-1.22a914 914 0 0 0-10.69 3.62c2.943-.888-3.645 1.979-4.995 2.163.792.48-16.374 5.073-18.811 6.284-.433.214 2.136-.446-2.258 1.16.68-.054 2.478-.17 2.582-.164 1.654.128-2.3.44-3.154.37-.606.218-1.321.475-2.164.77-.879.31-.628-.034-1.08.159a1 1 0 0 0-.14.086q-.116.08-.293.204c2.394-.113 4.62-.168 4.966-.089.69.145-3.808.397-2.975.664 3.241-.239 6.362-.556 9.68-.72 1.354-.065.681.209 1.28.18.242-.022 5.056-.448 4.852-.516-.559-.27-15.191.838-11.363.178.734-.136 3.395.22 2.934-.402 7.999-.308 14.668-1.04 25.476.358 1.961.364 5.827 1.167 9.386 5.351 3.548 4.325 3.61 9.116 3.343 11.35-.697 4.636-1.809 5.82-2.58 7.271-1.634 2.561-2.961 3.938-4.816 5.567-2.606 2.105-3.45 2.358-4.563 3-1.064.56-1.931.972-2.824 1.386-1.737.8-3.328 1.474-4.923 2.134 1.485-.747 3.014-1.48 4.723-2.322.887-.44 1.749-.87 2.803-1.439 1.101-.649 1.953-.91 4.559-3.018 1.816-1.602 3.127-2.962 4.737-5.478.759-1.424 1.85-2.587 2.539-7.115.264-2.182.218-6.86-3.248-11.102-3.479-4.103-7.269-4.892-9.191-5.25-3.991-.64-6.723-.685-9.528-.718-1.197-.02-5.034-.018-4.55.308 3.984.012 7.953-.226 14.042.636 1.933.353 5.833 1.178 9.271 5.428 3.374 4.367 3.233 8.871 2.965 10.945-.73 4.359-1.78 5.491-2.532 6.878-1.582 2.457-2.879 3.791-4.63 5.321-1.764 1.459-2.614 1.867-3.393 2.33a37.588 37.588 0 0 1-2.048 1.06c-.232.11.472-.583-.406-.189-1.737.813-5.999 3.19-6.771 3.37-.138.032 2.242-1.42 1.37-1.315-1.164.153-1.642.57-2.151 1.084-.445.48-.873 1.031-1.698 1.361-1.302.55-10.107 3.267-12.031 4.44-2.075 1.288 6.328-2.138 5.873-1.57-4.948 2.286-10.137 3.94-14.976 5.683l1.683-.14c-.787.203-1.521.299-2.3.365q-.483.176-.959.353c.058.012-.033.039-.211.08l-.219.081c-.082.031.582.01.049.3q.386-.033.857-.075c5.88-.53.317-.308 2.56-.657 1.258-.194 7.968-.462 7.744-.854 2.29-.229.973.096 1.259.088.289-.017 4.804-.481 6.304-.485.181-.002-.363.235-.174.239.357-.006 4.77-.295 4.957-.308.112-.016-.971-.133-.536-.194.506-.084 4.797-.168 5.041-.201.317-.092-4.98.102-4.109-.102a452 452 0 0 0 8.074-.279c-.398.023-2.793 0-3.622-.003.372-.286 5.527-.162 3.772-.01 1.115-.072.35-.15.976-.224.167-.021 1.759.047 2.066.027.04-.008-1.605-.18-1.278-.212.597-.087 5.426.301 5.81.386 1.103.162-2.809-.128-3.142-.034.047.014 3.275.46 3.329.489.188.177-3.5-.24-3.081-.04q1.373.14 2.736.31c-3.508-.203-10.07-.399-11.727-.127 5.215-.18 10.707.253 10.677.66-.01.164-2.245.142-2.159.197.333.164 3.428.183 3.546.212.094.016.137.03.137.038-.006.068-4.42-.116-4.644-.057-.367.065 1.597.453 1.593.524-.069 0-3.205-.004-2.145.146 1.073.136 3.8.252 3.902.277.52.076-4.258-.023-4.404.047-.074.017 2.494.204 2.568.25.053.038-1.886.076-2.648.206-.568.093 1.094.171.802.185-.214-.014-4.701.05-4.921.097-.326.037.728.12.578.154-.217.048-1.661.065-1.473.103.158.003 5.754.266 5.725.392-.062.154-5.977-.108-.467.47.038.002 1.374-.058 1.411-.052.821.123-3.445.33 1.774.287-9.703.333-1.204.252-2.638.565-.553.107-4.284.334-4.303.367.373.128 1.555-.057 1.963-.001.219.018-3.106.386-2.348.446.391.013 3.922-.197 4.069-.178 1.4.044-.313.206-.004.263.207.031 2.333-.03 2.389-.018.083.005-2.797.277-3.395.388-.454.074 1.259.061.941.1-1.91.212-5.994.216-2.052.387.241.009 1.714-.094 1.764-.09.917.076-1.807.25-2.288.409-.826.254 3.072-.153-.166.233 2.435-.072 3.787-.172 6.645-.29-7.559.393-10.367 1.216-3.009.688-1.613.152-1.496.353-2.191.411-.514.032-4.525.182-2.658.614.232.046 2.65-.299 1.897-.064-5.791.603-.145.104-.112.133-.04.203-14.264 2.125-16.758 2.744-2.844.598-5.384 1.483-5.981 1.607-2.069.417-.378-.119-.85-.096-.468.017-6.27 1.574-6.578 1.62-1.169.148-.03-.329-.153-.316-1.42.134-9.29 1.899-11.521 2.274.065.162 4.551-.716 1.808.107-3.186.966-3.486.248-3.578.23a1519 1519 0 0 1-9.981 1.92c-.03.003-.118.018-.148.02-10.958 1.995-22.499 4.782-34.492 6.695.321.526 10.233-1.669 10.432-1.671 1.227.142-11.763 2.655-16.849 2.986a84 84 0 0 0 3.902-.194c-1.217.422-3.072.692-5.565.766-1.447-.023-2.362.191-5.65-.506a13 13 0 0 1-1.653-.534 11.4 11.4 0 0 1-2.992-1.764c-.969-.701-3.222-3.26-3.692-6.191-.516-2.946.114-4.872.74-6.36 2.305-4.272 3.14-4.046 4.08-5.004.725-.58 1.359-1.05 1.921-1.479 1.332-1.01-1.468.604-1.472.624 1.591-1.498 3.977-2.697 2.378-1.316 3.427-2.491 3.02-1.786 5.596-3.158.13-.066-1.07.269.889-.873.93-.566 5.84-2.943 6.397-3.436.226-.218-2.66.03-2.62.981-5.549 2.268-1.555 1.199-3.651 2.235-.36.218.308-.836-5.139 2.533.751-1.517 7.188-4.154 8.153-4.694 2.071-1.283-6.97 2.71-8.523 4.56.471-1.037-.632.197-3.036 1.821-.822.566-1.356.953-1.678 1.17-.586.42-.8.562-1.095.783-.359.354-.446.09-2.252 2.44-.591.822-2.508 3.785-2.29 7.743.122 4.778 3.67 8.303 4.819 9.023 3.298 2.188 3.844 1.85 4.79 2.175.892.19 1.154.192 1.54.231.35.028.621.037.874.044.87.003 1.611.052 3.548.17-1.99-.574-.1-.621 2.009-.665 2.132-.036 4.736-.073 5.861-.092-1.843.324-3.714.63-5.827.866a39 39 0 0 1-3.546.244 25 25 0 0 1-1.799-.039c-.241-.015-.53-.039-.812-.07-.611-.074-1.055-.114-2.138-.378-1.011-.319-2.043-.382-4.63-2.16a14.2 14.2 0 0 0 2.753 1.66c.58.273 1.093.473 1.56.637a14 14 0 0 1-1.914-.682 12.9 12.9 0 0 1-3.558-2.318c-1.293-1.061-3.573-4.218-3.931-7.427-.415-3.1.252-5.27.95-6.911a13.6 13.6 0 0 1 1.646-2.78c.462-.61.994-1.178 1.29-1.474a18 18 0 0 1 1.634-1.452c-.286.31-.578.641-.885 1.01.393-.38.753-.697 1.096-.982 5.231-4.283 6.063-3.803 6.55-4.168 5.032-2.767 10.42-5.258 15.184-7.38.722-.312.048-.543 5.375-2.445 1.686-.593.272.39 2.116-.444 2.009-1.89 2.217-1.138 2.931-1.431a29 29 0 0 0 2.028-.929c.743-.377 1.173-.643 1.279-.688 1.62-.69 3.793-1.561 5.849-2.393-.087-.06-.137-.142-.361-.113-.191.025-.466.07-.802.129-1.794.318-5.159.89-6.971.938 4.537.069-4.186.839-6.339.868-3.302.105-3.123-.34-4.537-.364-5.47-.095-13.767 1.089-17.927.223.242.927-7.166-.335-10.49-.284-2.61.038-6.355.724-2.846 1.028-4.481.04-9.178.324-13.279.54-.684.037.244-.272-.92-.2-.104.009-.242.28-1.222.351-8.114.652-4.19-.099-5.715-.18a23 23 0 0 0-1.917-.013c4.623-.425 10.19-.727 11.673-.786-1.321-.57-10.613.575-13.197.706-.091.002.197-.347.104-.34h-.006c-.415.026-1.779.166-3.046.361-.985.148-1.952.307-2.573.446q-.284.108-.685.239c-.009.035.051.064.198.087.229.035 1.406-.07 3.122-.264 1.03-.115 2.321-.253 3.733-.385-.927.15-.197.45-.36.479-.793.14-2.05.242-3.322.342-2.12.177-4.432.297-5.569.387l-.382.104c-.095.076-.088.167-.133.172a5 5 0 0 1-.563.009c-.39.101-.807.212-1.257.325-.092-.102.206-.25.686-.413l-.194-.05c-.497.14-1.078.295-1.415.38l-.012.007-.01-.002c-.143.036-.237.06-.254.062q-.06.006-.11.009c.619.082-7.97 2.475-6.029 2.31-2.478.89.224-.617-1.63.094-.642.24-1.038 1.147-4.648 1.69l-.01.003c-1.059.156.073-.324-.132-.34-.016-.001-.19.02-.424.046.18-.049.41-.11.76-.223.142-.064.41-.117.95-.336-.12.176-.31.367.668.114.277-.066 4.16-1.544 3.9-1.569-.026-.003-1.195.407-1.404.425-.784.068-.48-.258-.588-.24-.036.006-.13.035-.273.079q.052-.031.104-.064a14 14 0 0 0 .606-.419c1.288-.377 2.235-.65 2.355-.665.26-.033.323.624.6.614.151-.008 4.143-1.38 4.666-1.465q.232-.037.362-.05c-.152-.006-.07-.066.143-.15-.843-.196.29-.35 1.744-.503.56-.13 1.016-.2.993-.109q-.002.003-.011.008l.755-.078c.724-.186 1.46-.358 1.909-.462-.49-.047-2.594.118-5.29.378-2.561.767-5.657 1.684-7.866 2.212.49-.384 1.067-.864 1.71-1.567l-.567.064c-.662.672-1.251 1.107-1.723 1.469q-.18.13-.346.243h-.002l-.319.064c.397-.243 1.185-.75 2.177-1.752l-.449.05c-1.32 1.305-2.176 1.543-2.287 1.703q-.114.066-.22.125-.13.017-.242.027.09.022.09.06c-.244.135-.46.24-.653.333-.512.178-1.29.398-2.197.632a12.6 12.6 0 0 0 4.283-2.112c.269-.203.562-.44.882-.729-.618.071-1.224.14-1.806.21a11.951 11.951 0 0 1-1.326.804c.78.02.506.093-.384.19l-.064.032a12 12 0 0 1-.552.24c-.193-.023-.9.053-1.64.167a12 12 0 0 0 .88-.267l.174-.063q-.473.037-1.048.07a45 45 0 0 1-1.555.063c-.327.007-.62.014-1.15.003a18 18 0 0 1-.813-.037 13 13 0 0 1-.98-.107 11.6 11.6 0 0 1-2.082-.51 11.18 11.18 0 0 1-1.206-.501c-1.007-.57-2.847-1.27-4.829-4.538-.862-1.365-1.834-4.627-1.257-7.371.502-2.741 1.768-4.46 2.67-5.477a11.1 11.1 0 0 1 2.832-2.266c.406-.228.724-.377.994-.495.526-.23.928-.36 1.062-.404.377-.121.64-.19.864-.245 1.214-.286 2.469-.574 3.512-.802l-.053-.002a1 1 0 0 0 .104-.018c.458-.111.413-.202.089-.26-.142-.031-.371-.055-.48-.079-.047-.01-.105-.027.127-.027.075 0 .15.002.325.013a9 9 0 0 1 1.043.13c1.307-.261 1.835-.307.605.123.194.045.418.101.686.18l.041.013c.554-.162.983-.296 1.185-.378.052-.022.053-.11.047-.216a16 16 0 0 0-.607-.22q-.214-.071-.398-.126a13 13 0 0 0-1.137-.281c-.624-.12-.765-.126-.964-.152a11 11 0 0 0-.436-.043c-.188-.015-.276-.018-.36-.022-.263-.009-.207-.004-.157-.006.135-.002.403-.01.698-.022q.344-.016.718-.037a12.967 12.967 0 0 1 1.977.472c.192.064.223.068.654.233-.008-.133-.003-.251.075-.275l.029-.006q-.233-.087-.375-.137c-.318-.11-.587-.19-.822-.256-.143-.04-.275-.07-.396-.1l.025-.002.352-.026q.091.024.191.05.074-.035.177-.077.329-.026.62-.053l-.016-.005q-.13-.043-.25-.08c.298-.11.67-.235 1.066-.361-.094-.047-.138-.085-.045-.106.216-.046.48-.084.781-.119.425-.124.843-.24 1.198-.322-1.53.196-3.097.346-5.436.37l-.11-.01c2.298-.416.963-.812 3.84-.926-.233.093-.482.186-.721.278 1.704-.23 3.552-.408 5.484-.581 3.473-.974 11.77-2.96 9.824-1.995-.566.15-7.17 1.507-3.827 1.105.42-.051 2.735-.657 4.29-.975.32-.066.66-.14.698-.135.38.005-.047.201-.638.422-.788.236-1.757.54-2.673.843q.551-.063 1.102-.132c1.265-.159-.256-.397 1.447-.495a11.4 11.4 0 0 1 1.576.026q.135-.034.263-.07c1.002-.276 1.225-.644 1.334-.674 1.93-.542.9.03 1.551-.134.349-.086 4.09-1.711 3.577-.624 12.797-3.97 3.335-1.503-4.463.443 2.35-.906 7.323-1.992 9.508-2.634.783-.23.262-.416 1.562-.812 2.729-.82 16.022-3.922 19.514-4.76-2.107.664-1.396.82.245.364 1.61-.447.135-.515.438-.644.326-.136 8.063-1.958 9.31-2.347-5.732 1.676-4.34 1.65.568.387l-2.043.833c2.828-.884 9.008-2.008 10.62-2.589.253-.092-.753-.108-.61-.16 1.428-.497 6.462-1.546 6.659-1.694.172-.125-1.986.212-1.236-.102.151-.063 2.295-.254 4.269-.87.733-.229.219-.356.402-.42 1.526-.531.743.12 3.562-.698a27 27 0 0 0 1.824-.615c1.35-.493 2.706-1.02 4.78-1.445-9.908 2.013-1.633.065 2.401-1.079.635-.18-.005-.5 3.89-1.212-8.008 2.787 2.489-.15 4.511-.642.115-.025.233.255 1.25.005.084-.021-.086-.186.847-.438 8.781-2.459 3.207-.763 4.932-1.017.737-.105 4.899-1.609 6.04-1.98.261-.08.206.154 1.223-.172 1.8-.579 3.349-1.315 4.531-1.725.138-.047.251.261 2.486-.605.616-.24 1.295-.594.363-.373-3.107.748-8.589 3.075-12.058 3.746-3.148.642 6.512-2.261 7.031-2.483.188-.062-1.669.706.274.113 1.321-.405 3.37-1.447 5.411-2.234-4.883.773-12.413 2.023-14.758 2.284 2.025-.28 11.961-2.23 11.746-2.335-.053-.014-2.521.212-2.999.363-.854-.043-3.624.926-5.186 1.07-.177.017.462-.385-2.324.012-.946.135-3.423.766-5.974.934-3.615.7-22.882 3.64-24.152 4.155-.036.021 2.689-.345.884.084-2.402.569-.32-.323-3.164.12-.427.068-8.31 1.471-8.567 1.545-2.338.687 4.591-.37 4.498-.32-.222.126-5.954 1.145-6.187 1.163-.221.017 4.376-1.143-1.216-.054l1.96-.193c-2.626.531-2.936.319-3.578.41-1.995.287-4.089 1.028-7.377 1.089-.872.017.51-.354.4-.355-1.052.005-2.261.66-3.85.582-.11-.008 3.404-.787-2.821.235l1.3-.116c-.864.218-7.142 1.267-8.018 1.383-2.492.341-.367-.213-2.85.2 1.653.055-5.943 1.242-5.56.922-.986.473-7.543 1.16-10.598 1.538-1.93.251-5.87.849-6.49.898-.765.066-.568-.158-1.93-.056-.107.008-.488.058-1.05.126-1.532.186-4.291.501-6.842.615-.697.032-2.138-.148-.903-.36 2.17-.369 6.243-.525 6.17-.718-.079-.206-5.565.502-7.032.627-6.834.591-2.943-.032-3.103-.083-.51-.105-4.225.296-4.367.296-.65.007 1.965-.397 2.009-.5.006-.127-3.587.038-2.785-.09 1.15-.187 4.468-.362 4.693-.395 2.713-.423-1.096-.297-2.098-.328-.307-.01.893-.216.641-.2-3.981.252-.777.495-3.41.746-2.355.225.644-.295.564-.297-.145.005-2.923.303-3.381.288-.186-.01 7.033-1.193 6.684-1.326-2.308.303-4.619.605-6.946.905-.21-.188 3.131-.413 3.509-.479.69-.124-1.287-.006-1.207-.083.026-.045 2.339-.47.232-.287-.707.061-2.153.378-4.754.527 8.899-1.23 2.744-.636 2.427-.67-.27-.043 4.008-.73-1.19-.08-.278-.378.095-.14 1.553-.388 1.819-.31-2.39.063 4.212-.634-.384-.151-5.704.513-5.976.53-.242.015.93-.222.507-.203-5.03.246-1.593-.007-3.06-.061-.107-.009-4.837.491-1.266.015 6.544-.879 9.226-.938 10.288-1.675-4.864.367-10.64 1.479-12.105 1.663-2.24.289.082-.117-.21-.113-.073 0-2.015.252-2.055.248-1.431-.246 8.608-1.095 11.72-1.57-.868.043-1.676.08-2.552.126l3.43-.451c-5.452.567-.169-.027 1.105-.567.286-.12-3.263.49.799-.277-3.036.348-2.084.148-4.773.606.034-.148 6.142-1.129 8.539-1.533-8.516.98-3.624.865-11.016 1.565-1.345.356 2.167-.142 1.885-.075-.98.235-3.454.397-6.306 1.131-.467.12 1.56.044-1.41.415-.341.042-2.248.132-2.206.116.213-.148 2.096-.346 2.177-.408.053-.054-2.029.243-2.027.23-.094-.139 1.735-.282 1.461-.294-.584-.031-8.095.634 1.685-.558-8.1 1.235-1.027.306 2.15-.18.77-.12 1.025-.245 2.135-.426 1.5-.242 3.24-.43 3.977-.547.824-.131-3.883.28 2.895-.57-3.478.247-9.537 1.302-12.938 1.601-6.873.62 4.738-1.006 5.92-1.205.313-.051-.755-.03-.545-.067.315-.055 6.937-.91 7.554-1.105.623-.195-2.387.338-2.629.26-.11-.058 7.748-1.299 3.478-.75-2.937.382-8.399 1.439-9.349 1.254 4.353-.634 8.698-1.275 13.044-1.92-2.358.208-4.809.43-7.19.648 4.895-.741 9.107-1.2 13.748-2.058-9.957 1.074.536-.425 3.163-.839.33-.052.535-.087.553-.096.01-.009-.211 0-.564.019-1.268.073-3.956.257-4.532.295 1.104-.2 2.702-.47 4.472-.768 4.426-.754 9.147-1.713 4.166-1.187 1.244-.103 4.198-.864 4.154-.877-.402-.113-6.879 1.1-5.855.75 1.21-.398 2.963-.417 4.85-.769 9.704-1.868 6.854-2.41 16.626-4.221l-.604.006c10.597-2.127 21.208-4.417 31.845-6.709 4.084-1.282 15.109-3.999 20.575-5.16 1.103-.237 6.54-1.216 6.956-1.265.768-.095-3.38.834-1.478.555.399-.066 9.569-1.937 8.881-2.02-1.042.194-4.222.991-4.762 1.053-3.796.376 24.605-5.241 26.067-5.56q-.97.064-1.949.133c1.833-.313 3.618-.61 5.458-.906-.721.202-1.46.408-2.176.61 2.105-.346 4.891-.898 6.851-1.168.318-.044-.472.296.276.177.75-.12.556-.367 1.665-.583.868-.171 3.97-.592 6.387-.898 1.043-.133 1.949-.248 2.526-.332 7.404-1.068 14.929-2.058 22.609-2.325-7.889.69.069.398 2.288.247M78.717 104.176c-.517 1.68-.873 3.916.052 6.79a11 11 0 0 0 1.974 3.527c.793.928 1.28 1.317 1.884 1.78 2.493 1.717 3.381 1.715 4.351 2.023 1.677.392 2.562.407 3.33.461 1.603.075 2.66.037 3.776.002-.281.102-1.694.279-4 .153-1.226-.173-2.41.096-5.907-1.541a11.3 11.3 0 0 1-3.312-2.606c-1.386-1.54-2.37-3.807-2.602-5.672-.316-3.04.243-4.35.454-4.917m24.947 13.723c-.667.249-2.054.599-3.017.863.215-.298.779-.569 3.017-.863m-24.42-13.042c-.134.34-.663 1.304-.28 4.487.289 2.081 1.74 4.504 2.955 5.601a10.7 10.7 0 0 0 3.186 2.151c1.403.617 2.634.817 3.283.893q.575.067 1.106.087c.309.01.576.007.855-.001q.413-.013.806-.044.334-.031.651-.072c1.7-.226 2.689-.568 2.2-.565-.697-.011-1.929.152-3.786.173-.235.001-.444.002-.713-.007q-.434-.017-.889-.058c-.317-.03-.576-.056-.983-.125a12 12 0 0 1-1.366-.319c-.732-.2-2.693-.932-4.286-2.53-1.886-1.633-2.917-5.011-2.992-6.802-.008.631.023.809-.032.342-.044-.46-.093-1.748.285-3.211m24.829 11.92c.283-.01 1.366.938-1.71 1.044-.561.013 1.562-.592-2.18-.125 2.789-.419 2.148-.866 3.89-.919m-6.236.335c-.09.016-3.623.296-3.134.47.815.291 4.106-.468 3.134-.47m13.552-.797c.034.157-3.255.824-3.516.845-1.766.168 2.309-.67 3.516-.845m.629.063c.287-.287 8.286-2.113 8.224-1.829-2.72.616-5.459 1.231-8.224 1.829m9.519-1.959c2.857-1.06 3.485-.441 3.239-.364-3.124.989-1.142-.001-1.246-.004-.223.005-2.451.746-1.984.366zm8.605-3.251c.41-.01-.794.427-1.413.529-1.137.185.107-.498 1.413-.529m9.413-.271c2.062-.188-4.943 1.173-2.692.52a134 134 0 0 1 2.692-.52m11.231-2.247c.43-.17 2.649-.651 2.924-.512-.653.124-2.473.527-2.699.551-.096.011-.16.016-.207.017-.729.339-9.443 1.973-9.916 2.01-2.606.265 9.17-2.007 9.532-2.052.179-.014.298-.018.366-.014m-6.422-.245c-.735.377-1.292.515-3.489.887 3.253-.704.209-.314 3.489-.887m18.25-2.382c.131.017-3.332 1.107-4.893 1.357-2.974.465 4.757-1.363 4.893-1.357m-10.728.804c1.214-.242 2.963-.591 3.296-.493-.823.141-3.301.62-3.296.493m-67.93-8.169c5.035-4.314 26.273-13.465 9.707-6.231-.558.271.306.083-2.001 1.25-.156.08-.326-.055-.794.19-.863.462-4.379 2.241-7.148 4.48-1.216 1.164-2.92 1.854-4.447 6.396.087-.103-.153.46-.243 1.959.124-1.284.77-3.419 1.549-4.524.705-1.152 1.811-2.253 2.406-2.729l-.013.012c.127-.106.478-.416.985-.803m94.882 2.887c-1.414.394-4.668 1.003-6.77 1.386-.076-.212 5.447-1.121 6.77-1.386m-84.126-.006c-.124.006-2.336.048-2.353.04-.885.1-.035.217 1.066.194 1.047-.017 2.225-.15 1.287-.234m85.994-.135c-.99-.086 3.752-.695 1.924-.246-.095.018-1.846.241-1.924.246m11.401-2.688a27 27 0 0 1 1.09-.08q-.578.044-1.09.08m4.466-.235c.577.066-1.919.214-2.808.218-1.997-.015 2.607-.262 2.808-.218M91.58 97.6c-.316-.015-.033.044.23.064q.135.009.29.016c-.289-.064-.434-.069-.52-.08m54.226-.841c-.629.081-1.135.165-1.313.241.232-.032.546-.067.903-.105zm3.484-.355c-.581.05-1.816.159-2.896.284a.23.23 0 0 1 .074.1c1.247-.124 2.567-.257 2.822-.384m-2.497-.173c-1.716-.019-2.02.637-.117.234.075-.016.181-.23.117-.234m18.812-1.39c-.987.12-3.53.343-4.111.437-1.982.325 3.168-.1 4.111-.437m-3.623-1.583c-1.927.2-3.886.411-5.811.62a13 13 0 0 1-.61.215c.416.127-.243.246-1.215.312-.656.125-1.131.15-1.696.317-.07.02-.151.049-.242.078 1.052-.077 1.889-.089 2.217.042-11.591 1.184 7.77-.16-.487-.3 6.741-.34 2.174-.353 3.188-.589 1.085-.248 4.872-.479 4.663-.696zm-10.78 1.12c-.719.246-1.466.503-2.231.767.743-.085 1.514-.172 2.242-.244.253-.139.501-.275.753-.36q.147-.05.283-.09c-.388-.01-.75-.035-1.047-.072m21.496-.006c-1.7-.158-3.041.7-.554.291.122-.02.626-.283.554-.29m-10.494-.35c-.256.012-5.229.611-4.909.688.673-.01 7.811-.844 4.909-.688m13.903-.412c-5.764.634-3.622.123-4.67.106-2.196-.029-1.338.698-1.054.7 1.117.003 4.931-.674 5.724-.806m6.846-1.119c-3.237.036-8.437.26-11.594.48-.878.058-1.763.25-2.508.306-1.225.096-.159-.164-.244-.162h-.006c-1.624.062-3.606.618-.205.326-1.195.169-2.395.344-3.558.519 4.47-.256 4.075-.698 5.371-.799 1.789-.132 1.709.266 1.356.422 1.439-.385 7.709-.919 11.388-1.092m-28.05 1.132c-.172.045-.225.074-.069.082.041-.03.061-.056.069-.082m2.392-.795c-.577.036-1.194.073-1.884.13-.604.2-1.27.426-1.985.668.551-.089 1.059-.173 1.499-.245.045-.042.133-.088.296-.144.142-.047 1.159-.171 2.074-.409m-3.78.397c-.234.11-.404.202-.467.262l.122-.006c.2-.063.463-.15.76-.253-.263.02-.369.014-.415-.003m14.02-.513c-.432.005-4.593.364-4.888.55 1.97.005 5.927-.577 4.888-.55m-13.139.353a.5.5 0 0 0-.177.063zm.534-.195c1.591-.584 3.276-1.269 1.997-.963-.195.05-1.672.58-2.752 1.029zm3.874-.962c0-.051-1.105.292-2.872.876l2.068-.177c.474-.183.814-.412.804-.699m29.039-.2c-3.753-.457-8.734.303-9.262.338-.548.02.287-.23.164-.229-.289-.012-6.055.402-6.316.45-.196.029.874.243-.292.435 2.242-.424 12.866-.886 13.43-.842.431-.022-2.832-.276 2.269-.153zm-3.255.477c-1.857.045-4.73.112-5.704.34 1.837-.12 4.706-.167 5.704-.34m-7.375-.118c1.458.024-2.595.31-3.558.346-2.185.063 3.357-.36 3.558-.346m-4.043-.634c1.485-.08 4.563-.291 3.907-.087-2.655.066-8.343.74-6.034.198 1.179-.27 1.973-.102 2.127-.111m-5.871-2.288c2.92-1.547-10.098 3.013-6.517 2.233.265-.054 6.229-2.08 6.517-2.233m13.661 1.612c2.491.057-8.638.55-9.25.612.696-.185 8.891-.665 9.25-.612m-9.122.426c-.451-.062.568-.403 1.545-.326.42.033-.332.24-1.545.326m2.283-.394c1.014-.253 9.095-.394 6.968-.197-.37-.01-8.499.503-6.968.197m-69.632-3.89c.18-.34-3.167 1.23-3.243 1.3-.51.436 2.439-.84 3.243-1.3m-1.248-.325c.177-.246-3.185 1.18-3.264 1.5.762-.373 3.098-1.306 3.264-1.5m69.977-.481c1.373-.791-3.38.71-1.951.606.073-.009 1.865-.558 1.951-.606m-148.677-1.35c-.287.086-.49.138-.652.178q.4-.111.8-.228zm3.176-.87c-.907.52-1.545.816-1.994.998.127-.185.176-.353-1.324.036.165-.047.363-.107.613-.191.296-.108.654-.227 1.196-.478.795-.243 1.46-.45 1.818-.558q-.161.104-.31.193m-.47-.165c-.41.227-.751.397-1.04.53-.471.145-.989.302-1.518.455.099-.03.21-.063.405-.132a13 13 0 0 0 1.926-.864l.48-.14q-.132.08-.253.151m-2.543.67c-.422.136-.684.202-.888.252.34-.097.69-.202 1.045-.305zm-.636 0q-.17.046-.295.077.15-.039.295-.077m.807-.058a12 12 0 0 0 1.136-.45l.254-.124c.413-.143.654-.259.653-.333q.075-.041.151-.087.338-.04.78-.126c-.145.09-.238.145-.27.174q-.303.185-.559.323c-.7.205-1.432.417-2.145.623m4.083-1.285q-.113.085-.222.162l-1.236.36q.11-.063.23-.135.129-.08.268-.172l.17-.114q.43-.09.928-.21zm-3.857-.022c.06.007.071.023.019.05-.249.132-.884.31-1.574.463a11 11 0 0 0 1.555-.513M22.583 60.35c-.737.238-1.793.565-3.235.992q.998-.455 2.003-.918c-1.16.226-2.452.534-3.29.786a13 13 0 0 0-1.434.455 11.1 11.1 0 0 0-3.877 2.543c-1.041 1.076-2.839 3.254-3.112 6.955-.173 4.015 1.419 6.324 2.563 7.732 2.5 2.72 3.956 2.882 4.713 3.24 1.561.516 2.135.5 2.36.544.293.034.528.05.685.058.545.025.765.01.973-.002.367-.026.52-.068.54-.112.07.034.207.07.454.103.283.036 2.189-.128 3.326-.171.342-.155.763-.348 1.357-.712-2.76.334-4.861.626-5.177.746-.064-.034-.187-.07-.473-.115-.177-.024-.297-.046-.695-.087l-.315-.036a16 16 0 0 1-.616-.079c-.202-.041-.681-.062-1.863-.415q-.115-.035-.244-.079l-.131-.045a10.398 10.398 0 0 1-1.896-.882c-1.174-.99-4.712-2.104-5.13-9.292.707-6.953 4.553-8.062 4.839-8.517a10.3 10.3 0 0 1 2.217-1.062 10 10 0 0 1 1.053-.296c.91-.079 3.363-.686 5.143-1.181q-.073-.019-.14-.035a12 12 0 0 0-.598-.118m-1.15 22.239c.022.013.042.022.038.034q-.037-.018-.039-.034m12.572-1.577q-.329.07-.746.159c.603-.03 1.313-.14 1.975-.285q-.605.06-1.23.126m161.442-4.051c-.083.153-.807.79-1.512 1.288-.324.233-.684.472-1.061.706-.33.205-.656.394-1 .585-1.279.707-2.457 1.231-3.024 1.527.217-.46 2.871-1.098 6.597-4.106M49.781 79.816c.165-.027.385-.05.677-.064q-.345.031-.677.064m38.649-.3c-.728.187-4.815.303-5.538.086 1.693-.135 3.752-.045 5.538-.086m4.306-.377c-.213.195-3.728.275-4.177.092 1.026-.135 2.9-.05 4.177-.092m31.236-.892c-1.157.33-2.665 1.308-.966.727 1.495-.51 1.065-.754.966-.727m61.126-3.895.528.098a1.3 1.3 0 0 0-.528-.098m-2.827-1.418c.395.208.767.374 1.115.507q.32.083.665.189c.759-.294-.385-.545-1.78-.696m-1.088-.105q.24.15.471.28.166.019.341.044a11 11 0 0 1-.517-.297q-.15-.013-.295-.027m-.63-.42.098.07q.1-.015.216-.028l-.048-.035zM21.476 60.23c-.11.016-.233.021-.302.014-.03-.003-.09-.018.17-.018.047 0 .078.003.132.005m2.944-1.44q.226.066.499.157c.124.053.337.122.633.233.152-.033.365-.079.627-.133a14 14 0 0 0-.92-.37l-.112-.038zm-1.366-.209c.194.037.417.085.693.152-.374.026-.764.05-1.142.07-.262-.043-.373-.05-.52-.07-.454-.05-.556-.051-.682-.061l-.197-.014c-.125-.01-.025-.019.062-.031.19-.023.476-.053.69-.081.175-.022.327-.046.445-.065.177.026.391.058.652.1m-1.54-.636c.119 0 .325 0 .787.047l-.07.014q.09 0 .179-.003l.035.004a11 11 0 0 1 .684.102c.348.064.784.15 1.432.341q.135.042.285.091-.203.075-.354.138-.18.014-.368.027-.136-.038-.258-.07a13 13 0 0 0-1.985-.343c-.35-.032-.403-.032-.515-.04a1 1 0 0 1-.21-.023c-.026-.012.017-.027.034-.043.047-.033.042-.072.004-.11-.021-.038-.127-.08.052-.114.042-.008.123-.016.269-.018m4.827.431c-.37.085-.737.167-1.065.236.532-.05.93-.099 1.087-.142.075-.02.048-.054-.022-.094m-4.648-.026c.415-.006.793.008.969.07.033.01-.069.032-.259.061-.908-.133-.834-.078-1.043-.104-.265-.013-.223-.01-.187-.014.093-.004.326-.011.52-.013m12.682-1.394q-1.878.358-3.712.716c.957-.25 1.783-.467 2.49-.655-.56.031-1.11.07-1.54.12-1.061.126-1.96.252-2.823.37q.016.006.026.013c.093.076-.084.18-.415.301 1.192-.064 2.568-.11 3.848-.159.893-.238 1.702-.483 2.3-.714zm6.281-1.073c-.613.044-1.218.094-1.672.159q-.45.065-.818.123c-1.699.574-3.082 1.116-2.564 1.174 1.389-.622 3.117-1.05 5.054-1.456m-5.03.454c2.146-.616.996-.432-.964-.081-.137.033-.272.044-.401.074-.419.08-.857.165-1.29.25q1.312-.115 2.656-.243m142.163-1.71c-.002-.004-.062-.006-.441.275l.058-.03c.205-.116.367-.221.383-.245m-135.172-.455c1.097-.233 2.249-.423 1.21-.045-.133.048-2.36.52-2.396.503-.744-.01.05-.215 1.186-.458m23.549-4.908c-.991.168-4.166 1.086-2.697.885.617-.082 2.555-.663 2.697-.885m6.684-1.892c-1.794.323-4.946 1.357-3.381 1.17.354-.045 3.326-1.014 3.381-1.17m1.818.505c5.83-.763 2.394-1.273 1.44-.898-.124.05-1.586.917-1.44.898m98.074-.337c.125-.372-4.977.075-2.954.272.524.044 2.9-.154 2.954-.272m-89.15-2.065c-1.369.332-4.002.76-3.606 1.056l.006-.002zm95.382-.244c-.945.283-4.477.229-6.114.293 1.048-.381 4.081-.297 6.114-.293m-92.558-.584c-.932.163-1.257-.028-1.658.144-.137.059-.092.311-.56.504zm-72.064-8.754c-3.778.75-.177.185-.917.377-.597.154-2.826.404-1.505.363-.89.046-3.116.326-5.243.606-1.05.139-2.057.275-2.836.382-.392.054-.7.097-.988.14-.094.015-.12.018-.248.04l-.089.017c-.028.007-.069.013-.197.046a2.74 2.74 0 0 0-.522.195c-.022.012-.003 0-.068.035-.083.044-.183.1-.312.192-.232.193-.736.48-1.05 1.524a2.76 2.76 0 0 0 .101 1.68 2.7 2.7 0 0 0 .714 1.025c.46.393.718.46.899.535q.135.047.218.068l.036.009a3 3 0 0 0 .303.059c.076.01.125.014.166.017.354.02.297.01.352.014h-.013c.067.003.075.026.022.058-.034.016-.05.036-.159.053a1 1 0 0 1-.1.01c-.04.001-.114.016-.433-.033a2.6 2.6 0 0 1-.584-.172c-.167-.074-.394-.169-.725-.439a2.86 2.86 0 0 1-.99-1.704c-.173-.905.19-1.77.494-2.165.311-.422.561-.589.738-.713a3.141 3.141 0 0 1 .56-.294c.207-.08.298-.102.376-.125.168-.043.139-.04.199-.057.49-.166.868-.284 1.58-.363 4.339-.459 1.23.188 10.221-1.38M86.38 42.79c.895-.19 3.413-.97 3.31-.732-1.405.416-2.755.89-3.31.732m9.942-2.196c1.139-.65 8.969-2.475 7.957-1.913-.794.446-6.625 1.8-7.957 1.913m-51.839-.34c.226-.105-2.133.108-2.684.203-.827.15 2.31-.026 2.684-.202m11.951-.944c-1.274-.002-7.016.93-5.57.855.2-.005 4.76-.74 5.57-.855m17.814-1.593c-1.05.362-3.78.649-5.379.95-2.204.422-5.856 1.684-4.354.737a967 967 0 0 0 9.733-1.687m-3.795 1.164c-.955.368-5.236.851-3.426.504.495-.095 2.561-.361 3.426-.504m-48.57-.987c1.57-.02-6.84 1.202-8.352 1.222 1.68-.286 5.345-.658 6.882-.901.172-.028-.826-.287 1.47-.321m42.716.351c-.206.02-4.684.727-4.187.724.987-.005 4.85-.769 4.187-.724m-37.677.308c.963-.377-1.005-.045-1.6-.023-.557.022-.996-.074-2.205.154zm-17.99-.53c1.964-.15-2.91.588-3.459.506-.076-.018 3.087-.477 3.458-.506m-.376-.266c1.49-.128-1.805.356-2.801.448-.103-.053 2.56-.426 2.801-.448m105.675-.75c.037-.209-3.898.73-4.044.797a4 4 0 0 0-.509.24c-.093.06-.077.083.021.08.535-.032 3.34-.81 4.532-1.117m-42.192.221c-1.468.227-4.405.633-3.478.652.12-.004 3.486-.557 3.478-.652m.762-.238c-.75-.086-3.149.434-4.742.675.597.091 3.193-.468 4.742-.675m-1.859-.005c-.57-.093-3.215.478-4.74.673.457.073 3.533-.456 4.74-.673m-52.462-.187c.09.06-2.568.433-2.813.455-1.491.126 1.784-.36 2.813-.455m62.02-.237c1.144-.087-2.168.585-3.474.665-.033-.1 3.283-.649 3.474-.665m35.238-.53c-.597.073-4.676 1.093-3.469 1.043 1.211-.059 4.321-1.156 3.469-1.044m4.567-.358c-1.052.12-6.341 1.394-4.071 1.057.21-.037 4.146-.905 4.071-1.057m-105.154-.028c-.622.19-7.684 1.232-7.526 1.09.137-.123 6.42-.932 7.526-1.09m107.321-1.186c-.739.03-2.649.803-1.413.731.709-.133 1.501-.734 1.413-.731m-21.637-1.06c1.712-.107-3.933.812-2.028.33.09-.021 1.956-.325 2.028-.33m29.386-.608c-.072-.002-2.243.421-2.552.688.933.022 3.337-.638 2.552-.688m-97.85-.578c.05.063-3.304.578-3.485.597-1.762.173 2.264-.459 3.485-.597m170.597-.85c-.007-.158-3.633.893-3.899 1.253.698-.238 3.858-1.145 3.899-1.254m-67.708.376c1.67-.628-2.629.372-3.15.76.786-.195 2.564-.536 3.15-.76m-93.381-1.863c-4.3.902-.365.182-.228.28.32.217-1.5.419-3.456.594-1.737.16-3.519.315-4.535.514-.312.06 1.997-.136 1.206.027-2.524.514-10.447 1.001-2.025-.163h-.006c2.195-.302.854.022.955.01 4.702-.54 3.438-.62 4.176-.765l.176-.033c1.328-.247 1.241.078 3.737-.464m109.29-2.344c-1.221.123-2.047.263-2.604.4-1.337.321-1.06.63-1.297.708-.719.236-2.469.548-3.791 1.029 1.49-.608 3.02-1.243 4.503-1.871-1.248.41-11.878 3.443-12.049 3.6-.25.32 3.04-.752 3.142-.77.152-.016.863.429 1.177.354.391-.085 5.28-1.655 8.443-2.694 1.163-.379 2.08-.663 2.476-.756m-19.46 3.759c-1.639.17 3.614-1.24 1.887-.507-.067.03-1.818.501-1.887.507m-14.533-.69c0 .137-2.479.445-3.41.62.216-.186 2.455-.494 3.41-.62m-85.524-.711c1.701-.127-3.942.74-2.033.313.07-.016 1.948-.306 2.033-.313m9.853-.324c.208-.017-2.535.757-3.376.664l-.046-.005c-.123-.016-.096-.047.034-.087.518-.167 2.966-.527 3.388-.572m81.195-.063c.202-.01 1.74.281-1.211.61-2.171.241-.602-.508 1.211-.61m88.777-.866c2.908-1.113-6.073 1.596-3.257.983.146-.033 3.123-.932 3.257-.983m-52.561-4.112-1.633.195c-1.175.436-3.246 1.08-3.368 1.102-.559.063.687-.48 1.965-.93-1.473.18-2.71.336-3.209.42-.886.144-.006.235-.802.337-.743.096-.009-.216-.231-.193-.212.018-.59.066-1.096.139-.903.358-2.137.858-1.808.84.064-.006 2.06-.694 2.35-.685.359.008 1.61.851 2.038.737 1.128-.306.32-.32 1.038-.544.889-.28 3.075-.88 4.756-1.418m-17.459 1.854c.142.007.236.037.261.108-.375-.023-.415-.06-.261-.108m7.638-1.022c2.561-.608-2.726.18-2.674.341.034.056 2.569-.317 2.674-.34m70.691-1.289c.097.011.135.014.189.019.196.015.266.012.271.009q-.306-.022-.58-.045.064.01.12.017m-1.992-.827c.244.093.402.147.571.201q.15.047.277.083c.314.006.609.013.86.027q.387.026.761.037c.001 0-.073-.003-.211-.015-.096-.009-.443-.035-.995-.153a10 10 0 0 1-.414-.102 25 25 0 0 1-.921-.106q.037.015.072.028m-1.302-.19c.407.201.758.335 1.054.453.254.007.515.012.77.016l-.143-.043c-.139-.046-.218-.07-.458-.159q-.185-.069-.4-.159c-.191-.026-.37-.051-.547-.072zm-.605-1.158c.587.389 1.082.62 1.493.793.46.106.998.22 1.76.316a10 10 0 0 1-.376-.094 1.4 1.4 0 0 1-.299-.084q-.146-.04-.308-.092c-.265-.1-.836-.277-1.609-.717a27 27 0 0 0-.661-.122m3.945.566c.167.023.23.027.284.031l.124.007c.057.002.071 0 .057-.004-.2-.015-.389-.035-.571-.052zm-4.647-.648c.273.204.53.378.761.521q.27.073.59.153a10 10 0 0 1-1.046-.642zm-.616-.03q.143.118.281.225l.157.054q.245.078.574.17a9 9 0 0 1-.624-.438 3 3 0 0 0-.388-.012m2.335-1.806c-.655-.068-.969-.064-.674.061.302.083 1.574.381 4.13.487.041-.002.048-.003.013-.01-.049-.008-.063-.005-.348-.053a6 6 0 0 1-.914-.237c-1.066-.09-1.691-.206-2.207-.248M211.955 8.55a4 4 0 0 0-.349.135q-.089.194-.176.404.156-.024.298-.052.112-.255.227-.487m.183-.058a8 8 0 0 0-.25.516l.135-.03q.136-.278.264-.524zm.657-.138a4 4 0 0 0-.282.047q-.134.248-.264.526.154-.04.285-.081.127-.261.261-.492m.476-.888c-.411.163-.355.228-.051.218q.093-.134.186-.255-.099.026-.135.037m3.078-.636c.396-.227-.815.05-1.836.308q-.18.185-.381.424c.755-.146 1.695-.41 2.217-.732m1.479.067c-.098-.044.416-.303-.43.022.163.057-.809.666-.601.632.063-.008.232-.051.438-.112.126-.086.223-.148.304-.197.21-.124.29-.16.328-.179.087-.042.104-.048.111-.054.041-.036-.077-.07-.15-.112m-.176-.72c-.018-.042-.112-.048-.265-.013a1.4 1.4 0 0 0-.432.172c-.24.143.063.137.374.098q.044-.006.095-.015c.181-.139.226-.198.228-.242m-1.563-2.081c-.058-.024-.162-.031-.409.012a9.7 9.7 0 0 0-1.317.952q.007-.002.009 0c.032.014-.017.049-.122.1q-.087.074-.18.158c-.187.199-.554.513-.99 1.022q.224-.048.44-.091c.271-.294.503-.515.672-.684.316-.289.588-.504.822-.676q-.052.011-.082.02l.092-.027q.07-.054.137-.1c.425-.3.737-.475.947-.585.017-.036.029-.078-.019-.101m-1.576 1.441c-.027.014-.083.048-.325.266-.11.11-.242.233-.397.391l.097-.02c.164-.159.294-.274.392-.395.184-.182.248-.244.233-.242m2.305-1.09c-.135.032-.256.059-.427.102l-.108.027a9 9 0 0 0-1.079.71 10 10 0 0 0-.44.356c-.146.131-.213.175-.491.454q.23-.047.415-.09l.085-.081a10 10 0 0 1 .695-.571c.52-.385.824-.552 1.035-.672.132-.076.22-.124.285-.16.249-.133.131-.093.03-.076m.018-.147.003-.002c.027-.009.055-.024-.003.002m-57.47-.314c1.154-.447 6.432-.987 5.515-.738-.224.045-5.921.93-5.515.738m12.38-1.355c-.407 0-3.309.34-4.168.468-.885.381 6.007-.496 4.168-.468M199.137.63c.967-.089-2.922-.25-2.899-.023-.001.064 2.791.028 2.899.023"/></svg>