<svg width="204" height="79" viewBox="0 0 204 79" fill="none" xmlns="http://www.w3.org/2000/svg">
<path d="M188.609 0.87708C190.907 0.864639 191.031 1.04382 191.495 1.16126C191.742 1.22241 192.069 1.26848 192.907 1.297C193.299 1.31256 193.847 1.31757 194.694 1.36048C194.95 1.37594 195.143 1.38613 195.504 1.422C195.859 1.46566 196.17 1.47054 197.107 1.69837C197.24 1.73293 197.384 1.77335 197.544 1.82337C197.624 1.84841 197.708 1.87666 197.796 1.90735C197.84 1.92271 197.886 1.93805 197.933 1.9552C198.002 1.98057 198.073 2.00842 198.148 2.03821C198.446 2.15815 198.794 2.31277 199.216 2.55579C199.443 2.68915 199.605 2.78556 199.954 3.03821C200.351 3.33042 200.802 3.7128 201.273 4.25599C201.74 4.79713 202.229 5.51277 202.598 6.40345C203.066 7.505 203.29 8.90912 203.168 10.1398C202.811 12.8438 201.996 13.6196 201.429 14.4288C200.781 15.2077 200.473 15.427 200.166 15.6857C199.873 15.9215 199.592 16.1123 199.423 16.2208C198.723 16.6617 198.409 16.7911 198.123 16.9308C197.864 17.0525 197.666 17.138 197.501 17.2101C197.681 17.1471 197.897 17.0679 198.173 16.9523C198.481 16.8155 198.83 16.6836 199.56 16.2257C199.787 16.0789 200.048 15.8974 200.359 15.6417C200.517 15.5102 200.671 15.3777 200.874 15.1798C201.125 14.9336 201.404 14.6317 201.701 14.2345C201.998 13.8375 202.316 13.3418 202.602 12.7062C202.879 12.118 203.271 10.9053 203.3 9.72669C203.36 8.53377 203.069 7.17736 202.643 6.22962C202.283 5.40021 201.827 4.72961 201.387 4.21302C200.945 3.69464 200.517 3.31953 200.139 3.02845C200.048 2.95874 199.939 2.87899 199.875 2.83411C199.818 2.79386 199.762 2.75556 199.707 2.71888C199.598 2.6455 199.492 2.57887 199.392 2.5177C198.989 2.27381 198.654 2.11256 198.365 1.98645C198.223 1.9243 198.082 1.86831 197.969 1.82532C197.885 1.79344 197.806 1.76488 197.731 1.73841C197.579 1.68539 197.442 1.64151 197.317 1.60364C196.773 1.44527 196.577 1.40871 196.331 1.35462C196.216 1.33046 196.108 1.30923 196.012 1.29114C195.935 1.27615 195.863 1.26265 195.794 1.25013C195.523 1.20043 195.29 1.16486 195.156 1.14075C194.539 1.03938 194.454 1.00448 194.59 0.981572C194.651 0.970576 194.834 0.96902 195.075 0.978642C195.31 0.99001 195.634 1.00155 196.297 1.10364C196.483 1.13408 196.67 1.16741 196.933 1.22669C197.286 1.31294 197.581 1.37367 198.279 1.6427C198.702 1.81373 199.223 2.04223 199.913 2.50208C200.735 3.16309 202.646 4.16736 203.491 8.01087C203.857 9.87536 203.329 11.9516 202.862 12.8868C202.42 13.8509 201.927 14.4953 201.51 14.9718C201.05 15.4841 200.826 15.665 200.584 15.8742C200.349 16.0718 200.142 16.2266 199.956 16.3566C199.76 16.4932 199.633 16.5736 199.514 16.6476C199.394 16.7217 199.284 16.786 199.182 16.8439C198.972 16.9624 198.817 17.0412 198.687 17.1066C198.415 17.2421 198.22 17.3292 198.053 17.4025C197.721 17.547 197.502 17.6338 197.318 17.7091C196.157 18.1845 194.696 18.7549 193.33 19.2648C192.554 19.5888 186.421 21.6288 183.796 22.4601C182.892 22.7558 181.565 23.4159 180.376 23.7931C179.558 24.0524 178.902 24.124 177.672 24.5089C174.774 25.415 171.911 26.29 169.019 27.1564C168.522 27.3052 168.024 27.4511 167.526 27.5978C177.578 27.3395 175.612 27.7042 166.567 27.879C166.466 27.9082 166.366 27.9368 166.266 27.9659C168.884 27.8918 171.179 27.861 172.201 27.9122C175.707 28.046 177.507 28.9288 177.547 28.0685C178.604 28.9632 179.72 28.4844 180.332 28.5597C181.485 28.7148 182.503 28.8229 184.314 29.3722C185.273 29.7633 186.374 29.8027 189.05 32.0499C190.325 33.1317 192.316 35.8553 192.636 38.9552C192.977 42.0232 192.159 43.8937 191.812 44.7853C189.88 48.9082 187.796 49.8557 186.666 50.6749C185.445 51.4221 184.592 51.7763 183.799 52.0988C182.222 52.7168 180.86 53.1076 179.052 53.5577C177.912 53.8369 176.968 53.7602 176.601 53.8771C176.39 53.9445 176.855 54.1358 175.801 54.423C174.279 54.8661 166.057 55.8813 165.449 55.8116C164.83 55.755 168.876 55.2133 168.11 55.0792C165.19 55.5121 162.409 55.9946 159.51 56.4093C158.298 56.5818 158.886 56.3154 158.367 56.3908C158.167 56.4186 153.999 57.2108 154.205 57.2452C154.624 57.3298 167.49 55.2709 164.146 56.089C163.497 56.2485 161.121 56.2023 161.565 56.63C157.863 57.1572 154.23 57.6735 150.548 58.2091C149.561 58.3522 148.574 58.4928 147.588 58.6329C148.988 58.804 149.764 58.9893 147.457 58.8097C147.343 58.8011 147.134 58.7725 146.866 58.7355C146.655 58.7653 146.444 58.7946 146.234 58.8243C146.922 58.8727 147.93 58.9657 149.11 59.1056L149.129 59.2658C147.747 59.1154 146.408 58.9862 145.701 58.8995C145.481 58.9305 145.261 58.9624 145.04 58.9933C145.174 59.0193 145.341 59.0493 145.55 59.0812C145.702 59.102 147.339 59.2373 149.151 59.4464L149.173 59.6368C147.673 59.4576 146.203 59.3057 145.608 59.2628C146.512 59.4585 147.8 59.608 149.187 59.756L149.188 59.7677C149.191 59.7662 149.196 59.7653 149.199 59.7638L149.198 59.757C149.203 59.7575 149.208 59.7574 149.213 59.7579C149.289 59.7288 149.365 59.702 149.439 59.674L149.448 59.7609C149.433 59.7671 149.417 59.7723 149.401 59.7784C149.418 59.7802 149.435 59.7825 149.451 59.7843L149.461 59.8683C149.467 59.8658 149.473 59.863 149.479 59.8605L149.47 59.7863C150.2 59.8635 150.952 59.942 151.685 60.0255C156.758 60.5061 157.476 66.9502 152.712 68.7599C151.97 69.0267 151.255 69.2762 150.613 69.4972L150.606 69.4327C150.599 69.4324 150.593 69.4322 150.586 69.4318L150.594 69.5031C150.567 69.5123 150.54 69.5213 150.514 69.5304C150.542 69.5325 150.57 69.5341 150.598 69.5363L150.599 69.5451C150.604 69.5426 150.61 69.5398 150.616 69.5372L150.618 69.5382L150.617 69.5372C150.747 69.4822 150.969 69.3959 151.3 69.2785C151.5 69.2052 152.057 69.0308 152.732 68.8136C157.556 66.981 156.829 60.456 151.692 59.9689C150.961 59.8573 150.067 59.7434 149.185 59.6378L149.162 59.4484C150.02 59.5475 150.915 59.6619 151.711 59.7902C157.05 60.296 157.806 67.0778 152.793 68.9826C151.761 69.3009 150.92 69.5363 150.606 69.5997L150.609 69.6232C150.578 69.6204 150.548 69.6162 150.518 69.6134C150.484 69.6173 150.47 69.618 150.475 69.6095C150.435 69.6058 150.395 69.6015 150.357 69.5978L150.356 69.5851C150.352 69.5864 150.348 69.5877 150.344 69.589V69.5958C150.338 69.5953 150.333 69.5954 150.327 69.5949C149.12 70.0081 148.218 70.3018 147.957 70.3683C147.644 70.447 147.452 70.4866 147.354 70.5031C147.657 70.5122 147.846 70.5246 147.876 70.5411C147.924 70.5475 147.966 70.5538 148.004 70.5597C148.513 70.4374 149.065 70.2998 149.68 70.1271C150.301 69.9498 150.102 69.9008 150.169 69.882C150.245 69.8598 150.312 69.8414 150.371 69.8253L150.396 70.0304C149.685 70.2289 148.99 70.4146 148.338 70.5841C148.819 70.5609 149.99 70.6008 150.475 70.7023L150.482 70.7599C149.824 70.7153 148.538 70.6816 148.37 70.6642C148.293 70.6552 148.234 70.6474 148.194 70.6398C148.175 70.6414 148.149 70.6403 148.117 70.6417C146.336 71.1011 144.898 71.435 144.334 71.5724C145.413 71.1558 146.392 70.94 147.596 70.6564C147.068 70.6647 146.261 70.6684 145.354 70.672C142.513 71.4176 146.312 70.6599 144.507 71.2023C143.352 71.5609 137.212 72.6905 137.453 72.9454C135.374 73.4229 136.554 73.0046 136.294 73.048C136.042 73.0974 131.959 74.0345 130.613 74.2335C130.45 74.2587 130.923 74.0107 130.753 74.0324C130.423 74.0813 126.488 74.8881 126.324 74.9288C126.223 74.9567 127.198 74.8954 126.817 75.0001C126.387 75.12 122.555 75.8146 122.365 75.882C122.081 75.989 126.762 75.0754 126.02 75.3546C123.836 75.7336 120.33 76.4645 118.952 76.8165C119.276 76.7285 121.378 76.3417 122.104 76.2208C121.798 76.4725 117.326 77.2695 118.821 76.8536C117.899 77.1001 118.538 77.0262 118.02 77.1945C117.957 77.2173 117.034 77.3983 116.763 77.464C116.736 77.4741 116.653 77.4929 116.625 77.5021C116.442 77.5434 116.303 77.575 116.235 77.5949C116.24 77.5967 116.407 77.5759 116.635 77.5431C116.662 77.5339 116.747 77.5153 116.775 77.505C117.001 77.4877 117.586 77.4149 117.406 77.4728C117.315 77.5034 117.006 77.5749 116.808 77.6163C116.78 77.627 116.692 77.6459 116.663 77.6554C114.997 77.9485 113.247 78.3581 112.957 78.4874C112.196 78.673 114.801 77.8165 115.068 77.7628C115.054 77.7093 112.746 78.175 112.689 78.2374C112.509 78.1074 115.108 77.4981 114.803 77.4845C114.123 77.5947 113.498 77.7367 112.837 77.9445C113.787 77.5493 114.788 77.334 116.499 77.0011C116.523 76.9932 116.594 76.9776 116.617 76.9689C118.852 76.4931 121.664 75.983 122.522 75.716C120.384 76.1439 118.02 76.5812 116.583 76.8517C116.561 76.8601 116.492 76.8744 116.469 76.882C114.368 77.224 113.526 77.4014 113.413 77.2706C113.359 77.1286 115.015 76.644 114.969 76.6359C114.633 76.5327 112.39 77.3381 112.302 77.4142C112.229 77.4351 112.193 77.4418 112.191 77.4357C112.17 77.2739 115.418 76.3362 115.751 76.3038C116.043 76.1841 114.324 76.2898 114.333 76.2472C114.356 76.224 115.636 75.9338 116.187 75.7618C116.2 75.7572 116.243 75.7485 116.257 75.7433C116.392 75.6895 116.43 75.6548 116.236 75.674C116.223 75.6789 116.182 75.6881 116.169 75.6925C116.163 75.6933 116.156 75.6936 116.15 75.6945C115.055 75.8026 112.958 76.3399 112.877 76.4025C112.539 76.4314 114.893 75.72 116.113 75.4699C116.125 75.466 116.161 75.4585 116.172 75.4542C116.247 75.4316 116.349 75.4026 116.428 75.38C116.487 75.3628 116.529 75.3493 116.538 75.3439C116.545 75.3396 116.506 75.3444 116.442 75.3536C116.37 75.3647 116.241 75.3894 116.157 75.4025C116.146 75.4067 116.111 75.4143 116.1 75.4181C115.388 75.5361 114.297 75.7097 114.252 75.7081C114.206 75.6884 115.213 75.4229 116.038 75.172C116.048 75.1689 116.076 75.1628 116.085 75.1593C116.147 75.1346 116.231 75.104 116.321 75.0724C116.4 75.044 116.46 75.0205 116.526 74.9952C116.848 74.8722 116.312 74.9551 116.039 75.004C116.031 75.0071 116.006 75.0121 115.998 75.0148C115.815 75.0442 115.693 75.0627 115.784 75.0382C115.806 75.0324 115.879 75.0146 115.991 74.9874C115.999 74.9848 116.023 74.9797 116.031 74.9767C116.758 74.7713 119.973 74.0783 120.149 74.0255C120.439 73.9415 119.469 74.0641 119.604 74.0118C119.8 73.9354 121.087 73.683 120.92 73.6857C120.806 73.6871 116.563 74.3619 115.881 74.465C115.877 74.4664 115.865 74.4695 115.861 74.4708C115.785 74.4791 115.742 74.48 115.742 74.4728C115.744 74.4612 115.783 74.4438 115.849 74.422C115.852 74.4208 115.864 74.4184 115.867 74.4171C116.526 74.1639 120.695 73.413 116.081 74.0226C116.081 74.0216 115.91 74.0691 115.777 74.1124C115.406 74.2153 114.849 74.3588 114.824 74.3634C114.067 74.4646 117.857 73.3386 113.191 74.5841C114.252 74.2301 115.094 74.051 115.711 73.8722C118.979 72.9406 116.583 73.4788 115.639 73.6408L115.651 73.6378C115.343 73.6818 115.193 73.6777 115.459 73.5617C115.496 73.5455 115.549 73.525 115.617 73.5011L115.6 73.506C116.413 73.1875 119.32 72.4531 119.306 72.4406C118.964 72.407 117.893 72.7635 117.517 72.8019C117.305 72.8228 120.308 71.9495 119.612 72.0411C119.246 72.089 116.032 72.9187 115.89 72.963C115.705 73.0028 115.531 73.0418 115.466 73.0509L115.502 73.0411C115.344 73.0602 115.384 73.0261 115.485 72.9767L115.447 72.9874C115.524 72.944 115.688 72.8782 115.784 72.8341C115.871 72.7924 115.925 72.762 115.848 72.7697C115.813 72.7713 115.615 72.8177 115.414 72.8751L115.457 72.8634C114.872 73.0034 113.724 73.2945 113.683 73.3097C113.627 73.3114 114.619 72.9995 115.425 72.7345L115.376 72.7482C115.976 72.5307 116.518 72.3584 116.729 72.2804C117.143 72.1286 115.539 72.5052 115.827 72.4113C116.792 72.0874 118.342 71.7286 118.964 71.5665C118.702 71.5792 118.409 71.6177 118.091 71.6388C117.969 71.6582 117.835 71.6789 117.69 71.7023C117.463 71.7389 116.095 72.118 116.061 72.1261C115.511 72.2143 116.309 71.9663 117.079 71.7228C116.57 71.7625 116.042 71.8026 115.531 71.8497C115.406 71.8859 115.278 71.9222 115.146 71.962L115.225 71.9406C114.431 72.1698 113.364 72.4071 112.006 72.9454C113.25 72.446 114.426 72.1583 115.215 71.9025L115.135 71.9249C115.195 71.9064 115.253 71.8865 115.312 71.8683C114.632 71.9324 113.994 71.9563 113.493 72.0177C112.741 72.3156 110.539 73.089 110.448 73.2286C109.864 73.4294 112.149 72.2891 113.152 72.046C113.399 72.0126 113.687 71.9012 114.021 71.8644C114.519 71.7225 114.865 71.6215 115.121 71.5304L115.026 71.5568C116.332 71.1001 116.162 71.0351 116.79 70.8488C117.015 70.7816 117.9 70.5738 118.635 70.3702C113.253 70.7284 107.849 71.1206 102.445 71.465C102.642 71.8408 111.695 70.9344 111.898 70.9718C112.755 71.1125 105.523 71.6783 100.436 71.9874C98.2386 72.1207 96.4533 72.2017 95.8771 72.1945C97.3312 72.1918 98.7543 72.1841 100.201 72.172C97.758 72.7909 92.3133 72.5442 88.7404 72.923C87.5806 73.049 89.7984 73.1156 89.7589 73.129C88.477 73.3811 86.3783 73.3426 87.9279 73.0216C84.7577 73.4083 85.2158 73.1272 82.7589 73.2003C82.6364 73.2038 83.6858 73.36 81.7472 73.507C80.8463 73.5887 75.8882 73.6814 75.1827 73.8312C74.8995 73.9094 77.4658 74.6527 77.7687 73.9904C83.155 74.1845 79.4864 73.6582 81.5665 73.6154C81.8845 73.602 81.1746 74.0151 86.3273 73.6154C85.374 74.3147 79.3796 74.0617 78.3263 74.1388C76.1879 74.3693 85.0024 74.446 86.5314 73.8351C85.8022 74.3688 87.1462 73.8746 89.0656 73.7911C91.1696 73.6967 90.248 73.8946 91.3849 73.8292C94.4794 73.6445 93.1832 73.3816 95.7394 73.5255C93.7268 72.8855 97.7772 73.0236 100.48 73.1329C101.126 73.1602 101.691 73.188 102.075 73.2072C101.547 73.2534 101.018 73.2989 100.487 73.3449C97.7873 73.5784 95.0794 73.8034 92.3693 74.0118C92.5554 74.0509 92.7427 74.0894 92.9308 74.1281C92.0797 74.1749 91.2113 74.22 90.3654 74.2628C90.4993 74.2061 90.6337 74.1496 90.7687 74.0929C86.3525 74.6689 85.2445 74.346 84.8829 74.3605C80.1317 74.5057 74.9405 74.7932 69.216 74.3654C68.8258 74.3296 68.7262 74.3847 68.1613 74.3702C67.8892 74.3625 67.4879 74.3394 66.799 74.2335C66.4539 74.1791 66.012 74.0999 65.4327 73.9572C64.7695 73.7725 64.1185 73.6633 62.5255 72.8937C62.0963 72.6728 61.586 72.4051 60.8644 71.9298C60.1387 71.4 59.1905 70.9099 57.6456 68.8917C55.8606 66.6171 55.4596 63.1571 55.6769 61.882C55.8429 60.4558 56.0199 60.2225 56.1046 59.9738C56.2063 59.7569 56.2825 59.4823 56.6798 58.5831C57.0618 57.7035 57.9562 56.2174 59.1339 55.088C59.2757 54.948 59.4359 54.799 59.6036 54.6495C57.8627 54.8387 54.362 55.1349 52.1818 55.2443C52.1396 55.2726 52.0855 55.3045 52.0148 55.337C51.3524 55.631 48.9507 55.7107 51.2003 55.7667C45.9178 56.7561 49.0876 55.9234 48.7345 55.9484C48.2404 55.9783 46.373 56.4281 46.1378 56.4484C45.7825 56.4813 46.978 56.123 45.589 56.297C45.3642 56.326 43.2445 56.9488 46.0616 56.6173C42.2709 57.1997 42.6413 57.3598 41.254 57.0968C38.7453 58.3543 39.2708 56.8473 38.2023 56.9396C38.1742 56.9418 38.1466 56.9442 38.1193 56.9464C38.1241 56.9439 38.13 56.9421 38.1349 56.9396C38.228 56.888 38.2455 56.8799 38.4288 56.7726C38.804 56.5476 39.2682 56.2549 39.8868 55.7267C39.5035 55.7566 39.1329 55.7868 38.7824 55.8146C38.5245 55.9923 38.3029 56.1245 38.1095 56.2472C37.3067 56.7027 36.9119 56.8548 36.6173 56.9601C36.4449 56.9735 36.1142 57.0102 35.7384 57.0548C35.5631 57.0758 35.3503 57.1021 35.1769 57.1251C35.1914 57.1223 35.2078 57.1199 35.2257 57.1163C35.2655 57.1083 35.3149 57.0976 35.379 57.0831C35.4086 57.076 35.6012 57.0359 35.923 56.9406C36.0935 56.889 36.3088 56.8225 36.6593 56.6857C36.836 56.6159 37.0479 56.5278 37.3283 56.3917C37.4688 56.3232 37.6275 56.2424 37.8107 56.1398C37.8718 56.1051 37.8522 56.1176 37.9991 56.0314C38.0878 55.9788 38.1808 55.919 38.2814 55.8546C37.8154 55.8927 37.3977 55.9298 37.0499 55.965C36.2649 56.0439 36.7568 56.2428 35.423 56.382C35.2082 56.4036 34.961 56.4249 34.5939 56.4503C34.5113 56.456 34.4194 56.4622 34.3077 56.4689C34.1947 56.4755 34.1159 56.4797 33.9493 56.4874C33.8748 56.4908 33.7981 56.4945 33.714 56.4972C33.5933 56.5009 33.4549 56.505 33.2452 56.504C33.2182 56.5039 33.0701 56.5022 32.9191 56.4962C32.7567 56.4891 32.5603 56.4822 32.2003 56.4406C32.1092 56.4297 32.0061 56.4155 31.8849 56.3966C31.8243 56.3872 31.7586 56.3771 31.6876 56.3644C31.6522 56.358 31.6149 56.3504 31.5763 56.3429C31.4544 56.3197 31.1475 56.2563 30.8175 56.1603C30.1358 55.8589 29.0369 55.947 26.7042 53.5275C25.5857 52.3289 24.3808 49.7319 24.6427 47.2286C24.8621 44.7293 25.9804 43.1513 26.7159 42.2931C28.2608 40.6174 29.1167 40.4232 29.047 40.4064C29.199 40.3224 29.3327 40.2545 29.4523 40.1964C30.3742 39.7667 30.6568 39.725 30.9298 39.6388C31.0566 39.6036 31.1554 39.5792 31.2404 39.5587C31.3058 39.5431 31.3265 39.5383 31.3654 39.5294C31.4352 39.5137 31.4953 39.5007 31.5499 39.4894C31.6588 39.4669 31.7466 39.4503 31.8273 39.4357C33.1794 39.3028 34.6803 39.1428 36.2218 38.9708C35.7622 38.8206 35.4573 38.7834 35.1837 38.6993C35.1176 38.685 35.0336 38.6681 34.9982 38.6613C34.987 38.6591 34.9759 38.6575 34.965 38.6554C34.9429 38.6512 34.9215 38.6466 34.9005 38.6427C34.8584 38.635 34.8179 38.6278 34.7794 38.6212C34.7025 38.6082 34.6322 38.5975 34.5675 38.588C34.3092 38.5506 34.1311 38.5337 33.9874 38.5216C33.4362 38.4809 33.3286 38.4938 33.2706 38.4904C33.0062 38.4906 33.095 38.4891 33.1251 38.4835C33.2134 38.4733 33.3868 38.4568 33.5597 38.4386C33.8634 38.4063 34.1952 38.3685 34.4923 38.3341C34.5177 38.3375 34.5444 38.3401 34.5714 38.3439C34.6508 38.3553 34.738 38.369 34.8361 38.3859C34.8851 38.3943 34.9374 38.4028 34.9923 38.4132C34.9351 38.4034 35.3748 38.479 35.8507 38.6163C36.0947 38.6917 36.3769 38.7729 36.7355 38.9132C37.1158 38.8704 37.4978 38.8263 37.88 38.7824C37.6964 38.6904 37.5377 38.6103 37.4103 38.5333C37.16 38.4247 36.9357 38.3361 36.7345 38.2609C37.7243 38.0166 38.7119 37.7712 39.7042 37.5236C41.8525 37.732 38.8706 38.1956 44.548 37.506C45.4543 37.0633 40.5233 37.945 41.5031 37.5714C42.0753 37.353 45.3592 37.0036 45.4347 36.9093C45.4789 36.8006 42.5068 37.2084 42.965 37.004C43.9722 36.561 54.8813 35.8456 46.6115 36.8283C48.6176 36.6309 49.8154 37.0351 51.4054 36.882C51.6717 36.84 51.9529 36.7959 52.2433 36.7501C53.1423 36.4922 46.3137 36.2334 57.0343 35.3771C57.3049 35.6807 52.6598 35.8936 52.546 35.9298C52.4126 35.9722 52.9771 36.4109 53.2755 36.587C55.2352 36.2762 57.2981 35.9427 57.9074 35.8048C55.9688 36.195 54.8977 36.4491 54.5343 36.5753C55.2858 36.4998 56.357 36.3837 57.5704 36.2501C57.8238 36.2077 58.0906 36.165 58.3693 36.1163C58.285 36.1414 58.199 36.1651 58.1124 36.1906C59.192 36.0721 60.3584 35.9469 61.4982 35.8312C62.2035 35.724 62.896 35.617 63.5343 35.5167C63.3861 35.4153 63.4 35.0374 63.1866 35.0158C63.0712 35.0032 59.2238 35.5535 58.7296 35.5558C58.5854 35.5566 58.4754 35.5528 58.3947 35.549C58.9931 35.6428 55.5241 35.963 55.5988 35.7863C55.6732 35.7124 58.0363 35.5239 58.1447 35.5255C58.1818 35.5269 58.215 35.5315 58.2452 35.5333C57.7127 35.3995 65.833 34.6324 64.0568 34.5265C66.4209 34.1502 63.7658 34.9585 65.5177 34.6447C65.9322 34.5702 66.3012 34.2467 67.6056 34.0509C68.1501 33.9683 68.8667 33.91 69.8556 33.9054C69.8585 33.9051 69.8615 33.9047 69.8644 33.9044C70.4838 33.9035 70.2284 34.0059 70.0411 34.0851C71.0634 33.9107 71.8713 33.7722 71.9523 33.7267C72.1151 33.6361 70.1339 33.8511 70.839 33.6271C70.9607 33.586 72.9958 33.4652 74.7931 33.0372C75.4771 32.8752 75.0238 32.7704 75.1945 32.7247C76.6207 32.3451 75.8948 32.82 78.4923 32.2423C80.4438 31.8069 81.802 31.2117 84.548 30.7501C75.6345 32.1706 83.0697 30.8243 86.7501 29.9357C87.332 29.7946 86.7697 29.5645 90.3429 28.9874C83.4766 31.0056 91.1986 29.1857 94.0109 28.5568C94.2263 28.5088 94.4121 28.4678 94.5568 28.4376C94.6656 28.4173 94.7479 28.6283 95.7208 28.424C95.8002 28.4064 95.6613 28.2824 96.5499 28.0802C105.069 26.1259 99.6407 27.4734 101.296 27.2658C102.005 27.1764 106.103 26.0552 107.227 25.798C107.486 25.7395 107.401 25.9168 108.393 25.6886C110.156 25.2822 111.692 24.7676 112.85 24.4923C112.985 24.4608 113.047 24.6962 115.232 24.1183C115.845 23.956 116.52 23.7137 115.625 23.8468C112.656 24.2906 107.214 25.9227 103.862 26.424C100.809 26.8837 110.283 24.7671 110.777 24.6476C110.958 24.6063 109.138 25.1385 111.022 24.7394C112.636 24.396 115.47 23.3275 117.885 22.8683C118.068 22.8338 120.057 22.7361 119.981 22.7755C119.906 22.8086 116.985 23.5577 117.436 23.5587C117.488 23.5588 119.355 23.1276 119.616 23.1447C119.936 23.1659 120.951 23.8561 121.356 23.7853C122.392 23.6013 121.678 23.5573 122.343 23.4171C123.768 23.1185 128.75 22.2152 128.834 21.8761C128.019 22.05 127.2 22.2249 126.385 22.3976C130.896 21.3015 128.937 21.6273 129.564 21.42C130.239 21.1959 130.112 21.5049 131.638 21.1681C131.98 21.0949 138.324 19.5149 138.181 19.4318C134.703 20.4542 135.929 19.8167 135.766 19.8497C135.147 19.9758 134.395 20.3483 133.571 20.5411C127.742 21.8987 133.542 20.2147 132.15 20.4679C131.667 20.5563 130.767 20.9339 130.564 20.9738C129.905 21.1023 129.843 20.9012 129.411 21.0206C128.406 21.2981 129.659 21.3073 129.586 21.3409C128.724 21.7373 125.108 22.3479 127.247 21.5118C125.889 21.71 125.828 22.1308 124.735 22.2238C122.563 22.4077 125.726 21.7539 126.563 21.504C129.571 20.6064 130.512 20.5417 134.818 19.464C136.364 19.0768 138.162 18.4513 138.877 18.2687C139.076 18.2193 140.015 18.1146 141.008 17.9308C141.003 17.9275 140.993 17.9242 140.973 17.924C140.657 17.9203 139.963 17.9335 139.022 17.9562C138.94 17.9754 138.868 17.9909 138.809 18.007C138.645 18.0517 138.6 18.3031 137.704 18.5382C137.703 18.5388 137.702 18.5396 137.701 18.5402C137.366 18.6276 136.869 18.537 136.751 18.5626C136.477 18.6277 130.31 20.1704 132.609 19.3546C132.828 19.2804 135.799 18.5946 138.538 17.9679C134.155 18.0786 125.581 18.3545 123.136 18.296C125.026 18.2996 134.448 17.8004 134.259 17.6954C134.207 17.6817 131.922 17.6163 131.451 17.6827C130.663 17.5705 127.994 18.0249 126.532 17.9786C126.368 17.9734 127.006 17.7388 124.397 17.7579C123.51 17.7647 121.143 17.9861 118.785 17.8507C115.365 18.0148 97.347 18.159 96.1163 18.4034C96.0798 18.4154 98.6201 18.4343 96.9093 18.5607C94.6371 18.7278 96.6639 18.2873 94.0118 18.3136C93.6083 18.3181 86.2288 18.5243 85.9845 18.5529C83.7608 18.8154 90.1983 18.7635 90.1261 18.7911C89.9033 18.8601 84.55 19.0102 84.3224 19.0001C84.1174 18.9898 88.4802 18.6121 83.2218 18.8331C83.8258 18.8538 84.4316 18.8747 85.0382 18.8956C82.5593 19.0139 82.3213 18.8242 81.7228 18.8253C79.8617 18.8294 77.8644 19.16 74.8566 18.8683C74.0626 18.7915 75.3698 18.6577 75.2706 18.6456C74.3113 18.5411 73.1306 18.9043 71.6915 18.6857C71.5887 18.6697 74.8986 18.443 69.0939 18.5763C69.4917 18.591 69.891 18.6055 70.2911 18.6202C69.4783 18.6925 63.6292 18.853 62.8204 18.8585C60.5102 18.8737 62.5077 18.6644 60.2081 18.7355C61.7075 18.9294 54.6636 19.1082 55.0441 18.9103C54.0743 19.1701 48.056 19.113 45.2687 19.1652C43.4584 19.2005 39.8471 19.3693 39.2999 19.3673C39.1366 19.367 39.0245 19.3571 38.9318 19.3429C38.6268 19.299 38.5057 19.2087 37.5587 19.2023C37.204 19.2007 33.54 19.3794 30.2882 19.295C29.6486 19.2788 28.3057 19.0639 29.4825 18.9757C31.4678 18.8242 35.2479 18.9422 35.212 18.7941C35.1159 18.6363 30.1023 18.8442 28.6837 18.8575C22.3717 18.9134 26.0164 18.6666 25.84 18.6202C25.4446 18.5094 21.9569 18.606 21.8107 18.5997C21.2057 18.5695 23.675 18.4088 23.6906 18.3361C23.7492 18.2387 20.3933 18.1676 21.1574 18.1144C22.2198 18.0376 25.3126 18.0901 25.4991 18.0792C27.9954 17.9166 24.558 17.793 23.5841 17.7179C23.2957 17.694 24.4389 17.6042 24.2023 17.6017C20.5591 17.5695 23.423 17.931 21.0187 17.9738C18.8214 18.0153 21.6419 17.7871 21.5402 17.7824C21.4451 17.7763 18.8508 17.8504 18.4308 17.8156C18.2327 17.7977 24.9518 17.3058 24.6827 17.1876C22.5485 17.2852 20.3591 17.3857 18.2199 17.4865C18.0507 17.3337 21.1811 17.3423 21.4659 17.3175C22.0988 17.2628 20.3318 17.2405 20.3868 17.1886C20.4579 17.154 22.5069 16.9676 20.631 16.9865C19.9481 16.9954 18.5957 17.1529 16.2003 17.131C24.5004 16.6781 18.7405 16.8005 18.4991 16.755C18.2839 16.7078 22.1929 16.4221 17.4025 16.6329C17.1923 16.3355 17.4755 16.5329 18.8781 16.423C20.5325 16.2911 16.6389 16.3415 22.8038 16.1769C22.4117 16.0432 17.5073 16.2528 17.256 16.2531C17.0348 16.2519 18.1077 16.1368 17.7218 16.129C13.1116 16.0517 16.292 16.0399 14.9279 15.9249C14.7978 15.9131 10.4612 16.057 13.7726 15.8732C19.7921 15.5446 22.3577 15.6552 23.3478 15.1622C18.8436 15.1655 13.4856 15.7029 12.0929 15.7775C10.0404 15.8887 12.1491 15.6954 11.9034 15.6837C11.8189 15.6796 10.0158 15.781 10.007 15.7755C8.69396 15.5168 17.9735 15.3639 20.9103 15.1876C20.1173 15.1726 19.3329 15.1584 18.5558 15.1447C19.5917 15.0943 20.6966 15.0412 21.7277 14.9923C16.674 15.1226 21.5322 14.9637 22.8146 14.6281C23.088 14.5529 19.7565 14.8159 23.5441 14.465C20.7412 14.5576 21.6588 14.4593 19.1144 14.6593C19.1564 14.5483 24.8909 14.1455 27.1124 13.9816C19.1684 14.2421 23.6997 14.421 16.8478 14.5519C15.5722 14.7492 18.8351 14.5588 18.588 14.5939C17.6119 14.7209 15.3671 14.7095 12.6798 15.1232C12.2417 15.1907 14.1137 15.2282 11.3536 15.3673C11.0491 15.3816 9.32408 15.3674 9.29993 15.3585C9.52563 15.2545 11.285 15.1883 11.3478 15.1476C11.4215 15.107 9.46676 15.2398 9.45618 15.2316C9.39592 15.1218 11.0732 15.0947 10.8331 15.0734C10.2998 15.022 3.28128 15.2053 12.4376 14.7325C4.84777 15.3034 11.4595 14.9027 14.4083 14.7033C15.1671 14.6508 15.3499 14.5722 16.421 14.4923C17.8005 14.3892 19.4081 14.3419 20.1281 14.2931C20.8961 14.2401 16.5074 14.2915 22.8478 14.0236C19.599 14.0163 13.975 14.4833 10.795 14.5597C4.42007 14.7275 15.2251 14.014 16.3429 13.9454C16.6433 13.9227 15.6331 13.8841 15.8322 13.8673C16.1983 13.8355 22.26 13.5547 22.9015 13.4425C23.5138 13.3296 20.6391 13.5655 20.464 13.4923C20.3008 13.4442 27.758 12.9462 23.7052 13.1232C20.9523 13.2451 15.8658 13.7475 15.0109 13.5636C19.0603 13.3089 23.1036 13.0699 27.1866 12.8312C24.9428 12.8557 22.7201 12.8836 20.5138 12.9171C25.0222 12.6303 29.026 12.5235 33.3126 12.1525C22.9226 12.4115 36.6762 11.716 36.8195 11.67C36.8691 11.6422 32.7761 11.6147 32.1202 11.6075C33.6018 11.4828 36.2981 11.2965 38.6027 11.1202C41.7937 10.8722 44.1238 10.6372 40.2824 10.6691C41.4913 10.6731 44.261 10.3259 44.2443 10.3126C43.8652 10.1892 37.712 10.6504 38.7247 10.4611C39.8393 10.2435 41.5502 10.3456 43.3029 10.2238C52.558 9.58278 49.9251 8.95158 59.1984 8.48645C59.0113 8.46938 58.8241 8.45266 58.6378 8.43567C68.6704 7.83826 78.7163 7.24731 88.7589 6.67005C92.6717 6.14931 103.119 5.30798 108.256 5.01868C109.289 4.95932 114.374 4.79982 114.757 4.80481C115.469 4.81418 111.57 5.07404 113.337 5.06458C113.707 5.06086 122.3 4.60783 121.689 4.47376C120.717 4.51271 117.715 4.78032 117.217 4.77063C113.738 4.69197 140.243 3.31935 141.562 3.13392C140.959 3.1101 140.386 3.08629 139.797 3.06263C141.44 2.99343 143.169 2.92163 144.811 2.85462C144.145 2.94529 143.474 3.03535 142.798 3.1261C144.704 3.04836 147.32 2.861 149.086 2.8097C149.381 2.80151 148.62 2.99568 149.32 2.96302C150.019 2.9305 149.879 2.73072 150.883 2.65149C151.968 2.56369 157.201 2.41857 158.962 2.32044C161.236 2.19235 163.527 2.05364 165.756 1.92005C170.238 1.655 174.68 1.39944 179.167 1.26868C172.162 1.74112 179.237 1.58965 181.182 1.44642C181.632 1.42308 181.486 0.966169 188.609 0.87708ZM133.669 72.9513C131.622 73.5446 122.171 75.3375 121.677 75.4474C121.301 75.5368 124.193 75.1907 119.704 75.9337C119.703 75.934 119.701 75.9344 119.699 75.9347C123.026 75.6245 127.406 74.3939 127.888 74.2941C128.378 74.205 127.649 74.505 127.761 74.4865C128.016 74.4507 133.189 73.3864 133.433 73.3165C133.609 73.2697 132.618 73.2486 133.669 72.9513ZM125.773 75.7247C126.08 75.6665 133.346 74.2147 132.002 74.6447C131.084 74.9546 123.895 76.1606 125.773 75.7247ZM134.145 73.8966C133.506 74.123 126.175 75.5588 125.874 75.5841C123.639 75.8702 133.559 74.0121 134.145 73.8966ZM127.578 73.9767C125.928 74.3142 123.389 74.763 122.511 75.0529C124.145 74.7307 126.714 74.2789 127.578 73.9767ZM129.297 74.6163C131.661 74.218 136.811 72.969 134.735 73.6788C133.696 74.0318 132.946 74.0149 132.813 74.0402C131.474 74.2909 128.722 74.8552 129.297 74.6163ZM140.244 71.0314C136.167 71.8405 136.555 72.1095 135.391 72.3556C133.761 72.6922 133.82 72.38 134.121 72.2189C132.839 72.6974 127.191 73.8977 123.93 74.5792C126.813 74.0667 131.505 73.2231 134.351 72.6495C135.166 72.4867 135.928 72.2355 136.621 72.089C137.729 71.8554 136.781 72.1901 136.855 72.1779C136.856 72.1775 136.859 72.1773 136.86 72.1769C138.325 71.9179 140.119 71.2273 137.025 71.9064C138.099 71.6215 139.171 71.3307 140.244 71.0314ZM134.043 74.0529C134.457 74.0406 133.545 74.4306 132.664 74.4972C132.286 74.5262 132.939 74.2777 134.043 74.0529ZM132.31 73.3663C134.273 73.0375 129.29 74.0762 129.118 74.0939C127.806 74.2688 131.425 73.5202 132.31 73.3663ZM74.3995 73.8976C73.624 73.9123 71.0935 73.7448 70.839 73.8029C70.5986 73.9218 74.2582 74.1034 74.3995 73.8976ZM69.7892 73.129C69.5188 73.3118 73.2904 73.4416 73.3429 73.3995C73.9773 73.2765 70.8522 73.1593 69.7892 73.129ZM104.839 72.6027C104.229 72.7431 102.971 72.918 102.145 73.0607C102.344 72.8518 102.858 72.6734 104.839 72.6027ZM96.7384 72.8087C96.3971 72.9743 91.8638 73.1016 91.6788 73.0011C93.439 72.8918 95.1155 72.8415 96.7384 72.8087ZM96.6964 71.7843C95.6929 71.762 92.5127 72.1579 91.8351 72.3927C91.704 72.3617 91.3475 72.3311 90.714 72.3048C89.9791 72.4813 63.5011 72.7977 81.3009 72.9259C81.8559 72.9207 81.1002 72.7656 83.3361 72.7208C83.4819 72.7181 83.5553 72.8639 84.0118 72.8536C85.0654 72.8393 90.6059 72.6622 91.7023 72.4767C91.7123 72.503 91.7889 72.5242 91.9376 72.5392C93.3077 72.6731 97.4662 71.8014 96.6964 71.7843ZM135.149 71.4376C134.112 71.5862 130.703 72.5877 130.001 72.7911C135.18 71.5604 133.283 72.2247 134.23 72.1017C136.245 71.8317 135.399 71.4029 135.149 71.4376ZM91.8351 72.3927C91.9478 72.4204 91.8963 72.446 91.7023 72.4767C91.6924 72.4519 91.7418 72.4246 91.8351 72.3927ZM105.306 71.7921C105.56 71.806 106.412 72.5814 103.708 72.4601C103.222 72.4368 105.11 72.1065 101.824 72.2374C104.278 72.0839 103.741 71.717 105.306 71.7921ZM142.301 71.2433C140.494 71.5294 136.902 72.5007 137.853 72.34C138.271 72.2758 142.018 71.4381 142.301 71.2433ZM111.874 72.007C111.888 72.124 108.876 72.3561 108.641 72.3546C107.038 72.3445 110.777 72.0319 111.874 72.007ZM99.841 71.6847C99.7449 71.6816 96.8349 71.7851 97.2404 71.9357C97.8277 72.1583 100.665 71.7259 99.841 71.6847ZM115.907 71.6788C119.71 70.4714 120.183 70.1127 115.033 71.5802L115.127 71.5548C114.818 71.6461 114.452 71.7436 114.028 71.8634C114.586 71.8019 115.239 71.7381 115.907 71.6788ZM133.044 71.7736C134.584 71.6745 135.774 70.8474 133.527 71.4816C133.422 71.5117 132.977 71.7769 133.044 71.7736ZM118.254 71.1642C117.495 71.3398 116.89 71.4825 116.268 71.6466C116.741 71.6062 117.213 71.5681 117.656 71.5363C117.869 71.4661 118.042 71.4078 118.128 71.3683C118.858 71.0216 115.308 72.0694 118.254 71.1642ZM144.358 70.6759C143.491 70.9025 142.803 71.0937 142.907 71.1505C142.909 71.1501 142.911 71.149 142.913 71.1486C143.539 70.9934 144.163 70.8346 144.788 70.674C144.646 70.6744 144.502 70.6755 144.358 70.6759ZM142.082 70.6818C141.964 70.7264 142.006 70.7311 142.276 70.6818C142.211 70.6819 142.146 70.6817 142.082 70.6818ZM150.487 70.7052C150.483 70.7043 150.479 70.7032 150.475 70.7023L150.396 70.0304C150.4 70.0293 150.403 70.0286 150.407 70.0275L150.487 70.7052ZM146.084 69.671C145.958 69.6747 145.839 69.6764 145.726 69.6769C144.716 69.9396 143.415 70.2851 142.653 70.504C142.797 70.502 142.942 70.5019 143.088 70.5001C143.778 70.3202 145.134 69.9491 146.084 69.671ZM147.281 70.5021C147.509 70.3386 152.625 68.7581 146.821 70.299C146.551 70.366 146.308 70.4299 146.088 70.4855C146.562 70.4877 146.973 70.4938 147.281 70.5021ZM147.527 69.4992C147.757 69.5373 147.708 69.5749 147.067 69.6193C145.684 70.005 147.835 69.6286 147.154 69.8947C146.745 70.0522 145.905 70.272 145.078 70.4865C145.226 70.4861 145.371 70.4855 145.512 70.4855C146.757 70.16 148.005 69.8226 149.262 69.4591C148.61 69.5171 148.535 69.4635 148.793 69.3527C148.581 69.3456 148.372 69.3407 148.167 69.3351C147.919 69.3962 147.708 69.4525 147.527 69.4992ZM143.202 69.5626C145.004 69.0223 140.317 70.1037 139.476 70.4786C140.377 70.2527 142.694 69.718 143.202 69.5626ZM154.472 58.3409C153.82 58.6376 152.173 58.8596 150.68 59.0646C150.376 59.1062 150.076 59.149 149.792 59.1896C150.414 59.2687 151.072 59.358 151.748 59.462C157.458 60.0032 158.266 67.2563 152.904 69.2931C152.076 69.5525 151.23 69.7976 150.407 70.0275L150.383 69.8224C151.134 69.6187 150.527 69.8963 151.143 69.7189C151.249 69.6876 151.944 69.4759 152.861 69.174C158.089 67.188 157.301 60.1155 151.734 59.588C150.962 59.4728 150.043 59.365 149.141 59.2667L149.122 59.1066C149.282 59.1255 149.444 59.1455 149.609 59.1661C149.866 59.0852 150.236 59.003 150.657 58.923C151.872 58.6931 153.531 58.4821 154.472 58.3409ZM150.357 69.5978L150.383 69.8224C150.379 69.8234 150.375 69.8243 150.371 69.8253L150.344 69.5958C150.348 69.5962 150.352 69.5974 150.357 69.5978ZM72.7218 68.5724C72.5698 68.6074 72.4205 68.64 72.2755 68.6749C71.6816 69.2264 71.255 69.472 71.0363 69.5743C71.0093 69.5921 70.9793 69.6102 70.9523 69.631C70.9402 69.6405 70.9261 69.6514 70.9142 69.6622C71.0504 69.6147 71.3426 69.5378 71.7599 69.4386C71.9567 69.2831 72.2009 69.0829 72.4952 68.8175C72.5594 68.7444 72.6357 68.6637 72.7218 68.5724ZM150.617 69.5372H150.616C150.61 69.5368 150.604 69.5367 150.598 69.5363L150.594 69.5031C150.6 69.5009 150.607 69.4994 150.613 69.4972L150.617 69.5372ZM150.335 69.5187C150.339 69.519 150.344 69.5194 150.348 69.5197L150.335 69.4181C150.331 69.4179 150.327 69.4183 150.323 69.4181L150.335 69.5187ZM146.732 69.4201C146.777 69.4235 146.822 69.4263 146.866 69.4298C147.071 69.3622 147.173 69.3244 147.115 69.3224C147.048 69.3384 146.914 69.3736 146.732 69.4201ZM150.237 68.6847L150.265 68.921C150.269 68.9201 150.273 68.9191 150.276 68.9181L150.249 68.6827C150.245 68.6835 150.241 68.684 150.237 68.6847ZM150.491 68.6329L150.519 68.8605C150.525 68.859 150.531 68.8571 150.537 68.8556L150.511 68.629C150.504 68.6305 150.498 68.6315 150.491 68.6329ZM149.549 60.2501L149.574 60.4669C150.257 60.5424 150.954 60.626 151.606 60.7296C155.882 61.1348 156.488 66.5673 152.472 68.0929C151.74 68.3226 151.063 68.5082 150.534 68.6242L150.561 68.8507C151.252 68.6854 152.006 68.524 152.591 68.423C156.976 66.7569 156.315 60.8244 151.645 60.382C151.487 60.3337 151.343 60.2862 151.218 60.2404C150.653 60.236 150.106 60.2404 149.549 60.2501ZM150.204 68.4093L150.222 68.5587C150.226 68.5576 150.23 68.556 150.234 68.5548L150.216 68.4054C150.212 68.4066 150.208 68.4082 150.204 68.4093ZM150.456 68.3351L150.474 68.4845C150.48 68.4826 150.487 68.4815 150.493 68.4796L150.476 68.3292C150.469 68.3311 150.463 68.3332 150.456 68.3351ZM151.58 60.962C150.473 60.8287 150.76 60.9099 151.569 61.0558C155.477 61.4262 156.03 66.3902 152.36 67.7843C151.866 67.9307 151.179 68.1254 150.499 68.3224L150.517 68.4728C151.377 68.2141 151.993 68.0112 152.393 67.8732C156.162 66.4413 155.594 61.3427 151.58 60.962ZM83.8458 66.9738C83.5658 67.0044 83.2835 67.0403 83.0011 67.0783C83.2827 67.044 83.5644 67.0074 83.8458 66.9738ZM146.312 61.0958C145.521 61.0336 144.838 61.0002 144.622 61.0402C144.979 61.0532 145.534 61.1014 146.139 61.1583C146.195 61.1383 146.253 61.117 146.312 61.0958ZM146.899 60.8331C145.345 60.5501 144.921 60.9575 146.626 60.9825C146.714 60.9503 146.804 60.917 146.896 60.8829C146.913 60.8579 146.92 60.8381 146.899 60.8331ZM149.506 60.2511L149.53 60.462C149.537 60.4628 149.543 60.4633 149.55 60.464L149.525 60.2511C149.518 60.2512 149.512 60.251 149.506 60.2511ZM137.943 60.1613C136.897 59.9308 135.717 60.3775 137.399 60.4366C137.901 60.4541 138.053 60.1873 137.943 60.1613ZM149.266 60.4318C149.27 60.4322 149.274 60.4333 149.278 60.4337L149.255 60.2423C149.251 60.2398 149.247 60.237 149.243 60.2345L149.266 60.4318ZM145.998 59.8409C145.902 59.8881 145.758 59.9527 145.579 60.0294C146.04 60.1224 147.087 60.2149 148.317 60.3351C148.524 60.2528 148.733 60.1683 148.943 60.0822C148.878 60.057 148.814 60.0372 148.751 60.0226C148.327 60.1739 147.979 60.2798 147.85 60.2736C148.024 60.2111 148.291 60.1067 148.588 59.9943C147.972 59.9232 147.354 60.2146 145.998 59.8409ZM144.273 59.8839C142.064 59.5676 143.092 60.172 144.741 60.1456C144.837 60.1442 144.377 59.8989 144.273 59.8839ZM145.794 59.7843C145.357 59.857 145.249 59.9181 145.38 59.9757C145.439 59.9549 145.495 59.9332 145.549 59.9152C145.689 59.8703 145.802 59.8359 145.889 59.8107C145.858 59.8016 145.826 59.7941 145.794 59.7843ZM149.198 59.8566L149.212 59.9708C149.216 59.9694 149.219 59.9684 149.223 59.9669L149.21 59.8527C149.206 59.8541 149.202 59.8551 149.198 59.8566ZM149.47 59.7863C149.464 59.7856 149.457 59.785 149.451 59.7843L149.448 59.7609C149.454 59.7584 149.461 59.7565 149.467 59.754L149.47 59.7863ZM149.185 59.6378L149.198 59.757C149.194 59.7565 149.191 59.7564 149.187 59.756L149.173 59.6368C149.177 59.6373 149.181 59.6374 149.185 59.6378ZM149.141 59.2667L149.162 59.4484C149.158 59.4479 149.154 59.4469 149.151 59.4464L149.129 59.2658C149.133 59.2662 149.137 59.2663 149.141 59.2667ZM149.122 59.1066C149.118 59.1061 149.114 59.1061 149.11 59.1056L149.057 58.6515C149.061 58.6505 149.065 58.6505 149.068 58.6495L149.122 59.1066ZM143.017 58.8224C143.41 58.8443 143.666 58.8615 143.74 58.8722C143.901 58.8707 144.017 58.7362 143.942 58.7247C143.916 58.7178 143.873 58.7099 143.813 58.7023C143.547 58.7422 143.282 58.7826 143.017 58.8224ZM144.307 58.6281C144.548 58.6476 144.7 58.6646 144.735 58.6779C144.921 58.7193 144.682 58.7487 144.596 58.7999C145.041 58.7369 145.485 58.6743 145.927 58.6095C145.646 58.5744 145.352 58.5412 145.062 58.5148C144.81 58.5528 144.559 58.59 144.307 58.6281ZM149.057 58.6515C148.963 58.675 148.892 58.6856 148.855 58.6779C148.911 58.6554 148.978 58.6282 149.051 58.5978L149.057 58.6515ZM150.469 57.6993C148.883 57.935 147.219 58.1881 145.528 58.4445C145.853 58.4616 146.201 58.487 146.546 58.5187C147.024 58.4472 147.501 58.3753 147.975 58.3009C148.467 58.2239 149.617 58.0598 150.5 57.8986C151.322 57.7492 151.934 57.6032 151.733 57.5148C151.323 57.5735 150.901 57.6351 150.469 57.6993ZM35.2306 57.9874C34.9848 58.029 34.9602 58.0256 34.9689 58.0226C34.9811 58.0183 35.0357 58.0086 35.0919 57.9991C35.2193 57.9788 35.3448 57.9574 35.4835 57.9347C35.335 57.967 35.2735 57.9798 35.2306 57.9874ZM36.1437 57.7667C36.1454 57.7823 36.1429 57.7933 36.1281 57.799C36.0277 57.8377 35.7705 57.8867 35.507 57.9318C35.4992 57.933 35.4912 57.9334 35.4835 57.9347C35.5227 57.9262 35.5687 57.9194 35.6212 57.9074C35.7031 57.8878 35.8754 57.846 36.1437 57.7667ZM38.1193 56.9464C36.9181 57.5743 36.5493 57.6298 36.2111 57.7482C36.1883 57.7551 36.1652 57.7604 36.1437 57.7667C36.1289 57.6304 35.6712 57.1493 38.1193 56.9464ZM36.0187 57.1622C35.8939 57.1998 35.7988 57.227 35.7159 57.2491C35.3909 57.3321 35.4243 57.3185 35.337 57.338C35.2135 57.3633 35.1546 57.373 35.1193 57.3781C34.8202 57.4234 34.8716 57.4015 34.923 57.3888C34.98 57.3739 35.0853 57.3537 35.1915 57.3331C35.3986 57.2926 35.6342 57.2478 35.8429 57.2033C35.9034 57.1901 35.962 57.1754 36.0187 57.1622ZM35.0763 57.1437C34.8092 57.1873 34.8405 57.1738 34.882 57.1671C34.9375 57.1575 35.0139 57.1463 35.1232 57.132C35.1405 57.1296 35.1586 57.1275 35.1769 57.1251C35.1276 57.1346 35.0971 57.1403 35.0763 57.1437ZM36.6593 56.9572C36.5899 57.0155 36.3394 57.0879 36.0187 57.1622C36.1142 57.1334 36.2272 57.0987 36.3644 57.0519C36.4452 57.021 36.5265 56.9926 36.6173 56.9601C36.6325 56.9589 36.6466 56.958 36.6593 56.9572ZM163.856 57.0851C161.929 57.1309 168.479 56.1867 166.386 56.7208C166.272 56.7488 163.97 57.0799 163.856 57.0851ZM156.94 56.3322C156.49 56.3444 154.438 56.7301 154.407 56.8253C154.32 57.1079 158.72 56.2844 156.94 56.3322ZM70.2208 55.5236C70.3268 55.5586 70.5413 55.6067 71.0919 55.8771C71.0444 55.8638 71.1158 55.8375 71.7501 56.3351C71.7696 56.3519 71.7898 56.369 71.8107 56.3868C72.0198 56.411 72.2342 56.4345 72.4533 56.4562C71.9654 55.9727 71.6845 55.8251 71.5089 55.6993C71.5068 55.6981 71.5041 55.6967 71.5021 55.6954C71.2764 55.6719 71.0629 55.6481 70.8654 55.6222C70.5537 55.5819 70.2825 55.5349 70.1769 55.5109C70.1255 55.5 70.1185 55.4943 70.2208 55.5236ZM70.0011 56.0753C69.9949 56.0833 70.1218 56.1209 70.2863 56.1564C70.2962 56.1585 70.3063 56.1601 70.3165 56.1622C70.0656 56.0684 70.0192 56.0807 70.0011 56.0753ZM39.0851 55.2736C34.4359 55.8614 35.4943 55.8739 38.5665 55.6632C38.6362 55.6149 38.7108 55.5663 38.7863 55.5109C38.88 55.4381 38.9785 55.3578 39.0851 55.2736ZM40.5656 55.09C40.2004 55.1343 39.8596 55.1764 39.5421 55.2159C39.3618 55.3757 39.1949 55.511 39.0392 55.6281C39.37 55.6045 39.7196 55.5793 40.0841 55.5519C40.2341 55.4144 40.3955 55.2624 40.5656 55.09ZM70.2736 55.1935C70.1765 55.1747 70.2142 55.1954 70.2872 55.2169C70.3603 55.2387 70.4713 55.2629 70.6046 55.2902C70.4181 55.2241 70.3269 55.2077 70.2736 55.1935ZM179.318 53.9357C179.696 54.2196 175.069 54.9184 173.65 55.1788C173.254 54.9146 177.538 54.4185 179.318 53.9357ZM53.8175 54.6642C53.5593 54.6679 52.8843 54.7243 52.1368 54.7911C52.1333 54.8516 52.1885 54.907 52.2374 54.963C52.768 54.9255 53.3339 54.8838 53.7863 54.8449C53.657 54.7963 53.6761 54.7366 53.8175 54.6642ZM60.6906 53.6964C59.609 53.7557 58.4773 53.831 57.5177 53.9298C57.2325 53.9925 56.949 54.0598 56.6749 54.129C57.6579 54.1005 58.6409 54.0735 59.6466 54.0431C57.9301 54.1837 56.6706 54.2951 55.7794 54.381C55.5066 54.4668 55.2573 54.5536 55.045 54.6456C55.289 54.6417 55.5634 54.6367 55.8566 54.629C55.9782 54.6204 56.0986 54.6279 56.2159 54.6202C57.444 54.5846 58.8708 54.533 59.7687 54.507C59.8227 54.4604 59.876 54.4128 59.9308 54.3673C60.2071 54.1129 60.4598 53.8917 60.6906 53.6964ZM181.628 51.7443C180.202 51.9867 178.684 52.7728 179.796 52.6769C180.893 52.435 181.782 51.718 181.628 51.7443ZM183.593 28.6232C183.817 28.6564 184.273 28.6717 185.838 29.2863C186.602 29.6873 187.823 29.8653 190.315 32.421C191.525 33.6861 193.125 36.4142 193.324 39.3214C193.553 42.1954 192.793 44.099 192.415 45.0402C190.862 48.5793 188.725 50.0537 187.558 50.8986C186.342 51.7189 185.542 52.0734 185.064 52.3087C185.437 52.0613 186.097 51.7426 187.278 50.9533C188.357 50.1347 190.521 48.9024 192.294 44.9894C192.574 44.3036 193 43.2349 193.184 41.5275C193.383 39.8488 193.108 37.4849 192.239 35.5997C190.373 31.761 188.381 30.8566 187.322 30.1339C185.146 28.9292 184.346 28.856 183.593 28.6232ZM178.234 49.1495C178.37 49.1874 178.428 49.1974 178.453 49.2013C178.515 49.2065 178.356 49.1721 178.213 49.1427C178.22 49.1448 178.227 49.1475 178.234 49.1495ZM177.369 48.8292C177.43 48.8558 177.487 48.8776 177.539 48.8995C177.638 48.8513 177.887 48.8255 177.808 48.8077C177.712 48.7831 177.5 48.7776 177.267 48.7755C177.302 48.7937 177.337 48.8094 177.369 48.8292ZM177.003 47.8663C176.856 47.8785 176.666 47.8935 176.444 47.9054C176.753 48.1104 176.984 48.2156 177.175 48.3107C177.535 48.3413 177.894 48.3809 178.199 48.4279C178.249 48.4345 178.299 48.4436 178.347 48.4523C178.25 48.4246 178.112 48.3817 177.921 48.3077C177.705 48.2169 177.437 48.1183 177.003 47.8663ZM175.814 47.9337C175.977 48.0609 176.125 48.1657 176.262 48.2531C176.388 48.2583 176.523 48.264 176.661 48.2726C176.497 48.1761 176.308 48.0613 176.091 47.921C176.002 47.9252 175.909 47.9296 175.814 47.9337ZM175.858 47.4591C175.952 47.5393 176.042 47.611 176.126 47.6759C176.361 47.6856 176.574 47.7006 176.758 47.7179C176.648 47.6488 176.528 47.572 176.399 47.4835C176.219 47.475 176.039 47.4661 175.858 47.4591ZM175.237 47.4396C175.322 47.518 175.403 47.5911 175.482 47.6593C175.571 47.6606 175.658 47.6621 175.743 47.6642C175.656 47.5985 175.559 47.5271 175.457 47.4454C175.384 47.4431 175.311 47.4417 175.237 47.4396ZM182.812 30.0226C182.178 29.9053 182.018 29.9245 182.029 29.9659C182.053 30.0127 182.288 30.0953 182.77 30.2384C183.273 30.4079 183.881 30.4993 185.48 31.2111C186.324 31.7042 187.577 31.9438 189.691 34.7042C190.68 36.0204 191.545 38.5043 191.476 40.4347C191.45 42.3999 190.967 43.6102 190.697 44.3165C190.18 45.6106 189.492 46.6368 188.86 47.4161C189.451 46.7346 190.193 45.752 190.789 44.3546C191.092 43.5905 191.734 42.1015 191.596 39.6447C191.489 37.1517 190.071 34.6327 188.964 33.5031C186.672 31.1961 185.635 31.0915 184.865 30.6915C184.148 30.3999 183.685 30.2653 183.37 30.171C183.032 30.0735 182.875 30.0353 182.812 30.0226ZM37.4816 39.5245C37.0314 39.6082 36.8611 39.6714 37.4005 39.6603C37.4759 39.6595 37.5762 39.6517 37.6935 39.6408C37.6207 39.5999 37.5501 39.5613 37.4816 39.5245ZM38.8683 39.3156C38.5331 39.3584 38.1801 39.4078 37.8761 39.4562C37.9534 39.4989 38.0331 39.5442 38.1154 39.5919C38.4196 39.5515 38.7606 39.4969 39.0616 39.4386C38.9958 39.3964 38.9322 39.3542 38.8683 39.3156ZM43.8204 37.6515C42.6424 37.7858 41.4548 38.1666 41.131 38.3995C41.8033 38.3179 42.4607 38.2349 43.0939 38.1554C43.5376 37.9401 43.9483 37.6998 43.8204 37.6515ZM36.7345 38.2609C36.5941 38.2955 36.4541 38.3318 36.3136 38.3663C36.4633 38.3164 36.5746 38.2697 36.6544 38.2306C36.6808 38.2402 36.7073 38.2507 36.7345 38.2609ZM35.0255 38.0704C35.725 38.0304 36.1165 38.0499 35.7365 38.1749C35.6879 38.189 35.229 38.2489 34.5802 38.3243C34.5514 38.3277 34.5219 38.3307 34.4923 38.3341C34.2209 38.2976 34.0423 38.2824 33.8976 38.2716C33.594 38.2504 33.4246 38.2499 33.3497 38.2482C33.2338 38.2461 33.1727 38.2457 33.1339 38.2452C33.017 38.2437 33.1241 38.2359 33.1847 38.2277C33.3538 38.2095 33.5791 38.1874 33.7843 38.1681C34.2287 38.1269 34.6491 38.0924 35.0255 38.0704ZM35.7267 37.9484C36.5405 37.9575 37.0943 38.0151 36.6544 38.2306C36.272 38.0909 35.9729 38.0085 35.7267 37.9484ZM34.423 37.7052C34.6098 37.7278 34.8386 37.7588 35.1632 37.8214C35.3239 37.8569 35.5034 37.8938 35.7267 37.9484C35.3853 37.9445 34.9984 37.9488 34.6202 37.9552C33.122 37.9839 32.3862 37.9674 33.7462 37.7013C33.8176 37.6888 33.9106 37.6769 34.0216 37.6661C34.1307 37.6748 34.2611 37.6864 34.423 37.7052ZM40.547 36.9718C39.9329 37.5041 35.4557 37.5266 34.0216 37.6661C33.8823 37.6551 33.778 37.6491 33.6876 37.6447C33.3531 37.6317 33.3174 37.636 33.2491 37.6349C33.1882 37.6349 33.1473 37.6355 33.1183 37.6359C33.0576 37.6368 33.0594 37.6364 33.0568 37.6359C33.0754 37.6328 33.2282 37.6229 33.3595 37.6124C33.6702 37.5886 34.0111 37.5613 34.4122 37.5294C35.1757 37.4685 36.0056 37.4014 36.799 37.3361C38.4128 37.2028 39.8714 37.0745 40.547 36.9718ZM54.2443 37.0656C54.0239 37.0717 53.6302 37.0873 53.2794 37.1027C52.681 37.1952 52.2965 37.2575 52.0656 37.298C52.1027 37.3603 52.7399 37.3464 53.3468 37.297C53.609 37.2565 53.897 37.1184 54.2443 37.0656ZM58.504 36.6779C58.0124 36.7253 57.7065 36.6933 57.4552 36.6886C57.4614 36.722 57.4998 36.7566 57.5763 36.7911C57.9886 36.7486 58.2872 36.7105 58.504 36.6779ZM58.7169 35.2706C59.5453 35.1553 61.9049 34.6326 61.7755 34.8116C60.5262 35.0779 59.1743 35.4117 58.7169 35.2706ZM175.361 33.3917C174.987 33.6715 174.337 34.1902 173.695 35.0822C173.722 35.0767 173.75 35.072 173.776 35.0665C174.365 34.2397 174.983 33.687 175.361 33.3917ZM66.2404 34.9581C66.251 34.9823 66.2482 35.0052 66.2433 35.0245C66.2642 35.0192 66.2852 35.0151 66.3048 35.0099C66.3852 34.9884 66.3361 34.9735 66.2404 34.9581ZM68.8292 34.295C68.8486 34.2349 68.7254 34.2042 68.1525 34.256C68.1031 34.2606 67.9057 34.2922 67.63 34.34C66.5349 34.5261 64.3169 34.9403 64.4738 34.9786C64.5 34.984 65.6048 34.8143 65.7833 34.8253C65.8351 34.8282 65.8809 34.8344 65.922 34.839C66.5689 34.6886 67.7112 34.487 68.8292 34.295ZM176.507 33.4552C176.541 33.3934 176.462 33.3587 175.997 33.6046C175.725 33.7692 175.095 34.1285 174.405 34.9376C174.503 34.9167 174.6 34.8947 174.696 34.8732C175.494 33.9084 176.08 33.7607 176.246 33.5909C176.401 33.5046 176.476 33.4674 176.507 33.4552ZM175.602 34.4786C175.876 34.1876 175.926 34.0894 175.588 34.3048C175.434 34.4111 175.231 34.5754 175.004 34.8048C175.133 34.7748 175.26 34.7433 175.384 34.713C175.473 34.619 175.547 34.5432 175.602 34.4786ZM67.921 33.8575C69.0719 33.3842 76.27 32.1403 75.3156 32.545C74.5562 32.8746 69.1772 33.7952 67.921 33.8575ZM84.3908 31.3898C84.4154 31.2413 80.9039 31.907 80.7472 31.9552C78.7465 32.6167 82.9056 31.7081 84.3908 31.3898ZM85.8068 30.6515C85.2997 30.7065 81.5485 31.4622 82.6378 31.4298C83.7062 31.4015 86.5829 30.5651 85.8068 30.6515ZM89.9454 30.3546C88.9393 30.4712 84.1643 31.4376 86.2003 31.1827C86.3534 31.1658 90.014 30.4686 89.9454 30.3546ZM181.497 29.8527C179.817 29.4503 179.262 29.5102 179.181 29.5968C179.128 29.6978 179.609 29.8597 180.762 30.0011C181.636 30.1183 181.603 29.8819 181.497 29.8527ZM91.9826 29.4122C91.2926 29.447 89.5388 30.0472 90.6486 29.9835C91.2936 29.876 92.0589 29.4102 91.9826 29.4122ZM165.768 29.3888C164.623 29.453 161.661 29.4792 161.155 29.6603C162.509 29.5723 166.172 29.6954 165.768 29.3888ZM99.3595 28.045C99.2855 28.0436 97.2045 28.3873 96.8986 28.5939C97.7696 28.5983 100.094 28.0772 99.3595 28.045ZM165.72 27.8937C165.592 27.923 165.448 27.9575 165.295 27.9962C165.463 27.991 165.63 27.9855 165.796 27.9806C165.91 27.9463 166.009 27.914 166.088 27.8878C165.966 27.89 165.844 27.8916 165.72 27.8937ZM104.223 27.2413C105.862 26.7742 101.704 27.5092 101.172 27.8126C101.936 27.6606 103.644 27.4069 104.223 27.2413ZM119.457 24.5001C115.608 24.6383 116.121 25.0973 115.802 25.1691C115.112 25.3198 113.453 25.4951 112.16 25.8224C113.631 25.4024 115.107 24.979 116.579 24.5558C115.391 24.7837 105.078 26.8304 104.895 26.9865C104.634 27.2217 107.838 26.4516 107.936 26.4445C108.075 26.4356 108.686 26.7871 108.989 26.7374C109.49 26.6596 118.06 24.7103 119.457 24.5001ZM100.911 26.8937C99.3418 27.0245 104.471 25.9468 102.759 26.505C102.69 26.5277 100.974 26.8886 100.911 26.8937ZM174.336 25.3585C177.089 24.3723 168.657 26.8496 171.281 26.256C171.411 26.2275 174.191 25.4108 174.336 25.3585ZM125.893 22.3253C126.984 22.2905 122.304 23.3042 122.141 23.3156C121.307 23.3591 125 22.3552 125.893 22.3253ZM126.008 20.3409C126.573 20.275 123.749 21.046 122.872 21.1827C122.911 21.0373 125.638 20.3849 126.008 20.3409ZM127.322 19.8273C126.765 20.1378 124.853 20.5234 123.568 20.8087C124.126 20.4987 126.037 20.1157 127.322 19.8273ZM64.8673 19.6525C63.9636 19.831 59.9975 19.7823 61.6906 19.6964C62.1502 19.6729 64.0727 19.6733 64.8673 19.6525ZM68.4718 19.1613C67.4702 19.3258 64.9448 19.2692 63.4611 19.339C61.3918 19.4386 57.9309 20.0368 59.4152 19.4728C62.4238 19.3719 65.4404 19.2681 68.4718 19.1613ZM74.3117 18.9337C75.3596 18.9867 72.2707 19.1456 71.0617 19.0743C71.045 18.9968 74.1395 18.9259 74.3117 18.9337ZM52.1027 18.672C50.9203 18.5559 45.6209 18.7817 46.9376 18.8449C47.1394 18.8529 51.3315 18.6852 52.1027 18.672ZM93.2726 18.7169C94.847 18.8197 89.5701 18.9027 91.3742 18.7472C91.4586 18.7409 93.2107 18.7129 93.2726 18.7169ZM59.6427 18.6183C59.4377 18.6117 55.3125 18.7255 55.7511 18.7706C56.6201 18.8558 60.2572 18.6461 59.6427 18.6183ZM66.5314 18.5792C65.1645 18.6021 62.4492 18.6202 63.2863 18.7238C63.3961 18.7315 66.5183 18.6497 66.5314 18.5792ZM67.257 18.4767C66.583 18.3382 64.3431 18.488 62.8585 18.5148C63.3961 18.6393 65.8147 18.4768 67.257 18.4767ZM38.8937 18.3908C38.8203 18.3935 38.7584 18.3971 38.712 18.4005C38.4629 18.419 38.5919 18.4389 38.8966 18.4542C39.5034 18.4884 40.8979 18.5023 41.1525 18.4318C41.3545 18.3731 39.5617 18.3656 38.8937 18.3908ZM108.591 18.3712C108.57 18.4731 106.258 18.4404 105.385 18.4718C105.61 18.3571 107.696 18.3641 108.591 18.3712ZM112.606 18.4581C110.573 18.4121 112.133 18.0187 113.799 18.131C113.983 18.1437 115.352 18.5211 112.606 18.4581ZM65.5665 18.2902C65.0606 18.1649 62.5835 18.3309 61.1691 18.3322C61.5747 18.4294 64.4414 18.3316 65.5665 18.2902ZM131.451 17.6827C131.582 17.7015 131.665 17.734 131.678 17.7892C131.335 17.736 131.303 17.7037 131.451 17.6827ZM138.632 17.6271C141.094 17.4011 136.078 17.5176 136.124 17.6388C136.139 17.6846 138.527 17.6363 138.632 17.6271ZM193.525 17.3029C193.615 17.3132 193.548 17.3 193.45 17.2902C193.443 17.2894 193.436 17.2889 193.429 17.2882C193.475 17.2958 193.505 17.3 193.525 17.3029ZM192.858 16.8966C192.506 16.8897 192.319 16.9192 192.271 16.9601C192.318 16.9781 192.358 16.9957 192.393 17.0079C192.628 17.0921 192.811 17.1443 192.956 17.1827C193.192 17.2134 193.429 17.2275 193.546 17.2052C193.585 17.2025 193.48 17.0985 193.359 17.0138C193.321 17.0074 193.275 17.0017 193.22 16.9904C193.132 16.9714 193.015 16.9419 192.858 16.8966ZM13.8956 13.4513C10.3793 13.8299 13.6862 13.5826 13.007 13.6906C12.4836 13.774 10.3847 13.8603 11.588 13.8908C10.7933 13.8829 8.67675 13.9909 6.69153 14.1349C5.69728 14.2079 4.76196 14.287 3.97376 14.3829C3.57733 14.4332 3.24866 14.4765 2.86341 14.5685C2.75337 14.5961 2.67983 14.6156 2.53626 14.6642C2.47237 14.6862 2.4082 14.7105 2.34485 14.7374C2.26197 14.7726 2.16978 14.8177 2.08118 14.8683C1.99741 14.9164 1.89266 14.981 1.76673 15.0831C1.64398 15.1841 1.54319 15.2825 1.43079 15.423C1.24281 15.6618 1.14009 15.888 1.07923 16.0685C0.935388 16.5262 0.967732 16.7121 0.952275 16.7501C0.949998 16.7822 0.914712 16.6983 0.962041 16.3429C0.990604 16.1605 1.05472 15.9181 1.19056 15.6652C1.25595 15.5412 1.35334 15.3991 1.43665 15.299C1.51201 15.2065 1.59679 15.1188 1.6847 15.0402C1.87967 14.87 2.00119 14.7953 2.13196 14.7179C2.27319 14.6381 2.36275 14.5957 2.4552 14.5538C3.14778 14.2659 3.55654 14.1908 4.26575 14.1173C8.44853 13.8466 5.42943 14.2189 13.8956 13.4513ZM23.755 16.006C23.2304 15.9921 22.8958 15.8931 21.7199 15.9992C22.9255 16.033 24.0412 16.0725 25.2452 16.1105C26.1337 15.8839 24.3372 16.0209 23.755 16.006ZM20.6759 15.34C22.0963 15.4084 14.2895 15.8752 12.8693 15.8263C14.428 15.6915 17.8466 15.6019 19.2736 15.5031C19.4453 15.4908 18.5013 15.2448 20.6759 15.34ZM8.72864 14.8019C10.5483 14.7674 6.01279 15.1263 5.48157 15.0724C5.40155 15.0492 8.3998 14.8022 8.72864 14.8019ZM8.39075 14.589C9.80275 14.5501 6.68543 14.7824 5.77063 14.8341C5.6582 14.7879 8.19868 14.5901 8.39075 14.589ZM17.6075 14.34C17.7092 14.3875 15.2239 14.5308 15.0001 14.5353C13.5859 14.5561 16.7025 14.3542 17.6075 14.34ZM14.6447 13.3058C14.0649 13.409 7.4556 13.8733 7.60267 13.7872C7.75689 13.6871 13.6078 13.3619 14.6447 13.3058ZM30.7755 11.6779C30.8571 11.7261 27.6493 11.9235 27.5392 11.9249C25.915 11.9543 29.6925 11.7084 30.7755 11.6779ZM38.5822 10.6202C37.4067 10.7418 37.9324 10.7186 38.5851 10.6945C39.0116 10.6787 39.5034 10.6622 39.546 10.6915C39.6838 10.7905 39.2737 10.8441 38.5929 10.8742C36.8522 10.9493 33.5035 10.9017 32.0675 11.0411C31.7955 11.0675 33.8746 11.0561 33.1574 11.131C30.7816 11.3689 23.443 11.2837 31.3116 10.8927C31.3097 10.8928 31.3077 10.8926 31.3058 10.8927C33.3866 10.7908 32.1082 10.9569 32.1993 10.9542C36.5497 10.8238 35.4265 10.6897 36.088 10.6251C37.2336 10.5148 37.3317 10.6563 38.5812 10.5949C38.8913 10.5794 39.2786 10.5501 39.7872 10.4982C39.257 10.5499 38.8662 10.5899 38.5822 10.6202ZM39.4679 10.2423C39.5456 10.2419 39.1287 10.3135 38.5734 10.3868C37.7429 10.492 36.6404 10.6 36.2033 10.5216C35.7858 10.4471 37.4009 10.3372 38.5685 10.2784C38.9861 10.2571 39.336 10.2436 39.4679 10.2423ZM30.3234 9.89759C31.892 9.90032 26.6198 10.2271 28.422 10.0167C28.4911 10.0083 30.2833 9.89653 30.3234 9.89759ZM191.306 2.87024C191.497 2.75245 191.487 2.75086 191.381 2.79895C191.318 2.8431 191.273 2.85384 191.165 2.90931C191.039 2.99845 190.944 3.07519 190.942 3.10657C191.158 2.95563 191.221 2.9272 191.306 2.87024ZM191.529 2.48938C191.192 2.61392 190.84 2.74106 190.497 2.86634C190.418 2.92263 190.331 2.98493 190.237 3.05774C190.59 2.92305 190.933 2.79351 191.211 2.69056C191.298 2.64052 191.369 2.59927 191.428 2.56849C191.693 2.43069 191.738 2.41758 191.731 2.41712C191.719 2.41995 191.642 2.44816 191.529 2.48938ZM191.868 2.77649C191.882 2.76775 191.918 2.72511 191.532 2.91224C191.513 2.92703 191.493 2.93724 191.475 2.94837C191.535 2.92404 191.601 2.89871 191.673 2.86829C191.76 2.83119 191.838 2.79581 191.868 2.77649ZM190.944 2.57435C191.01 2.55652 191.077 2.53701 191.145 2.51868C191.117 2.51334 191.089 2.50843 191.061 2.50306C191.025 2.52443 190.986 2.54878 190.944 2.57435ZM150.505 2.53431C151.556 2.29451 156.358 2.24422 155.501 2.36731C155.317 2.39302 150.109 2.65368 150.505 2.53431ZM161.692 2.30481C161.34 2.28627 158.694 2.3831 157.933 2.42395C157.102 2.66605 163.34 2.38388 161.692 2.30481ZM186.042 1.24036C186.896 1.15395 183.439 1.11381 183.487 1.27845C183.488 1.3288 185.905 1.2499 186.042 1.24036Z" fill="#FCB414"/>
</svg>
