<svg xmlns="http://www.w3.org/2000/svg" width="204" height="79" fill="none"><path fill="#FCB414" d="M188.609.877c2.298-.012 2.422.167 2.886.284.247.061.574.107 1.412.136.392.016.94.02 1.787.063.256.016.449.026.81.062.355.044.666.049 1.603.276a9 9 0 0 1 .689.21l.137.047.215.083a8.2 8.2 0 0 1 1.806 1 7.96 7.96 0 0 1 2.644 3.365 8 8 0 0 1 .57 3.737c-.357 2.704-1.172 3.48-1.739 4.289-.648.779-.956.998-1.263 1.257a9 9 0 0 1-.743.535c-.7.44-1.014.57-1.3.71-.259.121-.457.207-.622.28.18-.064.396-.143.672-.259.308-.137.657-.268 1.387-.726a8.4 8.4 0 0 0 1.314-1.046c.251-.246.53-.548.827-.945s.615-.893.901-1.529c.277-.588.669-1.8.698-2.98.06-1.192-.231-2.549-.657-3.496a8.07 8.07 0 0 0-2.936-3.511 8.6 8.6 0 0 0-1.976-.98 10 10 0 0 0-.414-.135c-.544-.159-.74-.195-.986-.25a16 16 0 0 0-.537-.104c-.271-.05-.504-.085-.638-.11-.617-.1-.702-.136-.566-.158.061-.011.244-.013.485-.003.235.011.559.023 1.222.125.186.03.373.063.636.123.353.086.648.147 1.346.416.423.17.944.4 1.634.86.822.66 2.733 1.664 3.578 5.508.366 1.864-.162 3.94-.629 4.876a8.3 8.3 0 0 1-1.352 2.085c-.46.512-.684.693-.926.902a9 9 0 0 1-1.07.774 10 10 0 0 1-.827.459c-.272.135-.467.222-.634.296-.332.144-.551.23-.735.306a144 144 0 0 1-3.988 1.556c-.776.324-6.909 2.364-9.534 3.195-.904.296-2.231.956-3.42 1.333-.818.26-1.474.331-2.704.716a754 754 0 0 1-8.653 2.647q-.746.223-1.493.442c10.052-.258 8.086.106-.959.281l-.301.087c2.618-.074 4.913-.105 5.935-.054 3.506.134 5.306 1.017 5.346.157 1.057.894 2.173.415 2.785.49 1.153.156 2.171.264 3.982.813.959.391 2.06.43 4.736 2.678 1.275 1.082 3.266 3.805 3.586 6.905.341 3.068-.477 4.939-.824 5.83-1.932 4.123-4.016 5.07-5.146 5.89-1.221.747-2.074 1.101-2.867 1.424-1.577.618-2.939 1.009-4.747 1.459-1.14.279-2.084.202-2.451.32-.211.066.254.258-.8.545-1.522.443-9.744 1.458-10.352 1.389-.619-.057 3.427-.599 2.661-.733-2.92.433-5.701.916-8.6 1.33-1.212.173-.624-.094-1.143-.018-.2.028-4.368.82-4.162.854.419.085 13.285-1.974 9.941-1.156-.649.16-3.025.113-2.581.541-3.702.527-7.335 1.043-11.017 1.58l-2.96.423c1.4.171 2.176.356-.131.177a13 13 0 0 1-.591-.075l-.632.09c.688.048 1.696.14 2.876.28l.019.16c-1.382-.15-2.721-.279-3.428-.365l-.661.093c.134.026.301.056.51.088.152.021 1.789.156 3.601.365l.022.19c-1.5-.178-2.97-.33-3.565-.373.904.196 2.192.345 3.579.493l.001.012.011-.004-.001-.007h.015l.226-.083.009.087-.047.017.05.006.01.084.018-.008-.009-.074c.73.078 1.482.156 2.215.24 5.073.48 5.791 6.924 1.027 8.734-.742.267-1.457.516-2.099.737l-.007-.064-.02-.001.008.071-.08.027.084.006.001.01.017-.009.002.001h-.001c.13-.056.352-.142.683-.26.2-.073.757-.247 1.432-.464 4.824-1.833 4.097-8.358-1.04-8.845a83 83 0 0 0-2.507-.331l-.023-.19c.858.1 1.753.214 2.549.342 5.339.506 6.095 7.288 1.082 9.193-1.032.318-1.873.553-2.187.617l.003.023-.091-.01q-.05.008-.043-.004l-.118-.011-.001-.013-.012.004v.007l-.017-.001c-1.207.413-2.109.707-2.37.773a9 9 0 0 1-.603.135c.303.01.492.022.522.038l.128.019a45 45 0 0 0 1.676-.433c.621-.177.422-.226.489-.245l.202-.057.025.205c-.711.199-1.406.385-2.058.554.481-.023 1.652.017 2.137.118l.007.058c-.658-.045-1.944-.078-2.112-.096a3 3 0 0 1-.176-.024q-.029 0-.077.002c-1.781.46-3.219.793-3.783.93 1.079-.416 2.058-.632 3.262-.916-.528.009-1.335.012-2.242.016-2.841.746.958-.012-.847.53-1.155.359-7.295 1.489-7.054 1.743-2.079.478-.899.06-1.159.103-.252.05-4.335.986-5.681 1.186-.163.025.31-.223.14-.202-.33.05-4.265.856-4.429.897-.101.028.874-.034.493.071-.43.12-4.262.815-4.452.882-.284.107 4.397-.807 3.655-.527-2.184.379-5.69 1.11-7.068 1.462.324-.088 2.426-.475 3.152-.596-.306.251-4.778 1.048-3.283.633-.922.246-.283.172-.801.34-.063.023-.986.204-1.257.27-.027.01-.11.029-.138.038a9 9 0 0 0-.39.093c.005.002.172-.02.4-.052.027-.01.112-.028.14-.038.226-.017.811-.09.631-.032-.091.03-.4.102-.598.143-.028.011-.116.03-.145.04-1.666.292-3.416.702-3.706.831-.761.186 1.844-.67 2.111-.724-.014-.054-2.322.412-2.379.474-.18-.13 2.419-.739 2.114-.752-.68.11-1.305.252-1.966.46.95-.396 1.951-.611 3.662-.944.024-.008.095-.023.118-.032 2.235-.476 5.047-.986 5.905-1.253-2.138.428-4.502.865-5.939 1.136-.022.008-.091.022-.114.03-2.101.342-2.943.52-3.056.389-.054-.142 1.602-.627 1.556-.635-.336-.103-2.579.702-2.667.778q-.109.031-.111.022c-.021-.162 3.227-1.1 3.56-1.132.292-.12-1.427-.014-1.418-.057.023-.023 1.303-.313 1.854-.485.013-.005.056-.013.07-.019.135-.053.173-.088-.021-.069-.013.005-.054.014-.067.018l-.019.003c-1.095.108-3.192.645-3.273.708-.338.028 2.016-.683 3.236-.933.012-.004.048-.011.059-.016l.256-.074a1 1 0 0 0 .11-.036c.007-.004-.032 0-.096.01-.072.01-.201.035-.285.049-.011.004-.046.011-.057.015-.712.118-1.803.292-1.848.29-.046-.02.961-.285 1.786-.536l.047-.013a7 7 0 0 1 .236-.087c.079-.028.139-.052.205-.077.322-.123-.214-.04-.487.009-.008.003-.033.008-.041.01-.183.03-.305.049-.214.024l.207-.05.04-.011c.727-.206 3.942-.899 4.118-.952.29-.084-.68.04-.545-.013.196-.077 1.483-.329 1.316-.326-.114.001-4.357.676-5.039.779l-.02.006c-.076.008-.119.009-.119.002.002-.012.041-.03.107-.051l.018-.005c.659-.253 4.828-1.004.214-.394 0-.001-.171.046-.304.09a43 43 0 0 1-.953.25c-.757.102 3.033-1.024-1.633.221 1.061-.354 1.903-.533 2.52-.712 3.268-.931.872-.393-.072-.231l.012-.003c-.308.044-.458.04-.192-.076q.056-.025.158-.06l-.017.004c.813-.319 3.72-1.053 3.706-1.065-.342-.034-1.413.322-1.789.36-.212.022 2.791-.852 2.095-.76-.366.048-3.58.878-3.722.922-.185.04-.359.079-.424.088l.036-.01c-.158.02-.118-.015-.017-.064l-.038.01c.077-.043.241-.109.337-.153.087-.042.141-.072.064-.064a4 4 0 0 0-.434.105l.043-.012c-.585.14-1.733.431-1.774.447-.056.001.936-.31 1.742-.576l-.049.014c.6-.217 1.142-.39 1.353-.468.414-.151-1.19.225-.902.131.965-.324 2.515-.682 3.137-.844-.262.012-.555.05-.873.072l-.401.063c-.227.037-1.595.416-1.629.424-.55.088.248-.16 1.018-.403-.509.04-1.037.08-1.548.127q-.187.053-.385.112l.079-.021c-.794.229-1.861.466-3.219 1.004 1.244-.499 2.42-.787 3.209-1.042l-.08.022.177-.057c-.68.064-1.318.088-1.819.15-.752.298-2.954 1.071-3.045 1.21-.584.201 1.701-.939 2.704-1.182.247-.033.535-.145.869-.182.498-.142.844-.243 1.1-.334l-.095.027c1.306-.457 1.136-.522 1.764-.708.225-.067 1.11-.275 1.845-.479-5.382.358-10.786.75-16.19 1.095.197.376 9.25-.53 9.453-.493.857.14-6.375.706-11.462 1.015-2.197.134-3.983.215-4.559.208 1.454-.003 2.877-.01 4.324-.023-2.443.619-7.888.372-11.46.751-1.16.126 1.057.193 1.018.206-1.282.252-3.38.214-1.831-.107-3.17.386-2.712.105-5.17.178-.122.004.928.16-1.01.307-.902.082-5.86.174-6.565.324-.284.078 2.283.822 2.586.16 5.386.194 1.717-.333 3.797-.376.319-.013-.391.4 4.761 0-.953.7-6.947.447-8 .524-2.14.23 6.675.307 8.204-.304-.729.534.615.04 2.535-.044 2.104-.094 1.182.104 2.319.038 3.094-.184 1.798-.447 4.354-.303-2.012-.64 2.038-.502 4.741-.393.646.027 1.211.055 1.595.074l-1.588.138q-4.052.352-8.118.667l.562.116c-.851.047-1.72.092-2.566.135l.404-.17c-4.416.576-5.525.253-5.886.267-4.751.146-9.942.433-15.667.005-.39-.035-.49.02-1.055.005-.272-.008-.673-.03-1.362-.136a16 16 0 0 1-1.366-.277c-.664-.184-1.315-.294-2.908-1.063-.429-.221-.939-.489-1.66-.964-.726-.53-1.675-1.02-3.22-3.038-1.784-2.275-2.185-5.735-1.968-7.01.166-1.426.343-1.66.428-1.908.101-.217.178-.492.575-1.39.382-.88 1.276-2.367 2.454-3.496.142-.14.302-.289.47-.438-1.741.189-5.242.485-7.422.594q-.062.044-.167.093c-.663.294-3.064.374-.815.43-5.282.99-2.112.156-2.466.181-.494.03-2.361.48-2.596.5-.355.033.84-.325-.549-.151-.225.029-2.344.652.473.32-3.791.583-3.42.743-4.808.48-2.509 1.257-1.983-.25-3.052-.157l-.083.006.016-.006c.093-.052.11-.06.294-.167.375-.225.84-.518 1.458-1.046l-1.105.088c-.257.177-.48.31-.672.432-.803.456-1.198.608-1.493.713a48.07 48.07 0 0 0-1.44.165l.049-.009q.058-.011.153-.033c.03-.007.222-.047.544-.142a9 9 0 0 0 1.405-.55q.21-.1.483-.251c.06-.035.041-.022.188-.109q.133-.079.282-.176a66 66 0 0 0-1.231.11c-.785.079-.293.278-1.627.417a26 26 0 0 1-1.474.105q-.11.006-.235.01a12 12 0 0 1-.795 0c-.162-.008-.359-.015-.719-.056a9 9 0 0 1-.315-.044q-.09-.014-.197-.033l-.112-.021a9 9 0 0 1-.759-.183c-.681-.301-1.78-.213-4.113-2.632-1.118-1.2-2.323-3.796-2.061-6.3a8.53 8.53 0 0 1 2.073-4.935c1.545-1.676 2.4-1.87 2.331-1.887.152-.084.286-.151.405-.21.922-.43 1.205-.471 1.478-.557a9 9 0 0 1 .62-.15c.109-.022.197-.039.277-.053a343 343 0 0 0 4.395-.465c-.46-.15-.765-.188-1.038-.272l-.186-.038-.033-.006-.065-.012a11 11 0 0 0-.332-.055 9 9 0 0 0-.58-.066c-.552-.041-.66-.028-.717-.032-.265 0-.176 0-.146-.007.088-.01.262-.026.435-.044.303-.033.635-.07.932-.105l.08.01q.118.017.264.042l.156.027c-.057-.01.383.066.859.203.244.076.526.157.885.297l1.144-.13a7 7 0 0 1-.47-.25q-.374-.16-.675-.272c.99-.244 1.977-.49 2.97-.737 2.148.208-.834.672 4.843-.018.906-.443-4.025.439-3.045.065.572-.218 3.856-.567 3.932-.662.044-.108-2.928.3-2.47.095 1.007-.443 11.916-1.158 3.646-.176 2.007-.197 3.204.207 4.794.054l.838-.132c.9-.258-5.93-.517 4.791-1.373.27.304-4.374.517-4.488.553-.133.042.431.48.73.657 1.96-.31 4.022-.644 4.631-.782-1.938.39-3.01.644-3.373.77.752-.075 1.823-.191 3.036-.325q.38-.062.8-.134l-.258.075a423 423 0 0 1 3.386-.36c.706-.107 1.398-.214 2.036-.314-.148-.102-.134-.48-.347-.501-.116-.013-3.963.538-4.457.54q-.216 0-.335-.007c.598.094-2.87.414-2.796.237.074-.074 2.437-.262 2.546-.26q.055.002.1.007c-.532-.133 7.588-.9 5.812-1.007 2.364-.376-.291.432 1.46.119.415-.075.784-.398 2.089-.594.544-.083 1.26-.141 2.25-.146h.008c.62-.002.364.1.177.18 1.022-.174 1.83-.313 1.911-.358.163-.09-1.818.124-1.113-.1.122-.041 2.157-.162 3.954-.59.684-.162.23-.267.401-.312 1.427-.38.7.095 3.298-.483 1.952-.435 3.31-1.03 6.056-1.492-8.913 1.42-1.478.074 2.202-.814.582-.141.02-.372 3.593-.949-6.866 2.019.856.199 3.668-.43.215-.048.401-.09.546-.12.109-.02.19.191 1.164-.013.08-.018-.06-.142.829-.344 8.519-1.954 3.09-.607 4.746-.814.709-.09 4.807-1.21 5.931-1.468.259-.058.174.119 1.166-.11 1.763-.406 3.299-.92 4.457-1.196.135-.031.197.204 2.382-.374.613-.162 1.288-.404.393-.271-2.969.444-8.411 2.076-11.763 2.577-3.053.46 6.421-1.657 6.915-1.776.181-.042-1.639.49.245.091 1.614-.343 4.448-1.412 6.863-1.87.183-.035 2.172-.133 2.096-.093-.075.033-2.996.782-2.545.783.052 0 1.919-.431 2.18-.414.32.02 1.335.711 1.74.64 1.036-.184.322-.228.987-.368 1.425-.299 6.407-1.202 6.491-1.54q-1.224.26-2.449.52c4.511-1.095 2.552-.77 3.179-.977.675-.224.548.085 2.074-.252.342-.073 6.686-1.653 6.543-1.736-3.478 1.022-2.252.385-2.415.418-.619.126-1.371.498-2.195.691-5.829 1.358-.029-.326-1.421-.073-.483.088-1.383.466-1.586.506-.659.128-.721-.073-1.153.047-1.005.277.248.286.175.32-.862.396-4.478 1.007-2.339.17-1.358.199-1.419.62-2.512.713-2.172.184.991-.47 1.828-.72 3.008-.898 3.949-.962 8.255-2.04 1.546-.387 3.344-1.013 4.059-1.195.199-.05 1.138-.154 2.131-.338q-.006-.007-.035-.007c-.316-.004-1.01.01-1.951.032q-.124.028-.213.051c-.164.045-.209.296-1.105.531l-.003.002c-.335.088-.832-.003-.95.023-.274.065-6.441 1.607-4.142.792.219-.075 3.19-.76 5.929-1.387-4.383.11-12.957.387-15.402.328 1.89.004 11.312-.496 11.123-.6-.052-.014-2.337-.08-2.808-.013-.788-.113-3.457.342-4.919.296-.164-.006.474-.24-2.135-.221-.887.007-3.254.228-5.612.093-3.42.164-21.438.308-22.669.552-.036.012 2.504.031.793.158-2.272.167-.245-.274-2.897-.247-.404.004-7.783.21-8.028.239-2.223.262 4.214.21 4.142.238-.223.07-5.576.22-5.804.21-.205-.011 4.158-.389-1.1-.168l1.816.063c-2.479.118-2.717-.072-3.315-.07-1.861.003-3.859.334-6.866.042-.794-.076.513-.21.414-.222-.96-.105-2.14.258-3.58.04-.102-.016 3.208-.243-2.597-.11l1.197.044c-.813.072-6.662.233-7.47.238-2.31.016-.313-.194-2.613-.123 1.5.194-5.544.373-5.164.175-.97.26-6.988.203-9.775.255-1.81.036-5.422.204-5.97.202-.162 0-.274-.01-.367-.024-.305-.044-.426-.134-1.373-.14-.355-.002-4.019.176-7.27.092-.64-.016-1.983-.231-.806-.32 1.985-.15 5.765-.033 5.729-.18-.096-.159-5.11.05-6.528.063-6.312.055-2.668-.191-2.844-.238-.395-.11-3.883-.014-4.03-.02-.604-.03 1.865-.191 1.88-.264.06-.097-3.297-.168-2.533-.222 1.063-.076 4.156-.024 4.342-.035 2.496-.162-.941-.286-1.915-.361-.288-.024.855-.114.618-.116-3.643-.032-.779.329-3.183.372-2.198.041.623-.187.521-.192-.095-.006-2.69.068-3.11.034-.197-.018 6.522-.51 6.253-.628-2.134.097-4.324.198-6.463.299-.17-.153 2.961-.145 3.246-.17.633-.054-1.134-.076-1.08-.128.072-.035 2.12-.221.245-.203-.683.01-2.035.167-4.43.145 8.3-.453 2.54-.33 2.298-.376-.215-.047 3.694-.333-1.096-.122-.21-.297.073-.1 1.475-.21 1.654-.132-2.24-.081 3.926-.246-.392-.134-5.297.076-5.548.076-.221-.001.852-.116.466-.124-4.61-.077-1.43-.09-2.794-.204-.13-.012-4.467.132-1.155-.052 6.02-.328 8.585-.218 9.575-.71-4.504.002-9.862.54-11.255.614-2.053.112.056-.082-.19-.093-.084-.004-1.887.097-1.896.091-1.313-.258 7.967-.411 10.903-.587q-1.189-.023-2.354-.043l3.172-.153c-5.054.13-.196-.028 1.087-.364.273-.075-3.059.188.73-.163-2.804.093-1.886-.006-4.43.194.041-.11 5.776-.514 7.997-.677-7.944.26-3.412.439-10.264.57-1.276.197 1.987.007 1.74.042-.976.127-3.22.116-5.908.53-.438.067 1.434.104-1.326.243-.305.015-2.03 0-2.054-.009.226-.104 1.985-.17 2.048-.21.073-.041-1.881.092-1.892.084-.06-.11 1.617-.137 1.377-.159-.533-.051-7.552.132 1.605-.34-7.59.57-.979.17 1.97-.03.76-.052.942-.13 2.013-.21 1.38-.104 2.987-.151 3.707-.2.768-.053-3.62-.002 2.72-.27-3.249-.007-8.873.46-12.053.537-6.375.167 4.43-.546 5.548-.615.3-.022-.71-.06-.51-.078.365-.032 6.427-.312 7.068-.425.613-.112-2.262.123-2.437.05-.163-.048 7.294-.546 3.241-.369-2.753.122-7.84.625-8.694.44 4.05-.254 8.093-.493 12.176-.732q-3.365.037-6.673.086c4.508-.287 8.512-.393 12.799-.764-10.39.258 3.363-.437 3.506-.483.05-.028-4.043-.055-4.699-.062 1.482-.125 4.178-.312 6.483-.488 3.19-.248 5.52-.483 1.68-.45 1.208.003 3.978-.344 3.961-.357-.379-.124-6.532.337-5.52.148 1.115-.218 2.826-.115 4.579-.237 9.255-.641 6.622-1.272 15.895-1.738l-.56-.05c10.032-.598 20.078-1.189 30.12-1.766 3.914-.52 14.361-1.362 19.498-1.651 1.033-.06 6.118-.22 6.501-.214.712.01-3.187.269-1.42.26.37-.004 8.963-.457 8.352-.591-.972.039-3.974.306-4.472.297-3.479-.079 23.026-1.452 24.345-1.637l-1.765-.071c1.643-.07 3.372-.141 5.014-.208l-2.013.271c1.906-.078 4.522-.265 6.288-.316.295-.008-.466.186.234.153.699-.033.559-.232 1.563-.312 1.085-.087 6.318-.232 8.079-.33 2.274-.129 4.565-.267 6.794-.401 4.482-.265 8.924-.52 13.411-.651-7.005.472.07.32 2.015.177.45-.023.304-.48 7.427-.569m-54.94 72.074c-2.047.594-11.498 2.387-11.992 2.496-.376.09 2.516-.256-1.973.487h-.005c3.327-.31 7.707-1.54 8.189-1.64.49-.089-.239.211-.127.193.255-.036 5.428-1.1 5.672-1.17.176-.047-.815-.068.236-.366m-7.896 2.774c.307-.058 7.573-1.51 6.229-1.08-.918.31-8.107 1.516-6.229 1.08m8.372-1.828c-.639.226-7.97 1.662-8.271 1.687-2.235.286 7.685-1.572 8.271-1.687m-6.567.08c-1.65.337-4.189.786-5.067 1.076 1.634-.322 4.203-.774 5.067-1.076m1.719.64c2.364-.399 7.514-1.648 5.438-.938-1.039.353-1.789.336-1.922.361-1.339.25-4.091.815-3.516.576m10.947-3.586c-4.077.81-3.689 1.078-4.853 1.325-1.63.336-1.571.024-1.27-.137-1.282.478-6.93 1.679-10.191 2.36 2.883-.512 7.575-1.356 10.421-1.93.815-.162 1.577-.413 2.27-.56 1.108-.234.16.101.234.089l.005-.001c1.465-.26 3.259-.95.165-.27q1.61-.427 3.219-.876m-6.201 3.022c.414-.012-.498.378-1.379.444-.378.03.275-.22 1.379-.444m-1.733-.687c1.963-.329-3.02.71-3.192.728-1.312.175 2.307-.574 3.192-.728m-57.91.532c-.776.014-3.306-.153-3.561-.095-.24.119 3.42.3 3.56.095m-4.61-.769c-.271.183 3.5.313 3.553.27.634-.123-2.49-.24-3.554-.27m35.049-.526c-.61.14-1.868.315-2.694.458.199-.21.713-.388 2.694-.458m-8.1.206c-.342.165-4.875.293-5.06.192 1.76-.11 3.436-.16 5.06-.192m-.043-1.025c-1.003-.022-4.183.374-4.86.609-.132-.031-.489-.062-1.122-.088-.735.176-27.213.493-9.413.62.555-.004-.2-.16 2.035-.204.146-.003.22.143.676.133 1.053-.015 6.594-.192 7.69-.377q.014.04.236.062c1.37.134 5.528-.738 4.758-.755m38.453-.346c-1.037.148-4.446 1.15-5.148 1.353 5.179-1.23 3.282-.566 4.229-.69 2.015-.27 1.169-.698.919-.663m-43.314.955c.113.027.061.053-.133.084-.01-.025.04-.052.133-.084m13.471-.6c.254.013 1.106.788-1.598.667-.486-.023 1.402-.353-1.884-.223 2.454-.153 1.917-.52 3.482-.445m36.995-.55c-1.807.286-5.399 1.258-4.448 1.097.418-.064 4.165-.902 4.448-1.097m-30.427.764c.014.117-2.998.35-3.233.348-1.603-.01 2.136-.323 3.233-.348m-12.033-.322c-.096-.003-3.006.1-2.6.25.587.223 3.424-.21 2.6-.25m16.066-.006c3.803-1.208 4.276-1.566-.874-.099l.094-.025c-.309.091-.675.189-1.099.308a92 92 0 0 1 1.879-.184m17.137.095c1.54-.1 2.73-.927.483-.292-.105.03-.55.295-.483.292m-14.79-.61c-.759.176-1.364.319-1.986.483.473-.04.945-.079 1.388-.11.213-.07.386-.13.472-.169.73-.346-2.82.701.126-.204m26.104-.488c-.867.227-1.555.418-1.451.474l.006-.001q.938-.234 1.875-.475zm-2.276.006c-.118.044-.076.05.194 0zm8.405.023-.012-.003-.079-.672.011-.002zm-4.403-1.034q-.189.005-.358.006c-1.01.263-2.311.608-3.073.827l.435-.004c.69-.18 2.046-.55 2.996-.829m1.197.831c.228-.163 5.344-1.744-.46-.203q-.404.101-.733.186c.474.003.885.009 1.193.017m.246-1.003c.23.038.181.076-.46.12-1.383.386.768.01.087.276-.409.157-1.249.377-2.076.592l.434-.001c1.245-.326 2.493-.663 3.75-1.027-.652.058-.727.004-.469-.106l-.626-.018q-.37.093-.64.164m-4.325.064c1.802-.54-2.885.54-3.726.916.901-.226 3.218-.761 3.726-.916m11.27-11.222c-.652.297-2.299.519-3.792.724-.304.041-.604.084-.888.125.622.079 1.28.168 1.956.272 5.71.541 6.518 7.794 1.156 9.831-.828.26-1.674.505-2.497.734l-.024-.205c.751-.203.144.074.76-.103.106-.031.801-.243 1.718-.545 5.228-1.986 4.44-9.059-1.127-9.586a69 69 0 0 0-2.593-.321l-.019-.16q.24.028.487.06c.257-.082.627-.164 1.048-.244 1.215-.23 2.874-.44 3.815-.582m-4.115 11.257.026.224-.012.003-.027-.23zm-77.635-1.026q-.228.051-.447.103c-.593.551-1.02.797-1.239.9q-.042.025-.084.056l-.038.031c.136-.047.429-.124.846-.223.197-.156.44-.356.735-.621q.096-.11.227-.246m77.895.965zh-.018l-.004-.034.019-.006zm-.282-.018h.013l-.013-.1h-.012zm-3.603-.099.134.01c.205-.068.307-.106.249-.108-.067.016-.201.052-.383.098m3.505-.735.028.236.011-.003-.027-.235zm.254-.052.028.228.018-.005-.026-.227zm-.942-8.383.025.217c.683.075 1.38.159 2.032.263 4.276.405 4.882 5.837.866 7.363-.732.23-1.409.415-1.938.531l.027.227a35 35 0 0 1 2.03-.428c4.385-1.666 3.724-7.599-.946-8.041a8 8 0 0 1-.427-.142c-.565-.004-1.112 0-1.669.01m.655 8.16.018.149.012-.004-.018-.15zm.252-.075.018.15.019-.005-.017-.15zm1.124-7.373c-1.107-.133-.82-.052-.011.094 3.908.37 4.461 5.334.791 6.728-.494.147-1.181.341-1.861.538l.018.15c.86-.258 1.476-.46 1.876-.599 3.769-1.432 3.201-6.53-.813-6.911m-67.734 6.012q-.42.046-.845.104zm62.466-5.878c-.791-.062-1.474-.096-1.69-.056a31 31 0 0 1 1.517.118zm.587-.263c-1.554-.283-1.978.125-.273.15l.27-.1c.017-.025.024-.045.003-.05m2.607-.582.024.211.02.002-.025-.213zm-11.563-.09c-1.046-.23-2.226.216-.544.276.502.017.654-.25.544-.276m11.323.27.012.003-.023-.192-.012-.008zm-3.268-.59a10 10 0 0 1-.419.188c.461.093 1.508.186 2.738.306q.31-.123.626-.253a1.4 1.4 0 0 0-.192-.06c-.424.152-.772.258-.901.252.174-.063.441-.167.738-.28-.616-.07-1.234.22-2.59-.153m-1.725.043c-2.209-.316-1.181.288.468.262.096-.002-.364-.247-.468-.262m1.521-.1c-.437.073-.545.134-.414.192q.088-.033.169-.06.21-.068.34-.105-.047-.014-.095-.027m3.404.073.014.114.011-.004-.013-.114zm.272-.07-.019-.003-.003-.023.019-.007zm-.285-.15.013.12-.011-.001-.014-.12zm-.044-.37.021.181-.011-.002-.022-.18zm-.019-.16-.012-.001-.053-.455q.006 0 .011-.002zm-6.105-.285c.393.022.649.04.723.05.161-.001.277-.136.202-.147a1 1 0 0 0-.129-.023zm1.29-.194c.241.02.393.037.428.05.186.041-.053.07-.139.122l1.331-.19a26 26 0 0 0-.865-.095zm4.75.023a.6.6 0 0 1-.202.027l.196-.08zm1.412-.952c-1.586.236-3.25.49-4.941.745.325.018.673.043 1.018.075q.718-.108 1.429-.218c.492-.077 1.642-.241 2.525-.402.822-.15 1.434-.296 1.233-.384q-.615.088-1.264.184m-115.238.288c-.246.042-.27.039-.262.036.012-.005.067-.014.123-.024l.392-.064c-.149.032-.21.045-.253.052m.913-.22c.001.015-.001.026-.016.032-.1.039-.358.088-.621.133q-.012 0-.023.003.059-.012.137-.028c.082-.02.254-.061.523-.14m1.975-.82c-1.2.627-1.57.683-1.908.801q-.035.01-.067.019c-.015-.137-.473-.618 1.975-.82m-2.1.215c-.125.038-.22.065-.303.087-.325.083-.292.07-.379.089a4 4 0 0 1-.218.04c-.299.045-.247.023-.196.01.057-.014.162-.034.268-.055.208-.04.443-.085.652-.13zm-.943-.018c-.267.043-.236.03-.194.023.056-.01.132-.02.241-.035l.054-.007zm1.583-.187c-.07.059-.32.13-.64.205q.141-.041.345-.11.12-.045.253-.092zm127.197.128c-1.927.046 4.623-.898 2.53-.364a97 97 0 0 1-2.53.364m-6.916-.753c-.45.012-2.502.398-2.533.493-.087.283 4.313-.54 2.533-.493m-86.72-.808c.107.035.321.083.872.353-.048-.013.024-.04.658.458l.06.052q.315.036.643.07c-.488-.484-.769-.632-.944-.758l-.007-.004q-.34-.034-.637-.073a9 9 0 0 1-.688-.111c-.052-.011-.059-.017.044.013m-.219.551c-.006.008.12.046.285.081l.03.006c-.25-.094-.297-.081-.315-.087m-30.916-.801c-4.65.587-3.59.6-.519.39.07-.05.145-.098.22-.153q.14-.11.3-.237m1.48-.184-1.023.126q-.27.238-.503.412.497-.035 1.045-.076.225-.206.482-.462m29.709.103c-.097-.018-.06.002.013.024s.184.046.318.073c-.187-.066-.278-.082-.331-.096m109.044-1.257c.378.284-4.249.982-5.668 1.243-.396-.264 3.888-.76 5.668-1.243m-125.5.728c-.259.004-.934.06-1.681.127-.004.06.051.116.1.172.531-.038 1.097-.08 1.55-.118-.13-.049-.11-.108.03-.18m6.873-.968c-1.082.06-2.214.135-3.173.234-.285.063-.569.13-.843.199.983-.029 1.966-.055 2.972-.086-1.717.14-2.976.252-3.868.338a8 8 0 0 0-.734.265c.244-.004.518-.01.812-.017.121-.009.242-.001.359-.009 1.228-.035 2.655-.087 3.553-.113q.08-.07.162-.14.414-.38.76-.67m120.937-1.952c-1.426.243-2.944 1.029-1.832.933 1.097-.242 1.986-.959 1.832-.933m1.965-23.12c.224.032.68.048 2.245.662.764.401 1.985.58 4.477 3.135 1.21 1.265 2.81 3.993 3.009 6.9.229 2.874-.531 4.778-.909 5.72-1.553 3.538-3.69 5.013-4.857 5.858-1.216.82-2.016 1.174-2.494 1.41.373-.248 1.033-.566 2.214-1.356 1.079-.818 3.243-2.05 5.016-5.964.28-.685.706-1.754.89-3.461.199-1.68-.076-4.043-.945-5.928-1.866-3.839-3.858-4.743-4.917-5.466-2.176-1.205-2.976-1.278-3.729-1.51m-5.359 20.526c.136.037.194.047.219.051.062.005-.097-.029-.24-.058zm-.865-.32.17.07c.099-.049.348-.075.269-.092-.096-.025-.308-.03-.541-.032.035.018.07.033.102.053m-.366-.964a19 19 0 0 1-.559.04c.309.204.54.31.731.405.36.03.719.07 1.024.117q.076.011.148.024a5 5 0 0 1-.426-.144c-.216-.091-.484-.19-.918-.442m-1.189.068q.244.19.448.32.19.006.399.019a16 16 0 0 1-.57-.352zm.044-.475q.142.12.268.217.354.016.632.042-.165-.103-.359-.235-.27-.013-.541-.024m-.621-.02q.127.118.245.22l.261.005q-.132-.097-.286-.219zm7.575-17.416c-.634-.118-.794-.099-.783-.057.024.047.259.13.741.272.503.17 1.111.261 2.71.973.844.493 2.097.733 4.211 3.493.989 1.316 1.854 3.8 1.785 5.73-.026 1.966-.509 3.176-.779 3.883a12 12 0 0 1-1.837 3.1 11.5 11.5 0 0 0 1.929-3.062c.303-.764.945-2.253.807-4.71-.107-2.493-1.525-5.012-2.632-6.142-2.292-2.307-3.329-2.411-4.099-2.811-.717-.292-1.18-.427-1.495-.521a9 9 0 0 0-.558-.148m-145.33 9.502c-.45.083-.62.146-.081.135q.114-.001.292-.02zm1.386-.21c-.335.043-.688.093-.992.141l.24.136c.304-.04.645-.095.946-.153q-.099-.065-.194-.123m4.952-1.663c-1.178.134-2.365.515-2.689.748.672-.082 1.33-.165 1.963-.245.444-.215.854-.455.726-.504m-7.086.609-.42.105c.15-.05.26-.096.34-.135zm-1.709-.19c.7-.04 1.092-.021.712.104a24 24 0 0 1-1.157.15l-.088.01a9 9 0 0 0-.594-.063c-.304-.022-.473-.022-.548-.024l-.216-.003c-.117-.001-.01-.01.05-.017a49 49 0 0 1 1.842-.158m.702-.123c.814.01 1.367.067.927.283a9 9 0 0 0-.927-.283m-1.304-.243c.187.023.416.054.74.116.16.036.34.073.564.127-.342-.004-.729 0-1.107.007-1.498.029-2.234.012-.874-.254a4 4 0 0 1 .276-.035c.109.009.24.02.401.04m6.124-.733c-.614.532-5.091.555-6.525.694-.14-.01-.244-.017-.334-.021-.335-.013-.37-.009-.439-.01h-.13c-.061.002-.06.001-.062 0 .018-.002.171-.012.302-.023a969.166 969.166 0 0 0 3.44-.276c1.614-.133 3.072-.262 3.748-.364m13.697.094c-.22.006-.614.021-.965.037-.598.092-.983.154-1.213.195.037.062.674.048 1.28-.001.263-.04.551-.179.898-.231m4.26-.388c-.492.047-.797.015-1.049.01q.008.051.121.103c.413-.042.711-.08.928-.113m.213-1.407c.828-.116 3.188-.638 3.059-.46-1.25.267-2.602.6-3.06.46m116.644-1.88a7.6 7.6 0 0 0-1.666 1.691l.081-.016a8.2 8.2 0 0 1 1.585-1.674m-109.12 1.567c.01.024.007.047.002.067l.062-.015c.08-.022.031-.036-.065-.052m2.588-.663c.02-.06-.104-.09-.676-.039-.05.005-.247.036-.523.084-1.095.186-3.313.6-3.156.639.026.005 1.13-.165 1.31-.154q.077.006.138.014c.647-.15 1.79-.352 2.907-.544m107.678-.84c.034-.062-.045-.096-.51.15-.272.164-.902.524-1.592 1.333l.291-.065c.798-.965 1.384-1.112 1.55-1.282.155-.086.23-.124.261-.136m-.905 1.024c.274-.291.324-.39-.014-.174-.154.106-.357.27-.584.5q.194-.046.38-.092.135-.14.218-.234m-107.681-.621c1.15-.474 8.349-1.718 7.395-1.313-.76.33-6.139 1.25-7.395 1.313m16.47-2.468c.024-.149-3.487.517-3.644.565-2 .662 2.159-.247 3.644-.565m1.416-.739c-.507.055-4.258.811-3.17.779 1.07-.029 3.946-.865 3.17-.779m4.138-.296c-1.006.116-5.78 1.083-3.745.828.153-.017 3.814-.714 3.745-.828m91.552-.502c-1.68-.403-2.235-.343-2.316-.256-.053.1.428.263 1.581.404.874.117.841-.12.735-.148m-89.514-.44c-.69.034-2.444.634-1.334.57.645-.107 1.41-.573 1.334-.57m73.785-.024c-1.145.064-4.107.09-4.613.271 1.354-.088 5.017.035 4.613-.271M99.36 28.045c-.075-.001-2.156.342-2.461.549.87.004 3.195-.517 2.46-.549m66.36-.151q-.194.044-.425.102l.501-.015q.172-.053.292-.093zm-61.497-.653c1.639-.467-2.519.268-3.051.572.764-.152 2.472-.406 3.051-.572m15.234-2.74c-3.849.137-3.336.596-3.655.668-.69.15-2.349.326-3.642.653 1.471-.42 2.947-.843 4.419-1.266-1.188.228-11.501 2.274-11.684 2.43-.261.236 2.943-.534 3.041-.541.139-.01.75.342 1.053.292.501-.077 9.071-2.027 10.468-2.237m-18.546 2.393c-1.57.13 3.56-.947 1.848-.389-.069.023-1.785.384-1.848.389m73.425-1.535c2.753-.987-5.679 1.49-3.055.897.13-.029 2.91-.845 3.055-.898m-48.443-3.034c1.091-.034-3.589.98-3.752.99-.834.044 2.859-.96 3.752-.99m.115-1.984c.565-.066-2.259.705-3.136.842.039-.146 2.766-.798 3.136-.842m1.314-.514c-.557.31-2.469.696-3.754.982.558-.31 2.469-.693 3.754-.982m-62.455-.175c-.903.179-4.87.13-3.176.044.46-.023 2.382-.023 3.176-.044m3.605-.49c-1.002.164-3.527.107-5.01.177-2.07.1-5.531.698-4.047.134 3.009-.101 6.025-.205 9.057-.312m5.84-.228c1.048.053-2.041.212-3.25.14-.017-.077 3.078-.148 3.25-.14m-22.21-.262c-1.182-.116-6.481.11-5.164.173.201.008 4.393-.16 5.165-.173m41.17.045c1.575.103-3.702.186-1.898.03.085-.006 1.837-.034 1.899-.03m-33.63-.099c-.204-.006-4.33.108-3.89.153.868.085 4.505-.125 3.89-.153m6.89-.039c-1.367.023-4.083.041-3.246.145.11.008 3.232-.074 3.245-.145m.725-.102c-.674-.139-2.914.011-4.399.038.538.124 2.957-.038 4.399-.038m-28.363-.086-.182.01c-.25.018-.12.038.185.053.606.034 2 .048 2.256-.022.202-.059-1.591-.066-2.26-.041m69.697-.02c-.021.102-2.333.07-3.206.1.225-.114 2.311-.107 3.206-.1m4.015.087c-2.033-.046-.473-.44 1.193-.327.184.013 1.553.39-1.193.327m-47.04-.168c-.505-.125-2.983.04-4.397.042.406.097 3.272 0 4.398-.042m65.885-.607c.131.018.214.051.227.106-.343-.053-.375-.085-.227-.106m7.181-.056c2.462-.226-2.554-.11-2.508.012.015.046 2.403-.003 2.508-.012m54.893-.324c.09.01.023-.003-.075-.013l-.021-.002zm-.667-.406c-.352-.007-.539.022-.587.063q.07.029.122.048c.235.084.418.136.563.175.236.03.473.044.59.022.039-.002-.066-.106-.187-.191-.038-.007-.084-.012-.139-.024a6 6 0 0 1-.362-.093M13.896 13.45c-3.517.379-.21.132-.889.24-.523.083-2.622.17-1.419.2-.795-.008-2.911.1-4.896.244a60 60 0 0 0-2.718.248c-.397.05-.725.094-1.11.186a3.6 3.6 0 0 0-.52.168c-.082.036-.174.08-.263.131a2.3 2.3 0 0 0-.65.555c-.188.239-.29.465-.352.646-.144.457-.111.643-.127.681-.002.032-.037-.052.01-.407a2.15 2.15 0 0 1 .475-1.044q.114-.14.248-.259c.195-.17.316-.245.447-.322.141-.08.23-.122.323-.164.693-.288 1.102-.363 1.81-.437 4.184-.27 1.164.102 9.63-.666m9.859 2.555c-.525-.014-.86-.113-2.035-.007 1.206.034 2.321.074 3.525.111.889-.226-.908-.09-1.49-.104m-3.08-.666c1.421.068-6.385.535-7.806.486 1.559-.135 4.978-.224 6.405-.323.171-.012-.773-.258 1.402-.163M8.73 14.802c1.82-.035-2.716.324-3.247.27-.08-.023 2.918-.27 3.247-.27m-.338-.213c1.412-.039-1.706.193-2.62.245-.113-.046 2.428-.244 2.62-.245m9.217-.249c.101.047-2.384.19-2.608.195-1.414.021 1.703-.18 2.608-.195m-2.963-1.034c-.58.103-7.19.567-7.042.481.154-.1 6.005-.425 7.042-.481m16.13-1.628c.082.048-3.126.245-3.236.247-1.624.03 2.153-.217 3.236-.247m7.807-1.058c-1.175.122-.65.099.003.075.427-.016.918-.033.961-.004.138.1-.272.153-.953.183-1.74.075-5.09.028-6.526.167-.271.027 1.808.015 1.09.09-2.375.238-9.714.153-1.845-.238h-.006c2.08-.102.802.064.893.061 4.35-.13 3.227-.264 3.889-.329 1.146-.11 1.244.031 2.493-.03.31-.016.698-.045 1.206-.097-.53.052-.92.092-1.205.122m.886-.378c.078 0-.34.071-.895.145-.83.105-1.933.213-2.37.135-.417-.075 1.198-.185 2.365-.244.418-.02.768-.034.9-.036m-9.145-.344c1.569.002-3.703.33-1.901.119.07-.009 1.861-.12 1.901-.12M191.306 2.87c.191-.118.181-.12.075-.071-.063.044-.108.055-.216.11-.126.09-.221.166-.223.198.216-.151.279-.18.364-.237m.223-.38c-.337.124-.689.251-1.032.376a8 8 0 0 0-.26.192c.353-.135.696-.264.974-.367q.13-.076.217-.123c.265-.137.31-.15.303-.15-.012.002-.089.03-.202.071m.339.286c.014-.008.05-.05-.336.136q-.03.021-.057.036l.198-.08c.087-.037.165-.072.195-.092m-.924-.202q.099-.027.201-.055l-.084-.016zm-40.439-.04c1.051-.24 5.853-.29 4.996-.167-.184.026-5.392.287-4.996.167m11.187-.23c-.352-.018-2.998.08-3.759.12-.831.242 5.407-.04 3.759-.12m24.35-1.064c.854-.086-2.603-.126-2.555.038.001.05 2.418-.028 2.555-.038"/></svg>