<svg width="233" height="121" viewBox="0 0 233 121" fill="none" xmlns="http://www.w3.org/2000/svg">
<path d="M193.615 0.793965C194.127 0.789046 193.951 0.0770588 202.074 0.250996C207.27 0.505326 202.359 0.994813 211.13 1.19924C204.43 0.162607 211.103 0.520318 216.353 1.22756C216.645 1.26532 217.532 1.39333 218.644 1.56643C219.175 1.64813 219.81 1.74859 220.313 1.81936C220.802 1.89458 221.333 1.92779 220.953 1.89455C221.209 1.90144 221.477 1.9132 221.78 1.93459C222.117 1.96326 222.292 1.96226 223.094 2.08693C223.454 2.14723 223.876 2.22771 224.428 2.38088C224.566 2.41943 224.712 2.46331 224.869 2.51369C224.947 2.53891 225.029 2.56576 225.113 2.59475C225.155 2.60926 225.199 2.62507 225.242 2.64064C225.313 2.66602 225.416 2.70377 225.508 2.73928C226.262 3.04146 227.253 3.45916 228.574 4.50197C229.852 5.52183 231.616 7.42872 232.418 10.3692C233.349 13.6268 232.447 16.9544 231.484 18.6553C230.555 20.4029 229.422 21.4313 229.083 21.7481C228.744 22.0572 228.448 22.293 228.185 22.4903C227.172 23.2419 226.453 23.576 226.223 23.6992C225.892 23.8668 225.613 23.9931 225.356 24.1055C225.067 24.231 224.952 24.2784 224.774 24.3506C224.609 24.4173 224.451 24.4796 224.296 24.5391C223.176 24.9645 222.482 25.1933 221.821 25.4209C220.787 25.7781 219.289 26.5763 218.005 26.9893C217.116 27.2746 216.342 27.3396 215.077 27.7432C208.955 29.683 203.082 31.5357 197.019 33.4463C200.321 31.5151 194.181 33.9985 193.867 34.0654C192.38 34.3139 198.818 32.1503 196.229 32.8457C192.628 34.0403 189.107 35.2343 185.539 36.4668C188.482 35.5785 181.894 38.4449 180.544 38.6289C181.336 39.1098 164.17 43.702 161.733 44.9131C161.3 45.1267 163.869 44.4672 159.475 46.0723C160.155 46.0189 161.953 45.9022 162.057 45.9092C163.711 46.0367 159.757 46.3491 158.903 46.2783C158.297 46.497 157.582 46.7536 156.739 47.0488C155.86 47.3584 156.111 47.0149 155.659 47.208C155.627 47.2215 155.581 47.2515 155.519 47.294C155.442 47.346 155.343 47.4158 155.226 47.4981C157.62 47.3853 159.846 47.3295 160.192 47.4092C160.882 47.5545 156.384 47.8062 157.217 48.0733C160.458 47.834 163.579 47.517 166.897 47.3526C168.251 47.2884 167.578 47.5616 168.177 47.5322C168.419 47.5108 173.233 47.0848 173.029 47.0166C172.47 46.7461 157.838 47.8553 161.666 47.1953C162.4 47.059 165.061 47.4154 164.6 46.793C172.599 46.4849 179.268 45.7534 190.076 47.1514C192.037 47.5153 195.903 48.3184 199.462 52.502C203.01 56.8275 203.072 61.6181 202.805 63.8526C202.108 68.4883 200.996 69.6719 200.225 71.1231C198.591 73.6843 197.264 75.0612 195.409 76.6905C192.803 78.795 191.959 79.0477 190.846 79.6895C189.782 80.2501 188.915 80.6622 188.022 81.0762C186.285 81.8766 184.694 82.5503 183.099 83.21C184.584 82.4634 186.113 81.7306 187.822 80.8877C188.709 80.4487 189.571 80.0178 190.625 79.4492C191.726 78.8001 192.578 78.5391 195.184 76.4307C197 74.8286 198.311 73.4688 199.921 70.9531C200.68 69.5294 201.771 68.3659 202.46 63.8379C202.724 61.6558 202.678 56.9781 199.212 52.7363C195.733 48.6327 191.943 47.8438 190.021 47.4863C186.03 46.8451 183.298 46.8011 180.493 46.7676C179.296 46.7476 175.459 46.7502 175.943 47.0762C179.927 47.0878 183.896 46.8503 189.985 47.7119C191.918 48.065 195.818 48.8903 199.256 53.1397C202.63 57.5072 202.489 62.0115 202.221 64.085C201.491 68.4437 200.441 69.5761 199.689 70.9629C198.107 73.4196 196.81 74.7544 195.059 76.2842C193.295 77.743 192.445 78.1507 191.666 78.6133C191.247 78.8495 190.916 79.0239 190.577 79.1983C190.234 79.3743 189.907 79.536 189.618 79.6739C189.386 79.7844 190.09 79.0906 189.212 79.4854C187.475 80.298 183.213 82.6754 182.441 82.8555C182.303 82.8866 184.683 81.4356 183.811 81.5401C182.647 81.6931 182.169 82.1107 181.66 82.624C181.215 83.1046 180.787 83.6552 179.962 83.9854C178.66 84.5346 169.855 87.2525 167.931 88.4258C165.856 89.7135 174.259 86.2872 173.804 86.8545C168.856 89.1411 163.667 90.7948 158.828 92.5381C159.595 92.4739 160.185 92.4254 160.511 92.3975C159.724 92.6008 158.99 92.6968 158.211 92.7627C157.889 92.8799 157.57 92.9978 157.252 93.1162C157.31 93.1282 157.219 93.155 157.041 93.1953C156.968 93.2227 156.895 93.2499 156.822 93.2774C156.74 93.3083 157.404 93.2861 156.871 93.5762C157.128 93.5541 157.414 93.5306 157.728 93.502C163.608 92.9719 158.045 93.1937 160.288 92.8447C161.546 92.6509 168.256 92.383 168.032 91.9912C170.322 91.7622 169.005 92.0865 169.291 92.0791C169.58 92.0624 174.095 91.5976 175.595 91.5938C175.776 91.592 175.232 91.8289 175.421 91.833C175.778 91.8271 180.191 91.5377 180.378 91.5254C180.49 91.5088 179.407 91.3917 179.842 91.3311C180.348 91.2473 184.639 91.1631 184.883 91.1299C185.2 91.0383 179.903 91.2324 180.774 91.0283C183.208 90.971 187.219 90.8264 188.848 90.749C188.45 90.7717 186.055 90.7496 185.226 90.7461C185.598 90.46 190.753 90.5836 188.998 90.7354C190.113 90.6641 189.348 90.5868 189.974 90.5117C190.141 90.4906 191.733 90.5589 192.04 90.5391C192.08 90.5311 190.435 90.3588 190.762 90.3272C191.359 90.24 196.188 90.6283 196.572 90.7129C197.675 90.8745 193.763 90.5852 193.43 90.6787C193.477 90.6932 196.705 91.1381 196.759 91.168C196.947 91.3446 193.259 90.9272 193.678 91.128C194.593 91.2215 195.506 91.3252 196.414 91.4375C192.906 91.2347 186.344 91.0394 184.687 91.3115C189.902 91.1304 195.394 91.5643 195.364 91.9707C195.354 92.1353 193.119 92.1131 193.205 92.168C193.538 92.3324 196.633 92.3511 196.751 92.3799C196.845 92.3964 196.888 92.4092 196.888 92.418C196.882 92.4861 192.468 92.302 192.244 92.3614C191.877 92.4264 193.841 92.8142 193.837 92.8848C193.768 92.8843 190.632 92.8807 191.692 93.0313C192.765 93.1674 195.492 93.2834 195.594 93.3076C196.114 93.3843 191.336 93.2855 191.19 93.3555C191.116 93.3721 193.684 93.559 193.758 93.6055C193.811 93.6426 191.872 93.681 191.11 93.8115C190.542 93.9042 192.204 93.9822 191.912 93.9961C191.698 93.9823 187.211 94.0463 186.991 94.0928C186.665 94.1303 187.719 94.2122 187.569 94.2471C187.352 94.2947 185.908 94.3121 186.096 94.3496C186.254 94.3527 191.85 94.6158 191.821 94.7422C191.759 94.896 185.844 94.634 191.354 95.2119C191.392 95.2138 192.728 95.1539 192.765 95.1602C193.586 95.2831 189.32 95.4891 194.539 95.4473C184.836 95.7801 193.335 95.6995 191.901 96.0117C191.348 96.1192 187.617 96.3459 187.598 96.3789C187.971 96.5066 189.153 96.322 189.561 96.378C189.78 96.3962 186.455 96.7636 187.213 96.8242C187.604 96.8368 191.135 96.6274 191.282 96.6455C192.682 96.6899 190.969 96.8524 191.278 96.9092C191.485 96.9405 193.611 96.8792 193.667 96.8906C193.75 96.896 190.87 97.1684 190.272 97.2793C189.818 97.3534 191.531 97.3403 191.213 97.3789C189.303 97.5908 185.219 97.5953 189.161 97.7656C189.402 97.7748 190.875 97.6717 190.925 97.6768C191.842 97.7525 189.118 97.9261 188.637 98.085C187.811 98.3391 191.709 97.9319 188.471 98.3184C190.906 98.2457 192.258 98.1455 195.116 98.0283C187.557 98.4207 184.749 99.2441 192.107 98.7158C190.494 98.8681 190.611 99.0691 189.916 99.127C189.402 99.1587 185.391 99.3086 187.258 99.7412C187.49 99.7873 189.908 99.4421 189.155 99.6768C183.364 100.28 189.01 99.7815 189.043 99.8096C189.003 100.013 174.779 101.935 172.285 102.554C169.441 103.152 166.901 104.037 166.304 104.161C164.235 104.578 165.926 104.042 165.454 104.065C164.986 104.082 159.184 105.639 158.876 105.685C157.707 105.833 158.846 105.356 158.723 105.369C157.303 105.503 149.433 107.268 147.202 107.643C147.267 107.805 151.753 106.927 149.01 107.75C145.824 108.716 145.524 107.998 145.432 107.98C142.121 108.628 138.804 109.267 135.451 109.9C135.421 109.903 135.333 109.918 135.303 109.92C124.345 111.915 112.804 114.702 100.811 116.615C101.132 117.141 111.044 114.946 111.243 114.944C112.47 115.086 99.4799 117.599 94.3944 117.93C95.778 117.898 97.0292 117.823 98.2957 117.736C97.0795 118.158 95.2241 118.428 92.7313 118.502C91.2836 118.479 90.369 118.693 87.0819 117.996C86.5944 117.873 86.0547 117.712 85.4285 117.462C84.8127 117.216 83.6135 116.672 82.4363 115.698C81.4672 114.997 79.2139 112.438 78.744 109.507C78.2278 106.561 78.8575 104.635 79.4832 103.147C81.7886 98.8747 82.6245 99.101 83.5643 98.1426C84.2889 97.5638 84.9225 97.0929 85.4852 96.6641C86.8167 95.6534 84.0174 97.2677 84.0135 97.2881C85.6045 95.7896 87.9901 94.5911 86.3914 95.9717C89.818 93.4809 89.411 94.1856 91.9871 92.8135C92.1177 92.7478 90.9171 93.0829 92.8758 91.9405C93.806 91.375 98.7158 88.9984 99.2733 88.5049C99.4994 88.2874 96.6135 88.5348 96.6522 89.4864C91.104 91.7543 95.0985 90.6849 93.0018 91.7207C92.6415 91.9389 93.3104 90.8852 87.8631 94.2539C88.6143 92.7366 95.051 90.0995 96.0164 89.5596C98.0873 88.2766 89.0455 92.2698 87.493 94.1192C87.964 93.0832 86.8608 94.317 84.4569 95.9414C83.6347 96.5075 83.1012 96.894 82.7791 97.1114C82.193 97.5316 81.979 97.6729 81.6844 97.8936C81.3253 98.2482 81.2378 97.9841 79.4324 100.334C78.841 101.156 76.9238 104.119 77.1424 108.077C77.2639 112.855 80.8129 116.38 81.9608 117.1C85.2594 119.288 85.8052 118.95 86.7508 119.275C87.6434 119.465 87.9053 119.467 88.2918 119.506C88.6405 119.534 88.912 119.543 89.1649 119.55C90.0353 119.553 90.7762 119.602 92.7127 119.72C90.7237 119.146 92.6124 119.099 94.7215 119.055C96.8536 119.019 99.4582 118.982 100.583 118.963C98.7402 119.287 96.8693 119.593 94.7557 119.829C93.697 119.944 92.5586 120.047 91.2098 120.073C90.8631 120.079 90.4418 120.076 90.0389 120.063C89.8343 120.057 89.6256 120.047 89.411 120.034C89.1696 120.019 88.8818 119.995 88.5994 119.964C87.9878 119.89 87.5442 119.85 86.4608 119.586C85.4498 119.267 84.4184 119.204 81.8309 117.426C82.8881 118.251 83.9239 118.78 84.5838 119.086C85.1636 119.359 85.6772 119.559 86.1444 119.723C85.5828 119.564 85.0266 119.388 84.2303 119.041C83.2444 118.598 82.0295 117.958 80.6717 116.723C79.379 115.662 77.0986 112.505 76.741 109.296C76.3263 106.196 76.9934 104.026 77.6903 102.385C77.8608 101.993 78.0782 101.569 78.2176 101.318C78.3436 101.089 78.4697 100.875 78.5955 100.674C78.8474 100.271 79.0963 99.9193 79.3367 99.6045C79.7989 98.995 80.3307 98.4269 80.6268 98.1309C81.2181 97.536 81.7514 97.0816 82.2606 96.6787C81.9749 96.989 81.6825 97.3205 81.3758 97.6895C81.769 97.309 82.1294 96.9917 82.4715 96.7071C87.7033 92.4244 88.5353 92.9041 89.0223 92.5391C94.0543 89.7725 99.4427 87.2813 104.206 85.1582C104.928 84.8468 104.254 84.6158 109.581 82.7139C111.267 82.1208 109.853 83.1044 111.697 82.2696C113.706 80.3806 113.914 81.1321 114.628 80.8389C115.443 80.5024 116.119 80.1812 116.656 79.9102C117.399 79.5325 117.829 79.2669 117.935 79.2217C119.555 78.5328 121.728 77.6608 123.784 76.8291C123.697 76.7696 123.647 76.6868 123.423 76.7158C123.232 76.7406 122.957 76.7857 122.621 76.8447C120.827 77.1633 117.462 77.7346 115.65 77.7832C120.187 77.8516 111.464 78.6217 109.311 78.6514C106.009 78.7563 106.188 78.3119 104.774 78.2871C99.3031 78.1922 91.0071 79.376 86.8475 78.5098C87.0887 79.4367 79.6811 78.1752 76.3572 78.2256C73.7461 78.2641 70.0019 78.9497 73.5115 79.2539C69.0299 79.2944 64.3332 79.5781 60.2322 79.7949C59.5479 79.8314 60.4761 79.5217 59.3123 79.5938C59.2082 79.6026 59.0702 79.8738 58.0897 79.9453C49.9756 80.5971 53.9005 79.8464 52.3748 79.7656C51.5427 79.7297 50.9045 79.7319 50.4578 79.752C55.0806 79.3266 60.6487 79.0245 62.1307 78.9658C60.81 78.3964 51.5183 79.5413 48.9344 79.6719C48.8429 79.6738 49.1308 79.3253 49.0379 79.3311C49.036 79.3312 49.034 79.3319 49.032 79.3321C48.6165 79.358 47.2532 79.4975 45.9861 79.6934C45.0007 79.841 44.0343 79.9999 43.4129 80.1387C43.2232 80.2113 42.9964 80.29 42.7283 80.378C42.7191 80.4128 42.7795 80.4418 42.9256 80.4649C43.1546 80.5001 44.3316 80.3953 46.0477 80.2012C47.0772 80.0855 48.3692 79.9475 49.7811 79.8155C48.854 79.9666 49.5839 80.2655 49.4207 80.2949C48.6278 80.4348 47.3717 80.5373 46.0994 80.6367C43.9787 80.8136 41.6674 80.9341 40.5301 81.0244C40.4065 81.058 40.2794 81.0929 40.1483 81.128C40.0527 81.2035 40.0597 81.2947 40.0154 81.2998C39.7906 81.3167 39.6064 81.3162 39.452 81.3086C39.0624 81.41 38.6448 81.5211 38.1951 81.6338C38.103 81.5325 38.4007 81.3843 38.8807 81.2207C38.8104 81.202 38.7475 81.1861 38.6873 81.1709C38.1897 81.3116 37.6086 81.4663 37.2723 81.5508C37.2681 81.5529 37.2638 81.5555 37.2596 81.5576C37.2566 81.5572 37.2537 81.5561 37.2508 81.5557C37.1072 81.5916 37.0131 81.6161 36.9959 81.6182C36.9552 81.6228 36.9189 81.6241 36.8856 81.627C37.5049 81.7093 28.9159 84.1019 30.8572 83.9365C28.3794 84.8275 31.0815 83.3198 29.2264 84.0313C28.5853 84.2712 28.1894 85.1785 24.5789 85.7217C24.5757 85.7225 24.5724 85.7228 24.5692 85.7237C23.5102 85.8796 24.6421 85.4001 24.4373 85.3848C24.4206 85.383 24.2461 85.4043 24.0135 85.4297C24.1938 85.3815 24.4229 85.3195 24.7723 85.2071C24.9151 85.1432 25.1835 85.0896 25.7225 84.8711C25.6022 85.0467 25.4121 85.2382 26.3914 84.9854C26.6679 84.9187 30.5515 83.4406 30.2908 83.416C30.2654 83.4126 29.0958 83.8226 28.8865 83.8408C28.1026 83.9093 28.407 83.5827 28.2987 83.6006C28.2632 83.6072 28.1692 83.6363 28.0262 83.6797C28.0598 83.6583 28.0952 83.6386 28.1297 83.6162C28.2139 83.5613 28.2392 83.5444 28.3885 83.4434C28.5 83.3676 28.6151 83.285 28.7362 83.1973C30.0245 82.8205 30.9715 82.5474 31.0906 82.5322C31.3512 82.4989 31.414 83.1556 31.6903 83.1455C31.8424 83.1384 35.8339 81.7661 36.3572 81.6807C36.5122 81.6551 36.6317 81.6406 36.7195 81.6319C36.5674 81.6253 36.6487 81.5655 36.8621 81.4815C36.0195 81.2849 37.1519 81.1306 38.6063 80.9776C39.1667 80.8483 39.6224 80.7771 39.5994 80.8692C39.5985 80.8722 39.5932 80.8729 39.5877 80.877C39.8431 80.8512 40.0974 80.8251 40.3426 80.7989C41.0668 80.6127 41.8027 80.4408 42.2518 80.3369C41.7612 80.2905 39.6579 80.4555 36.9627 80.7149C34.4006 81.4816 31.3053 82.3989 29.0965 82.9268C29.5865 82.5433 30.163 82.0628 30.8065 81.3604C30.6168 81.3815 30.4276 81.4027 30.2391 81.4239C29.5766 82.0963 28.988 82.531 28.5164 82.8926C28.396 82.9798 28.2806 83.0606 28.1697 83.1358H28.1678C28.0579 83.1587 27.9518 83.1805 27.8494 83.2002C28.2464 82.9571 29.0337 82.4491 30.0262 81.4483C29.8759 81.4652 29.7261 81.4811 29.577 81.4981C28.2565 82.8035 27.4011 83.0413 27.2899 83.2012C27.2144 83.2459 27.1397 83.286 27.0692 83.3262C26.9827 83.3366 26.9024 83.3471 26.8279 83.3526C26.8891 83.3674 26.9174 83.3876 26.9178 83.4131C26.674 83.5479 26.4582 83.6537 26.2654 83.7461C25.7527 83.9242 24.9752 84.1435 24.0682 84.378C24.1577 84.3535 24.2585 84.3248 24.3738 84.2901C24.5085 84.2492 24.6466 84.2059 24.8465 84.1367C25.1431 84.0326 25.5119 83.8985 26.0506 83.6485C26.321 83.5219 26.6356 83.3653 27.0203 83.1446C27.2129 83.0338 27.4236 82.9059 27.6561 82.7539C27.7111 82.7185 28.0456 82.4973 28.3514 82.2656C28.6198 82.0634 28.9126 81.8259 29.2332 81.5371C28.6148 81.608 28.0093 81.6768 27.4266 81.7461C27.28 81.8484 27.1637 81.9263 27.1414 81.9405C26.926 82.0819 26.7311 82.2007 26.5526 82.3037C26.3893 82.3978 26.2388 82.4777 26.1004 82.5498C26.8817 82.5704 26.6065 82.6438 25.7166 82.7412C25.6949 82.7516 25.6743 82.7635 25.6531 82.7735C25.4442 82.8708 25.2617 82.9471 25.1014 83.0127C24.9077 82.9899 24.2018 83.0657 23.4608 83.1797C23.5875 83.1464 23.745 83.1039 23.9617 83.0371C24.0705 83.0035 24.1947 82.964 24.3416 82.9131C24.3881 82.8971 24.4459 82.8745 24.5145 82.8496C24.1989 82.8736 23.8506 82.899 23.4666 82.9209C23.0048 82.9467 22.5146 82.9697 21.9119 82.9834C21.5846 82.9898 21.2916 82.9966 20.7615 82.9864C20.6311 82.9833 20.4963 82.9792 20.2811 82.9688C20.1793 82.9637 20.0699 82.9579 19.949 82.9492C19.8158 82.9397 19.6038 82.9225 19.3719 82.8955C19.2528 82.8817 19.1211 82.8645 18.9695 82.8418C18.7497 82.8087 18.4452 82.7588 18.0487 82.667C17.8479 82.6203 17.6183 82.5617 17.3416 82.4785C17.2032 82.4368 17.0524 82.3888 16.8865 82.3311C16.8502 82.3188 16.6016 82.2304 16.3992 82.1485C16.1851 82.0625 15.9477 81.9597 15.6805 81.8301C14.6738 81.2618 12.8336 80.5609 10.8524 77.293C9.98961 75.9276 9.01815 72.6657 9.59455 69.9219C10.0974 67.1809 11.3626 65.4625 12.2645 64.4453C13.174 63.4339 14.033 62.8491 14.4119 62.5967C14.6675 62.4281 14.8931 62.293 15.0965 62.1787C15.5026 61.9514 15.8209 61.8023 16.0906 61.6836C16.6166 61.4535 17.0192 61.3243 17.1531 61.2803C17.5303 61.1587 17.7929 61.0905 18.0174 61.0352C19.2313 60.7491 20.4858 60.4608 21.5291 60.2334C21.5091 60.2324 21.4919 60.231 21.4764 60.2305C21.5131 60.2255 21.5486 60.2204 21.5799 60.2129C22.038 60.1016 21.9925 60.0109 21.6688 59.9522C21.5275 59.9216 21.2979 59.8978 21.1883 59.874C21.1419 59.8632 21.0836 59.8475 21.3162 59.8467C21.3914 59.8478 21.4655 59.8488 21.6414 59.8604C21.7444 59.8675 21.8714 59.8778 22.0389 59.8965C22.1226 59.9059 22.2166 59.9174 22.325 59.9326C22.3876 59.9412 22.5244 59.9623 22.6844 59.9903C23.9907 59.7287 24.5187 59.6833 23.2889 60.1133C23.4825 60.158 23.7072 60.214 23.9754 60.293C23.989 60.297 24.0026 60.3015 24.0164 60.3057C24.57 60.1441 24.9992 60.0097 25.201 59.9278C25.2525 59.9056 25.254 59.8181 25.2479 59.7119C25.0884 59.6502 24.916 59.5863 24.8641 59.5684C24.787 59.5412 24.7128 59.5159 24.6414 59.4922C24.4984 59.4447 24.3661 59.4028 24.243 59.3662C23.7516 59.2213 23.3964 59.1433 23.1063 59.085C22.4819 58.9656 22.3413 58.9589 22.1424 58.9326C21.959 58.9112 21.8196 58.8986 21.7059 58.8897C21.5182 58.8753 21.4295 58.8719 21.3455 58.8682C21.0826 58.859 21.1387 58.8642 21.1893 58.8623C21.324 58.8605 21.5917 58.8526 21.8865 58.8399C22.115 58.8301 22.3573 58.8162 22.6053 58.8028C22.7748 58.8302 23.0077 58.8719 23.3543 58.9434C23.5629 58.9889 23.8047 59.0467 24.0985 59.1289C24.2453 59.1701 24.4056 59.2173 24.5828 59.2744C24.7738 59.3393 24.8052 59.3428 25.2362 59.5078C25.2277 59.3751 25.2325 59.2567 25.3113 59.2334C25.3189 59.2313 25.3287 59.2293 25.3397 59.2266C25.1853 59.1682 25.059 59.1238 24.9647 59.0899C24.6471 58.9796 24.3785 58.8993 24.1434 58.834C24.0001 58.7945 23.8681 58.7631 23.7469 58.7334C23.7552 58.7329 23.764 58.733 23.7723 58.7324C23.8911 58.7243 24.0084 58.7145 24.1238 58.7061C24.1849 58.7227 24.2491 58.7378 24.3153 58.7569C24.3639 58.7334 24.4234 58.7073 24.492 58.6787C24.7105 58.6617 24.9186 58.6434 25.1121 58.626C25.1069 58.6242 25.1012 58.6231 25.0955 58.6211C25.0091 58.5916 24.9252 58.5666 24.8455 58.541C25.1437 58.4309 25.5159 58.3057 25.9119 58.1797C25.8182 58.1327 25.7743 58.095 25.867 58.0742C26.0831 58.0283 26.347 57.9896 26.6483 57.9551C27.073 57.8305 27.4906 57.7156 27.8455 57.6328C26.3164 57.829 24.7485 57.9794 22.41 58.0029C22.372 57.9987 22.3355 57.9958 22.3006 57.9922C24.5977 57.577 23.2631 57.1809 26.1404 57.0674C25.9072 57.1596 25.6583 57.253 25.4188 57.3447C27.1227 57.1153 28.9705 56.9369 30.9031 56.7637C34.376 55.7904 42.6721 53.8049 40.7274 54.7686C40.1608 54.9191 33.5572 56.2758 36.9002 55.874C37.3206 55.823 39.6345 55.2174 41.1903 54.8994C41.5093 54.8327 41.8505 54.7588 41.8875 54.7637C42.2688 54.7694 41.8413 54.9653 41.2498 55.1865C40.4615 55.4218 39.4933 55.7256 38.577 56.0293C38.9442 55.987 39.312 55.9435 39.6795 55.8975C40.9444 55.7384 39.4232 55.5001 41.1258 55.4024C41.6696 55.3718 42.2497 55.3875 42.702 55.4278C42.7911 55.4045 42.8795 55.382 42.9647 55.3584C43.9671 55.0822 44.1902 54.7143 44.2986 54.6836C46.2287 54.1423 45.1992 54.7145 45.8504 54.5498C46.1985 54.464 49.9392 52.839 49.4266 53.9258C62.224 49.9568 52.762 52.4233 44.9637 54.3692C47.3136 53.4626 52.287 52.3771 54.4725 51.7354C55.2555 51.5057 54.7344 51.3193 56.034 50.9229C58.7626 50.1023 72.056 47.0009 75.5477 46.1621C73.4414 46.8267 74.1523 46.983 75.7928 46.5274C77.4039 46.0796 75.9282 46.0117 76.2313 45.8828C76.5573 45.7475 84.2944 43.9246 85.5408 43.5362C79.8086 45.2118 81.201 45.1852 86.1092 43.9229C85.4215 44.2021 84.7417 44.4797 84.0662 44.7559C86.8939 43.8722 93.0745 42.7476 94.6854 42.167C94.939 42.0753 93.9333 42.0595 94.076 42.0078C95.504 41.5102 100.538 40.4614 100.735 40.3135C100.907 40.1884 98.7494 40.5253 99.4988 40.211C99.6505 40.1475 101.794 39.9573 103.768 39.3408C104.501 39.1123 103.987 38.9848 104.17 38.9209C105.696 38.3898 104.913 39.0413 107.732 38.2227C108.377 38.0354 108.964 37.8263 109.556 37.6084C110.906 37.1154 112.262 36.5876 114.336 36.1631C104.428 38.1755 112.703 36.2279 116.737 35.084C117.372 34.9032 116.732 34.5838 120.627 33.8721C112.619 36.6589 123.116 33.7225 125.138 33.2305C125.253 33.2048 125.371 33.4851 126.388 33.2354C126.472 33.2136 126.302 33.049 127.235 32.7969C136.016 30.3384 130.442 32.0341 132.167 31.7803C132.904 31.6752 137.066 30.1711 138.207 29.8008C138.468 29.7194 138.413 29.9539 139.43 29.6279C141.23 29.049 142.779 28.3128 143.961 27.9033C144.099 27.8555 144.212 28.1644 146.447 27.2979C147.063 27.0579 147.742 26.7043 146.81 26.9248C143.703 27.6731 138.221 30.0002 134.752 30.6709C131.604 31.3132 141.264 28.4097 141.783 28.1875C141.971 28.1262 140.114 28.8938 142.057 28.3008C143.378 27.8958 145.427 26.8543 147.468 26.0674C142.585 26.8395 135.055 28.0901 132.71 28.3506C134.735 28.0717 144.671 26.1201 144.456 26.0156C144.403 26.0024 141.935 26.2284 141.457 26.3789C140.603 26.3358 137.833 27.3047 136.271 27.4492C136.094 27.4663 136.733 27.0638 133.947 27.461C133.001 27.5963 130.524 28.2273 127.973 28.3955C124.358 29.0949 105.091 32.0347 103.821 32.5498C103.785 32.571 106.51 32.2053 104.705 32.6338C102.303 33.2029 104.385 32.3111 101.541 32.7539C101.114 32.8215 93.2312 34.2251 92.9744 34.2988C90.6357 34.9855 97.565 33.9297 97.4725 33.9795C97.25 34.1047 91.5181 35.1237 91.285 35.1416C91.0638 35.1588 95.6607 33.9987 90.0692 35.0879C90.7254 35.0229 91.3763 34.9595 92.0281 34.8955C89.4033 35.426 89.0931 35.2135 88.451 35.3057C86.456 35.5917 84.3622 36.3325 81.074 36.3936C80.2024 36.4106 81.5839 36.0403 81.4744 36.0391C80.4218 36.044 79.2129 36.6994 77.6248 36.6211C77.5139 36.6135 81.0277 35.8342 74.8026 36.8565C75.2352 36.818 75.6689 36.7792 76.1033 36.7403C75.2385 36.9582 68.9606 38.0065 68.0848 38.1231C65.5933 38.464 67.7177 37.9097 65.2342 38.3223C66.888 38.3781 59.2919 39.5648 59.6756 39.2451C58.6889 39.7178 52.1322 40.4055 49.077 40.7832C47.1479 41.0342 43.2065 41.632 42.5867 41.6807C41.8222 41.747 42.0195 41.5228 40.657 41.625C40.5501 41.6329 40.1692 41.6831 39.6072 41.751C38.0753 41.937 35.316 42.2523 32.7654 42.3662C32.0677 42.3983 30.6271 42.2175 31.8621 42.0069C34.0317 41.6372 38.1045 41.4807 38.032 41.2881C37.9534 41.0822 32.4667 41.7901 30.9998 41.9151C24.1662 42.5064 28.0568 41.8833 27.8973 41.8321C27.3879 41.7266 23.6718 42.1278 23.5301 42.1279C22.8798 42.1348 25.4949 41.7307 25.5389 41.6279C25.5448 41.5005 21.9525 41.6659 22.7537 41.5371C23.9041 41.3513 27.2219 41.1762 27.4471 41.1426C30.1599 40.7198 26.3511 40.8457 25.3494 40.8154C25.0422 40.8058 26.242 40.5991 25.9901 40.6143C22.0087 40.8668 25.2133 41.1101 22.5799 41.3613C20.2248 41.5859 23.224 41.0661 23.1444 41.0635C22.9985 41.0688 20.2208 41.3665 19.7625 41.3516C19.5769 41.3426 26.7961 40.1589 26.4471 40.0264C24.1392 40.3293 21.8284 40.6308 19.5008 40.9307C19.2912 40.7427 22.632 40.5177 23.0096 40.4522C23.7005 40.3282 21.7226 40.446 21.8026 40.3692C21.8294 40.3237 24.1418 39.8998 22.035 40.0821C21.3285 40.1431 19.8821 40.4596 17.2811 40.6094C26.1797 39.3798 20.025 39.9731 19.7078 39.9385C19.4377 39.8963 23.7155 39.2081 18.5184 39.8594C18.2399 39.4815 18.6133 39.7183 20.0711 39.4707C21.8899 39.1611 17.6809 39.5343 24.283 38.8369C23.8991 38.6856 18.5786 39.3496 18.3074 39.3662C18.065 39.3818 19.2362 39.1448 18.8143 39.1641C13.7839 39.4096 17.2213 39.1572 15.7537 39.1026C15.647 39.0945 10.9171 39.5945 14.4881 39.1182C21.0321 38.2391 23.7136 38.1802 24.7762 37.4434C19.9124 37.8104 14.1358 38.9219 12.6707 39.1065C10.4317 39.3949 12.7532 38.9895 12.4617 38.9932C12.3881 38.9921 10.446 39.2455 10.4061 39.2412C8.97451 38.9948 19.014 38.1462 22.1268 37.6709C21.2579 37.7143 20.4502 37.7513 19.574 37.7969C20.7562 37.6422 21.8477 37.4979 23.0037 37.3457C17.5523 37.9134 22.8353 37.319 24.1092 36.7793C24.395 36.6582 20.8456 37.2699 24.908 36.502C21.8722 36.8499 22.8241 36.6503 20.1346 37.1084C20.1695 36.96 26.2773 35.979 28.6737 35.5752C20.158 36.5556 25.0502 36.4402 17.658 37.1397C16.3129 37.4961 19.8248 36.9976 19.5428 37.0645C18.5633 37.2997 16.0889 37.4621 13.2371 38.1963C12.77 38.3157 14.7977 38.24 11.827 38.6113C11.4857 38.6533 9.57876 38.7428 9.62092 38.7266C9.83432 38.5789 11.7171 38.3806 11.7977 38.3194C11.8505 38.2646 9.76937 38.5624 9.77131 38.5488C9.67718 38.4101 11.5056 38.267 11.2322 38.2549C10.6478 38.224 3.13749 38.8886 12.9168 37.6973C4.81706 38.9325 11.8898 38.0032 15.0662 37.5166C15.8369 37.3976 16.092 37.2716 17.202 37.0908C18.7026 36.8488 20.4423 36.6604 21.1795 36.544C22.003 36.413 17.2963 36.8231 24.074 35.9746C20.5965 36.2209 14.5374 37.2755 11.1356 37.5752C4.26277 38.1945 15.8736 36.569 17.0555 36.3701C17.3686 36.3188 16.3014 36.3392 16.5106 36.3028C16.8262 36.2475 23.4483 35.3936 24.0653 35.1983C24.6881 35.0032 21.6778 35.5356 21.4363 35.4571C21.3268 35.4003 29.1839 34.1592 24.9139 34.708C21.9769 35.0902 16.5154 36.1466 15.5653 35.9619C19.9182 35.3279 24.263 34.6872 28.6092 34.042C26.2506 34.2497 23.8004 34.4726 21.4188 34.6895C26.3135 33.9489 30.5255 33.49 35.1668 32.6319C25.21 33.7056 35.7026 32.2072 38.3299 31.793C38.66 31.741 38.8653 31.7059 38.8826 31.6973C38.8938 31.6884 38.6717 31.6973 38.3192 31.7158C37.0508 31.7889 34.3632 31.9733 33.7869 32.0108C34.8905 31.8116 36.4889 31.5415 38.2586 31.2432C42.6854 30.489 47.4061 29.5304 42.4246 30.0557C43.6693 29.9533 46.6231 29.1924 46.5789 29.1787C46.1768 29.0661 39.7002 30.2791 40.7244 29.9287C41.9336 29.5307 43.6874 29.5123 45.574 29.1602C55.278 27.2918 52.4275 26.7509 62.2 24.9385C61.9985 24.9408 61.7973 24.9431 61.5965 24.9453C72.193 22.8183 82.8043 20.5284 93.4412 18.2363C97.525 16.9542 108.55 14.2374 114.016 13.0762C115.119 12.8387 120.556 11.8605 120.972 11.8106C121.74 11.7156 117.592 12.645 119.494 12.3662C119.893 12.3005 129.063 10.4289 128.375 10.3467C127.333 10.5397 124.153 11.3372 123.613 11.3994C119.817 11.7753 148.218 6.15783 149.68 5.83986C149.033 5.88196 148.384 5.92594 147.731 5.9717C149.564 5.65943 151.349 5.36257 153.189 5.06643C152.468 5.2681 151.729 5.47373 151.013 5.67678C153.118 5.32981 155.904 4.77768 157.864 4.50783C158.182 4.46435 157.392 4.8042 158.14 4.68459C158.89 4.56557 158.696 4.3184 159.805 4.10158C160.673 3.93073 163.775 3.51037 166.192 3.20412C167.235 3.07051 168.141 2.95556 168.718 2.87209C176.122 1.80374 183.647 0.81422 191.327 0.546895C183.438 1.23747 191.396 0.944526 193.615 0.793965ZM78.7166 104.176C78.2003 105.856 77.8441 108.092 78.7694 110.966C79.2305 112.351 79.9678 113.57 80.743 114.493C81.5364 115.421 82.0236 115.81 82.6268 116.273C85.1196 117.99 86.0082 117.988 86.9783 118.296C88.6554 118.688 89.5403 118.703 90.3074 118.757C91.9113 118.832 92.9687 118.794 94.0838 118.759C93.8026 118.861 92.3897 119.038 90.0848 118.912C88.8581 118.739 87.6738 119.008 84.1766 117.371C83.1392 116.818 82.0252 116.08 80.8651 114.765C79.4789 113.225 78.4952 110.958 78.2635 109.093C77.9474 106.053 78.5058 104.743 78.7166 104.176ZM103.664 117.899C102.997 118.148 101.61 118.498 100.647 118.762C100.862 118.464 101.426 118.193 103.664 117.899ZM79.244 104.857C79.1101 105.197 78.5806 106.161 78.9637 109.344C79.2527 111.425 80.7043 113.848 81.9188 114.945C83.0303 116.031 84.1593 116.675 85.1053 117.096C86.5076 117.713 87.7389 117.913 88.3885 117.989C88.7723 118.035 89.1391 118.062 89.494 118.076C89.8029 118.086 90.0702 118.083 90.3485 118.075C90.6235 118.067 90.894 118.051 91.1551 118.031C91.378 118.01 91.5957 117.986 91.8065 117.959C93.5063 117.733 94.4946 117.391 94.0067 117.394C93.3094 117.383 92.077 117.546 90.2196 117.567C89.9854 117.568 89.7761 117.569 89.5067 117.56C89.2175 117.548 88.9224 117.53 88.618 117.502C88.3006 117.472 88.0416 117.446 87.6346 117.377C87.2083 117.302 86.7558 117.202 86.2694 117.058C85.5372 116.858 83.5761 116.126 81.9832 114.528C80.0975 112.895 79.066 109.517 78.991 107.726C78.9833 108.357 79.0139 108.535 78.9588 108.068C78.9146 107.608 78.8665 106.32 79.244 104.857ZM104.073 116.777C104.356 116.767 105.439 117.715 102.363 117.821C101.802 117.834 103.925 117.229 100.183 117.696C102.972 117.277 102.331 116.83 104.073 116.777ZM97.8367 117.112C97.7476 117.128 94.2139 117.408 94.7029 117.582C95.5184 117.873 98.8094 117.114 97.8367 117.112ZM111.389 116.315C111.423 116.472 108.134 117.139 107.873 117.16C106.107 117.328 110.182 116.49 111.389 116.315ZM112.018 116.378C112.305 116.091 120.304 114.265 120.242 114.549C117.522 115.165 114.783 115.78 112.018 116.378ZM121.537 114.419C124.394 113.359 125.022 113.978 124.776 114.055C121.652 115.044 123.634 114.054 123.53 114.051C123.307 114.056 121.079 114.797 121.546 114.417C121.543 114.418 121.54 114.418 121.537 114.419ZM130.142 111.168C130.552 111.158 129.348 111.595 128.729 111.697C127.592 111.882 128.836 111.199 130.142 111.168ZM139.555 110.897C141.617 110.709 134.612 112.07 136.863 111.417C137.002 111.382 139.426 110.911 139.555 110.897ZM150.786 108.65C151.216 108.48 153.435 107.999 153.71 108.138C153.057 108.262 151.237 108.665 151.011 108.689C150.915 108.7 150.851 108.705 150.804 108.706C150.075 109.045 141.361 110.679 140.888 110.716C138.282 110.981 150.058 108.709 150.42 108.664C150.599 108.65 150.718 108.646 150.786 108.65ZM144.364 108.405C143.629 108.782 143.072 108.92 140.875 109.292C144.128 108.588 141.084 108.978 144.364 108.405ZM162.614 106.023C162.745 106.04 159.282 107.13 157.721 107.38C154.747 107.845 162.478 106.017 162.614 106.023ZM151.886 106.827C153.1 106.585 154.849 106.236 155.182 106.334C154.359 106.475 151.881 106.954 151.886 106.827ZM83.9569 98.6582C88.9913 94.3439 110.229 85.1928 93.6629 92.4268C93.1046 92.6981 93.9686 92.5103 91.6619 93.6778C91.5061 93.7576 91.3363 93.6222 90.868 93.8662C90.0053 94.3291 86.4893 96.1084 83.7196 98.3477C82.5036 99.5106 80.7998 100.201 79.2733 104.743C79.3595 104.64 79.1197 105.203 79.0301 106.702C79.1545 105.418 79.8005 103.283 80.5789 102.178C81.2836 101.026 82.39 99.9246 82.9852 99.4492C82.981 99.453 82.9766 99.4572 82.9725 99.461C83.0991 99.3549 83.4503 99.0448 83.9569 98.6582ZM178.838 101.545C177.424 101.939 174.17 102.548 172.068 102.931C171.992 102.719 177.515 101.81 178.838 101.545ZM94.7117 101.539C94.5882 101.545 92.3758 101.587 92.3592 101.579C91.4736 101.679 92.3238 101.796 93.4246 101.773C94.4724 101.756 95.6505 101.623 94.7117 101.539ZM180.706 101.404C179.716 101.318 184.458 100.709 182.63 101.158C182.535 101.176 180.784 101.399 180.706 101.404ZM192.107 98.7158C192.406 98.6876 192.764 98.6593 193.197 98.6358C192.812 98.6663 192.448 98.6913 192.107 98.7158ZM196.573 98.4805C197.15 98.547 194.654 98.6947 193.765 98.6992C191.768 98.684 196.372 98.4373 196.573 98.4805ZM91.5799 97.5996C91.2644 97.5849 91.5474 97.644 91.8104 97.6641C91.8997 97.6715 91.9965 97.6742 92.0994 97.6797C91.8112 97.6159 91.6661 97.6115 91.5799 97.5996ZM145.806 96.7588C145.177 96.8404 144.671 96.9244 144.493 97C144.725 96.9675 145.039 96.9326 145.396 96.8955C145.553 96.8429 145.69 96.7966 145.806 96.7588ZM149.29 96.4043C148.709 96.4531 147.474 96.5629 146.394 96.6875C146.427 96.7124 146.451 96.7462 146.468 96.7871C147.715 96.664 149.035 96.5306 149.29 96.4043ZM146.793 96.2305C145.077 96.2123 144.773 96.8684 146.676 96.4649C146.751 96.449 146.857 96.2354 146.793 96.2305ZM165.605 94.8408C164.618 94.961 162.075 95.1838 161.494 95.2783C159.512 95.6026 164.662 95.1789 165.605 94.8408ZM161.982 93.2578C160.055 93.4578 158.096 93.6691 156.171 93.878C155.953 93.9609 155.75 94.0315 155.561 94.0928C155.977 94.2199 155.318 94.3389 154.346 94.4053C153.69 94.5297 153.215 94.5549 152.65 94.7217C152.58 94.7428 152.499 94.7705 152.408 94.7998C153.46 94.7231 154.297 94.711 154.625 94.8418C143.034 96.0257 162.395 94.6814 154.138 94.542C160.879 94.2019 156.312 94.1887 157.326 93.9531C158.411 93.7046 162.198 93.474 161.989 93.2569C161.987 93.2571 161.984 93.2576 161.982 93.2578ZM151.202 94.3789C150.483 94.6244 149.736 94.8814 148.971 95.1446C149.714 95.06 150.485 94.9729 151.213 94.9014C151.466 94.7622 151.714 94.6265 151.966 94.541C152.064 94.5076 152.158 94.478 152.249 94.4512C151.861 94.4408 151.499 94.416 151.202 94.3789ZM172.698 94.3721C170.998 94.2139 169.657 95.0711 172.144 94.6631C172.266 94.6426 172.77 94.3804 172.698 94.3721ZM162.204 94.0215C161.948 94.0342 156.975 94.6334 157.295 94.71C157.968 94.7003 165.106 93.8657 162.204 94.0215ZM176.107 93.6104C170.343 94.2441 172.485 93.7334 171.437 93.7158C169.241 93.6872 170.099 94.4143 170.383 94.4151C171.5 94.419 175.314 93.7416 176.107 93.6104ZM182.953 92.4912C179.716 92.5269 174.516 92.7516 171.359 92.9717C170.481 93.029 169.596 93.2201 168.851 93.2774C167.626 93.3727 168.692 93.1128 168.607 93.1153C168.605 93.1154 168.603 93.1151 168.601 93.1153C166.977 93.1769 164.995 93.7327 168.396 93.4405C167.201 93.6096 166.001 93.7851 164.838 93.96C169.308 93.7042 168.913 93.2617 170.209 93.1612C171.998 93.0286 171.918 93.4266 171.565 93.583C173.004 93.1979 179.274 92.6642 182.953 92.4912ZM154.903 93.6231C154.731 93.6679 154.678 93.6974 154.834 93.7051C154.875 93.675 154.895 93.6486 154.903 93.6231ZM157.295 92.8281C156.718 92.8642 156.101 92.9011 155.411 92.9571C154.807 93.1578 154.141 93.3841 153.426 93.626C153.977 93.5374 154.485 93.4532 154.925 93.3809C154.97 93.3394 155.058 93.293 155.221 93.2373C155.363 93.1896 156.38 93.0657 157.295 92.8281ZM153.515 93.2246C153.281 93.3346 153.111 93.4266 153.048 93.4873C153.09 93.4846 153.131 93.4828 153.17 93.4805C153.37 93.4183 153.633 93.3308 153.93 93.2276C153.667 93.2476 153.561 93.2418 153.515 93.2246ZM167.535 92.7119C167.103 92.7166 162.942 93.0758 162.647 93.2617C164.617 93.2671 168.574 92.6849 167.535 92.7119ZM154.396 93.0655C154.302 93.0859 154.249 93.108 154.219 93.128C154.277 93.1073 154.336 93.0869 154.396 93.0655ZM154.93 92.8701C156.521 92.2857 158.206 91.6015 156.927 91.9072C156.732 91.9562 155.255 92.4874 154.175 92.9356C154.429 92.9136 154.681 92.8915 154.93 92.8701ZM158.804 91.9082C158.804 91.857 157.699 92.2004 155.932 92.7842C156.676 92.721 157.375 92.6599 158 92.6074C158.474 92.4237 158.814 92.1952 158.804 91.9082ZM187.843 91.7071C184.09 91.2508 179.109 92.0111 178.581 92.0459C178.033 92.0662 178.868 91.8158 178.745 91.8174C178.456 91.8047 172.69 92.2189 172.429 92.2676C172.233 92.2957 173.303 92.5101 172.137 92.7022C174.379 92.2785 185.003 91.8158 185.567 91.8604C185.998 91.8383 182.735 91.5843 187.836 91.7071C187.838 91.7071 187.84 91.707 187.843 91.7071ZM184.588 92.1846C182.731 92.23 179.858 92.2974 178.884 92.5244C180.721 92.4051 183.59 92.3583 184.588 92.1846ZM177.213 92.0674C178.671 92.0911 174.618 92.3764 173.655 92.4131C171.47 92.4756 177.012 92.0527 177.213 92.0674ZM173.17 91.4326C174.655 91.3529 177.733 91.1418 177.077 91.3457C174.422 91.4116 168.734 92.0858 171.043 91.544C172.222 91.2736 173.016 91.4416 173.17 91.4326ZM167.299 89.1446C170.219 87.5982 157.201 92.1582 160.782 91.378C161.047 91.3242 167.011 89.2972 167.299 89.1446ZM180.96 90.7569C183.451 90.8142 172.322 91.3066 171.71 91.3692C172.406 91.1842 180.601 90.7043 180.96 90.7569ZM171.838 91.1826C171.387 91.1205 172.406 90.7799 173.383 90.8574C173.803 90.8903 173.051 91.0963 171.838 91.1826ZM174.121 90.7891C175.135 90.5357 183.216 90.3946 181.089 90.5918C180.719 90.5813 172.59 91.0946 174.121 90.7891ZM104.489 86.8985C104.669 86.5597 101.322 88.1284 101.246 88.1983C100.736 88.6355 103.685 87.3591 104.489 86.8985ZM103.241 86.5742C103.418 86.3283 100.056 87.754 99.9774 88.0733C100.739 87.7014 103.075 86.768 103.241 86.5742ZM173.218 86.0928C174.591 85.3019 169.838 86.8034 171.267 86.6992C171.34 86.6903 173.132 86.1415 173.218 86.0928ZM24.5408 84.7422C24.2544 84.8287 24.0517 84.8813 23.8885 84.9209C24.1551 84.8475 24.4234 84.7702 24.6893 84.6934C24.6398 84.7089 24.5939 84.7259 24.5408 84.7422ZM27.7166 83.8731C26.8097 84.3923 26.1719 84.6889 25.7225 84.8711C25.8496 84.6855 25.8986 84.5183 24.3992 84.9072C24.5636 84.86 24.7625 84.8002 25.0115 84.7158C25.308 84.608 25.6657 84.4891 26.2078 84.2383C27.0029 83.9948 27.6674 83.7886 28.0262 83.6797C27.9182 83.7485 27.8157 83.8136 27.7166 83.8731ZM27.2469 83.708C26.8367 83.9353 26.4959 84.105 26.2078 84.2383C25.736 84.3828 25.2181 84.5405 24.6893 84.6934C24.7878 84.6624 24.8992 84.6297 25.0936 84.5615C25.4263 84.442 25.8419 84.2874 26.4598 83.9883C26.6293 83.9054 26.8141 83.8102 27.0203 83.6973C27.182 83.65 27.3422 83.6038 27.4998 83.5576C27.4116 83.6101 27.3285 83.6618 27.2469 83.708ZM24.7039 84.378C24.2825 84.5142 24.0201 84.5803 23.8162 84.6299C24.1558 84.5328 24.5058 84.428 24.8612 84.3252C24.8061 84.344 24.7538 84.3617 24.7039 84.378ZM24.0682 84.378C23.9539 84.4092 23.8578 84.4343 23.7733 84.4551C23.8729 84.4298 23.9713 84.403 24.0682 84.378ZM24.8748 84.3203C24.955 84.2929 25.0668 84.2547 25.1766 84.2139C25.4044 84.129 25.6727 84.0223 26.0106 83.8692C26.0918 83.8321 26.1756 83.7892 26.2654 83.7461C26.6785 83.6027 26.9189 83.487 26.9178 83.4131C26.9673 83.3857 27.0172 83.3558 27.0692 83.3262C27.2926 83.2992 27.5549 83.2571 27.8494 83.2002C27.7036 83.2895 27.6109 83.3447 27.5799 83.374C27.3772 83.4978 27.1914 83.6036 27.0203 83.6973C26.3204 83.9022 25.588 84.114 24.8748 84.3203ZM28.9578 83.0352C28.8826 83.092 28.8079 83.1453 28.7362 83.1973C28.3505 83.3101 27.9337 83.4305 27.4998 83.5576C27.5733 83.5139 27.6509 83.4707 27.7293 83.4219C27.8156 83.3682 27.905 83.3109 27.9979 83.25C28.0539 83.2131 28.0587 83.2094 28.1678 83.1358C28.4542 83.0759 28.7654 83.0059 29.0965 82.9268C29.0494 82.9637 29.0033 83 28.9578 83.0352ZM25.1014 83.0127C25.1612 83.0198 25.172 83.0358 25.1199 83.0635C24.8714 83.1949 24.2357 83.3737 23.5457 83.5264C23.6839 83.4917 23.8563 83.4459 24.0985 83.3721C24.2233 83.3337 24.3481 83.2944 24.5369 83.2285C24.6967 83.1721 24.8783 83.104 25.1014 83.0127ZM22.5828 60.3496C21.8463 60.5881 20.7903 60.9148 19.3475 61.3418C20.0131 61.0392 20.6812 60.7327 21.3514 60.4238C20.1909 60.6495 18.8993 60.9575 18.0604 61.21C17.9102 61.2479 17.7415 61.2929 17.5379 61.3535C17.436 61.3839 17.3247 61.4181 17.201 61.459C17.1375 61.48 17.0795 61.4995 16.9998 61.5274C16.8874 61.5666 16.7641 61.6117 16.6268 61.6651C16.3514 61.7728 16.0218 61.9092 15.5789 62.1348C15.3568 62.2486 15.1049 62.3857 14.8113 62.5664C14.738 62.6116 14.6617 62.6596 14.5828 62.711C14.5433 62.7367 14.5027 62.7636 14.4617 62.791C14.4092 62.826 14.285 62.9116 14.1903 62.9795C13.7856 63.27 13.3082 63.6432 12.7498 64.208C11.709 65.2838 9.91107 67.4622 9.63849 71.1631C9.46482 75.1778 11.0569 77.4868 12.201 78.8946C14.7016 81.6143 16.1569 81.7769 16.9139 82.1348C18.4755 82.6514 19.0491 82.6346 19.2733 82.6787C19.5669 82.7127 19.8023 82.7291 19.9588 82.7373C20.5041 82.7618 20.7241 82.7465 20.9324 82.7354C21.2991 82.7088 21.4512 82.6673 21.4715 82.6231C21.5415 82.6572 21.6788 82.6938 21.9256 82.7256C22.2094 82.7624 24.1146 82.598 25.2518 82.5547C25.5943 82.4002 26.0149 82.207 26.6092 81.8428C23.8499 82.1775 21.7477 82.4694 21.4324 82.5889C21.3681 82.5551 21.245 82.5184 20.9588 82.4737C20.7819 82.4499 20.6624 82.4283 20.2635 82.3867C20.1706 82.3763 20.0681 82.3652 19.949 82.3506C19.7833 82.3324 19.5917 82.3104 19.3328 82.2725C19.1311 82.231 18.6517 82.2105 17.4695 81.8574C17.3928 81.8335 17.3118 81.8072 17.2264 81.7783C17.1837 81.7639 17.1397 81.7493 17.0945 81.7334C17.0526 81.7185 17.0013 81.7006 16.8797 81.6553C16.4515 81.4925 15.9216 81.2759 15.199 80.8516C14.0249 79.8618 10.4869 78.7466 10.0692 71.5586C10.7758 64.6062 14.6216 63.4973 14.908 63.042C15.4625 62.6926 15.8706 62.4956 16.2059 62.3428C16.5865 62.1718 16.878 62.0645 17.1248 61.9795C17.3089 61.9173 17.4203 61.8834 17.5487 61.8457C17.7947 61.7743 17.9975 61.7246 18.1776 61.6836C19.0876 61.6053 21.5414 60.998 23.3211 60.5029C23.2723 60.4912 23.2259 60.4782 23.1805 60.4678C22.9407 60.414 22.7424 60.3769 22.5828 60.3496ZM21.4324 82.5889C21.455 82.6018 21.4746 82.611 21.4715 82.6231C21.4462 82.6114 21.4345 82.6005 21.4324 82.5889ZM34.0047 81.0117C33.785 81.0585 33.5379 81.1133 33.2586 81.1709C33.8616 81.1402 34.5721 81.0305 35.2342 80.8858C34.8309 80.9267 34.4201 80.9684 34.0047 81.0117ZM195.447 76.961C195.364 77.1142 194.64 77.7509 193.935 78.249C193.611 78.4822 193.251 78.7214 192.874 78.9551C192.544 79.1596 192.218 79.3489 191.874 79.5401C190.595 80.2475 189.417 80.7712 188.85 81.0674C189.067 80.607 191.721 79.9685 195.447 76.961ZM49.7811 79.8155C49.9462 79.7886 50.1658 79.7653 50.4578 79.752C50.2286 79.7727 50.0025 79.7947 49.7811 79.8155ZM88.4295 79.5156C87.7025 79.7026 83.6155 79.8186 82.8924 79.6016C84.5848 79.4673 86.6444 79.5567 88.4295 79.5156ZM92.7362 79.1387C92.5235 79.3335 89.0085 79.4144 88.5594 79.2305C89.5846 79.0955 91.4592 79.1814 92.7362 79.1387ZM123.972 78.2471C122.815 78.5765 121.307 79.5551 123.006 78.9737C124.501 78.4637 124.071 78.2199 123.972 78.2471ZM185.098 74.3516C185.293 74.389 185.469 74.4202 185.626 74.4502C185.472 74.3837 185.277 74.3448 185.098 74.3516ZM182.271 72.9336C182.666 73.1421 183.038 73.3079 183.386 73.4405C183.6 73.4966 183.821 73.559 184.051 73.6299C184.81 73.3357 183.666 73.085 182.271 72.9336ZM181.183 72.8291C181.343 72.9289 181.5 73.0225 181.654 73.1094C181.765 73.1219 181.878 73.1364 181.995 73.1533C181.827 73.0626 181.654 72.9647 181.478 72.8565C181.378 72.8475 181.279 72.8377 181.183 72.8291ZM180.553 72.4092C180.586 72.4326 180.618 72.4557 180.651 72.4785C180.718 72.4699 180.79 72.4604 180.867 72.4512C180.851 72.4398 180.835 72.4276 180.819 72.416C180.736 72.4137 180.647 72.4113 180.553 72.4092ZM21.4764 60.2305C21.3663 60.2455 21.2432 60.251 21.1737 60.2442C21.1437 60.2407 21.0835 60.2264 21.3445 60.2256C21.3908 60.2266 21.4224 60.2286 21.4764 60.2305ZM24.4197 58.7891C24.5714 58.8343 24.737 58.8856 24.9188 58.9473C25.0434 59.0005 25.2564 59.0686 25.5516 59.1797C25.7039 59.1468 25.9171 59.1013 26.1785 59.0469C25.974 58.9567 25.7858 58.8769 25.6102 58.8086C25.4872 58.7608 25.3705 58.7174 25.2596 58.6778C25.207 58.659 25.1764 58.6488 25.1473 58.6387C24.8603 58.6992 24.609 58.7504 24.4197 58.7891ZM23.0545 58.5811C23.2484 58.6179 23.4714 58.6659 23.7469 58.7334C23.3729 58.7588 22.9826 58.7823 22.6053 58.8028C22.3431 58.7602 22.2321 58.753 22.0848 58.7324C21.6312 58.6827 21.5286 58.6816 21.4031 58.6719C21.2837 58.6643 21.2431 58.6614 21.2059 58.6582C21.0815 58.6474 21.1807 58.639 21.2684 58.627C21.4588 58.6038 21.7441 58.574 21.9578 58.5459C22.1329 58.5238 22.2849 58.5 22.4031 58.4815C22.5799 58.5074 22.7941 58.5386 23.0545 58.5811ZM21.5145 57.9453C21.633 57.945 21.839 57.9445 22.3006 57.9922C22.2779 57.9963 22.2547 58.0018 22.2313 58.0059C22.2912 58.0054 22.351 58.0035 22.41 58.0029C22.4215 58.0042 22.4334 58.0055 22.4451 58.0069C22.5155 58.0151 22.5913 58.0248 22.6737 58.0362C22.8058 58.055 22.9554 58.0783 23.1287 58.1094C23.4775 58.1734 23.9133 58.2595 24.5613 58.4502C24.6518 58.4771 24.7457 58.509 24.8455 58.541C24.7111 58.5907 24.5919 58.6372 24.492 58.6787C24.3721 58.6881 24.2491 58.697 24.1238 58.7061C24.0328 58.6813 23.9475 58.6574 23.866 58.6367C23.3002 58.4957 22.9362 58.4353 22.6473 58.3897C22.2729 58.3324 22.0607 58.3107 21.8807 58.293C21.5318 58.2614 21.4782 58.261 21.366 58.2529C21.1996 58.2417 21.1779 58.2372 21.1561 58.2305C21.1295 58.218 21.1733 58.2029 21.1903 58.1865C21.2375 58.1537 21.232 58.1155 21.1942 58.0772C21.1729 58.0393 21.0674 57.9977 21.2459 57.9629C21.2883 57.9546 21.3687 57.9466 21.5145 57.9453ZM26.3406 58.376C25.9705 58.4608 25.6041 58.5426 25.2762 58.6123C25.8079 58.5621 26.2064 58.5133 26.3631 58.4697C26.4376 58.4492 26.4114 58.416 26.3406 58.376ZM21.6932 58.3496C22.1077 58.3444 22.4859 58.3582 22.6619 58.4199C22.6954 58.4308 22.593 58.4517 22.4031 58.4815C21.4954 58.3482 21.5688 58.403 21.3602 58.377C21.095 58.3645 21.137 58.3666 21.1727 58.3633C21.2662 58.3586 21.4988 58.3518 21.6932 58.3496ZM34.3748 56.9561C33.1235 57.1939 31.8854 57.4336 30.6629 57.6719C31.6204 57.4227 32.446 57.2048 33.1531 57.0166C32.5936 57.0482 32.0431 57.0862 31.6121 57.1377C30.5517 57.2625 29.6531 57.3891 28.7899 57.5078C28.8002 57.5113 28.8096 57.5146 28.8162 57.5196C28.9087 57.5957 28.7323 57.7009 28.4012 57.8213C29.5932 57.7569 30.9688 57.7112 32.2488 57.6621C33.1418 57.4243 33.9507 57.1792 34.5496 56.9483C34.4925 56.9506 34.4341 56.9536 34.3748 56.9561ZM40.6561 55.8828C40.0428 55.9268 39.4379 55.9771 38.9842 56.042C38.6839 56.0849 38.412 56.1259 38.1658 56.1651C36.4674 56.7391 35.0835 57.281 35.6024 57.3389C36.991 56.7171 38.7191 56.2893 40.6561 55.8828ZM35.6268 56.3369C37.7716 55.7209 36.6217 55.9053 34.6619 56.2559C34.5248 56.2889 34.3904 56.2996 34.2606 56.3301C33.8421 56.4092 33.4043 56.4947 32.9705 56.5801C33.8452 56.5027 34.7323 56.4228 35.6268 56.3369ZM177.789 54.627C177.787 54.623 177.727 54.6213 177.348 54.9024C177.368 54.8915 177.388 54.8827 177.406 54.8721C177.611 54.7557 177.773 54.6508 177.789 54.627ZM42.617 54.1719C43.7138 53.9389 44.8657 53.7491 43.8279 54.127C43.6944 54.1754 41.4677 54.6462 41.4305 54.6299C40.6869 54.6192 41.4817 54.4154 42.617 54.1719ZM66.1658 49.2637C65.1749 49.4322 61.9999 50.3501 63.4695 50.1494C64.0863 50.067 66.0237 49.4865 66.1658 49.2637ZM72.8504 47.3721C71.056 47.6951 67.904 48.7291 69.4686 48.542C69.823 48.4971 72.7947 47.5281 72.8504 47.3721ZM74.6678 47.877C80.4979 47.1145 77.0622 46.6041 76.1082 46.9795C75.9844 47.0297 74.5222 47.8963 74.6678 47.877ZM172.742 47.5401C172.867 47.1679 167.765 47.6151 169.788 47.8115C170.312 47.856 172.688 47.6585 172.742 47.5401ZM83.5926 45.4746C82.2231 45.807 79.5903 46.2356 79.9862 46.5313C79.9881 46.5307 79.99 46.5298 79.992 46.5293C81.2023 46.1749 82.3841 45.8288 83.5926 45.4746ZM178.974 45.2315C178.029 45.5141 174.497 45.4599 172.86 45.5244C173.908 45.1427 176.941 45.2268 178.974 45.2315ZM86.4158 44.6465C85.4843 44.8105 85.1585 44.6189 84.7576 44.791C84.621 44.8499 84.6663 45.1023 84.1981 45.2949C84.9317 45.0801 85.6692 44.865 86.4158 44.6465ZM14.3524 35.8926C10.5736 36.6432 14.1755 36.0777 13.4354 36.2705C12.8379 36.4242 10.6091 36.6743 11.9305 36.6328C11.0393 36.6786 8.81427 36.959 6.68732 37.2393C5.63685 37.378 4.6305 37.514 3.85138 37.6211C3.4588 37.6753 3.15014 37.7184 2.8631 37.7617C2.76925 37.7762 2.74389 37.7792 2.61506 37.8018C2.58727 37.8068 2.55804 37.812 2.52619 37.8184C2.49792 37.8245 2.45724 37.8311 2.32892 37.8643C2.26654 37.8812 2.19062 37.9016 2.06135 37.9492C1.99591 37.9738 1.91662 38.0056 1.80646 38.0596C1.78475 38.0705 1.80445 38.0598 1.73908 38.0938C1.65591 38.1379 1.55565 38.1944 1.42658 38.2862C1.19507 38.479 0.691085 38.7662 0.376775 39.8096C0.233755 40.3179 0.271605 40.9922 0.478338 41.4893C0.67963 41.9945 0.968941 42.3131 1.1922 42.5147C1.65172 42.9077 1.90989 42.9757 2.09064 43.0498C2.1799 43.0817 2.25448 43.1036 2.30939 43.1182C2.32125 43.1213 2.33355 43.1242 2.34455 43.127C2.36621 43.1324 2.38628 43.1373 2.4051 43.1416C2.44306 43.1503 2.47635 43.1566 2.50568 43.1621C2.5644 43.1732 2.61007 43.1803 2.64826 43.1856C2.72385 43.1958 2.77336 43.1998 2.81428 43.2031C3.16833 43.2233 3.11083 43.2131 3.16584 43.2168C3.16179 43.2168 3.15723 43.2168 3.15314 43.2168C3.21971 43.2198 3.22778 43.2432 3.17463 43.2754C3.1412 43.2913 3.12518 43.3107 3.01642 43.3281C2.98976 43.3324 2.95866 43.3358 2.91681 43.3389C2.87633 43.3391 2.80158 43.3542 2.48322 43.3047C2.43912 43.297 2.38752 43.2877 2.32306 43.2725C2.3069 43.2687 2.2893 43.2644 2.27131 43.2598C2.18065 43.2354 2.06631 43.202 1.89924 43.1328C1.73165 43.0593 1.50549 42.9641 1.17365 42.6944C0.860542 42.4345 0.347661 41.8926 0.184392 40.9903C0.0114184 40.0853 0.374937 39.2203 0.677557 38.8252C0.989432 38.4025 1.23906 38.2361 1.41584 38.1123C1.57058 38.0087 1.70649 37.9422 1.72345 37.9336C1.74486 37.9227 1.76569 37.9126 1.78498 37.9033C1.8621 37.8664 1.92351 37.8395 1.97638 37.8184C2.18321 37.7377 2.27374 37.7163 2.35236 37.6934C2.5197 37.6495 2.49103 37.6528 2.5506 37.6358C3.04131 37.4699 3.41894 37.3519 4.13068 37.2735C8.46998 36.8141 5.36043 37.461 14.3524 35.8926ZM86.3797 42.7901C87.2752 42.6007 89.7926 41.8198 89.6893 42.0576C88.2848 42.4743 86.9352 42.9471 86.3797 42.7901ZM96.3221 40.5938C97.4607 39.9448 105.291 38.1187 104.279 38.6807C103.485 39.1272 97.654 40.4814 96.3221 40.5938ZM44.4832 40.2549C44.7085 40.1488 42.3496 40.3615 41.7986 40.4571C40.9718 40.6063 44.1091 40.4311 44.4832 40.2549ZM56.4344 39.3096C55.1595 39.3085 49.4177 40.2392 50.8641 40.1651C51.0632 40.1599 55.6248 39.4248 56.4344 39.3096ZM74.2479 37.7168C73.1989 38.0794 70.4683 38.3657 68.869 38.667C66.6645 39.0888 63.0129 40.3509 64.5154 39.4043C67.7671 38.8587 71.0004 38.2958 74.2479 37.7168ZM70.4529 38.8809C69.498 39.2491 65.2168 39.7322 67.0272 39.3848C67.5222 39.2901 69.588 39.0235 70.4529 38.8809ZM21.8836 37.8936C23.4535 37.8733 15.0438 39.0964 13.5311 39.1162C15.2107 38.8301 18.8759 38.4582 20.4129 38.2149C20.5846 38.187 19.5867 37.9279 21.8836 37.8936ZM64.5985 38.2451C64.3926 38.2642 59.915 38.9715 60.4119 38.9688C61.3987 38.9642 65.2616 38.2003 64.5985 38.2451ZM26.9217 38.5528C27.8854 38.1763 25.9166 38.5083 25.3211 38.5303C24.765 38.5522 24.326 38.4562 23.117 38.6836C24.3676 38.6407 25.6471 38.5955 26.9217 38.5528ZM8.93146 38.0235C10.8963 37.8737 6.02108 38.6109 5.47345 38.5293C5.39692 38.5112 8.56016 38.0525 8.93146 38.0235ZM8.55646 37.7569C10.0452 37.629 6.75097 38.1133 5.7547 38.2051C5.65194 38.1523 8.31458 37.7789 8.55646 37.7569ZM114.231 37.0069C114.268 36.7982 110.333 37.7368 110.187 37.8037C109.925 37.9141 109.76 37.9932 109.678 38.0449C109.585 38.1042 109.601 38.1274 109.699 38.1231C110.234 38.092 113.039 37.3142 114.231 37.0069ZM72.0389 37.2285C70.5713 37.4548 67.6341 37.8612 68.5613 37.8799C68.6816 37.8759 72.0467 37.3229 72.0389 37.2285ZM72.8006 36.9903C72.0514 36.9039 69.6523 37.4238 68.0594 37.6651C68.656 37.7561 71.2523 37.197 72.8006 36.9903ZM70.9422 36.9854C70.3725 36.8925 67.7273 37.4627 66.202 37.6582C66.6593 37.7314 69.7347 37.2016 70.9422 36.9854ZM18.4803 36.7979C18.5709 36.8572 15.912 37.2313 15.6668 37.2529C14.1758 37.3789 17.4507 36.8935 18.4803 36.7979ZM80.4998 36.5606C81.6443 36.474 78.332 37.1456 77.0262 37.2256C76.9927 37.1267 80.3091 36.5772 80.4998 36.5606ZM115.738 36.0303C115.141 36.1041 111.062 37.1238 112.269 37.0742C113.48 37.015 116.59 35.9179 115.738 36.0303ZM120.305 35.6729C119.253 35.7923 113.964 37.0669 116.234 36.7305C116.444 36.6933 120.38 35.8249 120.305 35.6729ZM15.1512 35.6446C14.5288 35.8359 7.46672 36.8767 7.62482 36.7344C7.76238 36.6119 14.0451 35.8026 15.1512 35.6446ZM122.472 34.459C121.733 34.4894 119.823 35.2623 121.059 35.1904C121.768 35.0565 122.56 34.4556 122.472 34.459ZM100.835 33.3985C102.547 33.2921 96.9019 34.2113 98.8065 33.7295C98.8974 33.708 100.763 33.4035 100.835 33.3985ZM130.221 32.791C130.149 32.7889 127.978 33.212 127.669 33.4785C128.602 33.5011 131.006 32.8412 130.221 32.791ZM32.3709 32.2129C32.4209 32.2761 29.0673 32.7912 28.8865 32.8096C27.1236 32.983 31.1504 32.3511 32.3709 32.2129ZM202.968 31.3623C202.961 31.2052 199.335 32.2559 199.069 32.6162C199.767 32.3782 202.927 31.4712 202.968 31.3623ZM135.26 31.7393C136.93 31.1108 132.631 32.1115 132.11 32.4981C132.896 32.3036 134.674 31.9627 135.26 31.7393ZM41.8787 29.876C37.5799 30.7779 41.5144 30.0585 41.6512 30.1553C41.9718 30.373 40.1501 30.575 38.1951 30.75C36.4582 30.9105 34.6762 31.0651 33.66 31.2637C33.3479 31.3243 35.6566 31.1284 34.866 31.291C32.3424 31.8054 24.4188 32.2921 32.8406 31.1279C32.8387 31.1282 32.8367 31.1286 32.8348 31.1289C35.0298 30.8255 33.6892 31.1496 33.7899 31.1377C38.4922 30.5979 37.2285 30.5182 37.9656 30.3731C38.027 30.361 38.086 30.35 38.1424 30.3399C39.4696 30.0932 39.3834 30.4181 41.8787 29.876ZM151.169 27.5322C149.948 27.6554 149.122 27.7954 148.565 27.9317C147.228 28.2533 147.505 28.5611 147.268 28.6397C146.549 28.8759 144.799 29.1882 143.477 29.669C144.967 29.0607 146.497 28.4259 147.98 27.7979C146.732 28.2079 136.102 31.2405 135.931 31.3985C135.681 31.7182 138.971 30.646 139.073 30.6289C139.225 30.6122 139.936 31.0567 140.25 30.9824C140.641 30.8973 145.53 29.3273 148.693 28.2881C149.856 27.9094 150.773 27.6254 151.169 27.5322ZM131.709 31.291C130.07 31.4611 135.323 30.0505 133.596 30.7842C133.529 30.8147 131.778 31.2852 131.709 31.291ZM117.176 30.6016C117.176 30.7385 114.697 31.0458 113.766 31.2207C113.982 31.0354 116.221 30.7265 117.176 30.6016ZM31.6522 29.8897C33.3534 29.763 27.7097 30.6294 29.619 30.2031C29.6893 30.1869 31.5674 29.8972 31.6522 29.8897ZM41.5047 29.5664C41.7126 29.5491 38.9698 30.323 38.1287 30.2295C38.1129 30.2282 38.0975 30.2265 38.0828 30.2246C37.9602 30.2089 37.9875 30.1778 38.117 30.1377C38.6345 29.9709 41.0827 29.6115 41.5047 29.5664ZM122.7 29.5029C122.902 29.4927 124.44 29.7843 121.489 30.1123C119.318 30.3544 120.887 29.6052 122.7 29.5029ZM211.477 28.6367C214.385 27.5245 205.404 30.2328 208.22 29.6201C208.366 29.5866 211.343 28.6881 211.477 28.6367ZM158.916 24.5254C158.375 24.5893 157.824 24.655 157.283 24.7197C156.108 25.1564 154.037 25.8 153.915 25.8223C153.356 25.8845 154.602 25.3414 155.88 24.8916C154.407 25.0715 153.17 25.2279 152.671 25.3125C151.785 25.456 152.665 25.5472 151.869 25.6494C151.126 25.7449 151.86 25.4335 151.638 25.4561C151.426 25.4743 151.048 25.5224 150.542 25.5947C149.639 25.9526 148.405 26.4534 148.734 26.4356C148.798 26.4294 150.794 25.7415 151.084 25.75C151.443 25.7575 152.694 26.6014 153.122 26.4873C154.25 26.1811 153.442 26.1675 154.16 25.9434C155.049 25.6636 157.235 25.0629 158.916 24.5254ZM141.457 26.3789C141.599 26.386 141.693 26.4165 141.718 26.4873C141.343 26.4635 141.303 26.4266 141.457 26.3789ZM149.095 25.3574C151.656 24.7492 146.369 25.5373 146.421 25.6983C146.455 25.7541 148.99 25.3808 149.095 25.3574ZM219.786 24.0684C219.883 24.0794 219.921 24.0824 219.975 24.0869C220.171 24.1021 220.241 24.0988 220.246 24.0957C220.042 24.0822 219.849 24.0654 219.666 24.0508C219.709 24.0565 219.749 24.0641 219.786 24.0684ZM217.794 23.2412C218.038 23.3342 218.196 23.3876 218.365 23.4424C218.465 23.4744 218.557 23.5003 218.642 23.5254C218.956 23.5308 219.251 23.538 219.502 23.5518C219.76 23.5689 220.014 23.5816 220.263 23.5889C220.264 23.5881 220.19 23.5859 220.052 23.5742C219.956 23.5655 219.609 23.5395 219.057 23.4209C218.931 23.3934 218.793 23.359 218.643 23.3194C218.289 23.2854 217.99 23.2484 217.722 23.2129C217.747 23.2222 217.77 23.2324 217.794 23.2412ZM216.492 23.0508C216.899 23.2523 217.25 23.3863 217.546 23.5039C217.8 23.511 218.061 23.5156 218.316 23.5196C218.271 23.5057 218.222 23.4924 218.173 23.4766C218.034 23.4315 217.955 23.4069 217.715 23.3184C217.591 23.2722 217.459 23.2193 217.315 23.1592C217.124 23.1326 216.945 23.1076 216.768 23.0869C216.673 23.0741 216.58 23.0624 216.492 23.0508ZM215.887 21.8926C216.474 22.282 216.969 22.5121 217.38 22.6856C217.84 22.7923 218.378 22.9056 219.14 23.002C219.028 22.9767 218.903 22.9453 218.764 22.9082C218.624 22.8809 218.529 22.8528 218.465 22.8242C218.368 22.7957 218.265 22.7667 218.157 22.7324C217.892 22.6318 217.321 22.4549 216.548 22.0147C216.281 21.9632 216.071 21.9231 215.887 21.8926ZM219.832 22.459C219.999 22.4817 220.062 22.4859 220.116 22.4903C220.17 22.4943 220.211 22.4963 220.24 22.4971C220.297 22.4985 220.311 22.4962 220.297 22.4932C220.097 22.4777 219.908 22.4575 219.726 22.4414C219.764 22.4472 219.799 22.4544 219.832 22.459ZM215.185 21.8106C215.458 22.0152 215.715 22.1889 215.946 22.3321C216.126 22.3805 216.322 22.4318 216.536 22.4854C216.21 22.3113 215.855 22.0988 215.49 21.8428C215.379 21.83 215.277 21.8195 215.185 21.8106ZM214.569 21.7803C214.664 21.8596 214.759 21.9341 214.85 22.0059C214.899 22.0227 214.951 22.0413 215.007 22.0596C215.171 22.1117 215.361 22.1677 215.581 22.2305C215.383 22.1025 215.174 21.959 214.957 21.792C214.776 21.7785 214.649 21.7742 214.569 21.7803ZM216.904 19.9746C216.249 19.9075 215.935 19.9107 216.23 20.0362C216.532 20.1188 217.804 20.4174 220.36 20.5235C220.401 20.5214 220.408 20.5195 220.373 20.5137C220.324 20.5051 220.31 20.5078 220.025 20.46C219.892 20.4359 219.715 20.4013 219.468 20.334C219.362 20.3051 219.245 20.2675 219.111 20.2227C218.045 20.1322 217.42 20.017 216.904 19.9746ZM211.955 8.5508C211.836 8.59066 211.717 8.63563 211.606 8.68557C211.547 8.81568 211.488 8.95029 211.43 9.08986C211.534 9.07402 211.633 9.05559 211.728 9.03811C211.803 8.8682 211.878 8.706 211.955 8.5508ZM212.138 8.49318C212.055 8.64714 211.972 8.82 211.888 9.00881C211.934 8.9994 211.979 8.98924 212.023 8.97951C212.114 8.7928 212.201 8.61824 212.287 8.4551C212.239 8.46721 212.189 8.47901 212.138 8.49318ZM212.795 8.35451C212.711 8.36549 212.618 8.38052 212.513 8.40236C212.423 8.56721 212.336 8.74297 212.249 8.92775C212.352 8.90169 212.446 8.87374 212.534 8.8467C212.619 8.67301 212.706 8.5092 212.795 8.35451ZM213.271 7.46682C212.86 7.62978 212.916 7.69484 213.22 7.68459C213.282 7.59578 213.344 7.51103 213.406 7.42971C213.341 7.4481 213.294 7.45896 213.271 7.46682ZM216.349 6.83107C216.745 6.60415 215.534 6.88135 214.513 7.13869C214.393 7.26255 214.265 7.40325 214.132 7.56252C214.887 7.41656 215.827 7.15285 216.349 6.83107ZM217.828 6.89846C217.73 6.85391 218.244 6.59489 217.398 6.91994C217.561 6.97658 216.589 7.58578 216.797 7.55178C216.86 7.54395 217.029 7.5006 217.235 7.44045C217.361 7.35407 217.458 7.29168 217.539 7.24318C217.749 7.11878 217.829 7.08394 217.867 7.06447C217.954 7.02216 217.971 7.01596 217.978 7.00979C218.019 6.97374 217.901 6.94036 217.828 6.89846ZM217.652 6.17775C217.634 6.1358 217.54 6.13032 217.387 6.16506C217.246 6.19522 217.102 6.24661 216.955 6.33693C216.715 6.47994 217.018 6.47365 217.329 6.43459C217.358 6.43199 217.39 6.42514 217.424 6.41994C217.605 6.28128 217.65 6.22204 217.652 6.17775ZM216.089 4.0967C216.031 4.07312 215.927 4.06594 215.68 4.10939C215.516 4.20821 215.317 4.33422 215.085 4.49807C214.882 4.64282 214.645 4.81991 214.363 5.06057C214.367 5.06137 214.371 5.05892 214.372 5.06057C214.404 5.07483 214.355 5.10978 214.25 5.16018C214.192 5.21084 214.132 5.26317 214.07 5.31936C213.883 5.51761 213.516 5.8317 213.08 6.34084C213.229 6.30921 213.376 6.27909 213.52 6.25002C213.791 5.95622 214.023 5.73452 214.192 5.56643C214.508 5.27703 214.78 5.06248 215.014 4.88967C214.98 4.89819 214.952 4.90449 214.932 4.9092C214.96 4.90147 214.991 4.89245 215.024 4.88283C215.071 4.84813 215.117 4.81374 215.161 4.78225C215.586 4.48329 215.898 4.30805 216.108 4.19826C216.125 4.16217 216.137 4.12046 216.089 4.0967ZM214.513 5.53811C214.486 5.55204 214.43 5.58565 214.188 5.80373C214.078 5.91357 213.946 6.03708 213.791 6.19533C213.824 6.18878 213.856 6.18223 213.888 6.1758C214.052 6.01646 214.182 5.90056 214.28 5.78029C214.464 5.59783 214.528 5.53591 214.513 5.53811ZM216.818 4.44729C216.683 4.48008 216.562 4.50667 216.391 4.54982C216.355 4.55878 216.319 4.56824 216.283 4.57717C216.171 4.63959 216.026 4.72359 215.858 4.8301C215.681 4.94279 215.468 5.08462 215.204 5.28615C215.072 5.38722 214.925 5.50408 214.764 5.6426C214.618 5.77435 214.551 5.81807 214.273 6.0967C214.425 6.06547 214.565 6.03562 214.688 6.00686C214.715 5.9824 214.738 5.95805 214.773 5.9258C214.863 5.84452 214.949 5.77034 215.03 5.70217C215.192 5.56578 215.337 5.45205 215.468 5.35451C215.988 4.96996 216.292 4.80323 216.503 4.68264C216.635 4.60716 216.723 4.55918 216.788 4.52346C217.037 4.39033 216.919 4.42961 216.818 4.44729ZM216.836 4.3008C216.837 4.30038 216.838 4.29926 216.839 4.29885C216.866 4.2903 216.894 4.27538 216.836 4.3008ZM159.366 3.98732C160.52 3.54046 165.798 3.00017 164.881 3.24904C164.657 3.29381 158.96 4.17991 159.366 3.98732ZM171.746 2.63186C171.339 2.63227 168.437 2.97226 167.578 3.09963C166.693 3.48102 173.585 2.60402 171.746 2.63186ZM199.137 0.629903C200.104 0.541098 196.215 0.379861 196.238 0.607442C196.237 0.67107 199.029 0.634769 199.137 0.629903Z" fill="#FCB414"/>
</svg>
