<svg xmlns="http://www.w3.org/2000/svg" fill="none" viewBox="0 0 20400 7900"><path d="M18860 88c230-2 243 16 290 28 24 6 57 10 140 14 40 1 95 2 180 6l80 6c36 5 67 5 160 28a900 900 0 01 70 20l13 6 22 8a820 820 0 01 180 100 796 796 0 01 265 336 800 800 0 01 57 374c-36 270-117 348-174 429-65 78-96 100-126 126a900 900 0 01-75 53c-70 44-100 57-130 71l-62 28c18-6 40-14 67-26 31-13 66-27 140-72a840 840 0 00 130-105 806 806 0 00 177-895 807 807 0 00-293-351 860 860 0 00-187-98 1000 1000 0 00-40-14 1400 1400 0 00-100-25 1600 1600 0 00-55-10l-64-10c-63-10-70-15-58-17h48c25 1 57 2 124 12l63 13c36 8 65 14 135 41 42 17 94 40 163 86 83 66 274 167 358 551a858 858 0 01-63 488 830 830 0 01-137 208c-46 51-68 70-93 90a900 900 0 01-106 78 1000 1000 0 01-82 46l-64 30-73 30a14400 14400 0 01-400 156c-78 32-690 236-953 320-90 30-223 95-342 132-83 26-149 33-270 72a75400 75400 0 01-867 276l-150 43c1006-26 810 10-95 28l-30 10c261-10 490-12 593-8 350 13 530 101 535 15 106 90 218 41 280 50 115 15 216 25 397 80 96 40 206 43 474 268a1150 1150 0 01 360 690c33 307-49 494-84 583-192 414-400 508-513 591a1810 1810 0 01-287 143 3600 3600 0 01-475 146c-114 28-208 20-245 32-20 6 26 26-80 54a9384 9384 0 01-1035 140c-62-6 343-60 266-74-290 43-570 92-859 133-120 17-62-10-114-2-20 3-438 82-417 86 41 8 1328-198 994-116-65 15-303 10-258 53-370 53-734 104-1102 158l-295 43c143 16 221 35-9 17a1300 1300 0 01-60-7l-64 8c70 5 170 15 285 30l3 16c-138-16-272-28-343-37l-66 10 51 8c17 2 182 16 362 37l2 19c-150-18-297-33-356-38 91 20 220 35 360 50h1l23-10v10h-4l5 2 1 7h2v-8c72 7 147 15 220 24 508 48 580 692 103 873l-210 74v-5h-2v5l-7 6h11v2-1l70-26 142-46c483-183 410-835-104-884a8300 8300 0 00-250-33l-5-20c86 10 176 22 255 35 534 50 610 729 108 920a3260 3260 0 01-220 60v3h-9l-3-1-10-1v-1h-4a5310 5310 0 01-240 78 900 900 0 01-60 13l52 5 12 2a4500 4500 0 00 168-43c62-18 42-23 50-25l20-5 2 20c-72 20-140 39-206 55 48-2 165 2 213 12l1 6c-66-4-194-8-210-10a300 300 0 01-19-3h-7c-178 46-322 80-379 93 107-41 205-63 326-91h-225c-284 76 96 0-84 54-116 36-730 150-706 175-208 47-90 6-116 10-25 5-433 98-568 118-15 3 32-22 15-20-33 5-426 86-443 90-10 2 88-4 50 6-43 13-427 83-446 89-28 10 440-80 366-52-218 37-570 110-707 146 30-10 240-48 312-60-30 25-477 105-328 63-92 25-28 18-80 34-6 3-99 20-126 27l-14 4a900 900 0 00-39 10 900 900 0 00 40-6l14-3c23-2 82-10 64-4l-60 17-15 4c-166 29-340 70-370 83-76 18 184-67 210-73 0-5-230 42-237 48-18-13 242-74 211-75-68 10-130 25-196 46 95-40 195-62 366-95l12-2c223-48 504-100 590-125-214 42-450 86-594 113l-10 3c-210 34-295 52-307 40-5-15 160-64 156-64-36-10-260 70-269 77l-10 4c-3-17 322-110 355-114 30-12-143 0-142-5 3-3 130-32 186-50l7-1c13-5 17-8-2-7l-7 2h-5c-110 10-320 65-327 70-34 3 201-68 323-93l6-2 26-7a100 100 0 00 10-4h-9l-28 6-6 2c-70 12-180 30-185 29-4-2 96-30 180-54h3a700 700 0 01 24-10l20-8c33-12-20-3-48 0l-4 2-20 3 20-5 5-2c73-20 394-90 412-95 30-10-68 4-55-2 20-7 150-33 132-32-10-2-436 65-504 76h-18l10-5h4c66-26 482-100 20-40l-30 10a4300 4300 0 01-95 25c-75 10 304-102-163 22 106-35 190-53 252-70 327-94 87-40-7-24h1c-30 3-46 3-20-10l17-5h-2c81-31 372-105 370-106-34-3-140 32-178 36-22 2 280-85 210-76-37 5-359 88-373 92l-42 10 3-2c-16 2-12-1-2-6h-3l33-15c10-4 15-7 7-6a400 400 0 00-44 10h5c-60 13-174 42-178 44-5 0 94-30 175-58l-5 2c60-22 114-40 135-47 40-15-120 23-90 13 97-30 250-66 314-82-26 0-55 5-87 7l-40 6c-23 4-160 42-163 43-55 8 25-16 102-40l-155 13-38 10 7-1c-80 23-186 47-320 100 126-50 244-78 322-104l-8 4 18-6c-68 6-132 9-182 15-78 30-298 107-307 120-60 20 170-93 270-117 25-4 54-15 87-20 50-13 83-23 110-32l-10 3c130-46 113-52 176-71 22-7 110-28 184-48-538 36-1078 75-1619 110 20 38 925-52 946-50 82 15-640 70-1149 103-220 13-399 20-456 20 145 0 287 0 432-2-244 62-789 37-1146 75-116 13 106 20 102 20-128 26-338 22-183-10-317 39-270 10-517 18-12-1 93 15-100 29-90 8-587 17-658 32-28 8 230 82 260 16 537 20 170-32 380-36 30-2-40 40 475 0-96 70-695 44-800 52-214 23 667 30 820-30-78 53 60 4 250-5 210-10 117 10 230 4 310-18 180-45 436-30-200-64 204-50 474-40l160 8-159 14q-404 35-810 66l56 13c-85 5-172 10-257 13l40-17c-440 58-554 26-590 27-475 15-994 43-1566 0-40-3-50 3-106 0-27 0-67-2-136-13a1600 1600 0 01-137-27c-66-21-130-31-290-108-43-22-94-48-167-96-70-53-165-102-320-304a1074 1074 0 01-196-700c16-142 34-166 42-191 10-21 18-50 58-140a1190 1190 0 01 292-394c-174 19-524 49-742 60l-17 9c-66 30-306 37-80 43-530 99-212 15-248 18-50 3-240 48-260 50-38 3 82-33-57-15-23 3-235 65 47 32-380 58-342 74-480 48-252 126-200-24-306-15h-8l30-17c38-22 85-51 147-104l-110 9-68 43c-80 45-120 60-150 70a4807 4807 0 00-143 18l5-1 15-4c3 0 22-4 54-14a900 900 0 00 140-55l50-25 20-10 28-18a6600 6600 0 00-123 10c-80 8-30 28-163 42a2600 2600 0 01-147 10l-24 2a1200 1200 0 01-80 0l-70-6a900 900 0 01-33-4l-20-4-10-2a900 900 0 01-73-18c-68-30-178-21-412-263a879 879 0 01-206-630 853 853 0 01 208-494c154-167 240-187 233-188l40-21c92-43 120-47 148-56a900 900 0 01 62-15l27-5a34300 34300 0 00 440-47c-50-15-80-20-107-27l-18-3h-4l-6-2a1100 1100 0 00-33-5 900 900 0 00-58-10c-55-3-66-2-72-2h-15l44-5 93-10h8l27 5 14 2c-6 0 38 7 86 20 24 7 53 15 90 29l113-13a700 700 0 01-47-24q-37-16-68-27l297-74c215 20-83 68 485-1 90-45-403 44-305 6 57-24 386-60 393-68 5-10-292 30-247 10 100-45 1192-116 365-18 200-20 320 20 480 5l83-13c90-25-593-51 480-136 26 30-438 50-450 55-13 4 44 48 74 66 193-30 400-64 460-77-194 39-300 64-338 77l304-33 80-13-26 7a42300 42300 0 01 340-36l202-31c-14-10-13-48-34-50-12-2-397 53-446 54l-34-1c60 10-287 40-280 24a2760 2760 0 01 255-26h10c-54-13 760-90 580-100 237-38-30 43 147 12 42-8 80-40 210-60a1540 1540 0 01 226-14c62 0 37 10 18 18a2350 2350 0 00 190-36c17-10-180 12-110-10 12-4 216-16 395-60 70-15 23-26 40-30 142-40 70 9 330-51 194-42 330-102 605-148-890 142-146 7 222-81 58-14 2-38 360-95-686 199 86 18 367-45 23-5 40-10 56-12 10 0 20 20 114 0 8-1-6-14 83-34 852-195 310-60 475-81 70-10 480-121 593-147 26-7 17 10 116-12 177-40 330-92 446-120 13-5 20 19 238-40 60-15 130-40 40-26-297 44-842 207-1177 257-305 46 642-165 692-177 18-4-164 49 24 9 166-34 450-141 690-187 20-4 218-13 210-10-7 4-300 79-254 79 5 0 190-43 218-41 32 2 133 70 174 64 103-20 32-23 98-37 143-30 640-120 650-154l-246 52c452-110 256-77 318-98 68-22 55 9 208-25 34-7 668-165 654-174-348 102-225 39-240 42-63 13-140 50-220 70-584 135-4-33-143-8-47 9-137 46-159 50-65 13-70-7-114 5-100 28 24 29 17 32-87 40-448 100-234 17-136 17-142 58-250 68-220 18 98-48 180-73 303-90 397-96 828-204 154-40 334-101 406-121 20-4 113-14 212-33h-4c-30-1-100-1-195 2l-20 4c-18 2-20 28-110 50-36 10-86 0-98 3-27 7-644 160-414 80 22-8 320-76 593-140-438 10-1296 39-1540 33 191 0 1131-50 1113-60a3130 3130 0 00-280-1c-80-10-347 35-493 30-16-1 48-25-213-23-89 0-326 23-560 10-343 16-2145 30-2268 54-4 2 250 3 80 16-228 17-26-27-290-25-40 0-776 20-800 24-223 30 420 20 414 27-23 7-558 22-580 20-20 0 415-37-110-15l180 7c-245 10-268-8-328-7-187 0-387 33-687 4-80-8 50-21 40-22-95-10-213 25-357 4-10-2 320-25-260-11l120 4c-80 7-667 23-748 24-230 0-30-20-260-12 150 20-556 39-518 19-97 26-698 20-977 26-180 3-543 20-598 20a240 240 0 01-38-3c-30-4-42-13-137-14-36 0-402 18-727 10-67-3-200-25-84-33 200-16 577-5 573-20-10-15-510 6-653 7-630 5-266-20-284-24-40-10-388-1-403-2-60-3 187-20 188-26 6-10-330-17-253-23 106-7 415-2 434-3 250-16-94-30-192-36-28-3 86-12 62-12-364-3-78 33-318 37-220 3 62-21 52-22-10 0-269 8-310 5-20-2 651-51 624-63l-647 30c-17-17 296-16 325-18 63-6-114-8-108-13 7-4 212-22 24-20-68-2-203 13-443 10 830-44 254-32 230-36-25-4 370-33-110-12-20-30 5-10 145-20 165-14-224-10 392-25-39-14-530 7-554 7-22 0 85-11 46-12-460-8-143-10-280-20-12-2-446 13-115-6 602-32 860-21 958-70-450 0-986 53-1126 60-207 12 4-7-20-10l-190 10c-130-25 796-41 1090-60l-235-2 318-16c-506 13-20-3 110-36 24-8-309 19 70-16-280 9-190-1-443 19 4-11 577-51 800-68-795 26-342 44-1027 57-128 20 200 0 174 4-98 13-322 12-590 53-45 7 142 10-134 25l-205-1c22-11 200-18 204-22 6-4-189 10-190 8-6-10 161-13 137-16-50-5-753 14 162-34-758 57-97 17 198-3 76-5 94-13 201-20 138-11 300-16 370-20 78-6-360 0 273-28-325 0-887 46-1205 54-637 17 444-55 555-61 30-3-70-6-50-8 37-3 643-31 707-43 61-10-226 13-244 5-16-5 730-54 325-37-276 13-784 63-870 44l1216-73-668 10c450-30 850-40 1280-76-1040 26 335-43 350-48 4-3-405-5-470-6 147-13 417-31 647-50 320-24 552-47 168-44 121 0 398-34 396-36-37-13-653 33-552 14 112-22 283-11 458-24 926-64 663-127 1590-173l-56-5c1003-60 2008-120 3012-177 391-52 1436-136 1950-165 103-6 611-22 650-21 70 0-319 26-142 26 37 0 896-46 835-60-97 3-397 29-447 29-348-8 2302-145 2434-164l-173-10 501-20-200 27c190-8 451-27 628-32 30 0-47 19 23 15 70-3 56-23 156-30 110-10 632-24 808-34l680-40c447-28 891-54 1340-67-700 47 7 32 201 18 46-3 31-48 744-57m-5483 7210c-205 60-1150 239-1200 250-37 9 252-26-197 48 333-30 770-154 820-164 48-8-25 22-14 20 26-5 543-110 567-118 18-5-80-7 24-37m-790 278c31-6 758-151 623-108-92 30-810 150-623 108m838-183c-64 22-797 166-828 168-223 30 770-157 828-168m-657 8c-165 33-420 78-507 107 160-32 420-77 500-107m171 64c236-40 751-165 544-94-104 35-180 34-193 36-134 25-409 82-350 58m1093-360c-407 82-368 110-485 134-164 33-158 2-128-14-128 48-693 168-1019 236 287-50 757-136 1041-193 82-16 158-41 227-56 110-24 16 10 24 9 146-26 325-95 16-27l321-88M13400 7400c42 0-50 38-138 45-37 3 28-22 138-45m-173-68c195-30-303 72-320 74-130 18 231-57 320-72m-5790 53c-80 0-333-16-358-10-24 12 342 30 356 10m-460-77c-28 18 350 30 354 27 64-12-249-24-355-27m3505-53c-60 14-187 32-270 46 20-20 72-37 270-44m-810 20c-40 17-490 30-510 20a7420 7420 0 01 503-26m-5-102c-100-2-418 38-486 60a851 851 0 00-112-8c-73 18-2720 50-940 62 54 0-20-16 202-20 15 0 22 14 68 13 104-1 660-20 770-37q0 4 22 6c137 9 552-77 475-80m3846-33c-104 15-445 115-515 135 518-123 328-57 423-70 203-26 120-70 94-65m-4332 95c11 3 5 6-14 9 0-3 4-6 13-10m1347-60c26 2 111 79-160 67-48-2 140-35-188-22 246-16 192-52 348-45m3700-55c-179 29-539 126-444 110 41-6 416-90 444-110m-3043 76c2 12-300 36-323 35-160 0 214-30 323-32m-1203-32c-10 0-300 10-260 25 60 23 342-20 260-25m1607 0c380-120 427-157-88-10l10-3c-29 10-68 20-109 30a9200 9200 0 01 187-17m1713 10c154-10 273-93 50-30-10 3-56 30-50 30m-1479-62c-76 18-136 32-198 50l138-12c22-7 40-13 48-17 73-35-282 70 12-20m2610-50c-86 23-155 42-144 48l187-48zm-227 0c-12 5-8 6 20 0zm840 3-10-67h2zm-440-103h-37c-99 27-229 60-306 83h44c70-18 204-55 300-83m120 83c22-16 533-174-47-20l-73 18 120 2m24-100c23 4 18 7-46 12-139 38 76 0 8 27-40 16-125 38-207 60h43c124-33 250-67 374-103-65 6-73 0-47-10l-62-3-64 17m-434 6c181-54-287 54-372 92 90-23 322-76 373-92m1130-1125c-66 29-230 50-380 70l-89 14a7500 7500 0 01 196 26c570 54 651 780 115 983-83 26-167 50-250 74l-2-20c75-21 15 6 76-11l172-55c523-198 444-906-113-958a6900 6900 0 00-260-32V5900l48 6c26-10 63-17 106-25 121-23 287-44 381-58m-410 1126 1 22-4-23zm-7760-99-47 10c-59 55-102 80-124 90l-8 6-4 3c14-5 43-12 85-22 20-16 44-36 73-62l22-25m7790 97zh-2v-4h1zm-29-2h1l-2-10zm-360-10h12c20-6 31-10 25-10l-38 10m350-74 3 24h1l-2-24zm26-5 3 23h2l-3-23zm-94-838 2 22c70 7 138 15 203 26 428 40 490 584 87 736-73 23-140 42-194 53l3 23a3500 3500 0 01 203-43c438-166 372-760-95-804a800 800 0 01-42-13h-170m62 817 2 15h1v-17zm25-8 2 15h1l-2-15zm113-737c-110-14-82-6 0 10 390 35 445 532 78 671l-186 54 2 15a4710 4710 0 00 187-60c376-143 320-653-82-690m-6774 600-84 10zm6247-588a960 960 0 00-169-5 3100 3100 0 01 152 12zm60-26c-157-28-199 13-29 15l27-10c1 0 2-3 0-4m260-60 3 20h2l-3-20zm-1156-10c-104-27-222 20-54 30 50 0 65-30 54-30m1132 23h3l-3-19zm-325-59a1000 1000 0 01-42 21c46 10 150 18 274 30l62-23a140 140 0 00-20-6c-40 15-78 26-90 25l73-28c-62-7-124 22-260-15m-173 4c-220-30-118 30 47 26 10 0-36-24-47-26m152-10c-44 8-55 14-42 20l16-7 34-10q-6 0-10-2m340 10 1 10h3v-10zm27-7h-3v-3h2zm-30-15 2 12-3-13zm-4-37 2 17-3-20zm-2-17-6-46zm-610-30 71 6c16 0 28-14 20-15a100 100 0 00-13-3zm130-20c22 4 37 5 40 7 20 4-5 7-14 12l134-20a2600 2600 0 00-87-10zm473 4a60 60 0 01-20 3l20-8zm140-95-494 74 100 8 143-22c50-8 165-24 253-40 82-15 143-30 123-40l-125 20m-11524 30a110 110 0 01-26 2l12-2 40-7-25 6m91-22v3c-10 4-37 10-63 13h-3l14-2 52-14m200-80c-120 61-158 67-190 80l-9 3c0-14-47-62 198-82m-210 20-30 10-38 10a400 400 0 01-22 2c-30 4-25 2-20 0 6 0 16-3 27-5l64-19zm-95 0-20 2 25-4h10zm160-19a230 230 0 01-65 20l34-10 24-10zm12720 12c-194 5 461-90 251-36a9700 9700 0 01-252 36m-690-75c-46 0-250 40-254 50-10 28 430-55 250-50m-8670-80c10 3 30 8 85 35-5-2 2-4 66 45h6l64 8c-49-50-77-64-94-76l-65-8a900 900 0 01-68-10h4m-22 55s12 5 30 8h2c-25-10-30-7-32-8M3900 5522c-465 60-359 60-50 40l21-16 30-24m148-18-103 12q-27 24-50 42L4000 5550l50-46m2970 10a463 463 0 00 32 10 90 90 0 00-30-10m10903-126c38 28-425 98-567 124-40-27 390-76 567-124m-12550 72c-26 0-93 6-168 13 0 6 5 12 10 17l155-12c-13-4-10-10 3-18m687-96c-108 6-220 13-317 23l-84 20 297-10-387 35a800 800 0 00-74 27l80-2h37c122-4 265-10 355-12l17-14 76-67m12094-195c-143 25-295 103-183 94 110-24 198-96 183-93m196-2312c23 3 68 4 225 66 76 40 198 58 448 313a1190 1190 0 01 210 1262c-156 354-370 502-486 586-122 82-202 117-250 140 38-23 104-55 222-134 108-80 324-205 500-596a1182 1182 0 00-3-940c-187-383-386-473-492-545-217-120-297-128-373-150m-536 2050a206 206 0 00-2 0zm-86-31 20 7c10-5 40-7 30-10-10-2-30-2-52-2l10 5m-37-96a1900 1900 0 01-56 4c30 20 54 30 74 40l102 13q8 0 15 2a500 500 0 01-43-14c-20-10-48-20-92-44m-120 6q25 20 45 32l40 2a1600 1600 0 01-54-35zm5-47 27 22q35 0 63 4-17-10-36-24l-54-2m-62-2 24 22h26l-27-20zM18280 3000c-63-10-80-10-78-1 2 4 26 13 74 27 50 17 110 26 270 97 85 50 210 75 422 350 100 133 186 380 180 574-4 197-52 318-80 389a1200 1200 0 01-183 310 1150 1150 0 00 193-306c30-77 93-226 80-471a1040 1040 0 00-264-615c-230-230-335-240-410-280-74-30-120-42-150-52a900 900 0 00-58-15M3740 3950c-45 9-62 15-8 14l30-2zm140-20-100 15 30 13 94-15-20-12m497-167a770 770 0 00-270 75l197-24c45-22 86-46 73-50m-710 60-40 10c18-4 29-10 37-13zm-170-20c70-3 110-1 70 10a2400 2400 0 01-111 17h-10a900 900 0 00-60-6l-53-2h-22c-10 0 0-1 5-2a4900 4900 0 01 185-16m70-12c80 0 137 6 93 28a900 900 0 00-93-28m-130-25 73 12 57 20h-110c-150 5-224 4-88-23a400 400 0 01 27-3l40 4m613-74c-62 53-510 56-653 70l-33-3c-36-2-40-1-46-1H3300l30-4a96917 96917 0 00 346-27c160-14 307-27 375-37m1370 10-91 3-121 20c2 5 66 4 127-1 25-4 54-18 89-23m426-40c-50 5-80 1-105 1q0 3 12 10l93-13m20-140c83-12 319-65 306-47-125 27-260 60-306 46m11664-188a760 760 0 00-166 170l8-2a820 820 0 01 158-168M6628 3500a10 10 0 01 0 7l7-2c10-2 5-3-5-5m260-66c0-6-10-10-70-4l-50 8c-110 20-330 60-317 64 3 0 113-16 130-15l15 1c65-15 180-35 290-54m10770-84c2-7-6-10-52 15-28 16-90 52-160 133l30-7c80-96 138-110 155-128a300 300 0 01 25-13m-90 102c28-30 33-40 0-17l-60 50 38-6 22-22m-10770-64c116-47 836-172 740-130-75 32-613 124-739 130m1644-250c2-13-350 54-364 60-200 65 216-26 364-58m142-74c-50 6-426 80-317 78 107-5 394-88 317-80m413-30c-100 12-578 110-374 83 15 0 381-70 374-80m9156-50c-168-40-224-36-232-27-5 10 43 26 158 40 88 14 84-10 74-13m-8950-45c-66 3-240 63-129 56a350 350 0 00 132-60m7380-1c-116 6-410 10-463 27 136-10 502 4 462-27m-6640-134c-8 0-217 34-247 54 87 0 320-50 246-54m6636-16-47 10 50-3 30-10zm-6151-65c160-48-256 26-310 56 77-15 248-40 306-57m1524-274c-383 18-332 60-364 70-70 16-235 34-364 66l442-126c-120 22-1150 227-1170 243-25 24 296-53 305-53 13 0 74 34 105 30 50-10 906-204 1046-225M10097 2700c-157 13 356-94 185-40-5 4-177 40-183 40m7342-153c276-100-567 150-305 90l305-90m-4846-304c107-3-360 98-377 100-83 4 286-97 375-100m12-198c56-7-226 70-314 84 4-14 277-80 314-84m130-50c-55 30-246 70-374 97 55-30 247-70 375-98m-6245-18c-90 18-487 13-318 4 44-2 236-2 316-4m360-50c-100 17-353 10-500 19-208 10-554 70-406 13l906-30m584-24c105 4-204 19-325 13-2-8 308-15 325-14m-2220-26c-120-12-650 10-517 17 20 0 440-16 516-17m4117 4c158 10-370 20-190 3l190-4m-3363-8c-20 0-433 10-390 15 88 8 450-13 390-15m689-4c-136 2-408 4-324 14 10 0 325-7 326-14m73-10c-68-13-292 0-440 4 53 13 294-4 439-4m-2837-10h-18c-25 4-12 6 20 7 60 3 200 4 224-3 20-6-160-7-226-4m6970-2c-2 10-233 7-320 10 22-14 230-10 320-10m400 7c-202-7-46-46 120-35 19 0 156 40-120 33m-4703-14c-50-13-298 4-440 4 39 10 327 0 439-4m6590-60c12 0 20 8 22 10-35-3-38-10-23-10m718-4c246-22-255-10-250 2 0 4 240 0 250-2m5490-32h-10zm-67-40c-36-1-55 0-60 5l12 5 56 17c23 3 47 4 60 2 2 0-8-10-20-20h-14a600 600 0 01-38-10M1390 1346c-352 38-20 13-90 24-52 8-262 17-140 20-80 0-292 10-490 24a6000 6000 0 00-273 25c-40 5-72 10-110 19a360 360 0 00-53 17 280 280 0 00-26 13 230 230 0 00-65 55 210 210 0 00-35 65c-15 45-10 64-13 68 0 3-4-5 1-40a215 215 0 01 48-105l24-18a261 261 0 01 77-50 550 550 0 01 181-43c420-27 117 10 963-67m986 250c-52 1-86-9-203 1l352 10c90-22-90-8-149-10m-308-65c142 7-638 53-780 48 156-13 498-22 640-32 17 0-77-26 140-16M873 1480c182-3-272 33-325 27-8-2 292-27 325-27m-34-21c141-4-170 20-262 24a3410 3410 0 01 262-24m922-25c10 5-238 19-260 20-142 2 170-18 260-20m-296-103c-58 10-720 56-705 48 16-20 600-50 705-50m1613-170c8 4-313 23-324 23-162 3 215-20 324-24m780-106c-117 12-65 10 0 7 43 0 92-3 97 0 13 10-28 15-96 18-174 8-510 3-652 17-27 3 180 2 109 10-238 23-972 14-185-25 210-10 80 7 90 6 440-13 330-26 390-33 120-10 130 4 250-3a17115 17115 0 00 0 3m90-38a1248 1248 0 01-322 28c-41-6 120-17 237-23l90-3m-915-35c157 0-370 33-190 12l189-12M19137 280c19-12 18-12 7-7-6 4-10 5-21 10-12 10-22 17-22 20l37-24m22-37-103 38a800 800 0 00-26 20l97-38 22-12 30-15-20 7m33 28s4-5-35 14l-6 4 20-8 20-10m-93-20 20-5-8-2zm-4044-4c106-24 586-30 500-16-18 2-540 28-500 16m1120-23c-35 0-300 8-376 12-83 25 540-4 376-12m2435-106c86-10-260-13-255 4 0 5 240-3 255-4" fill="#FCB414"/></svg>
