<svg xmlns="http://www.w3.org/2000/svg" data-name="Layer 2" viewBox="0 0 177 205"><g data-name="Layer 1"><path fill="#f3b026" d="m165.29 8.15-153.65 1.9c-1.17 2.83 1.29 1.98 2.17 2.62.74.55.72 4.99.73 6.19.51 40.83-.2 80.74-.17 121.71 0 7 1.29 15.92.82 22.54-.15 2.12-.22 1.35-.08 3.69.08 1.3-.67 3.78-.66 5.3.02 5.11.27 10.19.09 15.41-.04 1.35.67 4.96.11 5.9-.21.34-2.44.65-.35 2.21 1.81 1.37 3.29.2 4.97.25 21.02.59 41.99.11 63.02.21 24.45.11 49.13.66 73.71.78 1.29 0 6.39 0 6.95-.69l-.06-184.41c2.07.45 3.47-2.63 2.39-3.6Zm-5.79 184.8-141.42-.15-.94-180.34 142.9-.96z"/><g fill="#2a7038"><path d="M154.18 180.4c-4.56 3.24-9 7.18-14.32 8.41l-6.05 4.7 6.55-2.29 30.12-18.21c.48-.35 1.54.25 1.56.62.09 1.81-8.03 4.28-9.12 6.18l-8.55 5.08c1.14-.52 1.57.95 1.74.98 4.22.55 11.61-5.93 15.94-6.24.7 2.46-2.91 2.54-3.26 2.96-.24.28 0 1.42-.76 2.35-.99 1.21-5.83 2.72-6.98 4.5.88.73 2.08-.92 3-1.3 1.69-.7 2.98-.82 4.88-1.82 2.35-1.24 4.66-4.18 7.18-3.83.99 1.89-1.43 2.26-2.48 3.04-6.4 4.73-16.09 10.48-23.13 14.9-2.56 1.61-5.31 2.93-7.86 4.57l-.72-1.91c-5.96 2.53-2.27-1.89.96-3.11-1.3-.38-1.69 0-1.44-1.68-1.29 1.16-9.53 5.66-10.51 4.79.25-3.16 4.44-3.22 6.65-4.59l3.14-2.6c-3 .21-5.17 2.18-7.71 3.29-.79.35-5.37 2.38-5.67 2.35-1.43-.13-.22-2.17-1.41-1.79-1.6.51-7.89 5.7-8.87 4.77.76-3.24 3.41-5.49 6.66-6.02l8.39-6.44-26.29 11.01c-2.5-2.71 3.2-3.38 4.88-4.68l10.42-6.33c-4.29 1.7-8.54 3.56-12.76 5.41s-3.75 2.24-8.53 2.94c-2 .29-4.21 2.57-5.94 2.69-1.63.12-.05-1.35-.49-1.94-1.67.7-6.66 3.94-4.06-.47-.67-.45-7.35 4.58-6.14 1.27.72-1.96 4.49-2.27 6.07-3.49l7.95-4.97-16.53 6.91c-1.41 1.87-6.25 4.49-3.91.26l13.03-8.36-.71-.23-20.68 9.48c-1.66.43-1.36-1.45-1.8-1.35-1.64.4-5.99 5.51-5.92 1.74 6.76-5.46 14.74-9.55 21.45-15.15l-27.51 16.75c-1.72 0-.57-1.77-.7-1.91-.24-.26-2.9 2.68-3.81.72.03-.94 13.62-9.16 15.29-10.77l-13.03 5.86c-1.95.97-6.58 4.32-8.35 4.59-1.31.2-2.12-.74-1.1-1.6 3.71-2.53 7.92-4.93 11.45-7.69.31-.24 1.68-1.17 1.23-1.64L36.9 201.57c-1.56.55-1.49-.85-.42-1.86.97-.91 3.33-1.32 4.5-2.2l6.03-4.01c-3.33.67-13.5 7.31-16.19 6.73-.32-.07-.31-.81-.4-.86-.66-.34-4.96 2.13-5.98 2.65-2.12 1.08-1.9-1.02-.29-1.73l17.36-11.57-1.97.65-17.96 10.75-.85.09c-.95-.43-.01-1.03-.49-1.44-1.13.09-1.46 1.46-2.49 1.82-.5.18-2.49.49-2.05-.61l10.27-6.96c-2.73 1.02-5.94 2.16-8.54 3.42-1.38.67-6.75 4.4-7.47 3.77l.96-1.91H9.48c-.21-.17.64-1.3.48-1.44-.39-.34-5.51 2.5-6.46 2.87-2.32.89-2-.83-.09-2.01 9.26-5.72 20.46-9.79 29.77-15.68l1.64-.02c.32 2.28-4.75 2.85-5.16 3.45-.26.38 0 1.35-.53 2.09-.84 1.19-6.32 3.33-7.21 5.47l11.17-4.84c2.06-.52 6-3.99 7.71-3.77.4.05.34.94.25 1.2-.21.66-10.32 6.24-11.84 7.31-.22.15-1.5.77-.84 1.07 1.37-.68 2.87-1.28 4.21-2.01 1.52-.83 9.15-6.04 9.73-6.09 1.17-.09.92 1.48 1.35 1.38.98-.23 2.64-2.31 3.95-2.75.59-.2 1.79-.53 1.55.6-3.55 2.89-7.54 5.28-11.37 7.77-.89.57-1.04.79.12.6 4.28-.71 10.9-6.03 15.06-7.43.79-.27 1.59-.26 2.41-.21l-1.43 2.15c1.01.72 2.27-1.15 3.33-1.48 1.29-.39 2.13.2 2.95.03s1.62-1.39 2.67-1.57c.68-.12 1.37.37 2.07.18 1.26-.34 1.82-2.87 4.03-2.2.65.36.15 1.27-.21 1.71s-4.02 3.2-4.83 3.78c-2.28 1.64-5.54 3.21-7.96 4.94-.39.28-1.39.26-.39 1.06l19.51-10.14 3.67-.86c1.51 1.57-5.66 4.85-6.66 5.54-1.46.99-3.11 2.53-4.58 3.56-1.7 1.19-4.26 2.19-5.49 3.83h.72l21.97-13.4c1.24 2.67 1.16.09 3.6.48 2.02 1.95-7.62 5.38-7.95 7.1l-4.48 2.95c1.68-.11 3.71-1 5.26-1.67 3.07-1.32 10.62-6.05 13.18-6.43 1.2-.18 2.34-.12 1.53 1.31-.33.58-8.66 3.41-9.93 4.41-.13.77.62.52 1.08.36 6.15-2.16 12.69-6.13 18.28-9.47 1.27-.26.81 1.64.24 2.17-5.02 3.22-9.99 6.32-14.83 9.81 4.02-1.07 7.58-3.47 11.38-5.12 1.39-.6 5.35-2.55 6.3-2.82 1.35-.39 2.1.37 3.01.19.76-.15 1.97-1.56 2.87-1.93.48-.19 3.28-1.01 2.73.34l-1.43 1.68c1.44.24 5.06-3.52 6.21-2.39 1.61 1.58-6.75 4.99-7.83 5.32-2.36 2.6-6.62 3.07-8.9 5.68 2.57-1.11 5.17-2.3 7.66-3.58 2.31-1.19 12.16-7.32 13.6-7.45 1.76-.16 1.68.67.43 1.87-1.08 1.03-5.13 2.31-6.82 3.23-3.06 1.68-5.96 3.72-9.13 5.22l1.77-.15 18.76-8.98c1.2.37 6.13-2 6.23-.46s-6.03 3.64-7.49 4.46c-2.18 1.24-4.33 3.13-6.84 3.93-.14.83 1.15.51 1.57.38 1.64-.52 4.39-2.53 6.22-3.35 3.22-1.43 8.25-2.77 10.97-4.68 1.09-.77 3.46-4.94 4.89-1.93 6.05-5.22 12.98-9.25 19.48-13.88.51-.36.72-1.09 1.41-1.57 2.98-2.06 4.65-.91 1.58 1.57-4.37 3.52-10.58 7.52-15.24 10.83Zm-39.5 6.42-5.6 2.29-8.75 5.36c4.95-1.78 10.22-4.43 14.34-7.65Zm43.99 1.91-12.55 6.82-1.31 1.31c5.03-1.78 10.07-4.34 13.86-8.13M94.61 12.96 113.99.52c.4-.18 1.16.56 1.16.71 0 1.31-11.14 7.05-12.42 8.86 5.56-2.57 10.85-5.91 16.23-8.88.44-.17 1.71-.39 1.92-.2.15.14-.36 1.96.72 1.42.22-.11 4.23-3.78 3.59-.72-.21 1.03-12.13 7.15-14.01 8l-3.43 2.31c8.16-2.85 15.24-8.77 23.66-10.54l-.94 1.69c-3.51 2.22-6.98 4.49-10.47 6.75-.21.13-1.4.89-.77 1.14l18.29-8.97c1.58-.58 3.16-1.27 4.89-1.08.06.44.05.61-.23.97-1.93 2.48-9.41 4.84-11.72 7.65 3.16-.98 6.26-2.49 9.25-3.89 1.29-.6 5.17-3.09 5.92-3.22 1.2-.21 2.93.66 4.43-.07l-.95 2.16c1.57 1.02 5.92-3.84 7.17-2.63.26.25-.02 1.69-.78 1.85l-20.49 10.61c3.53-1.01 6.92-2.6 10.26-4.09 5.96-2.66 10.04-4.71 16.3-6.66 1.46-.45 3.53-3.79 4.03-.27.72-1.45 3.93-1.88 2.89.02-.2.37-2.38 1.86-2.97 2.29-5.82 4.21-12.82 8.21-18.91 12.08-.31.2-.43.8-.7.94-1.47.75-3.3 1.02-2.3-.97 4.18-2.98 9.84-5.5 13.64-8.85.18-.16 1.31-1.03.71-1.21-3.76 2.03-7.36 4.54-11.06 6.64-.86.49-1.86.61-2.72 1.1-2.08 1.2-4.04 3.65-6.53 3.28-1.45-1.32 5.76-4.24 6.55-4.69 1.9-1.09 4.23-2.5 5.88-3.92-3.41 1.12-6.86 2.52-10.15 3.95-.78.34-7.03 4.37-7.05 2.03 0-.22 1.38-.93.7-1.2-1.48.55-2.41 2.38-4.28 1.92-1.51-.37.32-1.35-.02-1.92-1.9.5-3.39 2.21-5.49 1.92l1.43-2.15c-1.74-.1-4.03 1.63-5.88 2.25-.95.32-4.57 1.45-2.74-.82.78-.96 9.2-5.47 11.08-6.63.32-.19 1.39-.35.64-.79-7.25 2.3-13.45 7.21-20.79 9.1-.15-.93.08-1.3.7-1.93 1.18-1.22 5.45-3.2 7.08-4.3l3.45-2.87-14.44 7.1c-1.99.49-1.42-.64-1.63-.78-.71-.48-1.23.72-1.89 1.07-2.2 1.16-3.56.93-1.87-1.63-1.19-.13-1.65 1.31-2.84 1.7-1.35.43-3.34.26-4.81.69l-.24-1.91c-1.05 1.02-2.19 2.52-3.83 2.4l-.47-1.92c-1.21.77-5.74 5.06-5.28 1.9 4.81-3.67 9.9-7.07 15.03-10.33l.75-1.16c-5.74 3.19-11.19 7.3-16.73 11.01-.58-.53-.9-.59-.49-1.43.77-1.56 7.98-4.46 9.33-6.46l-.72-.24-13.93 8.58c-.92.29-.9-1.15-1.19-1.35-.32-.23-2.31 1.17-2.1-.53.12-1.01 6.25-3.94 7.59-4.85.49-.33 1.5-.96.09-.87-5.39 2.93-10.46 6.49-16.27 8.6l-.09-1.77L73.1 9.43l-.71-.23c-2.12 1.18-4.51 2.84-6.59 3.93-.64.34-1.51.29-2.22.65-1.45.75-6.7 4.63-8.07 3.89-.12-.07-.07-.79-.3-.78-.46.03-1.02.57-1.85.45-.09-.01-1.29-1.16-1.3-1.25-.28-2.1 2.37-1.43 2.64-3.08-.71.06-1.48.42-2.09.78-1.12.67-5.25 3.84-6.09 3.97-1.75.27-.57-1.79-.66-1.87-.51-.46-3.22 1.92-4.3 1.43l.95-1.91c-.48-.37-6.53 3.62-8.13 2.86l-.23-1.43c-1.06 1.76-5.04 3.37-3.6.48-1.44.79-2.5 1.75-2.87-.48-8.49 3.72-15.77 10.13-24.14 14.37-.72.1-.85.01-.72-.72.3-1.68 4.74-2.45 5.8-4.25l11.42-6.99c-.8.09-1.7-.36-2.45-.22-2.12.37-7.53 3.84-9.87 4.88-.83.37-5.5 2.36-5.85 2.04l.99-1.63 12.87-5.55c.15-.21-1.65-1.22 0-2.38-.53-.43-8.54 5.26-10.03 5.99-.51.25-2.65 1.75-2.88.46-.2-1.12 3.11-2.16 3.98-2.71 1.3-.82 4.13-2.56 5.02-3.59.3-.35 1.07-1.36-.15-1.11-1.03 1.74-9 4.13-4.88 1.34 1.69-1.14 4.17-2.47 6.07-3.27.26-2.65-3.12 1.71-2.87-.94 2.22-.07 5.49-3.35 7.15-3.62.58-.1.92.65 1.48.53C20 9.18 22.6 6.06 24.08 6.3c.28.04.22 1.06.48.99 1.57-.43 2.9-3.8 4.54-1.68l-5.25 4.07c2.02.39 8.6-4.76 9.58-4.08.39.26.32 1.35.69 1.21.63-.23 1.83-1.63 2.94-1.87.95-.21.4 1.32 1.36.91.59-.25 1.84-2.17 2.86-1.91.62.15.58 1.53.97 1.43.79-.19 2.99-2.85 4.07-1.91.76.66-2.58 2.96-3.34 2.88-.13.58.22.58.7.47 2.04-.46 5.27-5.21 5.74-1.44 1.29-.44 4.26-4.01 5.27-2.39.39.63-1.02 1.15-.72 1.43.68.65 3.69-3.84 4.3-.72l-5.26 4.07c3.75-.85 7.81-5.36 11.6-3.8.55.23.21 1.09.59.93.59-.25 1.42-1.78 2.47-1.84.59-.03 1.01.69 1.35.7.29 0 1.98-1.37 2.63-.78.79.72-3 3.01-3.5 3.43-.42.35-1.54.95-.09.87 1.48-.45 10.25-6.29 10.77-5.74.55.59-.34 1.42-.78 1.85-2.64 2.54-8.92 4.89-12.25 6.89-.53.32-1.59.79-.13.83 5.81-2.56 11.11-6.02 16.94-8.42.81-.33 1.38-1.68 2.91-1.15.18.7-.16.79-.46 1.21-1.18 1.62-7.21 5.16-9.26 6.53-.49.33-1.49.97-.08.88 2.48-.73 10.82-7.01 12.52-7.1.64-.03 1.08.75 1.36.77s1.79-2.06 3.1-1.32l.25 1.92c1.58-.5 3.61-3.31 5.24-3.15.92.09 3.39.95 2.64 2.18.44.48 2.35-1.6 3.07-1.95.53-.26 2.73-1.04 2.18.27l-1.43 1.45c1.97.53 3.3-3.56 5.49-3.12 1.44.29-.1 1.53-.48 1.9-4.31 4.1-10.97 6.64-15.05 11.02Zm47.8-4.78-5.21 2.2-3.87 2.58c2.92-.88 6.91-2.68 9.08-4.78M37.96 9.73l-8.52 5.4.43.69 8.52-5.4zM28.15 38.82l-.11 2.78L6.63 56.79l1.77-.14 21.03-9.59c4.48.07-.21 2.45-2.24 2.79l1.44.47c1.42 1.3-5.57 4.36-6.38 4.87-5.21 3.31-10.16 7.24-15.47 10.36-.93.55-5.1 3.16-5.88 2.49l1.47-2.12 22.91-14.4c-.83-.38-2.37.32-3.2.63-4.7 1.79-9.47 3.99-14.13 5.96-1.89.81-4.32 2.68-6.32 2.77-3.53.17.9-1.91 1.05-2.06 2-2.03 1.64-1.84 4.17-3.73 5.7-4.25 11.43-8.49 16.99-12.91L1.61 52.7c-2.09-2.23 2.06-2.75 3.29-3.4 3.97-2.06 7.43-3.5 11.39-5.35 1.7-.79 10.93-6.07 11.85-5.13ZM15.88 73c-2.68 1.93-5.99 4.31-8.64 6.4-.39.31-1.36.34-.36 1.1 4.78-2.13 9.39-4.63 14.05-7 1.28-.65 2.51-1.27 3.82-1.92 2.09-1.03 3.72-3.02 6.27-2.58.97.87-4.59 3.72-5.25 4.08-7.27 3.98-15.18 6.87-22.27 11.24-2.94.19-.76-2.54 1.22-2.39l-1.44-.72c-.03-1.43 8.52-6.75 10.2-7.99 2.74-2.03 5.26-4.35 8.02-6.34 1.38-1 3.87-1.39 4.74-3.63L1.4 76.45c-1.42.56-1.93-1.13-.74-1.72 5.16-2.91 10.63-5.31 15.87-8.05 1.86-.97 11.39-6.79 12.37-6.78.64 0 .78.27 1.16.71-1.84.87-.61 2.36-1.37 3.38-1.74 2.33-9.97 6.97-12.8 9.01ZM166.49 58.64c-.57.42-1.32 1.34-2.13 1.93-4.84 3.48-9.74 6.72-14.62 10.26-.59.43-1.34.49-1.11 1.52 5.88-3.3 12.17-5.78 18.19-8.84 1.84-.93 6.13-3.98 7.61-4.36.68-.17 1.76-.34 1.93.51.34 1.71-6.61 3.98-8.16 4.75-6.01 3.01-12.06 6.77-18.01 9.73-1.31.65-8.53 4.08-9.2 3.47.03-2.5 2.86-2.94 4.78-3.36-2.52-2.56 1.86-3.68 3.5-4.87 6.5-4.7 12.89-9.48 19.42-14.07 1.21-.85 4.9-4.61 6.01-4.5.61.06.91 1.22.48 1.91-.21.33-5.41 4.04-6.31 4.7-.71.52-1.62.67-2.37 1.22ZM176.83 30.69c.49.47-.2 1.4-.78 1.84-5.85 4.45-12.97 8.3-19.17 12.4-1.47.97-3.08 1.88-4.4 2.77-1.61 1.09-3.43 2.42-4.8 3.82 2.56-.13 5.13-2.34 7.53-3.47 1.79-.84 4.1-1.45 5.85-2.28s12.09-6.76 12.91-5.98l-.96 2.14c-4.27 1.89-8.67 3.73-12.84 5.81-4.36 2.17-9.36 5.59-13.96 7.09-3.16 1.03-2.19-1.63.03-2.12.06-1.1-1.63.27-1.44-1.2.25-1.92 2.6-2.14 3.78-2.92 8.74-5.69 17.32-11.69 25.88-17.66.46-.28 2.21-.41 2.38-.25ZM174.53 78.17c-.09.17.36.75.28 1.06-.4 1.52-22.75 15.36-25.94 17.55-.7.48-1.17 1.39-1.98 1.85-2.56 1.45-3.23-.38-1.11-2.07 8.09-4.52 15.35-10.31 22.93-15.58-5.67 2.19-11.46 4.26-17.07 6.6-1.53.64-5.53 3.2-6.7 3.37-1.72.25-2.1-1.04-.58-2.04 2.17-1.42 9.67-3.67 12.72-4.98 4.49-1.94 8.85-3.91 13.39-5.75 1.9-.77 4.09-3.24 5.88-1.28-.22.66-1.72 1.1-1.81 1.27ZM32.93 152.33l-.48 1.91h1.44l-.71 1.93c-7.97 6.05-16.57 11.21-24.81 16.84-1.34.91-1.95 3-4.6 2.31-.02-2.44 2.88-2.82 4.46-3.91 4.4-3.07 8.64-6.43 13-9.49 3.39-2.38 7.5-4.15 10.27-7.18-10.12 3.77-18.96 10.87-29.16 14.36-.26-2.64 3.52-2.94 5.37-3.95 6.84-3.75 15.7-9.24 22.64-12.28.86-.38 1.61-.67 2.58-.52ZM174.44 103.96c.25.24-.11 1.67-.7 1.93-6.81 4.36-13.6 8.7-20.39 13.1-2.26 1.47-5.6 2.6-7.12 5.07l27.57-12.38 1.11 1.84c-5.49 2.46-11.16 4.59-16.68 7-3.68 1.61-9.5 5.15-12.95 6.19-.8.24-1.58.29-2.4.22l1.91-1.92c.16-.77-1.37-.61-1.42-1.19-.02-.16.89-1.41 1.26-1.61 7.94-4.6 15.5-9.7 23.28-14.51 1.03-.64 5.44-4.81 6.53-3.75ZM9.99 188.24l24.25-10.42c2.25-1.14 3.72.14 1.11 1.59-7.94 4.42-19.4 7.95-28.09 11.61-1.49.63-3.1 2.82-4.92.81 1.63-.66 1.82-2.35 2.59-3.14.61-.62 5.23-3.58 6.52-4.5 6.33-4.51 13.19-8.31 19.07-13.47 2.26-.74 2.13.96.76 2.2s-5.54 3.63-7.45 4.99c-4.68 3.32-9.68 6.29-13.84 10.32ZM173.96 2.43c.18 1.19.05 1-.58 1.58-2.43 2.21-6.67 3.56-8.97 6.08 1.52-.6 3.25-1.06 4.73-1.73 1.56-.7 5.68-4.22 5.25-.73-7.43 3.55-15.13 6.62-22.52 10.24-.33.16-5.26 3.92-5.13 1.55.06-1.17 5.44-3.57 6.64-4.35 5.97-3.88 12.16-8.96 18.44-12.18.77-.39 1.24-.64 2.16-.47Z"/><path d="M172.53 149.94c1.54 1.5-6.09 5.59-6.93 6.22-4.12 3.14-8.07 6.69-12.22 9.79-2.97 2.22-7.07 5.68-10.23 7.47-.53.3-1.83.78-2.17.46-1.58-1.51 5.39-4.91 6.05-5.42 3.8-2.97 7.63-5.8 11.6-8.73 3.19-2.36 8.36-7.49 11.43-9.15.56-.3 2.02-1.08 2.46-.64ZM176.83 63.73c.35.35-.27 1.96-.99 2.12-7.84 4.46-16.32 8-24.22 12.14-.58.3-8.79 6.24-8.73 3.22 1.18-1.96 3.22-1.9 4.88-2.76 7.36-3.8 14.62-7.81 21.99-11.5 1.13-.56 6.12-4.15 7.06-3.22ZM173.48 121.68c.25 2.75-2.98 2.71-4.73 3.64-1.5.8-3.04 2.04-4.4 2.77-7.27 3.91-14.68 7.61-21.92 11.58-.51.45-1.37-.12-1.45-.52-.34-1.65 4.83-3.29 6.07-3.97 7.18-3.98 14.53-7.78 21.82-11.67 1.48-.79 2.29-2.43 4.62-1.83ZM172.53 162.39c1.6 1.57-6.69 5.16-7.8 5.83-6.23 3.74-12.31 7.95-18.64 11.49-.52.29-6.15 3.72-6.05 1.59 0-.15 1.58-1.63 1.94-1.87 7.87-5.28 17.66-9.73 25.94-14.72 1.49-.9 2.32-2.81 4.62-2.32ZM168.23 146.58c1.86-.2 2.96.44 1.44 2.16-.34.38-4.79 2.79-5.85 3.58-2.3 1.72-4.77 3.86-6.94 5.76-3.97 1.7-7.77 6.84-11.61 8.36-.96.38-1.24.4-1.89-.47.9-2.13 3.01-2.57 4.73-3.88 6.76-5.17 13.91-9.72 20.12-15.52-.92.1-1.87.53-2.73.86l-23.53 13.31c-2.62.14-1.13-1.72.27-2.61 5.02-3.17 11.5-5.77 16.75-8.6 1.96-1.06 12.81-7.86 13.79-7.72 1.54.21.12 1.99-.75 2.59-1.43.99-2.22.7-3.8 2.18M174.44 88.16c.13.9-.05 1.32-.69 1.93-.54.51-3.28 2.46-4.12 3.05-5.78 4.06-11.94 7.76-17.81 11.85-1.11.77-6.29 5.86-7.48 4.71-.76-.74 1.4-2.68 1.94-3.08 6.65-5.01 14.94-10.2 21.92-14.92 2.09-1.42 3.61-4.01 6.25-3.55ZM173.84 70.54c.99-.27 3.13-.11 2.05 1.1-.83.93-5.11 2.86-6.52 3.52-5.79 2.73-11.89 4.96-17.72 7.63-.9.41-8.14 5.08-8.27 2.73-.09-1.73 6.02-3.33 7.48-3.99 6.28-2.83 12.52-5.77 18.76-8.5 1.18-.52 3.18-2.21 4.22-2.49M174.68 46.57l1.28 2.02-30.08 19.2-1.28-2.02zM143.37 113.54l.98-2.13c8.34-4.3 16.35-9.22 24.51-13.76 1.78-.99 4.88-4.31 6.54-2.54.18.89-5.77 4.37-6.92 5.03-5.51 3.22-11.59 5.98-17.15 9.16-1.22.7-6.9 5.24-7.96 4.24M175.4 137.01c.14.14.1 1.48-.49 1.66-5.57 2.84-11.38 5.19-17.03 7.84-2.72 1.28-5.46 2.56-8.14 3.82-1.39.65-7.06 4.5-8.27 3.45-.14-1.17 1.06-1.71 1.88-2.18 7.11-4.03 17.43-8.34 25.06-11.77 1.29-.58 5.99-3.79 6.99-2.81ZM173.96 116.41c.48.46-.19 1.41-.78 1.85-5.46 4.14-14.35 6.42-20.14 10.48-2.34.1-6.17 4.31-8.04 4.43-2.11.13-1.72-1.31-.38-2.33 8.52-3.69 16.32-8.68 24.66-12.65.88-.42 3.56-2.84 4.67-1.78ZM141.94 147.54c-.15-.15-.07-1.47.48-1.67a460 460 0 0 0 29.99-12.58c6.38-.27.14 2.44-2.28 3.47-6.61 2.82-13.6 5.18-20.32 7.9-1.32.53-6.93 3.8-7.87 2.89ZM174.92 99.17c.13.98-.8 1.6-1.46 2.12-1.48 1.17-4.07 2.74-5.75 3.82-5.37 3.42-11.38 6.56-16.84 9.95-1.32.82-4.83 3.97-5.91 4.15-2.05.33-1.62-1.25-.32-2.25 2.81-2.17 8.45-4.72 11.8-6.86 4.4-2.81 8.61-5.71 13.11-8.42 1.8-1.08 2.68-3.11 5.38-2.5ZM30.55 164.79l1.91.47c1.39 1.4-6.03 5.22-7.14 6.02-6.78 4.83-13.28 10.07-20.12 14.81-.57.59-1.87.03-1.89-.47-.08-1.66 24.2-16.55 26.76-19.64-1.36.02-3.38 1-4.62 1.59-5.18 2.47-10.44 5.71-15.32 8.22-1.75.9-8.82 5.37-6.13.95 4.3-2.01 8.66-4.05 12.84-6.29 5.06-2.71 10.76-6.63 16.01-8.89.83-.36 2.43-.57 2.47.59.03.63-3.97 2.26-4.77 2.64M173.22 27.35l1.25 2.04-28.79 17.68-1.24-2.04zM174.92 126.47c1.03.89-5.58 4.22-6.2 4.56-5.86 3.15-12.18 5.73-18.04 8.74-1.28.66-7.15 5.01-8.26 3.93l.48-1.66c4.38-2.13 8.9-4.13 13.22-6.39 4.85-2.54 11.14-6.91 16.06-8.81.94-.36 1.74-.48 2.73-.37ZM174.03 42.9l1.09 1.92-30.87 17.65-1.09-1.91zM176.83 12.97c.88.77-4.03 3.55-4.53 3.83-5.98 3.37-12.66 6.21-18.75 9.47-.59.31-8.31 5.94-8.26 3.21.02-1.14 11.35-6.33 13.22-7.34 4.65-2.52 10.94-6.91 15.58-8.82.92-.38 1.77-.44 2.74-.36ZM172.85 82.63l1.31 1.8-28.08 20.39-1.3-1.81zM173.5 22.27l1.15 1.87-29.12 18.01-1.15-1.87zM32.45 137.49c1.3 1.11-6.36 4.44-6.94 4.78-5.4 3.15-10.7 6.66-16.15 9.68-.87.48-5.55 3.12-5.92 3.18-2.49.4-1.18-1.3.17-2.23 5.72-3.93 13.77-7.61 20-11.1 1.53-.86 7.62-5.35 8.85-4.3ZM175.23 18.83l.88 1.93-31.83 14.48-.87-1.93zM11.09 140.52c-.17.09-.25.68-.75.93-1.18.59-7.41 3.79-8 3.22-.17-.17.02-1.42.44-1.71 9.04-4.7 18.42-8.79 27.27-13.88l1.45.52c.36 1.72-5.36 3.2-6.65 3.86-4.45 2.27-9.21 4.77-13.75 7.07ZM169.92 157.65l1.18 1.95-27.51 16.63-1.18-1.95zM31.98 142.28c1.39 1.16-6.36 4.56-6.86 4.86-5.02 3.01-9.97 6.5-14.97 9.43-.95.55-5.27 3.06-5.87 3.23-2.04.58-1.62-1.31.01-2.39 5.92-3.95 13.53-7.52 19.88-11.21 1.34-.78 6.59-4.93 7.8-3.91ZM2.82 108.27c-.07-.7.27-1.51.82-1.94 2.49-1.9 8.37-4.27 11.46-6.11 4.75-2.82 9.41-5.96 14.13-8.83 1.86-.83 3.26.21 1.16 1.64-6.32 4.3-13.43 7.71-20.08 11.49-1.34.76-6.4 4.74-7.49 3.74ZM30.59 118.08l1.12 1.89-28.87 17.17-1.12-1.88zM32.03 131.49l1.13 1.93-28.38 16.7-1.13-1.93zM31.3 112.69l1.13 1.82-28.3 17.71-1.14-1.82zM30.9 144.93l1.32 1.84-25.73 18.42-1.31-1.84zM29.27 73.65l1 1.98L1.51 90.08l-.99-1.99zM31 107.97l1.15 1.8-27.77 17.89-1.16-1.8zM174.71 9.64l.84 1.84-30.39 14.01-.84-1.83zM29.34 95.4l1.12 1.78-27.57 17.47-1.12-1.77zM30.54 124.56c1.49 1.44-5.51 3.9-6.38 4.38-4.88 2.7-9.71 5.97-14.48 8.48-1.13.59-4.53 2.3-5.55 2.6-2.06.59-1.19-1.28-.13-2.05 3.39-2.47 9.72-4.87 13.64-6.93 3.26-1.72 7.49-4.78 10.64-6.1.51-.21 1.98-.64 2.25-.37ZM30.56 104.17l1.1 1.79-27.15 16.67-1.1-1.79zM28.22 54.87l1.04 1.83L1.81 72.38.77 70.55zM29.82 87.05l1.01 1.9-26.7 14.23-1.01-1.91zM28.61 100.75l1.17 1.93-25.97 15.78-1.17-1.93zM29.76 83.22l.92 1.94L4.03 97.84l-.92-1.94zM27.04 32.29l1.05 1.73L1.52 50.14.47 48.4zM29.31 29.09l.77 1.8L1.56 43.17l-.77-1.8zM28.05 19.72l.9 1.8L2.18 35.14l-.91-1.79zM29.31 79.37l.82 1.9L4.3 92.47l-.82-1.89zM27.34 24.29l.88 1.7L1.01 40.17l-.89-1.7z"/></g></g></svg>