<svg xmlns="http://www.w3.org/2000/svg" data-name="Layer 2" viewBox="0 0 17700 20500"><g data-name="Layer 1"><path d="M16557 950a364 364 0 00-33-116L1167 980c-114 379 217 141 273 312 16 47 40 476 43 571 34 1586-48 3214-40 4791 19 4033 150 8130 30 12130-4 148 45 323 25 482-12 95-251 150-52 333l14837 66c124-211-30-454-37-646-25-661 48-1427 48-2106 0-5022-40-10057 26-15046 3-197-17-314 6-536 5-43-38-107-30-140 25-88 248-56 260-242Zm-600 18386-14132-69-92-18054 14266-43-43 18166Z" fill="#2c7138"/><g fill="#cf3627"><path d="M17089 16710c159 150-617 522-692 575-496 352-977 785-1458 1124-114 81-478 345-573 384-484 198-439 142-874 488a310 310 0 01-175 66c-10 90 97 40 144 25 400-130 830-373 1190-582 170-96 390-291 569-395 567-333 1183-605 1700-1026l274-36-146 214c-560 255-1026 632-1575 912 56 22 86 166 123 169 324 29 1463-755 1595-624 140 139-295 266-322 299-37 46-20 149-73 215-78 96-367 141-417 300 280 113 1110-701 1240-575 192 186-792 628-874 679-563 349-1124 780-1656 1117-101 64-740 447-788 457-38 7-80 0-118 0l47-191c-46-41-336 290-382 70-32-150 394-288 477-382l-190-24 47-143c-130-33-88 83-170 137-224 146-520 195-734 369-60 44-180 10-190-52-33-160 530-356 663-434 43-25 358-195 290-260-51-48-1105 550-1276 567-255 42-30-228-180-182-170 52-583 463-737 507-60 17-133 13-146-53-7-24 240-394 260-410 86-80 250-67 355-120l838-645-2538 1048c-205 60-100-153 8-232 213-157 706-320 948-486l484-330c-400 146-792 322-1180 494-414 183-396 220-854 300-128 23-584 314-640 310-137-10 3-188 3-240-195 46-326 245-547 193l-23-191c-118 59-505 370-504 118 0-134 530-310 666-387 67-38 108-118 178-157a5660 5660 0 01 638-295c8-93-150-42-193-26a20450 20450 0 00-1490 660c-167 83-258 336-513 277-23-260 236-274 377-364 303-194 695-437 977-650 46-33 150-97 10-88l-2030 935c-278 80-218-49-247-63-74-37-903 630-492 40l2076-1440-2800 1720c-180-1-56-177-65-186-26-25-438 288-382 24 22-104 1320-853 1480-1031-720 270-1382 676-2068 1019-40 29-180 4-176-40 5-197 460-370 620-480a6717 6717 0 00 717-547c-80-14-140 20-208 54-442 228-1210 813-1642 940-138 42-220 5-133-133 56-90 620-220 694-406 7-37-44-30-70-23-314 80-713 385-1028 460-110 26-140-86-251-72-163 20-425 276-613 258-90-63 58-158 100-190 507-380 1090-672 1572-1080L2120 20058c-170 0-47-167-64-185s-213 215-320 230c-133 22-175-44-110-148 97-140 820-400 959-610-247 44-552 180-781 294-141 69-642 414-682 422-76 20-148-240-148-260 2-40 104-90 80-110-76-61-601 310-703 328-85 14-104 5-156-64l3180-1750c335 150-305 307-360 358-64 55-33 169-96 240-120 138-650 342-764 552L4000 18451c50-35 158 30 157 64-2 100-1055 687-1192 816 94 14 266-83 349-130 325-178 650-492 1005-568 123 280 347-231 580-190 64 35 12 127-20 172-55 72-753 457-908 575-55 40-101 92-147 140l70 24 1493-758c179-26 200 118 60 208 110 53 230-138 370-160 225-36 463-44 695-114 110-34 426-481 394-37-447 328-930 614-1361 956 107-17 233-75 329-125 504-256 1119-653 1629-857a1200 1200 0 01 358-73c45 0 30 84 19 113-53 137-1443 880-1617 1109-7 36 45 30 72 25 43-10 653-380 755-441 430-261 847-561 1262-847 90-54 174 66 224 70 54 7 407-230 238 115-54 110-1005 579-1122 790-7 38 44 30 70 24 516-130 1232-700 1683-803a482 482 0 01 156-10l-96 240c56 40 543-240 638-299 125-74 210-253 390-235 45 5 118 45 118 74-2 135-1295 846-1433 1030 347-87 670-312 1002-456 66-28 155-20 234-52 113-46 410-245 470-253 100-14 147 84 207 70 71-14 191-149 281-197 115-56 408-153 270 76-63 106-693 344-850 430-30 17-36 77-70 95-337 190-717 320-1013 578l208-54L12070 18400c147-67 150 106 63 207-40 45-591 274-711 340a3199 3199 0 00-530 354c125 9 229-65 335-120 335-170 1096-700 1372-780 170-50 208 8 110 159-510 295-1040 554-1562 827-24 12-152 69-87 105l2124-987c218 45 357-86 573-67l-174 233c-458 196-878 460-1320 690-55 28-154 82-11 83 323-96 595-304 898-440 340-153 723-237 1033-450 114-77 196-238 334-287 189-68 128 50 153 66 96 66 156-140 219-184 260-187 598-362 868-554 288-205 820-690 1085-830a403 403 0 01 256-53Zm-7687 2110-225 37L8400 19250l216-46 786-385Zm6160 287c-351 125-770 331-1050 574a2940 2940 0 00 1050-574M11026 25c56 55-16 116-59 158-350 346-993 634-1379 965l-90 123L11385 37l118 107-1288 887c617-270 1183-660 1790-950l24 190c153-16 188-162 361-190 101-12 165 5 116 120-58 136-847 420-954 600 421-111 791-395 1185-560 99-43 327-157 390-42 5 115-747 528-895 633-87 62-228 174-297 255l1781-870c70-6 514-224 510-62-3 110-1029 630-1145 790 280-85 565-216 830-340 172-82 543-340 698-360 97-14 120 50 167 54 91 10 337-92 192 120-25 38-176 42-95 98 164 25 620-406 739-287 5 4 19 134-30 146l-1807 956a5220 5220 0 00 725-280c558-250 1009-530 1597-656 127-27 393-397 447-24 126-210 480-195 232 42-418 400-1203 670-1645 1080-213 20-525 426-697 452-58 10-158-12-157-64 3-90 1030-687 1198-810 53-37 119 3 90-120L13823 1900c-136 20-70-150-2-195 420-217 860-430 1220-717-550 192-1080 450-1610 710-170 28-120-70-130-182-160 116-460 362-430 0l-500 192 100-216c7-36-46-30-70-23-120 40-693 377-788 287l60-178c346-192 792-407 1102-644 44-34 150-97 8-88l-1518 777c-84 37-180 35-270 65-78 26-273 233-222-32 24-125 270-170 378-243 80-56 130-138 199-184 164-120 369-222 540-331 97-61 105-60-13-60l-1398 707c-231 70-208-86-226-85-91 8-156 245-380 192-156-37 45-171 70-240-152-20-255 183-381 220-20 7-413 34-430 19-12-12 37-200-71-143-67 34-121 260-335 192l69-191c-61-46-494 354-643 335l24-194c-140 18-270 13-168-144 48-72 726-458 870-563 24-15 150-76 86-107-211 83-425 220-621 335-300 180-620 457-946 532-53-143-181-66-270-170 0-60 624-380 732-462 44-34 150-98 8-90-210 120-1521 929-1648 816-14-87 60-143 119-192 263-220 663-413 948-630 44-34 150-97 8-88L5700 1747c-80-27-277 2-326-11-24-6-177-161-164-195 19-48 164-113 118-170-120 63-697 463-787 382l70-192-452 192-23-191-580 282c-92 38-104-152-137-140-88 35-210 266-407 192l48-143-286 47-23-143L284 3140l97-213c543-297 1033-680 1583-938-11-99-167-89-237-75-190 39-1466 765-1530 698-26-29 4-169 78-186 465-164 876-456 1355-581l-143-48-23-143c-140 105-1078 757-1170 670-18-85 40-120 97-165 192-152 657-320 808-495 30-35 93-133-24-108-143 57-288 182-425 243-90 40-88 80-170-30 75-139 807-430 716-550l-286 70c175-80 510-350 668-390 91-24 157 25 236 2 122-36 341-272 430-290 64-14 90 90 191 55 135-45 262-332 384-147l-577 460c260 24 822-477 1021-432 33 7 30 84 38 88 96 50 328-300 398-38 94-106 185-188 334-193s-55 220 94 145c25-12 524-478 408-119-5 16-230 135-288 191s-80 82 24 72c145-53 352-299 476-334 170-48-56 258 94 191 184-83 290-362 550-287l23 143 310-143c143 147-477 326-452 480 166-40 836-462 926-419 10 5 10 63 20 67 262 82 243-36 408-72 105-23 300 20 440-55 33 227-273 247-380 408-7 37 44 30 70 23 194-47 610-376 811-480 77-40 123-65 216-47 17 110 7 100-58 151C7596 530 7095 733 6817 900c-57 34-158 78-10 85 412-173 784-437 1183-633 81-40 177-38 260-76 116-54 352-344 275-10l-907 670c328-22 901-571 1156-616 84-15 155 36 220 26s157-126 270-80l-95 167c205 55 483-360 688-314 32 7 27 95 50 94 48-2 196-120 170 28S9870 417 9790 530c-8 36 49 32 71 23 141-58 556-506 668-479 70 17 38 180 144 143 44-15 246-300 359-190Zm3533 624a5037 5037 0 00-773 349c-55 30-120 60-134 129l397-152zm-4727 95-425 268-291 260c167-60 349-190 492-297 77-57 240-123 223-231Zm-6636 432-637 343-127 135c270-100 556-280 764-478M1460 5138c-210 150-553 320-725 496-54 56-5 60 50 50 523-102 1560-764 2148-965 400-140 132 260-167 240-14 90 116 0 97 120-28 171-430 310-590 410-538 350-1070 740-1612 1067-63 43-453 275-486 268-130-26-54-152 25-213C600 6300 1241 5996 1690 5720c271-169 557-349 795-567l-2317 960-120-74c174-100 265-292 406-408 128-105 325-188 470-296 483-367 970-735 1462-1093a433 433 0 00-227 36c-545 250-1360 804-1910 958-150 42-197 20-132-133l2580-1243c402 188-221 550-413 692-265 197-562 400-823 587Zm368 2000c-426 310-866 618-1259 966l70 23L2900 6902c100-65 271 35 145 146L330 8444c-48 44-142-17-144-52-6-120 283-147 152-330 715-529 1437-1090 2182-1592l147-163c-847 392-1637 910-2481 1320-240 62-210-79-47-192l2784-1463c171 126-19 160-46 236-20 56 40 127 0 192-67 110-882 610-1059 739Zm15690-2030c44 44-28 145-71 191-185 201-729 555-982 740-541 393-1132 718-1620 1176 620-297 1252-572 1864-884 290-148 576-423 905-410 190 170-742 475-807 508-852 429-1676 921-2533 1341-60 44-180 10-193-52-30-160 403-293 525-311l-143-48c-8-101 58-170 127-233 262-238 800-526 1111-754 408-300 814-595 1222-883 86-60 485-497 597-383Zm-2324-320-397 343c140 71 282-122 395-179 264-130 588-226 846-349 413-199 819-425 1225-640 116-10 153 143 64 210l-2842 1364c-176-159-13-177 72-285-375-133 198-326 329-414 700-467 1400-935 2100-1390 92-60 618-594 674-330 10 67-52 103-98 140-717 560-1605 1020-2370 1528Zm957 4030c-301 201-637 422-960 640-218 147-540 583-775 372l2434-1679c-166-92-285 76-410 126-433 172-878 330-1308 510-141 58-706 401-812 311-13-88 81-176 147-213 300-172 914-344 1271-498 586-253 1163-540 1760-775l115 118c-174 65-142 190-234 288-286 301-871 570-1229 810m-1100 3210c-20 14-32 72-68 96-129 88-281 161-402 271-65 75 46 53 87 40 625-220 1301-644 1909-913 87-38 183-28 269-65 155-67 452-333 625-236l-50 142c-778 394-1606 693-2397 1045-180 80-462 290-636 320-264 48-52-263 122-236 12-105-192-4-190-72 2-74 134-196 193-237 328-227 765-433 1110-658 526-342 1034-734 1566-1065 74-47 177-106 233-4 17 92-13 112-78 160-154 118-378 255-545 364-562 366-1190 683-1748 1050Zm-11806 5060c136 115-683 542-728 574-400 290-776 665-1227 891l-290 261c250-62 513-176 750-278 472-206 1202-622 1674-754 113-30 343-63 234 114-22 36-665 305-772 352-584 253-1200 451-1785 700-156 67-600 336-710 344-83 6-111 0-162-70 136-64 196-306 270-364 674-528 1552-1022 2270-1530 136-96 203-310 467-240m-2670 477c-225-9-227-102-74-240 270-245 866-489 1168-746 312-326 742-517 1098-767 116-87 262-190 337-310L304 16950c-110 32-76-118-60-182 740-387 1494-750 2235-1136 196-104 469-323 675-374 266-67 24 194 36 205s310-109 142 167c-666 470-1345 915-2010 1387-264 188-495 306-760 556 78 3 116 0 189-26 540-193 1275-724 1816-1007 96-50 198-54 284-98 48-25 676-503 673-235-1 94-412 242-476 336 30 50 171-64 190 50 30 178-505 401-645 501-62 44-104 118-170 165-632 453-1274 892-1904 1350-222 45-225-50-75-172 712-574 1602-1036 2312-1610 71-57 132-123 195-188-207-30-390 150-538 220-426 210-857 411-1278 631-136 70-608 395-700 403-292 24 72-276 128-329ZM17375 217c38 38-23 149-69 194-234 230-685 370-933 600 39 70 125 0 170-20 140-60 690-370 770-380 63-1 73 30 110 70l-48 95L14800 2019c-48 48-143-18-144-50-6-140 492-357 615-437 519-331 1020-661 1548-981 87-52 468-417 556-328"/><path d="M14368 17333c411-140 1000-539 1399-777 297-178 776-551 1048-673a420 420 0 01 226-36c160 152-563 440-638 486-490 299-976 669-1477 962-160 93-921 532-559 38-80 27-252 160-286 23-40-198 320-304 430-387a298450 298450 0 01 2278-1698c35-26 405-436 453-215 39 185-600 492-741 599-720 538-1414 1127-2125 1678Zm3185-10972c102-5 144 110 89 188-204 56-346 200-520 293-648 343-1344 634-1993 972-76 40-840 607-855 340-8-143 352-272 470-294l2809-1498Zm-225 5794c1 65 12 132-23 192-24 41-607 273-719 332-541 287-1087 654-1610 927-176 92-536 293-700 349-97 32-130 34-194-52-14-68 76-129 126-160 503-318 1192-582 1721-861 340-184 840-554 1170-690a397 397 0 01 220-37m-96 4076c187 213-634 509-774 590-597 349-1184 774-1790 1127-106 62-399 235-492 272-213 86-246-101-40-235 510-333 1155-627 1690-940 140-81 1354-875 1408-814Zm-793-1420-970 537c-185 102-1320 851-1438 738-4-268 427-352 645-478 791-457 1615-846 2376-1355 186-108 371 19 177 178-120 97-600 277-790 380m970-7778c90-20 252 5 180 137-59 108-1930 913-2212 1039-78 35-176 34-260 73-225 102-565 466-799 253 3-140 1141-524 1321-640zm6 1952c-365 203-687 478-1029 717-498 346-1027 653-1520 1015-155 110-199 302-455 239l71-192c716-394 1323-944 1985-1411 157-110 377-208 541-322 94-65 160-230 340-232l67 175Zm100 485c30 29-5 120-47 167-25 27-538 330-624 380-742 426-1508 866-2254 1285-50 29-247 125-272 14l77-161a21950 21950 0 00 1272-686c385-225 758-456 1147-671 128-70 584-442 702-327Zm0 4219c130 125-390 365-475 408-656 333-1374 605-2040 924-130 63-782 485-874 393-22-136 22-140 110-200 196-135 542-223 768-333 615-290 1223-590 1840-880 110-50 583-390 672-302Zm-142-2060c144 135-587 497-674 544-520 280-1077 513-1602 788-220 114-577 474-778 272 3-108 1145-623 1330-724 373-210 716-408 1090-596 206-101 390-320 636-296Zm-3055 286c-10-96 82-162 148-212 310-234 818-473 1168-697 460-294 910-587 1375-873 62-38 411-397 462-160 17 79-67 96-108 130-570 487-1580 970-2248 1388-135 84-650 549-795 424m3198-7191-67 194C16540 5530 15560 6036 14686 6700c-168 109-253-120-100-193 804-464 1561-990 2352-1473 190-116 328-340 577-307Zm-140-1918c167 155-598 466-664 507-540 336-1063 737-1613 1065-70 42-562 318-587 297-106-91 48-224 128-280 450-310 950-547 1414-831 255-156 877-654 1085-733 80-30 152-34 236-26Zm50 1534c180 193-570 452-697 525-543 309-1069 682-1604 980-158 88-477 274-629 328-93 33-106 63-179-36-30-157 482-324 606-397 701-414 1545-977 2256-1330 48-24 208-104 241-70Zm26 8908 86 208-3315 1375-85-208zm-13-677 95 190-3253 1687-98-190zm-447 2077c168 189-485 493-597 575-590 433-1256 1082-1871 1430-59 33-190 98-210-16-29-173 404-342 525-433 460-347 948-698 1431-1055 86-64 641-588 720-500Zm280-6388 134 184-2825 2060-133-184zm324-7037 102 192-3135 1682-102-192zM3166 13690l108 190L260 15612l-109-190zM17334 2218l117 190-2901 1796-117-190zm160-332 87 195-3188 1451-88-195zM3120 14161l112 193-2894 1710-112-194zm-20-2293c157 157-586 475-684 535-558 345-1103 728-1671 1055-128 74-713 424-486 39 39-66 239-101 327-151 719-416 1592-1078 2308-1422 47-23 173-90 207-56Zm-20-2824 115 196-2838 1674-115-197zm96 4123 113 194-2830 1683-113-194zm-66-319 103 204-2920 1494-103-204zm-33 1666 130 184-2570 1842-131-183zm120-3174c5 6 18 133-32 146-696 456-1427 860-2133 1300-50 32-706 590-700 303 2-79 1090-693 1256-799 346-220 676-433 1030-644 112-67 453-430 577-306Zm-280-3963 98 198L170 9002l-100-198zm154 3436 125 195-2741 1768-125-194zM17438 960l90 198-3047 1400-90-200zM3019 12382l105 193-2771 1506-104-194zm-14-2768c122 104-610 469-665 506-476 313-938 673-1419 972-80 50-640 384-674 343-133-140 438-400 523-458 308-210 593-378 907-576 304-190 836-620 1114-750a420 420 0 01 226-30M3000 8719l100 188L410 10340l-100-188zm40 1730 111 180L435 12280l-110-180zM2800 5500l102 180-2720 1562-104-183zm163 2840 92 197L420 9770l-93-197zm-82 1746 108 180-2600 1576-110-180zm-300-6800c-632 83-1603 756-2233 946-147 44-280 28-173-135 422-156 846-320 1258-500 386-170 965-508 1347-615 101-28 160-56 181 87-132 90-244 118-382 216 167-22 275-4 142 167L240 4942c-170 50-193-120-50-193a23925 23925 0 00 2384-1464m210-1302 90 178L240 3504l-90-178zM380 9182c-15-98 80-166 155-202 724-347 1528-569 2228-975 61-45 180-11 193 52 34 167-652 340-760 387-472 206-1114 564-1577 717-80 26-160 27-250 22Zm2347-6740 87 170L87 4017 0 3846"/></g></g></svg>
