<svg xmlns="http://www.w3.org/2000/svg" data-name="Layer 2" viewBox="0 0 177 205"><g data-name="Layer 1"><path fill="#2c7138" d="M165.57 9.5c.02-.21-.26-1.12-.33-1.16L11.67 9.8c-1.14 3.79 2.17 1.41 2.73 3.12.16.47.41 4.76.43 5.71.34 15.86-.48 32.14-.4 47.91.19 40.33 1.51 81.31.31 121.3-.05 1.48.44 3.23.24 4.82-.12.95-2.51 1.5-.52 3.33l148.37.66c1.24-2.11-.3-4.54-.37-6.46-.25-6.61.48-14.27.48-21.06 0-50.22-.39-100.57.26-150.46.03-1.97-.17-3.14.06-5.36.05-.43-.38-1.07-.29-1.39.24-.89 2.47-.57 2.6-2.43Zm-6 183.86-141.32-.69-.92-180.54 142.66-.43-.43 181.66Z"/><g fill="#cf3627"><path d="M170.89 167.1c1.59 1.5-6.17 5.22-6.92 5.75-4.96 3.52-9.77 7.85-14.58 11.24-1.14.81-4.78 3.45-5.73 3.84-4.84 1.98-4.39 1.42-8.74 4.88-.52.41-1.09.61-1.75.66-.1.9.97.4 1.44.25 3.95-1.3 8.24-3.73 11.87-5.82 1.67-.96 3.85-2.91 5.62-3.95 5.67-3.33 11.83-6.05 17-10.26l2.74-.36-1.45 2.14c-5.59 2.55-10.25 6.32-15.74 9.12.56.22.86 1.66 1.23 1.69 3.24.29 14.63-7.55 15.95-6.24 1.4 1.39-2.95 2.66-3.22 2.99-.37.46-.2 1.49-.73 2.15-.77.96-3.66 1.41-4.16 3 2.79 1.13 11.11-7.01 12.41-5.75 1.91 1.86-7.93 6.28-8.75 6.79-5.63 3.49-11.24 7.8-16.56 11.17-1.01.64-7.39 4.47-7.88 4.57-.38.07-.8 0-1.18 0l.47-1.91c-.46-.41-3.36 2.9-3.82.71-.32-1.5 3.94-2.89 4.77-3.83l-1.91-.24.48-1.43c-1.31-.33-.88.83-1.71 1.37-2.23 1.46-5.2 1.95-7.33 3.69-.61.44-1.81.11-1.93-.52-.32-1.6 5.3-3.56 6.64-4.34.43-.25 3.58-1.95 2.9-2.6-.5-.48-11.04 5.51-12.75 5.67-2.55.42-.3-2.28-1.8-1.82-1.7.52-5.83 4.63-7.37 5.07-.59.17-1.33.13-1.46-.53-.05-.24 2.41-3.94 2.59-4.1.89-.79 2.53-.67 3.58-1.2l8.38-6.45-25.38 10.48c-2.05.61-1.01-1.53.08-2.32 2.13-1.57 7.06-3.2 9.48-4.86l4.84-3.29c-4 1.45-7.92 3.21-11.8 4.93-4.14 1.83-3.96 2.21-8.54 3.01-1.28.22-5.84 3.13-6.39 3.09-1.42-.1 0-1.88 0-2.39-1.96.45-3.27 2.44-5.48 1.92l-.23-1.91c-1.18.59-5.05 3.7-5.04 1.18 0-1.34 5.3-3.09 6.66-3.87.67-.38 1.08-1.18 1.78-1.57 1.82-1.02 4.45-2.2 6.38-2.95.08-.93-1.5-.42-1.93-.26-4.17 1.59-10.93 4.62-14.91 6.6-1.66.83-2.57 3.36-5.12 2.77-.23-2.59 2.36-2.74 3.77-3.64 3.03-1.94 6.95-4.37 9.77-6.5.44-.33 1.5-.97.08-.88l-20.29 9.35c-2.79.79-2.19-.49-2.48-.63-.74-.37-9.03 6.3-4.92.39l20.76-14.39-28 17.2c-1.79-.01-.56-1.77-.65-1.86-.26-.25-4.38 2.88-3.82.24.22-1.04 13.19-8.53 14.8-10.31-7.19 2.71-13.82 6.76-20.68 10.19-.41.29-1.79.04-1.77-.4.05-1.97 4.59-3.69 6.19-4.79 2.45-1.68 4.99-3.48 7.19-5.48-.8-.14-1.41.2-2.08.54-4.42 2.28-12.11 8.13-16.42 9.41-1.38.41-2.2.04-1.33-1.34.56-.89 6.19-2.2 6.94-4.06.07-.37-.44-.3-.7-.23-3.14.81-7.13 3.85-10.28 4.6-1.09.26-1.39-.86-2.51-.72-1.6.21-4.22 2.76-6.09 2.58-.91-.63.57-1.58.99-1.89 5.07-3.8 10.9-6.73 15.72-10.81l-18.94 10.95c-1.7.01-.47-1.67-.64-1.85s-2.16 2.15-3.19 2.31c-1.37.21-1.79-.45-1.1-1.49.93-1.39 8.18-4 9.55-6.1-2.47.44-5.52 1.8-7.81 2.94-1.38.69-6.4 4.14-6.8 4.22-.75.14-1.47-2.41-1.47-2.61.02-.43 1.04-.98.79-1.18-.75-.62-5.99 3.1-7.02 3.27-.86.14-1.05.05-1.57-.64l31.77-17.49c3.36 1.51-3.04 3.07-3.61 3.58-.62.55-.31 1.69-.94 2.41-1.21 1.37-6.5 3.41-7.64 5.51l18.48-9.02c.5-.35 1.58.3 1.57.64-.02 1.01-10.55 6.86-11.92 8.15.94.14 2.66-.83 3.49-1.29 3.25-1.79 6.51-4.93 10.05-5.69 1.23 2.8 3.47-2.31 5.79-1.9.65.35.13 1.27-.2 1.72-.54.72-7.52 4.57-9.07 5.75-.54.41-.99.92-1.46 1.41l.71.23 14.92-7.58c1.79-.26 2 1.18.61 2.08 1.08.53 2.3-1.38 3.7-1.6 2.24-.35 4.62-.43 6.94-1.13 1.1-.33 4.26-4.8 3.94-.36-4.49 3.28-9.3 6.14-13.63 9.56 1.07-.17 2.33-.75 3.29-1.25 5.04-2.56 11.19-6.53 16.29-8.57 1.07-.43 2.41-.66 3.57-.73.45.02.3.85.19 1.14-.53 1.37-14.43 8.81-16.17 11.09-.07.36.45.3.72.25.43-.09 6.53-3.79 7.55-4.41 4.31-2.61 8.47-5.61 12.62-8.47.94-.54 1.77.66 2.27.71.54.05 4.07-2.32 2.38 1.13-.54 1.1-10.05 5.79-11.22 7.91-.07.37.44.29.7.23 5.16-1.3 12.32-7 16.83-8.03.52-.12 1.03-.15 1.56-.1l-.95 2.39c.55.4 5.42-2.39 6.37-2.95 1.25-.73 2.1-2.52 3.9-2.34.45.05 1.18.45 1.18.74 0 1.35-12.93 8.46-14.31 10.3 3.47-.87 6.71-3.12 10.02-4.56.66-.28 1.55-.2 2.34-.52 1.13-.46 4.11-2.45 4.7-2.53 1.01-.14 1.47.84 2.07.71.71-.16 1.88-1.51 2.81-1.99 1.11-.56 4.04-1.53 2.67.76-.64 1.06-6.94 3.44-8.51 4.3-.3.17-.37.77-.69.95-3.39 1.88-7.19 3.18-10.15 5.76l2.08-.54 21.17-11.83c1.47-.67 1.51 1.06.63 2.07-.39.45-5.91 2.74-7.11 3.4-1.68.92-3.86 2.27-5.3 3.54 1.25.09 2.29-.65 3.35-1.19 3.35-1.7 10.96-6.99 13.72-7.8 1.71-.5 2.08.08 1.11 1.59-5.11 2.95-10.41 5.54-15.63 8.27-.24.12-1.52.69-.87 1.05l21.24-9.87c2.18.45 3.57-.86 5.73-.67l-1.74 2.33c-4.58 1.96-8.78 4.6-13.19 6.89-.56.29-1.55.83-.12.84 3.23-.96 5.95-3.04 8.98-4.4 3.4-1.53 7.23-2.37 10.33-4.49 1.15-.78 1.97-2.39 3.35-2.88 1.89-.68 1.28.49 1.53.66.96.66 1.56-1.39 2.19-1.84 2.61-1.87 5.98-3.62 8.68-5.54 2.88-2.05 8.21-6.89 10.85-8.29.85-.45 1.59-.66 2.56-.54Zm-76.87 21.1-2.25.37L84 192.5l2.16-.46 7.86-3.85Zm61.6 2.87c-3.51 1.25-7.7 3.31-10.5 5.74a29.4 29.4 0 0 0 10.5-5.74M110.26.25c.56.55-.16 1.16-.59 1.58-3.5 3.46-9.93 6.34-13.79 9.65l-.9 1.23L113.85.37l1.18 1.07-12.88 8.87c6.17-2.73 11.83-6.61 17.9-9.59l.24 1.92c1.53-.18 1.88-1.64 3.61-1.89 1.01-.15 1.65.02 1.16 1.17-.58 1.36-8.47 4.2-9.54 6 4.21-1.11 7.91-3.95 11.85-5.6.99-.41 3.27-1.55 3.9-.39.05 1.14-7.47 5.27-8.95 6.32-.87.62-2.28 1.74-2.97 2.55l17.81-8.72c.7-.06 5.14-2.24 5.1-.62-.03 1.11-10.29 6.31-11.45 7.91 2.8-.85 5.65-2.16 8.3-3.41 1.72-.81 5.43-3.39 6.98-3.6.97-.14 1.2.49 1.67.54.91.09 3.37-.92 1.92 1.21-.25.36-1.76.4-.95.96 1.64.24 6.2-4.07 7.39-2.88.05.05.19 1.35-.29 1.47l-18.08 9.56c2.47-.7 4.92-1.74 7.25-2.79 5.58-2.51 10.09-5.32 15.97-6.57 1.27-.27 3.93-3.97 4.47-.24 1.26-2.11 4.8-1.95 2.32.42-4.18 4.01-12.03 6.69-16.45 10.81-2.13.2-5.25 4.25-6.97 4.51-.58.09-1.58-.12-1.57-.64.03-.91 10.31-6.87 11.98-8.11.53-.4 1.19 0 .9-1.23l-17.42 9.6c-1.36.19-.71-1.49-.02-1.95 4.15-2.17 8.5-4.31 12.19-7.17-5.51 1.92-10.86 4.49-16.1 7.1-1.79.28-1.2-.7-1.33-1.82-1.64 1.16-4.63 3.62-4.3 0l-5.01 1.92.95-2.16c.07-.36-.46-.31-.7-.23-1.2.39-6.93 3.77-7.88 2.87l.61-1.78c3.45-1.92 7.91-4.07 11.01-6.44.44-.34 1.5-.97.08-.88l-15.18 7.77c-.84.37-1.79.35-2.69.65-.79.26-2.74 2.33-2.23-.32.24-1.25 2.7-1.69 3.78-2.43.81-.56 1.31-1.38 1.99-1.84 1.64-1.11 3.69-2.13 5.4-3.22.97-.62 1.05-.61-.13-.61l-13.98 7.07c-2.31.7-2.08-.86-2.26-.85-.92.08-1.57 2.45-3.81 1.92-1.56-.37.45-1.71.7-2.39-1.52-.19-2.55 1.82-3.81 2.2-.21.06-4.14.33-4.3.18-.13-.12.36-1.99-.72-1.43-.66.34-1.2 2.6-3.34 1.92l.71-1.92c-.62-.46-4.95 3.54-6.44 3.35l.24-1.92c-1.39.17-2.7.12-1.68-1.45.47-.72 7.25-4.58 8.71-5.63.22-.15 1.5-.76.84-1.07-2.11.83-4.25 2.19-6.21 3.35-3 1.78-6.19 4.55-9.46 5.29-.53-1.43-1.81-.66-2.7-1.69 0-.59 6.24-3.82 7.32-4.63.44-.33 1.5-.97.08-.88-2.09 1.19-15.21 9.27-16.48 8.14-.14-.87.6-1.43 1.19-1.92 2.63-2.2 6.63-4.13 9.48-6.3.44-.34 1.5-.97.08-.88l-15.88 8.55c-.79-.27-2.76.02-3.25-.11-.24-.06-1.77-1.61-1.64-1.95.19-.48 1.64-1.13 1.18-1.7-1.2.65-6.97 4.65-7.87 3.84l.71-1.92-4.53 1.92-.23-1.91-5.81 2.82c-.91.38-1.03-1.52-1.36-1.39-.87.34-2.1 2.65-4.06 1.91l.48-1.43-2.86.47-.23-1.43L2.84 31.41l.97-2.13c5.33-2.97 10.23-6.81 15.73-9.38-.11-.99-1.67-.89-2.37-.75-1.89.39-14.67 7.65-15.29 6.98-.27-.29.03-1.69.77-1.86 4.65-1.64 8.76-4.56 13.55-5.81l-1.43-.48-.23-1.43c-1.39 1.05-10.78 7.57-11.7 6.7-.17-.85.41-1.2.98-1.65 1.92-1.52 6.57-3.2 8.08-4.95.3-.35.93-1.33-.24-1.08-1.45.57-2.89 1.82-4.27 2.43-.88.39-.87.82-1.68-.26.74-1.34 8.06-4.27 7.15-5.51l-2.86.72c1.75-.79 5.09-3.49 6.68-3.88.91-.22 1.57.27 2.36.04 1.22-.36 3.41-2.72 4.3-2.91.64-.14.9.89 1.91.55 1.35-.45 2.62-3.32 3.84-1.47l-5.72 4.55c2.6.23 8.22-4.78 10.21-4.33.33.07.3.84.38.88.96.49 3.28-3.01 3.98-.38.94-1.06 1.85-1.88 3.34-1.93s-.53 2.19.96 1.45c.25-.12 5.24-4.78 4.08-1.19-.05.16-2.29 1.35-2.88 1.91s-.81.82.24.72c1.48-.53 3.55-2.99 4.79-3.34 1.69-.48-.56 2.58.94 1.91 1.84-.83 2.91-3.62 5.5-2.87l.23 1.43 3.11-1.43c1.42 1.47-4.78 3.26-4.53 4.8 1.61-.41 8.31-4.62 9.2-4.19.1.05.09.63.2.67 2.62.82 2.43-.36 4.08-.72 1.05-.23 3.01.19 4.41-.55.32 2.27-2.74 2.47-3.81 4.08-.07.37.44.29.7.23 1.95-.47 6.11-3.76 8.12-4.8.77-.4 1.23-.65 2.16-.47.17 1.17.07 1-.58 1.58-2.25 2.02-7.26 4.05-10.04 5.72-.57.34-1.58.78-.11.85 4.13-1.73 7.85-4.37 11.84-6.33.81-.4 1.77-.38 2.59-.76 1.17-.54 3.53-3.44 2.76-.1l-9.07 6.71c3.28-.23 9.01-5.72 11.56-6.17.84-.15 1.55.36 2.2.26s1.57-1.26 2.7-.81l-.95 1.68c2.05.55 4.83-3.6 6.88-3.14.32.07.27.95.49.94.49-.02 1.97-1.2 1.71.28s-2.07 1.75-2.87 2.87c-.08.36.49.32.71.23 1.41-.58 5.56-5.06 6.68-4.79.7.17.38 1.8 1.44 1.43.44-.15 2.46-3.01 3.59-1.91Zm35.33 6.24c-2.39.77-5.48 2.26-7.73 3.49-.55.3-1.2.6-1.34 1.29l3.97-1.52zm-47.27.95-4.25 2.68-2.91 2.59c1.67-.59 3.49-1.9 4.92-2.96.77-.57 2.4-1.23 2.23-2.31Zm-66.36 4.32-6.37 3.43-1.27 1.35c2.7-1 5.56-2.8 7.64-4.78M14.61 51.38c-2.1 1.5-5.53 3.19-7.25 4.96-.54.56-.05.59.49.49 5.24-1.01 15.6-7.63 21.49-9.64 4-1.37 1.32 2.69-1.67 2.45-.14.89 1.16 0 .97 1.19-.28 1.77-4.31 3.12-5.9 4.16-5.38 3.49-10.7 7.39-16.12 10.67-.72.43-4.62 2.75-4.96 2.68-1.3-.26-.53-1.52.26-2.13 4.04-3.18 10.45-6.2 14.93-8.98 2.72-1.69 5.58-3.49 7.96-5.67l-23.17 9.6-1.19-.74c1.73-1.01 2.64-2.92 4.05-4.08 1.28-1.05 3.25-1.88 4.69-2.96 4.86-3.67 9.73-7.35 14.65-10.93-.79-.07-1.54.02-2.27.36-5.45 2.49-13.6 8.04-19.1 9.58-1.5.42-1.97.2-1.32-1.33l25.83-12.45c4.02 1.88-2.21 5.49-4.13 6.92-2.65 1.97-5.62 3.99-8.23 5.87ZM18.29 71.39c-4.26 3.08-8.66 6.17-12.59 9.65l.7.23 22.66-12.25c.99-.65 2.7.35 1.44 1.46L3.32 84.44c-.49.44-1.43-.17-1.45-.52-.06-1.2 2.83-1.47 1.52-3.3 7.15-5.29 14.37-10.9 21.82-15.92l1.47-1.63c-8.47 3.92-16.37 9.1-24.81 13.2-2.4.62-2.1-.79-.47-1.92l27.92-14.63c1.71 1.26-.19 1.6-.46 2.36-.2.56.39 1.27 0 1.92-.67 1.11-8.82 6.11-10.59 7.39ZM175.19 51.07c.44.45-.28 1.46-.71 1.92-1.85 2.01-7.29 5.55-9.82 7.39-5.41 3.94-11.32 7.19-16.2 11.77 6.2-2.97 12.52-5.72 18.64-8.84 2.9-1.48 5.76-4.23 9.05-4.1 1.9 1.7-7.42 4.75-8.07 5.08-8.52 4.29-16.76 9.21-25.33 13.41-.61.44-1.81.1-1.93-.52-.31-1.6 4.03-2.93 5.25-3.11l-1.43-.48c-.08-1.01.58-1.7 1.27-2.33 2.62-2.38 8-5.26 11.11-7.54 4.08-3 8.14-5.95 12.22-8.83.86-.61 4.85-4.97 5.97-3.83ZM151.95 47.88l-3.97 3.43c1.4.71 2.82-1.22 3.95-1.79 2.64-1.31 5.88-2.26 8.46-3.49 4.14-1.99 8.2-4.25 12.26-6.4 1.16-.1 1.53 1.43.64 2.1l-28.42 13.64c-1.76-1.59-.13-1.77.72-2.85-3.75-1.33 1.98-3.26 3.29-4.14 7.01-4.67 14-9.35 21.01-13.91.91-.59 6.17-5.93 6.73-3.3.1.68-.52 1.04-.98 1.4-7.17 5.61-16.05 10.21-23.69 15.29ZM161.52 88.17c-3.01 2.02-6.37 4.23-9.6 6.41-2.18 1.47-5.41 5.83-7.75 3.72l24.34-16.79c-1.66-1.02-2.85.65-4.1 1.15-4.33 1.73-8.78 3.29-13.08 5.09-1.41.59-7.06 4.01-8.12 3.11-.13-.87.81-1.75 1.47-2.12 3-1.72 9.14-3.44 12.71-4.98 5.87-2.53 11.64-5.41 17.61-7.75l1.15 1.18c-1.74.66-1.42 1.92-2.34 2.89-2.86 3.01-8.71 5.69-12.29 8.09M150.53 120.28c-.2.14-.33.72-.69.96-1.29.87-2.81 1.61-4.02 2.7-.65.75.46.53.87.39 6.25-2.2 13.01-6.43 19.09-9.12.87-.38 1.83-.28 2.69-.65 1.55-.67 4.52-3.33 6.25-2.36l-.5 1.42c-7.78 3.94-16.06 6.93-23.97 10.45-1.8.8-4.62 2.91-6.36 3.21-2.64.46-.52-2.65 1.22-2.38.11-1.05-1.93-.04-1.91-.72.02-.74 1.34-1.96 1.93-2.37 3.28-2.27 7.65-4.33 11.11-6.58 5.25-3.42 10.33-7.34 15.65-10.65.75-.47 1.78-1.06 2.34-.04.17.92-.13 1.12-.78 1.61-1.54 1.17-3.78 2.54-5.45 3.63-5.62 3.66-11.9 6.83-17.48 10.51ZM32.43 170.94c1.36 1.15-6.83 5.42-7.28 5.74-3.99 2.89-7.76 6.65-12.27 8.91l-2.89 2.6c2.49-.62 5.12-1.76 7.49-2.78 4.81-2.06 12.13-6.22 16.85-7.54 1.12-.31 3.42-.62 2.33 1.15-.22.36-6.65 3.05-7.72 3.52-5.84 2.53-11.99 4.51-17.85 7-1.57.67-5.99 3.36-7.1 3.44-.84.06-1.12 0-1.63-.71 1.36-.62 1.96-3.04 2.71-3.62 6.73-5.28 15.51-10.22 22.7-15.31 1.35-.95 2.02-3.1 4.66-2.4M5.7 175.73c-2.24-.09-2.26-1.02-.73-2.41 2.7-2.44 8.66-4.88 11.68-7.45 3.12-3.26 7.42-5.17 10.98-7.67 1.16-.82 2.62-1.86 3.37-3.08L3.05 169.49c-1.11.33-.76-1.17-.6-1.81 7.39-3.87 14.94-7.51 22.35-11.36 2-1.04 4.74-3.23 6.79-3.74 2.66-.67.24 1.94.36 2.05s3.11-1.09 1.42 1.67c-6.66 4.7-13.45 9.15-20.09 13.87-2.65 1.88-4.96 3.06-7.59 5.56.76.03 1.14 0 1.87-.26 5.41-1.93 12.75-7.24 18.16-10.07.96-.5 1.98-.54 2.84-.98.48-.25 6.76-5.03 6.73-2.35-.01.94-4.12 2.42-4.76 3.36.29.5 1.72-.64 1.91.49.3 1.79-5.05 4.02-6.45 5.02-.62.44-1.04 1.18-1.7 1.65-6.32 4.53-12.74 8.92-19.04 13.49-2.22.46-2.25-.5-.75-1.71 7.12-5.74 16.02-10.36 23.12-16.1.71-.57 1.32-1.23 1.95-1.88-2.07-.3-3.91 1.54-5.38 2.26-4.26 2.09-8.57 4.15-12.78 6.35-1.35.7-6.07 3.95-6.99 4.03-2.92.24.72-2.76 1.28-3.29ZM173.76 2.17c.38.38-.23 1.49-.69 1.94-2.34 2.23-6.85 3.69-9.33 5.97.39.71 1.25-.02 1.7-.22 1.4-.62 6.9-3.71 7.7-3.79.63-.06.73.25 1.11.66l-.49.94-25.75 12.51c-.48.48-1.43-.18-1.44-.51-.06-1.4 4.92-3.56 6.15-4.36 5.19-3.36 10.21-6.66 15.48-9.86.87-.52 4.68-4.17 5.56-3.28"/><path d="M143.68 173.33c4.11-1.4 10-5.39 13.99-7.77 2.97-1.78 7.76-5.51 10.48-6.73.75-.33 1.45-.45 2.26-.36 1.6 1.52-5.63 4.4-6.38 4.86-4.9 2.99-9.76 6.69-14.77 9.62-1.6.93-9.21 5.32-5.59.38-.8.27-2.52 1.6-2.86.23-.49-1.98 3.16-3.04 4.26-3.87 7.55-5.71 15.1-11.33 22.72-16.98.35-.26 4.05-4.36 4.53-2.15.41 1.85-5.98 4.92-7.4 5.99-7.2 5.38-14.14 11.27-21.25 16.78ZM175.53 63.61c1.02-.05 1.44 1.1.89 1.88-2.04.56-3.46 2-5.2 2.93-6.48 3.43-13.44 6.34-19.93 9.72-.76.4-8.4 6.07-8.55 3.39-.08-1.42 3.52-2.71 4.71-2.93l28.08-14.98ZM173.28 121.55c.01.65.12 1.32-.23 1.92-.24.41-6.07 2.73-7.19 3.32-5.41 2.87-10.87 6.54-16.1 9.27-1.76.92-5.36 2.93-7.01 3.49-.96.32-1.3.34-1.93-.52-.14-.68.76-1.29 1.26-1.6 5.03-3.18 11.92-5.82 17.21-8.61 3.48-1.84 8.48-5.54 11.74-6.9.76-.32 1.42-.49 2.25-.37M172.33 162.31c1.88 2.13-6.33 5.09-7.73 5.91-5.97 3.48-11.84 7.73-17.9 11.26-1.07.62-4.01 2.35-4.93 2.72-2.14.86-2.47-1.01-.42-2.35 5.1-3.33 11.56-6.27 16.91-9.39 1.4-.82 13.54-8.76 14.08-8.15ZM164.41 148.12c-3.06 1.69-6.49 3.59-9.7 5.36-1.84 1.02-13.21 8.51-14.37 7.38-.04-2.68 4.27-3.52 6.45-4.78 7.9-4.57 16.14-8.46 23.75-13.55 1.86-1.08 3.71.19 1.77 1.78-1.19.97-6.01 2.77-7.9 3.81M174.1 70.33c.92-.2 2.54.05 1.82 1.37-.59 1.08-19.31 9.13-22.12 10.39-.78.35-1.76.34-2.61.73-2.24 1.02-5.64 4.66-7.98 2.53.02-1.4 11.39-5.24 13.2-6.39zM174.18 89.85c-3.65 2.03-6.87 4.78-10.29 7.17-4.96 3.46-10.25 6.53-15.2 10.15-1.53 1.11-1.97 3.02-4.53 2.39l.71-1.92c7.16-3.94 13.23-9.44 19.85-14.11 1.56-1.1 3.76-2.08 5.4-3.22.94-.65 1.59-2.29 3.39-2.32l.68 1.86ZM175.19 94.7c.3.29-.06 1.21-.48 1.67-.25.27-5.38 3.3-6.24 3.8-7.42 4.26-15.08 8.66-22.54 12.85-.51.29-2.47 1.25-2.72.14l.77-1.61c4.32-2.14 8.58-4.44 12.74-6.86 3.85-2.25 7.58-4.56 11.47-6.71 1.27-.7 5.83-4.42 7.01-3.27ZM175.19 136.89c1.29 1.25-3.9 3.65-4.76 4.08-6.56 3.33-13.74 6.05-20.4 9.24-1.31.63-7.82 4.85-8.74 3.93-.23-1.36.21-1.41 1.09-2.01 1.96-1.34 5.42-2.22 7.68-3.32 6.15-2.98 12.23-6 18.39-8.86 1.11-.52 5.84-3.92 6.73-3.06ZM173.76 116.28c1.44 1.36-5.87 4.98-6.74 5.45-5.21 2.81-10.77 5.13-16.02 7.88-2.19 1.14-5.77 4.74-7.78 2.72.02-1.08 11.44-6.23 13.31-7.24 3.71-2 7.14-3.98 10.89-5.85 2.05-1.02 3.9-3.19 6.35-2.97ZM143.21 119.15c-.13-.96.8-1.62 1.46-2.12 3.09-2.34 8.18-4.73 11.68-6.97 4.6-2.94 9.1-5.87 13.75-8.73.62-.38 4.11-3.97 4.62-1.59.17.78-.67.95-1.08 1.3-5.71 4.86-15.79 9.69-22.48 13.87-1.35.84-6.5 5.49-7.95 4.24M175.19 47.24l-.69 1.94c-9.07 6.13-18.86 11.18-27.6 17.83-1.67 1.05-2.52-1.2-1-1.97 8.05-4.64 15.62-9.9 23.53-14.73 1.9-1.16 3.28-3.4 5.77-3.07ZM173.76 28.06c1.67 1.55-5.98 4.66-6.64 5.07-5.4 3.36-10.63 7.37-16.13 10.65-.71.42-5.62 3.18-5.87 2.97-1.07-.91.47-2.24 1.27-2.8 4.52-3.1 9.52-5.47 14.16-8.31 2.55-1.56 8.77-6.54 10.85-7.33.8-.3 1.52-.34 2.36-.26ZM174.24 43.4c1.81 1.93-5.68 4.52-6.95 5.25-5.41 3.09-10.67 6.82-16.02 9.8-1.58.88-4.77 2.74-6.29 3.28-.92.33-1.05.63-1.78-.36-.3-1.57 4.82-3.24 6.06-3.97 7.01-4.14 15.45-9.77 22.56-13.3.48-.24 2.08-1.04 2.41-.69ZM174.52 132.48l.86 2.08-33.15 13.75-.85-2.08zM174.39 125.71l.97 1.9-32.53 16.87-.98-1.89zM169.94 146.48c1.68 1.89-4.85 4.93-5.97 5.75-5.86 4.33-12.52 10.82-18.7 14.31-.56.32-1.88.97-2.07-.17-.3-1.73 4.03-3.42 5.24-4.33 4.6-3.47 9.48-6.98 14.31-10.55.86-.64 6.41-5.88 7.19-5ZM172.75 82.6l1.33 1.84-28.25 20.6-1.33-1.84zM175.98 12.23l1.02 1.92-31.35 16.82-1.02-1.92zM31.66 136.9l1.08 1.9L2.6 156.12l-1.09-1.9zM173.34 22.18l1.17 1.9-29.01 17.96-1.17-1.91zM174.93 18.86l.88 1.95-31.88 14.51-.88-1.95zM31.21 141.61l1.12 1.93-28.94 17.09-1.12-1.93zM31 118.68c1.57 1.57-5.86 4.75-6.84 5.35-5.58 3.45-11.03 7.28-16.71 10.55-1.28.74-7.13 4.24-4.86.39.39-.66 2.39-1.01 3.27-1.51 7.19-4.16 15.92-10.78 23.08-14.22.47-.23 1.73-.9 2.07-.56ZM30.8 90.44l1.15 1.96-28.38 16.74-1.15-1.97zM31.76 131.67l1.13 1.94-28.3 16.72-1.13-1.93zM31.1 128.48l1.03 2.04-29.19 14.94-1.04-2.04zM30.77 145.14l1.31 1.84L6.37 165.4l-1.31-1.83zM31.96 113.4c.06.06.19 1.33-.31 1.46-6.96 4.56-14.27 8.6-21.33 13-.5.32-7.06 5.9-7 3.03.02-.79 10.89-6.93 12.56-7.99 3.46-2.2 6.76-4.33 10.29-6.44 1.13-.67 4.54-4.3 5.78-3.06ZM29.17 73.77l.98 1.98L1.69 90.02.7 88.04zM30.71 108.13l1.25 1.95-27.41 17.68-1.25-1.94zM174.38 9.59l.9 1.98-30.47 13.99-.9-1.98zM30.19 123.82l1.05 1.93-27.71 15.06-1.04-1.94zM30.05 96.14c1.22 1.04-6.09 4.69-6.65 5.06-4.76 3.13-9.38 6.73-14.19 9.72-.8.5-6.45 3.84-6.84 3.43-1.34-1.41 4.37-4 5.22-4.58 3.07-2.11 5.92-3.78 9.06-5.76 3.04-1.92 8.36-6.23 11.14-7.51.74-.34 1.46-.44 2.26-.36M29.92 87.1l1 1.88-26.87 14.35-.99-1.88zM30.34 104.4l1.09 1.81-27.19 16.56-1.09-1.81zM27.95 54.96 29 56.79 1.82 72.42.78 70.59zM29.58 83.4l.92 1.97L4.19 97.7l-.92-1.97zM28.76 100.86l1.08 1.8-25.96 15.75-1.09-1.81zM25.75 32.85c-6.31.84-16.02 7.57-22.32 9.47-1.47.44-2.81.28-1.73-1.35 4.22-1.56 8.46-3.21 12.58-5.01 3.86-1.68 9.65-5.07 13.47-6.14 1.01-.28 1.6-.56 1.81.87-1.32.91-2.44 1.18-3.82 2.16 1.67-.22 2.75-.04 1.42 1.67L2.39 49.43c-1.68.48-1.91-1.21-.49-1.94 8.2-4.49 16.28-9.25 23.85-14.64M27.86 19.83l.9 1.78L2.38 35.04l-.9-1.78zM3.79 91.82c-.14-.98.82-1.66 1.56-2.02 7.24-3.47 15.28-5.69 22.28-9.75.61-.45 1.8-.11 1.93.52.34 1.67-6.52 3.4-7.6 3.87-4.72 2.06-11.14 5.64-15.77 7.17-.79.26-1.59.27-2.41.22ZM27.27 24.42l.87 1.71L.87 40.16 0 38.46z"/></g></g></svg>