<svg xmlns="http://www.w3.org/2000/svg" data-name="Layer 2" viewBox="0 0 17700 20500"><g data-name="Layer 1"><path d="m16529 815-15365 190c-117 283 129 198 217 262 74 55 72 500 73 620 50 4082-20 8073-17 12170 0 700 129 1592 82 2254-15 220-22 140-8 370 8 130-67 380-66 530 2 520 27 1020 9 1550-4 135 67 496 10 590-20 34-243 65-34 220 180 138 329 20 497 26 2102 59 4199 10 6302 20 2445 13 4913 68 7370 80 130 0 640 0 696-70l-6-18440c207 45 347-263 240-360Zm-579 18480-14142-15-94-18034 14290-96" fill="#f3b026"/><g fill="#2a7038"><path d="M15418 18040c-456 324-900 718-1432 841l-605 470 655-229 3012-1821c48-35 154 25 156 62 10 181-803 428-912 618l-855 508c114-60 157 90 174 90 422 53 1161-595 1594-626 70 247-291 255-326 297-30 28 0 142-80 235-100 121-589 272-700 450 84 73 204-92 300-130 170-70 294-81 484-181 235-124 466-418 718-383 100 189-143 226-248 304-640 473-1609 1048-2313 1490-256 159-530 292-786 456l-70-191c-598 253-229-190 94-311-130-38-169 0-144-168-129 116-953 566-1050 479 24-316 443-322 664-460l314-260c-300 20-516 218-770 329-80 36-537 239-567 236-142-13-20-217-140-180-160 54-790 570-887 480a800 800 0 01 667-602l840-644-2628 1100c-250-270 320-337 488-467l1042-634c-430 170-854 356-1276 540s-375 223-853 293c-200 29-420 257-594 269-163 12-5-135-50-194-166 70-665 394-405-47-67-45-735 458-614 127 72-197 450-228 607-351l795-497-1653 690c-140 188-625 450-390 27l1302-836-70-22-2070 948c-165 43-135-145-180-135-163 40-598 550-591 174 676-547 1474-956 2145-1516l-2750 1675c-173 0-58-177-70-190-25-27-290 267-382 71 3-94 1362-916 1530-1077l-1304 586c-200 96-660 430-840 458-130 20-210-74-110-160 372-253 793-493 1146-770 30-23 168-116 123-163l-1870 1050c-156 54-150-86-42-187 97-90 333-130 450-220l603-400c-333 68-1350 732-1620 674-30-7-30-80-40-86-65-34-495 213-597 265-212 108-190-102-30-173l1737-1158-197 65-1796 1075-85 10c-95-44 0-104-50-145-112 10-145 146-248 182-50 18-250 50-205-60l1028-690c-273 101-594 215-854 341-138 67-675 440-747 377l96-190h-140c-20-18 64-130 48-145-40-34-550 250-646 287-232 90-200-83-10-200 927-573 2047-980 2978-1570h164c32 227-475 284-516 344-26 38 0 135-53 210-84 118-632 332-720 546l1116-484c206-52 600-400 770-377 40 5 30 94 20 120-22 66-1033 624-1185 730-20 16-150 78-83 108 137-68 287-128 420-200 153-84 916-605 974-610 117-13 92 145 135 135 98-23 264-230 395-275 60-20 180-53 155 60-355 292-754 532-1137 781-90 53-104 75 12 60 428-75 1090-607 1506-747a613 613 0 01 240-20L5390 18800c100 72 226-115 332-148 130-40 213 20 295 3s160-140 266-157c68-12 137 37 207 18 126-34 182-287 403-220 65 36 15 127-20 170s-403 320-484 380c-228 163-554 320-796 493-40 24-140 22-40 102L7510 18430l367-86c150 157-566 485-666 554-146 100-310 253-458 356-170 120-426 220-550 383h73l2197-1340c124 266 116 8 360 47 202 195-762 538-795 710l-448 295c168-10 370-100 526-167 307-132 1062-605 1318-643 120-18 234-12 153 130-33 60-866 342-993 442-13 80 62 60 108 40 615-212 1269-610 1828-943 127-26 80 164 24 217-502 323-1000 633-1483 980 402-105 758-345 1138-510 139-60 535-256 630-283 135-40 210 38 300 20 77-15 198-156 288-193 48-20 328-100 273 34l-143 168c144 23 506-353 620-241 162 160-674 500-782 533-236 260-662 307-890 568 257-110 517-230 766-358 230-120 1216-732 1360-745 180-16 170 67 49 187-108 103-513 230-682 323-306 168-596 372-913 522l177-15 1876-898c120 37 613-200 623-46s-603 364-750 446c-217 124-432 313-683 393-14 83 115 50 157 38 168-52 440-253 626-335 322-143 825-277 1097-468 109-77 346-494 489-193 605-522 1298-925 1948-1388 50-36 72-110 140-157 299-206 466-90 159 157-438 353-1060 753-1525 1084Zm-3950 642-560 229-875 540a5270 5270 0 00 1434-760Zm4399 191-1255 682-131 130c503-177 1007-433 1386-812M9461 1296 11400 52c40-18 116 56 116 70 0 132-1114 706-1242 887 556-257 1085-591 1623-888 44-10 171-30 192-20 15 20-36 200 72 150 22-10 423-376 359-70-21 103-1213 715-1401 800l-343 230c816-290 1524-882 2366-1060l-94 170C12697 540 12350 770 12000 996c-20 13-140 90-70 114l1830-897c159-55 317-124 490-105 6 45 5 62-23 98-193 248-941 484-1172 765 316-98 626-250 925-390 129-60 517-308 592-320 120-22 294 65 444-8l-95 216c152 100 589-385 712-265 26 25-2 170-78 185l-2050 1060c354-100 693-260 1027-408 590-266 1000-471 1624-666 146-40 353-380 403-20 72-145 393-188 290 2-20 37-239 186-298 230-582 419-1282 819-1890 1207-29 20-42 80-69 94-149 74-330 101-230-98 421-298 985-550 1365-885 18-16 130-103 70-120-375 202-735 453-1105 663-86 50-186 60-272 110-208 120-404 365-653 328-145-132 576-424 655-470a4030 4030 0 00 588-390 11902 11902 0 00-1014 395c-78 34-703 437-705 203 0-22 138-93 70-120-146 55-240 238-426 192-150-37 32-135-2-192-190 51-340 222-550 193l144-215c-174-10-403 163-588 225-95 31-457 144-274-83 78-96 920-547 1108-663 32-19 140-35 64-79-725 231-1345 721-2080 911-14-94 10-130 70-194 120-122 546-320 710-430l344-287-1444 710c-200 48-142-65-163-79-70-48-123 72-190 107-217 116-353 93-184-163-120-15-165 130-284 170-135 41-334 24-480 70L9107 1500c-105 102-220 252-383 240l-47-192c-120 78-574 507-528 190 480-366 990-706 1503-1032l75-116c-574 320-1120 730-1673 1100-57-52-90-58-48-142 78-155 800-445 933-645l-72-24-1393 858c-92 30-90-115-120-135-31-23-230 117-210-53 13-100 626-394 760-485 50-33 150-96 10-87-540 293-1046 650-1627 860l-10-177L7310 950l-71-23c-212 118-451 284-660 393-63 34-150 30-221 65-144 75-670 463-806 390-12-8-7-80-30-79-46 3-102 57-185 45a960 960 0 01-130-125c-28-210 237-143 264-308a530 530 0 00-210 78c-110 68-524 385-608 398-175 27-57-180-66-187-50-46-322 192-430 143l95-190c-48-38-653 360-813 285l-23-143c-106 176-504 337-360 48-144 80-250 175-287-48C1924 2058 1197 2700 360 3122c-70 10-84 0-70-72 30-170 473-246 580-426l1141-700c-80 10-170-35-245-20-212 38-753 385-987 490-85 36-550 235-587 203l100-163L1580 1880c15-20-165-122 0-238-53-43-854 526-1003 600-50 24-265 174-288 45-20-112 310-216 398-270 130-83 413-257 502-360 30-34 107-135-15-110-103 174-900 413-488 134a3980 3980 0 01 607-327c26-265-312 170-287-94 222-7 550-335 715-362 58-10 92 65 148 53 138-30 398-340 546-317 28 4 22 106 48 100 157-44 290-380 454-170l-530 407c202 40 860-476 958-408 39 26 32 135 69 120 63-22 183-162 294-186 95-20 40 132 136 90 59-24 184-216 286-190 62 15 58 153 97 143 79-20 299-285 407-190 76 65-258 295-334 287-13 58 22 58 70 47 197-46 520-520 567-144 130-50 427-405 528-245 40 64-102 116-72 144 68 62 370-387 430-75L5300 775c375-85 780-536 1160-380 55 23 20 110 59 93 59-25 142-178 247-184 59-3 100 70 135 70 30 0 200-137 268-78 79 72-300 300-350 343-42 30-154 90-10 82C6955 680 7830 96 7882 150c55 60-34 143-78 186-264 254-892 490-1225 690-53 30-160 78-13 82 580-256 1110-602 1694-842 80-33 138-168 290-115 19 70-15 80-45 120-118 163-721 517-926 654-50 33-150 97-7 88 248-73 1082-700 1252-710 64-3 108 75 136 77s179-206 310-132l25 192c158-50 360-330 524-317 92 10 339 95 264 218 44 48 235-160 307-195 53-26 273-104 218 27l-143 145c197 53 330-356 549-312 144 30-10 153-48 190C10535 608 9869 861 9460 1300Zm4791-478-520 220-389 258c291-88 690-268 907-478M3798 973l-854 540 43 69 852-540zm-980 2909-14 278L663 5679l177-14 2103-959c448 7-21 245-224 279l144 47c142 130-557 436-638 487-521 331-1016 724-1547 1036-93 55-510 316-588 249l147-212 2291-1440c-83-38-237 32-320 63-470 179-947 399-1413 596-189 80-432 268-632 277-353 17 90-191 105-206 200-203 164-184 417-373 570-425 1143-850 1699-1291L160 5270c-208-223 207-275 330-340 397-206 743-350 1139-535 170-79 1093-607 1185-513ZM1584 7300c-267 193-598 431-863 640-40 31-135 34-35 110 478-213 939-463 1405-700l382-192c209-103 372-302 627-258 100 87-454 372-520 408-730 398-1520 687-2230 1124-295 19-77-254 120-239l-143-72c-3-143 852-675 1020-799 274-203 526-435 802-634 132-100 380-139 467-363l-2480 1320c-140 55-190-113-71-172 516-291 1063-531 1587-805 189-97 1140-680 1240-678 64 0 78 27 116 70-184 88-61 237-137 340-174 232-997 696-1280 900Zm15062-1436c-57 42-132 134-213 193-484 348-974 672-1462 1026-59 43-134 49-110 152 587-330 1216-578 1818-884 183-90 612-390 760-430 68-13 176-30 193 50 34 176-660 400-816 480-600 299-1206 676-1800 972-132 65-854 408-920 347 2-250 285-294 477-336-252-256 186-368 350-487 650-470 1290-948 1942-1407 121-84 490-460 601-450 61 7 91 123 48 192-20 33-540 404-630 470-72 52-163 67-238 122Zm1034-2795c50 47-20 140-78 184-585 445-1297 830-1917 1240-147 97-308 188-440 277a3207 3207 0 00-480 382c256-13 513-234 753-347 179-84 410-145 585-228s1209-676 1290-598l-95 210c-427 190-867 370-1284 580-436 212-936 560-1396 710-314 100-217-169 5-218 6-110-163 27-144-120 25-192 260-214 378-292 874-570 1732-1170 2588-1766 46-28 220-40 238-25Zm-230 4748c-9 17 36 75 28 106-40 152-2275 1536-2594 1755-70 48-117 139-198 185-258 145-325-38-113-207 810-452 1535-1031 2293-1558-567 219-1146 426-1707 660-153 64-553 320-670 337-173 25-210-104-59-204 217-142 967-367 1272-498 450-194 885-391 1340-575 190-77 410-324 587-128-22 66-172 110-180 127ZM3290 15233l-48 190h144l-70 194c-798 605-1658 1121-2482 1684-134 91-195 300-460 231-2-244 288-282 446-390 440-308 864-644 1300-950 340-238 750-415 1027-718-1012 377-1896 1087-2916 1436-25-264 353-294 538-395 684-375 1570-924 2264-1228a437 437 0 01 258-52Zm14151-4837c25 24-11 167-70 193-680 436-1360 870-2039 1310-226 147-560 260-712 507l2757-1238 110 184c-548 246-1115 460-1667 700-366 160-950 515-1293 620a630 630 0 01-240 20l190-191c17-77-136-61-141-120a494 494 0 01 126-160c795-460 1550-970 2329-1451 103-64 544-481 653-375ZM1000 18824l2424-1042c225-114 372 14 110 160-793 441-1940 794-2808 1160-150 63-310 282-492 81 163-66 182-235 260-314 60-70 522-360 650-450 634-460 1320-840 1908-1350 226-80 213 90 76 220s-554 360-745 500c-468 330-968 622-1384 1030ZM17395 243c18 120 5 100-58 158-243 221-667 356-897 608 152-60 325-106 473-173 156-70 568-422 525-73-743 355-1513 662-2252 1024-33 16-526 392-513 155 6-117 544-357 664-435 597-388 1216-896 1844-1218 77-40 124-70 216-50Z"/><path d="M17253 14994c154 150-609 559-693 622-412 314-807 669-1222 979-297 222-707 568-1023 747-53 30-183 78-217 46-158-151 540-491 605-542 380-297 763-580 1160-873 320-236 836-749 1143-915 56-30 202-108 246-64Zm430-8621c35 35-27 196-99 212-784 446-1632 800-2422 1214-58 30-879 624-873 322 110-196 320-190 480-276 734-380 1460-781 2200-1150 110-56 610-415 703-322Zm-335 5795c25 275-298 271-473 364-150 80-304 204-440 277-727 391-1468 761-2192 1158-51 45-137-12-145-52-34-165 483-329 607-397 718-398 1453-778 2182-1167 148-79 229-243 462-183Zm-95 4070c160 158-669 517-780 584-623 374-1230 795-1864 1149-52 29-615 372-605 159a1300 1300 0 01 194-187c787-528 1766-973 2594-1472 150-90 232-281 462-232Zm-430-1580c186-20 296 44 144 216-34 38-479 279-585 358-230 172-477 386-694 576-397 170-777 684-1160 836-97 38-125 40-190-47 90-213 301-257 473-388 686-517 1400-972 2022-1552-93 10-188 53-274 86L14200 16074c-262 14-113-172 27-261 502-317 1150-577 1675-860 196-106 1281-786 1380-772 152 21 10 199-77 259-143 99-222 70-380 218m621-5842c13 90-5 132-69 193-54 51-328 246-412 305-578 406-1194 776-1780 1185-112 77-630 586-749 471-76-74 140-268 194-308 665-501 1494-1020 2192-1492 210-142 362-401 626-355Zm-60-1762c100-27 313-11 205 110-86 93-514 286-655 352-579 273-1189 496-1772 763-90 40-814 508-827 273-9-173 602-333 748-399 628-283 1252-577 1876-850 126-52 326-221 429-249m84-2397L17600 4860l-3008 1920-128-202zm-3130 6697 97-213c834-430 1635-922 2450-1376 179-100 489-431 655-254 17 89-578 437-693 503-550 322-1160 598-1715 916-122 70-690 524-796 424m3203 2347c9 14 7 148-53 166-558 284-1140 519-1704 784l-814 382c-140 65-705 450-826 345-14-117 106-171 188-218 710-403 1743-834 2506-1177 128-58 598-380 698-281Zm-148-2060c48 46-20 141-78 185-546 414-1435 642-2014 1048-234 10-617 430-804 443-210 13-172-131-38-233 852-370 1632-868 2466-1265 88-42 356-284 467-178Zm-3202 3113c-15-15-7-147 48-167a46000 46000 0 00 2999-1258c636-27 12 244-231 347-660 282-1360 518-2031 790-132 53-693 380-787 289Zm3298-4837c13 98-80 160-146 212-148 117-407 274-575 382-537 342-1138 656-1684 995-132 82-483 397-591 415-205 33-162-125-32-225 280-217 845-472 1180-686 440-280 860-570 1310-842 180-108 269-311 539-250ZM3055 16480l191 46c140 140-603 522-714 602-678 483-1328 1007-2012 1481-57 60-187 3-189-47-8-166 2420-1655 2676-1964-136 2-338 100-462 160-518 246-1044 570-1532 821-175 90-882 530-613 90a26280 26280 0 00 1284-630c506-270 1076-667 1601-890 83-39 243-60 247 60 3 60-397 223-477 261m14267-13740 125 204-2879 1768-124-204zm170 9912c103 90-558 422-620 456-586 315-1218 573-1804 874-128 66-715 501-826 393l48-166c438-213 890-413 1322-639 485-254 1114-690 1606-880a544 544 0 01 273-38Zm-89-8357 109 192-3087 1765-109-190zm280-2993c88 77-403 355-453 383-598 337-1266 620-1875 947-59 30-831 594-826 320 0-113 1130-632 1320-733 460-252 1090-690 1550-882a559 559 0 01 274-34Zm-398 6966 131 180-2808 2040-130-182zm65-6036 115 187-2912 1800-115-186zM3245 13750c130 111-636 444-694 478-540 315-1070 666-1615 968-87 48-555 312-592 318-250 40-118-130 17-223 572-393 1377-760 2000-1110 153-86 762-535 885-430ZM17523 1883l88 193-3180 1448-80-193zM1110 14053c-18 8-26 67-76 92-118 60-740 380-800 322-17-17 2-142 44-170 904-470 1842-880 2727-1389l145 52c36 172-536 320-665 386-445 227-921 477-1375 707Zm15882 1712 118 195-2751 1663-118-195zM3198 14228c139 116-636 456-686 486-502 301-997 650-1497 943-95 55-527 306-587 323-204 58-162-131 0-239 593-395 1354-752 1989-1120 134-79 659-494 780-392ZM282 10827c-7-70 27-151 82-194 249-190 837-427 1146-611 475-282 941-596 1413-883 186-83 326 21 116 164-632 430-1343 771-2008 1149-134 76-640 474-749 374Zm2777 981 112 189-2887 1717-112-188zm144 1341 113 193-2838 1670-113-193zm-73-1880 113 180-2830 1770-114-189zm-40 3220 132 180-2573 1840-130-183zm-163-7130 100 194L150 9008l-98-199zM3100 10793l115 180-2777 1789-116-180zm14371-9830 84 184-3039 1401-84-190zM2934 9540l112 178L290 11465l-113-177zm120 2916c150 144-550 390-638 438-488 270-970 597-1448 848-113 59-453 230-555 260-206 59-119-128-13-205 340-247 972-487 1364-693 326-172 750-478 1064-610 51-21 198-64 225-37Zm2-2039 110 179-2715 1667-110-179zm-234-4930 104 183L180 7238 77 7055zm160 3218 101 190-2670 1423-100-190zm-120 1370 116 193-2597 1578-117-193zm114-1753 92 194L403 9784l-92-194zM2704 3230l105 173L152 5014 47 4840zm227-320 77 180L156 4317l-77-180zm-126-937 90 180L218 3514l-91-179zm126 5965 82 190L430 9247l-82-189zM2734 2430l88 169-2720 1407-90-170"/></g></g></svg>
