<svg xmlns="http://www.w3.org/2000/svg" data-name="Layer 2" viewBox="0 0 177 205"><g data-name="Layer 1"><path fill="#d03527" d="M165.12 8.03c-4.12.4-8.33.4-12.47.4-45.44.04-90.44.23-135.9.94-1.51.03-4.25-.97-5.26.93-1.3 2.43 2.21 1.58 2.71 2.22.24.3.43 5.75.44 6.64.22 29.72-.13 59.74-.05 89.26.05 17.99.07 34.78.07 52.37 0 9.31.15 18.76-.09 28.26-.03 1.18.51 2.24.43 3.27-.11 1.35-2.7 1.61-.67 3.74l149.08.91c.43-2.23-.64-4.4-.7-6.48-.69-24.76.63-50.37.67-75.36.05-32.53-1.14-65.22-.25-97.82.03-.97.05-5.85.27-6.05.17-.15 1.39.22 1.85-.07s.99-3-.14-3.17Zm-5.25 185.12c-.81 1.04-7.57.4-9.16.44-10.76.26-21.85.04-32.97 0-27.34-.09-54.2-.24-81.34-.48-6.17-.06-12.28.35-18.42 0l-.97-180.88 143-.43-.15 181.35Z"/><g fill="#f3af25"><path d="M171 167.09c1.51 1.46-6.5 5.67-7.29 6.23-6.2 4.49-15.12 12.65-21.96 14.67-2.71.81-5.63 4.82-8.56 5.49-.12.85 1.1.49 1.56.37 5.88-1.59 17.27-9.02 23-12.45 3.37-2.01 8.7-6.34 11.94-7.7.76-.32 1.43-.48 2.26-.37 1.51 1.29-6.66 4.78-7.14 5.08-.66.4-1.09 1.14-1.79 1.56-2.7 1.63-5.52 3.15-8.3 4.63.57.22.86 1.66 1.23 1.69 2.37.19 9.18-3.37 11.64-4.62 1.22-.62 3.62-3.29 4.6-.67-.58 1.41-3.25 1.65-3.5 2.02s0 1.35-.53 2.1c-.87 1.23-5.9 2.7-6.74 4.52 3.18-1.01 6.54-2.4 9.52-4.13.81-.47 4.39-4.02 5.32-3.06.16.17 0 1.49-.24 1.91-.92 1.57-6.71 3.9-8.45 4.83-5.59 3.59-11.25 7.81-17 11.4-1 .62-7.14 4.39-7.58 4.41-1.7.06-.6-1.81-.71-1.93-.2-.21-2.97 2.55-3.34.71-.29-1.41 3.66-2.73 4.3-3.83-1.29-.37-1.69-.01-1.44-1.68-.98 1.15-10.1 5.69-10.52 5.28-1.75-1.69 5.67-4.47 6.37-4.88.83-.49 2.81-1.83 2.95-2.8l-12.93 5.77c-2.06.04.03-2.34-1.41-1.91-2.22.66-5.44 3.94-7.59 4.88-1.82.8-1.21-.96-.58-2.03 1.52-2.59 2.97-2.97 5.69-3.89l8.45-6.16-26.55 10.55c-2.27-2.47 4.32-3.42 5.74-4.79l10.52-6.25-13.29 5.39c-2.82 2.47-5.43 2.49-8.54 3.03-1.23.21-5.76 3.45-6.64 2.62l.23-1.92c-1.84.33-3.02 2.28-5.02 1.92l.95-2.39c-.6-.48-3.83 2.01-4.67 2.28-.39.12-2.49.56-2.03-.59s9.77-5.5 11.65-6.56c1.61-.91 3.19-2.56 5.33-2.81.79-.63-.56-.56-.92-.45-2.69.79-5.27 2.56-7.83 3.67-3.03 1.32-6.93 2.57-9.86 4.03-1.54.77-3.02 2.97-4.35 2.86s-1.29-.96-.58-1.82c4.12-2.43 8.3-4.92 12.25-7.62.12-.08 3.51-2.23 1.73-2.11l-16.53 7.9c-1.17.04-6 2.85-6.68 2.16l-.25-1.43c-.98.63-4.9 3.53-5.74 3.36-1.21-.26-.19-1.74.26-2.14 4.81-3.35 9.95-6.35 14.77-9.66 1.66-1.14 3.68-2.6 5.27-3.84.2-.15 1.38-.94.75-1.16l-27.76 17.27-.24-2.39c-.27-.3-4.26 3.62-3.6.47l14.61-10.06c-.95-.23-1.42.16-2.15.48-5.24 2.23-13.58 8.03-18.42 9.36-.99.27-2.59.67-1.9-.94.56-1.31 11.8-6.82 12.9-9.37l-18.52 9.99-1.57-.64c3.68-2.55 7.9-4.58 11.83-6.85 1.06-.61.94-.73-.13-.61l-15.79 7.21c-.52-.21-.56-1.41-.93-1.4-1.8.05-9.6 6.08-6.74 1.4l17.96-11.98-20.39 11.95c-1.82-.05-.58-1.82-.67-1.88-.79-.53-2.52 2.56-4.54 2.4-.42-.03-.33-.93-.22-1.18.24-.57 8.94-5.52 10.35-6.42.22-.14 1.54-.69.87-1.05-3.89 1.69-8.35 3.18-12.05 5.19-.84.46-3.75 2.97-4.22 2.96-1.28-.05-.26-2.01.24-2.38H9.68c-.21-.17.64-1.3.48-1.44-.58-.51-7.54 3.96-8.13 3.35-1.59-1.63 5.56-4.16 6.55-4.7 3.83-2.1 7.75-4.03 11.64-6.08 2.52-1.33 11.8-7.19 13.63-7.45.72-.1.85-.01.72.73-.38 2.3-3.62 1.98-4.83 2.88-.53.4.15 1.23-.39 1.93-1.05 1.35-6.21 3.25-7.24 5.5 4.05-1.79 8.27-3.33 12.27-5.2 1.33-.62 4.72-3.04 5.4-3.23.63-.18 1.48.02 1.46.52-.03 1.02-11.29 7.61-13.03 8.41l-2.27 1.9c1.89-.4 4.29-1.78 6.07-2.78 1.44-.81 10.48-7.01 11.16-6.33l.24 1.44c.69-.46 5.99-4.88 5.98-2.64 0 .71-10.08 6.79-11.64 7.99-.44.34-1.51.97-.08.88l16.37-8.08c1.56.21 1.28 1.3.16 2.09 1.35.79 2.75-1.41 4.17-1.59s5.43-.46 6.71-.92c.93-.34 2.32-2.49 3.25-2.4.37.03 1.42.79.73 1.56-3.36 3.72-10.76 6.49-14.37 10.3l20.58-10.31 3.11-.73c.45.02.3.85.19 1.15-.31.81-8.82 5.8-10.36 6.86-1.18.81-2.69 2.23-3.82 3.04-.72.53-1.94.65-2.51 1.67-.07.36.46.31.71.23 2.49-.77 12.3-7.34 15.24-9.2 1.22-.77 6.46-5.28 7.5-4.22l.25 1.43 2.4-1.42c.34.34.83.59.71 1.18-.25 1.21-9.95 6.34-11.17 8.23.03.22-4.06 1.27-2 1.6l19.27-9 1.56-.11-1.43 2.39c.7.51 5.82-2.35 6.86-2.95 1.15-.67 2.28-2.64 3.9-2.32.89.18.56 1.33.12 1.8l-15.67 10.19c1.37-.1 2.91-.78 4.16-1.34 2.17-.99 14.56-7.22 15.7-7.08.41.05.85.79 1.37.7.67-.11 3.83-3.43 5.57-2.82l-.98 2.14c-5.35 2.67-10.75 5.52-15.77 8.66-.07.36.46.31.71.23 5.74-1.8 12.76-7.14 18.18-10.08 2.82-1.53 4.43-.31 1.93 1.46-.93.66-1.92.61-2.76 1.07-4.31 2.32-8.64 4.85-12.79 7.33-.07.36.46.31.71.23 6.14-1.92 13.12-7.48 18.89-10.33.9-.45 3.41-1.39 2.51.59-.62 1.37-5.83 3.04-7.54 3.96-.81.44-1.44 1.26-2.18 1.65-2.67 1.42-5.79 2.41-8.08 4.37 1.03.22 2.7-.68 3.67-1.12 6.62-2.98 13.96-7.76 20.91-8.88.33-.05 3.88-1.79 3.18-.09-.65 1.56-3.21 2-4.46 2.73-3.93 2.3-7.98 4.62-11.81 6.88-.07.36.46.31.71.23 3.99-1.27 9.62-4.59 13.65-6.47 1.06-.49 2.29-.52 3.3-1.01 1.93-.95 6.22-4.8 7.48-4.77.35 0 .71.75 1.18.53.93-.43 3.9-3.22 5.11-4.03 4.7-3.14 9.34-6.25 14.01-9.47.71-.49 3.34-3.57 4.33-2.61Zm-12.45 22.07-12.08 6.36-1.32 1.31c4.83-1.44 9.83-4.12 13.4-7.67m-67.96.48-2.26.37-5.39 2.98c2.59-.37 5.59-1.74 7.66-3.35Zm65.09 4.8c-2.33-.07-3.73 1.77-5.38 3-1.23.9-2.83.87-3.23 2.75.26.25 5.25-3 5.9-3.44.89-.6 2.1-1.44 2.72-2.31ZM100.64 3.46c1.81-.99 3.27-2.52 5.26-2.4l-.95 1.68c1.38.63 2.95-2.06 4.16-2.55.52-.21 1.85-.49 1.58.62-1.54 1.34-3.18 2.6-4.82 3.8-3.4 2.48-11.62 6.97-13.84 9.88.72-.39 2.1-.46 2.83-1.24L113.81.59c1.61-.22 1.56.35.46 1.42-2.28 2.22-7.84 5.04-10.77 6.98-.24.16-1.86.42-.95 1.18.76.64 15.34-8.9 17.56-9.54.95-.34.91 1.4 1.35 1.39.94 0 1.93-1.74 3.33-1.45.36.08 1 .83.26 1.21l-14.85 8.86c5.99-1.92 11.52-5.89 17.23-8.39.55-.24 1.6-.48 2.25-.63.36-.08 1.37-1.03 1.57.15.14.79-.8 1.21-1.28 1.59-2.74 2.15-6.94 4.34-9.95 6.34-.51.34-2.08 1.22-1.93 1.91L141.56.57c1.02-.23.83.65.61 1.35l-12.34 7.76c1.43-.08 2.85-.79 4.15-1.35 2.58-1.12 9.59-5.38 11.52-5.77.2-.04 3.97-.11 4.18-.07.14.03.95.69.5.96l-1.2 1.43c2.04.14 5.06-3.33 6.93-2.87.47.11.89.63.24 1.19-4.74 3.98-13.39 5.47-18.18 9.84 6.31-2.15 12.23-5.13 18.37-7.73 2.84-1.2 2.57-.92 5.11-1.58 1.13-.3 1.59-1.87 3.06-1.73.6.06 1.11.77 1.48.8.18.01 3.12-1.64 3.09-.07-.02 1.49-22.13 14.05-24.71 16.5-1.41-.09-1.13-1.1-.3-1.89l10.63-6.48 5.3-4.04c-2.83 1.13-6.05 2.85-8.78 4.39-1.74.98-11.81 7.61-12.54 7.59-.48 0-1.17-.45-1.17-.71 0-1.34 12.06-6.6 13.39-8.39-2.85-.16-15.7 7.44-16.98 7.19-1.12-.22-.19-1.45-.5-1.92-1.08.24-3.9 3.09-4.49 1.16-.13-.42 1.15-1.39-.29-1.16-.96.15-4.17 2.3-4.54 1.92l.95-2.16c-1.32-.73-7.81 3.45-8.61 2.64-.27-.27.05-1.68.78-1.85l11.66-7.26-20.34 9.12c-1.04.25-.93-.86-.5-1.46.46-.65 3.4-1.74 4.32-2.38l5.98-4.79c-3.07 1.17-6.25 2.54-9.21 3.96-1.54.74-4.25 3.13-5.81 2.77-.35-.08-.28-.84-.37-.89-.7-.47-3.03 2.69-4.71 1.83-1.02-.93 2.67-2.45.72-2.4-2.75 2-4.52 2.45-7.9 2.4-.11-.78.52-1.34.95-1.92-1.61.88-5.45 4.52-4.56.94 4-2.24 7.81-4.93 11.26-7.9L98 7.31c-4.78 2.39-10.54 8.78-15.22 10.65-.66.26-1.81.46-1.77-.34.07-1.21 17.89-11.67 19.61-14.16-1.92 1.05-3.77 2.13-5.69 3.17l-14.17 9.8c-.41.16-1.19-.57-1.19-.74 0-.95 9.97-6.18 11-7.91-3.21.69-5.91 3.33-8.66 4.98-1.42.85-3.19 1.53-4.71 2.48-1.1.68-1.51 2.16-3.37 1.64v-1.44c-.09-.1-3.02 1.36-2.4-.23.51-1.31 8.8-5.33 10.52-6.49.14-.58-.23-.59-.71-.47-2.53.59-8.47 5.05-11.24 6.5-1 .52-7.14 3.6-7.67 3.1-.15-.87.61-1.43 1.19-1.92 2.79-2.33 6.87-4.13 9.68-6.58.32-.28 1.37-.32.37-1.1-3.88 2.09-7.66 4.65-11.61 6.59-3.23 1.59-5.53 3.05-9.21 2.04 1.06-1.29-1.01-.65-.45-2.13.24-.65 4.05-1.89 2.14-2.18-2.19.97-5.98 4.37-8.14 4.8-1.58.31-.06-1.47-.49-1.93l-3.83 1.91.72-2.38c-.63-.45-2.28 1.23-3.01 1.54-.87.37-1.81.34-2.7.65-.49.17-2.7 2.25-2.41.47.12-.7 1.05-1.38-.25-1.22-.47.72-3.33 3.15-4.07 2.4-.48-.48 1.34-2.09-2.39-.96.03-.44-.13-.94.1-1.35.32-.56 9.47-4.99 10.42-6.57l-.71-.23c-4.33 2.29-8.26 5.73-12.35 8.25-6.06 3.73-12.27 7.66-18.38 11.32-.53.32-4.48 2.92-4.44 1.29 1.46-2.32 16.72-10.03 16.73-11.04 0-.09-.98-1.24-1.45-1L2.25 25.98c-.64-.62-.89-.47-.25-1.2s8.03-4.08 9.59-4.78 3.16-1.27 4.77-1.69l-1.44-.48.48-1.43c-1.95-.03-11.44 7.63-12.44 6.71-.47-.44.62-1.35.98-1.65 1.46-1.18 7.59-4.09 8.1-5.31.2-.96-.41-.86-1.09-.61-1.3.48-3.33 2.34-4.42 2.77-.93.37-.93-.97-.65-1.37.23-.32 6.17-3.04 6.89-3.89 1.66-1.97-2.21.2-2.64-.25 1.76-.97 4.87-3.48 6.69-3.87.81-.17 1.41.34 2.37.03 1.32-.43 3.38-2.87 4.58-2.67.26.04.2 1.03.47.99.89-.15 3.18-2.91 3.84-2.87.31.02.97 1.05.71 1.42-.2.29-6.26 3.46-5.74 3.84 2.01.77 9.76-5.13 10.53-4.32l.24 1.44c1.16-1 3.79-3.11 4.31-.96 1.08-1.19 3.63-3.45 3.83-.48.27-.07 5.42-4.34 4.05-1.22-.26.59-1.9 1.29-2.54 1.77-.44.33-1.5.97-.08.88 1.24-.1 4.66-3.37 5.28-3.34 1.27.07-.38 2.56.95 1.9 1.46-.72 2.85-3.45 5.03-2.87l-.95 1.68c.67.81 1.49-.72 2.22-1.14 2.17-1.25 3.11-.07 1.3 1.31l-4.71 3.44c2.19.02 8.41-4.63 9.64-4.72 1.55-.12 2.64 1.9 2.8 1.83.99-.44 2.92-3.59 3.83-.96.61-1.46 4.05-1.76 2.65-.23-2.6 2.83-7.74 4.48-10.54 7.19-.07.36.46.31.71.23 2.3-.72 9.53-5.58 12.47-7.18 1.68-.91 2.73-2.84 5.01-2.41.17.87-.43 1.19-.98 1.65-3.11 2.53-8.69 4.61-12.26 6.9-.22.14-1.54.68-.87 1.05 5.25-1.96 9.89-5.16 14.88-7.63.81-.4 1.73-.44 2.54-.81.69-.32 1.46-1.51 2.27-1.58 1.28-.11 1.23 1.04.17 1.63L74.3 10.15c2.65.16 13.61-8.08 14.75-7.08.21.18-.12.92.32.84.39-.83 2.5-2.02 3.11-1.44.83.79-.58 1.37-.64 1.45-.51.66-.28.67.39.46 2.03-.61 4.8-3.63 6.19-3.39.31.06.23.98.56 1 .95.05 2.83-1.3 1.63 1.44Zm46.91 1.92c-4.83 2.03-10.37 4.67-14.84 7.43-.51.32-1.32.47-1.43 1.2l14.95-7.32zm-112 3.84-6.64 3.66-4.85 3.53c4.03-1.24 8.32-4.4 11.48-7.19Zm6.7.48c-4.09 1.8-7.97 4.44-11.49 7.19 4.05-1.62 7.99-4.55 11.49-7.19m-17.23 1.44c-3.06.78-6.61 2.74-9.09 4.79l2.1-.53zM6.35 57.19l22.84-9.97c4.66-.54.29 2.24-1.77 2.3-.25.79.92.23.98.72.27 2.07-4.58 3.8-6.19 4.85-4.78 3.1-9.42 6.72-14.25 9.7-1.52.94-9.17 5.75-6.16 1.5 7.8-5.25 16.4-9.41 23.71-15.33-4.49 1.49-8.91 3.31-13.26 5.17-2.99 1.28-6.84 3.63-9.69 4.68-.42.16-1.86.53-1.94-.02-.27-1.86 1.38-1.37 2.16-2.17 1.89-1.95 1.54-1.78 4.03-3.63 5.59-4.17 11.18-8.29 16.79-12.43-1.37-.95-2.25.6-3.23 1.08-6.29 3.08-12.77 6.43-19.26 8.75l.69-1.94 24.33-11.61c1.18-1.05 2.2.78 2.09 1.81-.18 1.64-19.67 13.84-21.85 16.54ZM29.8 60.08l-1.43 2.16c-.13.35 1.86-.07.49 1.45L5.4 81.19l23.9-12.27c.78-.53 1.87.41 1.24 1.26-6.85 4.1-14.21 7.21-21.34 10.76-2.32 1.16-4.32 3.53-7.16 3.14-.42-1.36 1.66-1.68 1.87-1.99.18-.28-.41-1.04-.33-1.54.15-.93 9.73-7.08 11.34-8.26 4.05-2.98 8.05-6.21 12.01-9.31-2.62.95-5.53 2.43-8 3.73-5.01 2.65-12.29 7.86-17.35 9.48-1.92.61-1.99-.28-.76-1.72l21-10.62c1.4-.62 6.77-4.78 7.98-3.75ZM175.16 52.75c-2.35 1.12-4.05 3.18-6.1 4.67-1.26.92-2.83 1.81-4.32 2.87-5.72 4.1-12.22 7.8-17.2 12.74 2.47-1.16 4.89-2.73 7.33-3.92 1.94-.94 4.16-1.56 6.09-2.53 3.48-1.75 10.14-6.26 13.37-7.23.64-.19 1.26-.31 1.93-.22.16 1.07-.17 1.52-.97 2.14-1.34 1.04-6.08 2.5-8 3.47-3.9 1.98-8.04 4.58-12.07 6.63s-8.33 4.1-12.43 6.26l-1.47-.53c.03-2.22 4.42-2.4 4.78-3.35.17-.44-1.1.14-.97-.96.11-.78.67-1.22 1.21-1.68 3.11-2.64 8.43-5.15 11.69-7.95 4.75-3.55 10-8.26 14.9-11.45 1.52-.99 3.52-1.18 2.22 1.04ZM160.13 42.48c-2.16 1.43-4.49 4.04-7.3 4.91l-6.47 5.03 14.92-6.64c1.92-.91 11.9-6.85 13.07-5.84-.52 2.72-4.85 3.13-7.04 4.21-1.27.62-2.53 1.29-3.82 1.93-2.32 1.15-17.67 9.81-18.81 8.73-.37-.88.8-1.76.79-2.16-.01-.36-.82-.82-.74-1.37.12-.88 11.25-7.36 13.03-8.56 5.42-3.65 11.33-8.6 16.91-11.83 1.86-1.08 2.83-.04 1.09 1.57-4.45 4.12-10.64 6.74-15.62 10.03ZM174.95 77.95c-.31.52.02 1.36-.59 2.04-3.33 3.74-14.37 8.38-18.57 12.07-1.8 1.83-4.39 3.01-6.57 4.47-1.4.94-2.16 2.92-4.54 2.4l.71-1.93 12.56-8.04 11.61-8.27c-5.67 1.44-10.85 4.31-16.17 6.57-.58.25-1.41.11-2.02.37-1.23.52-6.73 4.04-7.65 3.12l.48-1.67c10.28-3.81 20.21-8.47 30.25-12.87 3.88-.31.78 1.27.51 1.71ZM32.2 170.92c1.45 1.42-5.63 4.69-6.46 5.28-3.58 2.54-7.08 5.44-10.6 8.08-1.59 1.19-3.68 2-4.95 3.91 2.5-.62 5.14-1.76 7.51-2.78 5.02-2.16 11.87-6.05 16.89-7.54 1.69-.5 2.77-.35 1.43 1.43-8.26 3.71-16.78 6.82-25.13 10.32-1.69.71-5.1 2.82-6.43 3.16-.68.18-1.76.34-1.93-.51-.09-.48 2.31-2.33 2.41-3.33 5.04-3.38 10.26-6.63 15.27-10.13 2.56-1.79 7.14-6.13 9.43-7.34.86-.45 1.59-.66 2.57-.54ZM163.82 9.7c-.11.88 1.03.44 1.46.26 1.29-.54 7.89-4.14 8.36-4.09.2.02.88.78.71 1.18l-.79.66-26.49 12.06c-1.19-1.09 6.92-5.09 7.62-5.55 5.97-3.94 11.69-8.19 17.88-11.83.54-.66 1.8-.11 1.78.35-.05.86-8.98 6.36-10.52 6.96Z"/><path d="M172.43 150.29c.28 2.62-2.64 2.85-3.95 3.83-6.42 4.73-12.98 10.09-19.05 15.1-2.16.82-5.04 3.9-6.83 4.68s-1.54-1.27-.09-2.49c1.72-1.45 3.99-2.97 5.74-4.3 3.29-2.52 6.95-4.53 10.27-7s7.8-7 11.06-9.07c.94-.6 1.71-.89 2.85-.74ZM176.03 63.6c.52.06 1.39.8.72 1.52s-4.24 2.55-5.44 3.19c-6.25 3.37-13.05 6.1-19.33 9.41-1.6.84-5.77 4.13-7.18 4.34-2.28.33-1.72-1.35 0-2.41 3.57-2.2 9.01-4.16 12.94-6.22 4.17-2.19 8.06-4.35 12.24-6.45 1.3-.65 5.02-3.5 6.05-3.38M147.85 108.36c-.87.6-1.73 1.43-2.93 1.14-.38-.09-1.01-.83-.25-1.2 9.5-6.71 19.17-13.45 28.58-20.32l1.57.65c.14.64-.56 1.07-.98 1.4-7.95 6.21-17.57 12.46-25.99 18.32ZM141.33 139.73c-.23-2.75 2.21-2.47 3.67-3.27 4.82-2.65 9.62-5.03 14.45-7.58 4.34-2.29 8.54-4.96 12.85-7.29l1.56.64c.15.69-.79 1.3-1.26 1.6-3.93 2.5-10.08 4.85-14.37 7.18-1.95 1.06-15.98 9.66-16.9 8.72M172.91 162.77c1.34 1.13-7.16 4.96-7.81 5.36-5.44 3.26-10.75 7.01-16.17 10.18-1.23.72-6.23 3.69-7.09 3.93-2.04.58-1.62-1.31 0-2.4 8.03-5.34 17.79-10 26.23-14.97 1.56-.92 2.3-2.74 4.84-2.1M173.39 142.13c1.72 1.66-6.89 4.83-7.82 5.35-5.8 3.21-11.48 7.01-17.21 10.1-1 .54-7.04 3.74-7.51 3.26-.08-2.69 4.04-3.37 6.17-4.61 3.8-2.21 7.62-4.13 11.49-6.24 3.66-1.99 9.21-6.06 12.63-7.49.76-.32 1.42-.49 2.26-.37ZM143.72 85.99c-1.78-1.59 7.23-4.37 7.98-4.71 7.6-3.46 15.12-7.24 22.63-10.91l1.94.52c.21 1.05-5.82 3.82-7.08 4.41-5.59 2.63-11.55 4.7-17.19 7.24-1.39.63-7.16 4.45-8.28 3.45M143.24 113.34c-.12-1.21 1.28-1.87 2.14-2.41 5.97-3.79 12.96-7.06 19.09-10.61 1.49-.86 8.81-5.62 9.67-5.68.58-.04 1.64.19 1.64.71-.01 1.11-14.62 8.48-16.69 9.65-3.75 2.11-9.52 6.5-13.1 7.98-.92.38-1.77.44-2.75.36M175.17 136.31l.96 1.99-34.06 16.42-.95-1.99zM32.67 152.69l-.95 1.91h2.39c.16.95-.63 1.37-1.21 1.91-1.49 1.37-4.06 3.04-5.8 4.27-6 4.22-12.67 8.11-18.8 12.33-.45.31-3.86 4.17-4.33 1.88-.32-1.54 3.2-2.65 3.99-3.19 5.68-3.85 11.06-8.26 16.7-12.07 2.16-1.46 5.12-2.15 6.58-4.64L2.76 169.47l-.49-1.44 28.14-14.97zM159.69 58.34c-2.05 1.29-4.39 2.84-6.56 4.21-1.43.9-6.5 5.48-7.97 4.24-.1-1.09 1-1.78 1.75-2.32 7.42-5.32 17.14-10.7 25.02-15.7.78-.5 1.13-1.53 2.19-1.66.56-.07 1.67.23 1.66.73-.02 1.32-13.99 9.18-16.09 10.5M174.83 132.57l.82 2.02-32.98 13.52-.82-2.01zM174.48 98.4l1.13 1.82-31.31 19.57-1.14-1.82zM143.72 133.01c-1.6-1.46 6.85-4.57 7.68-5.01 5.44-2.89 10.74-5.98 16.2-8.71 1.05-.52 6.29-4.45 6.75-2.34.18.83-3.59 2.71-4.46 3.19-6.01 3.36-12.45 6.03-18.53 9.25-2.54 1.34-4.68 3.94-7.63 3.62ZM145.63 124.38c-.63.05-1.28-.03-1.91 0-.09-.78.29-1.42.83-1.93 1.77-1.68 8.88-5.23 11.57-6.98 4-2.61 7.9-5.21 11.96-7.69 2.16-1.32 4.18-3.9 6.75-3.55.76.66-3.83 3.69-4.35 4.03-8.2 5.39-17.17 9.87-24.85 16.12 2.26-.18 9.24-3.57 11.82-4.71 5.18-2.28 10.37-5.01 15.44-7.56.6-.47 2.42-.16 2.41.51-.02 1.45-17.71 8.27-20.28 9.4s-7.61 4.25-9.94 4.91c-4.94 1.4-.55-1.65.56-2.56ZM30.28 165.64c.61-.08 1.29.05 1.91 0 1.45 1.42-5.63 4.69-6.46 5.28-3.66 2.61-7.14 5.74-10.8 8.36-2.58 1.85-6.62 5.12-9.29 6.52-.77.4-1.25.62-2.17.46-.15-.87.61-1.43 1.19-1.92 7.99-6.67 17.39-11.84 25.61-18.71-2.83.38-15.68 7.51-19.17 9.33-1.33.69-6.61 4.59-7.63 3.62l.78-1.85c6.26-2.31 11.75-6.19 17.56-9.27 2.15-1.13 4.72-2.09 6.87-3.19.49-.25 7.13-5.03 6.38-1.77-.07.28-3.85 2.34-4.79 3.12ZM173.44 27.24l1.18 1.92-28.85 17.76-1.18-1.93zM174.13 42.8l1.07 1.86-30.85 17.72-1.06-1.86zM174.51 125.7l.97 1.86-32.19 16.78-.97-1.86zM173.04 82.69l1.25 1.74-28.13 20.38-1.26-1.74zM169.89 148.71c-.6.66-4.58 2.69-5.76 3.57-4.82 3.59-9.55 7.83-14.51 11.37-1 .71-3.71 2.65-4.62 3.05-.59.26-1.11.43-1.28-.34-.43-1.99 3.67-3.12 4.91-4.06 6.23-4.72 12.69-10.44 19.26-14.89 2.1-1.42 3.62-.49 2.01 1.3ZM145.63 29.84c-.16-.95.61-1.39 1.27-1.84 2.94-2.03 8.15-3.93 11.49-5.75 5.54-3.02 10.95-6.36 16.57-9.31 2.11-.74 2.36.64.45 1.9-6.28 4.11-14.67 7.48-21.49 11.08-1.41.75-7.05 4.98-8.29 3.92M173.98 22.06l1.09 1.78-29.41 18.11-1.09-1.78zM31.87 136.76l1.01 1.78-30.26 17.31-1.01-1.78zM30.92 128.54l.98 1.93-28.88 14.78-.98-1.93zM175.78 19.29c1.51 1.29-6.62 3.9-7.12 4.13-7 3.28-16.02 8.69-23.17 10.84-.88.27-1.01.72-1.76-.34 1.5-2.04 4.14-2.18 6.33-3.24 6.73-3.27 16.24-8.42 23.07-10.94.87-.32 1.72-.55 2.65-.45M170.1 157.75l1.17 1.95-27.53 16.62-1.17-1.95zM31.1 141.8l1.05 1.8-28.76 16.94-1.06-1.8zM30.54 118.17l1.08 1.81-28.86 17.34-1.08-1.81zM31.61 131.78l1.09 1.87-28.08 16.56-1.09-1.87zM31.24 91.27c.05.05.2 1.35-.3 1.47L3 108.54c-.19-1.27.54-1.95 1.48-2.59 2.6-1.78 6.76-3.43 9.68-5.18 4.34-2.6 8.49-5.2 12.94-7.66.76-.42 2.98-3.01 4.14-1.84M30.9 108.03l1.14 1.76L4.6 127.51l-1.14-1.76zM31.29 112.66l1.11 1.78-28.33 17.83-1.12-1.78zM29.4 73.67l.89 1.78L1.48 89.89l-.89-1.77zM30.1 123.87l1.05 1.96-27.79 15.03-1.05-1.95zM31.72 145.97c.2.93-.47 1.15-1 1.63-4.9 4.5-12.73 8.7-18.38 12.77-1.27.91-4.21 4.05-5.36 4.23-1.7.26-1.82-.87-.75-1.86 8.05-4.99 15.62-10.73 23.11-16.52zM174.96 9.43l.83 1.8-30.62 14.17-.82-1.79zM29.36 95.37l1.07 1.69-27.57 17.67-1.08-1.69zM29.8 87.23l.93 1.79-26.72 14.05-.93-1.78zM3 117.66c-.12-.94.79-1.66 1.48-2.11 6.6-4.34 15.22-9.41 22.12-13.33.59-.33 2.44-1.49 2.72-.14.27 1.28-5.15 3.42-6.38 4.15-4.43 2.65-8.63 5.92-13.09 8.47-1 .57-6.22 3.51-6.85 2.96M30.49 104.34l1.02 1.68-27.15 16.61-1.02-1.68zM27.92 54.98l.98 1.71L2.03 72.16l-.98-1.71zM27.06 32.15l1.02 1.69L1.41 50.05l-1.02-1.7zM29.47 83.34l.87 1.82L3.86 97.82 3 96zM28.06 19.64l.89 1.78L2.2 34.95l-.89-1.77zM28.92 29.15l.72 1.67-28.25 12.2-.72-1.68zM28.93 79.57l.78 1.82-25.47 11-.78-1.81zM27.09 24.43l.81 1.58L.96 39.9l-.81-1.59z"/></g></g></svg>