<svg xmlns="http://www.w3.org/2000/svg" data-name="Layer 2" viewBox="0 0 17700 20500"><g data-name="Layer 1"><path d="M16512 803c-412 40-833 40-1247 40-4544 4-9044 23-13590 94-151 3-425-97-526 93-130 243 221 158 271 222 24 30 43 575 44 664 22 2972-13 5974-5 8926 5 1799 7 3478 7 5237 0 931 15 1876-10 2826-2 118 52 224 44 327-11 135-270 161-67 374l14908 91c43-223-64-440-70-648-69-2476 63-5037 67-7536 5-3253-114-6522-25-9782 3-97 5-585 27-605 17-15 140 22 185-7s100-300-14-317Zm-525 18512c-81 104-757 40-916 44-1076 26-2185 4-3297 0-2734-9-5420-24-8134-48-617-6-1228 35-1842 0l-97-18088 14300-43-15 18135Z" fill="#d03527"/><g fill="#f3af25"><path d="M17100 16709c151 146-650 567-729 623-620 449-1512 1265-2196 1467-271 80-563 482-856 549-12 85 110 49 156 37 588-159 1727-902 2300-1245 337-201 870-634 1194-770a410 410 0 01 226-37c151 129-666 478-714 508-66 40-109 114-179 156-270 163-552 315-830 463 57 22 86 166 123 170 237 18 918-338 1164-463 122-62 362-329 460-67-58 141-325 165-350 202s0 135-53 210c-87 123-590 270-674 452a4864 4864 0 00 952-413c80-47 439-402 532-306 16 17 0 150-24 191-92 157-671 390-845 483-560 350-1125 780-1700 1140-100 60-714 430-758 440-170 0-60-180-71-200-20-20-297 253-334 70-30-140 366-274 430-384-130-37-170 0-144-168-98 116-1010 571-1052 530-175-170 567-448 637-489 83-49 280-183 295-280l-1293 577c-206 4 3-234-141-190-222 65-544 393-760 487-181 80-120-96-57-203 152-259 297-297 569-389l845-617L10568 20300c-227-247 432-342 574-479l1052-626-1330 540c-281 245-542 247-853 301-123 21-576 345-664 262l23-192c-184 33-302 228-502 192l95-239c-60-49-383 200-467 227-40 11-250 55-203-60s977-550 1165-656c160-90 320-256 533-280 80-64-56-57-92-46-270 80-527 256-783 367-303 134-693 260-986 405-154 77-302 297-435 286s-130-96-58-182a21750 21750 0 00 1225-762c12-8 350-223 173-210l-1653 790c-117 3-600 284-668 215l-25-143c-98 63-490 353-574 336-120-26-20-174 26-214 480-335 995-635 1477-966 166-114 368-260 527-384 20-15 138-94 75-116L5444 20400l-24-239c-27-30-426 362-360 47l1460-1005c-94-23-141 16-214 48-524 223-1358 803-1842 936-100 27-260 67-190-94 56-130 1180-682 1290-937l-1852 1000-157-65c368-255 790-458 1183-685 106-60 94-73-13-60l-1580 720c-51-20-55-140-92-140-180 5-960 608-674 140l1796-1198-2040 1195c-181-5-57-182-66-188-80-53-252 256-454 240-42-3-33-93-22-118 24-57 894-552 1035-642 22-14 154-69 87-105-390 170-835 318-1205 520-84 45-375 296-422 295-128-5-26-200 24-238H968c-21-17 64-130 48-144-58-50-754 396-813 335-160-163 556-416 655-470 383-210 775-403 1164-608 252-133 1180-720 1363-745 72-10 85 0 72 73-38 230-362 198-483 288-53 40 15 123-39 193-105 135-621 325-724 550 405-180 827-333 1227-520 133-71 472-313 540-332 63-17 148 3 146 53-3 102-1130 760-1303 840l-227 190c189-40 429-178 607-278 144-80 1048-700 1116-633l24 145c69-46 599-488 598-264 0 71-1008 680-1164 800-44 33-151 96-8 87l1637-809c156 21 128 130 16 210 135 78 275-142 417-160s543-47 670-93c94-34 233-250 326-240 37 3 142 80 73 156-336 372-1076 650-1437 1030l2050-1030 308-75c47 2 30 85 20 115-30 81-880 580-1034 686-118 81-270 223-382 304-72 53-194 65-250 167-8 37 45 32 70 24 250-78 1230-735 1524-921 122-77 646-528 750-422l25 140 240-141c34 33 83 60 70 117-24 120-994 634-1116 823 2 23-407 128-200 160l1926-900 156-10-143 239c70 50 582-234 686-294 115-67 228-264 390-232 90 18 56 133 12 180l-1567 1020c137-10 290-80 416-135 217-100 1456-722 1570-708 40 5 84 80 136 70 67-10 383-341 557-280l-98 214a18913 18913 0 00-1577 866c-7 36 46 30 70 23 575-180 1277-714 1820-1008 280-152 441-30 191 147-93 66-192 60-276 107a33175 33175 0 00-1280 733c-6 36 47 30 72 23 614-192 1312-748 1890-1033 90-44 340-138 250 60-65 140-586 307-757 399-80 44-144 126-218 165-266 142-580 240-807 437 103 22 270-68 367-112 662-298 1396-776 2090-888 34-5 390-180 320-10-66 157-322 200-447 274-393 229-798 460-1180 687-10 36 44 30 70 23 400-127 961-460 1364-647 106-51 230-53 330-101 191-97 620-481 746-480 35 0 70 76 118 54 93-40 390-320 510-400 471-313 936-624 1403-946 70-50 334-356 433-260Zm-1245 2207-1208 636-132 131c483-144 983-412 1340-767m-6796 48-230 37-540 298a1758 1758 0 00 762-335Zm6500 480c-234-7-374 177-539 300-123 90-283 87-323 275 26 25 525-300 590-344 90-60 210-144 271-230Zm-5500-19098c180-99 326-252 525-240l-95 168c138 63 295-206 416-255 52-30 185-50 158 60a7310 7310 0 01-482 380c-340 250-1162 690-1384 990 73-40 210-50 284-130L11380 60c161-22 156 35 46 142-228 222-784 504-1077 698-27 16-190 42-98 118 76 64 1534-890 1756-954 95-34 91 140 135 140 94 0 193-175 333-146 36 8 100 83 26 121l-1485 886c598-192 1150-589 1722-839 55-24 160-48 225-63 36-8 137-103 157 15 15 79-80 120-127 159-274 215-694 434-995 634-51 34-208 122-193 191L14156 57c102-23 83 65 61 135l-1234 776c143-8 285-79 415-135 258-112 960-538 1152-577 20-4 397-10 418-7 14 3 95 70 50 96l-120 143c204 14 506-333 693-287 47 11 90 63 24 120-474 397-1339 546-1818 983 631-215 1223-513 1837-773 284-109 257-80 511-147 113-29 160-187 306-173 60 6 111 77 148 80 18 2 312-163 310-6-3 150-2214 1405-2472 1650-140-9-113-110-30-189l1063-648L16000 690a7814 7814 0 00-878 440c-174 97-1180 759-1254 758-48 0-117-45-117-70 0-135 1206-660 1340-840-286-15-1570 745-1699 720-112-22-19-145-50-192-108 24-390 310-449 116-13-42 115-140-29-116-96 15-417 230-454 192l95-216c-132-72-780 346-860 265-28-27 4-168 77-185l1166-727-2034 912c-104 25-93-86-50-146 46-62 340-170 432-235l598-480a12271 12271 0 00-920 400c-155 72-426 311-582 275-35-8-28-84-37-90-70-46-303 270-470 184-103-94 266-246 71-240-275 200-452 244-790 240-10-80 52-135 95-193-160 88-545 452-456 94 400-224 781-493 1126-790l-70-20C9333 973 8757 1612 8289 1800c-67 26-182 46-178-34 7-121 1790-1167 1960-1416-191 105-376 213-568 317l-1417 980c-40 16-120-57-120-74 0-95 998-618 1100-791-320 69-590 333-865 498-142 85-320 153-470 248-110 68-152 216-338 164v-144c-10-10-302 136-240-23 50-130 880-532 1052-648 16-58-21-60-70-47-252 59-846 505-1123 650-100 52-714 360-767 310-15-87 60-143 120-192 278-233 686-413 967-658 32-28 137-32 37-110-388 209-766 465-1160 659-324 159-554 305-922 204 106-129-100-65-45-213 25-65 406-189 215-218-220 97-598 437-814 480-158 31-6-147-50-193L4200 1730l72-238c-63-45-228 123-300 154-88 37-182 34-270 65-50 17-270 225-242 47 12-70 105-138-25-122-47 72-333 315-407 240-48-48 134-210-240-96 4-44-12-94 10-135 33-56 948-500 1043-657l-70-23c-430 229-820 573-1230 825-610 375-1230 768-1840 1134-52 32-450 292-443 129 146-230 1672-1000 1673-1102 0-10-98-124-145-100l-1560 747c-64-62-89-47-25-120s803-408 959-478 316-127 477-169l-144-48 48-143c-195-3-1144 763-1244 671-47-44 62-135 98-165 146-118 760-409 810-531 20-96-40-86-109-60-130 47-333 233-442 276-93 37-93-97-65-137 23-32 617-304 690-389 165-197-222 20-265-25 176-97 487-348 669-387 81-17 141 34 237 3 132-43 338-287 458-267 26-7 20 92 47 88 90-14 318-290 384-286 31 2 97 105 71 142-20 29-626 346-574 384 201 77 976-513 1053-432l24 144c116-100 380-310 431-95 108-120 363-345 383-48 27-7 542-434 405-122-26 59-190 129-254 177-44 32-150 96-8 87 124-10 466-337 528-334 127 6-38 255 95 190 146-73 285-346 503-288l-95 170c67 80 150-72 222-114 217-125 311-7 130 130l-470 345c218 2 840-463 963-472 155-12 264 190 280 183 99-44 292-360 383-96 61-146 405-176 265-23-260 283-774 448-1054 720-10 35 40 30 70 22 230-72 950-558 1240-718 166-90 271-285 500-240 16 86-44 120-99 164-310 253-869 460-1226 690-20 14-153 68-86 105 525-196 990-516 1488-763 81-39 173-43 254-79 70-33 146-152 227-159 128-10 123 104 17 163l-1050 747c265 16 1361-808 1475-708 21 18-12 92 32 84 39-78 250-198 310-139 84 80-57 136-63 144-51 66-28 67 39 46C9424 375 9700 73 9840 100c30 6 23 98 56 100 95 5 283-130 163 144Zm4690 192a11295 11295 0 00-1484 743c-50 43-132 58-143 131l1495-733zm-11200 384-663 366-479 353c402-124 831-440 1147-719Zm671 48c-409 180-797 444-1149 720 405-163 800-456 1150-720M2500 1114a2550 2550 0 00-909 480l210-54zM635 5720l2284-997c466-54 29 224-177 230-25 79 92 23 98 72 27 207-458 380-619 485-468 310-937 672-1417 970-150 94-915 575-614 150 780-525 1640-941 2370-1533a17076 17076 0 00-1324 517c-300 128-685 363-970 468-40 16-185 53-193-2-27-186 138-137 216-217 186-195 150-178 400-363 560-417 1118-830 1679-1243-137-95-225 60-323 108-630 308-1277 643-1926 875l70-194L2620 3885c118-105 220 78 209 180C2804 4230 855 5450 637 5720Zm2345 290-143 215c-13 35 186-7 49 145L540 8118l2390-1227c78-53 187 41 124 126-685 410-1421 721-2134 1076-232 116-432 353-716 314-42-136 166-168 187-199 18-28-41-104-33-154 15-93 973-708 1134-826 405-298 805-620 1200-930a6830 6830 0 00-800 372c-500 265-1228 786-1734 948-192 61-200-28-76-172l2100-1062c140-62 677-478 798-375Zm14536-734c-235 112-405 318-610 467-126 92-283 181-432 287-572 410-1222 780-1720 1274 247-116 490-273 733-392 194-94 416-156 610-253 347-175 1013-626 1336-723a452 452 0 01 193-22c16 107-17 152-97 214-134 104-608 250-800 347-390 198-804 458-1207 663s-833 410-1243 626l-147-53c3-222 442-240 478-335 17-44-110 14-97-96 11-78 67-122 121-168 311-264 843-515 1170-795 474-355 1000-826 1490-1145 151-98 351-117 221 105ZM16013 4250c-216 143-449 404-730 491l-647 503 1492-664c192-90 1190-685 1307-584-52 272-485 313-704 420-127 63-253 130-382 194-232 115-1767 980-1881 873-37-88 80-176 79-216-1-36-82-82-74-137 12-88 1125-736 1303-856 542-365 1133-860 1690-1183 187-108 284-4 110 157-445 412-1064 674-1562 1003Zm1482 3547c-30 52 2 136-59 204-333 373-1437 837-1857 1206-191 183-448 301-667 447-140 94-216 292-454 240l71-193 1256-795 1160-827c-567 144-1085 431-1617 657-59 25-140 11-203 37-123 52-673 404-765 312l48-167c1029-380 2020-847 3026-1287 388-30 78 127 50 171ZM3220 17092c145 142-563 469-646 528-358 254-708 544-1060 808-160 119-368 200-495 391 239-62 503-176 742-278 500-216 1186-605 1688-754 170-50 277-35 143 143-826 371-1678 682-2513 1032-170 71-510 282-643 316-67 18-175 34-192-51-10-48 230-233 240-333 504-338 1026-663 1527-1013 256-179 714-613 943-734a406 406 0 01 257-54ZM16382 970c-11 88 103 44 146 26 129-54 789-414 836-410 20 3 88 79 71 119l-79 66-2649 1206c-119-110 692-510 762-555 597-394 1169-820 1788-1183 54-77 180-22 178 24-5 87-898 637-1052 697Z"/><path d="M17243 15029c28 262-264 285-395 383a45098 45098 0 00-1905 1510c-216 82-504 390-683 468s-154-127-9-249c172-145 399-297 574-430 329-250 695-450 1027-700s780-700 1106-900c94-60 171-90 285-71Zm360-8669c52 6 139 80 72 152s-424 255-544 319c-625 337-1305 610-1933 940-160 85-577 414-718 435-228 33-172-135 0-241 357-220 901-416 1294-622 417-220 806-435 1224-645 130-65 502-350 605-338m-2818 4476c-87 60-173 143-293 114-38-10-100-83-25-120 950-671 1917-1345 2858-2032l157 65c14 64-56 107-98 140-795 621-1757 1246-2599 1832Zm-652 3137c-23-275 221-247 367-327 482-265 962-503 1445-758 434-230 854-496 1285-730l156 65c15 69-80 130-126 160-393 250-1008 485-1437 718-195 106-1598 966-1690 872m3158 2304c134 113-716 496-781 536-544 326-1075 700-1617 1018-123 72-623 370-710 393-203 58-161-130 0-240 804-534 1780-1000 2624-1497 156-92 230-274 484-210m48-2064c172 166-690 483-782 535-580 321-1148 701-1721 1010-100 54-704 374-751 326-8-270 404-337 617-461 380-221 762-413 1149-624 366-200 920-606 1263-750a400 400 0 01 226-36Zm-2967-5614c-178-159 723-437 798-471 760-346 1512-724 2263-1091l194 52c20 105-582 382-708 441-560 263-1155 470-1720 724-138 63-715 445-827 345m-48 2724c-12-120 128-186 214-240 597-380 1296-706 1909-1061 149-86 880-562 967-568 58-4 164 20 164 70-1 110-1462 850-1670 967-374 210-951 650-1310 797-91 38-176 44-274 36m3193 2297 96 200-3406 1640-95-200zM3267 15260l-95 190h239c16 97-63 139-121 190-150 140-406 307-580 430-600 422-1267 810-1880 1233-45 30-386 417-433 188-32-154 320-265 399-320 568-384 1106-825 1670-1206 216-146 512-215 658-464l-2848 1440-50-143 2815-1497zm12702-9430c-205 130-440 284-656 420-143 90-650 549-797 425-10-110 100-178 175-232 742-532 1714-1070 2502-1570 78-50 113-153 219-166 56-7 167 23 166 73-2 133-1400 920-1610 1050m1515 7430 82 203-3298 1352-82-200zm-35-3416 113 182-3124 1957-110-182zM14372 13300c-160-145 685-456 768-500 544-290 1074-598 1620-871 105-52 629-445 675-234 18 83-359 270-446 319-601 336-1245 603-1853 925-254 134-468 394-763 362Zm190-862c-62 5-127-3-190 0-9-78 29-142 83-193 177-168 888-523 1157-698 400-261 790-521 1196-770 216-131 418-390 675-354 76 66-383 369-435 403-820 539-1717 987-2485 1612 226-18 924-357 1182-471 518-228 1037-501 1544-756 60-47 242-16 241 50-2 146-1771 828-2028 940s-761 426-994 492c-494 140-55-165 56-256ZM3030 16564c60-8 128 5 190 0 145 142-563 469-646 528-366 261-714 574-1080 836-258 185-662 512-930 652-76 40-124 62-216 46-15-87 60-143 119-192 799-667 1739-1184 2560-1871-282 38-1567 751-1916 933-133 69-661 459-763 362l78-185c626-230 1175-619 1756-927 215-113 472-209 687-319 49-25 713-503 638-177-7 28-385 234-480 312Zm14315-13840 118 192-2885 1776-118-193zm69 1556 107 186-3080 1772-102-186zm38 8290 97 186-3220 1678-106-186zm-147-4301 125 174-2813 2038-126-174zm-315 6602c-60 70-458 270-576 360-482 360-955 790-1451 1140-100 70-371 269-462 309-59 26-111 43-128-34-43-200 367-312 491-406 623-472 1269-1044 1926-1490 210-141 362-48 200 130ZM14563 2990c-16-96 61-140 127-185 294-203 815-393 1149-575 550-302 1090-636 1650-930 210-75 233 63 42 190-628 410-1467 747-2149 1107-141 75-705 498-830 392m2836-778 110 180L14559 4200l-108-177zM3185 13681l100 177-3026 1730-100-177zm-96-823 98 193L300 14527l-98-193zM17579 1930c143 127-671 388-721 410-700 329-1601 870-2316 1085-88 27-100 72-176-34 150-204 414-218 633-324 673-327 1624-842 2307-1094a576 576 0 01 266-45m-568 13846 117 195-2753 1662-117-195zm-13900-1595 104 180-2870 1690-107-180zm-57-2370 110 180-2883 1740-108-180zm110 1360 110 188-2808 1660-110-187zm-38-4049c6 6 20 136-30 148L300 10854c-19-127 54-195 148-259 260-178 676-343 968-518 434-260 849-520 1294-766 76-42 298-300 414-184m-34 1676 114 176L460 12751l-114-176zm40 463 110 178-2833 1783-112-178zm-190-3899 90 178L147 8990 60 8812zm70 5020 105 196-2779 1503-105-195zm162 2210c20 93-47 115-100 163-490 450-1273 870-1838 1277-127 91-420 405-536 423-170 26-182-87-75-186 805-500 1562-1073 2311-1652zM17496 943l83 180-3070 1417-84-179zM2936 9537l107 169-2757 1767-108-169zm44-814 93 179L400 10307l-93-178zM300 11766c-12-94 79-166 148-211 660-434 1522-941 2212-1333 59-33 244-149 272-14 27 128-515 342-638 415-443 265-863 592-1309 847-100 57-622 351-685 296m2750-1332 101 168-2714 1661-102-168zm-258-4936 98 171L203 7216l-98-171zm-86-2283 102 170L140 5003l-100-170zm241 5120 87 181L386 9782 300 9600zm-140-6370 88 177L220 3495l-90-177zm85 950 72 167L140 4302l-73-168zm0 5042 80 182-2548 1100-78-181zM2710 2443l80 158L96 3991l-80-150"/></g></g></svg>
