<svg xmlns="http://www.w3.org/2000/svg" viewBox="0 0 12179 7800"><g fill="#111"><path d="m594 7021-27 45 107-18c-4 42 18 58-18 98 28 13 39-7 63-4-39 57-77 114-116 171-5 8-20 9-24 16-78 114-141 239-213 355l-4-27c-66-6-49 48-64 70-8 12-42 0-43 1-7 10 11 69-36 27l-18 45c-6-27 42-83 0-81-5-16 16-3 18-13-40-14-14-26-19-43-6-24-33-5-34-6-2-2-20-49-28-53-4-2-16 5-13 18 2 6 12 5 6 24-12 41-38-33-43-51 61-111 125-218 198-321 6-8 17-10 22-17 12-18-2-37 0-38 2-2 13 2 19-1 12-7 5-22 26-8-9-54 16-23 23-36 4-7-9-22 4-31 21-16 76-22 96-57l119-64Zm-185 156c8-8 63-43 50-57-43 34-87 69-116 116 10 10 58-51 66-59Zm131 95c26 3 47-10 22-27l-22 27Zm0 9c-8-8-34 15-36 27 18 9 46-16 36-27Zm-27 36c-17-3-30 10-27 27l27-27Zm18 44c-35 3-48 61-59 80-9 14-25 21-31 36 21 18 83-103 90-116Zm-242 27c-11-11-35 19-27 36 10-6 35-27 27-36Zm-116 170c-19-22-27 43-27 45 23 12 31-40 27-45Zm219 6-38 52 11 8 38-52-11-8Zm-112 84c-13-11-40 29-36 45l36-45Zm296-1173s-10 17-9 18h45c10-5-27-21-36-18h58c50 0 62-22 107 26 14 14-22 10-25 9-10-4-43-55-51 0 29-15 27 6 58 18 11 4 48 6 50 9 1 2-13 24-9 27 2 2 17-3 24 2 3 2 29 53 30 56-27 22-67 10-45 49h-36c-5-16 21-4 18-13-12-30-72 7-96 11-42 8-86 9-128 15l-80 32c86-15 174-34 260-31-11 10-27 27-40 31-25 9 0-18-9-18-52 1-138 17-183 40l45-4c-32 45-55 0-59 0-11 0-26 12-40 9l27 27c-31-4-51 23-80 9l18-18-63 9 9 27-72 9 18-18-170 27c-2-9 4-31 0-35-5-5-29 8-26-9 99-17 0-38-45-9l54-74c56-16 21-37-18-10-9 6-7 23-14 22l-4-61c24-3 26-23 38-34 5-5 21-2 28-12 5-7 3-22 6-25 7-6 42 6 52-15 3-22-6-11-19-10-14 2-53 7-63 11-34 12-24 39-53 39-3-38 39-28 18-63 67 4 120-47 188-27l-9-18c19-2 40 3 58 0 94-18 175-8 274-8Zm-135 27c-19 0-37 0-56 2-11 2-48 11-51 25 31-6 64-5 94-9 12-2 28-6 13-18Zm-116 35c-7-28-34-12-45 9l45-9Zm-81 18v-18l-36 9v9h36Zm-62 54h-45v18c4 4 51-6 45-18Zm402 40-81 12 2 13 81-12-2-13Zm-143 68c-71-2-137 28-204 42-22 5-45 0-67 4-6 1-69 17-51 34 6 6 143-37 169-33l154-48Zm1111-735-9-76 18-76-9 152zM74 7603c-37-17-7-74 18-90-8 31-25 54-18 90Zm1480.1-1809.6 16-80.5 17.6 3.5-16 80.5"/><path d="M182 7701c-11 0-14-21-27-14-11 6 6 58-18 31-6-7 8-42 9-54l36 36Zm0-313c-4-29 24-49 45-63 7 8-31 60-45 63Zm10871-1594c-20-10-16-53-18-72l18 72ZM-.6 6618.5l81.7-23.5 3.9 12.5-81.8 23.5zm10140.6 89.5c20 18-43 32-54 27 0-13 51-29 54-27Zm-90-135-45-4c14-20 36-20 45 4ZM585 6725v9c-24 0-51 24-45-9h45Zm-355.8 575.6 36-36 9.3 9.1-36 36.1zM9889 6860v18h-36c-11-5 31-23 36-18ZM2.6 6664.3l44.8-14 4.2 13.3-44.8 14zM11752 3627h45v9h-45zM155 6824c-3 13-14 21-27 18v-18h27ZM3710 3188c-71 37-106 32-179 45 25-14 148-43 179-45Zm-994 296c8-27 119-44 148-54-1 39-37 16-52 20-22 6-57 17-69 34-8 2-19-2-27 0Zm5776-1675c33-15 68-37 107-36l-9-27 36 27c-43 10-87 26-134 36Zm2902 1003c11 14 35 0 27 31 0 3-14 4-17 11-21 46-9 98-28 145-19-5-14-11-12-25 7-56 15-88 12-145 2-4 14-15 18-18Zm-7863-788c-1-6 2-14 0-21-3-10-22 0-18-15 9-8 52 24 54 27-14 1-32 9-36 9ZM7400 2588c-8 16-63 17-81 18 35-10 44-12 81-18Z"/><path d="M5698 1281s0-16 8-22c6-4 18 5 18 4 2-4-2-28 5-45 10-24 70-64 76-85l-18-13c40-4 30-43 36-54 0 0 12 9 22 0 77-73 171-185 260-242 26-17 64-10 67-45 15-5 5 19 13 18 31-16 68-34 101-42 24-6 90-15 112-12 7 0 5 16 12 18 21 5 52-3 75 0l-9 27c71-6 106-12 151 50 28 39 43 104 73 135-4 71-22 138-27 209l-9-27c-41 13-16 13-22 36-4 14-33 40 4 36l18-36c8 14-20 56-29 60-12 5-34-16-43 25-5 21 26 9 27 8 11-9 12-27 27-30-10 32-27 130-72 111 7-69-39-9-27 14 0 1 20-12 27 4-59 48-116 110-175 156-36 29-109 86-148 103-11 5-23-5-35 0-4 2-46 59-45 62 58 44 111 115 171 152 9 5 25 4 26 5 4 4-13 32-9 36 1 1 27 2 39 9 6 4 22 30 33 41 12 12 35 23 41 31 7 9-22 25-14 36 0 0 16 1 22 9 10 11 33 57 48 44 4-3-6-30 15-8 14 14 19 40 33 57 15 19 48 42 61 65 9 17-1 37 0 39 2 2 16-2 24 2 14 9 20 58 48 51-41-74 11-7 27 20 14 24 8 25 13 33 12 21 73 39 59 81 11-18 35-7 36-9 2-4-1-25 3-38 7-24 35-71 39-87 3-11-17-18-11-46 6-24 21-13 33-24 39-38 0-40 0-43-10-32 12-15 18-19 34-20 24-99 63-125l-27-4s16-52 18-54 25 15 34 8c6-4 56-84 82-107-1 40 28 13 27-18-1-1-22 14-27 18 1-39 43-96 59-134 4-10 2-21 4-27-5 1-19 3-18-4 11-3 26-77 45-58 2 2-22 49-27 63 27-8 43-64 59-89 10-14 53-76 61-82 14-10 36-6 40-10s-1-19 2-24c0-2 13 7 21 0s34-54 45-54c22 0-1 46 18 53 23 9 24-54 4-63 35-6 27 6 27 36l27 5c-16 16-11 47-19 61-6 11-21 14-23 18-14 32-18 81-47 110l36 4c-20 44-18 107-63 134-6-44 37-74 36-116-2-3-16 9-18 13-32 52-53 141-77 202-3 9-18 15-21 22-8 18 23 16 27 13 4-3 24-79 30-96 3-9 12-35 24-20 5 6-19 66-24 78-4 11-17 11-18 13-6 16-13 102-15 106-4 8-20 0-27 8-24 26-46 90-67 121-30 3-8-30-9-31-19-15-44 47-36 63l36-5-107 309 27-27c14-4 7 14 10 15 2 0 33 4 34 2 3-3-5-30 23-35l4 27a91 91 0 01 40-10c10 0 50-6 50 9-28 0-57 3-85 9-15 3-27-10-22 18l336-54c42 12-61 23-58 18 0 12 44 17 51 17 36 0 79-25 120-17-1-7 2-25 0-27-9-10-57 22-63 0 26-13 74 0 89-27-21-5-41 6-59 8-10 0-32 8-30-8l90-9c5-12-9-42-8-44 3-4 21 6 17-10-48 10-34-60 9-32 15 9 7 46 26 50-1-44-40-89-45-130-3-23 10-7 18-4v-54l-18 4 9 32-18-9c-12 42 34 89-18 99 6-18-7-37-8-50 0-5 18 0 18-17 0-26-25-47-30-80s-8-143-8-181c0-16 4-30 10-44l27 4-36-18c9-53-1-107 9-161l13 27c6-20 38-43 30-53-2-2-25 4-17-23 0-3 17-3 18-10 5-36-19-83 8-133 4-8 20 7 27-9-31-11-22-31-18-58l13 18c25-2 34-33 54-27 6 2 0 27 22 9 8 13-11 48-20 52-15 6-39-25-34 11 47-13 11 48 49 63l13-18c-8 42 8 77 13 115 20 145 40 439 127 574 9 15 18 39 39 37l-22-72 32 63c21 8 14-11 25-17 48-28 16 18 47 35 2-45 0-100 4-144 3-28 19-76 23-107-17 17 23 20 36 27v-36c-9 9-34 8-36 9 5-37-11-39 18-72l18 18-13 36c30-12 21-17 19-45l-24-8c16-18 39-27 63-27l-18 18c23-10 29 18 31 18 11-2 194-94 202-103 10-11 6-19-5-23-19-6-6 31-40 9 7 40-15 22-36 31-11 5-37 29-45 23-1 0-8-24-5-27 2-2 49-30 56-33 66-33 165-69 235-83-7 3-17 14-29 20-28 13-85 27-106 39-6 3-13 43 5 31 8-5 10-20 16-24 8-5 165-60 176-62 47-9 102 10 153-17 24-21-10-9-9-18 1-10 21 3 18-13-26 3-66 3-90 9l-9-27c19-5 42 11 57 9 6 0 5-16 10-17 3 0 37-7 47-10 141-34 288-43 427-64 43-7 99-26 145-27 18 0 9 26 26 19 8-4 12-17 27-22 18-6 63 2 86 0 275-30 575-55 856-41 34 2 76-22 93 19l-63-9 5 27c20-5 51-4 69-10 8-3 8-17 11-17 31-9 18 12 23 20 5 8 16 8 16 12 0 19-22 16 15 31l4-18h9c24 29 4 49 18 85 9 22 31 26 42 56 22 60 4 73 46 129 2 3 2 45 9 66s10 32 15 47c29 81 77 157 94 243 18 4 0-20 18-18-21 42 20 57 26 78 15 57 37 142 45 205 7 55 8 19 17 45 11 31 0 63 2 87 0 6 16 3 19 18 18 92 23 171 17 265l-13-27c-20 8-13 53-13 72l18-27v45l-27-9v45l18-36-9 107-18-27c-6 17 4 26 7 35 17 51 19 264 12 328-2 18-12 8-19 17l18 4v27c-53-21-2 21 0 24 8 24 9 59 0 83 34 8 46-20 71-32 40-19 102-51 144-40-2 1-6 11-15 16-23 14-57 5-66 47 5 5 120-58 123-64 3-5 6-24-2-25-10 19-27 19-40 27-25-41 52-90 90-90-27-49-46 10-49 9-32-16-15-45 8-59 8-5 23-2 24-3 2-2-13-20-9-26 3-3 18-4 23-10 7-9-6-26-5-27 4-5 61-13 72 0 12-40-26-21-54-18-23-44 18-63 18-67 0-8-12 0-18-11-14-28 6-40 8-61 11-131 4-240 34-369 2-7 3-91 29-65 6 6-30 62 9 54l9-107-36 36c11-36 4-76 27-107-21-16-32 39-45 4-8-22 34-14 36-28 4-24-32-86-18-120 20 11 13 35 45 27 12-31-15-35-17-43-23-69 9-73 71-83l-36-18c41-18 72-25 116-9l-9-18c81-26 166-36 249-52 103-20 193-48 303-46 11 0 43 4 52 8 10 4 34 75 15 90h36s-17-58 9-63l9 116-9-45-36 4c29 43 13 62 72 58-26 60 49 141 9 193 0 9 15 2 18 4 19 18-23 15-18 27 32-2 20 51 23 72 6 38 21 71 25 106 3 23 9 85 6 105s-23 10-19 17c5 9 21 9 27 21 15 28-4 82 0 103 0 4 25 25 26 65 0 4-14 3-16 9 0 2-1 40 0 42 1 5 26 16 27 15 15-17-47-25-5-36 51 61-8 44-21 64-1 2 13 32 8 44l9-36c29 18-7 80 9 116l-18-9c3 30 0 55-18 81 41 5 13-62 45-40-13 55-23 139-90 148 14-23 34-27 50-53 5-8 26-56 0-45-21 44-51 44-79 62s-61 77-114 95c-9 3-18-13-37-12-86 4-220 34-315 46-14 2-24 16-37 16-3 0-8-36-22-18-3 3 6 26-5 27-34 6-84 0-121 8 33-55 38-8 40-9 5-3 10-14 20-16 15-4 39 19 47-10-59 16-139-23-190-16-15 2-30 5-25 25l58-9c19 22-8 14-19 21-17 11-36 30-63 33-19 2-7-24-25-17-25 9-34 20-32 44 11 1 25 5 27 18-24 2-26 4-27-18-47-6-42 13-69 26-11 5-63 26-66 28-17 20 22 13 18 27-23-1-35 19-49 27-24 13 6-30-18-18-29 16-135 70-149 84-6 6 0 20-8 27-24 23-82 41-103 76-16-48-59-20-77 14l27 31 27-36c1 19-16 28-21 47-13 48 41 34 53 52 5 8-5 21-3 25 1 3 31 30 40 53 21 51 19 106 33 155 11 40 37 83 47 123 22 84 39 185 47 271-12 5-10-38-27-18-2 3 6 54 6 67 0 11-6 23-6 36 2 32 27 49 26 18 0-28-21-86 9-103 14 202-20 429 4 627 6 46 22 117 32 165 3 16 17 27 18 46 1 17-36 15-19 31 4 3 25-11 27-9-3 13 10 31 10 40 0 10-23-1-18 14h27l-18 54 27-27 9 72-27-9c11 66-35 66-72 103l18 22c-51-4-94 38-72 90-31-14-63 25-67 25-167 5-341 38-510 49-370 23-776 53-1145 32-40-2-98-21-136-17-22 2-6 21-22 19 11-29-19-34-16-22l-6 14c-17-46-60-21-94-31-32-9-47-38-63-45s-33-2-47-7c-83-30-81-166-159-208-3-8 16-1 18-10 3-14-63-197-77-210-9-8-26-6-29-11-6-7-8-67-33-79l-13 27c-2-20-12-51-34-33-4 3 4 20-10 16 4-36-58-31-63-36-19-20 38-23 36-36-42-10-104-25-134 13l89 13-152 18 54-40c-9-12-78 11-81 14-18 19 23 14 18 27-55-18-35 0-54 13-33 24-143 81-158 97-7 7-2 22-17 33-12 9-32 7-49 23-10 9-73 116-71 125 2 9 16 17 26 14 1-53 54-91 54-143 35 24-4 51-13 73-7 16-35 97-46 97-2 0-27-31-31-4-2 15 15 44 0 67 46 9 11-21 27-54l13 45 163-43c72-8 147-14 217 11 42 15 64 48 103 67l4-27c24 4 7 25 11 34 1 3 30 25 40 45s79 176 81 187c3 26 2 90 3 124 1 43 7 225 0 259-2 7-19 5-19 10 0 17 44 46 0 36-1 14 7 28 4 42-10 56-38 130-57 175-10 24-31 38-18 65-22 1-45-2-66 0-70 10-143 14-216 8-34-3-87-24-117-27-2 0-7 34-22 18-3-3 3-24 0-27-5-5-27 9-34 7-29-10-77-57-106-77-45-31-92-49-128-91 8 2 18 0 27 0-36-43 0-9 0-45l-45 9c-6-7 27-57-18-54 0 17 1 35 8 50 0 2 25 36 28 39-26-5-65-51-90-67 38 9 36-8 10-31-23-20-61-86-73-121-14-41-8-100-35-133-12-14-55-9-63-28-3-6 35-9 27-31l-346-17c-409 6-809 136-1210 212-255 48-519 63-774 112-103 20-316 59-406 96-9 4-21 6-22 18 36 4 68-14 103-18 9-1 34-6 31 9l-83 12c-28 16-54 27-87 23l27-36c-8-6-169 27-188 40l18 22-36-4c0-16 19-25 23-39 10-42-22-21-36-20-4 0-4-14-11-17-20-8-45 5-60-18a26 26 0 00-13 22c-8 44 5 131 7 179 0 22-23 36 11 45-38 46-50 112-72 160-16 35-76 76-35 108-42 10-42 47-67 67-40 34-109 65-148 94-35 26-110 111-148 121-9 2-16 2-13-9l45-27-36-9c44-4 90-26 116-63-33-8-81 23-105 25-21 2-50-38-66 2l36 9c-29-4-50 25-58-9-19-4-7 22-40 23-28 0-33 3-58 5-29 2-68-10-81-9-37 3 27 51 49 36 3 2-11 17-13 18-3 0-56-21-59-22-8-5 2-21-13-31-19-12-33 0-48-6-26-10-102-43-95-75 28 13 86 62 112 31l-63-22 27-18c-36-21-76-47-103 0-82-63-121-167-182-248-5-20 17-35 17-52s-22-22-18-40l27-4c-10-5-5-22-13-21-44 9-33-18-9-25 5-1 20 8 22 5 16-20-12-35-36-27-4-19 0-43 23-45 5 0 0 28 22 18l9-49c-20-21-53 32-63 22 0 0-8-24-7-25 3-4 24 4 16-20-31-5-27 28-33 36-9 12-96 94-103 97-4 2-20-8-35-4-54 15-86 35-143 47-20 4-49 10-69 12-10 0-32 8-30-8l260-67 9-13c-59-2-114 30-168 42-117 26-236 41-354 68-215 49-525 158-740 163-35 0-79-23-113-21-27 1-45 23-72 27-47 6-111-15-143-10s-32 25 2 34c63 15 94-7 154-6 2 13-16 13-25 15-44 11-131 9-172-11-25-12 8-13 9-19s-8-15-4-22c5-9 32-2 23-26-23 2-99-4-104-31-7-40 28-45 32-54 10-21-44-9-18-52 9-15 26-1 9-51-15-4-4 18-14 18-6 0-17-8-26-8-65 5-16 24-58 52 16-77 10-58-54-85 12-15 21-33 31-49 3-4 8-35 22-18 16 19-42 46-36 58 10 12 51 25 63 19 18-11 100-144 90-175 31 15 59-49 67-80s26-187 33-196c2-2 29-1 15-19-1-2-17 10-18 9 10-121 14-241 17-363 3-129 12-236 22-363 2-26 4-82 15-101 3-6 18-5 18-11 0-15-15-28-13-56 6-79 51-185 57-266v-22l-31 27c-18-27 19-52 28-66 25-42 47-86 75-126h-63c42-28 93-20 139-40 75-33 145-45 233-54 25-2 51 1 76 0-24-35 18-30 18-40 0-2-14-10-15-19s7-18 7-25c0-8-27 0-18-23l27-4c-19-38-42-2-45-5-10-41 20-21 26-27 5-5 0-33 0-44h-27l-9 27c-25-54 11-27 23-44 10-13 2-46 4-63l-36 45c15-38-18-46-18-49 1-17 41-27 27-40-3-3-27 9-36-22-2-7 37-14 45-13-5-28-35-7-36-9-2-3-2-70 0-76 2-6 61-3 10-41l-5 27c-61-7-10-40-13-45 0-1-23-4-27-14 0-1 21-13 22-13 7 0 16 44 31 27s-12-70-22-89l-22 45c-17-54-24-105-9-161l18 54c20-7 5-60 0-73-3-6-14-7-19-20-2-5-17-77-17-81 0-5 19-5 19-10 0-10-13-27-14-40-3-22 12-54-22-54v-9c73-25-26-63-9-99 0-1 25 13 27-9l-45-14c-2-30 53 21 45-22-13-10-56 21-63-9 48 15 30-28 50-35 13-5 33 0 48 0l-18 18c41 24 56-21 35-36-8-6-33 17-44-5l45-4c-14-60-33 7-63-22-7-22 26-11 39-13 8-2 0-28 33-9 6-39-32 4-45-23-9-20 20-10 26-14 2-1-15-34 28-26 5 11-38 11-18 27 12 9 63-18 82-21 41-7 89 0 133-23l-18-27h45l-4 18c24 5 46-22 58-27h-36c-11-5 31-23 36-18v18c24-10 64-20 90-27l-9-27c63 21 95-7 152-18 8-40-38 8-45-18 32-8 57-20 89-27-1 4 0 12 0 18 39 7 22-12 27-18 104-21 210-47 304-90-14 0-58 7-63-9l116-18c-3 16-32 10-48 17-5 2-5 9-5 10 16 0 185-27 161-45l-45-9c31 4 52-14 78-25l38 7c-26-12-99 29-58 36 8 1 52-24 68-30 25-8 60 1 70-24l-27-18c35-7 63-6 99 0 4-3-10-25-9-27 10-14 88-24 108-27-6 3-30 16-18 27 5 4 41-14 52-15 41-6 137-23 172-43 4-2 11-11 9-13h-36c14-7 26-18 45-18-15-20 0-52-2-67 0-5-14-4-16-11-38-177-69-366-90-544-7-61 3-128 0-179-1-20-20-31-18-50l27-4c-29-5-25-38-27-40-6-5-111 8-129 9-19 0-85-11-94 0-2 2 14 15 4 18-35 11-15-25-27-27-50-11-55 15-64 18-10 3-53-2-66-8-5 30 34 36 45 45 10 8-37 11-18 27 10 9 44-27 36 9l-86 35c-40-7 32-15 32-22-28-29-47 0-68 4-32 5-70 5-103 9l9 18c-44 18-92 19-138 28-24 5-37 25-71 17-8-2 0-32-53-8-45 21-20 5-65 7-24 1-43 27-72 19l5-18c-18-6-31 14-42 15-35 5-13-14-54 11-34 21-25-10-61-17-16 6-3 26-4 27-19 13-13-17-31-19-25-2-72 8-99 12-5 0-3 15-8 15-50-4-81 9-119 7-41-2-31-44-92-15l63 9-9 27c-14-7-59-12-54-36-33 16-52 32-94 34-20 1-53-24-49 11-17-2-6-23-31-27-43-8-101 36-148 19-5 4 29 68-28 23-25-20 11-39-44-32-6-11 39-11 18-27-4-3-25 4-34-1-1 0-11-24-11-25 0 0 17-2 24-7 10-7 23-21 29-24 16-6 75 0 99-14l-27-13 27-40c-18-15-91 75-107 27 63-15 131-66 188-85 257-87 689-116 963-121 54-1 112 3 166 10-8-38-48-34-81-36l18-13c-13-22-52-35-63-53-19-30-2-79-49-95-20 33 30 40 22 72-40-15-32-55-47-83-23-44-84-107-94-148s13-78 7-118c30 20-16 85 18 98-9-41 13-65 25-97 4-11 0-32 4-37 3-3 18 1 23-3 9-6 7-32 16-43 8-9 25-6 32-15 12-16-3-38 0-39 4-3 23 4 34-2 5-3 15-34 29-38-27-10-12-6-9-31 15-4 6 14 10 17 11 9 44-20 53-30l-54-13c42-13 87 0 107-49l-18-13c12-5 57-1 63-5 11-7 15-35 32-38 9-2 22 7 34 6 179-18 276-38 434 60 30 19 56 51 86 67 13 7 28 0 32 3 8 6 8 25 18 35 35 39 20 2 51 65 41 82 94 155 127 240-31 21-13-42-45-31-4 4 16 75 17 85 0 24-38 40-26 49 4 3 43-6 36 48 0 6-17 5-19 12-4 19 6 64-7 90-4 9-38 47-42 47-34 2 29-57 22-62-61 4-50 32-54 81l27-18c4 25-18 38-24 59-27 106 8 332 14 448 5 100-1 205 19 303l-27 22c7 1 25-5 27 5 7 23-8 128 0 138 2 2 13-2 18 0-43 32-7 26 27 18-2-17-17-14-27-18 30-22 91-33 130-36 10 0 33-7 31 9-28 5-99 6-119 18-12 7-5 16-6 27 23-8 46-20 69-25 57-12 106-14 158-30 15-5 83-23 86-26 18-19-23-14-18-27l34 4-7 13c20 4 36 17 45-9l-27-18 54-9-9 18c10-2 41 3 45 0 21-16-23-16-18-27 28-1 52-18 78-25 7-2 30-6 16 7l-53 18c-15 13 9 9 17 8 48-8 94-28 142-38 69-15 142-28 211-39 33-5 68-4 101-11l-45-27c59 2 108-27 168-33 10-1 31-10 29 6-38 12-87 0-116 31 33 3 99-10 130-22 2 0-7-49 17 0l312-64 69-25-27-18 152-36-18 22c-1 7 8 5 13 4 110-17 220-60 332-71 13-14 3-21-13-18 27-27 5-26 0-50-7-35-18-54-23-75-17-76-11-167-23-245l-27-20 27 5c-3-186-5-372 18-555-41 0-59-43-99-36l18 22c-22 13-29-25-59-31-27-6-61 6-76 31 38 7 2 53-4 13-42-5-21 42-27 72 26-17 51-71 85-67l-148 174c-20-16-11-13 0-27 18-23 41-40 49-72-19-1-37 31-48 45-9 11-22 42-24 43-2 1-35-15-44-8-20 16 25 14 18 31-6 15-40 26-36 49 35 0 46-70 80-49-27 60-84 95-131 138-113 104-264 281-360 409-35 46-62 132-99 169-8 8-14 16-27 13l9-63c-21 30-58 48-36 0l-45 18c15-30 52-53 36-89-5-5-22 22-27 18-3-3 7-21-9-18 5 29 16 49-18 63-13-20 21-69 18-72-17-14-57 55-36 80-16 4-6-14-9-17-3-2-22 12-26 8 8-39 60-61 36-98 45 5 17-9 23-27s32-47 39-67c1-29-17 1-20 7-18 29-54 76-51 105-14 1-21 4-18-13 2-9 76-145 88-163 8-13 62-95 67-99 11-10 32-5 51-26 13-15 40-62 10-62l22-22 5 18c33-8 33-75 56-87 11-6 29 2 43-7 69-40 137-152 230-201 20-10 35 1 39 0 1 0-8-20 0-30 6-8 20-3 25-8 16-15 57-72 70-78 22-11 2 27 18 27 14-7 21-33 31-39 2-1 50 6 0-19 10-20 31-1 36-5 2-1-13-14 9-31 35-26 38-5 72 4-21-43 8-34 27-63-22-16-30 24-36 18-16-19-24-68-16-92 7-22 40-28 16-69l-18 18c13-22-18-79-17-85 2-12 40-3 17-40l18 9 9-40-27 13c-3-32 8-38 36-27-18-41 1-21 18-36-1 2-3 27 4 27 14-10 16-19 13-36 0 0-17 8-18 9Zm690-520c-17-14-27 13-30 15-10 6-26-3-24 12 17 12 61-20 54-27Zm-135 27c-8-8-115 41-131 52-12 8-25 10-21 29 48-25 107-71 161-54-5-5-8-26-9-27Zm376 152c-6-6-6-135-72-125-9 9 73 143 81 166s-2 76 35 58c2-1 2-51 0-53-3-3-24 2-27 0v-27c7-7 43 19 18-36-11 4-20 34-36 18Zm-27 27h-18c-3 13 4 19 13 27l4-27Zm-608 18c-18-10-72 44-63 54l63-54Zm365 10c-30 11-80 12-106 23-30 12-80 67-98 71-14 3-33-20-54-5l27 9c-6 28-32 33-50 53-25 29-70 79-82 98-18 30-23 48-57 59 38 9 0 12 0 36 0 5 15 3 18 11 5 13 1 36 10 52-42-6-16 52-18 85 38-18 105 5 63-54l63-9-9 18c48 6 16-13 20-26 3-8 115-95 133-109 3 21-25 28-44 50-10 11-15 26-27 36 32 13 58-34 76-49 100-82 173-127 210-265-11-18-42 17-45 14l-9-54 22 18c17-36-35-31-42-61Zm100 107-4-45c-18 16-24 52 4 45Zm-591 9c-26 2-42 7-36 36l36-36Zm179 26-27 4c8 9 14 16 27 13v-18Zm-268 81c-26-6-20 32-36 45 13 12 41-30 36-45Zm134 81h-27v27c17-9 33-5 27-27Zm376 62c-15-2-50 14-36 27 8 7 33-15 36-27Zm-2794 36-98-9 22 18 76-9Zm-188 0c-11 2-40 0-45 13-6 15 27 15 16 36-4 9-19-2-16 13l45-9-27-36 27-18Zm72 0-45 4c14 20 36 20 45-4Zm-135 9-62 31c11 20 28 4 40-4 11-8 27-6 22-27Zm2660 18h-18v27c13-3 21-14 18-27Zm591 0c-29 0-58 37-81 54 32 2 59-34 81-54Zm-2875 36s-29-10-36-9c4 17 20 20 36 18 0-3 1-7 0-9Zm2490 18c-23 1-53 13-63 36 21-2 52-16 63-36Zm-2382 54-54-18c13 22 39 55 54 18Zm72 18s-29-10-36-18c-6 49 54 41 36 18Zm2561-18c-28-7-34 10-36 36l36-36Zm1012 0s-22-4-27 6c-8 15-23 56-27 74l51-56c-4-8 4-24 3-25Zm-4182 8c-17-3-30 10-27 27l27-27Zm2489 0-27 45c17 2 6-18 9-30s22 0 18-15Zm340 27v-18l-36 9v9h36Zm-3008 27c15-6 30-20 27-36-15 6-30 20-27 36Zm2811-36-27 4c8 9 14 16 27 13v-18Zm359 45c-16 0-38 10-45 27 20 3 38-8 45-27Zm1003 116c28-28 53-78 63-116-24 33-59 75-63 116Zm-3744-107c-27 8-102-22-89 27 15 4 4-16 15-18 27-7 81 28 75-9Zm6770 9c-19-4-28-15-36 9h36v-9Zm54 0c-24 0-51-24-45 9h45v-9Zm170 27-9-36c-18-3-5 22-9 27-1 2-25-14-36-9l54 18Zm-4549 9c-11-21-38-21-54-36-2 28 33 37 54 36Zm4236-36c-34-6-70 9-102 9-18 0-36-10-54-9-43 1-118-4-148 28l291-9 13-18Zm-6815 9c-74-18-70 40-23 36 4 0 18-30 23-36Zm3967 0h-18c-3 13 4 19 13 27l4-27Zm2516 9c-21 3-46-18-54 9h54v-9Zm-89 18v-18l-45 9v9h45Zm-3591-9h-36v18c5 5 47-13 36-18Zm1630 125s2-160-27-125c9 31-1 62 2 91 1 13 3 41 25 34Zm1898-125c-52-6-103 37-22 17 15-4 27 11 22-17Zm-6071 367c15-2 38 8 45 4 2-1 29-31 30-34 9-26-18-31 24-42l5 36c21-18 25-46 22-72l-13 18c-18-7-5-53-9-72s-23-77-31-95c-12-25-113-91-140-92-3 0-11 32-49 17 25-25-30-32-48-19-7 5-14 63-41 19 71-37-42-21-69 2-19 16-36 74-50 93-8 10-69 50-68 61 0 2 21 22 22 22 21 0 4-54 22-54-5 39 10 41 41 54l13-18c0 16 4 46-13 54-19 9-11-26-27-36-9-5-18 3-13 13 8 20 87 61 111 78 14 10 23 35 46 34 8 0-2-22 13-17 0 40 110 55 143 54 5 28 15 24 45 27-9-10-7-32-9-36Zm2184-357c-12-7-32 1-35 17 27-11 35 26 40 27 21 2-2-41-6-43Zm431-1c-9-9-36 18-27 27s36-18 27-27Zm-269 80-134-71c29 42 83 72 134 71Zm3564-71-134 22c21 31 37 0 52-2 19-2 35 4 61-2 16-3 26 8 22-18Zm18 0v18h36v-18h-36Zm949 36c6-42-18-26-45-36l45 36Zm36 0c9-9-18-36-27-27s18 36 27 27Zm-1164-18c-19 0-38 0-57 1-9 0-42 4-41 17 31 3 56-6 87-2 20 2 15-13 11-15Zm-6403 197s-8-32-7-47c1-42 35-94 25-141-12 0-19 26-22 36-13 37-23 96-18 135 2 12 13 29 23 18Zm3125-188h-54v18l54-9v-9Zm-2794 18c-9 5-52 16-54 18-3 3 8 20 7 30-2 15-29 30-24 51l72-98Zm2732 0h-45v9h45v-9Zm179 26-45-27c18 55 54 15 89 63l-40-54-5 18Zm2991-26h-45c-6 33 20 8 45 9v-9Zm770 0h-45v9h45v-9Zm501 0c-6 6 4 36 13 36 27 0 2-53-13-36Zm64-2-19 5 10 36 19-5-10-36Zm-4255 906c21-7 30-26 27 18 40-24 134-17 165-35 7-4-16-23 38-34 9-2 31-9 29 7l-27 9c54 7 117-9 170-27 4-14-9-7-11-9-27-37 8-23 29-9 18-24-105-130-125-148 41-31 34 16 47 29 9 9 32 8 51 34 6 8 2 20 4 23 10 11 28 6 31 9 2 2-19 29 13 54 9 7 39 9 49 4-8-21-34-32-44-45-74-88-148-167-221-253-9-11-111-137-119-127 22 55-14-3-22 36-24-26-58-28-40-72 13 4 13 18 25 26 2 1 36 18 29-4l-58-67c-32 50-41 19-31-27 12-5 8 36 27 18 3-3-19-85-33-90-36-12-20 23-48 18-5-34 2-22 27-31-27-13-32-56-44-71-8-9-22-3-28-11-11-16-2-45-34-53-20-5-32 20-37-32l18 4c-4-15-16-18-22-40-78 11-57 34-40 98-30 8-18-36-27-45-11-11-16 1-20 11-8 21 25 112 38 136-34 9-7 9-4 31 15 90 8 174 27 270 6 33 32 93 37 122 2 11-6 26-4 28 3 3 14 0 16 1 3 3-37 42-27 63h36c-4 26-29 23-18 63l27-9c2 8-2 20 0 27 0 0-17-10-18-9v27c15 5 25-4 18-18 1 3 18 17 9 36l-18-9c2 21 12 82 31 90 9 3 0-21 9-18 18 7 0 47 40 36l-18-54c39-1 25 21 49 45 13-4-8-23-5-27 3-3 20 2 27 0-20 10 13 32 9 36-71 18-32 33 18 18 11-25-17-27-17-31s19-37-10-23Zm2821-895c-18 5-77-6-72 27 25 2 59 0 72-27Zm-80 18c-9-9-43-12-45 9h45s1-8 0-9Zm-1808 1-24 57 21 9 24-57-21-9Zm-4165 16c-9-9-36 17-27 27s36-17 27-27Zm3142 10s-25-11-26-10c-8 10 26 38 27 36 0-8 3-21 0-26ZM2958 1800l-4-36c-20 14-17 28 4 36Zm2931-21s-3-10-3-15c-22-17-13 85 27 18-8 0-17 2-24-3Zm4609-15c-28-29-10 65 9 63 0-10-7-60-9-63Zm-4540 27h-18c-2 17 0 26 13 36l4-36Zm259 99-67-89c-11 11-18 9-4 22 25 22 46 46 71 68Zm3941-63-5-27c-19 8-2 34-4 36-10 7-210-2-247 0-120 6-276 21-394 45-15 3-27-10-22 18 140-20 276-43 417-37 5 0 0-17 17-18 93-4 217 17 312-3 15-3 37-5 42-23l-116 9Zm-99-9h-45v9h45v-9Zm-6332 17-15 4 13 45 15-4-13-45Zm5723 19h-36v18l36-9v-9Zm-1836 9h-18v27h18v-27Zm1648 0c-18 3-62 0-72 18 24-2 61 10 72-18Zm1262-3-15 5 37 101 15-5-37-101Zm-7584 56s-6-51-18-45v45h18Zm4827-9s-13-25-9-36h-9l-9 45c7-7 26-8 27-9Zm1164 511c44-32 84-76 135-102 33-17 79-36 115-32l-9-27c62 6 126-35 184-44 66-11 192-14 258-8 10 0 49 4 50 17-20 1-46 6-54 27 93 27 51-17 74-34 7-5 79-14 88-11v9l-27 9c77-16 149 13 224 27-12 32-22 5-42 2-57-9-115-13-173-20-20 15 93 23 98 27v9l-36 9c18 7 38-8 50-8 4 0 4 17 8 18 20 3 39-25 49-18 2 1 1 17 15 25 19 11 48 5 66 16 8 4 82 64 95 75 11 9 12 26 13 27 31 28 7-47-18-68-16-14-30-2-36-7-18-15 8-44-36-23v-27c15-4 24 11 36 14 10 3 23-5 25-3 4 3 51 69 59 80 22 33 87 180 105 191 8 5 25 4 26 5 0 0 4 17-4 16-7-1-18-17-14 6 4 19 36 51 18 67-17 15-18-18-22-18-34 0-8 61-4 63 1 1 26-12 36-9 6 13-28 7-18 18 7 7 33 12 27 45-46-3-3-50-44-40l9 58s31-13 36-9c18 15-17 18-18 22-5 24 25 2 18 31l-27-9c-5 16 13 21 15 33 3 16-15 60-7 84 17-3 24-13 35 5 5 7 32 116 28 120-1 1-18 0-22 9l-13-18c-9 54 37 21 45 27 2 2-8 42 0 54-2 2-40-25-27 13 7 20 33 2 36 4 2 2 6 52 9 63l-31-18c-11 15 14 40 23 58 6 12 6 36 9 40 1 2 34-12 44 14-3 8-26 9-27 18 0 5 33 88 39 100 4 9 39 37 33 66 38-19-19-42 17-76l9-85v166c0 48 9 47 25 83 9 20-10 39 29 47l-18-54 27 9c-8-43 8-91 9-130 3-124-23-339 16-439 5-13-4-122 2-151 1-7 17-6 17-10-3-72-38-101-51-146-6-20 2-42-3-60s-24-5-25-6c-5-7-7-58-10-71l27 22-18-103-18 9-18-108-18 9c19-39-9-37-10-41 0-44-19-96-37-150-29-83-71-166-101-248-11-31-2-69-5-71-8-7-160 14-184 9l13-18c-52-3-104 5-156 7-18 0-58-17-68 6-4 9 22-2 18 13-64 7-35-9-40-18-12-18-106 7-130 0-6 33 20 8 39 10 9 0 42 4 41 17H9700l9-18-134 18 9 18c-26 5-49 24-58-9-53 50-117 42-184 36l18-18c-97-11-197 11-295 18l4 18 22 9c-63-29-131-11-197 0l54 18c-41 23-64-18-68-18-34 0-91 22-129 18l36 9c-7 23-34 18-54 18l9-18h-36l9 27c-10 0-21 2-30 0-5 0-10-35-24-18-3 4 11 23 9 26-1 2-45 19-49 18-18-7-3-25-4-26-13-7-47 7-63 9l9 18c-41-14-42 4-64 12-87 34-174 69-264 94 0 30-15 60-17 89-2 31 23 83-14 95 53 23 9 32 9 54 0 6 16 3 18 10 19 73 12 203 23 273 2 16 16 28 20 41 51 206 90 405 143 609 45 173 111 359 132 540 1 10 32 65 0 47l-4 34-9-36-18 27c-31 6-6-15-18-22-25-15-8 29-8 35 0 2-34 16-19 33 16 18 20-37 36-18 0 1 1 27 0 31-3 12-35-23-27 13 20-14 31 30 45 18 3-3-13-14-4-18 10-4 47-7 49-9l-9-18c43-22 62 11 94 13 25 2 115-9 143-14 10-2 16-5 23-13l-18-13 67-9 18 9-18 9 94 18-9-18c98-5 194-25 291-36 55-6 279-13 306-30 4-2 2-14 3-15 15-10 22 4 9 18 29-2 112 10 125-22 4-9-22 2-18-13 38-17 56 18 60 18h88c16-1 149-19 157-23 4-2 11-12 9-13l-36-9h63l-9 18c20-4 136 0 143-9 18-20-21-13-18-27 32-10 44 22 67 27 48 10 26-20 31-27 19-23 11 21 22 26 3 1 29-4 31-12l-18-13h40l-22 27c51 4 97-14 148 0 21-33-28-5-31-27 15 8 52-11 54-9 3 3-2 34 18 36-28-56 40 3 58-54 9-28-9-29-10-40 0-5 11-15 12-25 2-32 4-64 3-96-15 25-22-25-36-9-10 12 28 43 27 58l-27-13v54l27 5c-25 25-57 40-76 67l-63-63-13 27c-8-37-39-49-18-89-14 12-50 0-53 1-9 5-6 52-51-10-30-41-115-226-126-275-34-150-55-345-66-500-7-95 10-156-24-238-20-48-45-97-70-143l-9 27-67-54c-10-12 47-4 27-27-8-8-195-32-222-34-15 0-24 4-38 7l27 27-89-9 36-27-179 9c37 45-5 33-27 0-14 13 24 49-45 36l18-18c-75-4-143 37-215 45-20 16 38 19 9 31-20 9-38-8-44-4-3 2-22 43-37 58-26 25-60 30-80 45-10 8-14 23-23 31-8 7-49 24-49 31 0 2 14 11 16 20 3 11-40 78-61 66v9c48 2-20 76-18 108-29-9 11-48 9-58-1-6-15-19-23-5-10 18-17 83-22 108l22-18c4 25-14 84-27 107-15 27-11-16-22-9-6 50 3 22 27 40l-9 76c-24-4 10-54-27-45 5 19-6 35-8 50-5 32 33-25 35 8 0 2-11 39-13 41-6 9-21-3-22 0-9 14 41 42 0 54l-27-36c0 12 10 44 18 50 10 7 33-19 35 19 1 21-24 19-26 21-3 4 17 17 18 31 0 17-15 27-18 36 0 3 12 4 17 12 8 12-15 28 27 10l9 54-27-9c-1 17-3 39 18 45l18-27c-16 23 7 48 5 67-1 12-24 26-24 54 0 22 19 31 19 44 0 3-38 5-5 50 7 9 21-2 22 0 12 17-26 17-24 48 2 26 21 17 24 33-33-4-10 20-13 37s-27 28-30 41c-3 10 19 49-6 38-20-8-13-81-18-89-7-13-63-34-68-41-12-16-41-97-44-120 18 13 12 17 36 27 0 6-13 22-9 27l27-22c0-9-13-3-18-4 2-31-30-32-18-72l-36 18c1-36-6-72-9-107 6 1 19 3 18-5-9-18-4-54-27-36 11 12 7 26 9 40-9-2-34-71-36-85-4-22 9-8 18-4l-9-54-18 36c-31-64 1-118 8-175 23-199 57-354 105-548 6-26 31-27 3-55h27c14-31-32 1-18-22 9-16 25-4 26-5 5-9 0-43 12-59 20-28 97-64 123-83 0 0-10 17-9 18h27c5-15-4-25-18-18Zm18-493c10-32-23-9-45-9v9c15 2 30-2 45 0-6 19-34 22-52 25-35 6-112 4-140 14-11 4-24 17-10 25l413-71c91 0 196 0 285-19 15-3 27 10 22-18-89 2-183 28-274 19-22-2-5-20-22-19 0 11-4 20-15 25-42 19-162 26-209 20Zm-1988 269 43-150 82-146c-58 63-133 197-143 283-2 18 2 13 17 13Zm3376-295s-19-3-18 4l31 40c10-2 16-10 3-21-13-12-16-23-17-23Zm-6609 53v-45h-9v45h9Zm4683-35c-47 8-109 33-143 63l39-10 104-52Zm-2480 17-36 9 31 45 4-54Zm35 0-13 3 13 63 13-3-13-63Zm1648 0c-29-8-22 29-4 45l4-45Zm144 45c1-17 3-39-18-45l9 45h9Zm-493 9 18-45s-71 44-18 45Zm1469-45c-19-17-30 31-18 45 19 21 20-43 18-45Zm-2302 36-27-27c-3 17 10 30 27 27Zm4093-27s-26 8-36 0l9 27c15 5 33-15 27-27Zm-6617 14-9 36 17 4 9-36-17-4Zm3706 94-4-71c-14 0-18 69 4 71Zm-4307-54s-36-17-27 4c10 24 40 13 27-4Zm3949-9c-55-4-77 58-71 107 32-22 39-43 27-81 13-5 7 35 27 18 2-2 20-42 18-45Zm1370 0-45 4-71 32 116-36Zm-3179 27c-10-46-60 20-54 27 13 14 30-41 54-27Zm2669 0s3-19-4-18c-47 17-14 37 4 18Zm-1057 18-4-27c-9 8-16 14-13 27h18Zm-3412-18c-22-7-22 6-28 11-49 34 22 29 28-11Zm4854 0-45 9 4 19 45-9-4-19Zm-2167 18c-17-14-28 17-4 27 21 9 6-25 4-27Zm-949 18c-13-14-28 24-36 36 16 6 44-27 36-36Zm5014 0h-27l9 45h9l9-45Zm-7289 71c-3-10-43-54-54-45 8 23 26 46 54 45Zm1997 0c-9-27-28-16-27 9l27-9Zm198 10s40-8 22-28c-33 30-77 63-94 107 28 5 24-34 42-45 11-6 26-8 39-9 4-4-10-22-8-26Zm-2088-1-27-9c-26 53 33 15 27 9Zm654-9h-18v27c13-3 21-14 18-27Zm1406 1h-36v18c17 2 31 0 36-18Zm2517 8c-35-7-37 14-13 36l13-36Zm2793 36c4-12-13-45-18-36-2 16 0 31 18 36Zm-4647-18h-18v27c13-3 21-14 18-27Zm528 54c3-16-12-29-27-36-3 16 12 29 27 36Zm3992-2c2-5-10-23-7-34l-27 18s21 85 36 58c-31-45-4-39-2-42Zm-3465-12c0-6-5-11-11-11s-11 5-11 11 5 11 11 11 11-5 11-11Zm136 77c12-29 18-58 18-90-15 9-26 47-31 63s-5 20 13 26Zm689-27c4-12-12-56-18-45-4 12 12 56 18 45Zm1738-27c-13-12-132 0-143 27 43-6 87 0 130-9 14-3 16 6 14-17Zm-6555 0c-20 0-47-5-54 18h54v-18Zm98 0s-34 11-45 9v9h45c0-6 1-16 0-18Zm81 0-54 9 54 18v-27Zm125 18c-5-20-28-19-45-18-11 5 32 22 45 18Zm54-9-45-9 27 27-45 9c26 3 52 0 63-27Zm6385 0s-81-17-54 9c2 2 56 12 54-9Zm-6896 0c-23 14-41-14-36 18h36v-18Zm6492 5-82 23 4 14 82-23-4-14Zm46 4-36 4c14 20 28 17 36-4Zm1388 466c8-77-23-149-41-223s-24-140-55-213c-5-11-5-26-20-29l116 466Zm-8391-457c-13 3-51 1-54 18 22 9 44 6 54-18Zm2749 36c16 3 30-10 27-27l-27 27Zm72-18c-17-4-22 8-31 19-31 36-66 86-95 125l31-18 94-125Zm2659 45c34-3-6-51-9-45l9 45Zm4048-39-6 28 59 13 6-28-59-13Zm-4791 12c-48 1-11 41 9 27 3-2-13-17-9-27Zm4764 0c-26-7-55 8-77 8-80 0-124 2-205 19-15 3-27-10-22 18 95-23 195-15 291-27 13-2 27-7 13-18Zm-9716 9c-19 1-62-2-72 18 15 7 19 3 31 0 7-1 42-9 40-18Zm4710 134 27-134c-26 16-38 67-42 96-3 18-12 44 16 38ZM2026 2320c9 27 28 16 27-9l-27 9Zm162-1-51 22 7 15 51-22-7-15Zm4898 36c18-5 20-19 18-36-18 5-20 19-18 36Zm2579-9v-27l-27 22 27 4Zm-1657 27c2-17 0-31-18-36v36h18ZM5877 2400v-54h-9V2400h9Zm3514-50-12 50 24 6 12-50-24-6Zm1268 41-4-36c-20 14-17 28 4 36Zm994-36c-16-2-31 0-36 18 12 4 45-13 36-18Zm296 0h-18c-4 20 8 37 27 45a170 170 0 00-9-45Zm-5007 28s-29-13-34-19l-9 45c32-24 26 11 31 9 11-4 18-24 12-35Zm2410-19s-85 20-89 36c25 2 49-3 72-14 6-3 35-8 18-22ZM3665 2400c9 9 41-17 13-27-19-7-16 23-13 27Zm6412 9c3-16-12-29-27-36-3 16 12 29 27 36Zm1845-18c-5-20-28-19-45-18 4 19 29 14 45 18Zm-6985 27s10-29 9-36c-17 4-20 20-18 36 3 0 7 1 9 0Zm-1854-27h-27v18c12 3 24-5 27-18Zm-170 9h-27v18c12 3 24-5 27-18Zm4755 36L7650 2400c10 39-25 22-36 45l54-9Zm1899-27c-27 0-68-9-94-7-19 1-32 12-47 15-23 3-57-16-74 19l215-27Zm71-9h-54c-12 39 66 6 54 0Zm72 9-63-9c-26 20 62 29 63 9Zm1558 36s78-24 89-31l-72 9c-14-2-26 15-18 22Zm-8561-18s-29-11-36-18c-5 35 4 28 36 27 0-3 1-7 0-9Zm143-18h-45v9h45v-9Zm3949 0c-23-18-23 29 9 36 0-7-8-35-9-36Zm1397 54c0-20 5-47-18-54l9 54h9Zm1568-36c-5-20-28-19-45-18v9l45 9Zm1494 26c13-16-7-55-35-44 0 24 10 75 35 44Zm-4190 1v-36c-5-11-23 31-18 36h18Zm2164-42-45 27 7 12 45-27-7-12Zm542 0-2 14 98 12 2-14-98-12Zm-7148 15-107 18c22 0 44 2 66 0 10-1 42-3 41-17Zm4281 0h-18v36c5 11 23-31 18-36Zm2425-4-72 22 5 17 72-22-5-17Zm-3446 12-13 3 14 72 13-3-14-72Zm833 64c10-10-34-50-45-54 0 27 21 46 45 54ZM8340 3797c-13-38-44-85-57-127-12-39-22-93-24-133l-17 9c-3-21-20-42-24-62-5-26 6-36 6-49 0-5-15-4-17-12-7-25 0-112-10-119-5-3-36 30-27-18 44 30 12-90-18-63l-9-63 18 9c13-57-39-15-27-72l18 18v-36l-27 9-9-45 18 22 9-17c-27-21-17-109-28-120-4-4-42 3-25-19 0-1 12 2 16-2 9-10-33-158-41-183-4-13-19-12-18-16 5-54-7-24-10-36-7-26 18-21 18-28 2-53-41-127-27-183l-36 27 27-36h-71v58l-45-22c8 43-36 46-45 80l-40-36-13 27c57-8 13 52-24 24-39-29-18-65-21-69-2-3-56-15-67-27l13 36c-19-12-34-6-54-4-23-21 7-8 9-18 7-32-64 16-81 5l9 18c-17-6-57-10-70 1-2 2 16 30-28 26l9 18c-33 10-65 12-99 18 5-10 5-19-11-16-38 6-77 15-114 25 0 16 34 9 45 9-57 16-82 12-128 20-11 2-37 24-47 25-4 0-4-18-10-19-3 0-64 8-66 10-21 16 23 16 18 27-46-4-135 45-173 36-3 0-17-33-51-18l18-18c-41-10-18 19-33 27-24 13-105 13-138 27-2 16 20 9 30 8 31-3 71-14 100-26 8-1 5 17 4 18-12 13-169 19-193 45l13-27c-39-8-21 13-31 27-9 12-38 12-53 9-5-1-9-35-24-18-4 4 14 30 9 36-25-15-38 7-62 14-59 15-120 31-179 45-20 5-89-9-81 35 2 9 22-2 18 13l-27-36c-17 13-23 17-45 9l45 54c-23 10-17-18-22-17-6 0-42 13-46 17l14 54c-28-10-24-38-27-63l-36 27c0-9-7-42-10-45-3-2-78 8-53 36 11 12 48-43 71 32 7 22-20 4-27 13-5-7 29-34-27-36 9 37 22 52-27 45-4-16 20-4 18-13-3-13-17-18-24-26-6-7 0-20-7-24-37-15-13 28-14 45-20 0-25-43-27-45-5-4-13 14-22 15-5 0-12-12-23-11-28 2-55 13-94 15-3 0-8 44-22-10l40-18-58 19c22 29-46 40-72 35l14-27c-31 26-28 40-73 53-70 21-161 45-225 62-11 3-43 9-53 10-22 0-12-33-39-27l27 36c-48 7-94 23-142 34-117 27-244 58-362 85-34 8-99 39-136 22-12-6-12-21-16-23-12-8-61 16-79 17 8 26 73-7 80 0-4 51-80 23-103 29-3 0-31 24-57 31-54 14-142 26-190 43s-26 16-90 26c-19 3-56 27-82 35-283 87-607 122-873 238-15-3-97 7-101 11s0 19 0 26c-40-36-21 0-32 0-39-2-10 2-28 8-181 64-381 72-547 165l-314 86c-10 34 22 19 18 40 0 4-56 24 27 31l-4 18-31-9c-3 23 6 46 6 68 0 252 31 512 26 759 0 45-23 95-16 144-8 28-42-13-34 24 52 13 39-29 45-36 0 0 14 8 22 7 27-1 49-19 76-7-10 30-99 13-85 54 99-41 204-63 306-97 24-8 22-10-1-10-58 10-113 35-171 44-9 2-33 7-30-8 53-7 101-35 150-51 135-42 269-80 397-126 5-2 18 8 29 7 83-12 163-43 245-60 107-22 216-32 325-47l-9 18h36s-10-17-9-18c8-10 114-5 134-18l-9-18c26-11 26 16 33 18 8 2 46 2 48 0 21-16-24-16-18-27h54l-27 27c62 12 39-19 46-26 5-5 25 0 35-1l-9 18c17 4 60-5 72 0 1 0-14 24 9 27 0-51 19-24 47-28 59-10 59-8 111-10 87-3 176-12 263-15 0 11-23 28 4 27 3 0 3-22 45-27 61-7 56 16 63 18 33 10 31-54 44-9 30-45 45 11 58 0 10-8 4-36 54-31l-54-13c18 1 39-3 57 0 7 1 6 15 10 16 65 12 90-13 148-25l-18 13c11 15 22 14 39 13 88-4 238-38 330-55 543-103 1090-214 1634-300 174-28 357-43 533-76 69-13 40-31 43-33 20-14 20 23 31 25 17 3 109-26 136-30 167-24 349-40 518-57 90-9 218-5 302-21 16-3 30-3 25-24l-89 9c4-21 57 3 62-23 3-17-34-83-36-107-2-29 42 10 27-18-11-20-31-3-40-13-19-20-8-48-13-63 0 0 17 10 18 9v-27c-15-5-25 4-18 18Zm-994-1299c12 6 102-15 81-36l-81 36Zm1836-26c-12-4-45 13-36 18 16 2 31 0 36-18Zm815 44s-25-53-45-45c7 5 31 58 45 45Zm196 0c10-10-33-48-36-45-2 25 14 39 36 45Zm1828-47-9 54 17 3 9-54-17-3Zm-4756 12c-6-6-26 10-36 9l27 9-18 18c34 15 32-31 27-36Zm591 17c-3-13-14-21-27-18v18h27Zm3887 18-4-36c-19 15-23 42 4 36Zm-9627-9c-3-13-14-21-27-18v18h27Zm4710 18c8-8-19-42-36-36-3 2 23 48 36 36Zm269-35c-12-4-45 13-36 18 16 2 31 0 36-18Zm1110 0c-17-14-28 17-4 27 21 9 6-25 4-27Zm833 35s3-19-4-18c-47 17-14 37 4 18Zm1523 1-27-9v36l27-27Zm-5612-7-28 58 14 7 28-58-14-7Zm2182 24c-4-21-28-8-45-18v18h45Zm1710 9c-10-34-20-36-27 0h27Zm269-27-35 14-55 48c19 5 24-17 36-22 20-8 59 9 53-40Zm922 1c-70-13-5 86 9 71-5-17-27-42-27-58 0-10 22 2 18-14Zm1299 770s-2 13 2 16c3 2 40-8 68 8 15 9 10 20 11 20 4 2 18-16 32-18 19-3 47 10 71 10 66 0 171 0 232-10 10-2 17-5 23-13l-18-13c66 0 91 7 81-72l18 27-5-36-22 9-8-68c-5-25 15-5 18 0 13 22-15 35 17 31 2-127-39-249-45-376-40 22 20 92-18 107l-9-125 27 9-9-81-27 63-9-76 36 4c-6-63-29-124-18-188-47-6-75 18-113 31l-218 13 9 89c-10 8-9-36-22-9-14 29-10 72-22 103l27 9-36 18c56 32 8 21-9 31-7-8-8-25-9-36-28 6-9 40-9 54-14 25-12 78-19 111-4 19-23 28-8 50l-27-9c-9 24 15 15 17 24 7 32-6 56-35 71l27 5-9 76 9 85c11-78 8-157 27-233l9 80 27-45-18 80-13-18c-17 7-17 75-14 93 0 2 51 23 0 19 6 22 9 37-9 54 51 17-8 25-9 22-2-4 2-20 0-27h-18v36c0 1 17-10 18-9Zm483-770c-28-7-18 22-18 41-3 183 51 444 73 634 1 9 4 42 17 41l-63-568 27 4c8-25-16-15-24-31-11-23-20-94-12-122Zm-5883 125c-2-19-3-39-8-58-4-15-12-52-27-59l4 45 32 71Zm5480-81-4-36c-19 13-7 17-4 36h9Zm-7701 18c2-17 0-31-18-36v36h18Zm1272 0 9-36c-21 11-37 26-9 36Zm1728-27c-34 0-85-7-107 27h63c2 19-30 4-36 9-2 1 8 27 0 36 17 1 39 3 45-18l-27-9c47 10 15-25 18-27 15-9 52 11 45-18Zm152 0h-18l9 36h9v-36Zm1200-1-15 4 13 45 15-4-13-45Zm-1227 10-54 36c15 2 75-9 54-36Zm-2964 9s-19-3-18 4c17 47 37 14 18-4Zm2723 0c-62 12-132 13-188 41-13 6-23-2-18 22 59-23 125-26 185-44 15-4 25 7 21-19Zm2382 0c-18-16-39 24-36 27 7 6 51-14 36-27Zm-2230 18c-10-11-73-21-54 18 8 1 76 5 54-18Zm1467-10-14 2 13 72 14-2-13-72Zm-1622 31c-28-9-51 4-78 6l54 18c-42 0-83 13-122 26-14 5-26-8-21 19 62-16 124-40 188-45 0-5-19-23-20-24Zm5465 42-9-45c-5-11-37 49 9 45Zm-3080-36c-53 7-62 59-81 98 30 4 47-61 56-70s33 11 25-29Zm2256 63-9-63c0 16-14 56 9 63Zm161 80c-5-50 33-94 18-143-16-3-5 15-12 24s-29-10 3 29c-42-12-20 42-25 78-2 20 13 15 16 12Zm-5032-134c-28-2-52-1-79 6-16 4-23-3-19 20l98-27Zm-2642 9c-34-7-5 28-9 54h9v-54Zm2740 0h-36v18c5 5 47-13 36-18Zm3609 45c4-12-13-45-18-36-2 16 0 31 18 36Zm-3895 0v-27l-45 9c0 19 41 22 45 18Zm169-30-45 14 4 14 45-14-4-14Zm681 3c-12-4-56 12-45 18 12 4 56-12 45-18Zm1209 9c-15 0-20-5-18 13 5 44 33 102 42 146 35 157 62 320 105 477l31 81-161-716Zm-1961 9c-9-1-42 6-44 10-2 3-6 58 31 26 16-14-19-3-13-18l27-18Zm3828 13c-4-6-5-22-13-9v35c0 9 26 6 27 5 14-13-10-26-14-31Zm1957-13-17 3 9 45 17-3-9-45Zm-3260 9-22 18-32 152 54-170Zm1397 44c3-12-5-24-18-27v27h18Zm-4298 9c-4-16-14-17-29-16-73 5-318 67-390 94-11 4-26 5-29 20l448-99Zm-2122 45c4-12-12-56-18-45-4 12 12 56 18 45Zm98-36v36h18v-36h-18Zm4227 0h-18s13 47 18 36v-36Zm-2543 18-54 13c9 26 61-8 54-13Zm5212 9h-18v27h18v-27Zm-4908 9c-12-3-24 5-27 18h27v-18Zm2911 63c5 7 40-45 13-54l-13 54Zm-5033-45h-18l9 45h9v-45Zm2060 0c-79 13-154 41-231 60-3 0-75-3-47 20 10 8 224-54 256-63 14-4 27 10 22-18Zm554 5-108 32 4 14 108-32-4-14Zm4819 273c17-4 16-18 18-31 8-56 8-116 13-171 2-21 31-44 0-67l-31 269Zm913-206-13-63-13 63h27Zm-6645-45-45 13c17 25 34 8 45-13Zm-53 27c-107 0-209 36-311 60-21 5-64-4-74 20 70 11 124-22 191-27l194-53Zm3306 330 52-321c-13-2-13 16-15 25-22 81-25 164-42 235-5 22-36 53-23 89l45-18c4-15-12-5-16-10Zm2103-259c23-7 18-34 18-54-23 7-18 34-18 54Zm44-9v-45h-9v45h9Zm-7083 36-18-72c-27 51-11 26-3 38 10 14-11 40 20 34Zm1746-71c-22 0-54-7-63 18 16-2 57 0 63-18Zm-197 18c-23 0-60 2-72 27l72-27Zm90 9c-74 0-139 42-215 36 28-32-43-10-55-6-9 3-27 2-25 15 17 1 59-16 72-9 1 0-13 20 5 27 53-22 114-25 168-38 11-3 47-13 52-24Zm528 17v-18l-36 9v9h36Zm2230 18c9-12-8-42-27-36v45c7-6 26-8 27-9Zm3940 45c-4-21 5-68-18-80-5 25 2 40 0 67-1 18 0 14 17 13Zm-3342-65-15 56 15 4 15-56-15-4Zm-4950 38c6-5-47-55-27 9l27-9Zm1182-27-81 13c16 24 67 5 81-13Zm5820 0c-34-5-11 62-27 80 28 4 14-7 18-22 4-19 6-39 9-58Zm-1952 72 9-63-9 27-27-9c-9 11 15 40 27 45Zm-3976-54c-97 16-193 32-289 56-9 2-27 3-25 15 16 0 34 3 49 0 65-14 133-38 204-38l61-33Zm215 0c-22 0-54-7-63 18 15-8 56-2 63-18Zm-89 35v-26l-72 18c0 18 23-2 18 22l-18 13c61 10 23-22 27-27 1-2 36-14 36-5l-18 22 125-22c-21-34-78 23-98 4Zm5140-17h-27v36c12-4 33-25 27-36Zm179 54c-14-14-10-48-27-54-2 21-5 56 27 54Zm-6555-36-16 11 34 159-18-170Zm1030 18c-15-7-66 12-54 18l54-9v-9Zm-269 18s-102 24-98 31c16 36 31-4 33-4 5-1 94-3 65-27Zm197 0c-27 0-54 7-80 14-10 3-29 0-27 13 18 2 40-4 57 0 7 2 3 18 19 19s52-8 69-13c9-3 27-2 25-15l-98 9 36-27Zm6027 0c-25-4-17 4-18 22-3 55-11 110-9 166 12-4 16-47 17-59 4-43-2-86 10-129Zm-2570 9h-27v18h27v-18Zm-3582 18c-15-7-66 12-54 18l54-9v-9Zm-189 9c-9-9-36 17-27 27s36-17 27-27Zm923 0c-12-5-56 13-45 18 17 1 39 3 45-18Zm-797 9c-23 0-60 2-72 27l72-27Zm-197 9-352 82-15 34c14-8 22-15 39-20 107-29 200-37 308-76 12-4 26 23 21-21Zm6431 16s5-20-10-16c-5 18 11 35 27 45v-36s-15 10-17 8Zm417 45c2-5-13-38-7-52-11 3-24 41-25 49-6 41 19 118 7 166 21-12 32-61 27-81l-18 4c-7-23 14-34 18-44 3-7-16-2-18-10-9-33 15-30 16-32Zm-6633-43c-9-6-84 7-63 27 3 2 61-16 63-27Zm-233 27-45 9v9c17 1 39 3 45-18Zm761 0c-16 2-57 0-63 18 17 0 57 3 63-18Zm3117 26s-16-24-27-18v27l27-9Zm-3959 18s19-26 18-27l-45 9c-4 6 18 21 27 18-2 0-35 19-36 27l107-18-72-9Zm654-9s-34 11-45 9v9h45c0-6 1-16 0-18Zm6403 54c18-5 20-19 18-36-18 5-20 19-18 36Zm833 107-18-143c-3 8-16 178 18 143Zm-8069-125c-27 0-72 3-89 27 25-7 74-3 89-27Zm-304 27c-22 6-45 12-68 18-14 4-26-10-22 18 28-9 73-8 89-36Zm295 9c-30 5-74-7-90 27l90-27Zm-546 18c-17-2-31 0-36 18 17 2 31 0 36-18Zm152 0c-7-6-169 41-188 50-13 6-22-1-18 22 23 6 36-17 53-22 8-2 190-18 153-50Zm7128 54-4-36c-11 12-26 19-22 36h27Zm-7056-27c-16 3-69-3-63 27l63-27Zm27 27c-34-10-58 12-86 18-19 4-49-23-48 18l47-2 87-34Zm4916 17c-3-13-14-21-27-18v18h27Zm2069-17h-18v36c18-5 20-19 18-36Zm-376 18-27-9c0 25 18 36 27 9Zm1728 17c-5-18-19-20-36-18v18h36Zm-8695-8c-21-1-60 6-72 27 17 5 27-4 40-9 9-3 33-7 31-18Zm116 0c-16-2-31 0-36 18 12 4 45-13 36-18Zm5212 53c11-19-22-68-36-54-8 8 22 52 36 54Zm3089-36c-6-26-72-8-81 9l81-9Zm314-18c-30-5-22 55-27 72 19-11 24-52 27-72Zm-8570 18c-25-2-59 0-72 27 21 0 60-6 72-27Zm6807-2-14 3 11 55 14-3-11-55Zm-7085 29s3-19-4-18c-43 14-75 30-121 40 13 25 121-18 125-22Zm6887-18h-18c-3 13 4 19 13 27l4-27Zm1468 18-25-12-163 21c62 15 125-10 188-9Zm-3206 126c2-15-2-29-6-43-4-17-14-56-29-64 8 32 8 86 36 107Zm3654-108h-18v27c13-3 21-14 18-27Zm-8937 18c-11 2-23-10-31-9-30 5 10 54 31 9Zm5113 72c-6-25 1-67-27-80 5 23 5 67 27 80Zm475-72h-18v27h18v-27Zm-5633 27c-15-28-56-29-45 9l45-9Zm7315 1s-25-11-26-10c-6 7 14 51 27 36 1-1 1-22-1-26Zm-7396-1c-16 3-69-3-63 27l63-27Zm251 0h-36v18c5 5 47-13 36-18Zm6914 36c3-12-5-24-18-27v27h18Zm-6959-18c-20 0-47-5-54 18l54-9v-9Zm-313 27s3-19-4-18l-67 36c11 2 69-15 72-18Zm134-9c-20 0-47-5-54 18l54-9v-9Zm7415 89c-5-29-21-72-45-90l45 90Zm-7352-81-64 14 4 17 64-14-4-17Zm7119 28s-43-20-36 4c7 23 40 85 71 76 2-15-22-8-26-23-2-9 12-22 3-31-44 1-9-21-13-27ZM8510 3815c7-45-15-83-20-127l-60-177c16 94 42 186 65 280 2 9 3 27 15 25Zm-5534-278s3-19-4-18c-47 17-14 37 4 18Zm-54 18c9-9-18-36-27-27s18 36 27 27Zm-260 18c-3-34-17-28-36-4l36 4Zm135-27c-17-2-31 0-36 18 17 2 31 0 36-18Zm71 0c-41 11-92 26-125 54l69-16 56-38Zm7621 90c-3-25 12-67-18-81l18 81Zm1201-64v-17c-29 23 0 33 27 27 7-35-22-6-26-10Zm97-17c-14 10-70-13-63 18l63-18Zm-3483 9h-27V3600l18 9 9-45Zm2740 45c29 6 61-14 63-45l-63 45Zm-8427-36c-19 0-74 5-72 36l72-36Zm90 27c14-14-27-38-27-13 0 6 22 19 27 13Zm8033-27c-25-4-17 4-18 22-2 25 1 51 0 76l18-98Zm716 18c-7-23-34-18-54-18v18h54Zm81 0s-29-10-36-9c4 17 20 20 36 18 0-3 1-7 0-9ZM2680 3600c-5-6-56 11-45 18l45 9c0-7 2-25 0-27Zm7602 19s-28-11-35-10c-6 6 20 73 36 49-11-11 0-38 0-40Zm655-10c-6-5-137 52-116 72 6 5 87-42 99-49 5-3 35-8 18-22Zm-8427 9c-20 0-47-5-54 18l54-9v-9Zm-63 27s3-19-4-18c-12 15-42 11-40 27 5 2 43-7 45-9Zm8338 18v-36c-5-11-23 31-18 36h18Zm179-18c-16-2-31 0-36 18 12 4 45-13 36-18Zm-8570 9c-25-2-59 0-72 27 23 0 60-2 72-27Zm8056 43c25-43-27-39-51-43 16 35 15 70 27 107 41-23 10-41 9-58 0-6 14-4 15-6Zm-7895-34c-16-2-31 0-36 18 12 4 45-13 36-18Zm-251 9c-44 9-110 3-143 36 46-14 111 8 143-36Zm6484 53c25-7 9-26 9-45h-9v45Zm1701-44c-58 6-7 59-9 62-1 2-36 9-36 27 71 11 25-51 45-89Zm90 71-4-27c-9 8-16 14-13 27h18Zm295 63c26-26-55-13-36 9 1 1 34-8 36-9Zm-2337 54c-3-13-14-21-27-18v18h27Zm1674 9h-54v9h54v-9Zm-8104 9c-38 6-36 28 0 36v-36Zm8409 0c-24 22-86-19-80 18 18-7 86 18 80-18Zm-511 62c-16 4-56-2-63 18l63-18Zm368 36s-29-10-36-9c4 17 20 20 36 18 0-3 1-7 0-9Zm-985 27c-19 0-38-16-45 9h45v-9Zm-7084 72c-16-16 1-56-18-63 5 19-15 70 18 63Zm6985-63h-54v9h54v-9Zm-7155 54s-13-47-18-36v36h18Zm6813-27-80 9 2 19 80-9-2-19Zm1372 9h-45v18c17-9 27-9 45 0v-18Zm374-7-9 9 36 36 9-9-36-36Zm-2416 16c-20-14-38 35-13 36 7 0 15-35 13-36Zm421 27c-3-13-14-21-27-18v18h27Zm-36-9c-18 3-48-3-54 18 20 0 47 5 54-18Zm1630 0h-45v9h45v-9Zm-233 9h-45v9h45v-9Zm-45 23v13h63v-13h-63Zm-1755 4-27 4c8 9 14 16 27 13v-18Zm1952 9c-20-2-27-17-36 9 20 2 27 17 36-9Zm-385 8h-54v9h54v-9Zm278 0c-28 4-74-14-90 18 19 1 37 0 56-2 9-1 36-2 34-15Zm689 99-27-98c14 26-39 0-18 27 1 2 21 13 26 25 7 15 2 44 19 47Zm-8641-81s-34-11-36-9v27c11-5 54 4 36-18Zm7513-9c-28-10-13 20-18 26-7 7-37-9-35 10h72c-4-19-34-8-18-36Zm242 0-89 18c21 6 45 4 67 0 16-3 27 10 23-18Zm81 0-54 4c13 20 33 2 54 4v-9Zm-493 27c-8-24-17-13-36-9v9h36Zm134-18h-54v9h54v-9Zm-1800 1129c31-55 123-99 134-121 17-34-65 24-63-4 54-31 119-28 172-56 21-11 32-38 56-34 4 0 4 18 8 17 76-3 173-54 256-44l4-18c82 39 181 57 259 109 11 7 18 11 15 26-26 8-15-16-18-18-39-30 9 65 18 76 29 32 40 1 0-22l27-9c-2 20 15 45 31 55 17 10 29-1 30 0 13 9 10 55 14 62 16 28 68 74 87 119 8 20 21 109 26 113 0 0 15-9 22 0 13 18 28 92 47 124 14 22 36 25 38 47 15 4 6-14 10-17 11-8 39 17 49 26 8-36 49 10 85-9l-9 18h45l-5-18c69 51 169 24 251 23 32 0 74 28 76-14 14-4 3 11 15 17 34 17 55-7 66-5 8 1 16 12 22 14 5 2 3-18 10-19 18-2 101 25 102-17 5-7 16 35 36 18 4-3-12-24-9-27h45l-27 13c5 12 29 12 41 12 85 4 201-19 287-24s173 0 257-4l24-24-27-9h63l-27 9c2 12 11 15 22 17 15 2 187-22 204-28 8-2 16-9 20-16 17-35-58-208-59-260 18-3 21 8 27 22 24 53 29 150 51 208 4 11 7 14 19 12 3 15-24 8-27 27l81-9c2-15-26-11-27-22 0-1 13-8 13-23 1-72-55-170-51-264 0-2-29-9-17-40l18 9c10-32-16-25-22-36-16-26 7-86 3-113-5-35-14-39-13-88 3-86 10-200 5-296 0-11-11-39-9-41 5-5 37 11 27-18-12 5-19 8-27-5 27-50 0-60-7-100-19-128-44-254-75-381l-39-52 13 45c-60-3-10-24-40-54-38 9-10 19-8 33 11 75 32 134 46 206 4 19 1 39 4 59s32 65 7 78l-73-330c-25-16-116 10-142-15 19-13 134 8 134-18 0-13-30-13-40-14-296-22-743 36-1047 65-482 45-964 99-1445 156-919 110-1836 291-2750 440-614 100-1249 24-1867 130-192 33-392 102-587 139-71 13-145 26-217 29l18-13c0-9-30-4-38-3-8 1-27 20-4 14l16 11c-34 3-72 22-104 27-60 8-39-6-104 21-36 15-161 33-168 38-9 7-11 10-9 22l54 9c-69-8-74 4-72 72-20 8 0-79-27-54-21 21 10 51 9 54 0 1-13-5-19 12-13 34-4 87-15 118-6 16-63 74 0 67l9-27v66c-10 18-9 101-27 104 0-11 5-30-4-36-19 16-24 40 4 36 4 48 0 95 0 143-13 4-6-35-27-18-2 1-14 33-18 40l23 14 13-18v36c-52-48-31 59-54 85 0 4 40 4 0 36l27 13v-48l18-68-18 161c-18 3-5-22-9-27 0 0-18-3-18 5 0 7 7 100 18 85l9-36 9 63-27-18c-8 78 2 159-2 238-3 54-14 209-27 259-4 15-56 18-7 36-25 13-8 34-13 50-5 17-26 25-23 45 24-6 34-19 36-45 24 1-5 49 0 54 255-24 497-102 747-162 70-17 317-53 361-82 7-5 7-23 26-32 31-15 9 15 25 25 43-1 46-60 49-63 5-3 25 13 36 5 4-3 33-85 35-95-29 24 28 2 18 22-27 24-48 109-10 44 12-21 23-28 28-37 15-26 15-104 26-137-45-3-31 103-36 107-3 3-24-2-27 0 5-23 0-44 2-64 2-13 17-141 42-115-2 28-3 30 27 27-2-30 7-59 17-86 7-20 30-6 6-39-2 15-40 37-40 40-3 13 21 25 18 31s-47 23-54 18c15-6 28-111 0-81-4 4-6 60-27 63 1-16 13-61 22-72 10-12 30-7 31-9 3-3-8-20-6-30 6-29 161-266 181-275 15-6 18 12 13 18 0 1-15 3-25 15-6 7-31 34-7 30 66-11 28-21 36-36 4-7 35-22 40-17l-18 27c41 8 20-14 28-25 5-6 79-22 57-47-50 16-57 39-112 32-10-1-38 0-36-14 60-13 119-51 179-54-20-25 10-24 36-27l-18 18c52-14 117-19 167-34 14-4 9-18 25-20 9-1 50-6 50 10l-54 9c54 0 108-4 161 9l-9-27c17-2 31 0 36 18l-18 9c33 6 76-11 107-4 57 12 110 55 155 83 3 2 48 3 65 10 20 8 148 79 159 90 25 25 3 47 7 54 0 1 14-8 23 0 19 15 36 58 56 70 43 25 75 5 91 66l-45-18c-4 34 50 41 67 54 14 11 48 83 60 88 8 3 23-10 25-8 2 2 10 42 16 54 14 31 42 65 47 99 233-58 467-102 704-142 282-47 533-93 812-155 210-47 419-107 634-132l-9-27h81l-63 9 14 18c84-9 171-14 255-9l-9-18c26 3 59-5 83 0 7 1 6 9 6 9h-45c-6 12 41 22 45 18v-18c32 14 48 26 90 18-6-31-62 11-54-27 18 3 42-4 58 0 10 2 2 23 5 26 8 8 88-12 107 19l-9-45c85 39 80-49 86-114 3-36 9-74 12-106 0-5-19 0-18-17 0-7 26-72 29-75 2-2 13 5 16 2 26-19 43-108 66-135s124-89 158-92c-1 2 3 11-1 16-7 7-58 12-52 46l80-58c-2-8-20-5-27-4Zm-107-1093c-3-13-14-21-27-18v18h27Zm1683-18h-54v9h54v-9Zm153 0v18h45v-18h-45Zm-9 9h-45V4200l45-9v-9Zm-421 9-72 18c17-6 78 17 72-18Zm286 0c-19 0-38-1-57 0-9 1-42 4-41 17 27-8 82 7 98-18Zm1335 45c4-12-13-45-18-36-2 16 0 31 18 36Zm-1773-27s-34 11-45 9v9h45c0-6 1-16 0-18Zm259 0c-14 7-70-12-63 18l63-18Zm-71 9h-75l-122 27c49 1 99-3 146-10 12-2 49-3 50-17Zm-341 9c-19 6-48-5-54 18 20 0 47 5 54-18Zm108 18c-25 0-78-41-54 0l-27 18 80-18Zm-90 9-54 4c13 20 33 2 54 4v-9Zm-152 9c-63 13-127 19-191 19l-140 26c62 9 122-10 184-18 39-5 84-3 125-9 17-2 27 9 22-18Zm2114-2-12 3 12 55 12-3-12-55Zm-3914 11h-45v9h45v-9Zm1379 18c-13-10-23 3-9 17-108 8-228 46-331 9l36 27h-54l9-18h-63l36 27-147 10-86 26 645-72c2-18-21-3-34-11-4-2-1-14-2-15Zm-1719 35c-3-13-14-21-27-18v18h27Zm-45 9c-9-28-42-3-63-9 5 20 48 4 63 9Zm-4191 9c-4-17-20-20-36-18-9 4 24 21 36 18Zm4442-18-27 4c8 9 14 16 27 13v-18Zm-403 36c-8-24-17-13-36-9v9h36Zm215-18v18h36v-18h-36Zm4227 0c-14 14 27 38 27 13 0-6-22-19-27-13Zm-4003 18c-12-3-24 5-27 18h27v-18Zm9 27c9 8 36-16 27-27-1-2-41 13-27 27Zm-565-18c-26-3-47 10-22 27l22-27Zm1397 27c-3-34-17-28-36-4l36 4Zm-179-9a58.5 58.5 0 00-45 0v9h45v-9Zm72-9h-54v9h54v-9Zm45 18c-13-2-24-4-37-3-9 0-59 8-61 21l98-18Zm3295 90-27-89c-1 23 3 46 9 68 4 15-9 26 18 22Zm-8543-81-16 2 7 61 16-2-7-61Zm4872 18h-27v18c12 3 24-5 27-18Zm-1308 9h-27v18c12 3 24-5 27-18Zm1433 0c-20 0-62-6-72 18 19-1 62 2 72-18Zm-206 9c-12-1-68 5-72 9-1 1 12 23 0 36l116-18c2-16-20-9-30-8-19 2-38 12-59 8-9-36 41-3 45-27Zm-1361 18h-45c-6 33 20 8 45 9v-9Zm1191 36c-17 2-56-16-63 9l63-9Zm3886 98-22-98c-21 14-6 18-4 31 3 20 7 59 26 68Zm-4200-72v-18l-45 9v9h45Zm233-17h-45v9h45v-9Zm-71 9h-45v9h45v-9Zm-4460 62-4-54c-28 12 0 65 4 54Zm3063-53c-34 0-72 7-105 17-15 4-25-7-21 19l125-36Zm223 0c-12-4-45 13-36 18 16 2 31 0 36-18Zm1111 0-134 18 38 7 97-24Zm-1182 8c-12-3-24 5-27 18h27v-18Zm1012 9c-46 9-94 19-139 31-9 2-21-12-13 14 35 0 76-9 109-20 11-4 41-11 43-24Zm-1299 9c-22 0-54-7-63 18 16-2 57 0 63-18Zm5624 0h-18v27h18v-27Zm-215 45c3-12-5-24-18-27v27h18Zm-5597 0c-8-24-17-13-36-9v9h36Zm-331 9c-20-3-74-21-72 18l72-18Zm1395-7c-38-21-70 36-85 41-26 9-54 2-79 2-18 0-26-8-22 17 32-12 64-1 99-6 19-2 123-21 133-26 4-2 11-12 9-13-15-2-33 3-48 0-7-2-6-14-8-16Zm172-2c-13-6-66 12-54 18 20 0 47 5 54-18Zm-367 54c-19-9-57 12-45 27 2 2 53-23 45-27Zm-1146 9h-27c-16 26 43 26 27 0Zm940 9-45 13 36 9s-36 6-18 22c4 4 103-21 116-31-28-9-114 35-89-13Zm143 0h-45c-10 5 39 33 45 0Zm-886 18h-27v18c12 3 24-5 27-18Zm662 0h-45v9h45v-9Zm36 9s-62 5-63 18c19-5 70 15 63-18Zm-3367 44c49-23-16-39-18-36-13 18 24 18 18 36Zm2355-35h-36v9l36 9v-18Zm853 15s-2-16-6-15c-7 0-34 15-41 22 33 27 70 2 107 4 6-40-43-1-61-11Zm-2205 2v18h45v-18h-45Zm349 0-54 18c20-20 60 17 54-18Zm1723 14s-6-14-8-14c-16 2-28 13-14 27l-36 18c11 1 68-6 72-9 14-14-10-18-14-22Zm68-5c-11-9-72 21 0 18 0-6 1-17 0-18Zm-2212 9c-129 32-260 62-387 99-6 2-6 15-13 17-35 10-77 11-117 25-14 5-24-5-20 20l518-141 20-20Zm753 0h-36v18l36-9v-9Zm1316 18c-31 10-52-16-45 27l45-27Zm5579 0c-33-7-18 45-4 54 5-17-6-35 4-54Zm-5678 27h-45v9h45v-9Zm5606 63s-5-62-18-63c5 19-15 70 18 63Zm-5803-54h-54c-7 34 28 4 54 9v-9Zm81 9c-33 0-85-4-107 27 27-7 56-6 83-11 9-2 27-3 25-15Zm-251 9h-54v9h54v-9Zm63 9s-51 6-45 18h45v-18Zm5982 54-4-45c-27 21-26 28 4 45Zm-6591-9c17 3 30-10 27-27l-27 27Zm295-27h-27v18h27v-18Zm18 0v13h63v-13h-63Zm197 0-36 4c13 19 17 7 36 4v-9Zm-412 9s-42 13-54 9v9h54c0-6 1-16 0-18Zm-322 27v-18l-54 9v9h54Zm6743-18c-28-4-14 7-17 23-2 8-12 58 4 58 18 0 5-69 13-80Zm-7226 44-9-27c-15-4-3 15-15 18-9 2-20 0-30 0l4 18 49-9Zm250-26h-54v9l54 9v-18Zm7003 36v-36h-9c-4 19-15 28 9 36Zm-7182-27h-45v9c19 0 38 16 45-9Zm-134 26c-15-36-48 3-76 0-16-2-29-23-50-18l18 13-18 13 125-9Zm7406-17c-11-15-16 0-18 13-4 29 3 64 0 94 12-4 16-48 17-59 1-16 2-32 1-48Zm-7570 12c-12-5-22-3-34-3 25 15-25 22-9 36 3 2 57-16 72-9l-4-18c-26 21-21-4-25-6Zm7525-3-18 4c20 23-5 35-10 54-3 13 28 16 18 40 13 2 12-26 12-35 0-21-6-42-4-64Zm-7818 71c13 33 57-2 78-7 40-8 94-17 135-22 49-6 24-43 2-28-42 28-38 10-67 17-47 11-98 35-148 40Zm-842-44c-33-6-104-17-71 36h9c-6-34 53-6 63-36Zm-286 62c-28-44-69 12-92 24-4 2-14-7-29 2-7 5-29 29-22 37 16 18 17-17 22-18 20-3 8 7 18 18l103-63Zm1119-18-89 4c17 25 89 37 89-4Zm7782 9h-18c9 17-2 35 13 45l4-45Zm-8847 18h-27v18h27v-18Zm985 0c-35 7-91-2-107 36 32-16 86-8 107-36Zm7835 9c-22-3-35 17-13 27 5 2 8-21 13-27Zm108 107c4-12 17-106-4-107-20-1 3 68-4 76l9 31Zm-36-98c-38 0-16 31-18 54 17 1 20-50 18-54Zm-8122 45v-27l-45 18v9h45Zm98-27s-90-4-63 18c3 2 63-2 63-18Zm-922 9h-27v18c12 3 24-5 27-18Zm-170 89c30-15 41-39 36-72-30 15-41 39-36 72Zm71-71c-15-13-40 11-27 27 8 10 36-18 27-27Zm860 0c-18 10-46-1-57 0-3 0-19 31-54 27-3 0-19-54-32 17 39-11 80-17 118-30 9-3 27-2 25-15Zm5830 53c-17-25-62-32-89-36-3 35 67 28 89 36Zm2283 27c-10-19 6-55-18-63 0 21-8 54 18 63Zm-2588-27c-8-22-22-24-36-4l36 4Zm2660-17-24 13c8 11-7 68 11 67 19 0 13-66 13-80Zm-8472 35c-6-38-28-36-36 0h36Zm6162 9c-10-63-67 0-40 9 2 0 5-32 40-9Zm-493-17c-30-16-162 81-143 98 16 2 44-12 54-23 8-9-2-21 0-22 6-3 20 10 26 8 0 0 2-12 8-16 19-13 46-22 56-45Zm-5964 35c19 9 57-12 45-27-2-2-53 23-45 27Zm8803 36c-2-17 16-56-9-63 0 15-13 56 9 63Zm-9125-45-36-9c-6 17 16 31 18 40 0 4-51 27-4 58l22-89Zm9044 18c3-12-5-24-18-27v27h18Zm-8606-18c-11-9-64 18-63 22 7 23 79-8 63-22Zm-71 36c-11-31-41-5-63-9-6 37 43 2 63 9Zm6438 18s-23-48-36-36c-8 8 19 42 36 36Zm-6528-27c-12-3-24 5-27 18h27v-18Zm8812 117c-4-28 14-74-18-90 4 28-14 74 18 90Zm27-90v89h13v-89h-13Zm-8848 18c-6-6-31 2-36 14-12 31 54 3 36-14Zm5830 36-9-18-4 36c47-8 80-56 13-18Zm2946 27c2-17 0-31-18-36v36h18Zm-8874 134c19-5 20-28 24-43 5-17 26-102 7-109-17-7-18 32-20 43-5 37-2 73-11 109ZM1758 5400c7-31 12-63 17-95 0-5 17-32-4-30-14 1-29 83-30 96-1 14 0 25 16 29Zm7051 42c-26-48-40-99-74-146-38-53-26-4 2 25l68 151c40-23 6-26 4-30Zm2065-33-27-116c0 38-7 89 27 116Zm-8925-60c11-13 33-11 24-48-9 9-42 26-45 33-3 9-12 71 5 74 39 7 0-40 16-60Zm8961-38h-18c-3 13 4 19 13 27l4-27ZM7668 5490c6-12 16-52 18-54 2-2 28 24 44-23-6-43-21 6-22 5-26-17-8-29 9-45 15 48 39-15 49-36-43-7-61 34-89 58-8 19 29 12 18 22-15 12-30 8-46 40-8 15 0 26-2 30-8 15-36 44-41 70-2 8-7 50 8 49 13-41 36-80 54-116-5 9-6 41-9 54 30-10 31-95 9-54Zm795-133c-7-4-17-2-25-2 2 32 12 42 45 36-5-6-18-32-20-34Zm2465 70c-4-19 5-54-18-63 2 38-27 52 18 63Zm-9170-18h-27l9 27h9l9-27Zm6233 9c-12-3-24 5-27 18h27v-18Zm-6000 18s-31-13-35 6c-2 10 0 58 13 66 7-9 25-69 22-72Zm-54 9c-6-7-33 18-34 19-2 7 15 35-2 52 18 18 44-62 36-72Zm-188 18s-26-10-27-9c-3 3-15 75 4 81 6-10 25-69 22-71Zm6877 62c2-16 0-31-18-36-4 12 13 45 18 36Zm-6671 126 9-116-24 87 15 30Zm54-117h-18l9 36h9v-36Zm6867 20s-26-8-31-19c-5 31 19 86 36 117 3 6 8 33 22 17 4-4-33-66-34-78-2-13 10-32 7-37Zm2114 79s-13-42-9-54c-60 7-1 65 9 54Zm-62-9c4-12-13-45-18-36-2 16 0 31 18 36Zm-9036 27s-13-47-18-36v36h18Zm5722 44s11-61 9-72c-14 7-32 46-35 59-6 20 24 15 26 13Zm269-71c-14-15-56 54-45 72l45-72Zm3090 152c40-24 29-79 18-116l-17 68v48Zm-9054 197c-1-82 39-186 36-264 0-11-1-40-14-40-19 0-3 89-22 104 11 34-13 77-14 98-2 29 17 69-4 99l18 4Zm2069-295s-53-9-63-9l58 27c8 1 5-17 4-18Zm-2096 62c30-12 14-41 9-63-20 5-4 48-9 63Zm2203-53-63-9c5 20 55 33 63 9Zm-2104 89-4-81c-24 8-17 108 4 81Zm5597-18c25-9 24-39 4-54l-4 54Zm3358-53c-27-25-7 50-9 54 26-3 15-48 9-54Zm-6752 26c-16-16-48-17-27 18l27-9s1-8 0-9Zm6196-9c-12-3-24 5-27 18h27v-18Zm-1366 9-3 18 53 10 3-18-53-10Zm417 18-72-9c-12 29 68 23 72 9Zm144-9c-12-3-24 5-27 18h27v-18Zm1334 45c5-4 5-39 0-45-12-13-30 69 0 45Zm-9036 36c28-11 16-48 18-72-17-2-6 19-9 31-3 14-9 26-9 40Zm2364-72-27 4c8 9 14 16 27 13v-18Zm3600 0c-34-4-18 62-27 81 25-13 21-56 27-81Zm421 18-116-18c8 10-1 34 0 35 5 3 66 6 76 5 6 0 41-12 41-22Zm-134-9c-55 3-110 13-161 31 14 20 17 7 31 4 30-6 88-38 99 0 15-6 4-25 5-26 9-5 29 7 26-10Zm2221 0h-18v27c13-3 21-14 18-27Zm-726 9h-27v18c12 3 24-5 27-18Zm-6064 4-48 18 5 14 48-18-5-14Zm4220 41c22-8 24-22 4-36l-4 36Zm2364-36c-12-4-45 13-36 18 16 2 31 0 36-18Zm546 0h-36v18l36-9v-9Zm-8991 9c-41 3-38 98-22 125l22-125Zm2633 18c-3-13-14-21-27-18v18h27Zm3260-9c-17-18-31 31-18 45 9 10 22-40 18-45Zm2005 9h-36v18h36v-18Zm-6170 18s-23-4-31-1c-64 20-141 185-148 252 16-2 32-50 37-53 5-3 31 27 35-23l-27-9c10-21 35-3 36-4 3-4 10-73 36-85l-18-13c16 4 87-55 81-63Zm-1540 18s-36-6-44-9c-7 15 25 33 31 36 19 7 16-23 13-26Zm5651 0h-27l9 27h9l9-27Zm1262 45c6-24-36-46-36-22 0 5 34 24 36 22Zm2024 26s3-19-4-18c-101 27-204 47-309 45l36-18h-54l9 27-36 18c49-14 339-34 358-54ZM3772 5900l-55 12 3 12 55-12-3-12Zm54 2c-6-5-45 0-45 18h45c0-6 1-17 0-18Zm341 35c-19 6-52-42-63-13-2 6 10 2 17 12 3 5-1 18 0 20 2 2 46-6 45-18Zm-475-17c-16-10-79 20-63 36 6 5 61-21 63-36Zm5337 17-134-18c-2 13 16 13 25 15 24 7 97 30 109 3Zm-2417 18c12 10 47-13 36-27-2-2-52 13-36 27Zm3205-27s-47 13-36 18h36v-18Zm636-2-72 13 2 14 72-13-2-14Zm-5991 522c12 1 24 0 36 0v-54l-18 9c4-44-36-45-67-27l-4-18c37 9 64-12 62-50-1-28-28-25-43-36-17-13-12-41-46-22l9-36c-13-7-42 0-49-9-23-26 23-8 22-23 0-16-32-6-41-13-15-11-1-28-12-41-18-22-59-36-64-40-2-1 16-17-4-36-23-22-53-18-70-27-61-34-53-53-137-54-5 0-4-14-11-16-62-19-254-25-318-7-7 2-60 19-43 33 9 8 26-16 40-17 9 0 20 8 28 7 27-3 58-16 84-3-32 30-92 4-128 13-10 2-11 21-19 27-19 14-48 16-50 45v-45c-16-19-109 156-98 170 49-10 25-69 72-72-18 30-34 52-27 89 19-8 0-30 32-35 17-3 14 36 30 17 3-4-11-25-9-27 1-1 20 0 32-8 16-12 97-123 120-99 0 0 4 26-4 27-3-37-31 3-31 4 0 2 18 20 22 20 9 0 25-19 38-22 11-3 122-17 129-16 43 9 146 71 194 91 7 3 35 12 37 11 4-4-6-21 10-17l45 63-67-45c-17 57 76 57 99 80 13 12 44 53 62 72 28 31 23 66 76 54l-27 44c22-3 23 35 40 27 32-14-14-55 18-54 21 75 63 23 67 27 17 16-23 14-18 36-15-1-38-25-45 13 7 20 36 18 43 24 3 3 6 80 46-1-50 4-27-2-33-18-3-7-11-14-12-18Zm5911-511h-45v9h45v-9Zm-3771 9c-48 3-97 11-143 22-14 3-49 6-54 22l56-2 141-43Zm1577 0c-30-2-72-3-89 27h45l-9-18c6-4 51 16 54-9Zm277 0s-19 1-27 0c-4 28 9 40 36 36-18-11-7-35-9-36Zm-4247 1-8 14 51 28 8-14-51-28Zm6137 26c-7-25-26-9-45-9v9h45Zm-5857-9c-8-6-21 6-27 13l45 40c3-9-16-52-18-54Zm3555 0c-16-2-31 0-36 18 12 4 45-13 36-18Zm1809 0-9 18-36 18c26-9 51 5 45-36Zm-6197 9c-12-5-56 13-45 18 17 1 39 3 45-18Zm6403 0c-16 5-41-2-45 18h45v-18Zm36 0h-27v18h27v-18Zm-466 36c6 6 36-4 36-13 0-22-54-2-36 13Zm341-27h-45v9h45v-9Zm-8123 9h-18v27c13-3 21-14 18-27Zm72 0c-44-8-24 22-18 54l18-54Zm4469 0c-54 6-106 22-159 34-43 10-75 20-115 30-65 16-132 27-197 44-12 3-28 0-31 18 92-18 186-36 278-58 59-14 129-30 186-47 10-3 38-7 38-20Zm1853 19s-58-20-66-19c-6 0-4 16-12 18-32 9-71-1-101 4-78 13-158 79-229 113 11 48-8 16-29 29-15 9-36 131-28 153 3 10 23 2 17 20l-18 8c-15-10-10 22-9 23 16 20 19-28 27-18 2 2 2 17 9 23 35 30 111 55 155 76 14 7 15 34 52 17l-9 17c68 32 143 26 214 45l9-27-36-9c12-8 68 2 71 0 5-4 28-117 18-125 0 0-17 10-18 9v-27c17 13 24 9 18-13 0-3-33-12-18-49l27 18v-54l-18 9c9-74-15-138-30-208-2-11 4-31 3-33Zm1030-19h-63V6000h63v-9Zm-1379 63c13-17 107-32 107-40 0-34-80 9-90 17s-22 0-17 23Zm-6045-18h-18v27c13-3 21-14 18-27Zm6475 125c4-35-10-82-36-107 8 33 5 87 36 107Zm179-107h-18c-3 13 4 19 13 27l4-27Zm-6582 9c-13-12-25 15-26 24-2 18 29 5 8 39 26 3 17-4 16-22 0-12 3-40 1-41Zm1621 0c-15-16-19 12-22 18-17 30-36 63-31 99 28 5 14-9 18-22 6-18 39-90 36-94Zm759 2c-5-3-24-6-25 3 13 10 20 25 30 37 5 6 33 39 41 30 0-14-41-66-46-70Zm3575-2c-30 6-65 11-72 45l72-45Zm-3922 35-72-18c-6 32 57 19 72 18Zm-2078 1s-35 0-45-9v98c46 3 5-63 18-81l27 18c0-7 2-25 0-27Zm1943-9c-12-4-45 13-36 18 16 2 31 0 36-18Zm860 116c12-20-43-126-63-107l63 107Zm-573-54c-11-11-111-42-134-45 20 28 66 32 96 43 11 4 19 17 25 20 16 6 18-13 13-18Zm1773-27c-3-13-14-21-27-18v18h27Zm1045-15c-11-5-22-3-33-3l18 22-49 5-4 18 170-18-92-9c-6-2-6-14-9-15Zm1588 60-4-63c-19 10-14 56 4 63Zm-2678-54c-17-2-31 0-36 18h36v-18Zm1281 0-27 4c8 9 14 16 27 13v-18Zm707 1c-16-3-29 12-36 27 16 3 29-12 36-27Zm-1020 8c-23 3-44 5-27 27l-36 18c12-2 69-6 72-9 17-15-32-17-9-36Zm617 9a58.5 58.5 0 00-45 0v9h45v-9Zm-3465 9-72-9c4 21 63 28 72 9Zm1979 0h-27v18h27v-18Zm-4012 45c3-12-5-24-18-27v27h18Zm4809-27c-24 2-53 0-63 27 20-7 65 8 63-27Zm-3251 117c4-30 35-64 5-89-10 8 5 22 0 36-4 15-39 39-5 53Zm3152-90h-27v18h27v-18Zm-2176 45c3-17-10-30-27-27l27 27Zm824-27h-45v9h45v-9Zm1236 0h-36v18c5 5 47-13 36-18Zm-4648 18v81h9v-81h-9Zm27 349c19-115 29-232 27-349l-25 105c6 70-13 139-20 204-2 18-9 47 18 40Zm4531-349c-16-2-31 0-36 18 12 4 45-13 36-18Zm-4585 89 9-81c-17 3-16 18-18 31-1 9-6 50 9 50Zm4528-81-62 11 3 19 62-11-3-19Zm-1304 10c-75 19-160 29-233 51-11 3-43 9-44 21 70-5 152-24 220-44 19-5 49-7 57-28Zm1218 9c-13 3-51 1-54 18 26 11 42 10 54-18Zm2078 71v-63h-9v63h9ZM6200 6269s-78 11-81 27c23-6 82 10 81-27Zm-4523 62v-54c-6-12-39 66 0 54Zm2203-53c-30-4-36-2-45 27 18-3 48 2 45-27Zm57 42s5-13-2-20c-33-33-23 0-30 10-4 6-19-3-15 11l80 36c5-26-24-28-33-38Zm2128-15c-17 7-56 0-68 3s-10 19-15 22c-14 9-43-8-43 11 42 13 93-9 125-36Zm-2239 9h-36l9 27 27-27Zm2078 0c-17-2-31 0-36 18h36v-18Zm2400 143c-3-44 25-103 5-143-4 28-12 57-14 85 0 12-7 56 9 59Zm-6466-135h-18v54c14 6 22-49 18-54Zm36 45v-45h-9c0 24-24 51 9 45Zm2158-18-40-27c-34 24 19 48 36 72 25 38 40 97 85 125-4-44-26-62-54-94 65-19-90-68-27-76Zm-340 179c-23 44-34 72-27 125l-18-9c-13 45-3 92 0 138 1 25-17 44 10 77 14 3 12-25 22-27 16-2 5 34 9 44 4 11 27 39 37 45 17 9 29 0 41 3 34 10 64 33 106 24l-45 36c23 11 17-20 22-18 23 8 58 42 40-18 28 8 63-16 81 4l-27 5c11 32 53-4 81 0l-54-18c24-20 87 3 89 0 2-2-3-16 2-24 4-6 20-8 29-21 17-25 53-92 59-121 7-32-6-61 8-89-5-16-25-4-26-5-6-9-7-55-28-71l54 13c-10-23-48-71-67-86-12-9-31-7-32-8-1-1 11-16 5-35-5-14-59-88-71-100-22-21-175-111-148-26-11 0-25-3-34 2-5 3-63 87-68 98-14 31-28 63-24 97-36 8-3-30-9-36-6 0-12-1-18 0 6-11 15-10 18-15 11-20 13-46 27-65l-58 63c-13 43-1 20 13 18Zm2087-197s-23 5-30 9l-24 36c19 3 143-5 143-22 0-27-81 14-89 4-3-4 2-24 0-27Zm2579 9h-18c-3 13 4 19 13 27l4-27Zm-4648 99c13-8 91-78 80-90-36 27-76 37-80 90Zm3949-18s-19-70-36-72c-3 9 18 92 36 72Zm-6009 0c31 21 22-56 18-63-12 0-21 61-18 63Zm3950-63h-27v18c12 3 24-5 27-18Zm-90 9s-49 15-63 9l9 22-27 5 15 15 254-33c-5-18-13-16-27-14-57 5-119 27-179 23-5-12 37-9 18-27Zm-3645 90-9-81c7 27-26 66 9 81Zm1541-63c-9-9-41 17-13 27 19 7 16-23 13-27Zm4405 36c3-17-10-30-27-27l27 27Zm54 0s-37-18-45-18c7 19 25 30 45 27 0-3 1-7 0-9Zm-2516-9c-33-2-63-1-96 8-15 4-25-6-21 19 26-14 55-7 83-11 9-1 36-3 34-15Zm-3681 9c-17-20-38 45-13 45 11 0 19-38 13-45Zm3520 18c-20-3-38 8-45 27 16 0 38-10 45-27Zm-81 27c-5-19-11-14-25-12-73 9-159 37-231 57-14 4-27-10-22 18l278-63Zm-3251 35v-45h-9v45h9Zm6099-44c-14-14-29 25-27 27 11 9 35-18 27-27Zm-4791 36c-17-2-31 0-36 18 17 2 31 0 36-18Zm-1514 9h-18v54c23-7 18-34 18-54Zm1451 0c-74 19-149 40-223 59-26 7-73-7-72 31 79-31 187-35 264-63 14-5 27-11 32-27Zm1281 8-36 4c10 14 19 16 36 13v-18Zm394 27-72-18c-6 32 15 7 29 17 10 7 12 40 42 0Zm36-18h-27v18c12 3 24-5 27-18Zm3367 0h-36v9l36 9v-18ZM3620 6600l9-63c-23 10-41 51-9 63Zm4616-72-38 23 8 14 38-23-8-14Zm-3532 27s-47 13-36 18h36v-18Zm-2892 36c9 9 41-17 13-27-19-7-16 23-13 27ZM4400 6564l-27 4c8 9 14 16 27 13v-18Zm259 0c-17 0-39-3-45 18 17 0 39 3 45-18Zm3152 9c-30-27-9 54 27 45-11-7-25-43-27-45Zm-5937 90s21-74 5-81c-19 21-23 44-19 71 2 15-3 27 14 9Zm6591-54-4-27c-9 8-16 14-13 27h18Zm-6851 9-4-27c-9 8-16 14-13 27h18Zm1165-27-47 2-79 33c28 2 54-6 80-13 12-3 43-8 45-22Zm5686 27c-40-8-21 13-31 36-5 12-29 69-32 71 0 0-13-7-21-5-12 2-72 13-59 32 121 15 113-40 143-134Zm-6824 18c-41-15-66-5-85 36-7 15-1 33-7 42-3 6-53 29-52 56 96 31 50-56 81-102 18-27 50 7 62-32Zm994-9c-62-5-117 27-178 33l-100 39 210-45 68-26Zm1800 36-4-27c-9 8-16 14-13 27h18Zm3474-17s-25-5-26 3c12 11 19 26 36 22-4-5-9-25-10-26Zm-5560 61-4-18c-34 17-88 11-112 45l116-27Zm5650 1s-40-11-45-9c-5 12 37 21 45 18 0-3 1-8 0-9Zm-4746-1c-9 5-45 14-45 22 0 22 51 3 45-22Zm1182 36-4-27c-9 8-16 14-13 27h18Zm-2274-18c-8-8-51 22-45 27 17 9 59-13 45-27Zm62 0h-36v18l36-9v-9Zm5866 18c-5-18-19-20-36-18 5 18 19 20 36 18ZM3200 6734c-8-4-81 3-63 27 2 3 63-11 63-27Zm-1093 9c-16-2-30 0-45 4-11 2-49 11-53 23 24-3 56-2 79-7 16-4 23 4 20-20Zm1021 9c-34-3-67 10-97 24-13 6-24-5-20 20 38-12 92-8 116-45Zm-1155 27c-31-7-51-25-45 18 17 1 39 2 45-18Zm1012 9-107 22c12 17 32 7 48 3 14-3 52-13 59-26Zm-1505 9v18h36v-18h-36Zm1343 27c-37 10-75 10-112 18-15 3-27-10-22 18 43-16 107 7 134-36Zm1326 36c18-5 20-19 18-36-18 5-20 19-18 36Zm-520-18s-22-5-17 12c3 13 21 39 30 51 8 11 0 22 23 17-13-11-33-77-36-81Zm-949 9c-15-13-40 11-27 27 8 10 36-18 27-27Zm1693 36v-36h-9l-9 36h18Zm-1729-27c-17-3-30 10-27 27l27-27Zm-35 9-90 27c28 9 70-3 90-27Zm-99 27c-18 3-48-3-54 18 20 0 47 5 54-18Zm-63 26s3-19-4-18l-49 27c9-2 52-7 54-9Zm1890 27s10-29 9-36c-17 4-20 20-18 36 3 0 7 1 9 0Zm-2758 0-40-9-23 45c23 7 21-21 29-25 13-7 36 7 34-11Zm2238 18-80-27c-2 28 29 33 49 36 9 1 34 6 31-9Zm-1961 9c41-22-13-32-36-27l4 18c18-12 34-17 32 9Zm439-27c-9-5-84 6-63 27 2 2 59-16 63-27Zm-143 9c-13 2-46-5-52 1-2 2-18 68-37 21-4-9 22 2 18-13h-36c-1 35 36 2 0 45l152-27c-24-45-72 28-90-18l45-9Zm-340 63c-39-47-41-13-51-9-14 7-38 3-39 18l89-9Zm1641 6c-10-9-14-29-30-33-9 27 57 116 76 116 2 0 16-14 13-18-36-1-15-24-26-41-8-11-24-16-34-25Zm346-6c9-11-18-35-27-27-14 14 25 29 27 27Zm180-27c-37-1-74 8-111 14-9 2-21-15-15 13 37-5 100 5 125-27Zm53 0c-16 0-38 10-45 27 16 0 38-10 45-27Zm-2042 5-65 15 5 20 65-15-5-20Zm1538 16s-30-23-24 2l36 31c2-13-4-24-12-33Zm746 24c17 3 30-10 27-27l-27 27Zm-2561-18h-27v18h27v-18Zm2597 36c-15-16-31 36-40 36-4 2-1-42-31 9 50 6-7 21-18 45 25 5 97-82 90-89Zm-758 68c-7-8-10-22-21-24-9 18 23 55 36 45 16-14-12-18-14-21Zm668-14c-12-3-24 5-27 18h27v-18Zm-197 62c-12-3-24 5-27 18h27v-18Zm162 0c-16-3-29 12-36 27 16 3 29-12 36-27Zm-439 81c11-15-36-43-45-36-18 15 17 19 17 22 0 7-10 14-8 23 2 2 35-8 36-9Zm71-18c-18 14-71-14-63 18 17-5 69 16 63-18Zm6180-699c3 20-142 13-107 45 3 3 72-16 86-17 4 0 3 15 10 17 10 2 86-7 70 18-8 12-70-5-67 45l45-9c4 15-16 4-18 15-10 43 8 23 37 24l62 10c-42 36-110 31-133 81l-72 48c35 0 65-43 98-13l-18 13 50-8c26-3 6 14-3 15-20 3-40 0-60 3-211 33-447 50-642-24-23-9-43-30-71-31-2-17 18-7 27-5 41 9 48 21 97 8 16-4 23 3 19-20-23 5-60 21-84 18-3 0-24-38-51-27 10-18 37-8 0-22l22-41 103-35c-34 0-68 9-103 9-10 0-42 6-41-9 248-33 492-106 743-107Zm-135 36s-70 0-72 18c20-6 79 17 72-18Zm-89 27c-11-28-74-5-103 0-13 2-28 0-31 18l134-18Zm-206 27c13 3 54 0 54-13 0-25-63 9-54 13Zm-9-9-143 22c27 18 91 3 121-4 15-4 26 9 22-18Zm412 143v-18l-36 9v9h36Zm-507 14-31 13h40c14-7-3-9-9-13Zm95 58-63-36-9 22 72 13Zm80-36h-54c-4 16 14 6 17 9s-12 23-8 26c48 10 12-22 18-27l27-9Zm45 0-34 4c15 20-2 13-20 14-19 15 109 25 116 4l-81-5 18-18Zm197 9-80 18c22 7 67 4 80-18Z"/><path d="m7059 6188-940 170c-5-29 9-14 23-17 84-23 171-31 257-48 207-42 398-96 602-109 17-1 39 9 58 5Zm2176-125c4-19 15-13 26-14 35-5 110-5 148-4 22 0 41 9 63 10 23 0 46-5 71-4 11 0 50-2 50 13h-358ZM7480 6197l-4 18c-25-17-345-5-345-22 19-9 45-3 67-5 11-1 21-14 27-14 12 0 34 22 54 23 18 2 33-9 45-8 52 2 104 6 156 8Zm-5051 779c-3 11-14 20-25 24-57 22-154 22-217 38 9-18 44-25 62-30 57-16 121-9 180-33Zm7393-931c13 0 54-24 67 9-90-6-178 15-269 9l67-18c45 0 90 1 134 0Zm-4616 457c-4 17-23 17-37 21-60 16-126 17-187 33 35-38 107-28 156-36 21-4 40-26 68-17Zm-2311 367-72 32c-44-8-71 21-116 12 4-16 39-20 53-23 44-10 90-13 135-22Zm-403 107c-5-24 9-19 25-24 22-8 62-19 85-23 9-2 34-11 34 7 0 14-82 17-102 23-16 4-24 19-41 18Zm-915-903c6 9 0 31 1 43l-18-9-5 63c-24-28 4-73-4-107 6 4 24 9 25 11Zm4049 375-152 18c4-20 16-11 25-12 39-7 90-16 128-6Zm-3617 609c-18 43-70 19-107 36-4-24 4-16 19-20 28-8 60-10 88-15Zm1808 313c-14 27-93 12-119 6-9-2-27-3-25-15l143 9Zm1514-895c4 27-7 14-22 18-26 5-75 24-94 5l116-22ZM4247 3054c-34 33-98 42-143 45l143-45Zm5767 2982c2 13-23 16-32 17-28 3-56 0-84 0-2-12 16-14 25-15 27-4 63 0 92-3Zm-4235 385-125 27c-4-27 7-14 22-18 34-9 68-11 104-9Zm3850 448c-29 38-100 3-143 9-2-15 21-9 31-9 40 0 74 14 112 0Zm1075-878 85-27c9-9 32-6 32 5 0 16-98 20-116 22ZM8590 5597c-29-18-8 5-27 9 0-16-12-28-18-40-11-24 35 12 18-31l27 63ZM3572 7284c20 17 55 33 48 59l-71-58c-5-24 17-6 23 0Zm6138-397c0-13 41-14 51-15 12 0 23 5 34 5 20 0 46-24 40 9H9710Zm-2328-4460c4 27-7 14-22 18-28 7-57 11-86 9-2-13 17-11 27-13 27-6 55-5 81-13ZM10552 6000c-39 35-112 24-161 27 16-30 68-9 93-12 19-2 42-24 68-15Zm-8938-107c-11-1-17-53-17-59 0-8 14-39 26-40l-9 98Zm-35-287c-1-16 0-32 1-48 0-11 5-55 17-59 1 27 5 91-18 107Zm591 1442-90 9 63-22 27 13zm-538-1711c-28 41 7 102-36 134 4-37 9-76 18-113 4-15-9-26 18-22Zm-98 1012c8-33 6-67 10-101 2-14 4-54 16-60-14 49 7 126-27 161Zm110.2-887.5 25.4-92.6 16.4 4.5-25.4 92.6zm6483.8 22.5c-7 7-9 23-21 24-18-38 16-37 45-54 5 21-14 20-24 30Zm2975-1731.3 81.3-43.3 7.5 14.2-81.2 43.2zm-444 2238.3c0 13-33 14-43 15-16 2-31 5-47 3 15-27 64-16 89-18Zm-9071-295c-30-13-4-57-9-81 32 13 0 55 9 81Zm7253 295c-28 6-44-19-45-45 12-12 41 36 45 45ZM1520 6464.7l13-97.1 13.8 1.8-13 97.1zM8197 1898s-60 20-72 27c11-29 47-27 67-45 8-1 5 17 4 18ZM1516 6591c-30-13-4-57-9-81 29 12 0 56 9 81Zm10621-3788-18-72c20 10 16 53 18 72ZM8599 6269l-9 81c12-22-30-87 9-81Zm-6904-923c-36-26 0-39 0-42 3-13-8-40 9-39l-9 80Zm6922 305s-21-18-22 9c-48-57 39-36 22-9Zm-473.2 62v-9h98v9zm1038.2 332c4 25-4 17-23 18-33 0-70-7-103-9-2-15 22-10 32-9 34 1 60 15 94 0Zm985-9-134 18c-8-6-6-18 13-17 41 2 81-3 122-1Zm-4093 331c-5 10-60 29-63 27-23-19 55-33 63-27Zm-4361-1110h-27c-7-6 14-39 22-45l4 45Zm6179-3824c-14-12 40-39 45-45 9 11-34 54-45 45ZM1579 6027l-18-18-9 36 22-54 5 36zm6713.5-4190.2 63.7-23.7 5.3 14-63.8 23.7zM1811.2 7077.1l3-15.7 60 11.7-3.1 15.7zM1641 5310c-18 0-5-62 9-63l-9 63Zm6538-3349c-6 35-65 5-54 0h54Zm-6090 1818c-37-15-33 34-54 5 0-8 51-35 54-5Zm5902-1782s-14 21-18 32 8 33-9 31c-9-13 7-83 27-63Zm-6430 4621c-34-4 3-61 9-54l-9 54Zm6973.4-489 19-6 14.3 44.7-19 6zM1641 5606c10 9-18 36-27 27-14-15 12-40 27-27Zm1887 1633s13 23 12 24c-15 6-44-25-36-36 7 3 19 7 24 12Zm6308.2-5654.2v-9h72v9zM1731 5024l-54 72c3-20 31-67 54-72Zm922 1907.7.1-18h36v18zM4480 6860l9-54h9c0 20 5 47-18 54Zm4043.2-126.6 23.3-55.3 13 5.4-23.4 55.3zm1822.8-706.4c-8 20-54 4-72 9 8-20 54-4 72-9Zm-4952.2 451.4v-13h63v13zm600.2-102.4c9 9-18 36-27 27s18-36 27-27Zm1961-4191h9v63h-9zm0-89h9v63h-9zM1468 6668c-6 10-31 39-41 48l54-107c22 3-8 50-13 59Zm1443-3257.3 54.8-12.3 2.6 11.7-54.6 12.3zM1597.1 5919h9v63h-9zm2794 1102c9 9-18 36-27 27s18-36 27-27Zm-493 296h63v9h-63zm788-4371v9l-54 9c7-23 34-18 54-18ZM8411 1800c11 5-32 22-45 18-11-5 32-22 45-18Zm-385 3752c-5 18-19 20-36 18 5-18 19-20 36-18Zm-6367-331h-18s13-47 18-36v36Zm2776 1728c8 9-16 36-27 27-2-1 13-41 27-27Zm3824-5086c11 5-32 22-45 18-11-5 32-22 45-18Zm-173.4 3862.3 39.3-19.7 7.2 14.3-39.4 19.7zM11053 3815v9h-45c7-25 26-9 45-9ZM4650 6636h-45v-9c19 0 38-16 45 9Zm-152-27h-18s13-47 18-36v36Zm5266-81h54v9h-54zm904-546h27V6000h-27zm-2077 511H8600v54h-9zm-3206-9h-45v-9l45-9v18zm4826-457h54v9h-54zm-4253 358v18h-36c-11-5 31-23 36-18Zm1155-197v9h-45v-18l45 9zM2591 3529c-3 13-14 21-27 18v-18h27Zm8444-72c9 4-24 21-36 18 4-17 20-20 36-18ZM8608 6412h-18v-27c13 3 21 14 18 27Zm395-376h45v9h-45zm3089-3519h9v45h-9zm-7594 4110v36h-9l-9-36h18zm-9 81h9v45h-9zm6475-2866c-4 17-20 20-36 18-9-4 24-21 36-18Zm-5857-984.6 90.1-13 1.6 11-90 13zm3340-1075.4h45v9h-45zm2087 2964c-30 8-10-32-10-50 0-49-6-98-7-147 13-2 13 16 15 25 15 58 9 113 3 172ZM6388 4630c4 25-5 15-20 20-42 15-96 24-141 24-2-13 16-12 25-15 44-14 92-18 136-30Zm474-72c-4 18-18 15-31 18-42 8-86 17-130 18 37-43 110-20 161-36Zm403-62c4 27-6 15-22 18-43 6-87 11-130 18 35-36 105-27 152-36Zm-1182 205c-61-2-119 20-179 27 3-16 18-16 30-19 23-6 99-22 120-24 14 0 25 0 29 16ZM3147 6004l90.6-160.3 14 8-90.7 160zm3545-1419c2 13-16 13-25 15-58 14-148 22-210 32-18 3-35 9-51 16-4-24 4-16 19-20 82-26 182-36 267-42Zm3878 788c-15-8-19-46-22-63-7-29-14-59-13-90 16 4 19 39 23 53 7 31 12 67 13 99Zm-600-1164-138 18-41-5c6-8 43-13 49-13h130Zm-565 36c4 27-6 15-22 18-35 8-76 7-112 8 30-30 94-11 134-27Zm-1603 179-68 17-102 10c3-16 18-17 31-18 44-5 95-6 139-9Zm2732 627h-9v-130c0-15-8-37 0-58h9v188ZM7471 5830s-37 11-36-4c0-1 13-11 15-21 7-30-2-60 16-82 13 27 0 58-3 85 0 9 8 21 7 22ZM5573 4782l-116 18c-4-27 7-14 22-18 23-6 84-28 95 0Zm4020-546c2 13-14 11-22 13-45 9-93 4-139 5l161-18Zm-4379 600c-4 17-18 16-31 18-64 10-129 15-193 27l91-29c46 0 85-24 133-15Zm126-9c-41-3-76 22-116 9l86-27 31 18Zm107-27s-85 21-99 18c18-34 66-19 94-36 8-1 5 17 4 18ZM1973 6296l-14-41 14-121v162zm8194-2105c-21 30-76 14-107 18 1-13 40-16 50-17 19-2 38-2 57-1Zm-932 81-152 18 67-18h85zm-4916 644c0-13 42-14 51-15 25 0 54 17 79-3l4 18h-134Zm1504-179-116 27c3-14 40-23 51-25 22-4 43-2 65-2Zm2651-385-125 18c1-13 40-16 50-17 25-3 50 0 75-1ZM3173 6206l-18 89c-19-32 2-41 6-60 4-16-22-35 11-30Zm1092-1298-125 18c-2-13 23-16 32-17 31-3 62 0 93 0ZM2770 5096c2 13-17 11-27 13-26 6-54 9-81 13 3-15 41-21 53-23 18-3 36-6 54-4Zm-842.8 1520.7 20-106.1 11.8 2.2-20 106.1zM10534 4836c-29 3-13-4-14-17-2-19-8-42 10-55l4 72Zm-3036-367-170 36c-6-23 19-21 34-24 42-8 93-11 136-11Zm500-70.4 98.2-13.2 1.8 13.9-98 13.2zm-2821.6 1764 108.6-22.9 2.3 10.7-108.7 22.9zM8653 4333.9l-81 18c14-32 54-23 81-18Zm-3671 538c-21 30-76 14-107 18l107-18Zm-851 36c0 13-32 15-41 17-22 3-44 0-66 0l107-18Zm-224 18c2 16-20 8-31 9h-67c21-29 69-3 98-9Zm5749 779c2 16-20 8-31 9-25 1-51 0-76 0-2-16 20-8 31-9 25-1 51 0 76 0Zm-2131 35c-18-2-9-45-7-56 4-21 13-59 33-69-2 47-39 76-27 125Zm-1630-1012c-56 24-94 9-18-13 12-3 15 3 18 13Zm-3931 1729c-32-19-4-58-2-78 2-18-17-56 11-65l-9 143Zm2042-1540c-15 26-58 8-81 9l81-9Zm-932 1486 36-143c2 18 0 36-4 54-5 24-13 71-32 89Zm6976-2185h-54V4200c20 0 47-5 54 18Zm-2982 313c-6 21-45 17-63 18 6-21 45-17 63-18Zm546-89c-7 23-34 18-54 18 7-23 34-18 54-18Zm205.7-17.5v-12h81v12zm171.3-27.5c-12 25-58 16-81 18l81-18Zm886-89c2 16-18 8-30 10-14 3-27 9-41 8 11-28 48-16 72-18Zm-4271 599c-15-5-58 11-63-9 21 0 51-22 63 9Zm-1451 1120-27 72c5-16-4-77 27-72Zm7414.7-1173.3v-81h9v81zM4749 4890c-7 21-47 14-63 9l63-9Zm5166.4 805v-9h81v9zm-680.2 18v-9h81v9zM8483 4352.5v-9h80.9v9zm1263-125.5c2 14-29 10-40 10-13 0-21 11-32-6l72-4Zm501-18c-13 6-66-12-54-18 20 0 47-5 54 18Zm-6868.3 761.7v-9h72v9zM4865 4890c-8 20-54 4-72 9 8-20 54-4 72-9Zm5705.6 44.6v-72h9v72zM8313 4370c-8 20-54 4-72 9 8-20 54-4 72-9ZM2553.2 6580l64-11.5 2.3 12.8-64 11.4zm580.8-171 11.8-60.9 11.8 2.3-12 61zm3862-1860v9h-54c-3-18 44-18 54-9ZM3137 6108c2 17 0 31-18 36v-36h18Zm7406-1227h9v63h-9zm-7290 107v9l-54 9c7-23 34-18 54-18Zm7334 63c-5 11-22-32-18-45 20 5 19 28 18 45Zm-35 591v9c-24 0-51 24-45-9h45Zm-3072 0s-11 34-9 45h-9v-45c6 0 16-1 18 0Zm3197-18c-23-7-18-34-18-54h9l9 54Zm-3105.6-230.8 36-36 9.3 9.1-36 36.1zM2223 5212c-5 18-19 20-36 18 5-18 19-20 36-18Zm5615 0c-14-14 25-29 27-27 9 11-18 35-27 27Zm2687-152h9v54h-9zm-860-833c-5 18-19 20-36 18 5-18 19-20 36-18Zm-6636 806v18h-36c-11-5 31-23 36-18Zm6036-743-89 18s-10-17 10-14c29 5 51-8 80-4Zm-322 27h54v9h-54zm-591 62v18c-72 3-11-27 0-18ZM4677 4890v18s-47-13-36-18h36ZM2814 6528v9c-17 6-28 6-45 0v-9h45Zm7756-1817h9v54h-9zm-4926 62h-36v-9c19-4 28-15 36 9Zm-71 1326h45v9h-45zm2176-815v18h-27c3-13 14-21 27-18Zm2830-672v36h-9l-9-36h18zm-27-107h9v45h-9zM6513 5902v9c-19 3-23 15-36-4l36-4Zm-2794-976h45v9h-45zm3125 904h45v9h-45zm1469-806h45v9h-45zm-4469 591h45v9h-45zm-161 0h45v9h-45zm3851-99h-18l9-35h9v35zm3045-277h9v45h-9zm9 72h9v45h-9zM2761 3869l-116 36 18-13-18-13c51 19 39-4 51-9 14-7 60-26 66 0Zm98-36c0 10-37 20-45 22-15 3-29 7-45 4-9-30 34-8 45-18l-9-18 54 9Zm1424-385-116 36c7-22 31-20 47-27 7-3 6-16 11-16 13 0 39 15 59 8Zm-734 170-9 18c7 5 58-25 63 0l-125 18c7-20 36-25 54-18l-9-18h27Zm1198.6-312.8 126-22.1 2.3 12.8-126 22.1zm-249.6 70.8-80 27 18-13-18-13c33 16 50-10 80 0Zm967-233-54 9c4-20 41-7 36-36l18 27Zm2543 905v9c-21 0-39 17-54-4l54-4Zm-708.3 88.2 64-11.4 2.2 12.8-64 11.4zm-114.7 18.8c-7 23-34 18-54 18v-9l54-9Zm-331.4-1431.8v-18h36v18zM2564 3940l-54 9c5-14 50-37 54-9Zm2497.2-705.8 63-11.2 2.3 12.8-63 11.2zM6432 4272c-7 23-34 18-54 18v-9l54-9Zm-3000-600c-4 13-45 35-54 13l54-13Zm565-152c11 5-32 22-45 18 5-20 28-19 45-18Zm-950 259v18h-45v-9c10 2 42-12 45-9Zm-693.5 474 12.6-43.2 14.4 4.2-12.6 43.2zM6334 2928h-54v-8l54-9v17zm-340 72v9l-54 9c-12-6 39-25 54-18Zm1773 1066h54v9h-54zM5841 3045h-45v-9c19 0 38-16 45 9ZM2376 3940s-16 24-27 18v-27l27 9Zm2973-761h-45v-9l45-9v18zm-2194 573c-5 18-19 20-36 18 5-18 19-20 36-18Zm23.6-8.2 91-30.8 4.4 13.3-91 30.7zm889.4-250.8h54v9h-54zm-9 9v9l-45 9c5-20 28-19 45-18Zm1970 841h45v9h-45zm2006-1701c-17-4-20-20-18-36 4-9 21 24 18 36ZM6549 4245h45v9h-45zm-3761-439c9 4-24 21-36 18 4-17 20-20 36-18Zm4029 403h45v9h-45zm-4334-260c-4 17-20 20-36 18-9-4 24-21 36-18Zm4442 242h45V4200h-45zM5743 3045h45v9h-45zm1495 1101v9c-19 3-23 15-36-4l36-4Zm475-71h45v9h-45zm2767-1147 27-134c13 9 0 165-27 134Zm-376-1047c-31 37-109 20-152 18l152-18Zm367 1298 15 69-15 65v-134zM9334 1943c2 13-23 16-32 17-28 3-56 0-84 0 5-20 13-12 25-12 32 0 60 1 92-6Zm1155 1156c-15 0-19 6-16-11 7-36 10-68 7-105 16-2 8 20 9 31 1 28 0 57 0 85Zm27-332c-12 0-14-45-14-54 0-15-9-24 10-36 11 29 7 60 4 89Zm-430 582-18-98c28 18 14 70 18 98Zm-878-1397-4 18c-24-19-50 3-76 0 3-18 77-21 81-18Zm189 180c-13 30-55 15-81 18l81-18Zm-520-135-81 18c14-22 59-17 81-18Zm1298 1549s13 45 18 54c-31 11-45-84-18-54ZM8913 2409c-6-7 24-51 36-54 4 25-16 43-36 54Zm779-501c-6 18-47 16-63 18 9-25 41-17 63-18Zm797 1244h-18v-45c17 0 23 39 18 45ZM8975.6 1979.8l72.2-10.7 1.9 12.8-72.2 10.7zm1532.8 1243.8v-72h9v72zM10140 3493c-18 15-25-28-27-45 7-8 29 43 27 45Zm235.2 293 9.2-9.1 36 36-9 9.3zm131.8-499h9v63h-9zm-475-305h9v63h-9zm251-89c-2-17 0-31 18-36 2 17 0 31-18 36ZM9271 3914h54v9h-54zm-457-126c-17 2-31 0-36-18 17-2 31 0 36 18Zm1182-1164c-18-5-20-19-18-36 18 5 20 19 18 36Zm-841-421c0 11-34 28-36 27-13-15 20-28 36-27Zm197 269c11 5-32 22-45 18-11-5 32-22 45-18Zm1164 1074h-18v-44h9l9 44zM9710 2454h45v9h-45zm72 9h45v9h-45zm-547-305h45v9h-45zm-600 1236c-4 9-21-24-18-36 17 4 20 20 18 36Zm-89-1316c-4 17-20 20-36 18-9-4 24-21 36-18Zm1531 1764h45v9h-45zm-1084 107v9l-35 9v-18h35zm1505-1003c3 12-5 24-18 27v-27h18Zm1290 45c-2-17 0-31 18-36 2 17 0 31-18 36Zm-171-403h54v9h-54zm-250 582h-9c-2-16 0-31 18-36 0 7-7 34-9 36Zm36-259h9v45h-9zM3674 6797c-14 0-18-40-17-49 0-12 12-54 26-59l-9 107Zm7-127.8 11.8-60.9 11.7 2.3-12 60.9zm450 64.8h9v54h-9zm4003-250c-20 0-47 5-54-18 20 0 47-5 54 18Zm-278-126c-51 14-14-44-9-36l9 36Zm9-143s-15 32-9 45h-9c-11-15-2-61 18-45Zm314 277c-17 2-31 0-36-18 17-2 31 0 36 18Zm-4174-510c-5 16-55 11-67 9-13-2-28-2-31-18 37-14 62 4 98 9Zm162 72c-17 2-32-5-47-11-13-5-44-22-52-33 32 5 79 18 98 45Zm231 276s-20 7-25 10l9-72c18 2 22 53 16 61Zm-402.5-259.5 4-12.4 96 31.4-4 12.4zm233.4 10.5c-9 2-55-20-54-22 10-26 50 13 54 22Zm-644 18c-4-12 13-45 18-36 2 16 0 31-18 36Zm456-3977s-19 3-18-4c15-12 11-42 27-40 2 5-7 43-9 45Zm27-197s10-8 14-8c5 0 0 27 22 8v18c-7 2-20 12-27 9-4-2-6-22-9-27Z"/><path d="M4104 1943c74-18 0-6 27-45l-27 9c-17-61 46-112 81-156l480-317c40 9 3 19 4 44l63-27c0-19-68 1-45-27 8-9 140-74 166-90 47-29 126-78 165-113 54-49 78-102 143-152 10-8 36-39 41-40 20-4 23 46 40 27s-34-22-27-40c12-29 60 7 63 4 4-47-64-34 18-63l18 36c3-10 16-60 18-63 1-1 25 14 36 9-18 42-1 18 17 31 36 25-23 50-32 61-8 10-10 28-21 42h18c3 13-4 19-13 27l-4-27c-35 43-78 80-116 121-6 17 18 12 18 18 0 12-24 51-36 40l9-22-27-5c17 25 17 44 9 72-35-36-50 14-80 31l27 5c-18 31-64 0-98 27l54 9-40 45c-48 30-34 7-42 1-11-8-41 22-52 30l27 9c-40 32-65 46-116 31l36 13-40 31-4-27c-21-5-27 22-42 26-13 3-35-11-38-8-20 17 23 15 18 27-14 12-60-2-63 0-2 2 2 27-27 45l27 4c-8 9-14 16-27 13v-18c-50 30-108 44-143 90 14-5 29-10 45-9-14 17-55 46-72 40 11-9 18-20 27-31-15 5-23 9-36 18l-4-27c-19 9-3 32-13 40-20 17-90 39-113 67-19-51-36 15-4 22-10 10-51 37-61 29-2-2-1-17-6-16-27 8-50 24-41 54-15 4-4-17-14-19-35-5-85 55-22 59-7 15-41 7-36 31h-9c-5-40-26-20-54-18-9 25 16 16 18 18 14 22-16 15-24 20-10 6-15 35-41 45-32 12-50-17-42 60-22-12-2-50-31-62-4 12-44 78-49 71 8-53 39-93 27-152 24 24 37-36 40-36 12 10 16 24 22 36-8 1-24-5-27 4 5 15 32 19 36 22 2 2-7 25 13 18 10-4 12-17 14-27Zm1048-806-4-27-22 27h27Zm-90 72c5-5 49-12 31-36-29 30-70 47-85 89l67-36c16-12-25-8-13-18Zm-143 126-81 45c17 4 25-6 37-12 11-6 38-21 43-32Zm-170 98s56-28 22-36c-17-4-29 26-22 36Zm-135 63c-31-9-25 17-42 25-13 7-40 7-46 13-9 9 0 40-38 34l9 17c-27 1-55 24-71 45l124-68 64-66Zm-259 179c-10 7-43-1-45 0 0 0 10 17 0 22s-26 3-37 9c-13 7-14 25-24 32-7 5-74 20-65 35 18-5 17 17 18 18 19 13 17-17 23-17s13 10 21 5c12-7-2-24 4-32 8-11 96-38 104-72Zm9 107h-18c-3 13 4 19 13 27l4-27Zm-430 502c12-3 13 14 13 22 2 88-10 177-1 265l-12 26v-313Zm-502-950c0 17 6 18-11 15-47-8-94 14-141 2-2-14 24-13 34-15 36-5 81 0 118-3Zm278 99c-37-7-61-38-90-57l-62-23c61-5 113 39 152 80Zm260 752c9 29-73 56-71 31 0-4 66-36 71-31Zm-1541 0c2 13-15 12-25 15-23 9-49 19-74 20-4-26 6-14 21-19 25-8 52-14 78-17Zm583-680s-31 53-45 54c-6-15 32-66 45-54Z"/><path d="M4803 1558c-11 23-37 38-63 36 10-19 42-33 63-36Zm-1639 851c1 17-26 6-39 9-5 1-8 35-24 18s45-46 63-27Zm-255-774s-14 2-14 9c0 6 10 18 8 21-1 2-16 3-22 9-10 11-9 28-22 27 0-31 30-65 50-89 5-6 21-32 31-23-4 17-20 32-31 46Zm807.6-190 9.2-9.2 48.6 49-9.2 9.2zm225.8 1465v-89h9v89zm.6-197c-20-5-4-48-9-63 30 10 6 40 9 63Zm-36-465h9v63h-9zm-1406-72h63v9h-63zm206-18h63v9h-63zm403-725c-6 15-20 30-36 27 6-15 20-30 36-27ZM2035 2535v9c-16 1-39 3-45-18l45 9Zm1174-144v18h-27c3-13 14-21 27-18ZM2206 2230c9 4-24 21-36 18 4-17 20-20 36-18Zm940-833c9 4-24 21-36 18 4-17 20-20 36-18Zm179 376-27 27c-3-16 10-30 27-27Zm2490 367c4-30-9-86 18-107-11 32 15 89-18 107Zm17 126c-35 6-12-54-18-72 25 9 7 51 18 72Zm-698-215c-26-10 14-52 22-62 30 21-27 38-22 62ZM6692.3 940.3v-89h9v89zM5841 2463l-9 53-17-40 26-13zm690-1764c-3 62-14 38-36 0h36Zm-708 1674c-33 6-8-20-9-45h9v45Zm9 63c-26-7-6-33-9-54h9v54Zm-8-475h9v45h-9zm53 690c-23-7-18-34-18-54h9l9 54Zm-27-896v9c-16 1-39 3-45-18l45 9Zm-519 63c5 5-7 27-13 27-25 0 0-40 13-27Zm-18 54-36 9c11-21 26-37 36-9ZM6468 717c9 4-24 21-36 18 4-17 20-20 36-18ZM5206 1943c-3 13-14 21-27 18v-18h27Zm922 556 18-9c8 24 8 34-18 45-20-92-40-185-59-278-4-22 11-54-22-54-5-15 17-5 17-13-35-48-12-108-17-152 0-7-17-2-19-19-5-37 18-33 18-36-1-18-24-52-17-77l24 79c8 107 21 212 41 317 12 65 43 134 33 195Zm292-265c12 16 50 88 59 94 4 3 46-14 43 28-34 31-108-107-125-127-4-4-52-44-13-43 8 0 13 26 19 35 4 6 13 8 18 14Zm-229 193c-24 4-15-4-20-19-9-27-13-60-15-88l36 107Zm-18 152c-15 15-41-15-36-36 24-11 48 24 36 36Zm188-394-36-36c5-6 43 12 36 36Zm-44.7 412.3v-9h72v9zm-302-739.4 14.4-4.2 13.2 45-14.4 4.3zM6200 2444.9l-4 27c-9-8-16-14-13-27h18Zm161-1281c-1-20 7-46 27-54 3 24-3 45-27 54Zm9 36s-27 1-36 9c-4-17 11-24 22-36 2 0 15 26 13 27Zm2274-815.1c104-99 237-158 352-241 11-8-2-11 39-35 67-38 119-88 200-64V18l-36 4 58-23c12 5-5 23-5 31 0 5 18 4 19 11 2 16-21 29 11 42 23 9 51-26 69-38 0 15-27 67-35 75-10 11-25 4-28 6-3 2 22 34 14 53-5 13-58 60-76 63l18 18c-51-14-60 23-98 36 1-21 41-32 45-36 6-7 3-21-14-18-18 3-86 69-94 85-13 26 41-9 27 18-2 3-51 47-54 49 2-1 19-3 18 4l-27 22c-2-7 6-25 9-27-81 56-203 112-296 170 1-1 0-13 9-22 22-24 64-29 80-59-34-5-85 57-105 61-16 4-32-16-43 1-4 6 3 20-1 27-24 49-98 56-120 107l117-84c17-14 46-22 62-32-54 57-113 88-170 139l18 9-22 22c0-39-41 0-47 14-2 5 5 17 2 22-8 12-91 24-40 40-8 6-14 17-22 22-24 15 6-29-18-18-20 9-82 53-89 71-9 21 19 17-32 48-28 17-7 8-19 22-4 4-65 20-75 38-25-58-60 44-81 45-4 0-4-18-9-18-7 0-20 9-34 9-9 0-29-12-32-8-2 2 5 29-31 45l-40-45 9 45 18-9v81l-27-9c-3 65-42 176-85 224-26 29-96 41-77 89-45-25-40 32-103 28-18-1-83-21-67-46-35 17-29-15-58-27l4 36c-12-23-91-17-99-22-13-8 0-25-5-32-10-16-75-59-62-89 18 17 30 40 58 36-6-14-1-63-10-71-3-3-50-2-52 0-5 5 8 29-9 26l-27-72-27 45-9-63 18 9c12-15-4-122-9-125 0 0-17 10-18 9-10-28 17-22 19-40 3-30-13-85-9-107 1-6 15-5 17-13 9-32 19-66 19-101 30 12 41 19 36-18l-27 18s16-61 18-63c1 0 26 8 26 9 1 1-13 25-9 36 20-37 34-16 36-18 14-21-14-24-18-36 61 9 11-17 45-49-6-12-32 5-36 9-17 17 15 31-22 40l-2-43c4-7 54-30 63-37 17-13 21-36 52-49 34-14 55-2 82-7 19-3 54-17 34-34 18 0 37 0 55-4 17-4 14-10 52-19 18-4 50-15 67-14 6 0 13 41 26 52 9 8 27 7 31 13 24 34-6 114 47 123-2-59-24-108-54-157 16-16 40 35 54 52 6 8 30 7 17 24-1 1-16-1-18 6-4 24 21 63 25 82 6 28-3 61-4 78 0 7 20 22 22 38 3 17-11 38-7 56 16 0 5-35 27-18 5 4-12 30 36 9 2 41-74 28-31 62 9-24 78-54 85-63v-18c-6-7-41 42-53 13 13-37 58-33 80-63 7-19-21-10-18-18 6-15 26-3 40-13 22-14 25-45 33-53 5-4 15 0 16-2-10 33-7 62 24 24 9-11 30-61 38-78-26 12-43 34-63 54 14-45 72-91 107-125-1 2-3 19 4 18l22-27c-7-2-25 6-27 9 63-62 231-221 304-242-26 25-48 59-80 86-27 22-82 30-81 76l331-242c2-17-18-8-26-4-38 19-88 58-123 84-6 3-15-1-20 0Zm421-259c-46 9-85 62-125 89 45-10 92-57 125-89Zm179 80c11 10 55-34 45-54-14 0-48 51-45 54Zm-9 9c-17-2-31 0-36 18 17 2 31 0 36-18Zm-322 18c-15 0-62 11-45 27 10 9 43-11 45-27Zm55 168.9s5-20-10-16c17 23-51 48-36 63 3 3 82-32 63-54 0 0-15 10-17 8Zm-198 1h-27v18c12 3 24-5 27-18Zm-296 135c-15-4-18 6-27 13-7 6-76 70-40 76 28 5 12-33 22-40 4-3 34 0 36-4 1-2-11-32 9-45Zm-573 89c-4-39-49-48-81-45 3 15 77 48 81 45Zm-90-36c-17 0-39-3-45 18 17 0 39 3 45-18Zm556 63c9 8 36-16 27-27-1-2-41 13-27 27Zm-771 0c-23-3-62 35-45 54 20 21 47-39 45-54Zm753 18c-17-3-30 10-27 27l27-27.1Zm129 111c32-25.1 74-49.1 86-93.1l-152 130c25 11 51-25 66-37Zm-174-22.1c-11-10-55 34-45 54 34 7.9 6-24.1 9-27.1 4-4.1 43 2.9 36-27.1Zm-591 45c-14-41-62 18-31 18 2 0 19-22 31-18Zm27 36s-58 22-45 36c2 2 60-21 45-36Zm-287 27h-18l9 36h9v-36Zm280 69c-6-10 18-47 2-61-33 28-45 68-67 103 51-16 10 26 27 40 2 2 32-26 54-9-13-23 1-53 0-66 0-6-15-5-16-7Zm34-16c-7-6 10-45-10-44 7 44-13 110 36 45-7-1-23 3-26 0Zm-72-35c-30-7-8 14-11 16-6 5-22-6-16 19 23 2 30-15 27-36Zm565 79c7 4 75-49 70-71l-58 53.9-22-27c-11 11.9 0 37.9 10 43.9Zm-270 171c10-68 18-139 9-206l-17 69c7 36-2 70-1 106 0 10.9-6 32.9 9 30.9Zm-555-152-4-27c-9 8-16 14-13 27h18Zm18 45c15-6 30-20 27-36-15 6-30 20-27 36Zm-18-27c-34-6-19 47-18 63l18-63Zm287 99-4-54c-19 25-41 64 4 54Zm-45 17v-54c-29 0-7 68 0 54Zm117-9c14-17-36-46-36-4 0 15 32 8 36 4Zm-99 45c33-6 5-55 0-45v45Zm269-44h-18v36h9l9-36Zm-188 62-4-36c-19 15-23 42 4 36Zm223-27c-36 0-26 39-27 63l-27-18 22 54 31-98Zm-211 275s-3-13-7-13l-59 21c23 33 66 32 89 0-2-8-15-3-24-8Zm-362-69c-20-10-16-53-18-72 9-1 17 34 18 40 2 12 7 16 0 31Zm-394 547s-21 63-36 45c-6-7 16-52 36-45Z"/><path d="m9170.6 301.4 40-40.6 9.3 9.2-40 40.5zM7247 2122h-18s13-47 18-36v36Zm636 72c-5 11-22-32-18-45 5-11 22 32 18 45Zm152-985s-13 47-18 36v-36h18ZM7203 2320h9v45h-9zm241-726c3 12-5 24-18 27v-27h18Zm251-1012c9 4-24 21-36 18 4-17 20-20 36-18Zm-331 1299h-9c-2-16 0-31 18-36 0 7-7 34-9 36Zm367-905c-23-7-18-34-18-54h9l9 54Z"/></g></svg>
