<svg xmlns="http://www.w3.org/2000/svg" xmlns:xlink="http://www.w3.org/1999/xlink" fill="none" viewBox="0 0 112000 73500"><use xlink:href="#a" transform="matrix(.01.04268-.04268.01 110388 11643)"/><use xlink:href="#a" transform="rotate(119.18 51793 38974) scale(.04383)"/><use xlink:href="#a" transform="matrix(.03845-.02105.02105.03845 109081 13207)"/><use xlink:href="#a" transform="matrix(-.01245.04203-.04203-.01245 111325 13452)"/><use xlink:href="#a" transform="rotate(165.85 54790 14442) scale(.04383)"/><use xlink:href="#a" transform="matrix(-.0095.0428-.0428-.0095 111566 14335)"/><use xlink:href="#a" transform="rotate(-30.12 82942-196152) scale(.04384)"/><use xlink:href="#a" transform="rotate(88.82 48103 64510) scale(.04384)"/><use xlink:href="#a" transform="rotate(164.13 54770 16268) scale(.04384)"/><use xlink:href="#a" transform="rotate(63.98 43006 97040) scale(.04383)"/><use xlink:href="#a" transform="matrix(-.03987.01822-.01822-.03987 112096 17778)"/><use xlink:href="#a" transform="rotate(30.25 24354 213326) scale(.04384)"/><use xlink:href="#a" transform="rotate(-70.17 68460-68930) scale(.04383)"/><use xlink:href="#a" transform="rotate(-170.43 56710 5223) scale(.04384)"/><use xlink:href="#a" transform="matrix(-.00622.0434-.0434-.00622 112009 18685)"/><use xlink:href="#a" transform="rotate(70.58 42480 88256) scale(.04384)"/><use xlink:href="#a" transform="matrix(.00557-.04348.04348.00557 110158 21047)"/><use xlink:href="#a" transform="rotate(143.02 52554 29250) scale(.04384)"/><use xlink:href="#a" transform="matrix(.01513-.04114.04114.01513 109925 21817)"/><use xlink:href="#a" transform="matrix(-.02779-.0339.0339-.02779 110771 22960)"/><use xlink:href="#a" transform="matrix(-.04246-.01089.01089-.04246 111378 23294)"/><use xlink:href="#a" transform="matrix(.04363.00422-.00422.04363 109991 21936)"/><use xlink:href="#a" transform="matrix(-.04283.00934-.00934-.04283 111558 23909)"/><use xlink:href="#a" transform="rotate(-18.14 127623-331253) scale(.04384)"/><use xlink:href="#a" transform="rotate(-180 55640 12265) scale(.04383)"/><use xlink:href="#a" transform="matrix(-.01101-.04243.04243-.01101 109663 25714)"/><use xlink:href="#a" transform="rotate(49.17 28774 132453) scale(.04384)"/><use xlink:href="#a" transform="rotate(178.27 55178 14087) scale(.04383)"/><use xlink:href="#a" transform="rotate(54.19 30516 120006) scale(.04384)"/><use xlink:href="#a" transform="matrix(.00242-.04377.04377.00242 108771 27377)"/><use xlink:href="#a" transform="rotate(63.08 33706 102445) scale(.04384)"/><use xlink:href="#a" transform="rotate(85.07 40450 73280) scale(.04383)"/><use xlink:href="#a" transform="matrix(-.03738.0229-.0229-.03738 110162 28267)"/><use xlink:href="#a" transform="rotate(-96.36 67203-33712) scale(.04384)"/><use xlink:href="#a" transform="rotate(122.68 47050 44330) scale(.04384)"/><use xlink:href="#a" transform="rotate(-98.85 66848-31019) scale(.04383)"/><use xlink:href="#a" transform="rotate(90.58 40153 68477) scale(.04383)"/><use xlink:href="#a" transform="rotate(56.92 27240 114390) scale(.04383)"/><use xlink:href="#a" transform="matrix(.0016-.0438.0438.0016 106943 31449)"/><use xlink:href="#a" transform="rotate(-60.48 80167-75585) scale(.04384)"/><use xlink:href="#a" transform="matrix(-.04357-.0048.0048-.04357 107997 32436)"/><use xlink:href="#a" transform="rotate(123.16 45486 45136) scale(.04384)"/><use xlink:href="#a" transform="matrix(.04304-.0083.0083.04304 105856 31770)"/><use xlink:href="#a" transform="rotate(-96.25 68024-30582) scale(.04384)"/><use xlink:href="#a" transform="matrix(-.01508.04116-.04116-.01508 107295 32779)"/><use xlink:href="#a" transform="rotate(15.48-67526 404284) scale(.04384)"/><use xlink:href="#a" transform="rotate(69.68 29364 92820) scale(.04383)"/><use xlink:href="#a" transform="matrix(-.03246-.02946.02946-.03246 105511 35624)"/><use xlink:href="#a" transform="rotate(74.14 30415 86930) scale(.04384)"/><use xlink:href="#a" transform="rotate(64.08 25278 101210) scale(.04384)"/><use xlink:href="#a" transform="rotate(25.25-25213 249981) scale(.04384)"/><use xlink:href="#a" transform="matrix(.03263-.02927.02927.03263 103179 36050)"/><use xlink:href="#a" transform="matrix(.016.0408-.0408.016 104463 35476)"/><use xlink:href="#a" transform="matrix(.03225-.02969.02969.03225 102579 36862)"/><use xlink:href="#a" transform="matrix(-.0265.03492-.03492-.0265 104529 37143)"/><use xlink:href="#a" transform="rotate(100.12 36506 62073) scale(.04383)"/><use xlink:href="#a" transform="matrix(-.03714.02328-.02328-.03714 103892 38327)"/><use xlink:href="#a" transform="rotate(-142.74 57989 2494) scale(.04384)"/><use xlink:href="#a" transform="rotate(94.71 33964 66495) scale(.04384)"/><use xlink:href="#a" transform="matrix(.00608-.04341.04341.00608 100935 39897)"/><use xlink:href="#a" transform="rotate(52.19 11550 123005) scale(.04383)"/><use xlink:href="#a" transform="rotate(61.48 18064 104793) scale(.04384)"/><use xlink:href="#a" transform="matrix(.0193-.03936.03936.0193 99785 40707)"/><use xlink:href="#a" transform="rotate(37.09-8813 169380) scale(.04384)"/><use xlink:href="#a" transform="matrix(-.04056-.01662.01662-.04056 100629 42114)"/><use xlink:href="#a" transform="rotate(174.66 49385 23416) scale(.04384)"/><use xlink:href="#a" transform="rotate(-91.62 70085-26677) scale(.04384)"/><use xlink:href="#a" transform="matrix(.01795.04-.04.01795 99570 41099)"/><use xlink:href="#a" transform="matrix(-.03124-.03075.03075-.03124 98834 43640)"/><use xlink:href="#a" transform="rotate(175 48725 23966) scale(.04384)"/><use xlink:href="#a" transform="matrix(-.02019.03891-.03891-.02019 99204 42873)"/><use xlink:href="#a" transform="rotate(-119.63 61720-6020) scale(.04383)"/><use xlink:href="#a" transform="rotate(-87.8 71504-27842) scale(.04383)"/><use xlink:href="#a" transform="matrix(-.0423.0115-.0115-.0423 98043 44815)"/><use xlink:href="#a" transform="rotate(-39.48 109787-110950) scale(.04384)"/><use xlink:href="#a" transform="matrix(-.0398-.01837.01837-.0398 96730 45997)"/><use xlink:href="#a" transform="rotate(-56.96 89380-64670) scale(.04384)"/><use xlink:href="#a" transform="matrix(.04266.01008-.01008.04266 95013 44645)"/><use xlink:href="#a" transform="rotate(69 15183 92086) scale(.04384)"/><use xlink:href="#a" transform="matrix(-.04081.016-.016-.04081 95909 46722)"/><use xlink:href="#a" transform="rotate(54.23 2928 115206) scale(.04384)"/><use xlink:href="#a" transform="matrix(-.0081.04308-.04308-.0081 95055 46289)"/><use xlink:href="#a" transform="matrix(-.04114-.01514.01514-.04114 94222 48276)"/><use xlink:href="#a" transform="matrix(-.04073.01621-.01621-.04073 94411 48016)"/><use xlink:href="#a" transform="rotate(-22.68 164304-205504) scale(.04383)"/><use xlink:href="#a" transform="rotate(91.59 23657 69158) scale(.04384)"/><use xlink:href="#a" transform="rotate(-92.04 69541-19450) scale(.04383)"/><use xlink:href="#a" transform="matrix(.03246.02946-.02946.03246 91786 47705)"/><use xlink:href="#a" transform="matrix(-.00235.04377-.04377-.00235 92298 48388)"/><use xlink:href="#a" transform="matrix(.0119-.0422.0422.0119 90082 50005)"/><use xlink:href="#a" transform="matrix(.03893.02015-.02015.03893 90335 48681)"/><use xlink:href="#a" transform="rotate(-101.77 65570-10949) scale(.04383)"/><use xlink:href="#a" transform="rotate(60.99 3258 101238) scale(.04384)"/><use xlink:href="#a" transform="matrix(.0387.0206-.0206.0387 89168 49585)"/><use xlink:href="#a" transform="matrix(-.03493.02648-.02648-.03493 90224 51119)"/><use xlink:href="#a" transform="matrix(-.0435.00548-.00548-.0435 89598 51955)"/><use xlink:href="#a" transform="rotate(25.98-65467 215890) scale(.04384)"/><use xlink:href="#a" transform="rotate(77.67 12642 80420) scale(.04384)"/><use xlink:href="#a" transform="rotate(84.57 15925 74143) scale(.04384)"/><use xlink:href="#a" transform="rotate(167.99 41230 31155) scale(.04384)"/><use xlink:href="#a" transform="matrix(.03895-.02011.02011.03895 85616 52368)"/><use xlink:href="#a" transform="matrix(.04215-.01204.01204.04215 85297 52447)"/><use xlink:href="#a" transform="rotate(161.44 39052 33990) scale(.04384)"/><use xlink:href="#a" transform="matrix(-.00492.04356-.04356-.00492 86351 52856)"/><use xlink:href="#a" transform="matrix(-.03694-.0236.0236-.03694 85301 54943)"/><use xlink:href="#a" transform="rotate(59.55-3870 100743) scale(.04384)"/><use xlink:href="#a" transform="matrix(-.01999.03901-.03901-.01999 85310 54040)"/><use xlink:href="#a" transform="rotate(58.59-5689 101705) scale(.04383)"/><use xlink:href="#a" transform="matrix(.03185.03012-.03012.03185 83367 53803)"/><use xlink:href="#a" transform="rotate(-98.05 65513-7689) scale(.04383)"/><use xlink:href="#a" transform="rotate(-115.35 58980 2262) scale(.04384)"/><use xlink:href="#a" transform="matrix(-.03827-.02138.02138-.03827 82457 56820)"/><use xlink:href="#a" transform="rotate(59.21-7302 99611) scale(.04384)"/><use xlink:href="#a" transform="matrix(.01194-.04218.04218.01194 80316 56808)"/><use xlink:href="#a" transform="matrix(-.04166-.01364.01364-.04166 81390 57525)"/><use xlink:href="#a" transform="matrix(-.0172-.04032.04032-.0172 80035 57821)"/><use xlink:href="#a" transform="matrix(-.04136-.01452.01452-.04136 80523 58045)"/><use xlink:href="#a" transform="matrix(.04383-.0007.0007.04383 78794 56491)"/><use xlink:href="#a" transform="matrix(.0097.04275-.04275.0097 79781 56573)"/><use xlink:href="#a" transform="rotate(-3.46 997103-1277935) scale(.04384)"/><use xlink:href="#a" transform="matrix(-.00499.04355-.04355-.00499 79203 57325)"/><use xlink:href="#a" transform="matrix(.00065-.04383.04383.00065 77076 59062)"/><use xlink:href="#a" transform="rotate(180 39082 29720) scale(.04384)"/><use xlink:href="#a" transform="rotate(-105.29 61030 688) scale(.04383)"/><use xlink:href="#a" transform="matrix(.04072.01623-.01623.04072 76142 57960)"/><use xlink:href="#a" transform="matrix(.03203.02993-.02993.03203 76114 58108)"/><use xlink:href="#a" transform="matrix(.03272.02917-.02917.03272 75651 58345)"/><use xlink:href="#a" transform="rotate(-107.51 59630 2954) scale(.04383)"/><use xlink:href="#a" transform="rotate(84.3 5155 71277) scale(.04384)"/><use xlink:href="#a" transform="matrix(.03842-.0211.0211.03842 73318 59855)"/><use xlink:href="#a" transform="matrix(-.01269.04196-.04196-.01269 74960 59866)"/><use xlink:href="#a" transform="rotate(-84.41 70147-9377) scale(.04384)"/><use xlink:href="#a" transform="matrix(.02685.03465-.03465.02685 73221 59731)"/><use xlink:href="#a" transform="rotate(-45.94 107812-53804) scale(.04383)"/><use xlink:href="#a" transform="matrix(-.01494.04121-.04121-.01494 73220 60818)"/><use xlink:href="#a" transform="matrix(-.04326-.00709.00709-.04326 72410 62436)"/><use xlink:href="#a" transform="matrix(-.04292-.0089.0089-.04292 71924 62681)"/><use xlink:href="#a" transform="rotate(73.2-5346 78540) scale(.04383)"/><use xlink:href="#a" transform="matrix(-.03764-.02247.02247-.03764 70684 63263)"/><use xlink:href="#a" transform="rotate(-141.08 46260 19368) scale(.04383)"/><use xlink:href="#a" transform="matrix(-.04263-.0102.0102-.04263 70105 63552)"/><use xlink:href="#a" transform="matrix(-.00732.04322-.04322-.00732 69985 62141)"/><use xlink:href="#a" transform="matrix(-.0438-.0018.0018-.0438 69377 63835)"/><use xlink:href="#a" transform="rotate(-125.46 50562 14645) scale(.04383)"/><use xlink:href="#a" transform="matrix(-.03086-.03113.03113-.03086 67697 64545)"/><use xlink:href="#a" transform="rotate(163.3 29413 37085) scale(.04384)"/><use xlink:href="#a" transform="rotate(87.88 1102 66546) scale(.04383)"/><use xlink:href="#a" transform="rotate(-106.28 57265 7840) scale(.04384)"/><use xlink:href="#a" transform="matrix(.03941.01919-.01919.03941 65513 63138)"/><use xlink:href="#a" transform="rotate(110.73 11149 54920) scale(.04384)"/><use xlink:href="#a" transform="rotate(-60.51 87567-22308) scale(.04384)"/><use xlink:href="#a" transform="rotate(-153.4 40217 25261) scale(.04384)"/><use xlink:href="#a" transform="matrix(.03626-.02463.02463.03626 62938 64760)"/><use xlink:href="#a" transform="rotate(-62.74 84977-18514) scale(.04384)"/><use xlink:href="#a" transform="matrix(-.0303.03169-.03169-.0303 64261 65317)"/><use xlink:href="#a" transform="matrix(-.03802.02182-.02182-.03802 63762 65820)"/><use xlink:href="#a" transform="matrix(.03886.02028-.02028.03886 61870 64624)"/><use xlink:href="#a" transform="matrix(-.04102-.01546.01546-.04102 62210 66914)"/><use xlink:href="#a" transform="rotate(-75.52 73165-5614) scale(.04383)"/><use xlink:href="#a" transform="matrix(-.0393-.01942.01942-.0393 61178 67306)"/><use xlink:href="#a" transform="rotate(-115.56 51256 14838) scale(.04384)"/><use xlink:href="#a" transform="matrix(.04025.01736-.01736.04025 59470 65526)"/><use xlink:href="#a" transform="rotate(-159.94 35945 28586) scale(.04383)"/><use xlink:href="#a" transform="rotate(-125.29 46976 18816) scale(.04384)"/><use xlink:href="#a" transform="matrix(.04148-.01418.01418.04148 57467 66580)"/><use xlink:href="#a" transform="matrix(-.0293-.0326.0326-.0293 57954 68370)"/><use xlink:href="#a" transform="rotate(-127.52 45588 20116) scale(.04384)"/><use xlink:href="#a" transform="matrix(-.03804.02178-.02178-.03804 58170 67856)"/><use xlink:href="#a" transform="rotate(-87.21 63828 4962) scale(.04383)"/><use xlink:href="#a" transform="rotate(-103.49 54907 12522) scale(.04384)"/><use xlink:href="#a" transform="rotate(-24.1 185652-94083) scale(.04383)"/><use xlink:href="#a" transform="rotate(106.61 2890 54753) scale(.04383)"/><use xlink:href="#a" transform="matrix(-.04379.002-.002-.04379 55551 69084)"/><use xlink:href="#a" transform="rotate(-78.55 68892 1955) scale(.04383)"/><use xlink:href="#a" transform="rotate(119.5 7510 50152) scale(.04383)"/><use xlink:href="#a" transform="rotate(180 26972 34833) scale(.04384)"/><use xlink:href="#a" transform="rotate(83.4-11407 64036) scale(.04384)"/><use xlink:href="#a" transform="matrix(.03552.02569-.02569.03552 52158 67913)"/><use xlink:href="#a" transform="matrix(-.04298.00862-.00862-.04298 52804 69792)"/><use xlink:href="#a" transform="rotate(-107.84 51051 16619) scale(.04384)"/><use xlink:href="#a" transform="rotate(-7.65 539665-339940) scale(.04384)"/><use xlink:href="#a" transform="matrix(-.016.0408-.0408-.016 51462 69105)"/><use xlink:href="#a" transform="rotate(43.71-60504 96520) scale(.04384)"/><use xlink:href="#a" transform="rotate(-117.69 45990 20594) scale(.04383)"/><use xlink:href="#a" transform="matrix(.04228.01158-.01158.04228 48427 68947)"/><use xlink:href="#a" transform="matrix(-.01012.04265-.04265-.01012 49470 69455)"/><use xlink:href="#a" transform="rotate(-96.41 55409 14372) scale(.04383)"/><use xlink:href="#a" transform="rotate(-71.34 72577 2984) scale(.04384)"/><use xlink:href="#a" transform="matrix(-.0209.03853-.03853-.0209 48140 70073)"/><use xlink:href="#a" transform="matrix(-.04298-.00862.00862-.04298 47200 71446)"/><use xlink:href="#a" transform="rotate(-117.54 44610 21976) scale(.04384)"/><use xlink:href="#a" transform="matrix(.04261.0103-.0103.04261 45015 69751)"/><use xlink:href="#a" transform="matrix(.0419.0129-.0129.0419 44588 69820)"/><use xlink:href="#a" transform="rotate(111.72-1060 50720) scale(.04383)"/><use xlink:href="#a" transform="matrix(-.01777.04007-.04007-.01777 45201 70611)"/><use xlink:href="#a" transform="matrix(-.04311.00793-.00793-.04311 44593 71755)"/><use xlink:href="#a" transform="rotate(125.79 3970 46847) scale(.04384)"/><use xlink:href="#a" transform="matrix(-.03602-.02498.02498-.03602 42886 72410)"/><use xlink:href="#a" transform="matrix(-.03803.0218-.0218-.03803 43286 71680)"/><use xlink:href="#a" transform="rotate(-148.15 31334 30300) scale(.04384)"/><use xlink:href="#a" transform="rotate(-68.74 72726 6627) scale(.04383)"/><use xlink:href="#a" transform="matrix(.00319-.04372.04372.00319 39877 72370)"/><use xlink:href="#a" transform="matrix(.03763.02248-.02248.03763 39963 70610)"/><use xlink:href="#a" transform="matrix(.03952.01897-.01897.03952 39371 70714)"/><use xlink:href="#a" transform="matrix(-.03452-.02702.02702-.03452 39392 72976)"/><use xlink:href="#a" transform="matrix(.04363.00424-.00424.04363 38048 71048)"/><use xlink:href="#a" transform="rotate(-73.49 67217 11295) scale(.04384)"/><use xlink:href="#a" transform="matrix(.00727-.04323.04323.00727 36862 72706)"/><use xlink:href="#a" transform="matrix(.03894-.02013.02013.03894 36210 71767)"/><use xlink:href="#a" transform="matrix(.03386.02784-.02784.03386 36685 71041)"/><use xlink:href="#a" transform="rotate(-73.3 66552 12650) scale(.04384)"/><use xlink:href="#a" transform="matrix(-.0253.0358-.0358-.0253 36930 72080)"/><use xlink:href="#a" transform="rotate(-80.65 60186 16225) scale(.04383)"/><use xlink:href="#a" transform="rotate(56.34-49010 68346) scale(.04384)"/><use xlink:href="#a" transform="matrix(-.00565-.04347.04347-.00565 33636 73303)"/><use xlink:href="#a" transform="matrix(-.02612.0352-.0352-.02612 34953 72280)"/><use xlink:href="#a" transform="matrix(-.03937-.01927.01927-.03937 33711 73550)"/><use xlink:href="#a" transform="rotate(19.32-193865 130846) scale(.04384)"/><use xlink:href="#a" transform="rotate(156.03 8957 40019) scale(.04383)"/><use xlink:href="#a" transform="rotate(-143.25 28240 31518) scale(.04383)"/><use xlink:href="#a" transform="rotate(-93.67 49742 22364) scale(.04384)"/><use xlink:href="#a" transform="matrix(-.0269-.0346.0346-.0269 30727 73729)"/><use xlink:href="#a" transform="matrix(-.03286-.02901.02901-.03286 30437 73750)"/><use xlink:href="#a" transform="matrix(-.04383.00048-.00048-.04383 30677 73423)"/><use xlink:href="#a" transform="rotate(126.06-3190 43990) scale(.04383)"/><use xlink:href="#a" transform="rotate(-122.72 34456 29056) scale(.04384)"/><use xlink:href="#a" transform="rotate(141.67 2108 41515) scale(.04384)"/><use xlink:href="#a" transform="rotate(35.69-97240 78783) scale(.04383)"/><use xlink:href="#a" transform="rotate(-83.53 54313 21830) scale(.04384)"/><use xlink:href="#a" transform="matrix(-.03077-.03122.03122-.03077 26886 73750)"/><use xlink:href="#a" transform="matrix(-.04211-.01217.01217-.04211 26950 73594)"/><use xlink:href="#a" transform="matrix(-.04375.0027-.0027-.04375 26752 73333)"/><use xlink:href="#a" transform="rotate(-6.36 658410-184622) scale(.04384)"/><use xlink:href="#a" transform="rotate(-9.88 428507-102928) scale(.04384)"/><use xlink:href="#a" transform="matrix(.00179.0438-.0438.00179 25186 71665)"/><use xlink:href="#a" transform="matrix(-.02733-.03427.03427-.02733 23800 73584)"/><use xlink:href="#a" transform="matrix(.02914-.03275.03275.02914 22298 72483)"/><use xlink:href="#a" transform="rotate(144.41 382 40144) scale(.04384)"/><use xlink:href="#a" transform="rotate(41.47-82845 65148) scale(.04384)"/><use xlink:href="#a" transform="matrix(-.0437-.0034.0034-.0437 22690 73123)"/><use xlink:href="#a" transform="rotate(70.06-39804 51237) scale(.04383)"/><use xlink:href="#a" transform="rotate(-37.52 115891 6790) scale(.04384)"/><use xlink:href="#a" transform="matrix(-.04365.00405-.00405-.04365 21344 72785)"/><use xlink:href="#a" transform="matrix(.0398.01837-.01837.0398 19598 70924)"/><use xlink:href="#a" transform="rotate(93.19-23477 45194) scale(.04384)"/><use xlink:href="#a" transform="rotate(50.61-65196 55562) scale(.04384)"/><use xlink:href="#a" transform="matrix(.02083.03857-.03857.02083 18843 70636)"/><use xlink:href="#a" transform="rotate(12.75-307327 113233) scale(.04383)"/><use xlink:href="#a" transform="matrix(-.02841-.03338.03338-.02841 17459 72642)"/><use xlink:href="#a" transform="matrix(-.04383.00061-.00061-.04383 17875 72190)"/><use xlink:href="#a" transform="rotate(89.57-26816 43992) scale(.04383)"/><use xlink:href="#a" transform="matrix(-.01113-.0424.0424-.01113 15540 72137)"/><use xlink:href="#a" transform="rotate(123.22-10767 39920) scale(.04383)"/><use xlink:href="#a" transform="rotate(-113.44 30975 31137) scale(.04384)"/><use xlink:href="#a" transform="matrix(-.04054-.01668.01668-.04054 15111 71788)"/><use xlink:href="#a" transform="matrix(-.03242-.0295.0295-.03242 14260 71723)"/><use xlink:href="#a" transform="rotate(82.04-32757 43047) scale(.04383)"/><use xlink:href="#a" transform="rotate(-180 7199 35501) scale(.04383)"/><use xlink:href="#a" transform="rotate(137.21-6771 37798) scale(.04384)"/><use xlink:href="#a" transform="rotate(-59.4 67140 25234) scale(.04383)"/><use xlink:href="#a" transform="rotate(24.79-150456 60480) scale(.04384)"/><use xlink:href="#a" transform="rotate(28.57-128794 56023) scale(.04384)"/><use xlink:href="#a" transform="matrix(-.02893.03293-.03293-.02893 12113 69237)"/><use xlink:href="#a" transform="rotate(-98.39 35143 30745) scale(.04384)"/><use xlink:href="#a" transform="matrix(-.0242.03655-.03655-.0242 11200 68640)"/><use xlink:href="#a" transform="matrix(.00421.04363-.04363.00421 10376 67759)"/><use xlink:href="#a" transform="matrix(.03882.02036-.02036.03882 8887 67307)"/><use xlink:href="#a" transform="matrix(.04022-.01743.01743.04022 7743 67716)"/><use xlink:href="#a" transform="matrix(-.02779-.0339.0339-.02779 8265 68996)"/><use xlink:href="#a" transform="rotate(-123.44 22350 32273) scale(.04384)"/><use xlink:href="#a" transform="rotate(-165.27 8473 33620) scale(.04384)"/><use xlink:href="#a" transform="rotate(-76.33 46105 29866) scale(.04384)"/><use xlink:href="#a" transform="matrix(.03155.03043-.03043.03155 6745 65588)"/><use xlink:href="#a" transform="matrix(.0026-.04376.04376.0026 5533 67154)"/><use xlink:href="#a" transform="matrix(-.03998.01798-.01798-.03998 7061 66480)"/><use xlink:href="#a" transform="rotate(-130.1 18326 32148) scale(.04384)"/><use xlink:href="#a" transform="rotate(-125.07 19830 31935) scale(.04384)"/><use xlink:href="#a" transform="matrix(-.0131.04183-.04183-.0131 5939 64519)"/><use xlink:href="#a" transform="rotate(-104.36 27496 31264) scale(.04384)"/><use xlink:href="#a" transform="rotate(13.38-267958 47333) scale(.04383)"/><use xlink:href="#a" transform="matrix(-.03586.02521-.02521-.03586 5082 64110)"/><use xlink:href="#a" transform="rotate(-114.57 22379 31238) scale(.04384)"/><use xlink:href="#a" transform="rotate(-69.54 46964 30093) scale(.04383)"/><use xlink:href="#a" transform="matrix(.00616-.0434.0434.00616 2208 63379)"/><use xlink:href="#a" transform="rotate(-38.87 88943 28630) scale(.04384)"/><use xlink:href="#a" transform="rotate(-178.27 2165 31308) scale(.04384)"/><use xlink:href="#a" transform="rotate(111.78-18934 31640) scale(.04383)"/><use xlink:href="#a" transform="rotate(109.36-19830 31364) scale(.04384)"/><use xlink:href="#a" transform="rotate(-96.22 28158 30127) scale(.04384)"/><use xlink:href="#a" transform="matrix(-.02209.03786-.03786-.02209 2880 59750)"/><use xlink:href="#a" transform="rotate(-124.24 16754 29970) scale(.04384)"/><use xlink:href="#a" transform="rotate(-156.52 7194 29880) scale(.04383)"/><use xlink:href="#a" transform="matrix(.0379-.02202.02202.0379 238 58333)"/><use xlink:href="#a" transform="rotate(-64.56 46390 29145) scale(.04384)"/><use xlink:href="#a" transform="matrix(.009.0429-.0429.009 1726 56710)"/><use xlink:href="#a" transform="matrix(.03567-.02548.02548.03567-97 56984)"/><use xlink:href="#a" transform="matrix(.04049-.0168.0168.04049-100 56246)"/><use xlink:href="#a" transform="rotate(91.83-25978 28535) scale(.04383)"/><use xlink:href="#a" transform="matrix(.04346-.00573.00573.04346-50 55004)"/><use xlink:href="#a" transform="matrix(-.04336-.00644.00644-.04336 1494 56105)"/><use xlink:href="#a" transform="rotate(1.73-1723272 26200) scale(.04383)"/><use xlink:href="#a" transform="matrix(-.03347.02831-.02831-.03347 1936 54300)"/><use xlink:href="#a" transform="rotate(-92.42 26173 27243) scale(.04384)"/><use xlink:href="#a" transform="matrix(.04304-.0083.0083.04304-84 52580)"/><use xlink:href="#a" transform="matrix(.04297.00866-.00866.04297 268 51780)"/><use xlink:href="#a" transform="rotate(35.41-79677 26752) scale(.04384)"/><use xlink:href="#a" transform="matrix(.0085.043-.043.0085 1645 50794)"/><use xlink:href="#a" transform="rotate(-20.1 143237 25184) scale(.04384)"/><use xlink:href="#a" transform="rotate(-77.56 32080 25543) scale(.04383)"/><use xlink:href="#a" transform="rotate(-91.24 25246 25297) scale(.04384)"/><use xlink:href="#a" transform="matrix(.02146-.03822.03822.02146 305 50096)"/><use xlink:href="#a" transform="rotate(-140.14 9953 24926) scale(.04384)"/><use xlink:href="#a" transform="rotate(16.7-162360 27702) scale(.04384)"/><use xlink:href="#a" transform="rotate(2.74-981310 44373) scale(.04383)"/><use xlink:href="#a" transform="matrix(-.02492-.03606.03606-.02492 1732 48996)"/><use xlink:href="#a" transform="matrix(.0415-.01414.01414.0415 1079 46913)"/><use xlink:href="#a" transform="rotate(-122.2 14268 23465) scale(.04384)"/><use xlink:href="#a" transform="matrix(.03905-.01991.01991.03905 1360 46131)"/><use xlink:href="#a" transform="rotate(-110.07 17520 22774) scale(.04383)"/><use xlink:href="#a" transform="rotate(21.64-115246 28420) scale(.04383)"/><use xlink:href="#a" transform="rotate(-77.9 29305 21584) scale(.04383)"/><use xlink:href="#a" transform="rotate(-86.13 25466 21439) scale(.04384)"/><use xlink:href="#a" transform="matrix(-.02908-.0328.0328-.02908 3352 45335)"/><use xlink:href="#a" transform="matrix(-.04122-.01491.01491-.04122 4120 44780)"/><use xlink:href="#a" transform="matrix(.04359-.00465.00465.04359 2982 42604)"/><use xlink:href="#a" transform="rotate(-27.41 88708 15087) scale(.04383)"/><use xlink:href="#a" transform="rotate(168.05 383 21805) scale(.04384)"/><use xlink:href="#a" transform="rotate(-89.48 23475 19499) scale(.04383)"/><use xlink:href="#a" transform="rotate(-40.55 57995 15757) scale(.04384)"/><use xlink:href="#a" transform="rotate(150.06-2463 21545) scale(.04383)"/><use xlink:href="#a" transform="rotate(152.99-1732 21306) scale(.04383)"/><use xlink:href="#a" transform="rotate(70.2-24910 23953) scale(.04383)"/><use xlink:href="#a" transform="rotate(-163.52 6157 19975) scale(.04383)"/><use xlink:href="#a" transform="rotate(-137.47 10985 19100) scale(.04383)"/><use xlink:href="#a" transform="rotate(-7.24 306230-24275) scale(.04384)"/><use xlink:href="#a" transform="rotate(-80.11 26246 16226) scale(.04383)"/><use xlink:href="#a" transform="rotate(93.66-13678 22410) scale(.04384)"/><use xlink:href="#a" transform="translate( 6440 37044) scale(.04383)"/><use xlink:href="#a" transform="matrix(.03314-.02869.02869.03314 6410 37355)"/><use xlink:href="#a" transform="matrix(-.0095.0428-.0428-.0095 8791 36428)"/><use xlink:href="#a" transform="matrix(.0367-.02397.02397.0367 7031 36405)"/><use xlink:href="#a" transform="matrix(-.0238-.03681.03681-.0238 8201 37355)"/><use xlink:href="#a" transform="rotate(-89.78 22370 14343) scale(.04384)"/><use xlink:href="#a" transform="rotate(-97 20266 14485) scale(.04383)"/><use xlink:href="#a" transform="matrix(-.03357.0282-.0282-.03357 10498 35182)"/><use xlink:href="#a" transform="rotate(63.18-22323 24980) scale(.04384)"/><use xlink:href="#a" transform="matrix(-.03266.02924-.02924-.03266 11134 34390)"/><use xlink:href="#a" transform="matrix(.0387.02057-.02057.0387 9996 32869)"/><use xlink:href="#a" transform="rotate(157.49 2465 18168) scale(.04384)"/><use xlink:href="#a" transform="rotate(-54.31 37474 7070) scale(.04383)"/><use xlink:href="#a" transform="matrix(-.03315-.02868.02868-.03315 11396 33963)"/><use xlink:href="#a" transform="matrix(.03507.0263-.0263.03507 11487 31350)"/><use xlink:href="#a" transform="rotate(-97.71 20070 11567) scale(.04384)"/><use xlink:href="#a" transform="rotate(-34.62 56207-2224) scale(.04383)"/><use xlink:href="#a" transform="matrix(.04381.0015-.0015.04381 11898 30555)"/><use xlink:href="#a" transform="matrix(.04274-.00974.00974.04274 12055 30426)"/><use xlink:href="#a" transform="rotate(71.98-13489 24384) scale(.04383)"/><use xlink:href="#a" transform="rotate(67.52-14830 25218) scale(.04383)"/><use xlink:href="#a" transform="rotate(-116.34 16487 11268) scale(.04384)"/><use xlink:href="#a" transform="rotate(-53.08 36467 1580) scale(.04384)"/><use xlink:href="#a" transform="rotate(111.51-1910 19797) scale(.04383)"/><use xlink:href="#a" transform="rotate(-123.92 15460 11054) scale(.04383)"/><use xlink:href="#a" transform="matrix(-.01217-.04211.04211-.01217 14948 29590)"/><use xlink:href="#a" transform="matrix(.0017.0438-.0438.0017 16629 27429)"/><use xlink:href="#a" transform="rotate(58.26-15827 28205) scale(.04384)"/><use xlink:href="#a" transform="rotate(35.57-33063 38803) scale(.04383)"/><use xlink:href="#a" transform="matrix(-.02046-.03877.03877-.02046 16625 28344)"/><use xlink:href="#a" transform="rotate(171.43 8087 14486) scale(.04384)"/><use xlink:href="#a" transform="rotate(-60.78 31256-712) scale(.04384)"/><use xlink:href="#a" transform="matrix(.03808-.02171.02171.03808 16992 25983)"/><use xlink:href="#a" transform="rotate(-107.98 18773 6963) scale(.04384)"/><use xlink:href="#a" transform="matrix(.00454-.0436.0436.00454 17958 26355)"/><use xlink:href="#a" transform="matrix(.0312-.0308.0308.0312 18087 25317)"/><use xlink:href="#a" transform="matrix(.03329-.02852.02852.03329 18475 24920)"/><use xlink:href="#a" transform="rotate(45.16-18334 35816) scale(.04383)"/><use xlink:href="#a" transform="matrix(-.03373-.028.028-.03373 20477 25510)"/><use xlink:href="#a" transform="rotate(-93.11 21804 2986) scale(.04384)"/><use xlink:href="#a" transform="rotate(37.58-22780 42188) scale(.04383)"/><use xlink:href="#a" transform="matrix(.03601-.025.025.03601 20429 23260)"/><use xlink:href="#a" transform="rotate(-156.78 13665 9808) scale(.04384)"/><use xlink:href="#a" transform="rotate(90.48 627 22506) scale(.04384)"/><use xlink:href="#a" transform="rotate(-15.13 93604-70800) scale(.04383)"/><use xlink:href="#a" transform="rotate(109.55 4384 19411) scale(.04383)"/><use xlink:href="#a" transform="rotate(56.04-7729 32733) scale(.04384)"/><use xlink:href="#a" transform="matrix(.03638-.02445.02445.03638 22814 21456)"/><use xlink:href="#a" transform="matrix(.019-.0395.0395.019 23257 21758)"/><use xlink:href="#a" transform="matrix(.03854-.02088.02088.03854 23641 20774)"/><use xlink:href="#a" transform="rotate(14.26-67008 108015) scale(.04383)"/><use xlink:href="#a" transform="matrix(.01354.0417-.0417.01354 26050 19518)"/><use xlink:href="#a" transform="rotate(49.79-7570 37613) scale(.04384)"/><use xlink:href="#a" transform="matrix(-.0426.01034-.01034-.0426 27323 20548)"/><use xlink:href="#a" transform="matrix(-.04246.01089-.01089-.04246 27738 20259)"/><use xlink:href="#a" transform="rotate(76.3 2144 26894) scale(.04384)"/><use xlink:href="#a" transform="rotate(130.55 9974 16134) scale(.04384)"/><use xlink:href="#a" transform="rotate(-16.79 75550-82295) scale(.04384)"/><use xlink:href="#a" transform="rotate(67.02 1180 30554) scale(.04384)"/><use xlink:href="#a" transform="matrix(.01469-.0413.0413.01469 27816 18803)"/><use xlink:href="#a" transform="rotate(163.39 13766 11504) scale(.04383)"/><use xlink:href="#a" transform="rotate(-163.62 16460 7215) scale(.04384)"/><use xlink:href="#a" transform="rotate(53.71-1070 38093) scale(.04384)"/><use xlink:href="#a" transform="rotate(65.18 2785 32272) scale(.04384)"/><use xlink:href="#a" transform="matrix(.0307-.03129.03129.0307 29810 17011)"/><use xlink:href="#a" transform="matrix(-.01717.04033-.04033-.01717 32412 16322)"/><use xlink:href="#a" transform="matrix(.00175.0438-.0438.00175 32554 15659)"/><use xlink:href="#a" transform="matrix(-.01696.04042-.04042-.01696 33260 15809)"/><use xlink:href="#a" transform="matrix(.0315-.0305.0305.0315 31509 15966)"/><use xlink:href="#a" transform="rotate(-11.63 90206-150100) scale(.04383)"/><use xlink:href="#a" transform="matrix(-.00483-.04357.04357-.00483 32795 16368)"/><use xlink:href="#a" transform="matrix(.04357-.0048.0048.04357 33047 14532)"/><use xlink:href="#a" transform="rotate(-95.08 24075-7457) scale(.04383)"/><use xlink:href="#a" transform="rotate(34.34-4787 62787) scale(.04384)"/><use xlink:href="#a" transform="rotate(-95.72 24218-7920) scale(.04384)"/><use xlink:href="#a" transform="rotate(42.44 883 52434) scale(.04384)"/><use xlink:href="#a" transform="matrix(-.03606.02492-.02492-.03606 37214 14240)"/><use xlink:href="#a" transform="rotate(-40.43 36326-41223) scale(.04384)"/><use xlink:href="#a" transform="matrix(-.04372.00314-.00314-.04372 37828 14310)"/><use xlink:href="#a" transform="rotate(88.97 12724 25710) scale(.04384)"/><use xlink:href="#a" transform="matrix(.03988-.0182.0182.03988 36792 12714)"/><use xlink:href="#a" transform="rotate(-68.9 28353-20486) scale(.04384)"/><use xlink:href="#a" transform="matrix(-.04174.01339-.01339-.04174 39743 13172)"/><use xlink:href="#a" transform="rotate(19.95-13080 115757) scale(.04383)"/><use xlink:href="#a" transform="matrix(-.01146.04231-.04231-.01146 40602 11648)"/><use xlink:href="#a" transform="rotate(149 18882 11841) scale(.04384)"/><use xlink:href="#a" transform="rotate(76.18 13658 31620) scale(.04384)"/><use xlink:href="#a" transform="rotate(146.58 19265 12206) scale(.04384)"/><use xlink:href="#a" transform="matrix(-.00173.0438-.0438-.00173 42238 10572)"/><use xlink:href="#a" transform="rotate(17.65-11942 138210) scale(.04384)"/><use xlink:href="#a" transform="rotate(-69.19 28888-24229) scale(.04384)"/><use xlink:href="#a" transform="rotate(-82.04 27470-18358) scale(.04383)"/><use xlink:href="#a" transform="matrix(.03129-.0307.0307.03129 42070 10491)"/><use xlink:href="#a" transform="rotate(125.13 19762 16672) scale(.04383)"/><use xlink:href="#a" transform="rotate(96.01 18272 24940) scale(.04384)"/><use xlink:href="#a" transform="matrix(-.02709-.03446.03446-.02709 44430 11012)"/><use xlink:href="#a" transform="rotate(-92.99 27128-15740) scale(.04384)"/><use xlink:href="#a" transform="matrix(-.02281-.03743.03743-.02281 45209 10590)"/><use xlink:href="#a" transform="rotate(-175.1 23547 4083) scale(.04384)"/><use xlink:href="#a" transform="rotate(-74.91 29010-24802) scale(.04383)"/><use xlink:href="#a" transform="rotate(-26.39 41108-93311) scale(.04384)"/><use xlink:href="#a" transform="matrix(-.03128.03071-.03071-.03128 48433 8728)"/><use xlink:href="#a" transform="rotate(116.23 21876 19273) scale(.04383)"/><use xlink:href="#a" transform="rotate(-49.66 32660-46670) scale(.04383)"/><use xlink:href="#a" transform="rotate(165.43 24270 7540) scale(.04384)"/><use xlink:href="#a" transform="matrix(-.00542.0435-.0435-.00542 50034 7280)"/><use xlink:href="#a" transform="matrix(-.02314-.03723.03723-.02314 49343 8897)"/><use xlink:href="#a" transform="rotate(174.66 25272 5362) scale(.04383)"/><use xlink:href="#a" transform="matrix(-.03245-.02947.02947-.03245 50585 8568)"/><use xlink:href="#a" transform="rotate(144.27 24856 12120) scale(.04384)"/><use xlink:href="#a" transform="rotate(-59.1 31676-40735) scale(.04383)"/><use xlink:href="#a" transform="rotate(-2.45 173002-1213533) scale(.04384)"/><use xlink:href="#a" transform="rotate(-101.55 29023-17278) scale(.04384)"/><use xlink:href="#a" transform="rotate(128.61 25437 16216) scale(.04383)"/><use xlink:href="#a" transform="matrix(.02567-.03553.03553.02567 52210 6598)"/><use xlink:href="#a" transform="matrix(-.02627.03509-.03509-.02627 54915 6094)"/><use xlink:href="#a" transform="rotate(-86.38 30353-25030) scale(.04384)"/><use xlink:href="#a" transform="rotate(-119.74 29256-12285) scale(.04383)"/><use xlink:href="#a" transform="rotate(-113.62 29628-14504) scale(.04383)"/><use xlink:href="#a" transform="rotate(83.23 25525 34103) scale(.04384)"/><use xlink:href="#a" transform="rotate(27.88 19076 114626) scale(.04384)"/><use xlink:href="#a" transform="rotate(-146.62 29389-5307) scale(.04383)"/><use xlink:href="#a" transform="matrix(.04084-.01592.01592.04084 56057 4716)"/><use xlink:href="#a" transform="rotate(105.42 27574 24524) scale(.04384)"/><use xlink:href="#a" transform="rotate(180 29415 2899) scale(.04384)"/><use xlink:href="#a" transform="matrix(.0413.0147-.0147.0413 58031 3716)"/><use xlink:href="#a" transform="rotate(-89.63 31807-26585) scale(.04383)"/><use xlink:href="#a" transform="rotate(-144.03 30730-6894) scale(.04384)"/><use xlink:href="#a" transform="matrix(.03613-.02482.02482.03613 58833 4117)"/><use xlink:href="#a" transform="rotate(-50.81 34180-60266) scale(.04384)"/><use xlink:href="#a" transform="matrix(.01718.04033-.04033.01718 61323 3010)"/><use xlink:href="#a" transform="matrix(-.04212.01215-.01215-.04212 62372 4476)"/><use xlink:href="#a" transform="matrix(.02565.03555-.03555.02565 62043 2686)"/><use xlink:href="#a" transform="rotate(-162.76 31788-2428) scale(.04384)"/><use xlink:href="#a" transform="rotate(119.84 31011 20140) scale(.04383)"/><use xlink:href="#a" transform="rotate(178.78 32035 2460) scale(.04384)"/><use xlink:href="#a" transform="rotate(20.44 25300 176696) scale(.04383)"/><use xlink:href="#a" transform="rotate(-110.78 33363-19900) scale(.04383)"/><use xlink:href="#a" transform="matrix(.03169.0303-.0303.03169 64726 1958)"/><use xlink:href="#a" transform="rotate(-72.55 34503-42013) scale(.04384)"/><use xlink:href="#a" transform="rotate(122.18 32685 19763) scale(.04383)"/><use xlink:href="#a" transform="matrix(-.03409.02756-.02756-.03409 67325 2885)"/><use xlink:href="#a" transform="matrix(-.03368-.02806.02806-.03368 66790 3788)"/><use xlink:href="#a" transform="matrix(.0131-.04183.04183.0131 66172 3085)"/><use xlink:href="#a" transform="matrix(-.02199-.03792.03792-.02199 67370 3556)"/><use xlink:href="#a" transform="matrix(-.03233-.0296.0296-.03233 68195 3497)"/><use xlink:href="#a" transform="rotate(-96.62 35370-28671) scale(.04383)"/><use xlink:href="#a" transform="rotate(135.91 34680 15326) scale(.04383)"/><use xlink:href="#a" transform="matrix(-.04332-.0067.0067-.04332 70279 3007)"/><use xlink:href="#a" transform="matrix(-.00608.04341-.04341-.00608 71002 1328)"/><use xlink:href="#a" transform="rotate(9.73 29030 411184) scale(.04383)"/><use xlink:href="#a" transform="matrix(.04276.00964-.00964.04276 70467 890)"/><use xlink:href="#a" transform="rotate(123.16 35920 20431) scale(.04384)"/><use xlink:href="#a" transform="matrix(.04381-.0015.0015.04381 71231 921)"/><use xlink:href="#a" transform="rotate(-15.28 39763-266307) scale(.04384)"/><use xlink:href="#a" transform="matrix(-.02847.03333-.03333-.02847 74167 1464)"/><use xlink:href="#a" transform="matrix(-.03852-.02092.02092-.03852 73848 2571)"/><use xlink:href="#a" transform="matrix(.00573-.04346.04346.00573 73123 2111)"/><use xlink:href="#a" transform="rotate(71.85 37270 51947) scale(.04383)"/><use xlink:href="#a" transform="rotate(123.22 37768 21108) scale(.04383)"/><use xlink:href="#a" transform="matrix(.03888.02025-.02025.03888 75160 170)"/><use xlink:href="#a" transform="matrix(.04356.0049-.0049.04356 75285 314)"/><use xlink:href="#a" transform="matrix(.01358-.04168.04168.01358 75476 1662)"/><use xlink:href="#a" transform="matrix(-.00934-.04283.04283-.00934 76371 2056)"/><use xlink:href="#a" transform="rotate(69.6 38952 56090) scale(.04384)"/><use xlink:href="#a" transform="matrix(-.03582.02527-.02527-.03582 79085 1215)"/><use xlink:href="#a" transform="matrix(.01574.04091-.04091.01574 78920-47)"/><use xlink:href="#a" transform="matrix(.03763.0225-.0225.03763 78682-144)"/><use xlink:href="#a" transform="matrix(-.03459-.02693.02693-.03459 79596 2047)"/><use xlink:href="#a" transform="matrix(.04344-.00588.00588.04344 79052 213)"/><use xlink:href="#a" transform="rotate(-147.34 40635-10829) scale(.04383)"/><use xlink:href="#a" transform="rotate(-107.02 40890-28811) scale(.04384)"/><use xlink:href="#a" transform="rotate(-172.25 41120-1905) scale(.04384)"/><use xlink:href="#a" transform="matrix(-.00224-.04378.04378-.00224 81177 1669)"/><use xlink:href="#a" transform="rotate(171.34 41614 3906) scale(.04383)"/><use xlink:href="#a" transform="matrix(-.03775-.02228.02228-.03775 83206 1912)"/><use xlink:href="#a" transform="matrix(-.04313-.00784.00784-.04313 84060 1745)"/><use xlink:href="#a" transform="matrix(-.01645.04063-.04063-.01645 84960 377)"/><use xlink:href="#a" transform="rotate(-36.04 42654-127720) scale(.04384)"/><use xlink:href="#a" transform="rotate(121.77 42846 24240) scale(.04384)"/><use xlink:href="#a" transform="matrix(.00068-.04383.04383.00068 84590 1639)"/><use xlink:href="#a" transform="matrix(-.02347.03702-.03702-.02347 87002 623)"/><use xlink:href="#a" transform="rotate(-164.04 43605-5157) scale(.04383)"/><use xlink:href="#a" transform="rotate(106.33 43801 33102) scale(.04384)"/><use xlink:href="#a" transform="matrix(-.02015-.03893.03893-.02015 87043 2032)"/><use xlink:href="#a" transform="matrix(-.00508.04354-.04354-.00508 88764 288)"/><use xlink:href="#a" transform="matrix(.03763-.02248.02248.03763 87279 755)"/><use xlink:href="#a" transform="rotate(-116.54 44921-26290) scale(.04384)"/><use xlink:href="#a" transform="rotate(-123.49 45170-22834) scale(.04384)"/><use xlink:href="#a" transform="matrix(-.03223-.02971.02971-.03223 89897 2313)"/><use xlink:href="#a" transform="rotate(-4.06 51022-1251385) scale(.04383)"/><use xlink:href="#a" transform="matrix(-.04026-.01734.01734-.04026 91260 2361)"/><use xlink:href="#a" transform="matrix(-.00176-.0438.0438-.00176 90565 2212)"/><use xlink:href="#a" transform="rotate(-160.56 46365-6667) scale(.04384)"/><use xlink:href="#a" transform="rotate(-79.88 46993-53473) scale(.04383)"/><use xlink:href="#a" transform="matrix(-.04077.01611-.01611-.04077 93838 2075)"/><use xlink:href="#a" transform="rotate(-92.05 47488-43357) scale(.04383)"/><use xlink:href="#a" transform="rotate(-121.76 47565-24588) scale(.04383)"/><use xlink:href="#a" transform="matrix(.0038.04367-.04367.0038 94983 1054)"/><use xlink:href="#a" transform="rotate(25.89 45103 205790) scale(.04384)"/><use xlink:href="#a" transform="rotate(-76.08 48876-58873) scale(.04384)"/><use xlink:href="#a" transform="rotate(-111.51 48748-30767) scale(.04383)"/><use xlink:href="#a" transform="rotate(141.92 48215 18058) scale(.04383)"/><use xlink:href="#a" transform="rotate(-68.05 50020-69329) scale(.04384)"/><use xlink:href="#a" transform="rotate(152.99 48742 13307) scale(.04383)"/><use xlink:href="#a" transform="matrix(-.00756.04318-.04318-.00756 98526 2181)"/><use xlink:href="#a" transform="matrix(-.04383.00072-.00072-.04383 98890 3778)"/><use xlink:href="#a" transform="matrix(.01255.042-.042.01255 99083 2162)"/><use xlink:href="#a" transform="matrix(-.03121.03078-.03078-.03121 100138 3338)"/><use xlink:href="#a" transform="matrix(.02803-.0337.0337.02803 98340 3614)"/><use xlink:href="#a" transform="rotate(26.51 44203 212642) scale(.04384)"/><use xlink:href="#a" transform="rotate(19.13 41350 297714) scale(.04383)"/><use xlink:href="#a" transform="matrix(-.03467-.02682.02682-.03467 100974 5225)"/><use xlink:href="#a" transform="matrix(-.02208-.03787.03787-.02208 100993 5413)"/><use xlink:href="#a" transform="matrix(.02677-.0347.0347.02677 100604 4688)"/><use xlink:href="#a" transform="matrix(.01108-.04241.04241.01108 101185 5347)"/><use xlink:href="#a" transform="matrix(.0289.03296-.03296.0289 102667 3887)"/><use xlink:href="#a" transform="rotate(55.66 47677 99852) scale(.04384)"/><use xlink:href="#a" transform="matrix(.01193.04218-.04218.01193 103997 4542)"/><use xlink:href="#a" transform="rotate(60.82 48065 91090) scale(.04383)"/><use xlink:href="#a" transform="rotate(10.33 23190 575027) scale(.04383)"/><use xlink:href="#a" transform="rotate(-76.22 56285-62625) scale(.04383)"/><use xlink:href="#a" transform="matrix(-.00557-.04348.04348-.00557 104370 7567)"/><use xlink:href="#a" transform="rotate(168.9 52823 8984) scale(.04383)"/><use xlink:href="#a" transform="rotate(13.66 26171 442630) scale(.04384)"/><use xlink:href="#a" transform="matrix(-.03001.03195-.03195-.03001 107325 7603)"/><use xlink:href="#a" transform="matrix(.00393-.04366.04366.00393 105685 8707)"/><use xlink:href="#a" transform="matrix(.04383-.00078.00078.04383 106088 7550)"/><use xlink:href="#a" transform="rotate(-161.44 54665-3944) scale(.04384)"/><use xlink:href="#a" transform="matrix(-.017-.0404.0404-.017 107137 10120)"/><use xlink:href="#a" transform="rotate(88.07 49857 60500) scale(.04383)"/><use xlink:href="#a" transform="matrix(-.02164-.03812.03812-.02164 107878 10940)"/><use xlink:href="#a" transform="matrix(-.04273-.00977.00977-.04273 109069 11212)"/><use xlink:href="#a" transform="matrix(.04036-.0171.0171.04036 107694 10242)"/><use xlink:href="#a" transform="matrix(.005.04355-.04355.005 109707 10202)"/><use xlink:href="#a" transform="matrix(.04017-.01755.01755.04017 108197 11105)"/><use xlink:href="#a" transform="matrix(-.01161-.04227.04227-.01161 108922 12940)"/><use xlink:href="#a" transform="rotate(-155.65 56502-5143) scale(.04384)"/><defs><path d="M20491 36406c28 0 50 21 50 47s-10 47-20 47c-12 0-34-20-50-47-16-26-7-47 20-47M18622 35600c0-327 0-328 246-296 832 105 1043 532 304 618-561 65-550 72-550-322m-3821-452c448-101 565-60 621 220 57 286-111 349-575 214-409-120-433-347-46-434m7066 43c190-71 407 86 344 249-30 95-240 180-360 145-170-56-160-327 20-394m-1530-824c375-188 368-186 460-94 102 102 43 245-125 304-81 28-234 145-340 260-268 293-580 267-580-48 0-118 110-258 204-258 32 0 205-74 383-164m-4157-700c157-162 720 40 858 308 140 280 122 304-321 416a863 863 0 00-373 228c-314 317-807 307-807-16-2-190 99-306 270-306 230 0 338-118 338-370 0-123 16-240 35-260m-3060 560c40-107 248-86 330 33 100 141 5 244-180 198-140-35-192-120-150-230m10268-255c120-70 320-61 385 17 97 118 38 235-126 251-273 38-450-146-260-257m-11103-256c165-165 513-65 563 163 40 188-57 275-310 275-255 0-415-276-253-438m9437-650c83-117 117-130 244-104 360 77 423 246 135 362a999 999 0 00-330 263c-264 330-600 243-560-150 12-134 33-153 214-191 140-30 230-84 298-178m-11151 520c68 0 98 30 98 98 0 120-155 106-178-16-10-56 14-80 80-80m13488-675c185-130 929 9 996 186 123 320-168 560-667 546-394-9-625-525-330-733M5675 6240c39-97 236-83 333 24 46 52 177 106 297 124 215 33 316 107 505 372 98 138 98 138 374 74 500-116 552-106 583 122 34 248 150 380 367 414 322 52 370 92 405 336 43 293 73 324 350 360 200 28 243 52 310 183 129 253 307 290 625 127 310-160 345-138 308 186-54 480 110 580 628 376 362-143 405-130 433 123 57 508 1122 1127 1692 984 120-30 120-27 120 230 0 366 130 858 244 918 85 45 688-14 790-77 65-45 104 100 92 377-20 463-44 528-212 584-83 27-260 132-394 233-134 100-350 218-478 260-288 97-375 213-375 500 0 429 114 536 553 515 268-13 383 44 383 190 0 523 683 545 867 27 119-327 139-347 387-403 435-97 435 453 0 660-294 140-361 243-361 553 0 507 860 387 915-128 30-277 47-315 172-383 263-145 358-244 470-490 110-230 140-260 520-450 456-230 510-280 589-520a783 783 0 01 240-320c142-110 192-190 215-331 22-133 66-210 153-264 67-42 180-130 253-196 72-67 282-195 468-285 327-160 340-171 422-420 97-295 133-328 360-330 360-3 372-15 486-524 19-84 93-163 216-233 140-80 200-148 234-280 66-243 145-292 425-265 445 43 605 572 242 800a1207 1207 0 00-275 244c-70 96-162 140-413 192-380 80-357 60-445 338-60 185-105 238-294 340-257 138-527 384-623 567-236 450 222 777 663 476 195-134 448-250 539-250 87 0 10 546-102 730-155 250 7 350 253 156 67-53 233-134 369-180 490-167 374-690-163-740-462-43-460-624 0-625 355-2 384-27 384-333 0-222 20-292 98-358 53-45 185-170 292-278 390-392 1107-486 1108-146 0 288 84 417 314 494 190 63 199 75 250 337 75 378 84 386 520 470 436 85 379 16 495 600 74 370 628 388 942 30a2798 2798 0 01 374-347c374-270 290-685-174-870-332-134-341-149-325-493 20-438 720-478 817-47 128 580 952 756 952 203 0-292-196-430-672-473-316-28-563-475-370-667 237-234 1090-120 1090 145 0 502 594 694 779 251 124-297-67-504-527-572-117-17-211-46-210-66v-340c0-302 0-302 414-302 504 0 525-18 525-438 0-324 0-324 235-293 352 47 439 104 575 383 246 500 874 280 874-306 0-106-31-157-130-208-341-177-336-320 16-393 144-30 199-73 273-213 100-192 267-266 380-170 157 130 66 262-271 397-196 80-237 235-97 375 97 97 384 62 604-74 408-252 633 33 307 390-100 110-214 264-255 344-60 115-123 160-300 203-284 72-378 158-440 406-61 240-180 353-476 464-482 180-655 627-360 923 277 277 930 52 1170-405a714 714 0 01 290-313 585 585 0 00 347-475c37-233 114-288 354-256 236 32 323 130 270 305-72 241-98 274-308 376a719 719 0 00-291 246c-160 290-241 362-466 410-143 30-247 85-292 154a5520 5520 0 01-220 287c-308 366-272 644 83 644 292 0 694-270 788-530 123-337 163-382 387-438 294-73 290-70 403-379 165-455 753-936 988-810 320 171-130 928-655 1103-264 88-320 163-357 492-30 245-33 248-352 302-270 46-677 560-817 1034-38 130-63 143-320 175-228 28-311 64-445 194-92 87-267 202-390 256-240 104-286 178-340 550-43 298-80 337-340 376-220 33-318 110-557 430a578 578 0 01-256 181c-251 73-335 421-175 727 145 277 1166 312 1166 40 0-22 62-77 138-122 236-140 274-357 180-1025-12-80 7-90 126-70 698 113 820 41 1217-724 223-428 243-450 412-479a915 915 0 00 328-139c82-60 253-168 380-240 435-245 563-507 398-816-74-138-38-147 274-66 155 40 360 73 455 73 174 0 174 0 140 176-70 372-140 467-476 638-365 187-765 570-947 907-106 196-173 252-524 436-598 313-744 455-744 721 0 360 499 500 740 206a4440 4440 0 01 288-306 1420 1420 0 00 258-350c74-154 150-226 334-317 360-177 550-342 840-728 342-453 555-560 745-370 202 203 72 406-395 617-346 157-530 343-720 732-115 237-162 285-373 378a1031 1031 0 00-374 283 990 990 0 01-336 262c-346 148-327 533 43 904 347 348 560 301 992-213 490-584 938-1006 1135-1070 247-79 280-118 317-363 56-384 88-430 296-430 278 0 420 73 496 253a810 810 0 00 210 272c177 140 333 955 198 1040-140 86-806-175-806-318 0-293-343-330-511-58-160 260-134 351 100 368 197 14 200 17 189 180-6 90-20 310-30 491a19200 19200 0 01-25 363c-2 20-124 35-271 35-623 0-1098 967-658 1338 360 306 1022-127 1137-743 44-233 130-313 344-313a814 814 0 00 778-539c120-363 145-398 286-398 452 0 417 517-50 723-613 272-803 1053-276 1132 408 61 280 600-192 812-615 276-842 1028-455 1506 246 305 920-66 1137-627 158-407 603-413 603-7 0 303-67 391-317 425-900 120-1006 1190-118 1192 150 0 150 0 123 367-46 591 93 870 528 1063 252 112 252 112 252 350 0 470-130 618-553 630-188 5-178 50-121-535 43-443-302-840-731-843-110 0-170-90-204-305-73-438-165-540-492-540-377 0-543 174-756 793-107 313-225 446-532 600-333 168-432 275-514 557-84 290-98 303-413 341-330 40-392 154-333 597 68 520 662 498 857-30 87-232 220-320 490-322 313 0 158 540-197 688-256 106-326 190-410 487-93 334-203 440-530 508-322 65-365 104-403 354-42 280-606 644-746 481-130-150 174-816 395-865 670-149 714-820 60-898-517-60-542-86-514-510 27-432 56-463 460-497 410-34 434-54 555-454 96-323 96-323 349-397a923 923 0 00 637-847c8-300 44-329 400-315 580 24 1072-640 867-1170-256-665-1357-99-1362 700-2 170-86 240-411 340a950 950 0 00-650 647c-94 337-113 360-370 430-281 80-465 294-534 630-54 260-54 260-312 333a1099 1099 0 00-673 538c-72 141-136 192-318 252-306 102-472 290-595 670-111 342-56 292-732 662-537 294-788 620-788 1021 0 291 3 293 397 330 360 33 437 80 492 297 169 668 280 830 610 877 256 37 256 37 270 292 22 373-10 444-235 546-110 50-277 160-372 244-93 85-367 255-607 377-480 245-560 344-643 781-50 273-112 324-540 454-420 128-540 246-540 528 0 241-4 242-375 162-260-55-455-28-467 64l-2 20c-10 96-194 284-315 320-237 67-114-329 150-486 115-67 166-130 166-207 0-173 97-258 370-324 648-158 643-704-8-948-520-194-485-164-601-542-171-555-1024-340-1024 260 0 394 2 396 442 396 420 0 458 19 607 314 152 305 110 420-168 459a675 675 0 00-420 194c-332 300-463 200-480-370-16-530-100-610-447-430-74 40-264 100-421 138-400 94-488 165-617 505-98 258-140 310-320 404-115 60-262 160-326 220s-241 155-390 209c-297 112-384 210-432 493-65 376-458 677-893 682-393 4-550 84-595 302-72 347-126 410-400 473-153 34-273 90-301 142-176 312-443 380-685 180-202-170-200-385 9-568 84-74 200-200 256-280 90-125 144-152 374-180 548-68 596-116 662-662 53-436 34-472-241-443-300 30-484-160-340-352 39-50 70-158 70-240 4-250-175-253-512-10-426 310-750 204-750-240 2-374 18-366-415-220-645 220-724 818-123 939 260 52 278 64 337 237 88 256 130 295 375 330 527 80 626 560 117 570-162 4-345 33-406 66-185 100-310 15-150-102 127-94 166-260 100-434-44-113-315-90-578 46-481 252-650 137-542-373 36-176 34-182-74-155-736 184-753 186-794 120-65-104 2-418 156-728 144-290 213-340 450-343 355-2 633-183 702-458 180-720 98-806-536-568-313 117-390 225-488 690-88 413-343 556-890 497-430-49-514 10-514 360 0 225-24 330-110 456a7080 7080 0 00-186 290c-55 90-126 128-267 147-257 35-331 105-331 318 0 375-110 410-544 182-550-288-642-540-268-723 277-134 330-190 362-387 40-257 398-596 709-670 306-75 332-100 400-380 30-130 113-303 182-384s153-219 186-300c50-128 100-160 325-223 445-119 580-209 708-474a1876 1876 0 01 817-842c433-233 470-268 540-526 34-120 130-323 217-448s155-244 155-262c0-522 1243-107 1360 454 127 610 860 468 1076-210a2010 2010 0 01 248-433 59100 59100 0 00 206-278c7-13 139-38 294-56 470-55 743-432 622-858-100-350-730-180-883 237-197 540-191 530-357 532-180 0-223 26-330 194-147 232-794 347-913 163-20-30-56-264-82-522-82-824-947-643-1258 264-190 553-1142 978-1294 578-81-210-56-510 47-604 97-88 127-210 50-210-24 0-88 62-142 138-70 97-181 166-360 220-706 226-703 810 7 874 299 25 168 487-210 732-362 235-535 168-540-206-2-320-88-360-407-190-556 292-674 642-286 840 340 178 330 783-11 783-62 0-185 63-273 140-200 176-366 182-495 18-130-166-122-205 40-205 245 0 345-173 212-365-146-207-396-80-396 204 0 160 0 160-228 160-390-2-512-395-203-651 172-141 220-501 80-616-106-90-381-18-480 123-175 256-240 298-451 298-237 0-262-37-262-378 0-206 14-237 136-300a632 632 0 00 222-243c76-152 130-188 450-300 445-154 416-124 464-477 30-224 70-325 174-434 74-78 157-188 186-244s166-154 306-218c654-300 604-910-71-863-370 25-370 25-370-326 0-774-700-776-842-2-53 282-415 653-766 784-222 84-307 223-307 505-1 210-154 432-295 432-87 0-240 177-313 363-46 118-100 163-245 202-332 90-384 58-423-256-40-322-31-310-284-403-240-90-315-460-127-630 140-130 128-308-23-308-85 0-145 44-213 160a585 585 0 01-274 230c-518 210-591 860-93 836 306-15 370 50 370 370 0 137 2 138 282 138 190 0 282 20 285 60 18 222-25 400-122 503a1380 1380 0 00-202 334c-146 340-441 357-780 44a2694 2694 0 00-314-252c-84-50-145-148-180-279-73-270-120-315-328-315-460 1-441 534 22 651 223 57 258 91 332 311 32 100 108 170 250 240a665 665 0 01 328 327 793 793 0 00 323 340c210 115 316 255 275 360-35 92-183 38-394-142a1010 1010 0 00-318-190c-240-57-380-152-480-322-83-140-123-166-267-166-245 0-340-70-373-270-47-287-108-386-283-460-170-71-301-283-301-487 0-81 185-241 340-293 22-7 56-134 76-282 40-306 50-320 254-390q148-50 257-246c60-107 200-260 314-337a668 668 0 00 302-570c0-45 84-165 187-267 164-162 187-212 187-400 0-202 10-217 176-287 344-144 574-458 572-782 0-255-43-283-402-265-282 15-317 17-330-212l-11-225c-14-228-48-224-323-198-383 36-390 43-435 376-55 410-13 455 379 415 310-30 414 306 253 815-32 100-538 46-602-65-142-246-287-364-386-310-182 97-190 490-10 547 240 77 328 368 103 342-105-13-135-47-170-196-66-280-560-204-784 122-57 84-164 210-237 280a362 362 0 00-133 306c0 277-76 350-352 330-337-20-361-467-32-625 248-120 587-604 685-980 38-146 129-330 206-417 75-86 160-252 190-370 58-232 113-268 667-427 263-75 263-75 290-415 32-442 49-477 272-578 399-180 750-702 809-1200 38-316 44-310-424-348-432-35-495-80-530-383-26-223-26-223-351-247-368-26-386-50-395-476-4-218-4-218 414-430 230-118 460-240 512-273 138-87 173-20 107 207-273 936-48 1073 632 383 390-395 645-1148 360-1068-590 165-867-48-730-563 78-290-153-585-288-367-100 162-430 98-728-140a1140 1140 0 00-411-185c-302-65-363-150-403-557-50-516-207-618-686-450-251 90-278 57-280-313 0-306-93-413-360-413-402 0-435-758-43-1020 443-298 585-264 660 156 74 405 79 410 434 371 346-37 384-10 385 264 0 276 123 382 466 407 290 21 294 22 377 214 105 246 209 337 455 403 178 48 214 86 398 411 273 481 369 578 576 578 388 0 620-197 664-562 24-195 62-279 186-403 93-93 157-204 157-272 0-206 329-362 637-302 229 44 190 650-51 793a596 596 0 00-215 234c-42 102-131 177-320 267-572 273-543 972 38 937 259-15 259-15 243 450-17 434-13 460 70 430 460-180 812-97 813 195 0 372 130 485 404 355 487-232 553-844 108-1007-393-143-553-510-355-812 127-194 86-242-75-90a905 905 0 01-387 200c-128 30-273 67-321 81-187 56-84-576 120-752a680 680 0 00 222-343c45-172 74-203 225-246 392-109 484-59 550 294 50 268 122 313 492 314 322 1 323 1 453 271 234 483 684 376 783-185 49-290 55-298 269-400 439-210 469-666 45-668-250 0-333 70-333 280 0 360-51 422-371 422-523 0-560-534-47-660 535-133 470-772-90-882-275-55-288-65-390-277-248-518-902-463-883 77 12 322-20 362-334 408-494 74-523-483-37-703 554-250 229-986-435-983-440 1-452-10-452-414 0-197-290-466-590-547a1040 1040 0 01-374-198c-114-105-207-143-407-163-280-30-316-79-316-440-1-322-100-406-527-450-268-29-280-36-372-222a1051 1051 0 00-265-320 7900 7900 0 01-343-275A942 942 0 00 6800 9770c-240-48-272-69-320-203-81-247-212-342-513-373-262-28-272-34-353-220-104-242-206-332-460-407a432 432 0 01-300-240 855 855 0 00-254-280c-490-290-214-618 304-360a2190 2190 0 00 360 146c80 20 234 133 355 264 213 230 213 230 525 230s313 0 366 213c64 254 184 350 438 350 220 2 250 20 397 230 60 86 200 197 308 245s275 182 370 298c135 165 204 212 313 212 174 0 322 75 322 163 0 483 164 665 532 588 314-65 365-43 487 210 83 170 135 216 295 264 152 46 248 127 448 378 334 420 420 472 728 452 248-16 248-16 280 287 85 764 1097 873 1250 134 40-193 90-282 219-393 350-300 250-683-195-750-270-40-358 7-400 216-88 430-707 400-743-34-27-343-106-465-493-766-205-160-288-262-340-414-53-164-103-220-272-300-181-90-220-136-306-374-110-304-122-310-600-330-304-10-305-10-403-200-98-186-98-186-392-177-295 8-295 8-264-248 40-340-16-440-242-440-290-2-384-50-480-240-105-201-177-250-450-293-230-38-307-118-384-388-64-225-160-294-405-294-220 0-333-64-423-240a528 528 0 00-230-205c-180-76-230-137-192-234m8425 26986c57-93 356 0 356 110q0 198-188 140c-100-33-205-190-168-250m-3200-572c57-35 240-25 500 27 140 28 390 358 422 558 32 200-107 226-540 97-322-96-580-555-381-678m4680 537c0-37 96-24 190 27 50 26 90 70 90 94 0 26-62 14-140-26-76-40-140-82-140-95m5298-910c356-142 740 60 740 393 0 92-38 135-160 186a755 755 0 00-266 212c-228 310-885 147-885-220 0-186 262-448 570-572m-6256-604c348-196 440 50 184 492-183 315-28 414 318 202 275-167 428-115 310 107-30 55-56 207-60 337-3 236-3 236-260 250-351 20-440-12-520-187-148-336-632-274-593 76 26 230-10 260-353 260-250 0-350-67-388-265-38-202 52-296 283-297 287-1 345-41 394-273 26-120 83-240 130-265 44-25 166-122 270-215s233-192 285-220m-5720 666c30-78 230-88 360-18 124 67 123 310-2 350-173 54-420-173-358-332m14570-537c400-78 486 18 346 387-75 197-669 460-867 383-237-90 177-703 520-770M9710 31650c168-169 240-147 372 110a540 540 0 00 284 242c220 94 305 205 305 396 0 160-163 161-380 3a5212 5212 0 00-553-360c-176-91-186-230-28-390m16803-130c274-54 398 30 398 270 0 207-80 296-314 357a1228 1228 0 00-390 216c-437 364-702 52-280-331a1110 1110 0 00 193-268c52-103 132-184 194-198zm-18394 160c105-170 391-10 486 276 64 193 40 240-126 240-244 1-474-326-360-510m20263 180c142-158 317-86 292 120-20 167-146 255-260 183-116-72-129-197-33-303m-6064-1000c103-40 538 0 652 63 227 122 56 633-247 736-99 32-252 123-340 201-400 350-806-40-416-400 116-106 164-190 164-287 0-146 74-267 188-313m4636-314c400-402 1143 140 1005 735-40 171-950 184-1057 15-87-138-53-646 50-750m-19750 490c0-98 173-78 283 32 118 118 100 260-28 240-106-16-256-175-256-271m1700-254c185 0 266 70 266 235 0 147-78 234-210 234-146 0-212-90-212-290 2-170 10-180 157-180m-3330 90c138-90 320 20 320 193 0 120-63 150-202 96-140-52-212-230-118-290M17940 27850c-38-100-254-80-370 33l-26 25c-74 67-200 115-400 152-510 94-624 226-624 720 1 384 202 458 781 290 334-98 373-77 401 218 27 283 111 370 352 370 240 0 340 74 340 249 0 320 82 492 265 552 267 89 463 222 582 395 334 489 1002 247 966-350-14-222-7-215-497-511a828 828 0 01-295-327c-110-215-110-215-460-238-352-23-352-23-367-280-20-346-53-376-433-376-358 0-366-6-400-315-22-190-7-248 92-381 65-87 106-187 92-223m-6345 1627c282-282 524-100 250 187-156 162-186 342-82 485 62 84 140 92 568 60 190-15 210 109 50 319-162 212-467 230-690 42-229-192-547-152-656 82-64 136-116 180-240 204-425 74-566-378-158-508 197-63 262-144 346-436 31-107 87-155 250-214a1160 1160 0 00 362-228m18527 630c48-50 114-64 197-44 378 90 342 580-42 580-280 0-373-320-155-538m-24084-93c0-266 492-72 664 260 121 220 81 324-116 324-260 0-540-302-540-584m1960 67c61 0 164 138 131 172-35 34-170-70-170-130 0-23 16-42 40-42m1533-415c273-160 578-30 578 244 0 244-62 312-283 312-279 0-508-432-295-556M21890 25750c-28-84-102-74-290 36-103 60-302 150-442 200-344 120-543 323-584 597-26 173-66 240-214 358-100 86-195 192-210 243-20 60-113 114-273 161-788 230-1090 1120-327 967 355-70 384-40 330 343-56 370-29 414 312 513 530 155 713 580 273 640-246 32-274 60-219 220 63 177 283 198 450 43a663 663 0 01 368-145c490-66 807-298 915-670 82-283 340-489 801-643 330-109 460-223 557-485a2431 2431 0 01 192-390c177-274-2-460-298-312-545 276-812 27-570-534 140-326 94-349-415-210-637 170-708 223-826 640-63 220-103 275-254 360a1300 1300 0 00-266 197c-117 130-568 140-604 14-90-320-80-454 50-599a9100 9100 0 00 208-239c50-65 163-109 328-130 405-56 596-200 673-508 17-67 102-230 190-369s152-269 144-293m7080 3218c124-203 294-200 593 4 473 327 465 767-17 844-100 16-305 83-452 148-664 294-1019-157-447-569 128-90 233-190 233-220s42-123 93-207m-23260-840c155-186 698-42 698 186 0 180 123 298 346 332 232 34 273 70 350 307a700 700 0 00 214 282c283 208 416 562 212 562-265 0-886-425-1028-702-110-219-170-263-392-297-300-46-558-479-400-670m4960 590c320-350 527-129 255 272a669 669 0 00-117 280c0 244-495 416-653 225-132-160-40-467 158-532a1033 1033 0 00 356-247m-5280 455c195-79 316 11 316 236 0 140-13 155-138 155-195 0-342-325-178-390m21322-2590c-52-279-670-73-855 283-98 190-137 211-538 310-650 160-728 962-110 1118l363 90c132 32 147 60 252 477 123 490 142 515 380 514 382 0 640-212 870-717 132-289 174-330 370-379 516-123 463-537-88-705-612-187-670-164-500 210 150 334 70 413-370 376-517-44-526-684-10-767 190-29 307-433 236-807m5015 2300c0-42 23-70 50-60 28 10 50 36 50 60 0 25-22 53-50 62-27 10-50-18-50-60m-10095-870c80-208 544-292 613-110 182 474-475 1126-906 900-270-145-213-510 90-577 97-20 150-76 203-213m-11905-110c90-140 140-174 234-163 177 20 190 240 25 413a605 605 0 00-150 323c-20 147-50 200-127 220-386 96-630-464-250-573a505 505 0 00 268-220m20681-560c130-350 660-132 800 340 190 626 10 850-410 507a2804 2804 0 00-347-238c-162-98-180-295-52-617m-25950-784c427-1 594 673 217 868a850 850 0 00-257 260c-152 240-245 274-356 140-115-146-110-226 34-433a889 889 0 00 144-446c13-150 32-300 42-334s90-58 178-58m9036 170c-36-95-78-90-347 20-116 47-285 100-375 112-274 43-303 82-296 400 10 380 62 436 380 410 356-30 760-626 638-943m-2438-525c375-162 456-108 456 303 0 458-18 507-217 590a456 456 0 00-213 187c-102 226-564 218-650-10-70-185-20-310 176-437 136-87 190-163 240-340 50-180 92-240 211-290m15405-3180c-134-132-390-90-588 93a2140 2140 0 01-409 250c-235 117-316 188-459 412-313 480-555 740-759 806-250 81-375 222-445 500-57 224-57 224-359 312-420 124-554 263-625 653-68 376-2 400 885 304 83-10 94 20 96 247 5 410 15 462 120 566 291 290 886-136 886-630 0-185 54-240 278-283 498-95 523-618 32-673-243-28-357 88-357 363 0 252-783 470-800 222-35-523 41-690 315-690 290 0 381-70 463-350 94-326 293-500 742-650 356-118 353-114 510-520 84-220 150-310 317-427 235-166 301-372 163-510m3407 2925c293-2 278-53 224 732-2 30-100 87-217 127s-276 126-353 190c-486 410-708 206-329-300a1060 1060 0 00 215-450c17-117 64-225 110-252 43-25 200-46 350-47m3590 818c67-80 62-80 160-40 136 50 76 345-70 345-110 0-170-207-90-305m-1768-203c87-89 226-50 330 90 120 163 74 322-94 322-233 0-383-266-235-415M5935 26370c94 0 167 117 120 193-34 55-100 14-162-102-40-75-33-90 42-90m8570-754c-129-239-778-38-905 280-230 575 87 817 700 536 230-106 343-556 204-816m-11270-235c237-150 455-40 568 285 178 507 162 546-166 420-372-139-616-569-400-704m1913 111c277-140 365-82 406 266 35 293-26 377-273 377-295 3-400-505-135-638m23493-486c353-109 523-3 604 377 66 307 50 330-234 330-210 0-250 17-420 190-349 356-670 232-584-224 34-183 437-610 632-672m3850 498c204-143 330-83 432 207 114 323 16 462-257 365-288-103-388-423-176-570m-26170 174c0-168 320-237 458-100 70 70 74 377 5 446-147 147-463-90-463-346m5862-760c274-80 513-64 484 30a5210 5210 0 00-68 282 944 944 0 01-213 387c-92 103-168 207-168 232 0 64-328 154-493 135-200-23-194-396 13-620a2300 2300 0 00 214-274 465 465 0 01 230-170m6520-2048c-174-174-296-130-348 120-27 137-60 165-282 240-372 127-473 248-583 694-42 170-84 228-203 284a1230 1230 0 00-304 240 553 553 0 01-354 200c-460 78-1106 1100-702 1117 735 30 1160-262 1160-796 0-112 44-193 183-332 101-100 203-215 225-255 32-56 137-76 460-83 458-12 590 366 278 806-62 88-102 178-90 200 47 74 158 37 234-80 72-110 100-116 490-116 583 0 700-96 700-580 0-255 22-368 93-475 176-266 60-404-200-240-146 94-828 237-880 186-132-134-105-710 38-783 196-101 220-200 84-336M1614 25170c120-172 458-130 480 58 30 254-162 450-440 450-140 0-166-328-40-510m21300-493c-80-110-393-141-575-60-352 162-427 887-93 914 523 34 937-494 670-862m-12038-87c40-100-48-102-352-7-292 88-430 256-412 498 32 433 494 348 640-122 50-160 106-328 124-373m16300-505c-44-1-90 18-104 39s-166 56-340 74c-672 70-905 272-905 790 0 735 1015 298 1146-492a563 563 0 01 155-294c98-91 108-120 47-120m6007 505c72-136 385-110 505 42 183 234 81 580-170 580-340 0-505-303-335-621m1788 270c34-86 80-90 190-10 117 85 82 285-53 304-122 16-201-156-147-296M1356 15490c77-140 177-93 295 139 96 187 247 230 554 160 315-73 300-80 360 158 140 554 436 990 703 1032 278 45 370 103 467 294a456 456 0 00 248 240c345 126 375 157 480 486 129 398 180 450 488 486 145 17 317 77 416 144a3140 3140 0 00 410 222c240 107 240 107 270 447 42 504 127 580 604 537 360-30 360-30 388 102 94 452 105 470 363 562 242 87 246 90 260 300 40 544-203 701-720 466-491-225-793 245-380 591 396 330 370 777-50 912a948 948 0 00-300 173c-130 122-200 113-310-43-77-107-370-114-514-12-121 85-134 251-40 519 55 158 53 234-20 588-106 531-95 518-435 500-377-18-410 7-394 304 20 377-530 308-592-74-66-405-50-483 115-552 172-70 213-140 257-430 25-160 65-241 150-300 535-365 715-646 715-1116 0-455 175-750 585-978 877-492 400-1570-580-1307-103 27-107 43-71 245 133 736-97 1363-500 1363-146 0-210-64-256-258a557 557 0 00-312-380c-178-92-221-197-240-577-17-400 0-381-301-320-350 67-460 9-603-316-98-223-145-273-325-350-196-84-217-110-290-363-101-350-165-442-385-566-217-123-705-663-843-935a713 713 0 00-241-270c-285-148-421-554-213-633 164-63 294 10 376 206 80 193 140 240 380 305 216 57 548 415 744 803 133 262 177 300 443 375 274 78 302 103 366 316 64 215 206 353 437 427 182 59 303 247 408 640 50 188 50 188 390 197 189 6 437 15 553 22 313 18 333-380 47-947-196-392-221-414-598-515-155-42-236-103-358-272a1054 1054 0 00-406-338c-213-102-257-147-313-317a766 766 0 00-226-330c-90-70-300-250-470-400-170-147-327-270-350-270-24 0-101-120-172-270-97-199-171-288-292-345-177-84-266-315-182-473m16488 6414c-127-50-162-34-360 160-105 104-246 201-312 216-575 128-617 158-800 556a1623 1623 0 01-273 420c-120 110-146 170-146 340 0 220-92 292-360 292-327 0-671 340-671 662 0 742 1017 390 1109-383 26-218 35-228 208-276 100-27 250-110 336-184 84-74 247-170 362-215 352-138 553-390 624-783a690 690 0 01 194-338c176-175 220-410 87-462m11737 2202c244-169 452-90 591 228 195 443 90 625-290 500-380-126-556-548-300-726M2320 24390c54-54 190-34 247 36 130 158-24 455-202 387-77-30-112-356-45-423m9162-2062c-47-123-225-93-336 56-67 90-170 152-324 190-284 72-328 110-463 400-61 130-155 290-209 356-61 76-107 220-125 387-26 253-37 272-218 372-532 295-531 871 2 668 235-90 296-196 296-520 0-188 15-220 148-290 80-44 223-146 316-227s256-190 365-245c244-123 294-214 294-528 0-210 20-268 142-393 93-96 130-174 112-225m11403 704c-115-300-644-103-774 288-90 285-110 305-450 377-610 132-961 1084-390 1044 479-33 740-220 850-599 80-280 120-322 350-363a567 567 0 00 425-747m548 867c-297-19-423 100-402 380 30 410 608 262 618-158 4-207 4-208-216-222m10597-470c230-232 714-28 705 298-12 481-63 585-286 585-346 0-654-649-420-883m-18987-285c-68-215-620-98-896 190-175 183-240 931-80 930 537 0 1120-670 977-1120m13362-165c-91-234-685-150-823 117-210 410-133 795 160 793 530-3 844-432 663-910M11700 23566c-62-116-364-138-405-30-67 176 2 330 154 346 184 20 330-160 241-316m3088-3495c-122-140-605-60-704 130-183 342 11 636 386 586 260-35 264-20 155 390a844 844 0 01-247 425 990 990 0 00-240 368c-44 152-85 200-184 223-404 90-480 125-570 252-160 226-280 530-280 720 0 147-33 208-166 326-214 190-225 362-23 362 116 0 156-30 220-165 70-143 118-176 388-257 437-131 603-341 680-858 30-208 48-230 247-328 218-106 256-148 334-370 31-88 141-175 377-300 354-186 470-334 533-680 17-95 90-224 170-300 153-148 182-292 67-336-45-18-132 28-228 122-122 118-212 157-430 187-353 50-375 37-403-210a693 693 0 00-79-280M2906 22030c82-84 290-70 466 34 86 50 233 104 330 122 255 46 287 110 250 495-44 438-54 457-254 490-330 56-335 60-335 278 0 460-117 463-560 16-516-520-412-965 123-526 292 240 395 73 163-260-205-299-240-368-240-479-6-65 18-145 49-175m22606 224c25-220-216-186-447 62a870 870 0 01-456 284c-614 175-868 1138-268 1014 643-133 710-190 764-633 30-244 55-300 213-442 100-90 187-217 195-282m-4638 455c-106-283-584-154-836 226-290 440-260 650 95 638 657-23 938-350 742-864m-4341-930c24-564-741-315-920 300-68 234-102 280-262 363-210 107-281 213-281 420 0 260 440 190 585-92 50-95 172-188 386-293 369-182 475-332 490-694m16978 230c504-255 607-90 320 511-157 330-240 400-576 480-518 125-303-710 255-992m-23427-206c-430-12-486 20-584 334a1546 1546 0 01-122 290c-303 483-8 732 417 350a3104 3104 0 01 323-256c140-88 240-353 216-572-15-133-26-140-250-146m19930-670c-317-253-577-122-720 361-50 156-127 255-347 435a58000 58000 0 00-386 320 456 456 0 00-135 450c73 290 337 203 776-255 283-294 400-380 597-447 370-122 500-642 216-866m284-2273c-100-100-220-87-586 60-468 190-480 205-440 568 64 574 77 535-187 563-354 38-432 102-526 426-90 310-348 580-750 786a613 613 0 00-302 311c-95 194-422 396-643 396-94 0-236 254-236 423 0 563 734 562 953 0 87-224 130-273 317-362a570 570 0 00 313-305c200-415 508-678 840-716 353-40 417-110 468-520 34-277 34-277 268-360 466-170 795-990 512-1275m-5554-1770c-114-140-295-138-504 7-65 45-196 120-293 164-140 68-185 121-226 278-80 300-103 322-380 380-444 90-696 333-793 775-68 310-112 372-256 372-155 1-300 161-300 331 0 164-124 233-421 233-237 0-328 100-516 567-160 400-210 445-766 722-263 130-293 160-380 393-94 252-96 254-385 333-522 142-716 492-485 872 207 342 820 84 962-404 66-233 160-320 420-396 294-86 360-167 446-533 83-357 220-495 605-613 350-106 565-294 565-494 0-290 56-405 233-477a430 430 0 00 257-253c76-164 105-185 300-212 120-17 340-60 490-98 347-88 342-96 242 392-100 487-113 507-348 545-173 30-424 244-424 365 0 25-113 96-250 156-556 247-918 1153-435 1088 106-14 346-3 533 26 438 70 456 50 456-445 0-380 0-383 140-450 227-106 303-197 303-360 0-290 16-302 478-302 574 0 770-162 724-600-38-332 27-472 247-542a388 388 0 00 236-202c40-82 140-225 222-317 357-409 22-604-460-269-230 160-330 270-493 547-64 110-654 226-722 144-155-186 18-788 243-845 398-100 880-683 725-876m-250 4160c-152-154-322-63-416 223-48 145-97 170-506 240-440 74-524 745-107 860 402 113 668-74 730-510 25-194 66-310 119-340 240-134 320-336 180-474m-10081-2400c0-277-298-236-490 68-83 134-200 224-432 338-357 175-412 256-447 656-30 334-43 353-273 415a416 416 0 00-282 210 565 565 0 01-302 238c-620 237-706 1238-108 1238 183 0 285 20 295 60 10 31 35 142 58 245 57 268 323 294 627 61 446-340 306-773-210-643-315 76-260-320 110-798a950 950 0 00 166-350c24-134 63-190 158-230 638-258 705-324 802-780a945 945 0 01 194-414c96-110 140-208 140-320m7274 3196c2-375-99-437-488-300-463 162-387 784 96 784 343 0 386-54 390-484m-12108-650c48-410-333-340-615 115a2565 2565 0 01-237 323c-340 366-110 614 272 294a2178 2178 0 01 355-243c168-80 180-106 225-490m20356-5725c-170-110-429-97-527 30a5620 5620 0 01-303 330c-206 210-244 287-336 700-20 90-66 132-173 155-615 136-1014 455-1070 860-50 357-67 382-250 382-307 0-518 278-492 648 15 220 15 220-172 245-165 23-365 144-730 440-42 34-90 170-107 302-32 240-32 240-208 240-415 0-801 366-803 762-2 350 293 452 838 290 307-90 296-107 216 315-103 495 14 688 347 584a3000 3000 0 01 192-50c104-22 164-99 316-400 167-333 213-387 418-490 240-123 248-136 331-516 67-306 92-330 460-452 491-163 560-232 640-643 36-172 105-210 462-264 180-26 233-55 254-135 15-56 97-234 182-396 260-490 185-697-208-570-343 110-714 550-714 846 0 150-134 228-392 228-320 0-376 53-470 445-104 428-165 514-435 610-446 158-523 206-616 390-89 172-247 275-558 362-106 30-107 26-93-360 13-390 13-390 154-405 370-36 725-453 741-867 8-197 8-198 400-205 463-9 495-30 505-379 4-148 10-284 11-302s110-48 240-65c331-44 503-178 687-534 280-543 368-650 562-684 246-45 280-66 637-413 443-430 461-764 54-1032m-10177 4360c-53-138-129-148-396-53-233 83-336 188-417 423-65 186-95 210-475 384-293 135-549 874-346 1003 304 192 751-90 947-594 94-246 131-290 324-382 320-152 476-488 365-780M1200 20472c24-315 513-540 595-272 10 32 46 217 80 410 58 324 75 357 214 427 238 120 300 188 284 319-22 193-157 175-305-40-225-328-562-313-754 34-122 222-203 246-310 93a397 397 0 01 50-511c103-107 128-185 147-460m14024-4257c58-461-630-286-846 216-110 254-142 287-396 408-381 180-434 250-462 610-23 302-27 310-234 456-153 108-223 196-260 328-53 190-62 196-386 330-250 104-418 297-455 525-58 367-57 365-266 412-170 37-218 76-310 246-88 160-165 226-365 315-325 144-655 818-670 1370-10 348 1175-545 1266-955a740 740 0 01 190-376c113-109 133-165 133-372 0-245 0-245 287-296 468-82 600-220 603-630 0-244 27-284 242-374 130-54 200-128 280-297 97-200 138-238 386-330 344-134 482-260 547-506 92-343 130-396 356-505 250-120 315-225 360-588m3482 3124c-35-491-693-221-693 282 0 166-80 236-272 236-380 0-635 286-775 871a3903 3903 0 01-100 360c-42 104-22 102 323-20 562-203 843-457 896-810 40-264 92-326 332-394 230-65 310-215 290-528m12597 598c-250-240-702 26-941 553-173 380-93 553 260 560 469 10 980-827 680-1113m-20110-1103c-127 3-330 130-360 223-15 47-185 248-377 447-854 880-670 1553 195 712 204-200 246-270 275-465a703 703 0 01 190-405c119-130 159-217 159-344 0-132-20-170-82-168M468 19100c214-214 328-116 460 394 130 510 120 545-164 547-160 0-266 95-332 302-84 261-300 283-393 40a557 557 0 01 81-526 1720 1720 0 00 166-397c43-149 120-314 173-366m35026 520c84-135 487 66 493 245 1 35 20 151 40 261 62 316-404 465-658 210-34-34 70-622 125-714M17810 18361c-177-176-620-15-760 282-75 160-136 216-290 272-513 190-791 1047-373 1152 395 100 820-185 894-600 50-277 64-299 254-405 278-152 430-542 276-698m-7428-93c0-157-133-124-322 80a1450 1450 0 01-402 283c-473 205-673 493-713 1023-54 716 944 104 1163-714a1876 1876 0 01 163-380 810 810 0 00 112-295m13330-2155c-101-97-218-59-345 107a697 697 0 01-295 217c-224 72-280 120-374 320-60 130-148 202-383 318-343 170-633 463-680 686-43 200-94 256-270 293-222 46-352 145-427 325-54 130-126 188-363 296-446 203-740 586-740 966 0 475 1245 85 1330-417 53-309 75-353 183-353 245 0 334-99 360-399 26-307 7-293 525-372 256-39 475-268 570-598 63-216 105-282 206-322 405-160 415-168 475-384a816 816 0 01 170-317c123-115 147-270 57-360m8663 2525c-230-80-606-3-705 144-447 664-60 1135 583 711 444-293 505-720 122-855m-14510-3600c-98-99-184-63-416 177-125 130-248 235-273 235-148 0-556 200-600 295-272 600-177 828 284 678 428-140 528 93 205 477a1500 1500 0 00-200 358c-70 182-117 232-288 305a585 585 0 00-284 236c-138 255-260 358-514 440-335 106-386 168-386 464 0 583 660 458 867-163 61-177 121-262 251-344 235-149 286-220 325-456 30-170 60-218 195-285 88-44 246-142 350-216s280-180 387-236c200-102 397-370 460-628 20-79 108-180 225-260 324-217 343-525 32-525-147 0-260 110-307 295-60 240-730 362-762 138-30-216 83-428 300-555 216-118 277-295 150-423m13768 2510c-330-166-572-117-808 163-465 550-445 1033 45 1100 777 103 1407-939 763-1264m-5323-5765c-182-205-603-56-754 267a858 858 0 01-290 338c-206 136-325 320-325 500 0 162-120 240-373 246-266 5-302 25-444 250-75 117-157 185-250 203-195 40-274 136-310 382a1408 1408 0 01-40 213c-472 15-665 128-757 446-70 240-83 253-305 327a750 750 0 00-373 257c-79 98-194 190-256 207s-195 122-295 235a3890 3890 0 01-420 398 1278 1278 0 00-474 810c-35 203-35 203-302 252-313 56-370 103-434 360-52 210-84 238-394 330-440 130-598 960-180 944 333-10 590-175 762-485 100-180 194-282 314-338 238-113 318-248 318-534 0-240 0-240 230-263 366-35 556-163 750-504 165-296 205-326 524-396 90-20 145-80 203-227 44-110 140-293 216-407s136-242 136-284c0-180 120-253 460-284 436-40 475-78 475-450 0-298 0-298 167-298 220 0 330-64 425-248 90-180 144-220 290-220 134 0 382-240 382-370 0-120 132-193 350-193 185 0 316-106 455-367 65-122 108-150 235-150 384 0 494 323 190 547-260 190-280 226-316 557-20 182-54 303-87 304-137 0-415 106-533 203a1280 1280 0 01-340 188c-220 82-240 110-350 475-37 118-80 150-268 197-300 74-360 132-360 350 0 473 680 596 776 142 55-260 98-308 327-380 174-55 253-113 324-234 51-90 193-258 316-376 130-126 222-255 222-315 0-220 34-240 350-215 396 32 530-6 570-160 16-68 134-240 262-380 337-377 272-730-162-862-260-78-345-180-460-563-57-190-136-380-177-425M2070 13838c74-192 600-65 680 163 37 110 109 170 303 256 166 74 286 166 350 268 53 85 180 207 283 270a954 954 0 01 283 288c108 192 174 230 395 230 207 0 330 100 397 323 70 230 93 246 422 282 290 30 286 25 357 577 53 406 134 452 579 323 450-130 490-120 627 163 87 180 147 237 350 327 307 136 330 305 106 778a1932 1932 0 00-140 353c0 208-587 270-746 68-53-67-97-147-97-177s-135-187-300-351c-197-197-310-350-328-445-62-333-176-437-520-473-280-30-310-47-380-175-166-302-240-366-423-366-273 0-340-78-376-443-34-328-111-448-290-448-43 0-202-65-352-144-210-110-308-139-426-117-154 30-154 30-154-253 0-359-68-504-292-619-215-110-376-472-300-672m13845 3146c-226-206-560-70-634 261-20 85-110 180-275 285-588 380-800 1103-303 1040 319-40 662-207 680-330 64-400 156-586 337-679 283-144 375-416 196-579m17906 495c-150-314-734-80-973 390-180 353-65 584 290 584 377 0 836-656 685-975m-14820-316c-151-332-724 1-874 510-143 482-94 503 428 183 412-253 549-465 446-692m7565 44c-180-110-591-100-682 17-306 400 332 924 648 534 100-125 124-495 34-550m4240-367c-130-130-383-56-491 146a822 822 0 01-263 234c-333 196-340 530-12 530 150 0 202-25 290-145a984 984 0 01 294-240c272-139 350-359 184-524m-4005-1604c-20-249-306-289-555-79-85 73-250 185-368 250-176 96-228 157-298 350-100 277-160 330-410 370-376 61-543 572-250 765 376 246 766 118 838-276 86-475 830-390 868 98 59 763 807 663 1002-134 99-403 64-478-176-384-474 186-830 127-835-138-8-370 4-430 106-540 67-70 88-149 78-280m-7297 1300c-183-184-420-47-420 242 0 160 56 196 235 157 270-60 350-233 185-398m15595-247c65-126 310-108 370 27 90 195-22 486-200 526-250 54-337-230-170-553M10 16270c-12-53 4-76 45-62 34 13 70 60 79 105 10 54-7 76-47 63-35-12-70-59-80-104m32005-546c0-156-530 23-688 233-71 94-78 364-11 405 150 94 700-406 700-638m-8188-3462c-124-202-650-118-750 120-50 118-140 255-206 316l-25 25c-68 63-168 208-230 337-115 240-134 255-375 315-308 77-355 114-493 386a1293 1293 0 01-204 300 968 968 0 00-178 317c-73 205-100 232-250 257-332 56-364 88-441 447-45 208-753 273-802 74-80-323-5-560 215-689 373-220 370-550-3-665-261-79-414 4-485 264-41 143-92 210-216 271-274 140-344 100-390-228-60-428-30-403-444-368-430 36-453 18-378-283 45-174 87-227 259-328 180-107 205-140 205-286 0-450-545-542-796-135a819 819 0 01-273 253c-647 331-590 1051 73 931 474-85 482-83 482 128 0 363 150 540 460 540 292 0 316 25 352 344 50 447 95 487 589 541 244 27 263 40 367 228 275 496 796 404 879-154 30-190 46-210 226-268 160-52 214-103 304-284 110-220 110-220 389-220 270 0 507-135 507-288 0-22 105-116 233-208 182-132 244-210 285-364 80-304 105-330 375-409 209-60 269-103 350-249 54-96 175-246 270-332 177-163 237-460 127-634M17073 14300c-24-410-587-337-903 117-147 210-155 214-613 307-85 17-104 66-131 337a4593 4593 0 01-83 520c-80 315-20 337 460 174 500-170 558-220 634-540 56-240 77-267 293-384 307-166 359-247 342-530m11960 542c-373-295-1046 73-1046 572 0 503 343 553 840 120 383-334 437-510 207-692M3163 9766c105-105 760 240 880 466 80 150 170 200 505 274 90 20 173 99 268 254 154 250 294 334 550 334 187 0 577 355 858 782 114 172 160 200 395 250 260 54 267 60 377 310 115 258 189 314 557 423 85 25 190 119 272 240 160 239 257 296 568 334 232 28 240 34 360 280 150 310 220 353 535 320 430-44 455-73 435-517-26-616 740-726 790-113 24 300 24 300-250 410-423 168-466 277-348 888 50 260 32 304-166 420-98 60-170 130-170 160 0 450-851 100-984-390-63-230-184-340-453-420-194-50-224-80-321-300-124-280-288-427-520-470-165-31-297-168-297-308 0-144-204-320-468-403-230-74-267-104-360-300-122-260-254-360-710-537-340-131-415-194-630-533-75-117-172-188-342-250-224-80-242-100-350-372-105-274-123-293-360-384-344-133-772-698-632-838m8895 4992c280-103 395-55 457 192 76 303-212 514-494 362-160-85-132-492 36-554m24100-303c65-110 340 229 340 420 0 217-141 492-250 477-210-30-264-590-90-896M3375 12030c368-86 450-62 556 165 84 178 143 230 391 348 467 220 711 633 674 1140-20 283-285 315-604 72a5773 5773 0 00-393-270 1457 1457 0 01-294-242 704 704 0 00-270-180c-212-70-245-144-260-574-16-400-14-407 202-458m16077 1210c-195-123-502 73-502 322 0 177 222 222 468 94 127-66 150-342 34-416m1970-1880c-110-200-527-62-473 158 43 175 97 222 298 256 350 60 250 630-130 740-370 108-646 1022-317 1054 285 27 734-268 850-558 85-209 132-264 325-364a990 990 0 00 450-530c8-20 108-58 223-84 460-104 387-655-97-722-268-37-320-8-398 225-110 325-752 405-710 88 13-100 5-215-20-258M1320 13115c70-70 245-66 305 7 80 98 116 303 58 339-153 100-486-220-363-340M16657 1410c491-170 854-62 1025 303 120 257 196 290 677 290 276 2 547 234 632 540 70 259 33 278-447 226-649-70-683-43-825 666-54 272-63 284-290 398-170 85-256 165-316 293-70 150-105 176-234 176-426 0-532 89-560 469-13 164-13 164-423 188-516 30-622 112-617 469 0 412 120 485 700 448 520-33 574-8 574 267 1 130 94 223 344 340 267 124 325 537 76 537-26 0-121 74-212 164-293 294-697 229-730-117-15-163-16-164-294-194-323-34-420-120-501-445-67-264-254-423-544-464-528-75-536-80-692-346-370-628-1102-483-1108 220-4 340 57 386 524 386 428 0 480 32 610 387 120 326 195 370 635 387 404 14 418 20 489 246 74 233 160 292 426 292 214 0 369 82 369 196 0 613 930 693 1025 88 22-140 63-263 90-273 28-10 120-67 204-128 440-320 927-412 1026-197 106 235 20 437-266 620-140 90-268 194-282 230s-144 113-290 170c-341 134-414 223-454 550-42 348-77 385-366 386-451 0-546 97-546 537 0 314 72 372 426 342 484-41 560-87 560-336 0-347 53-424 330-488 369-85 530-207 670-500 84-176 168-280 275-333a1920 1920 0 00 325-233c147-132 320-205 776-330 38-10 58-110 58-289 0-326 49-386 310-386 350 0 430-57 467-327 36-270 46-280 393-376 224-62 270-95 366-270 360-655 1520-207 1254 485-30 79-30 79-531-6-365-62-430 142-156 490a1200 1200 0 01 164 273c130 418 770 342 884-103 63-253 67-256 596-477 752-315 557-917-336-1044-385-55-473-102-570-303-437-925 590-844 1240 100 318 456 765 445 989-26 199-418 893-344 868 93-15 260-34 280-394 412-154 56-252 210-252 397 0 203 53 256 333 335 318 90 330 100 392 413 54 267 165 325 526 276 446-61 485-576 58-747-171-70-190-90-176-223 23-236 230-230 478 13a1056 1056 0 00 439 263c275 82 330 156 370 489 28 229 28 229-327 220-432-8-470 20-500 406-23 290-23 290-386 277-528-20-690 130-786 730-52 320-58 326-370 386-313 60-377 112-377 310 0 190-97 253-400 253-230 0-232 2-546 388-218 267-598 215-598-80-2-228-98-322-360-352-375-44-353-488 33-642 207-83 224-150 130-516-58-235-154-298-454-298-246 0-327-80-381-372-60-315-78-326-1110-670-297-100-381 100-163 379 369 472 100 702-365 313-396-330-754-274-815 130-53 345-30 395 222 458 394 100 500 355 224 530a600 600 0 00-234 260c-52 150-157 214-433 259-193 30-330 160-433 412-133 323-653 390-837 108-230-353-870-380-814-34 38 238 156 333 453 368 286 33 323 66 324 286 0 114-46 205-186 356-103 112-187 226-187 254 0 83-223 232-397 264a470 470 0 00-290 198c-74 100-230 210-380 280-315 139-356 193-456 599-107 434-177 497-553 497-484 0-522-524-48-657 598-170 815-720 343-870-325-108-504 53-643 573-107 403-60 350-406 460-260 82-285 103-341 276-81 250-137 298-390 333-400 55-364-332 62-650 156-117 175-154 187-374 13-218 28-250 130-279 814-225 839-242 885-627 42-360 57-380 315-420 392-59 635-573 344-729-270-144-793 136-793 424 0 340-811 373-833 35-17-275 29-362 257-480 228-120 258-290 102-577-171-314-558-298-693 30-70 170-107 183-540 202-330 15-330 15-316-220 14-283-10-323-275-457a604 604 0 01-314-330c-125-260-313-392-617-434-360-48-367-53-423-326-63-303-192-425-497-470-170-26-238-68-357-216a813 813 0 00-378-263c-127-45-265-130-307-190-200-285-295-370-470-424-176-54-194-76-265-320-83-285-40-274-792-190-82 10-92-15-84-194 24-514 610-590 758-100 56 187 56 187 427 187 372 0 372 0 463 180 96 190 214 263 503 317a940 940 0 01 344 164 933 933 0 00 397 170c220 36 240 50 340 260 124 264 255 330 570 288 308-40 568 97 753 396 188 307 310 357 690 282 323-65 383-38 385 170a300 300 0 00 309 305c228 0 487-117 488-220 0-46 13-130 28-187 50-186-165-342-468-342-275 0-270 5-332-312-53-263-158-314-577-277-470 40-553-15-617-410-60-366-93-397-474-435-290-27-338-47-423-166a968 968 0 00-315-240c-243-116-323-330-171-456 103-86 470-80 572 10 184 160 630 87 814-135 110-132 54-444-110-612a1208 1208 0 01-226-354c-60-165-96-200-212-213-292-30-481-107-638-260-130-127-214-164-427-190-552-71-703-616-196-711 280-54 372 0 488 284 130 320 135 323 538 352 329 23 329 23 344 210 22 268 70 305 403 305 182 0 323 26 380 70 438 330 1052-170 652-533-361-327 9-515 563-286 347 143 554-150 282-400-326-300-250-494 198-494 365 0 365 0 550-190s185-192 676-177c492 15 492 15 472-150-55-463-40-533 137-594m18020 10277c0-210 398 292 684 860 196 390 197 484 10 640-464 393-910-230-670-936 70-205 77-274 30-374a613 613 0 01-54-190M8960 12590c57-94 213-38 302 109 114 180 115 200 6 230-163 40-390-210-308-347m19980-1270c-70-220-520-70-657 217-67 141-107 166-340 214-503 101-613 254-456 630 195 467 788 401 888-100 50-250 70-280 263-392 220-129 358-389 300-569m-20550 520c230-103 294-80 331 117 60 313-103 490-392 425-317-70-282-388 60-540m-6017-440c20-19 100-22 176-7 295 57 446 495 170 495-260 0-498-335-346-488m25685-990c-225-227-554-150-656 145-60 174-75 185-313 218-397 54-442 72-500 200-180 400 50 712 586 800 241 37 294-30 334-436 32-319 32-319 287-350 383-47 510-330 262-580M7486 11190c53-13 138 110 138 200 0 120-178 310-290 310-210 1-193-442 18-482a4700 4700 0 00 134-27m16526-290c78-47 327-5 372 66 97 158-210 440-368 337-97-65-100-338-4-400m9277 121c36-93 259-86 295 10 43 112-48 230-177 230-115 0-168-108-118-238m-475-388c97-120 189-130 292-26 119 120 66 213-157 280a1016 1016 0 00-351 197c-80 75-183 150-228 165-133 46-100-140 40-236a1976 1976 0 00 404-380m-10895 188c-252-25-399 230-188 325 200 92 363 16 346-160-13-130-34-153-158-165m-15300 66c105-104 243-95 305 22 85 160 22 238-176 222-198-17-253-120-129-244m-4845-123a47 47 0 01 0 94 47 47 0 01 0-94m31765-908c196-196 803 577 688 876-60 158-441 126-441-38 0-40-63-190-140-337-138-257-175-434-107-502m-9965-419c-15-156-332-240-497-133-140 92-48 404 123 420 232 23 392-100 374-287M2300 9204c100-41 126-34 225 65 175 170-25 380-216 220-83-70-90-264-10-296m16344 0c-112-44-180-36-273 32-120 88-82 286 58 306 206 30 395-270 215-339M15840 8400c-390-184-905-24-1062 331-224 508-187 607 267 721 790 201 1485-722 795-1049m15980-428c0-97 65-86 170 32 48 55 194 147 322 205 280 126 332 180 563 612 293 543 135 618-378 180-214-184-258-250-306-465-65-292-72-305-240-412-72-45-130-114-130-152m-3568 553c-80-64-400-98-597-64-400 69-218 755 201 755 334 0 626-510 396-691M24120 8800c-196-153-290-130-350 94-75 282-40 330 224 314 283-18 350-230 126-407m-2793-280c314-180 630 80 402 336-94 97-347 115-434 30-83-85-67-308 27-363m9824-20c45-43 146-37 177 13 46 75-27 192-120 192-86 0-124-135-57-203M24730 6790c-311-311-1015-100-1098 330l-80 405c-23 122-183 198-416 198-440 0-644 478-285 653 447 218 819 102 819-255 0-330 577-377 860-70 235 256 773 260 844 6 104-376 63-484-208-543-166-38-256-160-320-440a714 714 0 00-120-282m5357-896c0-150 375 73 550 326a725 725 0 00 326 264c395 156 542 640 200 665-223 16-276-30-370-324-73-222-110-268-322-390-222-125-384-355-384-540m-10703-95c442-182 598 226 167 432-268 128-290 156-340 470-33 190-54 200-460 247-510 58-510-400 0-540 354-96 403-134 475-376 35-116 96-205 160-232m8597 7c323-130 747 220 473 390-22 13-64 117-93 230-63 250-133 284-470 214-360-73-385-93-485-378-150-432-148-440 177-424 155 8 334-7 398-32m-8230-1460c196-162 220-114 120 247l-105 395c-8 30-115 70-240 85-318 40-420 93-503 255a323 323 0 01-202 170c-433 98-523 198-524 587 0 340-468 292-856-87-167-163-200-175-540-197-360-23-360-23-391-305-53-480 670-646 883-200 195 408 678 433 876 45a542 542 0 01 288-244c206-90 266-170 322-433 25-116 48-130 226-130 260 0 515-74 650-187m584 662c552-283 659-220 440 260-173 383-707 434-780 75-27-144-20-150 340-335m8687-110c233-80 643 183 643 412 0 130-93 146-385 65-253-70-440-417-258-478m-18438-130c440-128 610-37 554 300-35 212-245 322-566 295-277-24-266-514 12-595M6940 4600c35-90 260-85 363 10 47 42 196 112 332 157 256 83 366 227 302 394-66 172-547 30-547-162 0-27-94-90-208-142-230-102-280-154-242-256m19416-384c77-96 442-73 550 35 190 190 117 423-168 537a456 456 0 00-271 245c-80 168-80 168-321 140-434-52-540-325-183-468 197-80 260-143 311-313 20-65 56-144 82-176m-10376-560c-54-282-736-184-800 116-66 282-60 278-344 303-739 67-1114 1020-402 1020 533 0 728-152 766-600 27-314 27-314 402-338 412-26 454-81 376-500m7380 483c60-25 310 0 466 45 120 35 467 570 450 690-20 146-166 117-543-107-417-247-430-261-430-445 0-87 26-170 58-183m-4988-317c348-140 652-160 640-40-40 379-233 678-473 730-174 40-286 100-396 218-153 160-647 286-787 200-112-70-50-400 83-451 314-124 424-200 515-360 78-135 160-194 417-297M9607 4240c314-204 780 24 698 342-50 193-668 378-766 230-56-86-3-525 68-572m10731-2067c134-134 672-25 764 155 104 205 180 257 516 357 172 50 250 107 328 232 133 216 220 256 552 256 317 0 360 34 395 310 33 264 3 295-362 371-442 93-515 151-592 476-114 434-864 451-913 20-41-344-95-393-464-402-340-7-407-38-407-187 0-220-137-312-516-346-640-57-660-519-26-560 404-26 477 10 523 255 42 227 131 297 376 297 620 0 702-638 102-799-290-77-430-290-287-435m3994 1434c235-123 480-4 457 222-15 141-370 284-500 201-124-78-96-350 43-423m-15630 110c130-159 378-60 378 148 0 98-18 110-170 96-202-17-300-133-207-245m12970-307c-252-135-534 28-510 294 17 166 300 238 505 127 130-70 135-352 6-420m5765 192c76-76 224-50 287 50 75 120-63 246-224 206-130-33-161-157-63-256m-9697-1480c-72-90-498-94-890-10-256 53-256 53-313 393-80 477-100 523-240 556-200 46-337 153-337 260 0 160 357 90 513-98 90-108 180-155 363-189 850-160 1220-532 904-913m-4868 725c240-57 266-55 346 26 229 228 25 425-473 454-337 20-227-397 127-480m12284 280c116 0 165 20 152 58-10 33-80 60-152 60s-142-27-152-60c-13-40 35-58 152-58m-2014-257c96-76 167-76 180 0 5 25-54 52-132 60-134 10-136 7-48-63m-13200-258c202-83 405-14 405 137 0 102-89 144-303 144-263 0-332-189-102-282m1855-320c340-96 468-46 468 183 0 160-72 220-316 258-514 83-645-299-151-440m13993 236c0-109 147-129 228-29 70 77 30 122-110 122-77 0-110-26-110-93m-1417-938c138 0 437 131 437 192 0 23 3 57 6 76 3 20-75 77-174 130a614 614 0 00-240 221l-120 258c-48 100-98 130-233 141-440 40-530-390-122-583 170-80 230-140 273-270 43-135 79-169 173-169M13710 1930c60-135 510-168 612-46 110 132 43 517-92 533-358 42-641-223-521-487m-3063-46c154-113 494 2 494 170 0 182-382 195-500 16-75-117-75-126 6-186m9070-1020c87-35 90-35 390 20 602 110 800 513 286 584-358 50-454 96-454 222 0 225-490 312-868 153-393-164-120-500 367-450 144 16 220-90 220-304 0-117 24-210 58-225m-6882 400c80-82 437-70 525 18 173 173 54 348-237 348-285 0-448-206-290-366m5374-525c183-60 196-55 163 60-70 240-448 383-658 245-214-140-125-255 206-264 95-1 225-20 290-41m-2875 110c148-110 370-63 370 78 0 105-20 120-200 133-232 16-325-98-170-210m-3182 100c30-85 206-74 235 13 13 37-30 60-123 60-110 0-137-20-115-75M20845 40c17-29 66-40 108-28 900 272 935 293 880 518-68 266-485 260-783-8-170-155-268-382-205-483m-2340 202c97-147 570-160 698-18 210 232-86 400-740 423-103 0-80-220 43-410m-4167 80c73 0 117 27 117 70s-44 72-117 72-121-26-121-70 44-70 117-70" fill="#277206" id="a" data-figma-scatter="f0.31000000238418579_w0_aj180_sj0_r0_s8850523150301047664_sw16"/></defs></svg>
