<svg xmlns="http://www.w3.org/2000/svg" opacity=".43" viewBox="0 0 80000 80000"><g fill="none" stroke="#ccccccff" stroke-width="150"><path d="M0 0h4444v4444H0zm4444 0H8890v4444H4444zM8890 0h4444v4444H8890"/><path d="M13333 0h4445v4444h-4445zm4445 0h4444v4444h-4444zm4444 0h4445v4444h-4445zm4445 0h4444v4444h-4444zm4444 0h4444v4444h-4444zm4445 0H40000v4444h-4444zM40000 0h4444v4444H40000zm4444 0h4445v4444h-4445zm4445 0h4444v4444H48890zm4444 0h4445v4444h-4445zm4445 0h4444v4444h-4444zm4444 0h4445v4444h-4445zm4445 0h4444v4444h-4439zm4444 0h4448v4444h-4444zm4450 0H80000v4444h-4444zM80000 0h4444v4444H80000zM0 4444h4444V8890H0zm4444 0H8890V8890H4444zm4445 0h4444V8890H8890zm4444 0h4445V8890h-4445zm4445 0h4444V8890h-4444zm4444 0h4445V8890h-4445zm4445 0h4444V8890h-4444zm4444 0h4444V8890H31110zm4445 0H40000V8890h-4444zm4444 0h4444V8890H40000zm4444 0h4445V8890h-4445zm4445 0h4444V8890H48890zm4444 0h4445V8890h-4445zm4445 0h4444V8890h-4444zm4444 0h4445V8890h-4445zm4445 0h4444V8890h-4439zm4444 0h4448V8890h-4444zm4450 0H80000V8890h-4444zm4443 0h4444V8890H80000zM0 8890h4444v4444H0zm4444 0H8890v4444H4444zm4445 0h4444v4444H8890"/><path d="M13333 8889h4445v4444h-4445zm4445 0h4444v4444h-4444zm4444 0h4445v4444h-4445zm4445 0h4444v4444h-4444zm4444 0h4444v4444h-4444zm4445 0H40000v4444h-4444zm4444 0h4444v4444H40000zm4444 0h4445v4444h-4445zm4445 0h4444v4444H48890zm4444 0h4445v4444h-4445zm4445 0h4444v4444h-4444zm4444 0h4445v4444h-4445zm4445 0h4444v4444h-4439zm4444 0h4448v4444h-4444zm4450 0H80000v4444h-4444zm4443 0h4444v4444H80000zM0 13333h4444v4445H0zm4444 0H8890v4445H4444zm4445 0h4444v4445H8890"/><path d="M13333 13333h4445v4445h-4445zm4445 0h4444v4445h-4444zm4444 0h4445v4445h-4445zm4445 0h4444v4445h-4444zm4444 0h4444v4445h-4444zm4445 0H40000v4445h-4444zm4444 0h4444v4445H40000zm4444 0h4445v4445h-4445zm4445 0h4444v4445H48890zm4444 0h4445v4445h-4445zm4445 0h4444v4445h-4444zm4444 0h4445v4445h-4445zm4445 0h4444v4445h-4439zm4444 0h4448v4445h-4444zm4450 0H80000v4445h-4444zm4443 0h4444v4445H80000zM0 17778h4444v4444H0zm4444 0H8890v4444H4444zm4445 0h4444v4444H8890"/><path d="M13333 17778h4445v4444h-4445zm4445 0h4444v4444h-4444zm4444 0h4445v4444h-4445zm4445 0h4444v4444h-4444zm4444 0h4444v4444h-4444zm4445 0H40000v4444h-4444zm4444 0h4444v4444H40000zm4444 0h4445v4444h-4445zm4445 0h4444v4444H48890zm4444 0h4445v4444h-4445zm4445 0h4444v4444h-4444zm4444 0h4445v4444h-4445zm4445 0h4444v4444h-4439zm4444 0h4448v4444h-4444zm4450 0H80000v4444h-4444zm4443 0h4444v4444H80000zM0 22222h4444v4445H0zm4444 0H8890v4445H4444zm4445 0h4444v4445H8890zm4444 0h4445v4445h-4445zm4445 0h4444v4445h-4444zm4444 0h4445v4445h-4445zm4445 0h4444v4445h-4444zm4444 0h4444v4445H31110zm4445 0H40000v4445h-4444zm4444 0h4444v4445H40000zm4444 0h4445v4445h-4445zm4445 0h4444v4445H48890zm4444 0h4445v4445h-4445zm4445 0h4444v4445h-4444zm4444 0h4445v4445h-4445zm4445 0h4444v4445h-4439zm4444 0h4448v4445h-4444zm4450 0H80000v4445h-4444zm4443 0h4444v4445H80000zM0 26667h4444v4444H0zm4444 0H8890v4444H4444zm4445 0h4444v4444H8890"/><path d="M13333 26667h4445v4444h-4445zm4445 0h4444v4444h-4444zm4444 0h4445v4444h-4445zm4445 0h4444v4444h-4444zm4444 0h4444v4444h-4444zm4445 0H40000v4444h-4444zm4444 0h4444v4444H40000zm4444 0h4445v4444h-4445zm4445 0h4444v4444H48890zm4444 0h4445v4444h-4445zm4445 0h4444v4444h-4444zm4444 0h4445v4444h-4445zm4445 0h4444v4444h-4439zm4444 0h4448v4444h-4444zm4450 0H80000v4444h-4444zm4443 0h4444v4444H80000zM0 31110h4444v4444H0zm4444 0H8890v4444H4444zm4445 0h4444v4444H8890zm4444 0h4445v4445h-4445zm4445 0h4444v4445h-4444zm4444 0h4445v4445h-4445zm4445 0h4444v4445h-4444zm4444 0h4444v4445H31110zm4445 0H40000v4445h-4444zm4444 0h4444v4445H40000zm4444 0h4445v4445h-4445zm4445 0h4444v4445H48890zm4444 0h4445v4445h-4445zm4445 0h4444v4445h-4444zm4444 0h4445v4445h-4445zm4445 0h4444v4445h-4439zm4444 0h4448v4445h-4444zm4450 0H80000v4445h-4444zm4443 0h4444v4445H80000zM0 35557h4444V40000H0zm4444 0H8890V40000H4444zm4445 0h4444V40000H8890zm4444 0h4445V40000h-4445zm4445 0h4444V40000h-4444zm4444 0h4445V40000h-4445zm4445 0h4444V40000h-4444zm4444 0h4444V40000H31110zm4445 0H40000V40000h-4444zm4444 0h4444V40000H40000zm4444 0h4445V40000h-4445zm4445 0h4444V40000H48890zm4444 0h4445V40000h-4445zm4445 0h4444V40000h-4444zm4444 0h4445V40000h-4445zm4445 0h4444V40000h-4439zm4444 0h4448V40000h-4444zm4450 0H80000V40000h-4444zm4443 0h4444V40000H80000zM0 40000h4444v4444H0zm4444 0H8890v4444H4444zm4445 0h4444v4444H8890zm4444 0h4445v4444h-4445zm4445 0h4444v4444h-4444zm4444 0h4445v4444h-4445zm4445 0h4444v4444h-4444zm4444 0h4444v4444H31110zm4445 0H40000v4444h-4444zm4444 0h4444v4444H40000zm4444 0h4445v4444h-4445zm4445 0h4444v4444H48890zm4444 0h4445v4444h-4445zm4445 0h4444v4444h-4444zm4444 0h4445v4444h-4445zm4445 0h4444v4444h-4439zm4444 0h4448v4444h-4444zm4450 0H80000v4444h-4444zm4443 0h4444v4444H80000zM0 44444h4444v4445H0zm4444 0H8890v4445H4444zm4445 0h4444v4445H8890zm4444 0h4445v4445h-4445zm4445 0h4444v4445h-4444zm4444 0h4445v4445h-4445zm4445 0h4444v4445h-4444zm4444 0h4444v4445H31110zm4445 0H40000v4445h-4444zm4444 0h4444v4445H40000zm4444 0h4445v4445h-4445zm4445 0h4444v4445H48890zm4444 0h4445v4445h-4445zm4445 0h4444v4445h-4444zm4444 0h4445v4445h-4445zm4445 0h4444v4445h-4439zm4444 0h4448v4445h-4444zm4450 0H80000v4445h-4444zm4443 0h4444v4445H80000zM0 48890h4444v4444H0zm4444 0H8890v4444H4444zm4445 0h4444v4444H8890"/><path d="M13333 48889h4445v4444h-4445zm4445 0h4444v4444h-4444zm4444 0h4445v4444h-4445zm4445 0h4444v4444h-4444zm4444 0h4444v4444h-4444zm4445 0H40000v4444h-4444zm4444 0h4444v4444H40000zm4444 0h4445v4444h-4445zm4445 0h4444v4444H48890zm4444 0h4445v4444h-4445zm4445 0h4444v4444h-4444zm4444 0h4445v4444h-4445zm4445 0h4444v4444h-4439zm4444 0h4448v4444h-4444zm4450 0H80000v4444h-4444zm4443 0h4444v4444H80000zM0 53333h4444v4445H0zm4444 0H8890v4445H4444zm4445 0h4444v4445H8890"/><path d="M13333 53333h4445v4445h-4445zm4445 0h4444v4445h-4444zm4444 0h4445v4445h-4445zm4445 0h4444v4445h-4444zm4444 0h4444v4445h-4444zm4445 0H40000v4445h-4444zm4444 0h4444v4445H40000zm4444 0h4445v4445h-4445zm4445 0h4444v4445H48890zm4444 0h4445v4445h-4445zm4445 0h4444v4445h-4444zm4444 0h4445v4445h-4445zm4445 0h4444v4445h-4439zm4444 0h4448v4445h-4444zm4450 0H80000v4445h-4444zm4443 0h4444v4445H80000zM0 57778h4444v4444H0zm4444 0H8890v4444H4444zm4445 0h4444v4444H8890"/><path d="M13333 57778h4445v4444h-4445zm4445 0h4444v4444h-4444zm4444 0h4445v4444h-4445zm4445 0h4444v4444h-4444zm4444 0h4444v4444h-4444zm4445 0H40000v4444h-4444zm4444 0h4444v4444H40000zm4444 0h4445v4444h-4445zm4445 0h4444v4444H48890zm4444 0h4445v4444h-4445zm4445 0h4444v4444h-4444zm4444 0h4445v4444h-4445zm4445 0h4444v4444h-4439zm4444 0h4448v4444h-4444zm4450 0H80000v4444h-4444zm4443 0h4444v4444H80000zM0 62222h4444v4445H0zm4444 0H8890v4445H4444zm4445 0h4444v4445H8890"/><path d="M13333 62222h4445v4445h-4445zm4445 0h4444v4445h-4444zm4444 0h4445v4445h-4445zm4445 0h4444v4445h-4444zm4444 0h4444v4445h-4444zm4445 0H40000v4445h-4444zm4444 0h4444v4445H40000zm4444 0h4445v4445h-4445zm4445 0h4444v4445H48890zm4444 0h4445v4445h-4445zm4445 0h4444v4445h-4444zm4444 0h4445v4445h-4445zm4445 0h4444v4445h-4439zm4444 0h4448v4445h-4444zm4450 0H80000v4445h-4444zm4443 0h4444v4445H80000zM0 66667h4444v4444H0zm4444 0H8890v4444H4444zm4445 0h4444v4444H8890"/><path d="M13333 66667h4445v4444h-4445zm4445 0h4444v4444h-4444zm4444 0h4445v4444h-4445zm4445 0h4444v4444h-4444zm4444 0h4444v4444h-4444zm4445 0H40000v4444h-4444zm4444 0h4444v4444H40000zm4444 0h4445v4444h-4445zm4445 0h4444v4444H48890zm4444 0h4445v4444h-4445zm4445 0h4444v4444h-4444zm4444 0h4445v4444h-4445zm4445 0h4444v4444h-4439zm4444 0h4448v4444h-4444zm4450 0H80000v4444h-4444zm4443 0h4444v4444H80000zM0 71110h4444v4445H0zm4444 1H8890v4444H4444zm4445 0h4444v4444H8890zm4444 0h4445v4444h-4445zm4445 0h4444v4444h-4444zm4444 0h4445v4444h-4445zm4445 0h4444v4444h-4444zm4444 0h4444v4444H31110zm4445 0H40000v4444h-4444zm4444 0h4444v4444H40000zm4444 0h4445v4444h-4445zm4445 0h4444v4444H48890zm4444 0h4445v4444h-4445zm4445 0h4444v4444h-4444zm4444 0h4445v4444h-4445zm4445 0h4444v4444h-4439zm4444 0h4448v4444h-4444zm4450 0H80000v4444h-4444zm4443 0h4444v4444H80000zM0 75556h4444V80000H0zm4444 0H8890V80000H4444zm4445 0h4444V80000H8890zm4444 0h4445V80000h-4445zm4445 0h4444V80000h-4444zm4444 0h4445V80000h-4445zm4445 0h4444V80000h-4444zm4444 0h4444V80000H31110zm4445 0H40000V80000h-4444zm4444 0h4444V80000H40000zm4444 0h4445V80000h-4445zm4445 0h4444V80000H48890zm4444 0h4445V80000h-4445zm4445 0h4444V80000h-4444zm4444 0h4445V80000h-4445zm4445 0h4444V80000h-4439zm4444 0h4448V80000h-4444zm4450 0H80000V80000h-4444zm4443 0h4444V80000H80000zM0 80000h4444v4444H0zm4444 0H8890v4444H4444zm4445 0h4444v4444H8890zm4444 0h4445v4444h-4445zm4445 0h4444v4444h-4444zm4444 0h4445v4444h-4445zm4445 0h4444v4444h-4444zm4444 0h4444v4444H31110zm4445 0H40000v4444h-4444zm4444 0h4444v4444H40000zm4444 0h4445v4444h-4445zm4445 0h4444v4444H48890zm4444 0h4445v4444h-4445zm4445 0h4444v4444h-4444zm4444 0h4445v4444h-4445zm4445 0h4444v4444h-4439zm4444 0h4448v4444h-4444zm4450 0H80000v4444h-4444zm4443 0h4444v4444H80000"/></g></svg>
