<svg xmlns="http://www.w3.org/2000/svg" viewBox="0 0 57037 61639"><path d="m29907.5 18192.4.2-383h48l-.2 383"/><path d="M24724 26063c-37-1-105 52-146 26-60-39-78-189-142-242 119 8 240-122 85-105-229 26-88-135-85-282 3-158-57-292 47-452-156-49-307 77-240-162 12-43 141 7 48-222l239 144c-144-513 230-760 457-1155 457-113 906-125 1367-45l-383 95 767 48c-124-166 116-191 192-360l-144-25c0-66 131-301 97-335-14-14-114 15-144-2-6-3 33-73 15-131-30-97-102-303-148-384s-155-109-156-136c-4-68 61-336 47-422-6-35-132-5-95-198 13-64 213 74 96-216-86-20-7 142-119 95-312-129-13-331 26-502 7-33 12-176-51-97l-96 167c104-148-37-201-30-336 9-170 107-399 126-576 204 110 115 3 191-110 104-155 120-327 230-501s197-227 394-157c-113-198 78-159 257-247 81-40 319-202 359-175 10 7 6 84 36 89 84 14 203-61 260-124l-95-71c248-38 381-240 576-338-210-170 29-310-6-445-19-72-184-146-138-226 6-10 91 57 145-18 166-229-69-123-146-269 317 5 123-231 94-432-172-44-97 57-189 95 25-70-89-99-89-118 0-117 109-815 160-892 42-64 116 3 167 3 114-397 249-901 769-913l-96-143c198 10 717-345 798-497 115-216 8-549 257-608 21-96-165-15-143-71 74-194 207 123 287 71 7-4-7-68 10-78 21-12 120 31 134-42 10-54-32-117-93-95-95 33-198 171-290-24 246-25 264-164 240-384 95-52 20 391 143 240 28-34-39-528 25-528 163 0 77 162 72 240 83 19 30-72 53-90 6-5 134 38 139 43 93 94-88 93-91 99-67 101 66 85 92 126 45 69 76 173 96 255 174-98 113-159 96-336 316 255 0 796 48 1152 75 20 29-56 64-80 122-81 295-91 31-233l144-24c-75-93-30-183-144-215 147-137 119-368 144-552 120 35 172 87 169 217-112 366-96 767-182 1138-78 335-119 481-347 133-21 102-197 178-212 199-21 30 55 126 45 136-56 58-415 33-240 384-243-53-161 80-288 217 77 69 251-144 309-219 108-142 147-304 313-444 45-38 118-68 146-9-200 116-265 368-410 550-110 139-327 259-405 459v-168c-54 50-137 64-192 96 11-6 152-182 144-191-222-83-216-31-240 167-6 41 83 32 96 25-123 73-316 190-337 336l-71-95c-148 111-75 277-120 432l191-144c71 211-137 110-146 169-30 197 73 401 147 574-150 114-84-168-192-167v336c53-41 161 10 183-8 28-24-23-107 56-87-6 119 11 242 2 362-31 440-198 1252-480 1584-102 120-338 173-338 406-84 19-29-74-51-91-78-60-639 309-752 368-189 99-546 173-690 370-70 96 11 137 6 190-3 29-185 36-97 124 95 94 191-214 144-288 299 77 41 103 48 120 279 209-161 225-175 335 97 330 177 667 286 994 94 284 320 641 345 974 13 163-189 560 23 554v47c-170 13-142 266-239 409-72 107-492 366-608 392-58 13-350 0-377-33-11-13 19-54 20-73 1-100-184 91-186 107-6 41 33 96 27 135-9 54-64 72-75 95-22 47 120-12 95 71-171-37-438-15-590-49-34-8-28-78-69-91-124-39-384-42-504 8-42 17-350 415-362 454-45 145 18 262 38 399l-95-49v192c-79 21-31-82-72-97-78-28-149-7-120 97 69 12 120 44 195 29 112-23 59-123 140-124 104 250 40 516 145 743l-145 72c44 10 107-27 131 26 5 11 34 170 57 189 19 15 316 33 147 194s-494-190-479-215c8-13 185-18 144-145-240-43-493-105-528-384 23 0 82 68 96 48 18-63-69-240-95-192 2 47-6 97 0 144Zm6142-11184c-104 244 151 244 47 0h-47Zm-822 234c13-17 26-134-18-138-58 62-139 100-120 192 26-21 133-48 137-53Zm630 198c-87-16-157 65-192 143 87 16 157-65 192-143Zm-1728 383c104 10 423-56 431-168 11-148-426 76-431 168Zm960-191c-34-30-191 23-191 72 0 119 287 13 191-72Zm-384 144c-148-21-306 67-384 191l384-191Zm-816 911-24-144c-51 44-88 73-72 144h95Zm-144 1c-189-104-256 364-240 383 118 141 109-227 119-240 40-56 160-11 121-144Zm816 383c11-11 53-154 48-192-92 23-108 106-95 192 15-3 40 7 47 0Zm-480 240c-138-141-71 293 48 192 8-6-41-185-48-192Zm639 997c-43-83 10-248-159-228 61 105 34 227 71 336 47 136 93-87 168-50 21-76-66-30-81-59Zm-831 155c28-32-4-240-95-240v240c30-2 90 6 95 0Zm-96 480c118 15 188-91 72-143-24-11-43 112-72 143Zm816 1h-96v191c26 58 121-165 95-191Zm-864 48c-48-49-193 94-143 144s193-94 143-144Zm-383 384c78-35 159-105 143-192-78 35-159 105-143 192Zm1247-1v-144l-144 48c-23 20 84 126 144 95Zm-1536 1c-86-13-168 3-192 95 62 20 241-72 192-95Zm289 191c-31-175-295-25-240 0h240Zm-289 49c-86-13-168 3-192 95 62 20 241-72 192-95Zm-596 6-288 143 35 71 288-143-35-71Zm1701 234c95-26 108-102 95-192-95 26-108 102-95 192Zm-2064 0c-117-31-94 51-144 143h144v-143Zm96 192h-95v144h95v-144Zm288 48c-66-15-128 26-144 95h144v-95Zm-48 1247-48-239h-47l-48 239h144Zm-864 288c22-102 83-149-47-192v192h47Zm1008 1h-96c-26 26 69 250 95 192v-192Zm280 742-88 26 90 303 88-26-90-303Zm-88 410-143-48c-5 134 94 193 143 48Zm240 191c-23-87 8-218-95-240-43 133-81 240 95 240Zm-1968 721c-169 0-424-26-528 143 154-35 435 5 528-143Zm1104 48h-144v95c66 15 128-26 144-95Zm-1680 48c-249-48-235 156-257 180-80 89-265 190-271 347l527-528Zm672 144-192 23c74 105 148 93 192-23Zm1775 240-71-192c-205 198-157 175 71 192Zm-1631 384c-30-18-537-37-479 143 154-50 895 163 960 96 13-13 12-116-29-147-141-107-306 71-427 38-95-26-17-126-24-130Zm-768 288h-95v144c69-16 110-78 95-144Zm-288 528c-108 7-193 288-71 287 74 0 85-217 71-287Z"/><path d="M28509 17476c20 27 0 96 6 139h-143v-192c26 22 133 47 138 53Zm1301-198 47 265-95 23c35-102-143-326 47-288Zm-2687 7633c-5-86 54-205 143-240 18 108-43 201-143 240Zm575-3121c-28 59-119-173-95-240 108 29 102 150 95 240Zm288-1055c61 29-174 117-239 95-61-29 174-117 239-95Zm528-288c-23 92-106 108-192 95-50-23 129-115 192-95Zm-1919 3120v47l-191 49-1-96h192zm14732 16416c2 73 65 147 0 240 192-43 175 45 288 144l-24-192c63 73 139 171 171 262 51 148 4 237 26 316 24 84 189 324 206 372 36 102 121 598 101 695-7 35-74 39-90 74-87 192-141 405-318 536-60-132 135-144 122-307-8-97-251-46-194 18 7 8 132-28 95 72-112 42-302 458-360 456-21 0-150-208-312-95l239 143c-178-31-115 167-287 48 63 246-251 99-432 192-71-295 266-8 383-191-146-23-368 35-498-7-62-20-89-222-173-137-10 10 72 139 96 168-304 44-35-487-384-504-30 79 190 244 144 287-26 24-262-137-274-153-10-13-77-255-94-310-22-70 132-135-111-112l240-239-287 48c82-200-96-250-99-266-31-221 245-175 241-238-2-37-289-187-335-168-21-82 75-29 92-52 23-30-47-93-32-132 3-7 47-82 52-91 13-21 111-60 127-133l-143-71 85-24-38-71c398-69 368-683 815-721-16 226-283-7-240 312 98 109 89-51 128-73 75-43 240-49 283-142 27-57-150-144 3-186 287-79 172 73 185 90 72 96 150 0 234 13 107 16 105 107 367 130 0-33-18-98 24-96l120 143c-64 25-117-45-144-48Zm-1248 288c-6-6-65 2-96 0v143c104 64 127-107 96-143Zm1631 143h-191c-36 114 87 132 191 144v-144Zm-672 49c-41-30-115 31-142 72 73 7 156 171 167 168 106-35-15-232-25-240Zm-1007 144h-144v95c66 15 128-26 144-95Zm192 528c-6 57-114 101-98 215 7 48 120-9 98 72l-239-95 144 336c87 19 30-80 48-96 27-24 116 120 143 96 18-15-39-115 48-96 47 178 178 325 341 405 58 29 177 20 185 29 10 10-23 307 98 190 17-16 194-397 180-422-6-11-91-7-84-32 15-58 128-165 134-249 11-140-217-219 58-327-42-102-181-9-192-23-10-13 12-133-23-198-22-41-113 3-146-39-22-28 11-199-49-197-229 182-158-15-191 0-86 41-17 223-216 96l96 335c-191 51-11-228-167-192-80 18 148 302-168 192 5-45-36-141-95-144-21 172 10 114 95 144Zm-144 0c-45 12-161-80-192-48-59 61 132 250 192 48Zm1871 575c33-132 14-274-1-407-6-54 37-133-46-121 86 272-186 247-192 480 51-48 136 3 139-3 27-45-40-155 52-141l48 191Zm-4318 433c15-22 60-176 48-192l-191 96c76-276 553-200 624-240 5-3-55-77-3-119 38-31 349-121 339 23l-240 48c117-54 271 124 336 96 7-3-71-173 71-143 120 25 20 182 26 190 42 54 264 8 350 54 153 80 526 616 511 812l-96-240c-232 113 30 233 36 249 13 33-49 78-13 136 45 73 165-130 121 264-26 236-133 355-212 547-21 52 49 177-76 197l-96-144c67 79-51 288-105 326-12 9-64-37-77-28-22 16-30 94-85 129-63 40-149 35-211 80-49 35-45 113-50 117-29 23-443-400-576-458-37-16-149 95-239 26l48-192c-133 23-204 62-287-73l143-24c-91-106-78-155-48-287-62-7-155 30-198-28-20-27-91-586-94-671-3-91 184-69 100-165-11-12-76 49-88 41-158-103-12-540 64-281 27-59 147-112 168-144-6 5 3 66 0 96h143c65-104-108-127-143-96Zm1151-1v-144l-144 48c-23 20 84 126 144 95Zm384 192-240-239c-43 147 123 221 240 239Zm-1439-47c-48-47-238 148-192 191 70 65 204-180 192-191Zm336 816c111 65 189 188 336 193l-287 119 311 121-71-96c142-76 162 38 287 47-112-261 29-167 73-237 22-35-25-88-21-116 5-39 90-28 93-58 13-151-134-326-242-423-19-17-78 16-86 8-38-33-49-177-57-182-11-7-80 49-116 50-44 0-22-91-29-97-108-90-101 139-148 212-39 60-124 68-134 82-12 16 85 274 90 378-42-25-209-122-240-96-83 73 183 146 145 239 125 26 101-38 95-144Zm1007 47-143-335c23 113-41 348 143 335Zm432-47c-73-74-153 136-144 143 59 48 189-97 144-143Zm-624 48h-95v144h95v-144Zm96 335c116-100-230-143-239-144-64 123 215 164 239 144Zm-15451 2497v-192c241-41 343 217 567 248-40 266 218 264 342 356s133 346 291 357c38 189-129 24-143 47-73 123 74 123 95 191l-143 73 144 48c-143 80-231 75-193 280 6 33 228 49 2 176-79-347-188-3-336-169-34-165 189 66 143-94-13-45-91-168-125-213-115-157-413-274-355-484l-119 144c-62-45-155-147-220-170-86-30-217 21-316-83-92-96-47-284-304-227l192 144c-210 283 6 13 143 167-149 32-161 220-198 255-9 9-78-40-112 6-58 77-68 242-73 340-303-125-38 97 25 240l118-24c-84 105-104 210-225 184-202-45 66 126 73 136 9 15-29 70-19 101 57 178 62 381 222 443-424 129-368-104-486-368-62-137-65-157-114-305-24-73-96-128-116-196s176-108 92-210c-14-17-120 68-143 48-92-80 93-99 98-127 7-45-34-111-24-167 46-248 149-410 286-617l-24 192c111-53 225-177 194-307-9-37-91-26-94-32-64-98 271-261 331-311 47-39 45-114 50-118 21-17 431 186 478 240Zm202-15c-45-34-33-161-154-129 15 316 42 124 182 202 39 22 66 220 202 181-60-65-81-187-123-242-35-46-91 0-107-13Zm-58 495c-19-26-199-62-192 47l192 97c-6-40 12-128 0-144Zm15595-9264c-248-107-293-536-575-432l48-143c-32-28-285 171-397-111-55-138 28-187 52-310 25-130 52-167 51-178-1-29-61-82-35-114 19-22 103 13 89-32-36-119-200 2-239-24-67-45 3-536-241-432l-47 95c-68-274 254-54 240-239 30-20 404 518 575 336l-95 120c154 96 161 39 216 216 131 13 16-227 72-288 3-4 60 45 85 35 21-8 254-308 251-370l48 144 288-121c256 392-245 458-432 721l287-72c-19 212-303 124-96 336l-143 24c9 69 218 326 274 364 84 56 311-136 349 189-15 16-123-69-143-48-79 84 70 98 80 112 71 105-71 109 159 128-4 47 2 96 0 144 117 31 94-51 144-143-47-4-96 3-144 0 5-60-29-122 69-94s310 274 266 334l-192-71c-39 101 93 53 97 100 3 38-45 88-28 165s137 191 121 258c-20 80-228 72-165 268l-264-336c48 197-89 271-145 432l-314-526-213-218c126-111 118 196 236 116 11-7-7-154 195-93 10-82-116-43-140-126-17-59 76-138-3-186-27-16-100 29-142 3-69-42-63-197-194-169-15 16 75 198 96 240 69 30 123-42 95 144-84-8-73-99-95-144Zm-13676 8544c-27-32-89-143-120-143-92-1-89 235-167 239-23-44-41-232-50-240-10-10-179 86-238-72-30-103 88-62 95-72 11-16-185-158 0-287-151-8-269-7-360-144-67 21 44 126 24 143-65 56-331-269-357-274-121-23-372 233-314-61l239 48c-5-72-69-556-48-575 29-26 367-11 72-288-29 238-252-205-360-288 160 88 170-29 264-144 53 115 161 163 234 241 38 41 136 172 223 264 35 37 43 114 48 118 103 80 179-267 285-188 40 30-59 157 242-3 16 138-63 214 71 242 205 43-76 189-142 191-35 1 4-150-120-97 30 132 324 254 0 215 75 95 211 325 263 120 55 23 160 243 214 304 40 45 119 22 135 41 58 70 147 408 325 569 61 55 160-31 214 71l-143 24 144 287c-168-72-204 99-218 99-72 0-138-86-189-82-43 3-102 102-191 79-67-17-61-131-74-144 1 5 106 76 96 23 2-132-34-142-96-215Zm-48-673c57-57-95-191-192-143 11 63 151 184 192 143Z"/><path d="M25587 45743c14 14-13 148 0 192-53-55-169-98-192-192 46 6 180-12 192 0Zm-6862 2448c10-12 0-77 48-118 103-89 279-110 399-171 48-24 120-134 130-142 118-96 42 253 287 143l-96 143 192 73c-291 60-181 213-204 255-5 9-132 137-141 141-27 14-80-37-108-32-101 18 47 206-171 140-18 105 255-14 191 119-53 112-276 110-288 121-84 85 130 74 96 215-12 50-99 16-144 25-22 80 90 23 99 76 21 114-117 265-83 333 48 96 391 244 127 335 174 75 485 588 168 634-139 20-133-170-181-213-40-35-186-35-227-133l143-71c-230 52-61-200-288-145l144-96c-50-154-171-45-288-48 108-175-19-122-45-180-193-432 144-88 236-324-174-38-34-225-96-359l-120 287c-83-175-74-464 48-623l-24 239c408 84 98-58 96-76-7-75 55-185 0-307l-97 23c35-109 122-182 193-264-7 11-16 102 24 96l120-143c-36-13-134 31-144 48Zm433 240c78-35 159-105 143-192-78 35-159 105-143 192Zm-241 144c-51-43-159 87-192 143 112 77 208-130 192-143Zm27965-4742c47 50 32 159 73 215 85 115 301 40 177 254l289 97c-110 190 102 123 96 336l120-96c66 170-232 236-169 0-105 7-47 111-63 133-24 33-107 39-143 119-29 63 28 166 14 178-13 11-246 68-287 170l144 24c-31 123-347 122-449 98-92-22-22-188-31-194-106-66-97 93-116 92-496-21-148-406-186-607-24-125-109-180-122-242-23-108 76-172 71-229-3-43-78-83-78-95-2-106 319-59 335-72 21-18-114-191 31-234 70-21 245 2 294 54Zm-37 38c-7-7-157-53-192-48l168 143c41 6 28-90 23-95Zm-25882 3764c144 82 49 17 179 38 195 32 50 259 98 327 155 107 765 442 820 573 22 52-29 95-25 145l-144-239c-277 20 72 217 97 312 13 51-119-15-96 71l167-95c142 64 133 231 13 273-23 8-79-42-84-34-53 79 112 227 96 240-101 20-159-96-256-86-79 8-199 149-223 134-3-2 8-53-18-77-53-48-153-78-172-147-28-105 139-202 92-255-88-102-100 149-143 95-8-10-10-85-48-120-195-187-361-306-550-507-46-48-159-90-165-100-27-47 33-138 26-200-4-37-120-417 17-297 43 37 22 134 95 121 1-225 18-288 223-171Zm23853-1876c15 16 8 74 31 109 18 28 75 16 77 19 18 30-80 75-81 117 0 28 74 85 80 147 13 124-15 246 14 370s173 228 83 421l-47-96c-234-20-384 28-192 239-205 45-201-164-432-96 61-109 25-237-95-288-50 190 235 138-24 241l-48-97-48 96c-66-79-185-132-168-240 244 227 193-102-72-144l-72 97-48-480 238 24-239-143c72-40 476-251 505-250 43 1 88 101 118 81 5-3-10-66 11-82 47-38 139 1 197-14 28-7 53-197 212-30Zm5662-4371c26 32 205 326 206 346l-288 25c4 107 130 46 137 57 14 22-2 77 23 118 18 29 77 14 79 18 32 44-191 130-190 167 0 15 77 58 86 105s-50 87-62 137c-8 33 32 96 20 112-14 18-113 21-158 51s-28 95-33 98c-13 8-208-137-287-95l48 143c-135 33-173-123-260-152-113-39-213 18-219 9-9-15-6-335-3-353 12-60 119 2 98-79-256 75-309-284-262-483 208-185 346-107 572-144 96-16 186-133 314-93l-95 120c97 27 173 135 287 120l-143-217c-34-129 118-23 129-9ZM22345 53547c11 17 73 14 76 51 7 72-74 186-6 276 43 56 136 18 149 29 5 4-42 75-34 112 15 71 135 129 130 223 211-106-75-250-25-383l504 696-23 71-264-192c-52 63 215 312 143 384-5 5-82-12-125 17-67 45-106 169-116 174-58 32-334-346-406-95l-120-239c196 39 228-162 137-281-5-6-64 22-88 7-70-42-131-100-198-132-54-26-151 35-187-51-40-98 105-38 97-138-5-56-51-113-51-173l-94 48c87-123-29-219-29-265 0-56 125-81-20-215 125 9 178 30 216-96l264 288c67 8-341-493-120-383 36 18 153 211 190 268Zm459 1076c13-90 0-166-95-192-13 90 0 166 95 192Zm10413-7633c18 17-13 400 0 480-122 8-242-113-335 25l95 22c-50 215 93 86 144 192-97 28-290-8-370 34-109 57-81 159-157 158 41-193-86-122-169-189-105-85-115-285-263-291-11-100 140-14 186-53 8-7 57-191 56-207 0-20-193-44-98-123 32-27 329 161 431 96 26-188-71-17-145-71-52-38 41-142-94-122l144-191c101 57 87 172 237 218 97 30 327 10 339 21Zm-48 288-143-144c-16 156-12 160 143 144Zm-1584-3648c46 144-59 339-47 454 10 95 154 215 95 362-101 10-22-161-48-192-101-122-89 191-96 192-81 20-30-65-53-85-9-8-176 36-234-11l48-191-96 144c-161 33-36-139-192-96 92 161-163 94-48 239-192 42-233-125-97-212 51-33 130 113 97-172l-143 144c-49-266 78-155 130-202 26-23 19-105 63-154 181-202 305-60 404-81 66-14 57-202 218-138Zm-12140 2784c67 38 400-42 385 144h47c-23-180 119-39 240-47-135 101-63 295-106 374-7 13-226 155-254 155-24 0-19-68-62-93-231-130-109 87-296 90-16-178-359-204-50-287 22-84-99-20-98-72 1-75 129-255 97-377-15-57-115 3-94-77 273-35 177 183 191 191Zm144 384c-43-130-89-69-192-47v47h192Zm1968 5424c-238-99-98 2-148 91-5 9-105-54-140 29l96 120c-75 2-154-41-228-16-49 16-84 195-155 112-61-72 154-140 124-290-37-189-300-80-316-94 4-286 70-171 264-253 38-16 10-93 47-83 115 31 389 269 456 384Zm-185-345c11 7 167-77 232 82 74 181-408-129-432-148-17-13-54-160-47-165 103-74 231 221 247 230Zm12613-9110c-19 21 60 135 48 143-11 8-185 42-240 98 2 92 187 130 194 170 10 56-28 161-74 164-79 5-234-361-240 49-99-38-289-353-324-373-184-105-246-125-418-322-86-98-631-747-651-794-25-57 29-134 24-139-10-9-91 0-137-33-180-129-351-485-581-499 228-238-257-415-335-648l95-23c58-110-173-612-335-625 49-269 387-31 335-383l-239 143c-48-261 296-211 330-246 25-26-19-202 102-261 77-37 169 81 239-45l-95-145c183-69 441-153 637-153 93 0 214 63 323 34l-97 143c-82-87-265-127-335 0 165 51 495-2 552 145l72-121 96 168-96 48c273-25 231 329 291 492 15 41 77 34 89 72 36 116 7 275 99 395l-191-287c-72 117 42 413 38 446-17 132-286 379-281 489 0 21 155 4 90 184-51 142-247 87-135 225l-145 24c109 57 187 243 254 300 59 51 349 84 418 276-289 89 283 217-96 383 39 161 195 214 240 264 109 125 121 340 384 288-93-127-19-125 96-48Zm-1008-3408-239-97c-59 76 210 285 239 97Zm-576 480c-83-268-68-151-252-243-38-19-38-94-57-92-66 7-211 114-282 152-59 31-169 33-176 39-18 16-27 119 69 93 46-12 154-109 170-94 94 89-275 230-335 192-14 92 102 27 144 49 21 11-78 292-78 309 3 67 240 445 317 361-14-235 11-103 169-97 99 4 212-37 310-48 21-78-67-34-83-56-126-177 61-98 71-103 4-2 16-47 54-74 23-16 82 0 93-12 64-68-34-194-40-235-8-55 70-191-95-240 2 31-7 70 0 96Zm240-288h-95v144c69-16 110-78 95-144Zm-96 1056h-144v95c66 15 128-26 144-95Zm240 1056c93-253-139-268-335-288-2 193 233 155 335 288Z"/><path d="M32497 39983c26 103-29 133-73 49-35-68-9-147-23-193 9 37 87 107 96 144Zm1344 2496c53 49 303 215 240 288-9 10-87-9-96 0 10-13-131-278-144-288Zm0 0c-155-121-40 135-48 144-70-105-258-79-288-96-7-4-25-116-48-144 322 78 200-14 241-48 35-30 118 120 143 144Zm-815-1632c-45-53 150-294 239-288 55 59-226 304-239 288Zm10028-6192c-180-74-87-70-144-144 11 22 148 73 144 144Z"/><path d="M40703 34463c72-122 243-288 336-408l-95-71c170-52 355-50 527 0 36 91-76 171-79 216-3 57 102 135 75 232-43 154-343 31-188 319-128 6-178 33-216-96l-72 97c13-176-138-133-96 48l96-48v144l144-48c82 257-154 163-189 270-20 61 28 162 35 237 10 106-114 129 154 165 33-98-257-382-73-383 103 69 114 432 177 472 38 24 123-10 172 18 28 16 60 140 130 188 91 61 185-52 241 139 68-171 239-167 384-240 66 21-44 127-24 143 37 30 138-54 192-48 60-113-99-91-96-118 10-119 421-295 385-505 196 81-13 135-48 217-25 57 14 95 71 71 135-57 251-388 385-479l47 143c21-113 202-176 216-193 157-186-219 12-239-23 62-173 266-126 280-134 26-16 13-95 56-82 5 2 37 74 48 96-48 19-270 386-288 456-20 78 180-104 143 47l-191 73 120 143c84-94 123-218 217-304 50-45 93 29 94 40 1 20-146 303-175 349-86 133-355 232-159 395h-240l95 120c-109 31-192 212-241 243-95 60-283-114-383 94l95 71c-187 77-117 6-144-14-152-114-63 53-104 99-27 31-173 35-232 59 5-2 52-92 48-96h-336c17 104 225 120 288 96-4 2-19 51-59 64-263 81-513-173-805-112l96-71c-29-64-236-157-238-192-1-26 129-83 94-168-132 18-229-1-335 96-2-99-100-147-132-229-28-70-208-622-208-658 0-24 89-20 98-57 79-328-78-501 144-880-50-19-161 87-174 112-41 83-13 249-114 271-43-97 217-757 287-384Zm671-384c-59-48-189 97-144 143 73 74 153-136 144-143Zm-384 864c-198-187-316 154 0 47-2-15 7-41 0-47Zm241 863c-16-69-77-110-144-95v96h144Z"/><path d="M42910 34511c-24-31-74-39-106-108-68-147-23-495-41-514s-133 27-144-28c-17-86 17-214 4-310l143 288c38-300-58-728 240-912 38 44-246 346 72 97l72 192c-211-123-86 177 37 81 135-105 128-427-85-273l-48-192c80 35 305-66 336-48 16 9-114 201 240 143l-192-287c96-12 214 21 304 0 37-9 34-97 53-95 40 3 533 314 549 342 37 64-57 171-43 185l143-48c-105 260 110 144 239 217 34 19 95 136 185 198 205 142 463 76 536 352l-192 24c157 211 302 151 527 120l-143 47v144c-119 37-236-125-336-75-88 44-49 120-68 159-5 9-202 142-51 156 181 17 227-154 263 143-115 14-187-101-286-122-74-16-357 10-433-70-6-7-17-98 25-96 98 5 200 188 359 25-91-76-437-262-528-216 26 94 22 269-9 352-23 62-102 68-117 96-118 215-107 357-353 464 134-64 59-498-95-264-5 84 223 124-49 241 0 41 132 30 144 24-4 2 1 48-72 52-61 4-524-91-546-108-23-19 1-74-6-88 30-12 101 9 144 0 65-36-145-83-192-96-143-39-221 0-336-48l48-24c-1-60-33-108-48-168 89 34 152 87 240 96l-217-191c-134-13-37 38-23 95-46-17-98-25-143-48 3 30-8 80 0 96Zm658-1327c-17-20-124-71-129-66l-49 384-95-192c62 308-173 270-190 290-44 49 12 280 141 238l48-192c14 136 3 358 143 239-19 153 92 216 229 235 68 10 110-145 204-139-250 553 217 256 144-144l-143 48c68-389-68-384-269-596-21-22-13-83-33-106Zm254 78c-13-65-149-183-192-143-74 69 109 157 192 143Zm527 1c16-88-53-159-143-144l143 144Zm-42 904c-14-13-4-62-6-88h-47c-67 242 229 151 143 47-5-7-80 51-90 41Zm1050-2296c41-23 233-79 288-96-13-87-141-6-95-191 61-28 53 203 143 96 80-95-96-162-96-171 2-71 68-154 11-252 107-83 648-785 805-632 89 87-85 139-95 191 71 20 163-54 213-50 35 3-9 155 171 50-21 141 1 165 144 145-23 107-214 137-260 189-82 94-15 43-159 159-27 22-359 492-62 371-186 254-115 76-166 57-158-58-220 79-265 207l-96-72c-94 208-28 186 143 288-24-40 44-396 144-288 7 8-20 205-23 215-68 208-209 108-216 121-26 45 31 237-8 281-24 28-177-2-185 102l192-47c-13 219 59 306 176 451 24 30 7 103 22 117 36 32 262-34 330 129l-139 232c-135 8-142 119-150 125-12 8-113-96-215-100-88-3-62 92-102 101-188 43-365-75-185-239l168 95c-25-325-157-139-315-147-119-6-287-257-260-380l143-24c-57-129-221-5-239-25-30-32 146-201-96-264 230-68-62-132-144-192-12-170 280 32 335-23v-240l144 48c-2-111 5-224 0-336-73 41-19 107-96 96l48-287c84-10 45 135 47 192Zm720-768c-42-35-282 91-239 192 126-40 206-49 239-192Zm-713 1233-50 100 269 134 50-100-269-134Zm617 1119c16-88-53-159-143-144l143 144Zm-4283 566c-3 8-108 94-131 105-53-182-112-230 95-288-19 59 48 150 37 183Z"/><path d="M42574 33502c-6-91-14-211 95-240 12 126 91 243-95 240Zm-1297 1778c33 22 161 245 25 238-54-3-76-175-119-216-6-40 83-30 94-22Zm-766-50c-178 40-69-234-95-336 131 45 29 228 95 336ZM24868 47182c-10-7-55-196-48-240 194 31 121 296 48 240Zm13099-10127c10 77-155 53-212 55-69 3-114 61-171-32l383-23Zm-1343 6432v95c-88 12-140 2-191-72l191-24Zm1396.8-7778.6 70.8-47 147.2 221.5-70.8 47"/><path d="M36240 46079c-38 23-87 102-165 147-232 133-364-6-171 381h-288l48 240c-101 24-124-98-215-97-15 0-27 159-243 56-118-56-80-129-165-150-10 108 197 439-44 284-47-30-167-579-211-654-37-62-336-239-250-350l168 144c-67-140 67-358-95-432-14 131 129 216-48 192l-446-636c-86-174-137-390-206-560s-242-253-116-531l72 98c364-55-26-159 96-338 63 105 175 175 248 251 13 13-18 69-6 87s278 126 310 262l-144 48c75 61 134 298 145 312 85 99 97-103 119-96 149 48-46 178-24 191 289 109 274-193 343-234 13-8 75 61 89 43 79-107-128-131-191-120l445-587c258 26 588-451 690-486 37-13 262-49 256 40-91-24-121 7-188 37-20 9-155 77-148 107 237 0 691-248 839 0 172-198 102-29 168 96-24-45-188-92-143 23s206 93 143-23c72 135 217 59 192 168-12 53-83 9-96 25-94 111 98 82 130 105 97 67 22 278 14 375 59 29 58-206 143-95 19 25-13 224 0 288 79 14 56-123 49-169-22-147-117-253-97-407 398 324 2 1002-145 1392-172 9-96-93-119-192-92 54-132 176-196 238s-188 39-213 171c-5 27 88 18 93 26 86 119-369 297-428 333v-96h-144v95h144Zm336-2400h-144l49 95-240-24 264 167 72-239Zm-2352 767c15-66-26-128-95-144v144h95Zm1152-143c-59-48-189 97-144 143 73 74 153-136 144-143Zm768 960c11-19-11-83 0-95 30-32 355-93 288-288 81-17 33 43 47 65 69 105 87-150 99-174 17-34 177-58 93-132-22-19-167 71-191 48 68-317-139-397-433-361l144 49c-223 197-418 314-580 573-41 66-28 145-58 205s-218 109-129 349c121 58 80-94 124-96 144-6 228 19 404-48l-240 240c95 16 129-83 216-98 102-17 41 124 137 93 50-16 102-98 174-92l-191-48c2-89 232-71 96-192Zm-528-672c20-32 109-134 96-144-91-20-129 62-192 120-2 44 63 21 96 24-20 32-109 134-96 144 91 20 129-62 192-120 2-44-63-21-96-24Zm1440 576c200-85 123-216 95-384-173 31-221 197-48 96l-47 288Zm-2496-240s-101-18-95 23c34 25 152 416 239 312 77-92-94-170-132-226-21-31-4-100-12-110Zm-48 624c20-69-174-348-239-288l239 288Zm1968 144c-81 39-364 55-336 191l336-191Z"/><path d="M36144 45263c-45 81-119 71-192 96 15-6 57-135 192-96Zm-1631 575c-94 42-246-74-191-144 7-9 192 84 191 144Zm-9117 97 143 120c-91 131-161 18-143-120Zm-3648 7679c-29 61-117-174-95-239 29-61 117 174 95 239Zm23177-6383c-151-52-66-134 48-192l-48 192Zm-22885.5 7148.6 76-38 105.8 210.8-76 38.2zm-627.5-5085.6c-23 50-115-129-95-192 92 23 108 106 95 192Zm-96-383v96c-71 16-100-21-143-72l143-24Zm3503-1632c-92-23-108-106-95-192 23-50 115 129 95 192Zm-767 4128c91-120 237-246 361-335l-73 287c-224-107-109-2-144 96-43-12-90-51-144-48Z"/><path d="M24340 51359c153-87 297-226 480-241l-287-95c119 16 295-31 402 7 82 28 47 183 198 138 18-5 27-100 46-97 103 14 234 33 333 48 24 4 60 245 148 0l72 144-288 96c334-51 191 63 294 212 35 51 102 66 139 113 105 133 85 269 335 252 11 96-119 2-95 95 175 42 159 387 335 505-2 155-204-28-143 216l192 71-144-72-24 192-312-432c47 231 40 295-192 384 21-165-143-258-147-407s209 21 146-217c-289 252-230-50-360-96-48-17 0 113-47 96-127-46-194-366-277-401-124-53-418 59-543 60-15 0-6-161-212-42-71 104 198 106 96 191s-299-197-336 0l96 96-143-48-48 289c138-101 75 47 191 96 6-92-19-302 96-336l-48 384-143-48c41 106 113 642 144 672 154 149 21-242 71-240 214 173 58 272 36 416s254 361 300 112l168 217-191 23c-58 164 110 142 133 220 3 10 2 194-3 203-5 9-144 157-154 153-175-68-62-230-72-239s-139 43-191 0c93 211-51 159-49 336-98-56-205-204-251-303-27-59 20-132-11-180-9-14-191-37-256-174-46-97-37-233-82-307-29-47-117 7-143-42-13-23 27-89 19-95-29-20-126 9-139-4-56-54 0-217 144-96l-144-551c37-92 140-18 144-25 47-88-58-277-48-288 101-99 77 121 143 95-47-346 73-172 120-236 156-214 3-235-7-258-22-54-7-115-19-139-26-50-79-41-82-47-40-81 214-320 325-327-5 7 7 47-15 81-33 51-177 90-129 255l288-288c134 36 258 191 336 0-91 20-154-79-192-97Zm480 383c-47-132-208-129-288-23l288 23Z"/><path d="M26019 51647c-89-35-148-154-143-240 89 35 148 154 143 240Zm576 816c-100-39-161-131-143-240 21-44 171 206 143 240Zm-3071-1h-47c-16-101-80-123 24-192l23 192Zm-671-5423h47v240h-47zm-5807 4272c21 20 159 366 0 240-51-41-151-386 0-240Z"/><path d="M16278 51215c0-66-12-275-32-323-31-73-315-303-232-445l144 144c53-141-166-300-240-432l-71 143-145-407 144-48c-157-70-320-203-335-387-2-20 97-22 98-46 6-84-138-196-98-264 6-11 86 56 120 1 50-80-28-141-14-186 5-15 229-150 256-199 69-125-134-434 142-576 117-25 95 307 311 0l-169-97c72-138 337-95 353-105 17-11 34-104 76-137 261-209 420-205 724-199 50 0 154-53 167-39 28 32-118 364 141 413 59 11 141-35 146-29 94 112-175 127-191 145-68 72 195 161 144 263l-144-23c43 151 37 281 0 432l143-192 96 95c17 158 10 157-143 145-19 84 74 30 91 51 29 37-145 441-258 457-45 6-129-50-164-26-12 9-133 253-135 268-11 66 62 140 12 211-44 63-123 4-171 28-33 16-127 180-178 209-69 40-290 87-301 98-82 85 99 102 99 122 0 44-73 124-46 158 14 18 77 18 89 37 36 57 10 80 22 104 8 16 78 0 77 36 0 77-95 111-99 191-1 19 217 178 194 312l96-120c143 125 287 619 48 312-35-45 79-155-193-23 0 35 87 233 109 252 28 24 75 4 84 11 80 57 192 156 261 195 66 37 119-8 122-3 25 34 35 206-95 95 25 165 49 335 239 240l-48 385-143-48 47 192c-248-168-167-27-215-7-109 45-347-233-383-331s-9-186-33-256c-5-15-86-172-122-256-41-96-157-146-197-240-16-37-44-173 38-158 58 77 54 317 192 287-8-86-69-225-122-287-67-78-194-93-310-145 3 194-109 102-144-48 69-19 96 26 144 48Zm1248-3168-384-144 96 143c-125 19-288 52-400 105s-139 69-256 121-150 198-192 208c-59 14-186-16-207-1-15 11 30 84 24 119-6 41-66 297-75 311-3 4-66-34-95-19-67 36-69 125-110 152s-121 4-129 12c-33 33 98 170 101 265 3 89-154 52-102 229 5 16 222 246 240 154l-143-264c164-7 160 199 263 290 12 11 273 141 289 140 99-3 61-276 72-287 20-22 156 42 210 36 20-2 353-138 367-152 35-35 88-94 23-123l-120 96c52-216 220-430 431-505l-95-23c-47-128 114-197 124-262 35-225-210-461 67-602Zm10 1015c16-25 110-33 133-79-202-202-279 184-190 312 122-1 50-222 57-232Zm-634 665c-86-13-168 3-192 95 62 20 241-72 192-95Zm-624 336-240 143c287-131 202 174 431 288-31-159-194-279-192-432Zm576 2496c-92-23-108-106-95-192 23-50 115 129 95 192Zm4702 47h-95v-144c69 16 110 78 95 144Zm23513-6239c15 66-26 128-95 144v-144h95Zm-17623-3969c28 37-10 119 36 128 123-26 422-506 313-96l192-47c-11 103-138 65-179 108-30 32-17 125-58 159-33 28-130-46-147-28-57 61 143 295 143 312 0 32-118 100-143 72-21-24 47-160-48-144 21 99-94 191-98 262-1 24 346 245 433 122l-48 144c138 21 200 62 288-72l-192-24c-87-63 360-102 403-86 93 35 35 160 148 135 21-5 128-264 360-144 6 3-66 106 24 143 138-260 85-6 96 0 124 68 369 76 500 172 22 16 374 370 386 395 41 83 48 205 49 297l-143-240c-55 205 241 442-96 336v240l191-192c-78 178-46 486-93 641-16 52-114 22-168 79-24 26-133 267-122 287 110-75 193 63 143 144-3 4-67-39-96-21-51 32-75 155-122 165-53 11-107-92-168-76-96 24-272 193-429 173 132 210 331-40 479-97 81 79-341 307-470 230-24-14-51-134-105-158l96-71c-265-29-121 13-215 142l-456-95c152-233 246 35 384 0l95-96c-6-97-179-30-256-48-16-4-57-160-269-44-12 7 90 203-163 142-13-3-163-163-192-194-18-19 5-82-10-98-76-82-221 25-165-237 92-39 270 150 335 95 106-90-132-76-95-167 48-118 226-154 337-98 104 52 131 381 215 24l167 49-143 95 575-47-144 143 240-48c25-24-89-87-89-120 0-29 202-244 220-275 7-13-58-264 110 59l94-121c26-151-107 7-143-22-7-5-51-150-50-163 1-29 75-28 82-45 22-55 7-120 18-140 36-67 128-2 94-133-208 116-86-126-287 0v-145c-122 87-79-12-130-48-40-27-102-23-128-42-71-52 53-213-270-149-33-199 187-24 288-48-115-211-386-224-385 48l-383-144c65 269-216 33-192 240l383-48c28 118-51 108-137 115-202 16-547-33-726-139l383 24c21-89-97-17-96-72 0-49 290 56 48-263l-142 96 48 120c-448 138-288-97-433-241-91-90-293-25-145-229 36-50 126-66 145-107 39-82-63-66-76-88-30-50-29-122-65-151-22-19-95 28-98 24-41-63 206-590 287-651 28-21 163 67 180 90Zm-323 464c176 40 172-239 72-239-65 0-88 173-72 239Zm2111 961c-6-8-156-52-192-48 39 170 291 172 192 48Zm48 1104-143 24c44 51 73 88 143 72v-96Z"/><path d="M28754 45839c-83 129-338 2-456 0-90-2-172 61-263 48 37-292 512 41 719-47Zm-720-3792c14 245-115 177-239 95l239-95Zm1680 1487c-150 29-142-22-192-143 50-39 177 80 192 143Zm145 1153h47v240h-47zm1583-49 143-144c16 91-56 160-143 144Zm-11846 8873c55 48 377 41 282-137 173 188 222-30 431 0 26 170-90 37-203 95-124 64-127 167-84 289 92 14 27-99 50-144 4-8 135 44 189 0 53 126-98 83-97 120 2 72 87 133 112 225 56 212-16 365-63 567l-96-24 133 289-395 699c93 128-216 234-121 331 47 48 467-319 526-354 77-46 211 43 289-246-260-43 254-357 172-68-14 50-130 135-52 189l216-264c-179-30-90-155 25-168 20-2 4 102 93 102 130 0 227-120 362-101l-96 191c39 32 392-246 144 25 238 60-60 224-144 336 30 35 328-75 192 71-42 45-548 128-576 336l144 24c-100 95-389 182-466 277-72 88-52 265-62 275-18 19-510-69-527-49-6 8 11 123-26 192-14 25-173 91-165 168 3 34 90 102 120 24 9-22-29-92-25-95 28-14 106 12 156-3 19-5 155-241 179-23-122 69-233 221-357 269-144 56-239-11-315 18-161 63 135 70 48 169-14 15-150-94-191-96l143 96c59 125-291 223-335 191-10-7 112-182-24-239l24 191c-113-51-159 96-172 96-85 5-277-96-403-48l96-71c-61-146-185-62-191-72-33-55 60-254 47-356-12-92-137-202-125-293 5-41 116-118 77-167-13-16-116 37-95-48 48 17 265-102 289-129 195-223 140-588 430-664l-95-23c-55-236 207-336 262-433 90-158 191-413 247-579 34-103 117-175 114-284-113 95-242 72-383 96l96-71-143-120c38 268-236 75-362 289-33 57 31 133 23 140-27 25-360 100-238 243-234-85-143-23-229 46-162 131-487 476-650 540-14 6-218 48-224 39-96-136 393-296 0-359 111-387 180-20 383-193-236-127-110-361 121-408 27-6 16 109 114 122 104 14 391-137 174-170-22-3-337 25-217-95s157 51 167 47c88-33 216-159 360-145h-288c210-220-62-79 47-216 283-5 129-85 189-142 34-33 258-155 291-97l-167 217c109-24 552-325 599-288l-96 143 240-96-95-48c-48-172 125-30 143-143l-240-24c0-44 230-36 193-168 101 7 77 163 102 184Zm809 2119c156-5 205-111 143-239-82 19-70 178-143 239Zm-864 432 192-528c-131 76-188 243-219 381-11 48-61 159 27 146Zm-240 576c11-10 63-221 48-240-101 21-81 148-143 217-6 41 91 27 95 23Z"/><path d="M18918 55487c-13-90 0-166 95-192 13 90 0 166-95 192Zm1439-1248h47v240h-47zm-1584 1728c-31-29-154-48-143-72 52-116 159-46 143 72Zm12764-12528v96l-191-49v-47h191zM24100 60383c54-181 159-339 193-528l71 191c143-99 198-497-24-383-6 3 60 151-24 143-107-10-106-204-72-287H24100l95 95h-191l96 96c-199 53-353-156-96-167l-108-61-1523 277 240 95-49-95c239 108 239-38 271-46 28-7 96 30 153 15 124-32 239-93 368-112 49 9 30 65 0 96-148 157-985 243-1225 238l96-71c-35-242-321 10-433-73-11-8 86-126-46-253-51-49-124-44-169-82-62-52-382-334-122-337 20 129 99 214 241 191 41-157-213-78-225-215-7-79 194-544-14-506v-47c169-3 217-334 48-360l168-168 24 143c14 14 132-93 143-121 47-112-116-33-95-119h191l-95-72c86-304 453-279 533-379 58-74 35-213 43-221 12-13 145 27 198 21 88-10 171-40 260-45 77-4 87 109 285-73 39 52-69 138-90 193-91 234-77 137-222 336 74-89-89-153-143-23-47 113 136 32 143 23-110 150-99 278-168 432l-96-191c-234 47 128 113-23 169-59 22-134-7-192-25 43 158-16 294 96 431-26 22-219-51-121 88 182-117-57 232-119 201l95 71c-34 80-185 65-192 73-37 40 92 254 120 48 103 69 368 258 477 244 21-3 58-252 147-4 139-156 441 53 504-240h-192c21-94 194-118 284-121 338-11 808 52 1163 99 65 9 405 61 424 71 13 7 30 259 24 287-103-362-479-230-792-288 115 175 405 45 575 120 141 63 111 181 145 263-26-50-238-97-191 23 42 110 260 106 191-23 21 49 87 90 48 192l95-144c7 174-11 373-60 539-36 122-132 168-131 277 232-82 126 191 0 240 35-184 108-173-96-240 71 170-35 319-96 480 123-61 99-153 191-192 41 143-94 262-190 361-37 39-111 136-97 0 69-45 71-105 95-169-80 39-107 39-192 0v240l-95-48-49 192 168-95c50 172-244 315-240 48l-120 120c-38 97 201 70 48 144s-943 249-1130 263c-53 4-178 36-167-47l192-25c-35-206-169-73-262-69-52 2 8-121-74-98l-72 143c-153-121-23-303-216-408 39-29 175-38 96-120-24-25-186 64-144-96 179 83 121-203 264-191 207 17-144 170-72 238 27 26 431 105 432-47l-240-49c47-206 450-27 480-48l-48-95c158-117 514 19 624-24 157-62-42-69-46-74-35-60 123-184 189-239-15 51-82 160-24 192l216-336c-8-9-164 122-191 144Zm-1296-2976-169 96-166 191c180 28 102-4 142-71 69-115 137-112 194-216Zm-720 1344c-187-39-198 76-72 191l72-191Zm-192 287v-240h-47v240h47Zm1680 2352c242 91 431-17 623-167l-146-3-477 170Zm-432 0c-16-69-77-110-144-95v96h144Z"/><path d="m21317 59039 23-192c105 74 93 148-23 192Zm5134-8304c-9-50 21-161-6-188-22-21-169 41-173-132-3-129 109-171 130-235 30-91-86-56-93-98-3-15 22-271 29-299 30-121 171-118 114-296l-143-23 120-120c184 277 139 0 213-123 68-113 325-330 434-430l-143-95c90-210 285 109 431-240l-143-71c130-28 335-138 459-140 22 0 17 91 49 95 51 7 425-42 475-93 40 94 213 237 247 293 10 16 94 296 112 325-231-4-48 275-95 432 138-95 158-290 95-432 3 4 82-19 96 32 66 238-80 486-144 688v-96c-71-16-100 21-144 72l144 24c-15 48 18 144 1 205-15 56-112 56-148 103-74 97-31 259-192 339-62 30-139-15-202 22-10 6-161 147-167 157-8 14 38 197-108 279 189 86 128-27 167-37 119-32 290 95 336 86 87-16 47-206 102-246s204-41 273-88c60-40 61-136 130-171 142-71 231 50 233-290 0-11-180-123-137-165 91-87 97 81 102 84 60 42 507-173 324 212-19 41-97 209-104 220-19 31-103-19-83 58 355 109 356 0 336-335l96 239c58 38 104-329 143-121-35 211-336 341-390 478-40 103 13 165 6 170-28 21-114-62-192-25-151 73 49 46 48 121-138-6-20 131-216 192-139 43 57-163-119-96 49 311-159 297-272 400-56 51-103 190-185 224-195 81 73-219 121-239l-288 95c-25-20 122-124 96-143-186-135-169 344-411 335-206-8-58-228-69-239-19-19-454-110-528-96 36 95 338 140 383 192 34 39 18 107-71 95-67-10-697-245-649-287-8-13 354 20 240-96-36-37-313-19-384-24l48-120c-368 17-166-138-196-258-21-83-118-61-140-78 6 34 74 74 48 144-106-55-212-154-191-288 72 28 73 90 143 144Zm1152-864c140-101 463-442 335-624l-96-48c239 61 152-199 13-234-83-21-188 45-200 36-44-31-110-311-293-43l96 24-192 216 284-171 291 51c-68 189-297 87-239 361l-71-96c-177 73-61 231-72 239-24 19-119-50-164-40-95 19-217 345-76 424-66-22-138 42-171 45-20 2-89-301-164 148l143-48c14 331 336 472 384 96l-120 96c-18-135 136-208 216-384-15 9-74-15-111 0-53 21 0 138-129 96 19-172 147-122 185-149 12-9-32-252 151-163-104 51-73 166-96 216 30-18 68-28 96-48-8 6-50 161-48 192l191-168c0-42-138-28-144-24Zm-768-672c78-35 159-105 143-192-78 35-159 105-143 192Zm1104 960h-144v95c66 15 128-26 144-95Zm1151 336c-104-96-177 102-192 191 89 34 236-150 192-191Zm-432 432c-9 12-149 10-144 96 210 40 120-66 144-96 9-12 149-10 144-96-210-40-120 66-144 96Z"/><path d="M30194 47423c0 86-138 50-207 93-57 35-114 209-202 242-132 51 0-202-167-143 110 266-58 185-96 222-71 69-106 174-192 234 177 50 55 364 288 360l48-144c19 424 26 188 239 118 322-105 678-191 1008-263v240c138-96 81 33 97 47 32 28 112-82 98-165-8-47-147-45-146-122 202 22 361 183 576 144l-143 71c48 172 291 235 322 343 63 222-51 641-34 881 218-104 0-355 239-384 19 356-348 548-384 864l-23-287c-25 55-160 89-170 120-47 159 243 92-46 263l-24-144-121 240-47-96c-261 48-420-84-672 48l96 48c-181 174-510 51-768 95 95-202 372 24 432-216l-335 72 144-120-144-120 383 47c-30-98-192-77-284-125-11-5-163-151-147-186 59-129 235-1 335-25v-144c224 123 420-23 613-128 104-56 50-151 299-64 31-109-87-176-91-262-7-132 150-178-148-218 69 301-176 141-361 287-105-163 202-45 217-191-423 64-657 273-1103 95-46 57 10 233 0 240-18 13-356-21-411-40-121-41-250-262-94-200 90 36 188 202 360 143l-287-144v-47c297-51-116-316-97-481-174 59-15 187 48 264l-144-120-95 95c57-211-95-533 144-648-203-80-152-181-96-360l71 143c148-73 135-364 192-384 32 172 185 108 120-48 78-42 146 158 302 51 126-86 23-235 33-243 84-62 459 138 576 144Zm-1008 864s-49 31-71 20c-320-152 31 124 24 267 81 8 55-275 47-288Zm1680-48c-208-41-361 122-520 178-77 27-342 12-343 85-2 77 290 67 324 56 6-2 10-68 77-88 103-31 442-78 462-89 6-3-54-93 0-143Zm144 1200c-88-16-159 53-143 144l143-144Zm-2112-336-95-49-96 240v-431c99-40 225 192 191 240Zm-2639 960-143-120c91-131 161-18 143 120Zm576-1248c-35 78-105 159-192 143 35-78 105-159 192-143Z"/><path d="M29858 49294c-87 16-157-65-192-143 87-16 157 65 192 143Zm-1247 865c-16-87 65-157 143-192 16 87-65 157-143 192Zm-1 48c-26 95-102 108-192 95 26-95 102-108 192-95Zm48-1536-143-144c88-16 159 53 143 144Zm-911 864c-20-62 72-241 95-192 13 86-3 168-95 192Zm20537-12528c93 46 154 125 288 96l-48 95 384 49c10 82-171 55-217 49-50-6-322-76-359-97 3-50-41-132-48-192Z"/><path d="M46173 36623c9-9 150 24 186-78 54-153-89-297 30-401l72 191c211-105-97-494 263-424 165 32 291 229 240-56 90 252 169 28 312 168-79 57-202 67-287 24-59 332 288 6 385 68s48 314 290 336c62 65 392 480 452 460 133-45 13-111-1-142-49-105-112-212-165-315l95-23c94-323-181-49-192-264-3-66 50 32 98-5 145-113 196-322 286-476l-192 24c-28-24 243-452 312-479 39-16 10 59 40 77 304 175 175 54 284-16 53-34 152-15 217-46 77-37 77-183 298-112 26-86-49-98-72-144-83-162 160-140 208-86 63 70-54 366 344 182-44 148 15 292 72 432 67 163 64-148 144 0 42 77 60 181 99 238 154 227 142 200 279 466 49 95 128 76 222 304-29-5-65 2-96 0-16 111 49 125 144 144 15 44 70 73 48 144-255-118-159 80 0 192-257-118-203 70-241 96-26 18-71-74-118-79-70-7-215 122-301 18-22-26-67-287-204-179-35 27 234 194 191 288-265-247-207-147-439-80s-308 68-496 272c-126-125 145-148 72-240-13-16-257 31-396-12-110-34-398-311-371-84-23-11-165-93-144-24 61 95 89 156 192 216-8 161-82 170-168 48-71 35 54 220 96 240 9-338 287 16 215 96l-143-96 23 192c-118-59-222-105-359-96-65 173 158 168 192 264 7 19-173 68-145 168-90-3-127-172-153-187-35-20-237 129-133-148-233 58-61-165-240-145-162 170 198 282 95 384-110 110-238-239-335-240-15 118 152 198 146 310-1 23-71 22-82 42-31 58 16 142-64 128l-144-192 46 286c-439 187-432-106-671-358 227-25-140-396-168-166l-215-26c24 49 142 55 146 102 3 44-56 108-51 162l-216-335-71 96 144-144c20-195-265-75-192-264 10-26 244-118 143-216-27-27-159 43-192 74-124 118 32 382 47 480 9 60-50 146-42 161 14 24 178 24 139 149l-168-144c-75 118 153 218 240 287l71-143c-24 312 36 148 170 151 120 2 143 533 111 634-43 134-177 22-184 31-6 7 5 103-14 154-17 47-68 90-74 121-15 79 148 134 64 206-314-145-453-314-551-649-39-135 157 42 95-94-41-89-113-204-191-121-11-265 183-178 191-192 23-38-115-379-167-383-81-6-106 140-168 142-31-233-191-425-144-672l95 49c0-147 83-292 96-432-280 112-74-50-24-192 43 25 28 144 24 192 272-110 187-222 198-235 103-117 504 112 521 91 15-18-13-130 0-144-81 70-65 34-113-6-31-26-114-99-127-138 94 17 387 17 240 144Zm2351-1200c-87-16-157 65-192 143 87 16 157-65 192-143Zm432 240c32-48-49-162-119-144-54 14-65 143-100 189-40 52-129 27-116 99l143 24c-79 48-15 439 3 455 23 21 148-13 207 0s0 118 79 97c48-142-34-557-168-624l-71 144c-109-330 132-224 143-240Zm-336 623c15-66-26-128-95-144v144h95Zm-240 192-48-239h-47v240h96Zm1967 1c26-222-269-101-191 0 6 8 128-62 191 0Zm-3839 240v-288c-28-61-186 254 0 288Zm1344 0c-30-27-129-8-95 71 23 55 221 265 287 313-18-59-176-369-192-384Zm-1487 191c53-55-105-235-191-72 21 36 175 89 191 72Zm1200 96-143-144c-16 88 53 159 143 144Zm2735-48c-43-130-89-69-192-47v47H50300Zm-3072 1h-95v144h95v-144Zm-911 144c-101-103-273 3-24 95 42 6 27-92 24-95Zm624 143c185-14 153-92 24-192l-24 192Zm-480 240c-35-78-105-159-192-143 35 78 105 159 192 143Z"/><path d="M50492 36527c61 11 147 74 192 120-6 41-113 30-144 24-15-44-32-106-48-144Zm2687-4896c-67 107 13 207 0 307-18 133-71 219-96 431-4 34-98 28-99 56-8 199 439 191-44 261 47 240 139 64 186 98 57 39 192 280 53 333 304 79 175-182 192-191 43-23 216 14 288 0l-191 48c206 294 266-53 503-49 94 1 276 42 312 145-100-18-288-93-336 48 108 59 552-65 575-48 51 38 29 314-96 312 206 74 90 155 97 166 13 18 171 23 190 74-61 138-269 22-282 33-15 14-26 242-126-10-38 161-171 85-312 97l143 95c-168-71-203 94-216 97-138 37-107-86-152-96-127-29-311 19-447-1l359-145c42 127 93 107 216 97l-234-171c-85-11-256 146-408 121-24-4-44-134-174-71l144 145-240 24 236 695c-11 122-92 220-114 338-26 141 95 471-144 261-51-45-49-171-170-142l-48 287c-5-70-70-354-106-376s-114 8-167-23c-31-18-252-186-255-202-9-45 38-105 72-119 48-20-13 120 71 95 134-231-44-244-43-260 16-302 124-308-244-436 160-46 77-86 47-215l-95 143c-54-149-115-305-240-408 251-102-79-440-147-620-48-127 0-297-125-326l-63-421c105 69 209-15 302 0 25 4 37 64 74 91 72 54 192 8 151 197l-97-23c52 206 109 528 323 643 192 103 301-107 146-77-235 44-255-241-323-446l264 384 24-96 191 96c44-162 95-525 197-644 160-186 246 66 91-412 81-1 192-8 263-46 29-16-39-182 121-146Zm-432 864h-95v144c69-16 110-78 95-144Zm528 816h-239v47h239v-47Zm-289 672s-102-17-94 23c55 198-47 215 190 313-30-57-83-324-96-336Zm-2830-192c262-28 181-222 236-313 88-144 443-426 627-310l-95 191c195-149 292-146 527-96-340 265-101 232-100 260 4 226-130 208-140 220 86-98-84-243-192-72 19 36 177 89 192 72-42 55-64 125-115 174l-605 570c17 62 78-38 135-16 22 9 233 381 240 412 17 79-61 139 4 231 125 176 480-25 437 358l-191-192c-21 143 209 311 222 408 17 121-132 68-127 216 53 19 134 16 144 96-129 8-140 25-144-96-36-13-175-62-192-48l24 479c-35-68-171-188-189-239s36-133 21-145c-39-31-177 59-265 4-30-19-223-218-237-247-83-170-126-246-265-404-159-182-390-329-336-601 104 12-12 230 144 119-49-157 33-326-192-215-24-25 124-510 144-529 9-9 109 56 162 52 16-1 114-207 269-148 1-94-138-69-191-48-16-67 22-95 48-144-204 22-76-159 96-144 15 12-77 108-96 144Zm720-576c-80-67-153 135-144 143 80 67 153-135 144-143Zm-822 1733c-4-6-111-32-137-53-20 91 62 129 120 192 44-4 30-122 18-138Zm1589-2981-95-49-96 144 168-239 23 144zm3503 192c64-84 150-72 240-97 23-93-106 2-95-95 226 102 164-91 384-48l-49 95c299 64 431 38 576-239-56-51-243 180-313 192-11 2-45-130-167-120 75-73 174-113 245-191 76-84 48-134 73-171 31-45 125-34 114-70-84-275-469 221-549 219-91-2-415-81-519-112s-130-177-324-84l120-48c116-118-169-137-206-201-61-105 41-320 13-378-25-53-120-68-153-107-133-152 200-680 178-898 240 107 416-160 672-143l-288 96 168 191c72-32 153-236 192-237 6 0 116 41 120 46 4 4-42 62-30 111 10 44 78 83 58 129-31 74-362 339-364 364-6 82 84 377 179 401 286 73 122-416 445-333l-95 192c110-41 180-69 168-192 83 71 299 87 350 113 16 8 3 75 10 79 103 68 93-74 104-83 70-60 240 99 327 109 143 164-184-35-191 47l239 192-143 47 216 168 119-143c71 166-191 232-194 269-4 47 44 202 147 163l96-192c-42 229 121 561-95 720 38-92 14-251-96-288 78 184-119 290-138 370-13 58 41 123 32 151-14 43-652 517-722 547-155 67-233-7-330 13-124 26-291 215-310 215-56 2-144-54-235-53s-219 66-282 48c-56-16-73-156-174-140l96-71-191-96c31-81 178-60 191-73 98-96-167-78-96-191 31 16 137 41 144 48 11 13-11 87 0 96 84 67 120-56 95-144l-95 48-48-192c130-26 250-43 384-48-14 19-56 90-48 96l288-48c5-84-185-50-240-47Zm-288-2256c-104-85-161 200-143 240 117-35 117-143 143-240Zm144 384h-96v191c26 58 121-165 95-191Zm192 432c22-19 40-217-23-240-150 66-22 279 23 240Zm528 48-143 120c91 131 161 18 143-120Z"/><path d="M55386 31679c-91 129-309 115-383-24l383 24Zm154.6 1225.2 228.7-119.4 39 74.5-228.8 119.4zM54618 31150h-95v-144c69 16 110 78 95 144Zm-11996 7537c49-120 52-256 48-384h144l-95 288 99-190 285-50c60-185-170 21-186-118-2-14 55-249 66-267 30-47 115-43 119-48 9-13-151-131 2-263l-98-48 168-216c141 85 302 148 268 354-7 45-116 13-100 52 36 84 153 148 95 312l-143-191c4 225 182 286 95 527-95 21-16-167-71-144s-87 103-75 164c23 118 428 17 170 267l-48-144-120 335 95-95 27 147 1624 90c17 5 123 366 221 123 20-48-120 13-96-71 130 8 328-51 384 95l-144 96c137 17 273-62 410-10 93 36 88 114 145 148 97 60 230 30 308 126l-143 143c29 60 183 49 143 143-123 288-968-99-1199-23 6 91 170 32 254 57 101 31 255 244 418 231-70 166-249-58-319-80-409-130-1042-140-1482-206-119-18-243 6-371-13-46-7-151-101-16-79l653 40c-36-102-395-45-432-71-165-116 36-95 48-168-246-38-133 136-144 143-55 33-423-24-528 0l287 48c167 127-390 33-336 168 15 62 294 441 49 311-29 162 218 256-1 312 56 140 145 165 289 169-22-54-114-219-95-240 63 93 185 39 191 48 5 8 8 186 0 192-8 6-69 1-96 0 31 75 66 141 98 216-232 26 113 345 94 360-93-8-450-154-500-148-44 6-58 145-100 147-36 2-138-306-240-335v240c-286-291-363-702-558-1063-45-84-77-178-101-221-20-35-107-38-133-84-65-122 175-11 143-143-17-70-284-318-311-457l-71 191c-28-173-229-448-230-608 0-63 71-104 73-173 3-80-81-255-72-301 20-101 205-53 229-70 10-7-81-174-48-240 59 42 197 200 254 226s236-60 225 158c-67-75-305-133-287 48 225-66 202-26 287 169l72-73 265 287c17 10 139-134 143-143-40 108 117 188 144 71 22-99-118-140-144-71Zm-864-97c13-86-3-168-95-192-20 62 72 241 95 192Zm528 97s-101-18-95 23c62 69 42 196 143 217 14-19-37-229-48-240Zm1392 384c-78 42-278-60-287-48-84 102 244 226 287 48Zm624 48c-137 16-375-151-384 96 105-59 233-7 332-18 94-10 130-12 51-78Zm575 95c-16-69-77-110-144-95v96h144Zm96 97c-189-40-129 68-192 191h336l-240-48 96-143Zm-720 288c-101-19-285-91-336 47l336-47Zm432 192c-95 27-341-62-383 47 95-27 341 62 383-47Zm-2399 144s-101-18-95 23c61 68 42 196 143 217-11-44-39-232-48-240Zm239 528c-177-152-2 342 96 336-10-55-83-325-96-336Zm385 911h-95v-144c69 16 110 78 95 144Zm-7918-1103s1 42-35 49c-231 40-324-127-494-209-30-15-91 24-95 16-30-53 114-212-265-288-94 144 159 135 168 144 23 23 16 125-70 94-25-9-314-248-317-268-16-101 110-159 99-258l-336-49c12-119 140-41 143-47 28-57-71-206-47-240 3-4 71 40 97 21 34-25 34-96 54-109 9-6 264 75 40-77-35-24-126 99-96-122l-143 96c24-230 9-330 239-409l-143-24c39-294 147-145 241-192 12-6-46-131 45-260 26-37 117 26 146-53l-95-23c-70-136 190-313 120-96 290-36 163-98 182-133 85-161 451-141 500 0 13 38-138 144 132 36-47 176 47 69 169 48l-48-94c247-2 166 146 193 336 116-2 51-236 167-192 208 79 210 498 277 564 53 52 231-3 179 203-62 28-52-202-143-95-31 35 70 165 81 224 24 134 22 132 48 233 80 304 65 424-89 711-22 41-257 385-279 395-61 30-128-80-207-65-86 16-287 106-418 133 50-46-90-220-143-71-36 102 127 87 143 71ZM34800 37822c-97-125-153 240-95 288 38-35 138-43 143-49 9-9-41-230-48-239Zm-384 193h-143v144c92-50 174-27 143-144Zm336 335c-153-22-126 169-213 243s-264 31-218 237c58 30 60-208 143-96 5 6 8 135 2 161-17 72-280 51-193 174 3 4 59-7 94 36 239 287 493 580 889 301l71 96-95-239c50 15 120-58 138-43 22 18-30 109 53 90 0-84 5-241-43-308-39-54-138-18-148-28-29-28 85-290 48-336-11-13-92 36-144 19-74-24-197-134-289-178-60-28-116 84-94-130Zm-528 241h-95c-12 88-2 140 72 192l24-192Zm1296 383c13-15-7-145 0-192l-143 48c20 65 78 218 144 143Zm96 193c-266-41-170 214 64 186 22-3 120-76 56-91l-167 48 48-143Zm-1439 191c-95-136-461-108-260 98l260-98Zm377 151c-27-21-95-1-137-6-12 121 77 162 192 143-23-32-48-132-54-137Zm630 42-479 95c125 45 481 121 479-95Zm-768 287c14-68-43-144-97-170-223-107-263 261 97 170Zm1776-576h-96l1-191h47l48 191zm-47 49h47v240h-47zm708-2913c24 13-18 145 178 32 96 160-331 120-263 385l95-95c41 109 159 268 36 373-63 54-196 14-205 18-40 20-28 131-22 137 40 45 200-144 287-96 59 91-14 415 74 432 41 8 493-314 603-357 24-9 294-77 310-77 104 0 383 398 358 529 24 45 82-186 191-95 72 60-146 144-143 216 6 121 223 13 238 23 31 287 203 593 194 887-5 176-134 289-146 457l-48-144-96 144c-53 36-92-225-190-144-10 8-139 204-145 216-33 75 54 99 95 70 8-6 41-201 144-95 5 5 5 138 0 143-9 10-198 12-270 41-87 34-179 199-354 151 93-221-183-113-304-144-35-9-31-82-43-87-45-22-88 43-127 29-10-3-4-68-30-78-63-24-252 97-264 89-11-7-60-193-145-216l192-24-144-311 120 71c90-61-19-160 119-144l-191-96c101-247 234-16 432-47l-49 95 145 48-143 48c181 66 456 133 575-47l-192-96c374 167 269-429 336-480 8-6 89 79 96 24-8-62-56-360-121-359-6 0-116 43-120 47-6 6 67 122 48 144l-168-95c-85 33-17 139-24 142-106 64-97-97-121-98-85-3-318 164-479 147-99-11-232-202-380-194-16 0-92 186-271 119-60-23-316-357-285-453l95 95v-335l96 95c48-203-87-125-178-206-58-51-119-191-109-274l143 95c92-130 61-380 170-483 52-49 119 10 165-20 78-50 76-238 231-154Zm59 945h-95v192c95-26 108-102 95-192Zm-336 575c22-145-42-214-192-191 73 89 73 226 192 191Zm1727 192c17-19-63-291-143-288-13 37 50 396 143 288Zm240 1v-192c-206 65-206 127 0 192Zm-480 671c3-102 85-204-47-240v240h47Z"/><path d="m38015 38206-95-95-96 143v-240c10-12 109 57 164 53s-6-123 76-101l-48 239Zm-671-864h-192v-95c89-12 166 0 192 95Zm191-239v96h-144c16-69 77-110 144-95Zm145 2400c-43 130-89 69-192 47v-47h192Zm-11517 17280c-108-60-214-152-192-289l95-23-191-241 288 72c7-6-80-144-94-156-121-106-194-61-291 26-54 48-84-9-90-42-39-224 122-185 141-234 66-176-133-105-145-120-103-126 343-375 192-48l96-144c79-21 32 64 55 82 14 11 131-23 216 30 54 33 292 285 256 369 171-129 85 115 105 136 41 42 233 67 278 176 16 45-111-14-98 96l122 168c71-34-49-167-24-191 93-92 72 150 215 95 114-44 122-242-71-48-17-156 154-176 253-241 61-40-5-153 178-47-10-174 69-335 240-385-62 252 186 96 238 149 17 17-11 101 7 134 4 7 109-51 139 30-341 343 35 199 49 216 84 108-263 232-241 0-43 78-277 84-287 96-132 177 228 84 239 96 79 87-182 299-239 360 244 87-110 173-217 215-198 78 15 98 75 164 63 70 104 152 166 222 39 44 182 34 119 142-6 11-121-119-95 23 144 71 175 67 279 201s571 829 152 687c74 187-187 195-144 73 18-53 115 0 96-48-52-133-157 56-288-24l96 143c-243 106-299-92-530-121l-94-215 143-24-239-409c71 19 69 94 134 142 11 8 192 97 153-21l-456-552-119 143c239-14 199 151 335 194-134 137-177 69-96 287-344-19-119-485-576-288-9-7 96-119-48-119 102-19 235-206 71-170-65 14-110 78-155 88-89 18-171-79-230 10-23 35 18 103-3 145-14 27-449 370-477 381-71 26-109-134-213-166 28-79 212-150 229-180 27-48-6-131 19-170 16-25 412-217 497-296 238-222 54-358-26-578 24 13 81 55 95 47-2-112 234-170 73-286-85 267-191 17-215 47-2 66 26 132 48 192Zm335-96c-9-8-65 3-95 0v192h143c11-10-41-185-49-192Zm4560-1296c127 187 173 156 359 47 146-86 202-291 360-191-53 103-284 134-48 215-10 24-356 238-120 216 141-13 36-103 75-139 34-32 199 17 237-5 9-5-48-125 48-191l-168 95c-101-98 112-136 148-193 32-52-31-131-25-140 9-14 155-18 212-103 30-45 20-135 26-141 79-81 282 267 240 384 117 50 135-155 167-143 147 54 199 291 168 432l-287-96c215 273 34 125-144 264l216 24c-197 117-377 269-574 386-88 52-194 50-283 101-213 121-337 455-559 65 116-105 116 117 168 119 46 2 98-139 72-191-254 19-561 6-744-192-60 11 100 294-48 144-163-164-228-405-404-561 27-133-95-168-94-180 3-49 58-109 47-191-4-30-173-26-99-125 9-12 123 115 95-22l-71-121-119 96c-8-87-2-442 50-478 6-5 65 48 84 36 11-7 143-165 153-181-25 0-75 7-87-7-62-71 195-627 279-738 108-74-4 115 0 120 6 8 183 58 192 48-106-364 135-194 312-335l-72 288 143-48c79 355-123 282-138 296-105 96 81 236 42 280-159-29-132-137-216-240-41 108 93 125-72 168 341 195 29 475 240 721-287 152 34 85 48 93 92 51 79 151-49 98 19 139 106 279 168 72 68 33 53 116 72 144h-192c-58 27 165 122 191 96v-96Zm-480-1201v-144c-8-18-127 102-143 143h143Zm0 721c-260 34 84 205 95 192 79-88-78-152-95-192 22-3 90 8 96 0 21-29 17-344-72-384-70 116-77 261-24 384Zm-480-1c8-6-68-136-48-191h-47c-78 101 15 253 95 191Zm672 1056c1-171-322-165-335-144-91 155 267 120 335 144Zm-1440-336-164-99-315-476c17 303 432 574 288 863 165-108 217 112 340 249 29 33 137 183 188 135 28-26-459-497-216-479 27 2 187 277 239 336 63 72 171 117 202 157 172 222 281 541 494 730 49 82-131 68-136 63-37-36-31-176-83-228l-356-387c-42 288 336 390 384 653 23 124-225 252-193 403-100-15-136-186-190-217-40-23-125 37-143 25-25-17-75-478-338-432l24 143c14-72-391-408-240-432 167-27 106 102 215 144 40-214-180-181-192-192-13-12 69-240-48-335l-55 85c-120-92-70 144-159 9-38-58-84-115-73-191l96 24c24-183-345-367-96-431-100-167-577-170-144-265 13-78-225-306-192-335 57 60 256-13 287-49 110-125-172-62-143-143 68 16 167-37 218-29 62 10 419 602 501 700Zm432 1008c-119-199-171-85-143 96 186 27-34-119 143-96Z"/><path d="M26163 57934c-74-73 135-153 143-144 48 59-97 189-143 144Zm1823-1103c-4 6-90-52-143 0-11-224 202-100 143 0Zm20106-26016c66-86 253-546 312-288 186-135 300-259 306-504 7-312-251-55-330-120-11-9 48-82 41-116-16-70-252-66-88-315h-192c-27-87 85-155 81-217-3-47-142-110-57-167 71 56 170 40 246 94 64 45 21 150 63 173 78 42 160-35 222 15 159 129 6 331 21 341 21 16 169-41 145 96 124-56 81-58 47-119-101-185 211-41 219-26 31 60-33 140-27 146 9 8 88-21 148 33 78 70 44 295 186 413 77 64 230 62 268 128 26 45-50 159-27 194 13 20 173 6 194 26 78 75 55 220 214 262 51 13-15-119 71-96-8 144-62 221 48 335-102-1-220-24-287 73-25 132 73 27 96 47 73 62 47 136 47 216l-71-96c-77 29-154 160-179 175s-95-19-145 12c-111 70-207 302-406 332-128 19-166-287-253-183-41 49 97 263 192 241 66 90-791 248-864 239 100-147-32-46-47-143l240-96-384-48 72 336-312-168 191-72c-9-83-156-82-191-168-16-39 136 4 95-95l-167 71c-163-118-9-264 2-380 7-72-145-310-26-483l95 143c-7-133 147-181 193-240-38 75 15 120 96 96v-144s-93 43-96 48Zm1296-433c45-46-85-191-144-143-10 8 70 217 144 143Zm-672 97c-51-19-190 18-191 72-1 85 200-22 143 95-44 90-139 16-143 25-15 37 42 90 43 123 0 12-30 93-53 178-19 71-273 504-112 514 17 1 103-54 190-50 80 5 169 60 236 54 32-3 36-73 68-96 61-43 437-289 444-315 45-178-80-81-148-150-51-52-88-181-93-257l-95 143-192-288s1 314-96 192c-17-21 11-184 0-240Zm1008 192h-95c-16 71 21 100 72 144l24-144Zm-1344 287h-192v97h192v-97Zm1104 193c-94-42-246 74-191 144 7 9 192-84 191-144Zm1727-1200c160-52 348-236 370-241 78-19 182 18 272-5s76-119 6-138c-46-12 10 63-66 82-81 20-202-9-293 61l95-191c-181-45-217-12-143-192-186-8-428-95-604-99-153-3-217 99-284 98-74 0-294-177-456-95l-23 143c-149-71-70-171-89-231-3-10-58-7-64-18-16-28 37-81 33-86-18-26-196-7-240-24-110-42-167-156-288-169-33-47 252-130 263-141 129-135-57-267-24-434-105 31 6 269-191 239 77-254 44-328 336-240l-191-167c53-91 150-52 214-73 15-5-54-328 98-48 50-97 241-264 337-288 28-7 2 168 142 48 102 90-149 172-197 258-45 78-34 163-68 236-20 44-95 24-95 59 1 140 231 176 337 168l-192 48 48 72 553 33c44 183 114-22 238-12 25 2 23 82 32 86 38 17 169-91 232 37l-239 71c0-60 716 189 527 1-34-34-240-4-240-96 111-10 395 36 471 106 61 57-8 413 177 85l-72 168 335 192c-278 313-51 170 37 277 26 32 26 129 60 179-346-103-299 222-385 395-34 69-282 250-322 376l-301-3c-10 97 118 1 95 95-85-27-511 167-527 145-9-12 13-72-3-105-18-37-171-60-93-135 11-10 285 155 239-48l-576 47c54-115 156-198 288-192l-96-71 192-168-144-48c92-10 199 12 288 0-23 31-104 129-95 143 5 8 155 103 167 97l216-264c11-50-78-10-96-24Zm-528-1105c51-46-98-195-143-144-72 82 63 216 143 144Zm1296 1009c-69-55-185 97-143 192 59 0 153-184 143-192Z"/><path d="M51211 29951c-86 28-90 34-192 48 29-39 110-61 97-144 65-18 47 57 95 96Zm-336 816c-31-29-154-48-143-72 52-116 159-46 143 72Zm-1631 240c36 30-283 235-143-49l143 49Zm-17035 21360c-40-50-123-42-145-167-23-134 81-5 121-71 109-181-46-122-117-173-25-18-142-141-157-148-48-23-113 130-86-160 305 227 35-81 48-95 40-44 185 8 190 0 84-150-120-358 194-288 23 85-107 22-96 71 4 16 178 248 193 264 47 49 75-198 190-144-21 170 692 723 745 721 34-2 19-75 32-83 27-16 85 45 136 12 67-43 1-139 25-173 27-40 110-36 119-46 19-22-226-271 0-310-59-22-98-203-87-242 9-33 89-12 89-47 0-135-209-123 0-421 36-52 133-6 95-131l-95-48c204-108 88 122 287 0-8 89 74 475 48 528-7 15-262-99-191 144 60-10 77-175 191-96 16 11 60 369 47 383-30 31-202-84-141 193l143-144 72 576 71-383c68 171 55 307 0 479 305-11 575-95 885-97 185-1 397 62 531 54 127-8 214-138 359-100l-240 96c17 119 159 253 121 47l503 96-240 120c-4 94 440-31 288 120-27 26-339 70-432 121-144 79 84 58 48 119l-335 49 287 95-480 96c65-158 102-219-96-191l47 191-623-48c0-72 167-69 230-82 83-17 166-18 250-14l-410-49-358 50 288 143c-95 60-510 29-527 49-48 53 107 151 96 215l-192-23c-61 94 456 823 383 912-78 95-104-99-123-99-25 0-118 33-135 47-78 63 27 201-77 196-77-194-68-292-288-192-52-130 98-78 97-120-3-99-148-170-241-168l-48 144c-70-366-428-624-671-888l94-168c-324 121-124 19-114-72 0-8-35-154-40-160-75-75-231-15-325-8l97-72c-78-341-307-150-514-328-22-19-8-71-14-80 56 28 166-68 144-95l-192-48 48 144Zm912-97c-16-69-77-110-144-95v96h144Zm187 140c8-5 69-166 53-187-235 53-236 299-53 187Zm1972-91h-287v47h287v-47Zm-720 191-24-144c-51 44-88 73-72 144h95Zm241-143-192 23c74 105 148 93 192-23Zm-576 479c-44-117-118-128-192-23l192 23Zm1247-47h-288c-61 28 253 186 288 0Z"/><path d="M34273 53710c-30-32 22-190 72-191 143-1 13 282-72 191Zm239 193c-95-26-108-102-95-192 95 26 108 102 95 192Zm1200-4416c14-18 13-109 54-160 151-191 373-283 618-271l-384 191 528-48 23-95c173 202 529 164 601 383-55-21-177 52-188 43-14-11 14-154-53-66-4 137 160 420 303 311 46-35 9-112 81-96-71 156 53 418-43 545-35 46-128 27-171 78-33 39-140 345-227 373-13 4-197-105-37 121 31 44 107 25 95 58-114 171-203-77-215-71-55 25-112 121-216 96-9 81 110 41 138 125 25 73-18 224 13 254 15 15 93-11 125 16 14 11 103 266 203 277-44-212 109-122 207-189 168-117 676-557 774-726 81-140 26-357 220-284 8 3-89 166 96 143-11-294-286-250-360-335-18-21-117-272-146-337-44-99-143-357-180-493-72-258-42-580-33-850l48 145c85-54 107-64 96 47 79 18 40-69 48-144 13-17 122 69 143 48 120-113-157-104-168-108-33-12 0-122-119-36 20-231 118-504 383-481-265-298 238-80 239-215 0-126-299 78-191-168 292 190 435-215 650-237s-224 196-218 213c73 204 323-211 427 3-3 254-160 301-283 478 12 48 100 19 144 24-37 26-122 102-144 144l216-95c64-72-29-44-72-48 65-46 111-79 191-96 95 307-626 561-622 312 0-42 223-71 143-168-39-47-217 60-184 213 11 52 108 62 141 110 118 171-192 382-185 470 4 54 154 121 175 202s-45 188-37 200c29 41 206 10 90 197 234-17 112 22 108 169-1 47 37 107 30 141-12 58-227 85-137 171 12 12 209-146 283-92 82 59 173 644 148 668-5 4-114 48-120 48-39 0-85-236-168-143-22 25 261 504 143 623-206-212-161-291-479-240-67 127 97 155 97 168-2 83-118 143-98 167s184 0 96 145c200 34-15-267 97-383 84 14 101 250 88 301-21 81-238 292-305 371l72-288c-134 192-280 174-430 312 144 158 40 4 142-23l96 167c-265 75-393 398-672 265l49 95c-137-23-196 116-313 144-242 58-124-71-143-96-142-178-584 98-757 50-41-11-47-87-88-115-92-63-191-66-234-222 14-12 299 105 334 124 18 10 175 292 193 19-125 92-89-31-173-89-141-97-407-219-511-341-85-100-112-299-252-385l-71 143c0-86-95-134-98-216 0-17 191-40 97-120-24-20-128 65-143 48l95-191c-218-19-211-88-191-288l95 143c23-182 7-230 144-360l-144-24c33-136 210 24 146-166-25-75-300-60-97-409 84-24 22 114 71 95 103-38 27-162 37-183 21-42 217-188 227-201-66 123 122 153 144-48-24-20-137 34-144 48Zm2111-1104c-36-481-175-82-144-49 5 6 106 14 144 49Zm432 240c-80-67-153 135-144 143 80 67 153-135 144-143Zm-528 287v-192c-26-58-122 165-96 191h96Zm96 145c-50-49-192 95-143 144s192-95 143-144Zm-1583 240c-86-13-168 3-192 95 62 20 241-72 192-95Zm336 0-288 95 96 96h144c-95-180-26-89 48-191Zm-576 192c-46-45-191 85-143 144 8 10 217-70 143-144Zm565 636c-6-11-193-153-206-156-131-32-29 172-192 192-10 1-43-161-167-96-49 134 125 94 139 170 8 43-46 124-44 190 2 74 51 144 51 189 0 18-161 44-98 171 128-95 108 14 144 144 295-43 180-178 217-242 59-101 341-93 21-263l240-72c21-78-64-28-83-58-31-49 4-120-23-169Zm539-156c-11-10-105 5-144 0l48 191c30 53 123-167 95-191Zm1103 96s-101-18-95 24c92 250 198 78 95-24Zm-288 911 192-432c-89 72-347 331-192 432Zm480-240c45-46-85-191-144-143-10 8 70 217 144 143Zm-2159 337v96h240v-96h-240Zm1370 138-239 51 22 101 239-51-22-101Zm-266 198c-56-20-434 103-336 191 31 28 324-114 336-191Zm4222-3936c137 129 183 294 336 336-104-183 45-131 52-172 12-75-80-209-51-307 60 0 132 249 191 71 36-107-139-73-143-167 60-48 498-74 401-144-19-14-140 1-64-96 5-7 153 34 167 46 142 110-63 170-24 194 132 80 268-214 240-239-24-21-160 47-144-48 326-122 227 159 249 184 54 61 340 82 371 182 42 138-208 430-189 594-75 16-67-140-119-143-15 0-104 118-145 145-50 32-128 36-154 59-68 58-26 260-156 156l47-121c-91 48-148 47-239 0 77 216-254 194-220 23 15-77 134-76 3-166l-23 95c-49 23-286-181-18 187 32 44 97 49 106 60 11 14-53 126-42 200 6 38 372 298 50 417v-336c-138 96-81-33-97-47s-87 51-95 72c-41 111 147 59 144 191 0 17-164 23-49 264l-120-2-23 146c128-104 82 59 119 47l120-192c-7 168-111 582-206 705-17 23-423 317-457 334-215 107-399 56-632 64l23-95 217 47c-50-157-251-34-357-50-69-10-109-66-160-80-218-58-337 54-298-301 230-20-115 253 192 191-117-244 57-390 97-624 216 129 265 151 360-96 48 39-5 122 95 95 244-130 147-256 176-360 8-28 163-46 116-217-19-72-144-248-217-270-352-108-598 435-819 319-6-3 69-106-25-143-92-27-55 69-108 92-277 122-242-91-306-137-22-16-169 52-253 44-116-10-378-163-196-288l24 192 192-96c-44-3-121 27-146-31-59-139-113-521-142-690l-96 192c-222-99-62-162-47-336 65-27 46 197 143 95 75-79-241-158-143-288 9-11 170 131 192-73 2-16-87-21-96-54-77-266 133-101 143-113-168-358-67-170 25-234 61-42 89-127 138-181 24-27 74-14 76-18 20-32-124-122-96-143 96-12 214 20 304 0 38-9 27-92 53-90 35 2 85 57 122 42 7-3-61-111 24-143 133 200 336 55 360 335-86 29-112-74-175-83-48-7-97 36-133 35-32 0-14-151-172-47 88 192 320 25 336 239-224-54-142 166-198 234-5 7-90-45-115 2-29 52-6 136-35 184-20 33-128 48-130 84 0 14 151 157 96 264l95-240 48 336-143-48c-20 208 69 171 180 214 12 5 8 68 32 68 206 0 210-123 297-179 66-42 924-280 1017-285 211-12 148 39 249 134-7-7-180-58-192-48 32 254-140 254 168 431 113-98-180-153-120-191 14-9 69 12 86-7 10-11-36-64-25-80 4-6 162-16 83-105Zm-1923-381c-40-60-271-102-187 92 183-98 90-21 191 48-5-42 14-113-4-140Zm1635 381h-287v47h287v-47Zm-1823 575c14-13-70-224-48-287h-47v288c30-3 88 7 96 0Zm672-143-191 24c52 74 103 84 191 72v-95Zm1055 192c-36-32-208-8-143 96h143c-2-30 7-90 0-96Zm192 336c-10-9-105 5-144 0l120 191c42-16 30-185 24-192Zm-48 1440h-191v47l191 48v-96Z"/><path d="M36960 52271c33 207-276 15-383 47l383-47Zm2223-4238c11 23 125-8 80 109-179-30-156-206-239-336 163-19 119 140 160 226Zm3487-1234-335 143c16-218 175-186 335-143Zm-6334 3840c26 26-69 250-95 191v-192h95ZM32929 1006c10 10-29 190 73 240 111 54 57-131 71-144s329 25 360 43c123 74 234 326 338 434 52 54 147 51 188 97s175 435 207 515c59 148 152 323 297 399l-143-264c198-69 162 280 202 376 26 63 103 61 132 118 146 292-205 323-46 586-71 68-248-223-241-288-170 70-28 96-16 176 6 44-19 92-11 129 36 182 169 343 124 511-255-352-289-88-311-96-108-39-11-163-25-192-6-12-207 44-263 0-109 91 124 199 48 288-298-235-514-539-743-840-5-83 202 20 143-95-44-87-125-13-146-50-56-103-4-201-27-264-122-335-315-680-424-1010-46-140-179-431-28-525 32 122 27 361 144 431l-47-576c39 6 134-9 143 0Zm1103 1152c5-109-35-246-143-288 12 78 62 261 143 288Zm-335 960-239-288c6 131 71 334 239 288Zm815 1c71-255 33-376-191-168l191 168Zm-672 384v-192h-47c-22 102-83 149 47 192Zm7294 1296c12 12-7 145 0 192-176-122-317 57-287 240 276-23 371-429 432 49 85 28 238-190 287-144 15 15-112 178-96 191 148 51 269-276 383-120-30 80-126 23-135 34-21 28-7 103-57 156-139 148-319 35-187 326 26 56 176 26 46 159-691 353-1350 776-2065 1078l191-145c-94-152-271 72-240 192-79 26-23-93-75-100-127-17-371 204-548 99l192-143-145-25 48-215-143 96 48-192h-144c-35-210 49-108 126-161 721-494 1349-983 2118-1412 64-36 164-244 251-156Zm-576 576v-144l-143 49v47l143 49Zm241-144h-144v95c66 15 128-26 144-95Zm-288 192c-333 35-613 322-864 527 304-121 598-334 864-527Zm575 384c-86-13-168 3-192 95 62 20 241-72 192-95Zm-1583 240c-292-108-141-5-172 48-56 98-321 135-308 287 86 7 509-298 479-335Zm1151 192-527 167 193 53 334-219Zm-2638-4896c176-64 4-114 21-193 13-61 224-509 266-478 9 7-32 126 72 95l121-191c106 51 7 319-96 191l48 192c86 11 79-179 96-192 26-20 131 116 168 144l24-144c168 55 20 150 14 270-4 85 46 159 25 270-19 101-135 207-136 324l-95-143c5 139-208 309-238 374-71 158 40 343-47 461-35 47-173 3-148 125l-54-85c-78 88-124-159-184 14-32 93 213 194 287 168-36 165-225 5-287 120-72 134 131-41 95 94-45 168-56 88-119 79-42-6-31 81-24 90 22 27 201-78 143 144l-71-96c-202 80-63 84-72 163-7 57-220 40-97 221-132 76-150-338-217-144-29 83 30 126 26 165-5 51-122-14-97 99 11 52 84 11 96 25 90 105-74 82-105 98-66 33-10 110-86 94 80-409-46-769 96-1175-42-71-169 107-142-45 57-314 192-371 274-540 119-246 171-612 310-892 79-160 246-322 278-515 88-11 44 103 26 146-87 210-282 428-170 669Zm-337 815 48-335c-73 3-146 333-48 335Z"/><path d="M41279 4991h143v95h-143"/><path d="M625 28137c-681 28-847-650-294-1009 11678-6992 23458-13810 35174-20737 282-198 710-87 873 214 56 104 51 225 109 323 731 1230 1731 2534 2538 3750 3562 5371 7049 10791 10635 16145 124 182 115 413 10 602-155 278-478 323-728 472-9824 5836-19617 11736-29415 17616-1337 802-2691 1592-4012 2419-380 238-780 734-1248 472-215-120-773-993-955-1253C8951 40910 4926 34421 625 28138Zm1354-106 12642 18912 33663-19848L36001 8111c-833 2105-1699 4197-2569 6286-1933 4640-3825 9322-5854 13920-361 817-307 1208-1344 1156-6873-348-13757-909-20631-1203l-3623-239ZM34896 8159 2555 27118l23741 1045 8601-20004Zm-2605-6422c312-71 527 32 707 281 316 437 568 1209 835 1709 168 315 833 1225 827 1478-14 550-675 742-1060 388-172-158-567-885-695-1129-264-504-712-1374-896-1888-106-299-97-752 283-839ZM37523 9c225-44 478 81 530 312 67 296-332 924-458 1250s-253 711-349 1043c-137 476-228 1290-421 1691-220 458-823 271-826-249-2-302 259-1275 350-1619 130-492 320-1128 521-1591 116-268 351-778 653-837Zm3167 3935c402-38 604 381 388 726-181 290-1102 852-1436 1060-264 164-1188 754-1424 787-528 74-792-568-371-902 733-395 1396-931 2121-1334 162-90 558-321 721-336Z" fill="#1237de"/></svg>
