<svg xmlns="http://www.w3.org/2000/svg" width="77" height="56" fill="none"><path fill="#FCB414" d="M16.69 2.602c1.041-.514 2.328-.568 3.258-.388l.096.018c.27.051.688.083 1.284.254.305.095.671.209 1.19.554.484.313 1.327 1.131 1.53 2.347l.019.117c.21 1.521.162 2.906-.241 4.458-.398 1.475-1.352 3.493-3.564 4.528l-.031.015c-1.626.733-3.777.993-5.831-.144l-.01-.005c-.93-.408-2.119-2.112-2.224-3.2l-.002-.01a11 11 0 0 1-.152-2.64c.1-.944.208-2.484 1.79-3.783q.007-.004.01-.008l.063-.048a8 8 0 0 1 .988-.648 5.7 5.7 0 0 1 1.744-1.377zM53.057.248c1.298-.401 2.604-.055 3.446.348 1.105.362 2.488 1.087 3.256 2.712l.035.08c.105.246.263.646.35 1.144.395 1.249.126 2.381-.12 3.103l-.006.018-.102.244c-.53.975-.94 2.67-3.608 3.725l-.017.006c-1.111.329-2.042.433-3.223.112l-.024-.007c-.875-.24-2.153-.948-2.844-2.195l-.02-.034c-.587-1.129-1.3-2.663-.836-4.938l.008-.032c.333-1.314 1.132-3.44 3.688-4.281zM64.457 25.763a6 6 0 0 1 11.326 3.965c-5.718 16.332-22.197 24.137-37.237 25.29C23.808 56.148 6.716 51.07.515 37.08a6 6 0 0 1 10.97-4.863C14.63 39.31 24.963 44.024 37.63 43.054c12.365-.948 23.273-7.137 26.828-17.29"/></svg>