<svg xmlns="http://www.w3.org/2000/svg" fill="none" viewBox="0 0 135900 64800"><path d="M122658 42164c-1972 1650-6158 4307-8535 5592l-131 73c-568 315-1100 607-1723 941-1511 796-3519 1891-7912 3775a119000 119000 0 01-3842 1616c-8635 3454-17603 5977-26704 7740a156070 156070 0 01-16897 2330l-576 51c-3732 336-8393 524-11326 480a107600 107600 0 01-8317-392c-11638-1103-24440-2973-33070-11970-1638-1890-2877-4188-3360-6685a13650 13650 0 01-190-4025c367-3564 2000-6816 4027-9620 1173-1650 2450-3110 3684-4377a49840 49840 0 01 4877-4367c3460-2740 7754-5324 11020-7045a105400 105400 0 01 1514-790 114495 114495 0 01 7950-3772 83300 83300 0 01 557-210c2342-860 5197-2014 9784-3542a140600 140600 0 01 7100-2146c1798-490 2713-678 3480-838l646-135c737-156 1478-364 2374-605a49639 49639 0 01 4433-1010l634-111c5530-953 8062-1360 9973-1700 580-100 1120-188 1665-266 1762-255 4300-482 6222-585 1524-90 4556-322 6875-437 878-45 2050-75 3454-84 1430-10 3120 7 4894 48 4513 115 6926 366 8838 563a79752 79752 0 01 7175 1094 68643 68643 0 01 6631 1657c4661 1532 9268 3619 12993 7045 1915 1755 3296 3942 3871 5692 588 1755 512 2810 333 2840-207 42-513-914-1313-2414-793-1503-2162-3357-3954-4963-3605-3240-8248-5250-12934-6688-5755-1735-11800-2617-17809-3040a123304 123304 0 00-12705-200q-660 23-1308 50a162564 162564 0 00-9580 870 769920 769920 0 00-4830 587 69413 69413 0 00-2449 348c-420 68-997 166-1693 290a181100 181100 0 00-4056 767 213890 213890 0 00-7902 1750c-1920 460-4150 1020-6264 1607-3016 830-5808 1728-7199 2240-2428 888-5220 1946-7637 2957-2313 963-4299 1885-5405 2464-1320 693-2460 1254-4120 2130a75419 75419 0 00-4422 2530 86003 86003 0 00-4834 3207c-1738 1257-2980 2217-4720 3874-1913 1830-3723 3910-4978 5660a23387 23387 0 00-1722 2762c-712 1340-1312 2868-1653 4274a15300 15300 0 00-449 3030 11800 11800 0 00-5 793 12200 12200 0 00 512 2820 11800 11800 0 00 170 460 14640 14640 0 00 1505 2807c1160 1692 2450 2994 3954 4210 1152 926 2500 1823 4077 2654a36223 36223 0 00 3673 1660c1930 758 3890 1350 5267 1754 507 148 945 290 1383 428l6 2 90 28c3380 844 6824 1419 10287 1805 301 30 600 57 900 83a66450 66450 0 00 3840 239c1026 30 3577 155 6255 162 1762 10 3593-27 5065-90 862-36 1705-41 2544-53 787-11 1600-30 2495-91 447-31 918-73 1430-121l1425-138c472-45 1487-116 2815-235 824-73 1745-162 2717-270a158800 158800 0 00 7674-1162c530-112 987-222 1343-323 256-72 472-143 694-216 303-100 616-204 1053-324 340-93 748-184 1026-228l37-6a5500 5500 0 01 283-33c104-10 198-20 310-42 80-16 161-40 262-70a8100 8100 0 01 692-177 213450 213450 0 00 3894-853 120020 120020 0 00 4060-1001c1280-342 3098-813 4926-1332 1270-360 2530-736 3614-1083a77045 77045 0 00 3198-1112c1250-462 2470-934 3495-1304 208-75 473-146 807-236 240-66 516-143 826-237a130700 130700 0 00 3870-1622l131-72h5c1000-550 2380-1313 4394-2222 510-231 840-357 1135-470a9204 9204 0 00 920-401 24740 24740 0 00 1400-790c706-416 1532-920 2346-1356l180-96c587-318 1490-820 2358-1288 2528-1570 4967-3270 7256-5146 3785-3123 7288-6742 9362-11137 1008-2130 1540-4322 1694-5982 160-1660 80-2640 284-2681 174-40 637 888 770 2696 142 1800-266 4297-1318 6616-1694 3780-4356 6972-7280 9780a40400 40400 0 01-454 437 75415 75415 0 01-3360 3008 50500 50500 0 01-780 643" fill="#FCB414"/></svg>
