<svg xmlns="http://www.w3.org/2000/svg" width="1359" height="648" fill="none"><path fill="#FCB414" d="M1226.58 421.644c-19.72 16.502-61.58 43.064-85.35 55.918-.44.243-.88.486-1.31.729-5.68 3.149-11 6.07-17.23 9.411-15.11 7.961-35.19 18.909-79.12 37.746a1190 1190 0 0 1-38.42 16.166c-86.352 34.535-176.035 59.761-267.044 77.396-55.928 10.807-112.419 18.683-169.054 23.304-1.851.167-3.811.34-5.752.508-37.322 3.361-83.933 5.235-113.26 4.803-37.28-.428-62.338-2.175-83.16-3.929-116.358-11.027-244.395-29.722-330.684-119.682-16.372-18.904-28.766-41.889-33.61-66.856-2.63-13.266-3.17-26.914-1.815-40.236 3.644-35.649 19.996-68.17 40.262-96.227 11.728-16.493 24.504-31.093 36.836-43.759 17.495-17.929 34.37-32.335 48.769-43.664 34.61-27.392 77.543-53.238 110.197-70.457a1054 1054 0 0 1 15.143-7.887c25.89-13.573 52.557-26.158 79.497-37.733a833 833 0 0 1 5.571-2.086c23.423-8.611 51.974-20.148 97.846-35.426a1406 1406 0 0 1 70.995-21.468c17.982-4.905 27.134-6.779 34.788-8.38 2.242-.465 4.349-.897 6.479-1.349 7.362-1.561 14.772-3.632 23.736-6.043 11.657-3.125 25.523-6.746 44.325-10.093q3.234-.575 6.346-1.121c55.294-9.529 80.621-13.587 99.726-16.993 5.796-.995 11.205-1.885 16.648-2.663 17.622-2.555 43.01-4.826 62.22-5.856 15.249-.903 45.562-3.22 68.756-4.37 8.767-.461 20.488-.757 34.524-.84 14.307-.086 31.205.07 48.943.478 45.132 1.151 69.262 3.668 88.382 5.63 5.54.597 10.65 1.196 15.71 1.826 16.05 1.992 36.1 5.06 56.04 9.04 24.19 4.778 47.93 10.923 66.31 16.58 46.61 15.32 92.68 36.186 129.93 70.447 19.15 17.547 32.96 39.421 38.71 56.919 5.88 17.552 5.12 28.099 3.33 28.409-2.07.409-5.13-9.142-13.13-24.151-7.93-15.027-21.62-33.569-39.54-49.623-36.04-32.392-82.47-52.515-129.33-66.88-57.55-17.362-117.99-26.187-178.096-30.423-42.233-2.928-84.678-3.424-127.05-1.986q-6.603.225-13.088.507c-35.689 2.084-70.845 5.724-95.821 8.726-20.467 2.448-35.508 4.249-48.297 5.867-8.844 1.128-16.666 2.194-24.479 3.472-4.209.688-9.965 1.661-16.928 2.894a1811 1811 0 0 0-40.557 7.68c-24.494 4.904-52.525 11.109-79.026 17.487-19.195 4.597-41.499 10.215-62.635 16.083-30.163 8.317-58.083 17.28-71.989 22.407-24.282 8.878-52.219 19.449-76.375 29.559-23.131 9.632-42.989 18.853-54.052 24.644-13.215 6.929-24.622 12.537-41.211 21.308-11.599 6.177-25.628 13.821-44.212 25.294-21.413 13.283-36.154 23.363-48.343 32.066-17.379 12.572-29.813 22.176-47.214 38.744-19.129 18.28-37.232 39.076-49.773 56.578-5.67 7.826-11.795 17.348-17.22 27.636-7.127 13.404-13.127 28.681-16.533 42.748-2.857 11.665-4.118 21.528-4.488 30.309a118 118 0 0 0-.062 7.921 122 122 0 0 0 5.119 28.207 118 118 0 0 0 1.704 4.565c3.148 7.918 7.795 17.368 15.048 28.069 11.59 16.912 24.5 29.933 39.54 42.101 11.52 9.25 25.004 18.227 40.769 26.531 10.953 5.785 23.793 11.575 36.727 16.615 19.307 7.572 38.898 13.498 52.676 17.524 5.063 1.486 9.441 2.908 13.829 4.286l.058.019.896.28c33.79 8.442 68.247 14.189 102.874 18.048 3.067.298 6.06.573 9.05.834 14.648 1.293 29.095 2.168 38.413 2.402 10.258.3 35.762 1.547 62.544 1.619 17.642.088 35.955-.27 50.668-.899 8.624-.364 17.054-.415 25.446-.532 7.868-.113 16.003-.295 24.944-.914 4.471-.311 9.181-.729 14.293-1.211 4.49-.424 9.251-.895 14.258-1.372 4.723-.45 14.876-1.169 28.152-2.351 8.24-.733 17.446-1.623 27.17-2.694a1588 1588 0 0 0 76.736-11.625c5.309-1.128 9.877-2.223 13.432-3.231 2.559-.724 4.724-1.435 6.947-2.168 3.026-.998 6.157-2.037 10.525-3.235 3.413-.935 7.484-1.844 10.258-2.276l.372-.056a55 55 0 0 1 2.833-.329c1.042-.101 1.973-.193 3.084-.42.802-.164 1.621-.407 2.629-.704a81 81 0 0 1 6.924-1.771c11.979-2.519 25.618-5.458 38.932-8.523 14.684-3.371 29.272-6.976 40.603-10.015 12.807-3.421 30.992-8.132 49.272-13.319 12.704-3.594 25.307-7.36 36.147-10.828 10.538-3.366 21.461-7.243 31.973-11.125 12.498-4.612 24.699-9.339 34.955-13.037 2.081-.749 4.733-1.455 8.071-2.363 2.402-.658 5.16-1.422 8.26-2.362a1307 1307 0 0 0 38.688-16.22q.645-.354 1.32-.721c.01-.004.01-.008.02-.012 10.01-5.486 23.8-13.117 43.94-22.209 5.11-2.315 8.39-3.572 11.35-4.709 2.88-1.111 5.5-2.134 9.19-3.991 4.18-2.104 8.93-4.852 14.02-7.868 7.05-4.174 15.31-9.191 23.45-13.57l1.79-.962c5.88-3.179 14.9-8.197 23.59-12.883 25.28-15.698 49.67-32.699 72.56-51.454 37.85-31.234 72.88-67.424 93.62-111.374 10.08-21.297 15.41-43.223 16.94-59.817 1.6-16.608.81-26.413 2.84-26.817 1.74-.388 6.37 8.882 7.7 26.966 1.42 17.991-2.66 42.965-13.18 66.157-16.94 37.797-43.56 69.721-72.8 97.793a404 404 0 0 1-4.54 4.379c-11.55 10.94-22.41 20.672-33.59 30.075a505 505 0 0 1-7.8 6.438"/></svg>